M48
;DRILL file {KiCad 4.0.7} date 06/04/18 21:42:48
;FORMAT={-:-/ absolute / metric / decimal}
FMAT,2
METRIC,TZ
T1C0.762
T2C0.800
T3C0.900
T4C1.000
T5C1.016
T6C1.020
%
G90
G05
M71
T1
X96.Y-34.
X96.Y-36.54
X96.Y-39.08
X96.Y-41.62
X98.54Y-34.
X98.54Y-36.54
X98.54Y-39.08
X98.54Y-41.62
T2
X62.Y-34.44
X62.Y-36.98
X62.Y-39.52
X62.Y-42.06
X62.Y-44.6
X62.Y-47.14
X62.Y-49.68
X62.Y-52.22
X62.Y-54.76
X62.Y-57.3
X62.Y-59.84
X62.Y-62.38
X62.Y-64.92
X62.Y-67.46
X62.Y-70.
X77.24Y-34.44
X77.24Y-36.98
X77.24Y-39.52
X77.24Y-42.06
X77.24Y-44.6
X77.24Y-47.14
X77.24Y-49.68
X77.24Y-52.22
X77.24Y-54.76
X77.24Y-57.3
X77.24Y-59.84
X77.24Y-62.38
X77.24Y-64.92
X77.24Y-67.46
X77.24Y-70.
T3
X54.Y-53.46
X54.Y-56.
X54.Y-62.
X54.Y-64.54
X54.Y-67.08
T4
X68.Y-34.44
X68.Y-36.98
X68.Y-39.52
X68.Y-42.06
X68.Y-44.6
X68.Y-47.14
X68.Y-49.68
X68.Y-52.22
X68.Y-54.76
X68.Y-57.3
X68.Y-59.84
X68.Y-62.38
X68.Y-64.92
X68.Y-67.46
X68.Y-70.
X70.54Y-34.44
X70.54Y-36.98
X70.54Y-39.52
X70.54Y-42.06
X70.54Y-44.6
X70.54Y-47.14
X70.54Y-49.68
X70.54Y-52.22
X70.54Y-54.76
X70.54Y-57.3
X70.54Y-59.84
X70.54Y-62.38
X70.54Y-64.92
X70.54Y-67.46
X70.54Y-70.
X87.Y-53.
X87.Y-59.5
X87.Y-66.5
X87.Y-73.
T5
X53.34Y-35.56
X53.34Y-38.1
X53.34Y-40.64
X84.976Y-33.939
X84.976Y-36.479
X84.976Y-39.019
X84.976Y-41.559
T6
X98.Y-67.3
X98.Y-80.
T0
M30
