G04 #@! TF.FileFunction,Soldermask,Bot*
%FSLAX46Y46*%
G04 Gerber Fmt 4.6, Leading zero omitted, Abs format (unit mm)*
G04 Created by KiCad (PCBNEW 4.0.7) date 06/10/18 23:21:09*
%MOMM*%
%LPD*%
G01*
G04 APERTURE LIST*
%ADD10C,0.100000*%
%ADD11C,2.000000*%
%ADD12C,2.400000*%
%ADD13C,3.900000*%
%ADD14C,2.000000*%
%ADD15R,2.200000X2.200000*%
%ADD16C,2.200000*%
%ADD17R,2.100000X2.100000*%
%ADD18O,2.100000X2.100000*%
%ADD19R,2.432000X2.127200*%
%ADD20O,2.432000X2.127200*%
%ADD21C,1.924000*%
G04 APERTURE END LIST*
D10*
G36*
X15585786Y-50000000D02*
X17000000Y-48585786D01*
X18414214Y-50000000D01*
X17000000Y-51414214D01*
X15585786Y-50000000D01*
X15585786Y-50000000D01*
G37*
D11*
X51124973Y-37427641D02*
X51124973Y-37427641D01*
X18796051Y-48203949D02*
X18796051Y-48203949D01*
X49328922Y-39223693D02*
X49328922Y-39223693D01*
X20592102Y-46407898D02*
X20592102Y-46407898D01*
X47532871Y-41019744D02*
X47532871Y-41019744D01*
X22388154Y-44611846D02*
X22388154Y-44611846D01*
X45736820Y-42815795D02*
X45736820Y-42815795D01*
X24184205Y-42815795D02*
X24184205Y-42815795D01*
X43940768Y-44611846D02*
X43940768Y-44611846D01*
X25980256Y-41019744D02*
X25980256Y-41019744D01*
X42144717Y-46407898D02*
X42144717Y-46407898D01*
X27776307Y-39223693D02*
X27776307Y-39223693D01*
X40348666Y-48203949D02*
X40348666Y-48203949D01*
X29572359Y-37427641D02*
X29572359Y-37427641D01*
X38552615Y-50000000D02*
X38552615Y-50000000D01*
X31368410Y-35631590D02*
X31368410Y-35631590D01*
X36756563Y-51796051D02*
X36756563Y-51796051D01*
X33164461Y-33835539D02*
X33164461Y-33835539D01*
X34960512Y-53592102D02*
X34960512Y-53592102D01*
X34960512Y-32039488D02*
X34960512Y-32039488D01*
X33164461Y-55388154D02*
X33164461Y-55388154D01*
X36756563Y-30243437D02*
X36756563Y-30243437D01*
X31368410Y-57184205D02*
X31368410Y-57184205D01*
X38552615Y-28447385D02*
X38552615Y-28447385D01*
X29572359Y-58980256D02*
X29572359Y-58980256D01*
X40348666Y-26651334D02*
X40348666Y-26651334D01*
X27776307Y-60776307D02*
X27776307Y-60776307D01*
X42144717Y-24855283D02*
X42144717Y-24855283D01*
X52921024Y-35631590D02*
X52921024Y-35631590D01*
D10*
G36*
X94302944Y-5000000D02*
X96000000Y-3302944D01*
X97697056Y-5000000D01*
X96000000Y-6697056D01*
X94302944Y-5000000D01*
X94302944Y-5000000D01*
G37*
D12*
X104980256Y3980256D03*
D13*
X129388592Y-5161645D03*
X112775118Y-21775118D03*
D10*
G36*
X64414214Y-28000000D02*
X63000000Y-29414214D01*
X61585786Y-28000000D01*
X63000000Y-26585786D01*
X64414214Y-28000000D01*
X64414214Y-28000000D01*
G37*
D14*
X58403806Y-23403806D03*
D10*
G36*
X13585786Y-66000000D02*
X15000000Y-64585786D01*
X16414214Y-66000000D01*
X15000000Y-67414214D01*
X13585786Y-66000000D01*
X13585786Y-66000000D01*
G37*
D14*
X19596194Y-70596194D03*
D15*
X33000000Y-13000000D03*
D16*
X30460000Y-13000000D03*
D17*
X86000000Y-47000000D03*
D18*
X83460000Y-47000000D03*
X86000000Y-49540000D03*
X83460000Y-49540000D03*
X86000000Y-52080000D03*
X83460000Y-52080000D03*
X86000000Y-54620000D03*
X83460000Y-54620000D03*
X86000000Y-57160000D03*
X83460000Y-57160000D03*
X86000000Y-59700000D03*
X83460000Y-59700000D03*
X86000000Y-62240000D03*
X83460000Y-62240000D03*
X86000000Y-64780000D03*
X83460000Y-64780000D03*
X86000000Y-67320000D03*
X83460000Y-67320000D03*
X86000000Y-69860000D03*
X83460000Y-69860000D03*
X86000000Y-72400000D03*
X83460000Y-72400000D03*
X86000000Y-74940000D03*
X83460000Y-74940000D03*
X86000000Y-77480000D03*
X83460000Y-77480000D03*
X86000000Y-80020000D03*
X83460000Y-80020000D03*
X86000000Y-82560000D03*
X83460000Y-82560000D03*
D19*
X5000000Y-23540000D03*
D20*
X5000000Y-21000000D03*
X5000000Y-18460000D03*
D19*
X5024229Y-42060707D03*
D20*
X5024229Y-39520707D03*
X5024229Y-36980707D03*
X5024229Y-34440707D03*
D12*
X54181981Y-87181981D03*
X51000000Y-84000000D03*
X58778175Y-82585786D03*
X55596194Y-79403806D03*
X63181981Y-83181981D03*
X60000000Y-80000000D03*
X67778175Y-78585786D03*
X64596194Y-75403806D03*
X70181981Y-76181981D03*
X67000000Y-73000000D03*
X74778175Y-71585786D03*
X71596194Y-68403806D03*
X74181981Y-67181981D03*
X71000000Y-64000000D03*
X78778175Y-62585786D03*
X75596194Y-59403806D03*
D15*
X42000000Y-14000000D03*
D16*
X39460000Y-14000000D03*
X36920000Y-14000000D03*
D10*
G36*
X12360473Y-13000000D02*
X11000000Y-14360473D01*
X9639527Y-13000000D01*
X11000000Y-11639527D01*
X12360473Y-13000000D01*
X12360473Y-13000000D01*
G37*
D21*
X9203949Y-11203949D03*
X12796051Y-11203949D03*
X11000000Y-9407898D03*
X14592102Y-9407898D03*
X12796051Y-7611846D03*
X16388154Y-7611846D03*
X14592102Y-5815795D03*
M02*
