G04 #@! TF.FileFunction,Legend,Top*
%FSLAX46Y46*%
G04 Gerber Fmt 4.6, Leading zero omitted, Abs format (unit mm)*
G04 Created by KiCad (PCBNEW 4.0.7) date 06/04/18 22:21:00*
%MOMM*%
%LPD*%
G01*
G04 APERTURE LIST*
%ADD10C,0.100000*%
%ADD11C,0.300000*%
%ADD12C,0.120000*%
%ADD13C,0.150000*%
G04 APERTURE END LIST*
D10*
D11*
X136142857Y44196429D02*
X137000000Y44196429D01*
X136571429Y42696429D02*
X136571429Y44196429D01*
X137785714Y44196429D02*
X138071428Y44196429D01*
X138214286Y44125000D01*
X138357143Y43982143D01*
X138428571Y43696429D01*
X138428571Y43196429D01*
X138357143Y42910714D01*
X138214286Y42767857D01*
X138071428Y42696429D01*
X137785714Y42696429D01*
X137642857Y42767857D01*
X137500000Y42910714D01*
X137428571Y43196429D01*
X137428571Y43696429D01*
X137500000Y43982143D01*
X137642857Y44125000D01*
X137785714Y44196429D01*
X139071429Y42696429D02*
X139071429Y44196429D01*
X139428572Y44196429D01*
X139642857Y44125000D01*
X139785715Y43982143D01*
X139857143Y43839286D01*
X139928572Y43553571D01*
X139928572Y43339286D01*
X139857143Y43053571D01*
X139785715Y42910714D01*
X139642857Y42767857D01*
X139428572Y42696429D01*
X139071429Y42696429D01*
X140857143Y44196429D02*
X141142857Y44196429D01*
X141285715Y44125000D01*
X141428572Y43982143D01*
X141500000Y43696429D01*
X141500000Y43196429D01*
X141428572Y42910714D01*
X141285715Y42767857D01*
X141142857Y42696429D01*
X140857143Y42696429D01*
X140714286Y42767857D01*
X140571429Y42910714D01*
X140500000Y43196429D01*
X140500000Y43696429D01*
X140571429Y43982143D01*
X140714286Y44125000D01*
X140857143Y44196429D01*
X142142858Y42839286D02*
X142214286Y42767857D01*
X142142858Y42696429D01*
X142071429Y42767857D01*
X142142858Y42839286D01*
X142142858Y42696429D01*
X142142858Y43625000D02*
X142214286Y43553571D01*
X142142858Y43482143D01*
X142071429Y43553571D01*
X142142858Y43625000D01*
X142142858Y43482143D01*
X136357143Y38167857D02*
X137500000Y38167857D01*
X139857143Y38382143D02*
X139357143Y38382143D01*
X139357143Y37596429D02*
X139357143Y39096429D01*
X140071429Y39096429D01*
X140642857Y37596429D02*
X140642857Y38596429D01*
X140642857Y39096429D02*
X140571428Y39025000D01*
X140642857Y38953571D01*
X140714285Y39025000D01*
X140642857Y39096429D01*
X140642857Y38953571D01*
X141357143Y38596429D02*
X141357143Y37596429D01*
X141357143Y38453571D02*
X141428571Y38525000D01*
X141571429Y38596429D01*
X141785714Y38596429D01*
X141928571Y38525000D01*
X142000000Y38382143D01*
X142000000Y37596429D01*
X143357143Y37596429D02*
X143357143Y38382143D01*
X143285714Y38525000D01*
X143142857Y38596429D01*
X142857143Y38596429D01*
X142714286Y38525000D01*
X143357143Y37667857D02*
X143214286Y37596429D01*
X142857143Y37596429D01*
X142714286Y37667857D01*
X142642857Y37810714D01*
X142642857Y37953571D01*
X142714286Y38096429D01*
X142857143Y38167857D01*
X143214286Y38167857D01*
X143357143Y38239286D01*
X144285715Y37596429D02*
X144142857Y37667857D01*
X144071429Y37810714D01*
X144071429Y39096429D01*
X144857143Y37596429D02*
X144857143Y38596429D01*
X144857143Y39096429D02*
X144785714Y39025000D01*
X144857143Y38953571D01*
X144928571Y39025000D01*
X144857143Y39096429D01*
X144857143Y38953571D01*
X145500000Y37667857D02*
X145642857Y37596429D01*
X145928572Y37596429D01*
X146071429Y37667857D01*
X146142857Y37810714D01*
X146142857Y37882143D01*
X146071429Y38025000D01*
X145928572Y38096429D01*
X145714286Y38096429D01*
X145571429Y38167857D01*
X145500000Y38310714D01*
X145500000Y38382143D01*
X145571429Y38525000D01*
X145714286Y38596429D01*
X145928572Y38596429D01*
X146071429Y38525000D01*
X147357143Y37667857D02*
X147214286Y37596429D01*
X146928572Y37596429D01*
X146785715Y37667857D01*
X146714286Y37810714D01*
X146714286Y38382143D01*
X146785715Y38525000D01*
X146928572Y38596429D01*
X147214286Y38596429D01*
X147357143Y38525000D01*
X147428572Y38382143D01*
X147428572Y38239286D01*
X146714286Y38096429D01*
X149214286Y37596429D02*
X149214286Y39096429D01*
X149785714Y39096429D01*
X149928572Y39025000D01*
X150000000Y38953571D01*
X150071429Y38810714D01*
X150071429Y38596429D01*
X150000000Y38453571D01*
X149928572Y38382143D01*
X149785714Y38310714D01*
X149214286Y38310714D01*
X151571429Y37739286D02*
X151500000Y37667857D01*
X151285714Y37596429D01*
X151142857Y37596429D01*
X150928572Y37667857D01*
X150785714Y37810714D01*
X150714286Y37953571D01*
X150642857Y38239286D01*
X150642857Y38453571D01*
X150714286Y38739286D01*
X150785714Y38882143D01*
X150928572Y39025000D01*
X151142857Y39096429D01*
X151285714Y39096429D01*
X151500000Y39025000D01*
X151571429Y38953571D01*
X152714286Y38382143D02*
X152928572Y38310714D01*
X153000000Y38239286D01*
X153071429Y38096429D01*
X153071429Y37882143D01*
X153000000Y37739286D01*
X152928572Y37667857D01*
X152785714Y37596429D01*
X152214286Y37596429D01*
X152214286Y39096429D01*
X152714286Y39096429D01*
X152857143Y39025000D01*
X152928572Y38953571D01*
X153000000Y38810714D01*
X153000000Y38667857D01*
X152928572Y38525000D01*
X152857143Y38453571D01*
X152714286Y38382143D01*
X152214286Y38382143D01*
X155500000Y37596429D02*
X155500000Y39096429D01*
X155500000Y37667857D02*
X155357143Y37596429D01*
X155071429Y37596429D01*
X154928571Y37667857D01*
X154857143Y37739286D01*
X154785714Y37882143D01*
X154785714Y38310714D01*
X154857143Y38453571D01*
X154928571Y38525000D01*
X155071429Y38596429D01*
X155357143Y38596429D01*
X155500000Y38525000D01*
X156785714Y37667857D02*
X156642857Y37596429D01*
X156357143Y37596429D01*
X156214286Y37667857D01*
X156142857Y37810714D01*
X156142857Y38382143D01*
X156214286Y38525000D01*
X156357143Y38596429D01*
X156642857Y38596429D01*
X156785714Y38525000D01*
X156857143Y38382143D01*
X156857143Y38239286D01*
X156142857Y38096429D01*
X157428571Y37667857D02*
X157571428Y37596429D01*
X157857143Y37596429D01*
X158000000Y37667857D01*
X158071428Y37810714D01*
X158071428Y37882143D01*
X158000000Y38025000D01*
X157857143Y38096429D01*
X157642857Y38096429D01*
X157500000Y38167857D01*
X157428571Y38310714D01*
X157428571Y38382143D01*
X157500000Y38525000D01*
X157642857Y38596429D01*
X157857143Y38596429D01*
X158000000Y38525000D01*
X158714286Y37596429D02*
X158714286Y38596429D01*
X158714286Y39096429D02*
X158642857Y39025000D01*
X158714286Y38953571D01*
X158785714Y39025000D01*
X158714286Y39096429D01*
X158714286Y38953571D01*
X160071429Y38596429D02*
X160071429Y37382143D01*
X160000000Y37239286D01*
X159928572Y37167857D01*
X159785715Y37096429D01*
X159571429Y37096429D01*
X159428572Y37167857D01*
X160071429Y37667857D02*
X159928572Y37596429D01*
X159642858Y37596429D01*
X159500000Y37667857D01*
X159428572Y37739286D01*
X159357143Y37882143D01*
X159357143Y38310714D01*
X159428572Y38453571D01*
X159500000Y38525000D01*
X159642858Y38596429D01*
X159928572Y38596429D01*
X160071429Y38525000D01*
X160785715Y38596429D02*
X160785715Y37596429D01*
X160785715Y38453571D02*
X160857143Y38525000D01*
X161000001Y38596429D01*
X161214286Y38596429D01*
X161357143Y38525000D01*
X161428572Y38382143D01*
X161428572Y37596429D01*
X163928572Y37667857D02*
X163785715Y37596429D01*
X163500001Y37596429D01*
X163357143Y37667857D01*
X163285715Y37739286D01*
X163214286Y37882143D01*
X163214286Y38310714D01*
X163285715Y38453571D01*
X163357143Y38525000D01*
X163500001Y38596429D01*
X163785715Y38596429D01*
X163928572Y38525000D01*
X164785715Y37596429D02*
X164642857Y37667857D01*
X164571429Y37739286D01*
X164500000Y37882143D01*
X164500000Y38310714D01*
X164571429Y38453571D01*
X164642857Y38525000D01*
X164785715Y38596429D01*
X165000000Y38596429D01*
X165142857Y38525000D01*
X165214286Y38453571D01*
X165285715Y38310714D01*
X165285715Y37882143D01*
X165214286Y37739286D01*
X165142857Y37667857D01*
X165000000Y37596429D01*
X164785715Y37596429D01*
X165928572Y38596429D02*
X165928572Y37596429D01*
X165928572Y38453571D02*
X166000000Y38525000D01*
X166142858Y38596429D01*
X166357143Y38596429D01*
X166500000Y38525000D01*
X166571429Y38382143D01*
X166571429Y37596429D01*
X167928572Y37667857D02*
X167785715Y37596429D01*
X167500001Y37596429D01*
X167357143Y37667857D01*
X167285715Y37739286D01*
X167214286Y37882143D01*
X167214286Y38310714D01*
X167285715Y38453571D01*
X167357143Y38525000D01*
X167500001Y38596429D01*
X167785715Y38596429D01*
X167928572Y38525000D01*
X169142857Y37667857D02*
X169000000Y37596429D01*
X168714286Y37596429D01*
X168571429Y37667857D01*
X168500000Y37810714D01*
X168500000Y38382143D01*
X168571429Y38525000D01*
X168714286Y38596429D01*
X169000000Y38596429D01*
X169142857Y38525000D01*
X169214286Y38382143D01*
X169214286Y38239286D01*
X168500000Y38096429D01*
X169857143Y38596429D02*
X169857143Y37096429D01*
X169857143Y38525000D02*
X170000000Y38596429D01*
X170285714Y38596429D01*
X170428571Y38525000D01*
X170500000Y38453571D01*
X170571429Y38310714D01*
X170571429Y37882143D01*
X170500000Y37739286D01*
X170428571Y37667857D01*
X170285714Y37596429D01*
X170000000Y37596429D01*
X169857143Y37667857D01*
X171000000Y38596429D02*
X171571429Y38596429D01*
X171214286Y39096429D02*
X171214286Y37810714D01*
X171285714Y37667857D01*
X171428572Y37596429D01*
X171571429Y37596429D01*
X136357143Y35617857D02*
X137500000Y35617857D01*
X140071429Y35046429D02*
X139357143Y35046429D01*
X139357143Y36546429D01*
X141214286Y35046429D02*
X141214286Y35832143D01*
X141142857Y35975000D01*
X141000000Y36046429D01*
X140714286Y36046429D01*
X140571429Y35975000D01*
X141214286Y35117857D02*
X141071429Y35046429D01*
X140714286Y35046429D01*
X140571429Y35117857D01*
X140500000Y35260714D01*
X140500000Y35403571D01*
X140571429Y35546429D01*
X140714286Y35617857D01*
X141071429Y35617857D01*
X141214286Y35689286D01*
X141785715Y36046429D02*
X142142858Y35046429D01*
X142500000Y36046429D02*
X142142858Y35046429D01*
X142000000Y34689286D01*
X141928572Y34617857D01*
X141785715Y34546429D01*
X143285715Y35046429D02*
X143142857Y35117857D01*
X143071429Y35189286D01*
X143000000Y35332143D01*
X143000000Y35760714D01*
X143071429Y35903571D01*
X143142857Y35975000D01*
X143285715Y36046429D01*
X143500000Y36046429D01*
X143642857Y35975000D01*
X143714286Y35903571D01*
X143785715Y35760714D01*
X143785715Y35332143D01*
X143714286Y35189286D01*
X143642857Y35117857D01*
X143500000Y35046429D01*
X143285715Y35046429D01*
X145071429Y36046429D02*
X145071429Y35046429D01*
X144428572Y36046429D02*
X144428572Y35260714D01*
X144500000Y35117857D01*
X144642858Y35046429D01*
X144857143Y35046429D01*
X145000000Y35117857D01*
X145071429Y35189286D01*
X145571429Y36046429D02*
X146142858Y36046429D01*
X145785715Y36546429D02*
X145785715Y35260714D01*
X145857143Y35117857D01*
X146000001Y35046429D01*
X146142858Y35046429D01*
X148428572Y35117857D02*
X148285715Y35046429D01*
X148000001Y35046429D01*
X147857143Y35117857D01*
X147785715Y35189286D01*
X147714286Y35332143D01*
X147714286Y35760714D01*
X147785715Y35903571D01*
X147857143Y35975000D01*
X148000001Y36046429D01*
X148285715Y36046429D01*
X148428572Y35975000D01*
X149285715Y35046429D02*
X149142857Y35117857D01*
X149071429Y35189286D01*
X149000000Y35332143D01*
X149000000Y35760714D01*
X149071429Y35903571D01*
X149142857Y35975000D01*
X149285715Y36046429D01*
X149500000Y36046429D01*
X149642857Y35975000D01*
X149714286Y35903571D01*
X149785715Y35760714D01*
X149785715Y35332143D01*
X149714286Y35189286D01*
X149642857Y35117857D01*
X149500000Y35046429D01*
X149285715Y35046429D01*
X150428572Y35046429D02*
X150428572Y36046429D01*
X150428572Y35903571D02*
X150500000Y35975000D01*
X150642858Y36046429D01*
X150857143Y36046429D01*
X151000000Y35975000D01*
X151071429Y35832143D01*
X151071429Y35046429D01*
X151071429Y35832143D02*
X151142858Y35975000D01*
X151285715Y36046429D01*
X151500000Y36046429D01*
X151642858Y35975000D01*
X151714286Y35832143D01*
X151714286Y35046429D01*
X152428572Y36046429D02*
X152428572Y34546429D01*
X152428572Y35975000D02*
X152571429Y36046429D01*
X152857143Y36046429D01*
X153000000Y35975000D01*
X153071429Y35903571D01*
X153142858Y35760714D01*
X153142858Y35332143D01*
X153071429Y35189286D01*
X153000000Y35117857D01*
X152857143Y35046429D01*
X152571429Y35046429D01*
X152428572Y35117857D01*
X154000001Y35046429D02*
X153857143Y35117857D01*
X153785715Y35189286D01*
X153714286Y35332143D01*
X153714286Y35760714D01*
X153785715Y35903571D01*
X153857143Y35975000D01*
X154000001Y36046429D01*
X154214286Y36046429D01*
X154357143Y35975000D01*
X154428572Y35903571D01*
X154500001Y35760714D01*
X154500001Y35332143D01*
X154428572Y35189286D01*
X154357143Y35117857D01*
X154214286Y35046429D01*
X154000001Y35046429D01*
X155142858Y36046429D02*
X155142858Y35046429D01*
X155142858Y35903571D02*
X155214286Y35975000D01*
X155357144Y36046429D01*
X155571429Y36046429D01*
X155714286Y35975000D01*
X155785715Y35832143D01*
X155785715Y35046429D01*
X157071429Y35117857D02*
X156928572Y35046429D01*
X156642858Y35046429D01*
X156500001Y35117857D01*
X156428572Y35260714D01*
X156428572Y35832143D01*
X156500001Y35975000D01*
X156642858Y36046429D01*
X156928572Y36046429D01*
X157071429Y35975000D01*
X157142858Y35832143D01*
X157142858Y35689286D01*
X156428572Y35546429D01*
X157785715Y36046429D02*
X157785715Y35046429D01*
X157785715Y35903571D02*
X157857143Y35975000D01*
X158000001Y36046429D01*
X158214286Y36046429D01*
X158357143Y35975000D01*
X158428572Y35832143D01*
X158428572Y35046429D01*
X158928572Y36046429D02*
X159500001Y36046429D01*
X159142858Y36546429D02*
X159142858Y35260714D01*
X159214286Y35117857D01*
X159357144Y35046429D01*
X159500001Y35046429D01*
X159928572Y35117857D02*
X160071429Y35046429D01*
X160357144Y35046429D01*
X160500001Y35117857D01*
X160571429Y35260714D01*
X160571429Y35332143D01*
X160500001Y35475000D01*
X160357144Y35546429D01*
X160142858Y35546429D01*
X160000001Y35617857D01*
X159928572Y35760714D01*
X159928572Y35832143D01*
X160000001Y35975000D01*
X160142858Y36046429D01*
X160357144Y36046429D01*
X160500001Y35975000D01*
X136357143Y33067857D02*
X137500000Y33067857D01*
X140214286Y32639286D02*
X140142857Y32567857D01*
X139928571Y32496429D01*
X139785714Y32496429D01*
X139571429Y32567857D01*
X139428571Y32710714D01*
X139357143Y32853571D01*
X139285714Y33139286D01*
X139285714Y33353571D01*
X139357143Y33639286D01*
X139428571Y33782143D01*
X139571429Y33925000D01*
X139785714Y33996429D01*
X139928571Y33996429D01*
X140142857Y33925000D01*
X140214286Y33853571D01*
X140857143Y32496429D02*
X140857143Y33496429D01*
X140857143Y33210714D02*
X140928571Y33353571D01*
X141000000Y33425000D01*
X141142857Y33496429D01*
X141285714Y33496429D01*
X142357142Y32567857D02*
X142214285Y32496429D01*
X141928571Y32496429D01*
X141785714Y32567857D01*
X141714285Y32710714D01*
X141714285Y33282143D01*
X141785714Y33425000D01*
X141928571Y33496429D01*
X142214285Y33496429D01*
X142357142Y33425000D01*
X142428571Y33282143D01*
X142428571Y33139286D01*
X141714285Y32996429D01*
X143714285Y32496429D02*
X143714285Y33282143D01*
X143642856Y33425000D01*
X143499999Y33496429D01*
X143214285Y33496429D01*
X143071428Y33425000D01*
X143714285Y32567857D02*
X143571428Y32496429D01*
X143214285Y32496429D01*
X143071428Y32567857D01*
X142999999Y32710714D01*
X142999999Y32853571D01*
X143071428Y32996429D01*
X143214285Y33067857D01*
X143571428Y33067857D01*
X143714285Y33139286D01*
X144214285Y33496429D02*
X144785714Y33496429D01*
X144428571Y33996429D02*
X144428571Y32710714D01*
X144499999Y32567857D01*
X144642857Y32496429D01*
X144785714Y32496429D01*
X145857142Y32567857D02*
X145714285Y32496429D01*
X145428571Y32496429D01*
X145285714Y32567857D01*
X145214285Y32710714D01*
X145214285Y33282143D01*
X145285714Y33425000D01*
X145428571Y33496429D01*
X145714285Y33496429D01*
X145857142Y33425000D01*
X145928571Y33282143D01*
X145928571Y33139286D01*
X145214285Y32996429D01*
X147499999Y33996429D02*
X147999999Y32496429D01*
X148499999Y33996429D01*
X149857142Y32639286D02*
X149785713Y32567857D01*
X149571427Y32496429D01*
X149428570Y32496429D01*
X149214285Y32567857D01*
X149071427Y32710714D01*
X148999999Y32853571D01*
X148928570Y33139286D01*
X148928570Y33353571D01*
X148999999Y33639286D01*
X149071427Y33782143D01*
X149214285Y33925000D01*
X149428570Y33996429D01*
X149571427Y33996429D01*
X149785713Y33925000D01*
X149857142Y33853571D01*
X151357142Y32639286D02*
X151285713Y32567857D01*
X151071427Y32496429D01*
X150928570Y32496429D01*
X150714285Y32567857D01*
X150571427Y32710714D01*
X150499999Y32853571D01*
X150428570Y33139286D01*
X150428570Y33353571D01*
X150499999Y33639286D01*
X150571427Y33782143D01*
X150714285Y33925000D01*
X150928570Y33996429D01*
X151071427Y33996429D01*
X151285713Y33925000D01*
X151357142Y33853571D01*
X153785713Y32496429D02*
X153785713Y33282143D01*
X153714284Y33425000D01*
X153571427Y33496429D01*
X153285713Y33496429D01*
X153142856Y33425000D01*
X153785713Y32567857D02*
X153642856Y32496429D01*
X153285713Y32496429D01*
X153142856Y32567857D01*
X153071427Y32710714D01*
X153071427Y32853571D01*
X153142856Y32996429D01*
X153285713Y33067857D01*
X153642856Y33067857D01*
X153785713Y33139286D01*
X154499999Y33496429D02*
X154499999Y32496429D01*
X154499999Y33353571D02*
X154571427Y33425000D01*
X154714285Y33496429D01*
X154928570Y33496429D01*
X155071427Y33425000D01*
X155142856Y33282143D01*
X155142856Y32496429D01*
X156499999Y32496429D02*
X156499999Y33996429D01*
X156499999Y32567857D02*
X156357142Y32496429D01*
X156071428Y32496429D01*
X155928570Y32567857D01*
X155857142Y32639286D01*
X155785713Y32782143D01*
X155785713Y33210714D01*
X155857142Y33353571D01*
X155928570Y33425000D01*
X156071428Y33496429D01*
X156357142Y33496429D01*
X156499999Y33425000D01*
X159142856Y33925000D02*
X158999999Y33996429D01*
X158785713Y33996429D01*
X158571428Y33925000D01*
X158428570Y33782143D01*
X158357142Y33639286D01*
X158285713Y33353571D01*
X158285713Y33139286D01*
X158357142Y32853571D01*
X158428570Y32710714D01*
X158571428Y32567857D01*
X158785713Y32496429D01*
X158928570Y32496429D01*
X159142856Y32567857D01*
X159214285Y32639286D01*
X159214285Y33139286D01*
X158928570Y33139286D01*
X159857142Y32496429D02*
X159857142Y33996429D01*
X160714285Y32496429D01*
X160714285Y33996429D01*
X161428571Y32496429D02*
X161428571Y33996429D01*
X161785714Y33996429D01*
X161999999Y33925000D01*
X162142857Y33782143D01*
X162214285Y33639286D01*
X162285714Y33353571D01*
X162285714Y33139286D01*
X162214285Y32853571D01*
X162142857Y32710714D01*
X161999999Y32567857D01*
X161785714Y32496429D01*
X161428571Y32496429D01*
X164071428Y33496429D02*
X164071428Y31996429D01*
X164071428Y33425000D02*
X164214285Y33496429D01*
X164499999Y33496429D01*
X164642856Y33425000D01*
X164714285Y33353571D01*
X164785714Y33210714D01*
X164785714Y32782143D01*
X164714285Y32639286D01*
X164642856Y32567857D01*
X164499999Y32496429D01*
X164214285Y32496429D01*
X164071428Y32567857D01*
X165642857Y32496429D02*
X165499999Y32567857D01*
X165428571Y32710714D01*
X165428571Y33996429D01*
X166857142Y32496429D02*
X166857142Y33282143D01*
X166785713Y33425000D01*
X166642856Y33496429D01*
X166357142Y33496429D01*
X166214285Y33425000D01*
X166857142Y32567857D02*
X166714285Y32496429D01*
X166357142Y32496429D01*
X166214285Y32567857D01*
X166142856Y32710714D01*
X166142856Y32853571D01*
X166214285Y32996429D01*
X166357142Y33067857D01*
X166714285Y33067857D01*
X166857142Y33139286D01*
X167571428Y33496429D02*
X167571428Y32496429D01*
X167571428Y33353571D02*
X167642856Y33425000D01*
X167785714Y33496429D01*
X167999999Y33496429D01*
X168142856Y33425000D01*
X168214285Y33282143D01*
X168214285Y32496429D01*
X169499999Y32567857D02*
X169357142Y32496429D01*
X169071428Y32496429D01*
X168928571Y32567857D01*
X168857142Y32710714D01*
X168857142Y33282143D01*
X168928571Y33425000D01*
X169071428Y33496429D01*
X169357142Y33496429D01*
X169499999Y33425000D01*
X169571428Y33282143D01*
X169571428Y33139286D01*
X168857142Y32996429D01*
X170142856Y32567857D02*
X170285713Y32496429D01*
X170571428Y32496429D01*
X170714285Y32567857D01*
X170785713Y32710714D01*
X170785713Y32782143D01*
X170714285Y32925000D01*
X170571428Y32996429D01*
X170357142Y32996429D01*
X170214285Y33067857D01*
X170142856Y33210714D01*
X170142856Y33282143D01*
X170214285Y33425000D01*
X170357142Y33496429D01*
X170571428Y33496429D01*
X170714285Y33425000D01*
X172785714Y32496429D02*
X172642856Y32567857D01*
X172571428Y32639286D01*
X172499999Y32782143D01*
X172499999Y33210714D01*
X172571428Y33353571D01*
X172642856Y33425000D01*
X172785714Y33496429D01*
X172999999Y33496429D01*
X173142856Y33425000D01*
X173214285Y33353571D01*
X173285714Y33210714D01*
X173285714Y32782143D01*
X173214285Y32639286D01*
X173142856Y32567857D01*
X172999999Y32496429D01*
X172785714Y32496429D01*
X173928571Y33496429D02*
X173928571Y32496429D01*
X173928571Y33353571D02*
X173999999Y33425000D01*
X174142857Y33496429D01*
X174357142Y33496429D01*
X174499999Y33425000D01*
X174571428Y33282143D01*
X174571428Y32496429D01*
X176214285Y33496429D02*
X176785714Y33496429D01*
X176428571Y32496429D02*
X176428571Y33782143D01*
X176499999Y33925000D01*
X176642857Y33996429D01*
X176785714Y33996429D01*
X177285714Y32496429D02*
X177285714Y33496429D01*
X177285714Y33210714D02*
X177357142Y33353571D01*
X177428571Y33425000D01*
X177571428Y33496429D01*
X177714285Y33496429D01*
X178428571Y32496429D02*
X178285713Y32567857D01*
X178214285Y32639286D01*
X178142856Y32782143D01*
X178142856Y33210714D01*
X178214285Y33353571D01*
X178285713Y33425000D01*
X178428571Y33496429D01*
X178642856Y33496429D01*
X178785713Y33425000D01*
X178857142Y33353571D01*
X178928571Y33210714D01*
X178928571Y32782143D01*
X178857142Y32639286D01*
X178785713Y32567857D01*
X178642856Y32496429D01*
X178428571Y32496429D01*
X179571428Y33496429D02*
X179571428Y32496429D01*
X179571428Y33353571D02*
X179642856Y33425000D01*
X179785714Y33496429D01*
X179999999Y33496429D01*
X180142856Y33425000D01*
X180214285Y33282143D01*
X180214285Y32496429D01*
X180714285Y33496429D02*
X181285714Y33496429D01*
X180928571Y33996429D02*
X180928571Y32710714D01*
X180999999Y32567857D01*
X181142857Y32496429D01*
X181285714Y32496429D01*
X183571428Y32496429D02*
X183571428Y33282143D01*
X183499999Y33425000D01*
X183357142Y33496429D01*
X183071428Y33496429D01*
X182928571Y33425000D01*
X183571428Y32567857D02*
X183428571Y32496429D01*
X183071428Y32496429D01*
X182928571Y32567857D01*
X182857142Y32710714D01*
X182857142Y32853571D01*
X182928571Y32996429D01*
X183071428Y33067857D01*
X183428571Y33067857D01*
X183571428Y33139286D01*
X184285714Y33496429D02*
X184285714Y32496429D01*
X184285714Y33353571D02*
X184357142Y33425000D01*
X184500000Y33496429D01*
X184714285Y33496429D01*
X184857142Y33425000D01*
X184928571Y33282143D01*
X184928571Y32496429D01*
X186285714Y32496429D02*
X186285714Y33996429D01*
X186285714Y32567857D02*
X186142857Y32496429D01*
X185857143Y32496429D01*
X185714285Y32567857D01*
X185642857Y32639286D01*
X185571428Y32782143D01*
X185571428Y33210714D01*
X185642857Y33353571D01*
X185714285Y33425000D01*
X185857143Y33496429D01*
X186142857Y33496429D01*
X186285714Y33425000D01*
X188142857Y32496429D02*
X188142857Y33996429D01*
X188142857Y33425000D02*
X188285714Y33496429D01*
X188571428Y33496429D01*
X188714285Y33425000D01*
X188785714Y33353571D01*
X188857143Y33210714D01*
X188857143Y32782143D01*
X188785714Y32639286D01*
X188714285Y32567857D01*
X188571428Y32496429D01*
X188285714Y32496429D01*
X188142857Y32567857D01*
X190142857Y32496429D02*
X190142857Y33282143D01*
X190071428Y33425000D01*
X189928571Y33496429D01*
X189642857Y33496429D01*
X189500000Y33425000D01*
X190142857Y32567857D02*
X190000000Y32496429D01*
X189642857Y32496429D01*
X189500000Y32567857D01*
X189428571Y32710714D01*
X189428571Y32853571D01*
X189500000Y32996429D01*
X189642857Y33067857D01*
X190000000Y33067857D01*
X190142857Y33139286D01*
X191500000Y32567857D02*
X191357143Y32496429D01*
X191071429Y32496429D01*
X190928571Y32567857D01*
X190857143Y32639286D01*
X190785714Y32782143D01*
X190785714Y33210714D01*
X190857143Y33353571D01*
X190928571Y33425000D01*
X191071429Y33496429D01*
X191357143Y33496429D01*
X191500000Y33425000D01*
X192142857Y32496429D02*
X192142857Y33996429D01*
X192285714Y33067857D02*
X192714285Y32496429D01*
X192714285Y33496429D02*
X192142857Y32925000D01*
X194714286Y32496429D02*
X194571428Y32567857D01*
X194500000Y32639286D01*
X194428571Y32782143D01*
X194428571Y33210714D01*
X194500000Y33353571D01*
X194571428Y33425000D01*
X194714286Y33496429D01*
X194928571Y33496429D01*
X195071428Y33425000D01*
X195142857Y33353571D01*
X195214286Y33210714D01*
X195214286Y32782143D01*
X195142857Y32639286D01*
X195071428Y32567857D01*
X194928571Y32496429D01*
X194714286Y32496429D01*
X195642857Y33496429D02*
X196214286Y33496429D01*
X195857143Y32496429D02*
X195857143Y33782143D01*
X195928571Y33925000D01*
X196071429Y33996429D01*
X196214286Y33996429D01*
X197642857Y33496429D02*
X198214286Y33496429D01*
X197857143Y33996429D02*
X197857143Y32710714D01*
X197928571Y32567857D01*
X198071429Y32496429D01*
X198214286Y32496429D01*
X198714286Y32496429D02*
X198714286Y33996429D01*
X199357143Y32496429D02*
X199357143Y33282143D01*
X199285714Y33425000D01*
X199142857Y33496429D01*
X198928572Y33496429D01*
X198785714Y33425000D01*
X198714286Y33353571D01*
X200642857Y32567857D02*
X200500000Y32496429D01*
X200214286Y32496429D01*
X200071429Y32567857D01*
X200000000Y32710714D01*
X200000000Y33282143D01*
X200071429Y33425000D01*
X200214286Y33496429D01*
X200500000Y33496429D01*
X200642857Y33425000D01*
X200714286Y33282143D01*
X200714286Y33139286D01*
X200000000Y32996429D01*
X202500000Y32496429D02*
X202500000Y33996429D01*
X202500000Y33425000D02*
X202642857Y33496429D01*
X202928571Y33496429D01*
X203071428Y33425000D01*
X203142857Y33353571D01*
X203214286Y33210714D01*
X203214286Y32782143D01*
X203142857Y32639286D01*
X203071428Y32567857D01*
X202928571Y32496429D01*
X202642857Y32496429D01*
X202500000Y32567857D01*
X204500000Y32496429D02*
X204500000Y33282143D01*
X204428571Y33425000D01*
X204285714Y33496429D01*
X204000000Y33496429D01*
X203857143Y33425000D01*
X204500000Y32567857D02*
X204357143Y32496429D01*
X204000000Y32496429D01*
X203857143Y32567857D01*
X203785714Y32710714D01*
X203785714Y32853571D01*
X203857143Y32996429D01*
X204000000Y33067857D01*
X204357143Y33067857D01*
X204500000Y33139286D01*
X205857143Y32496429D02*
X205857143Y33996429D01*
X205857143Y32567857D02*
X205714286Y32496429D01*
X205428572Y32496429D01*
X205285714Y32567857D01*
X205214286Y32639286D01*
X205142857Y32782143D01*
X205142857Y33210714D01*
X205214286Y33353571D01*
X205285714Y33425000D01*
X205428572Y33496429D01*
X205714286Y33496429D01*
X205857143Y33425000D01*
X207214286Y33496429D02*
X207214286Y32282143D01*
X207142857Y32139286D01*
X207071429Y32067857D01*
X206928572Y31996429D01*
X206714286Y31996429D01*
X206571429Y32067857D01*
X207214286Y32567857D02*
X207071429Y32496429D01*
X206785715Y32496429D01*
X206642857Y32567857D01*
X206571429Y32639286D01*
X206500000Y32782143D01*
X206500000Y33210714D01*
X206571429Y33353571D01*
X206642857Y33425000D01*
X206785715Y33496429D01*
X207071429Y33496429D01*
X207214286Y33425000D01*
X208500000Y32567857D02*
X208357143Y32496429D01*
X208071429Y32496429D01*
X207928572Y32567857D01*
X207857143Y32710714D01*
X207857143Y33282143D01*
X207928572Y33425000D01*
X208071429Y33496429D01*
X208357143Y33496429D01*
X208500000Y33425000D01*
X208571429Y33282143D01*
X208571429Y33139286D01*
X207857143Y32996429D01*
X136357143Y30517857D02*
X137500000Y30517857D01*
X140214286Y29946429D02*
X139714286Y30660714D01*
X139357143Y29946429D02*
X139357143Y31446429D01*
X139928571Y31446429D01*
X140071429Y31375000D01*
X140142857Y31303571D01*
X140214286Y31160714D01*
X140214286Y30946429D01*
X140142857Y30803571D01*
X140071429Y30732143D01*
X139928571Y30660714D01*
X139357143Y30660714D01*
X141071429Y29946429D02*
X140928571Y30017857D01*
X140857143Y30089286D01*
X140785714Y30232143D01*
X140785714Y30660714D01*
X140857143Y30803571D01*
X140928571Y30875000D01*
X141071429Y30946429D01*
X141285714Y30946429D01*
X141428571Y30875000D01*
X141500000Y30803571D01*
X141571429Y30660714D01*
X141571429Y30232143D01*
X141500000Y30089286D01*
X141428571Y30017857D01*
X141285714Y29946429D01*
X141071429Y29946429D01*
X142857143Y30946429D02*
X142857143Y29946429D01*
X142214286Y30946429D02*
X142214286Y30160714D01*
X142285714Y30017857D01*
X142428572Y29946429D01*
X142642857Y29946429D01*
X142785714Y30017857D01*
X142857143Y30089286D01*
X143357143Y30946429D02*
X143928572Y30946429D01*
X143571429Y31446429D02*
X143571429Y30160714D01*
X143642857Y30017857D01*
X143785715Y29946429D01*
X143928572Y29946429D01*
X145000000Y30017857D02*
X144857143Y29946429D01*
X144571429Y29946429D01*
X144428572Y30017857D01*
X144357143Y30160714D01*
X144357143Y30732143D01*
X144428572Y30875000D01*
X144571429Y30946429D01*
X144857143Y30946429D01*
X145000000Y30875000D01*
X145071429Y30732143D01*
X145071429Y30589286D01*
X144357143Y30446429D01*
X146642857Y30946429D02*
X147214286Y30946429D01*
X146857143Y31446429D02*
X146857143Y30160714D01*
X146928571Y30017857D01*
X147071429Y29946429D01*
X147214286Y29946429D01*
X147714286Y29946429D02*
X147714286Y30946429D01*
X147714286Y30660714D02*
X147785714Y30803571D01*
X147857143Y30875000D01*
X148000000Y30946429D01*
X148142857Y30946429D01*
X149285714Y29946429D02*
X149285714Y30732143D01*
X149214285Y30875000D01*
X149071428Y30946429D01*
X148785714Y30946429D01*
X148642857Y30875000D01*
X149285714Y30017857D02*
X149142857Y29946429D01*
X148785714Y29946429D01*
X148642857Y30017857D01*
X148571428Y30160714D01*
X148571428Y30303571D01*
X148642857Y30446429D01*
X148785714Y30517857D01*
X149142857Y30517857D01*
X149285714Y30589286D01*
X150642857Y30017857D02*
X150500000Y29946429D01*
X150214286Y29946429D01*
X150071428Y30017857D01*
X150000000Y30089286D01*
X149928571Y30232143D01*
X149928571Y30660714D01*
X150000000Y30803571D01*
X150071428Y30875000D01*
X150214286Y30946429D01*
X150500000Y30946429D01*
X150642857Y30875000D01*
X151857142Y30017857D02*
X151714285Y29946429D01*
X151428571Y29946429D01*
X151285714Y30017857D01*
X151214285Y30160714D01*
X151214285Y30732143D01*
X151285714Y30875000D01*
X151428571Y30946429D01*
X151714285Y30946429D01*
X151857142Y30875000D01*
X151928571Y30732143D01*
X151928571Y30589286D01*
X151214285Y30446429D01*
X152499999Y30017857D02*
X152642856Y29946429D01*
X152928571Y29946429D01*
X153071428Y30017857D01*
X153142856Y30160714D01*
X153142856Y30232143D01*
X153071428Y30375000D01*
X152928571Y30446429D01*
X152714285Y30446429D01*
X152571428Y30517857D01*
X152499999Y30660714D01*
X152499999Y30732143D01*
X152571428Y30875000D01*
X152714285Y30946429D01*
X152928571Y30946429D01*
X153071428Y30875000D01*
D12*
X4650000Y12600000D02*
X5350000Y12600000D01*
X5350000Y11400000D02*
X4650000Y11400000D01*
X13650000Y12600000D02*
X14350000Y12600000D01*
X14350000Y11400000D02*
X13650000Y11400000D01*
X22650000Y12600000D02*
X23350000Y12600000D01*
X23350000Y11400000D02*
X22650000Y11400000D01*
X31650000Y12600000D02*
X32350000Y12600000D01*
X32350000Y11400000D02*
X31650000Y11400000D01*
X40650000Y12600000D02*
X41350000Y12600000D01*
X41350000Y11400000D02*
X40650000Y11400000D01*
X1350000Y9750000D02*
X8650000Y9750000D01*
X1350000Y4250000D02*
X8650000Y4250000D01*
X8650000Y4250000D02*
X8650000Y5400000D01*
X10350000Y9750000D02*
X17650000Y9750000D01*
X10350000Y4250000D02*
X17650000Y4250000D01*
X17650000Y4250000D02*
X17650000Y5400000D01*
X19350000Y9750000D02*
X26650000Y9750000D01*
X19350000Y4250000D02*
X26650000Y4250000D01*
X26650000Y4250000D02*
X26650000Y5400000D01*
X28350000Y9750000D02*
X35650000Y9750000D01*
X28350000Y4250000D02*
X35650000Y4250000D01*
X35650000Y4250000D02*
X35650000Y5400000D01*
X37350000Y9750000D02*
X44650000Y9750000D01*
X37350000Y4250000D02*
X44650000Y4250000D01*
X44650000Y4250000D02*
X44650000Y5400000D01*
X4500000Y17680000D02*
X5500000Y17680000D01*
X5500000Y16320000D02*
X4500000Y16320000D01*
D13*
X4833334Y12892857D02*
X4785715Y12845238D01*
X4642858Y12797619D01*
X4547620Y12797619D01*
X4404762Y12845238D01*
X4309524Y12940476D01*
X4261905Y13035714D01*
X4214286Y13226190D01*
X4214286Y13369048D01*
X4261905Y13559524D01*
X4309524Y13654762D01*
X4404762Y13750000D01*
X4547620Y13797619D01*
X4642858Y13797619D01*
X4785715Y13750000D01*
X4833334Y13702381D01*
X5785715Y12797619D02*
X5214286Y12797619D01*
X5500000Y12797619D02*
X5500000Y13797619D01*
X5404762Y13654762D01*
X5309524Y13559524D01*
X5214286Y13511905D01*
X13833334Y12892857D02*
X13785715Y12845238D01*
X13642858Y12797619D01*
X13547620Y12797619D01*
X13404762Y12845238D01*
X13309524Y12940476D01*
X13261905Y13035714D01*
X13214286Y13226190D01*
X13214286Y13369048D01*
X13261905Y13559524D01*
X13309524Y13654762D01*
X13404762Y13750000D01*
X13547620Y13797619D01*
X13642858Y13797619D01*
X13785715Y13750000D01*
X13833334Y13702381D01*
X14214286Y13702381D02*
X14261905Y13750000D01*
X14357143Y13797619D01*
X14595239Y13797619D01*
X14690477Y13750000D01*
X14738096Y13702381D01*
X14785715Y13607143D01*
X14785715Y13511905D01*
X14738096Y13369048D01*
X14166667Y12797619D01*
X14785715Y12797619D01*
X22833334Y12892857D02*
X22785715Y12845238D01*
X22642858Y12797619D01*
X22547620Y12797619D01*
X22404762Y12845238D01*
X22309524Y12940476D01*
X22261905Y13035714D01*
X22214286Y13226190D01*
X22214286Y13369048D01*
X22261905Y13559524D01*
X22309524Y13654762D01*
X22404762Y13750000D01*
X22547620Y13797619D01*
X22642858Y13797619D01*
X22785715Y13750000D01*
X22833334Y13702381D01*
X23166667Y13797619D02*
X23785715Y13797619D01*
X23452381Y13416667D01*
X23595239Y13416667D01*
X23690477Y13369048D01*
X23738096Y13321429D01*
X23785715Y13226190D01*
X23785715Y12988095D01*
X23738096Y12892857D01*
X23690477Y12845238D01*
X23595239Y12797619D01*
X23309524Y12797619D01*
X23214286Y12845238D01*
X23166667Y12892857D01*
X31833334Y12892857D02*
X31785715Y12845238D01*
X31642858Y12797619D01*
X31547620Y12797619D01*
X31404762Y12845238D01*
X31309524Y12940476D01*
X31261905Y13035714D01*
X31214286Y13226190D01*
X31214286Y13369048D01*
X31261905Y13559524D01*
X31309524Y13654762D01*
X31404762Y13750000D01*
X31547620Y13797619D01*
X31642858Y13797619D01*
X31785715Y13750000D01*
X31833334Y13702381D01*
X32690477Y13464286D02*
X32690477Y12797619D01*
X32452381Y13845238D02*
X32214286Y13130952D01*
X32833334Y13130952D01*
X40833334Y12892857D02*
X40785715Y12845238D01*
X40642858Y12797619D01*
X40547620Y12797619D01*
X40404762Y12845238D01*
X40309524Y12940476D01*
X40261905Y13035714D01*
X40214286Y13226190D01*
X40214286Y13369048D01*
X40261905Y13559524D01*
X40309524Y13654762D01*
X40404762Y13750000D01*
X40547620Y13797619D01*
X40642858Y13797619D01*
X40785715Y13750000D01*
X40833334Y13702381D01*
X41738096Y13797619D02*
X41261905Y13797619D01*
X41214286Y13321429D01*
X41261905Y13369048D01*
X41357143Y13416667D01*
X41595239Y13416667D01*
X41690477Y13369048D01*
X41738096Y13321429D01*
X41785715Y13226190D01*
X41785715Y12988095D01*
X41738096Y12892857D01*
X41690477Y12845238D01*
X41595239Y12797619D01*
X41357143Y12797619D01*
X41261905Y12845238D01*
X41214286Y12892857D01*
X4261905Y10047619D02*
X4261905Y11047619D01*
X4500000Y11047619D01*
X4642858Y11000000D01*
X4738096Y10904762D01*
X4785715Y10809524D01*
X4833334Y10619048D01*
X4833334Y10476190D01*
X4785715Y10285714D01*
X4738096Y10190476D01*
X4642858Y10095238D01*
X4500000Y10047619D01*
X4261905Y10047619D01*
X5785715Y10047619D02*
X5214286Y10047619D01*
X5500000Y10047619D02*
X5500000Y11047619D01*
X5404762Y10904762D01*
X5309524Y10809524D01*
X5214286Y10761905D01*
X13261905Y10047619D02*
X13261905Y11047619D01*
X13500000Y11047619D01*
X13642858Y11000000D01*
X13738096Y10904762D01*
X13785715Y10809524D01*
X13833334Y10619048D01*
X13833334Y10476190D01*
X13785715Y10285714D01*
X13738096Y10190476D01*
X13642858Y10095238D01*
X13500000Y10047619D01*
X13261905Y10047619D01*
X14214286Y10952381D02*
X14261905Y11000000D01*
X14357143Y11047619D01*
X14595239Y11047619D01*
X14690477Y11000000D01*
X14738096Y10952381D01*
X14785715Y10857143D01*
X14785715Y10761905D01*
X14738096Y10619048D01*
X14166667Y10047619D01*
X14785715Y10047619D01*
X22261905Y10047619D02*
X22261905Y11047619D01*
X22500000Y11047619D01*
X22642858Y11000000D01*
X22738096Y10904762D01*
X22785715Y10809524D01*
X22833334Y10619048D01*
X22833334Y10476190D01*
X22785715Y10285714D01*
X22738096Y10190476D01*
X22642858Y10095238D01*
X22500000Y10047619D01*
X22261905Y10047619D01*
X23166667Y11047619D02*
X23785715Y11047619D01*
X23452381Y10666667D01*
X23595239Y10666667D01*
X23690477Y10619048D01*
X23738096Y10571429D01*
X23785715Y10476190D01*
X23785715Y10238095D01*
X23738096Y10142857D01*
X23690477Y10095238D01*
X23595239Y10047619D01*
X23309524Y10047619D01*
X23214286Y10095238D01*
X23166667Y10142857D01*
X31261905Y10047619D02*
X31261905Y11047619D01*
X31500000Y11047619D01*
X31642858Y11000000D01*
X31738096Y10904762D01*
X31785715Y10809524D01*
X31833334Y10619048D01*
X31833334Y10476190D01*
X31785715Y10285714D01*
X31738096Y10190476D01*
X31642858Y10095238D01*
X31500000Y10047619D01*
X31261905Y10047619D01*
X32690477Y10714286D02*
X32690477Y10047619D01*
X32452381Y11095238D02*
X32214286Y10380952D01*
X32833334Y10380952D01*
X40261905Y10047619D02*
X40261905Y11047619D01*
X40500000Y11047619D01*
X40642858Y11000000D01*
X40738096Y10904762D01*
X40785715Y10809524D01*
X40833334Y10619048D01*
X40833334Y10476190D01*
X40785715Y10285714D01*
X40738096Y10190476D01*
X40642858Y10095238D01*
X40500000Y10047619D01*
X40261905Y10047619D01*
X41738096Y11047619D02*
X41261905Y11047619D01*
X41214286Y10571429D01*
X41261905Y10619048D01*
X41357143Y10666667D01*
X41595239Y10666667D01*
X41690477Y10619048D01*
X41738096Y10571429D01*
X41785715Y10476190D01*
X41785715Y10238095D01*
X41738096Y10142857D01*
X41690477Y10095238D01*
X41595239Y10047619D01*
X41357143Y10047619D01*
X41261905Y10095238D01*
X41214286Y10142857D01*
X4833334Y15097619D02*
X4500000Y15573810D01*
X4261905Y15097619D02*
X4261905Y16097619D01*
X4642858Y16097619D01*
X4738096Y16050000D01*
X4785715Y16002381D01*
X4833334Y15907143D01*
X4833334Y15764286D01*
X4785715Y15669048D01*
X4738096Y15621429D01*
X4642858Y15573810D01*
X4261905Y15573810D01*
X5785715Y15097619D02*
X5214286Y15097619D01*
X5500000Y15097619D02*
X5500000Y16097619D01*
X5404762Y15954762D01*
X5309524Y15859524D01*
X5214286Y15811905D01*
M02*
