G04 #@! TF.FileFunction,Copper,L2,Bot,Signal*
%FSLAX46Y46*%
G04 Gerber Fmt 4.6, Leading zero omitted, Abs format (unit mm)*
G04 Created by KiCad (PCBNEW 4.0.7) date 06/10/18 23:21:09*
%MOMM*%
%LPD*%
G01*
G04 APERTURE LIST*
%ADD10C,0.100000*%
%ADD11C,1.600000*%
%ADD12C,2.000000*%
%ADD13C,1.600000*%
%ADD14R,1.800000X1.800000*%
%ADD15C,1.800000*%
%ADD16R,1.700000X1.700000*%
%ADD17O,1.700000X1.700000*%
%ADD18R,2.032000X1.727200*%
%ADD19O,2.032000X1.727200*%
%ADD20C,1.524000*%
%ADD21C,0.600000*%
%ADD22C,0.250000*%
G04 APERTURE END LIST*
D10*
G36*
X15868629Y-50000000D02*
X17000000Y-48868629D01*
X18131371Y-50000000D01*
X17000000Y-51131371D01*
X15868629Y-50000000D01*
X15868629Y-50000000D01*
G37*
D11*
X51124973Y-37427641D02*
X51124973Y-37427641D01*
X18796051Y-48203949D02*
X18796051Y-48203949D01*
X49328922Y-39223693D02*
X49328922Y-39223693D01*
X20592102Y-46407898D02*
X20592102Y-46407898D01*
X47532871Y-41019744D02*
X47532871Y-41019744D01*
X22388154Y-44611846D02*
X22388154Y-44611846D01*
X45736820Y-42815795D02*
X45736820Y-42815795D01*
X24184205Y-42815795D02*
X24184205Y-42815795D01*
X43940768Y-44611846D02*
X43940768Y-44611846D01*
X25980256Y-41019744D02*
X25980256Y-41019744D01*
X42144717Y-46407898D02*
X42144717Y-46407898D01*
X27776307Y-39223693D02*
X27776307Y-39223693D01*
X40348666Y-48203949D02*
X40348666Y-48203949D01*
X29572359Y-37427641D02*
X29572359Y-37427641D01*
X38552615Y-50000000D02*
X38552615Y-50000000D01*
X31368410Y-35631590D02*
X31368410Y-35631590D01*
X36756563Y-51796051D02*
X36756563Y-51796051D01*
X33164461Y-33835539D02*
X33164461Y-33835539D01*
X34960512Y-53592102D02*
X34960512Y-53592102D01*
X34960512Y-32039488D02*
X34960512Y-32039488D01*
X33164461Y-55388154D02*
X33164461Y-55388154D01*
X36756563Y-30243437D02*
X36756563Y-30243437D01*
X31368410Y-57184205D02*
X31368410Y-57184205D01*
X38552615Y-28447385D02*
X38552615Y-28447385D01*
X29572359Y-58980256D02*
X29572359Y-58980256D01*
X40348666Y-26651334D02*
X40348666Y-26651334D01*
X27776307Y-60776307D02*
X27776307Y-60776307D01*
X42144717Y-24855283D02*
X42144717Y-24855283D01*
X52921024Y-35631590D02*
X52921024Y-35631590D01*
D10*
G36*
X94585786Y-5000000D02*
X96000000Y-3585786D01*
X97414214Y-5000000D01*
X96000000Y-6414214D01*
X94585786Y-5000000D01*
X94585786Y-5000000D01*
G37*
D12*
X104980256Y3980256D03*
D10*
G36*
X64131371Y-28000000D02*
X63000000Y-29131371D01*
X61868629Y-28000000D01*
X63000000Y-26868629D01*
X64131371Y-28000000D01*
X64131371Y-28000000D01*
G37*
D13*
X58403806Y-23403806D03*
D10*
G36*
X13868629Y-66000000D02*
X15000000Y-64868629D01*
X16131371Y-66000000D01*
X15000000Y-67131371D01*
X13868629Y-66000000D01*
X13868629Y-66000000D01*
G37*
D13*
X19596194Y-70596194D03*
D14*
X33000000Y-13000000D03*
D15*
X30460000Y-13000000D03*
D16*
X86000000Y-47000000D03*
D17*
X83460000Y-47000000D03*
X86000000Y-49540000D03*
X83460000Y-49540000D03*
X86000000Y-52080000D03*
X83460000Y-52080000D03*
X86000000Y-54620000D03*
X83460000Y-54620000D03*
X86000000Y-57160000D03*
X83460000Y-57160000D03*
X86000000Y-59700000D03*
X83460000Y-59700000D03*
X86000000Y-62240000D03*
X83460000Y-62240000D03*
X86000000Y-64780000D03*
X83460000Y-64780000D03*
X86000000Y-67320000D03*
X83460000Y-67320000D03*
X86000000Y-69860000D03*
X83460000Y-69860000D03*
X86000000Y-72400000D03*
X83460000Y-72400000D03*
X86000000Y-74940000D03*
X83460000Y-74940000D03*
X86000000Y-77480000D03*
X83460000Y-77480000D03*
X86000000Y-80020000D03*
X83460000Y-80020000D03*
X86000000Y-82560000D03*
X83460000Y-82560000D03*
D18*
X5000000Y-23540000D03*
D19*
X5000000Y-21000000D03*
X5000000Y-18460000D03*
D18*
X5024229Y-42060707D03*
D19*
X5024229Y-39520707D03*
X5024229Y-36980707D03*
X5024229Y-34440707D03*
D12*
X54181981Y-87181981D03*
X51000000Y-84000000D03*
X58778175Y-82585786D03*
X55596194Y-79403806D03*
X63181981Y-83181981D03*
X60000000Y-80000000D03*
X67778175Y-78585786D03*
X64596194Y-75403806D03*
X70181981Y-76181981D03*
X67000000Y-73000000D03*
X74778175Y-71585786D03*
X71596194Y-68403806D03*
X74181981Y-67181981D03*
X71000000Y-64000000D03*
X78778175Y-62585786D03*
X75596194Y-59403806D03*
D14*
X42000000Y-14000000D03*
D15*
X39460000Y-14000000D03*
X36920000Y-14000000D03*
D10*
G36*
X12077631Y-13000000D02*
X11000000Y-14077631D01*
X9922369Y-13000000D01*
X11000000Y-11922369D01*
X12077631Y-13000000D01*
X12077631Y-13000000D01*
G37*
D20*
X9203949Y-11203949D03*
X12796051Y-11203949D03*
X11000000Y-9407898D03*
X14592102Y-9407898D03*
X12796051Y-7611846D03*
X16388154Y-7611846D03*
X14592102Y-5815795D03*
D21*
X48835500Y-37114100D03*
X25243100Y-69195500D03*
X29050000Y-16326000D03*
X25331600Y-15655100D03*
X47470900Y-75059700D03*
X10600000Y-48964300D03*
X70054500Y-80020000D03*
X59356400Y-47000000D03*
X60128000Y-67219000D03*
X17577800Y-36250700D03*
X58525100Y-47830500D03*
X53792800Y-49551100D03*
X30449300Y-39696900D03*
X81105900Y-54519100D03*
X43759900Y-36415900D03*
X79514700Y-55413900D03*
X52419600Y-71165000D03*
X67498900Y-68241300D03*
X58483300Y-69913600D03*
X35239000Y-28106300D03*
X47709400Y-54666400D03*
X75008800Y-61702800D03*
X31097100Y-38094100D03*
X48115000Y-71859100D03*
X81781200Y-56591900D03*
X67506300Y-63676200D03*
X81447000Y-36794500D03*
X34980900Y-34657200D03*
X37075500Y-68180200D03*
X56879800Y-66529200D03*
X69051300Y-67415700D03*
X64266400Y-71450000D03*
X55399400Y-71450000D03*
D22*
X41634700Y-37114100D02*
X48835500Y-37114100D01*
X41358400Y-36837800D02*
X41634700Y-37114100D01*
X32574600Y-36837800D02*
X41358400Y-36837800D01*
X31368400Y-35631600D02*
X32574600Y-36837800D01*
X86000000Y-77480000D02*
X84774700Y-77480000D01*
X15000000Y-66000000D02*
X15831100Y-66831100D01*
X22878700Y-66831100D02*
X15831100Y-66831100D01*
X25243100Y-69195500D02*
X22878700Y-66831100D01*
X44624800Y-88577200D02*
X25243100Y-69195500D01*
X59900900Y-88577200D02*
X44624800Y-88577200D01*
X69772800Y-78705300D02*
X59900900Y-88577200D01*
X84009000Y-78705300D02*
X69772800Y-78705300D01*
X84774700Y-77939600D02*
X84009000Y-78705300D01*
X84774700Y-77480000D02*
X84774700Y-77939600D01*
X78778200Y-62585800D02*
X74182000Y-67182000D01*
X74778200Y-71585800D02*
X70182000Y-76182000D01*
X70182000Y-76182000D02*
X67778200Y-78585800D01*
X63778200Y-82585800D02*
X63182000Y-82585800D01*
X67778200Y-78585800D02*
X63778200Y-82585800D01*
X63182000Y-82585800D02*
X63182000Y-83182000D01*
X63182000Y-82585800D02*
X58778200Y-82585800D01*
X58778200Y-82585800D02*
X54182000Y-87182000D01*
X33164500Y-55388200D02*
X32333400Y-56219300D01*
X29050000Y-15655100D02*
X25331600Y-15655100D01*
X29050000Y-12605800D02*
X29050000Y-15655100D01*
X29971600Y-11684200D02*
X29050000Y-12605800D01*
X37144200Y-11684200D02*
X29971600Y-11684200D01*
X39460000Y-14000000D02*
X37144200Y-11684200D01*
X29050000Y-15655100D02*
X29050000Y-16326000D01*
X22843700Y-46729600D02*
X32333400Y-56219300D01*
X22530400Y-46729600D02*
X22843700Y-46729600D01*
X22134800Y-46334000D02*
X22530400Y-46729600D01*
X22134800Y-46255700D02*
X22134800Y-46334000D01*
X17939800Y-42060700D02*
X22134800Y-46255700D01*
X5024200Y-42060700D02*
X17939800Y-42060700D01*
X36695400Y-75059700D02*
X10600000Y-48964300D01*
X47470900Y-75059700D02*
X36695400Y-75059700D01*
X51125000Y-37427600D02*
X50293900Y-36596500D01*
X11000100Y-11203900D02*
X9203900Y-11203900D01*
X12178800Y-10025200D02*
X11000100Y-11203900D01*
X13413300Y-10025200D02*
X12178800Y-10025200D01*
X30804700Y-27416600D02*
X13413300Y-10025200D01*
X35725900Y-27416600D02*
X30804700Y-27416600D01*
X44748100Y-36438800D02*
X35725900Y-27416600D01*
X50136200Y-36438800D02*
X44748100Y-36438800D01*
X50293900Y-36596500D02*
X50136200Y-36438800D01*
X83460000Y-80020000D02*
X70054500Y-80020000D01*
X83460000Y-47000000D02*
X59356400Y-47000000D01*
X34219000Y-67219000D02*
X60128000Y-67219000D01*
X27776300Y-60776300D02*
X34219000Y-67219000D01*
X86000000Y-47000000D02*
X84774700Y-47000000D01*
X30191600Y-36250700D02*
X17577800Y-36250700D01*
X31279100Y-37338200D02*
X30191600Y-36250700D01*
X41151200Y-37338200D02*
X31279100Y-37338200D01*
X41602400Y-37789400D02*
X41151200Y-37338200D01*
X49690800Y-37789400D02*
X41602400Y-37789400D01*
X57676100Y-45774700D02*
X49690800Y-37789400D01*
X84009000Y-45774700D02*
X57676100Y-45774700D01*
X84774700Y-46540400D02*
X84009000Y-45774700D01*
X84774700Y-47000000D02*
X84774700Y-46540400D01*
X59009300Y-48314700D02*
X58525100Y-47830500D01*
X84009000Y-48314700D02*
X59009300Y-48314700D01*
X84774700Y-49080400D02*
X84009000Y-48314700D01*
X84774700Y-49540000D02*
X84774700Y-49080400D01*
X40822000Y-39696900D02*
X30449300Y-39696900D01*
X50676200Y-49551100D02*
X40822000Y-39696900D01*
X53792800Y-49551100D02*
X50676200Y-49551100D01*
X86000000Y-49540000D02*
X84774700Y-49540000D01*
X80457600Y-53870800D02*
X81105900Y-54519100D01*
X63610400Y-53870800D02*
X80457600Y-53870800D01*
X50160000Y-40420400D02*
X63610400Y-53870800D01*
X50160000Y-40054800D02*
X50160000Y-40420400D01*
X49328900Y-39223700D02*
X50160000Y-40054800D01*
X19502900Y-46980800D02*
X19761100Y-47238900D01*
X18316100Y-46980800D02*
X19502900Y-46980800D01*
X15485100Y-49811800D02*
X18316100Y-46980800D01*
X15485100Y-50186000D02*
X15485100Y-49811800D01*
X21652300Y-56353200D02*
X15485100Y-50186000D01*
X30537300Y-56353200D02*
X21652300Y-56353200D01*
X30537400Y-56353100D02*
X30537300Y-56353200D01*
X31368400Y-57184200D02*
X30537400Y-56353100D01*
X20592100Y-46407900D02*
X19761100Y-47238900D01*
X86000000Y-52080000D02*
X83460000Y-52080000D01*
X86000000Y-52080000D02*
X86000000Y-53305300D01*
X86459500Y-53305300D02*
X86000000Y-53305300D01*
X87273400Y-54119200D02*
X86459500Y-53305300D01*
X87273400Y-60176000D02*
X87273400Y-54119200D01*
X86479500Y-60969900D02*
X87273400Y-60176000D01*
X78352300Y-60969900D02*
X86479500Y-60969900D01*
X72409900Y-66912300D02*
X78352300Y-60969900D01*
X69503100Y-66912300D02*
X72409900Y-66912300D01*
X69039000Y-66448200D02*
X69503100Y-66912300D01*
X61219000Y-66448200D02*
X69039000Y-66448200D01*
X60615100Y-65844300D02*
X61219000Y-66448200D01*
X40028500Y-65844300D02*
X60615100Y-65844300D01*
X31368400Y-57184200D02*
X40028500Y-65844300D01*
X43632500Y-36288500D02*
X43759900Y-36415900D01*
X41005500Y-36288500D02*
X43632500Y-36288500D01*
X34275400Y-29558400D02*
X41005500Y-36288500D01*
X25870100Y-29558400D02*
X34275400Y-29558400D01*
X8055900Y-11744200D02*
X25870100Y-29558400D01*
X8055900Y-10646600D02*
X8055900Y-11744200D01*
X9294600Y-9407900D02*
X8055900Y-10646600D01*
X11000000Y-9407900D02*
X9294600Y-9407900D01*
X61384600Y-54871400D02*
X47532900Y-41019700D01*
X78972200Y-54871400D02*
X61384600Y-54871400D01*
X79514700Y-55413900D02*
X78972200Y-54871400D01*
X33000000Y-13000000D02*
X34275300Y-13000000D01*
X35275300Y-14000000D02*
X34275300Y-13000000D01*
X36920000Y-14000000D02*
X35275300Y-14000000D01*
X46323800Y-23403800D02*
X58403800Y-23403800D01*
X36920000Y-14000000D02*
X46323800Y-23403800D01*
X4404700Y-35679600D02*
X5024200Y-35679600D01*
X3614700Y-36469600D02*
X4404700Y-35679600D01*
X3614700Y-40081900D02*
X3614700Y-36469600D01*
X4354500Y-40821700D02*
X3614700Y-40081900D01*
X18598100Y-40821700D02*
X4354500Y-40821700D01*
X22388200Y-44611800D02*
X18598100Y-40821700D01*
X5024200Y-34440700D02*
X5024200Y-35679600D01*
X29572400Y-58980300D02*
X28741300Y-59811400D01*
X36464500Y-71165000D02*
X52419600Y-71165000D01*
X26565300Y-61265800D02*
X36464500Y-71165000D01*
X26565300Y-60269600D02*
X26565300Y-61265800D01*
X27283200Y-59551700D02*
X26565300Y-60269600D01*
X28481600Y-59551700D02*
X27283200Y-59551700D01*
X28741300Y-59811400D02*
X28481600Y-59551700D01*
X60155600Y-68241300D02*
X58483300Y-69913600D01*
X67498900Y-68241300D02*
X60155600Y-68241300D01*
X29698500Y-28106300D02*
X12796100Y-11203900D01*
X35239000Y-28106300D02*
X29698500Y-28106300D01*
X75008800Y-61962300D02*
X75008800Y-61702800D01*
X71559700Y-65411400D02*
X75008800Y-61962300D01*
X70213200Y-65411400D02*
X71559700Y-65411400D01*
X67676700Y-62874900D02*
X70213200Y-65411400D01*
X55917900Y-62874900D02*
X67676700Y-62874900D01*
X47709400Y-54666400D02*
X55917900Y-62874900D01*
X86000000Y-57160000D02*
X86000000Y-55934700D01*
X20889100Y-39520700D02*
X24184200Y-42815800D01*
X5024200Y-39520700D02*
X20889100Y-39520700D01*
X40949200Y-38094100D02*
X31097100Y-38094100D01*
X41745100Y-38890000D02*
X40949200Y-38094100D01*
X47065400Y-38890000D02*
X41745100Y-38890000D01*
X62546500Y-54371100D02*
X47065400Y-38890000D01*
X79427000Y-54371100D02*
X62546500Y-54371100D01*
X80265600Y-55209700D02*
X79427000Y-54371100D01*
X81378000Y-55209700D02*
X80265600Y-55209700D01*
X82194700Y-54393000D02*
X81378000Y-55209700D01*
X82194700Y-54100900D02*
X82194700Y-54393000D01*
X82901000Y-53394600D02*
X82194700Y-54100900D01*
X83979500Y-53394600D02*
X82901000Y-53394600D01*
X84774700Y-54189800D02*
X83979500Y-53394600D01*
X84774700Y-55169000D02*
X84774700Y-54189800D01*
X85540400Y-55934700D02*
X84774700Y-55169000D01*
X86000000Y-55934700D02*
X85540400Y-55934700D01*
X55596200Y-79403800D02*
X51000000Y-84000000D01*
X55596200Y-77326500D02*
X55596200Y-79403800D01*
X53582400Y-77326500D02*
X48115000Y-71859100D01*
X55596200Y-77326500D02*
X53582400Y-77326500D01*
X82019400Y-70075300D02*
X82234700Y-69860000D01*
X73638000Y-70075300D02*
X82019400Y-70075300D01*
X66386800Y-77326500D02*
X73638000Y-70075300D01*
X55596200Y-77326500D02*
X66386800Y-77326500D01*
X83460000Y-69860000D02*
X82234700Y-69860000D01*
X86000000Y-59700000D02*
X86000000Y-58474700D01*
X25980300Y-41019700D02*
X26811400Y-40188600D01*
X26553200Y-39930500D02*
X26811400Y-40188600D01*
X26553200Y-38763500D02*
X26553200Y-39930500D01*
X27298500Y-38018200D02*
X26553200Y-38763500D01*
X28366900Y-38018200D02*
X27298500Y-38018200D01*
X29151500Y-38802800D02*
X28366900Y-38018200D01*
X40732500Y-38802800D02*
X29151500Y-38802800D01*
X42765300Y-40835600D02*
X40732500Y-38802800D01*
X45552700Y-40835600D02*
X42765300Y-40835600D01*
X53592900Y-48875800D02*
X45552700Y-40835600D01*
X54072600Y-48875800D02*
X53592900Y-48875800D01*
X60611200Y-55414400D02*
X54072600Y-48875800D01*
X65454500Y-55414400D02*
X60611200Y-55414400D01*
X65912100Y-55872000D02*
X65454500Y-55414400D01*
X76730100Y-55872000D02*
X65912100Y-55872000D01*
X76899200Y-56041100D02*
X76730100Y-55872000D01*
X79186900Y-56041100D02*
X76899200Y-56041100D01*
X79274400Y-56128600D02*
X79186900Y-56041100D01*
X80008900Y-56128600D02*
X79274400Y-56128600D01*
X80265500Y-55872000D02*
X80008900Y-56128600D01*
X83999200Y-55872000D02*
X80265500Y-55872000D01*
X84774700Y-56647500D02*
X83999200Y-55872000D01*
X84774700Y-57709000D02*
X84774700Y-56647500D01*
X85540400Y-58474700D02*
X84774700Y-57709000D01*
X86000000Y-58474700D02*
X85540400Y-58474700D01*
X83460000Y-67320000D02*
X82234700Y-67320000D01*
X79979700Y-69575000D02*
X82234700Y-67320000D01*
X73430700Y-69575000D02*
X79979700Y-69575000D01*
X67601900Y-75403800D02*
X73430700Y-69575000D01*
X64596200Y-75403800D02*
X67601900Y-75403800D01*
X81699700Y-56673400D02*
X81781200Y-56591900D01*
X54206400Y-56673400D02*
X81699700Y-56673400D01*
X42736600Y-45203600D02*
X54206400Y-56673400D01*
X33756200Y-45203600D02*
X42736600Y-45203600D01*
X27776300Y-39223700D02*
X33756200Y-45203600D01*
X83460000Y-64780000D02*
X82234700Y-64780000D01*
X78440400Y-68574300D02*
X82234700Y-64780000D01*
X71596200Y-68574300D02*
X78440400Y-68574300D01*
X71596200Y-68574300D02*
X71596200Y-68403800D01*
X71425700Y-68574300D02*
X67000000Y-73000000D01*
X71596200Y-68574300D02*
X71425700Y-68574300D01*
X55764200Y-63676200D02*
X67506300Y-63676200D01*
X41179800Y-49091800D02*
X55764200Y-63676200D01*
X41179800Y-49035000D02*
X41179800Y-49091800D01*
X40348700Y-48203900D02*
X41179800Y-49035000D01*
X38552600Y-50000000D02*
X39383700Y-49168900D01*
X71000000Y-64000000D02*
X71000000Y-61674300D01*
X73270500Y-59403800D02*
X75596200Y-59403800D01*
X71000000Y-61674300D02*
X73270500Y-59403800D01*
X39123800Y-48909000D02*
X39383700Y-49168900D01*
X39123800Y-47766700D02*
X39123800Y-48909000D01*
X39873900Y-47016600D02*
X39123800Y-47766700D01*
X41014700Y-47016600D02*
X39873900Y-47016600D01*
X55672400Y-61674300D02*
X41014700Y-47016600D01*
X71000000Y-61674300D02*
X55672400Y-61674300D01*
X78686300Y-59700000D02*
X83460000Y-59700000D01*
X71974300Y-66412000D02*
X78686300Y-59700000D01*
X69710400Y-66412000D02*
X71974300Y-66412000D01*
X69210100Y-65911700D02*
X69710400Y-66412000D01*
X61390100Y-65911700D02*
X69210100Y-65911700D01*
X60822400Y-65344000D02*
X61390100Y-65911700D01*
X50304500Y-65344000D02*
X60822400Y-65344000D01*
X36756600Y-51796100D02*
X50304500Y-65344000D01*
X73610300Y-28957800D02*
X81447000Y-36794500D01*
X70543700Y-28957800D02*
X73610300Y-28957800D01*
X58457100Y-16871200D02*
X70543700Y-28957800D01*
X46146500Y-16871200D02*
X58457100Y-16871200D01*
X43275300Y-14000000D02*
X46146500Y-16871200D01*
X42000000Y-14000000D02*
X43275300Y-14000000D01*
X34960500Y-53592100D02*
X34129500Y-52761000D01*
X83460000Y-57160000D02*
X82234700Y-57160000D01*
X82172100Y-57222600D02*
X82234700Y-57160000D01*
X82130600Y-57222600D02*
X82172100Y-57222600D01*
X81630300Y-57722900D02*
X82130600Y-57222600D01*
X79955800Y-57722900D02*
X81630300Y-57722900D01*
X71767000Y-65911700D02*
X79955800Y-57722900D01*
X69917700Y-65911700D02*
X71767000Y-65911700D01*
X69417300Y-65411300D02*
X69917700Y-65911700D01*
X68450900Y-65411300D02*
X69417300Y-65411300D01*
X67950600Y-64911000D02*
X68450900Y-65411300D01*
X61097000Y-64911000D02*
X67950600Y-64911000D01*
X61029700Y-64843700D02*
X61097000Y-64911000D01*
X51600400Y-64843700D02*
X61029700Y-64843700D01*
X37365400Y-50608700D02*
X51600400Y-64843700D01*
X36281800Y-50608700D02*
X37365400Y-50608700D01*
X34129500Y-52761000D02*
X36281800Y-50608700D01*
X5000000Y-23540000D02*
X5000000Y-24778900D01*
X34960500Y-32039500D02*
X34149400Y-32850600D01*
X33909600Y-32610800D02*
X34149400Y-32850600D01*
X12831900Y-32610800D02*
X33909600Y-32610800D01*
X5000000Y-24778900D02*
X12831900Y-32610800D01*
X50728600Y-68180200D02*
X37075500Y-68180200D01*
X54673800Y-72125400D02*
X50728600Y-68180200D01*
X63721600Y-72125400D02*
X54673800Y-72125400D01*
X65991800Y-74395600D02*
X63721600Y-72125400D01*
X67902500Y-74395600D02*
X65991800Y-74395600D01*
X73223400Y-69074700D02*
X67902500Y-74395600D01*
X78647700Y-69074700D02*
X73223400Y-69074700D01*
X81627800Y-66094600D02*
X78647700Y-69074700D01*
X83975700Y-66094600D02*
X81627800Y-66094600D01*
X84774700Y-66893600D02*
X83975700Y-66094600D01*
X84774700Y-70409000D02*
X84774700Y-66893600D01*
X85540400Y-71174700D02*
X84774700Y-70409000D01*
X86000000Y-71174700D02*
X85540400Y-71174700D01*
X86000000Y-72400000D02*
X86000000Y-71174700D01*
X34980900Y-33682100D02*
X34980900Y-34657200D01*
X34149400Y-32850600D02*
X34980900Y-33682100D01*
X14592100Y-7611800D02*
X12796100Y-7611800D01*
X24341200Y-17360900D02*
X14592100Y-7611800D01*
X24738500Y-17360900D02*
X24341200Y-17360900D01*
X33197800Y-25820200D02*
X24738500Y-17360900D01*
X39517600Y-25820200D02*
X33197800Y-25820200D01*
X39991300Y-26293900D02*
X39517600Y-25820200D01*
X39991300Y-26293900D02*
X40348700Y-26651300D01*
X86000000Y-80020000D02*
X86000000Y-78794700D01*
X47036900Y-33339500D02*
X40348700Y-26651300D01*
X74571700Y-33339500D02*
X47036900Y-33339500D01*
X87777300Y-46545100D02*
X74571700Y-33339500D01*
X87777300Y-77525200D02*
X87777300Y-46545100D01*
X86507800Y-78794700D02*
X87777300Y-77525200D01*
X86000000Y-78794700D02*
X86507800Y-78794700D01*
X42144700Y-24855300D02*
X41313700Y-25686300D01*
X40482600Y-24855300D02*
X41313700Y-25686300D01*
X37074600Y-24855300D02*
X40482600Y-24855300D01*
X36574300Y-24355000D02*
X37074600Y-24855300D01*
X34192800Y-24355000D02*
X36574300Y-24355000D01*
X31998000Y-22160200D02*
X34192800Y-24355000D01*
X30936600Y-22160200D02*
X31998000Y-22160200D01*
X25106800Y-16330400D02*
X30936600Y-22160200D01*
X25051900Y-16330400D02*
X25106800Y-16330400D01*
X24656300Y-15934800D02*
X25051900Y-16330400D01*
X24656300Y-15879900D02*
X24656300Y-15934800D01*
X16388200Y-7611800D02*
X24656300Y-15879900D01*
X61478800Y-67415700D02*
X69051300Y-67415700D01*
X60592300Y-66529200D02*
X61478800Y-67415700D01*
X56879800Y-66529200D02*
X60592300Y-66529200D01*
X52921000Y-35631600D02*
X52090000Y-36462600D01*
X51258900Y-35631600D02*
X52090000Y-36462600D01*
X47786300Y-35631600D02*
X51258900Y-35631600D01*
X42427200Y-30272500D02*
X47786300Y-35631600D01*
X42173800Y-30272500D02*
X42427200Y-30272500D01*
X39020800Y-27119500D02*
X42173800Y-30272500D01*
X38313200Y-27119500D02*
X39020800Y-27119500D01*
X37813000Y-26619300D02*
X38313200Y-27119500D01*
X33210500Y-26619300D02*
X37813000Y-26619300D01*
X32710200Y-26119000D02*
X33210500Y-26619300D01*
X32010900Y-26119000D02*
X32710200Y-26119000D01*
X27041100Y-21149200D02*
X32010900Y-26119000D01*
X26333400Y-21149200D02*
X27041100Y-21149200D01*
X14592100Y-9407900D02*
X26333400Y-21149200D01*
X64266400Y-71450000D02*
X55399400Y-71450000D01*
M02*
