G04 #@! TF.FileFunction,Copper,L1,Top,Signal*
%FSLAX46Y46*%
G04 Gerber Fmt 4.6, Leading zero omitted, Abs format (unit mm)*
G04 Created by KiCad (PCBNEW 4.0.7) date 06/10/18 23:21:09*
%MOMM*%
%LPD*%
G01*
G04 APERTURE LIST*
%ADD10C,0.100000*%
%ADD11C,0.010000*%
%ADD12C,1.600000*%
%ADD13C,2.000000*%
%ADD14C,1.600000*%
%ADD15R,1.200000X0.750000*%
%ADD16R,1.000000X1.500000*%
%ADD17R,1.800000X1.800000*%
%ADD18C,1.800000*%
%ADD19R,1.700000X1.700000*%
%ADD20O,1.700000X1.700000*%
%ADD21R,0.900000X1.200000*%
%ADD22R,2.032000X1.727200*%
%ADD23O,2.032000X1.727200*%
%ADD24C,1.524000*%
%ADD25C,0.600000*%
%ADD26C,0.250000*%
G04 APERTURE END LIST*
D10*
D11*
G36*
X47723391Y-85008006D02*
X48349765Y-85270428D01*
X48934078Y-85516826D01*
X49455813Y-85738425D01*
X49894454Y-85926449D01*
X50229483Y-86072124D01*
X50440383Y-86166675D01*
X50497334Y-86194408D01*
X50578955Y-86245889D01*
X50584294Y-86279993D01*
X50492223Y-86299954D01*
X50281614Y-86309012D01*
X49931339Y-86310403D01*
X49746000Y-86309530D01*
X49220990Y-86295296D01*
X48629505Y-86261925D01*
X48066193Y-86215345D01*
X47828773Y-86189452D01*
X47417039Y-86134195D01*
X46882134Y-86054347D01*
X46253635Y-85955028D01*
X45561117Y-85841360D01*
X44834154Y-85718462D01*
X44102322Y-85591457D01*
X43395197Y-85465465D01*
X42742353Y-85345608D01*
X42173366Y-85237005D01*
X41717811Y-85144779D01*
X41448667Y-85084730D01*
X41237000Y-85033759D01*
X41427114Y-84961084D01*
X41563138Y-84918354D01*
X41835913Y-84839996D01*
X42218437Y-84733499D01*
X42683709Y-84606351D01*
X43204729Y-84466043D01*
X43394505Y-84415413D01*
X45171781Y-83942416D01*
X47723391Y-85008006D01*
X47723391Y-85008006D01*
G37*
X47723391Y-85008006D02*
X48349765Y-85270428D01*
X48934078Y-85516826D01*
X49455813Y-85738425D01*
X49894454Y-85926449D01*
X50229483Y-86072124D01*
X50440383Y-86166675D01*
X50497334Y-86194408D01*
X50578955Y-86245889D01*
X50584294Y-86279993D01*
X50492223Y-86299954D01*
X50281614Y-86309012D01*
X49931339Y-86310403D01*
X49746000Y-86309530D01*
X49220990Y-86295296D01*
X48629505Y-86261925D01*
X48066193Y-86215345D01*
X47828773Y-86189452D01*
X47417039Y-86134195D01*
X46882134Y-86054347D01*
X46253635Y-85955028D01*
X45561117Y-85841360D01*
X44834154Y-85718462D01*
X44102322Y-85591457D01*
X43395197Y-85465465D01*
X42742353Y-85345608D01*
X42173366Y-85237005D01*
X41717811Y-85144779D01*
X41448667Y-85084730D01*
X41237000Y-85033759D01*
X41427114Y-84961084D01*
X41563138Y-84918354D01*
X41835913Y-84839996D01*
X42218437Y-84733499D01*
X42683709Y-84606351D01*
X43204729Y-84466043D01*
X43394505Y-84415413D01*
X45171781Y-83942416D01*
X47723391Y-85008006D01*
G36*
X54506183Y-79462366D02*
X54713122Y-79537908D01*
X54960929Y-79657410D01*
X55153933Y-79754942D01*
X55472563Y-79917876D01*
X55903305Y-80142320D01*
X56409482Y-80408938D01*
X56954418Y-80698396D01*
X57501435Y-80991356D01*
X57606805Y-81048098D01*
X58359314Y-81449405D01*
X59110812Y-81842131D01*
X59841271Y-82216387D01*
X60530667Y-82562286D01*
X61158974Y-82869939D01*
X61706164Y-83129460D01*
X62152212Y-83330960D01*
X62477093Y-83464552D01*
X62561384Y-83494398D01*
X63010525Y-83647899D01*
X63434209Y-83803238D01*
X63803869Y-83948820D01*
X64090939Y-84073047D01*
X64266851Y-84164321D01*
X64308667Y-84203741D01*
X64228909Y-84279858D01*
X63999261Y-84391581D01*
X63634162Y-84533653D01*
X63148051Y-84700818D01*
X62555366Y-84887820D01*
X61895667Y-85082228D01*
X60454777Y-85475629D01*
X59151857Y-85791410D01*
X57975216Y-86031169D01*
X56913165Y-86196508D01*
X55954013Y-86289028D01*
X55086072Y-86310327D01*
X54297651Y-86262008D01*
X53801758Y-86190342D01*
X53455715Y-86116627D01*
X53056945Y-86009484D01*
X52590331Y-85863537D01*
X52040757Y-85673409D01*
X51393107Y-85433726D01*
X50632264Y-85139110D01*
X49743113Y-84784187D01*
X49010101Y-84486284D01*
X48357234Y-84218247D01*
X47846616Y-84005222D01*
X47463109Y-83839757D01*
X47191571Y-83714396D01*
X47016864Y-83621687D01*
X46923846Y-83554175D01*
X46897377Y-83504407D01*
X46922318Y-83464928D01*
X46927475Y-83460948D01*
X47068996Y-83368667D01*
X47337160Y-83205191D01*
X47711135Y-82982534D01*
X48170087Y-82712710D01*
X48693181Y-82407735D01*
X49259584Y-82079623D01*
X49848461Y-81740388D01*
X50438978Y-81402045D01*
X51010302Y-81076608D01*
X51541599Y-80776092D01*
X52012034Y-80512512D01*
X52400773Y-80297881D01*
X52589051Y-80196039D01*
X53125931Y-79908909D01*
X53539350Y-79693999D01*
X53856696Y-79546601D01*
X54105359Y-79462002D01*
X54312725Y-79435494D01*
X54506183Y-79462366D01*
X54506183Y-79462366D01*
G37*
X54506183Y-79462366D02*
X54713122Y-79537908D01*
X54960929Y-79657410D01*
X55153933Y-79754942D01*
X55472563Y-79917876D01*
X55903305Y-80142320D01*
X56409482Y-80408938D01*
X56954418Y-80698396D01*
X57501435Y-80991356D01*
X57606805Y-81048098D01*
X58359314Y-81449405D01*
X59110812Y-81842131D01*
X59841271Y-82216387D01*
X60530667Y-82562286D01*
X61158974Y-82869939D01*
X61706164Y-83129460D01*
X62152212Y-83330960D01*
X62477093Y-83464552D01*
X62561384Y-83494398D01*
X63010525Y-83647899D01*
X63434209Y-83803238D01*
X63803869Y-83948820D01*
X64090939Y-84073047D01*
X64266851Y-84164321D01*
X64308667Y-84203741D01*
X64228909Y-84279858D01*
X63999261Y-84391581D01*
X63634162Y-84533653D01*
X63148051Y-84700818D01*
X62555366Y-84887820D01*
X61895667Y-85082228D01*
X60454777Y-85475629D01*
X59151857Y-85791410D01*
X57975216Y-86031169D01*
X56913165Y-86196508D01*
X55954013Y-86289028D01*
X55086072Y-86310327D01*
X54297651Y-86262008D01*
X53801758Y-86190342D01*
X53455715Y-86116627D01*
X53056945Y-86009484D01*
X52590331Y-85863537D01*
X52040757Y-85673409D01*
X51393107Y-85433726D01*
X50632264Y-85139110D01*
X49743113Y-84784187D01*
X49010101Y-84486284D01*
X48357234Y-84218247D01*
X47846616Y-84005222D01*
X47463109Y-83839757D01*
X47191571Y-83714396D01*
X47016864Y-83621687D01*
X46923846Y-83554175D01*
X46897377Y-83504407D01*
X46922318Y-83464928D01*
X46927475Y-83460948D01*
X47068996Y-83368667D01*
X47337160Y-83205191D01*
X47711135Y-82982534D01*
X48170087Y-82712710D01*
X48693181Y-82407735D01*
X49259584Y-82079623D01*
X49848461Y-81740388D01*
X50438978Y-81402045D01*
X51010302Y-81076608D01*
X51541599Y-80776092D01*
X52012034Y-80512512D01*
X52400773Y-80297881D01*
X52589051Y-80196039D01*
X53125931Y-79908909D01*
X53539350Y-79693999D01*
X53856696Y-79546601D01*
X54105359Y-79462002D01*
X54312725Y-79435494D01*
X54506183Y-79462366D01*
G36*
X38524449Y-80182874D02*
X38754376Y-80299485D01*
X39085064Y-80479149D01*
X39496195Y-80709851D01*
X39967453Y-80979574D01*
X40478522Y-81276301D01*
X41009083Y-81588017D01*
X41538821Y-81902704D01*
X42047419Y-82208346D01*
X42514559Y-82492927D01*
X42919926Y-82744431D01*
X43243202Y-82950840D01*
X43464071Y-83100139D01*
X43562216Y-83180311D01*
X43565333Y-83187161D01*
X43553809Y-83227682D01*
X43501965Y-83270238D01*
X43383899Y-83325981D01*
X43173706Y-83406063D01*
X42845481Y-83521636D01*
X42560648Y-83619674D01*
X41995978Y-83795119D01*
X41358215Y-83963551D01*
X40700537Y-84113210D01*
X40076126Y-84232336D01*
X39538163Y-84309167D01*
X39374333Y-84324324D01*
X38896989Y-84329094D01*
X38390398Y-84286455D01*
X38189000Y-84254106D01*
X37960784Y-84202884D01*
X37597561Y-84112583D01*
X37127114Y-83990742D01*
X36577225Y-83844905D01*
X35975677Y-83682612D01*
X35350250Y-83511406D01*
X34728729Y-83338828D01*
X34138894Y-83172420D01*
X33608528Y-83019723D01*
X33236000Y-82909584D01*
X32855000Y-82795061D01*
X34082667Y-82176682D01*
X34604956Y-81916186D01*
X35164436Y-81641640D01*
X35739771Y-81363065D01*
X36309630Y-81090482D01*
X36852677Y-80833913D01*
X37347579Y-80603380D01*
X37773002Y-80408903D01*
X38107612Y-80260503D01*
X38330076Y-80168203D01*
X38415599Y-80141333D01*
X38524449Y-80182874D01*
X38524449Y-80182874D01*
G37*
X38524449Y-80182874D02*
X38754376Y-80299485D01*
X39085064Y-80479149D01*
X39496195Y-80709851D01*
X39967453Y-80979574D01*
X40478522Y-81276301D01*
X41009083Y-81588017D01*
X41538821Y-81902704D01*
X42047419Y-82208346D01*
X42514559Y-82492927D01*
X42919926Y-82744431D01*
X43243202Y-82950840D01*
X43464071Y-83100139D01*
X43562216Y-83180311D01*
X43565333Y-83187161D01*
X43553809Y-83227682D01*
X43501965Y-83270238D01*
X43383899Y-83325981D01*
X43173706Y-83406063D01*
X42845481Y-83521636D01*
X42560648Y-83619674D01*
X41995978Y-83795119D01*
X41358215Y-83963551D01*
X40700537Y-84113210D01*
X40076126Y-84232336D01*
X39538163Y-84309167D01*
X39374333Y-84324324D01*
X38896989Y-84329094D01*
X38390398Y-84286455D01*
X38189000Y-84254106D01*
X37960784Y-84202884D01*
X37597561Y-84112583D01*
X37127114Y-83990742D01*
X36577225Y-83844905D01*
X35975677Y-83682612D01*
X35350250Y-83511406D01*
X34728729Y-83338828D01*
X34138894Y-83172420D01*
X33608528Y-83019723D01*
X33236000Y-82909584D01*
X32855000Y-82795061D01*
X34082667Y-82176682D01*
X34604956Y-81916186D01*
X35164436Y-81641640D01*
X35739771Y-81363065D01*
X36309630Y-81090482D01*
X36852677Y-80833913D01*
X37347579Y-80603380D01*
X37773002Y-80408903D01*
X38107612Y-80260503D01*
X38330076Y-80168203D01*
X38415599Y-80141333D01*
X38524449Y-80182874D01*
G36*
X66867816Y-76138813D02*
X67552013Y-76823583D01*
X68199671Y-77473116D01*
X68801035Y-78077540D01*
X69346349Y-78626988D01*
X69825857Y-79111590D01*
X70229802Y-79521477D01*
X70548430Y-79846780D01*
X70771984Y-80077630D01*
X70890708Y-80204158D01*
X70907793Y-80225669D01*
X70845377Y-80296049D01*
X70683128Y-80446892D01*
X70451396Y-80650367D01*
X70353438Y-80734000D01*
X69804965Y-81169035D01*
X69156710Y-81635725D01*
X68463797Y-82097323D01*
X67781348Y-82517083D01*
X67174491Y-82853129D01*
X66751623Y-83060081D01*
X66408404Y-83192191D01*
X66094982Y-83254955D01*
X65761503Y-83253870D01*
X65358116Y-83194430D01*
X64920678Y-83101599D01*
X63928805Y-82835622D01*
X62838937Y-82467595D01*
X61678002Y-82009783D01*
X60472927Y-81474450D01*
X59250643Y-80873861D01*
X58038076Y-80220280D01*
X56862156Y-79525972D01*
X56328833Y-79188445D01*
X55986710Y-78961876D01*
X55703292Y-78764697D01*
X55505464Y-78616317D01*
X55420111Y-78536143D01*
X55418667Y-78531395D01*
X55481090Y-78465350D01*
X55660795Y-78299147D01*
X55946432Y-78042757D01*
X56326652Y-77706148D01*
X56790106Y-77299291D01*
X57325445Y-76832155D01*
X57921320Y-76314709D01*
X58566381Y-75756924D01*
X59120816Y-75279234D01*
X62822965Y-72094620D01*
X66867816Y-76138813D01*
X66867816Y-76138813D01*
G37*
X66867816Y-76138813D02*
X67552013Y-76823583D01*
X68199671Y-77473116D01*
X68801035Y-78077540D01*
X69346349Y-78626988D01*
X69825857Y-79111590D01*
X70229802Y-79521477D01*
X70548430Y-79846780D01*
X70771984Y-80077630D01*
X70890708Y-80204158D01*
X70907793Y-80225669D01*
X70845377Y-80296049D01*
X70683128Y-80446892D01*
X70451396Y-80650367D01*
X70353438Y-80734000D01*
X69804965Y-81169035D01*
X69156710Y-81635725D01*
X68463797Y-82097323D01*
X67781348Y-82517083D01*
X67174491Y-82853129D01*
X66751623Y-83060081D01*
X66408404Y-83192191D01*
X66094982Y-83254955D01*
X65761503Y-83253870D01*
X65358116Y-83194430D01*
X64920678Y-83101599D01*
X63928805Y-82835622D01*
X62838937Y-82467595D01*
X61678002Y-82009783D01*
X60472927Y-81474450D01*
X59250643Y-80873861D01*
X58038076Y-80220280D01*
X56862156Y-79525972D01*
X56328833Y-79188445D01*
X55986710Y-78961876D01*
X55703292Y-78764697D01*
X55505464Y-78616317D01*
X55420111Y-78536143D01*
X55418667Y-78531395D01*
X55481090Y-78465350D01*
X55660795Y-78299147D01*
X55946432Y-78042757D01*
X56326652Y-77706148D01*
X56790106Y-77299291D01*
X57325445Y-76832155D01*
X57921320Y-76314709D01*
X58566381Y-75756924D01*
X59120816Y-75279234D01*
X62822965Y-72094620D01*
X66867816Y-76138813D01*
G36*
X47202273Y-73777982D02*
X47297294Y-73814605D01*
X47432786Y-73892833D01*
X47620893Y-74021533D01*
X47873762Y-74209575D01*
X48203538Y-74465826D01*
X48622366Y-74799157D01*
X49142393Y-75218434D01*
X49775764Y-75732529D01*
X50090724Y-75988807D01*
X50687824Y-76476004D01*
X51243248Y-76931366D01*
X51743401Y-77343589D01*
X52174690Y-77701367D01*
X52523520Y-77993397D01*
X52776298Y-78208375D01*
X52919430Y-78334997D01*
X52947110Y-78364068D01*
X52892822Y-78450379D01*
X52705788Y-78605996D01*
X52402861Y-78820896D01*
X52000896Y-79085051D01*
X51516744Y-79388437D01*
X50967262Y-79721027D01*
X50369300Y-80072797D01*
X49739714Y-80433721D01*
X49095358Y-80793773D01*
X48453083Y-81142928D01*
X47829745Y-81471160D01*
X47242197Y-81768444D01*
X47138571Y-81819345D01*
X46647246Y-82056711D01*
X46273464Y-82228213D01*
X45984209Y-82345485D01*
X45746465Y-82420163D01*
X45527217Y-82463879D01*
X45293449Y-82488270D01*
X45227486Y-82492801D01*
X44614064Y-82532168D01*
X43462577Y-81934968D01*
X43053468Y-81720065D01*
X42585273Y-81469629D01*
X42081003Y-81196441D01*
X41563668Y-80913279D01*
X41056278Y-80632923D01*
X40581845Y-80368151D01*
X40163376Y-80131742D01*
X39823884Y-79936475D01*
X39586377Y-79795129D01*
X39473867Y-79720483D01*
X39471908Y-79718705D01*
X39500223Y-79638761D01*
X39636370Y-79481915D01*
X39854903Y-79275718D01*
X39979908Y-79168701D01*
X40149715Y-79032651D01*
X40431942Y-78812563D01*
X40810311Y-78520750D01*
X41268548Y-78169525D01*
X41790376Y-77771199D01*
X42359518Y-77338084D01*
X42959697Y-76882493D01*
X43574639Y-76416737D01*
X44188066Y-75953129D01*
X44783701Y-75503981D01*
X45345270Y-75081604D01*
X45856495Y-74698312D01*
X46301100Y-74366415D01*
X46662809Y-74098226D01*
X46925346Y-73906058D01*
X47072434Y-73802221D01*
X47085058Y-73794070D01*
X47135576Y-73774093D01*
X47202273Y-73777982D01*
X47202273Y-73777982D01*
G37*
X47202273Y-73777982D02*
X47297294Y-73814605D01*
X47432786Y-73892833D01*
X47620893Y-74021533D01*
X47873762Y-74209575D01*
X48203538Y-74465826D01*
X48622366Y-74799157D01*
X49142393Y-75218434D01*
X49775764Y-75732529D01*
X50090724Y-75988807D01*
X50687824Y-76476004D01*
X51243248Y-76931366D01*
X51743401Y-77343589D01*
X52174690Y-77701367D01*
X52523520Y-77993397D01*
X52776298Y-78208375D01*
X52919430Y-78334997D01*
X52947110Y-78364068D01*
X52892822Y-78450379D01*
X52705788Y-78605996D01*
X52402861Y-78820896D01*
X52000896Y-79085051D01*
X51516744Y-79388437D01*
X50967262Y-79721027D01*
X50369300Y-80072797D01*
X49739714Y-80433721D01*
X49095358Y-80793773D01*
X48453083Y-81142928D01*
X47829745Y-81471160D01*
X47242197Y-81768444D01*
X47138571Y-81819345D01*
X46647246Y-82056711D01*
X46273464Y-82228213D01*
X45984209Y-82345485D01*
X45746465Y-82420163D01*
X45527217Y-82463879D01*
X45293449Y-82488270D01*
X45227486Y-82492801D01*
X44614064Y-82532168D01*
X43462577Y-81934968D01*
X43053468Y-81720065D01*
X42585273Y-81469629D01*
X42081003Y-81196441D01*
X41563668Y-80913279D01*
X41056278Y-80632923D01*
X40581845Y-80368151D01*
X40163376Y-80131742D01*
X39823884Y-79936475D01*
X39586377Y-79795129D01*
X39473867Y-79720483D01*
X39471908Y-79718705D01*
X39500223Y-79638761D01*
X39636370Y-79481915D01*
X39854903Y-79275718D01*
X39979908Y-79168701D01*
X40149715Y-79032651D01*
X40431942Y-78812563D01*
X40810311Y-78520750D01*
X41268548Y-78169525D01*
X41790376Y-77771199D01*
X42359518Y-77338084D01*
X42959697Y-76882493D01*
X43574639Y-76416737D01*
X44188066Y-75953129D01*
X44783701Y-75503981D01*
X45345270Y-75081604D01*
X45856495Y-74698312D01*
X46301100Y-74366415D01*
X46662809Y-74098226D01*
X46925346Y-73906058D01*
X47072434Y-73802221D01*
X47085058Y-73794070D01*
X47135576Y-73774093D01*
X47202273Y-73777982D01*
G36*
X70630719Y-63750090D02*
X70773433Y-63943091D01*
X70981173Y-64260607D01*
X71239294Y-64677732D01*
X71533152Y-65169560D01*
X71848103Y-65711185D01*
X72169501Y-66277702D01*
X72482704Y-66844204D01*
X72773065Y-67385787D01*
X72811121Y-67458320D01*
X73426452Y-68694887D01*
X73957571Y-69887567D01*
X74397281Y-71017487D01*
X74738389Y-72065775D01*
X74973701Y-73013558D01*
X75017466Y-73245781D01*
X75081428Y-73608822D01*
X75127450Y-73906274D01*
X75147711Y-74160437D01*
X75134392Y-74393613D01*
X75079670Y-74628103D01*
X74975725Y-74886208D01*
X74814736Y-75190230D01*
X74588882Y-75562468D01*
X74290343Y-76025226D01*
X73911297Y-76600804D01*
X73760896Y-76828889D01*
X73407740Y-77362087D01*
X73081283Y-77849550D01*
X72793933Y-78273176D01*
X72558100Y-78614863D01*
X72386194Y-78856507D01*
X72290622Y-78980007D01*
X72278513Y-78991423D01*
X72188055Y-78952970D01*
X71991779Y-78802843D01*
X71701392Y-78551279D01*
X71328600Y-78208512D01*
X70885110Y-77784779D01*
X70767509Y-77670273D01*
X70361350Y-77273926D01*
X69992276Y-76914692D01*
X69678639Y-76610362D01*
X69438791Y-76378722D01*
X69291085Y-76237560D01*
X69255077Y-76204333D01*
X69175688Y-76128455D01*
X68988943Y-75946027D01*
X68707718Y-75669740D01*
X68344888Y-75312288D01*
X67913326Y-74886360D01*
X67425908Y-74404649D01*
X66895509Y-73879847D01*
X66559968Y-73547554D01*
X65928611Y-72921081D01*
X65408597Y-72402197D01*
X64990118Y-71980187D01*
X64663367Y-71644336D01*
X64418535Y-71383928D01*
X64245814Y-71188248D01*
X64135397Y-71046580D01*
X64077476Y-70948208D01*
X64062242Y-70882417D01*
X64079888Y-70838491D01*
X64080117Y-70838221D01*
X64413235Y-70447653D01*
X64831816Y-69959439D01*
X65316269Y-69396222D01*
X65847000Y-68780645D01*
X66404415Y-68135351D01*
X66968923Y-67482981D01*
X67520929Y-66846180D01*
X68040841Y-66247590D01*
X68509066Y-65709853D01*
X68906010Y-65255613D01*
X69209225Y-64910744D01*
X70435518Y-63523155D01*
X70630719Y-63750090D01*
X70630719Y-63750090D01*
G37*
X70630719Y-63750090D02*
X70773433Y-63943091D01*
X70981173Y-64260607D01*
X71239294Y-64677732D01*
X71533152Y-65169560D01*
X71848103Y-65711185D01*
X72169501Y-66277702D01*
X72482704Y-66844204D01*
X72773065Y-67385787D01*
X72811121Y-67458320D01*
X73426452Y-68694887D01*
X73957571Y-69887567D01*
X74397281Y-71017487D01*
X74738389Y-72065775D01*
X74973701Y-73013558D01*
X75017466Y-73245781D01*
X75081428Y-73608822D01*
X75127450Y-73906274D01*
X75147711Y-74160437D01*
X75134392Y-74393613D01*
X75079670Y-74628103D01*
X74975725Y-74886208D01*
X74814736Y-75190230D01*
X74588882Y-75562468D01*
X74290343Y-76025226D01*
X73911297Y-76600804D01*
X73760896Y-76828889D01*
X73407740Y-77362087D01*
X73081283Y-77849550D01*
X72793933Y-78273176D01*
X72558100Y-78614863D01*
X72386194Y-78856507D01*
X72290622Y-78980007D01*
X72278513Y-78991423D01*
X72188055Y-78952970D01*
X71991779Y-78802843D01*
X71701392Y-78551279D01*
X71328600Y-78208512D01*
X70885110Y-77784779D01*
X70767509Y-77670273D01*
X70361350Y-77273926D01*
X69992276Y-76914692D01*
X69678639Y-76610362D01*
X69438791Y-76378722D01*
X69291085Y-76237560D01*
X69255077Y-76204333D01*
X69175688Y-76128455D01*
X68988943Y-75946027D01*
X68707718Y-75669740D01*
X68344888Y-75312288D01*
X67913326Y-74886360D01*
X67425908Y-74404649D01*
X66895509Y-73879847D01*
X66559968Y-73547554D01*
X65928611Y-72921081D01*
X65408597Y-72402197D01*
X64990118Y-71980187D01*
X64663367Y-71644336D01*
X64418535Y-71383928D01*
X64245814Y-71188248D01*
X64135397Y-71046580D01*
X64077476Y-70948208D01*
X64062242Y-70882417D01*
X64079888Y-70838491D01*
X64080117Y-70838221D01*
X64413235Y-70447653D01*
X64831816Y-69959439D01*
X65316269Y-69396222D01*
X65847000Y-68780645D01*
X66404415Y-68135351D01*
X66968923Y-67482981D01*
X67520929Y-66846180D01*
X68040841Y-66247590D01*
X68509066Y-65709853D01*
X68906010Y-65255613D01*
X69209225Y-64910744D01*
X70435518Y-63523155D01*
X70630719Y-63750090D01*
G36*
X56065572Y-65707332D02*
X56211625Y-65816695D01*
X56290730Y-65888721D01*
X56449588Y-66034154D01*
X56704146Y-66265606D01*
X57024291Y-66555764D01*
X57379908Y-66877312D01*
X57535333Y-67017617D01*
X58161251Y-67585230D01*
X58773809Y-68146149D01*
X59360427Y-68688428D01*
X59908525Y-69200122D01*
X60405523Y-69669283D01*
X60838841Y-70083966D01*
X61195900Y-70432225D01*
X61464120Y-70702114D01*
X61630920Y-70881687D01*
X61684000Y-70957269D01*
X61622115Y-71065982D01*
X61446367Y-71270965D01*
X61171619Y-71558472D01*
X60812734Y-71914755D01*
X60384573Y-72326070D01*
X59901998Y-72778667D01*
X59379872Y-73258802D01*
X58833057Y-73752727D01*
X58276415Y-74246695D01*
X57724809Y-74726960D01*
X57193100Y-75179776D01*
X56696151Y-75591394D01*
X56519333Y-75734294D01*
X56127857Y-76041360D01*
X55709367Y-76358026D01*
X55287912Y-76667363D01*
X54887541Y-76952443D01*
X54532302Y-77196339D01*
X54246245Y-77382120D01*
X54053419Y-77492860D01*
X53987256Y-77516667D01*
X53894808Y-77471176D01*
X53695405Y-77348028D01*
X53420441Y-77167212D01*
X53167304Y-76994570D01*
X52775168Y-76717763D01*
X52293931Y-76369525D01*
X51747646Y-75968023D01*
X51160368Y-75531430D01*
X50556151Y-75077914D01*
X49959050Y-74625645D01*
X49393117Y-74192794D01*
X48882409Y-73797531D01*
X48450979Y-73458025D01*
X48122880Y-73192446D01*
X48025347Y-73110458D01*
X48070766Y-73042476D01*
X48228293Y-72871820D01*
X48485322Y-72610353D01*
X48829243Y-72269943D01*
X49247450Y-71862454D01*
X49727335Y-71399752D01*
X50256289Y-70893702D01*
X50821705Y-70356171D01*
X51410976Y-69799023D01*
X52011493Y-69234125D01*
X52610648Y-68673342D01*
X53195835Y-68128539D01*
X53754444Y-67611582D01*
X54273869Y-67134337D01*
X54741502Y-66708669D01*
X55144734Y-66346443D01*
X55470958Y-66059526D01*
X55707567Y-65859782D01*
X55825063Y-65769909D01*
X55956560Y-65696800D01*
X56065572Y-65707332D01*
X56065572Y-65707332D01*
G37*
X56065572Y-65707332D02*
X56211625Y-65816695D01*
X56290730Y-65888721D01*
X56449588Y-66034154D01*
X56704146Y-66265606D01*
X57024291Y-66555764D01*
X57379908Y-66877312D01*
X57535333Y-67017617D01*
X58161251Y-67585230D01*
X58773809Y-68146149D01*
X59360427Y-68688428D01*
X59908525Y-69200122D01*
X60405523Y-69669283D01*
X60838841Y-70083966D01*
X61195900Y-70432225D01*
X61464120Y-70702114D01*
X61630920Y-70881687D01*
X61684000Y-70957269D01*
X61622115Y-71065982D01*
X61446367Y-71270965D01*
X61171619Y-71558472D01*
X60812734Y-71914755D01*
X60384573Y-72326070D01*
X59901998Y-72778667D01*
X59379872Y-73258802D01*
X58833057Y-73752727D01*
X58276415Y-74246695D01*
X57724809Y-74726960D01*
X57193100Y-75179776D01*
X56696151Y-75591394D01*
X56519333Y-75734294D01*
X56127857Y-76041360D01*
X55709367Y-76358026D01*
X55287912Y-76667363D01*
X54887541Y-76952443D01*
X54532302Y-77196339D01*
X54246245Y-77382120D01*
X54053419Y-77492860D01*
X53987256Y-77516667D01*
X53894808Y-77471176D01*
X53695405Y-77348028D01*
X53420441Y-77167212D01*
X53167304Y-76994570D01*
X52775168Y-76717763D01*
X52293931Y-76369525D01*
X51747646Y-75968023D01*
X51160368Y-75531430D01*
X50556151Y-75077914D01*
X49959050Y-74625645D01*
X49393117Y-74192794D01*
X48882409Y-73797531D01*
X48450979Y-73458025D01*
X48122880Y-73192446D01*
X48025347Y-73110458D01*
X48070766Y-73042476D01*
X48228293Y-72871820D01*
X48485322Y-72610353D01*
X48829243Y-72269943D01*
X49247450Y-71862454D01*
X49727335Y-71399752D01*
X50256289Y-70893702D01*
X50821705Y-70356171D01*
X51410976Y-69799023D01*
X52011493Y-69234125D01*
X52610648Y-68673342D01*
X53195835Y-68128539D01*
X53754444Y-67611582D01*
X54273869Y-67134337D01*
X54741502Y-66708669D01*
X55144734Y-66346443D01*
X55470958Y-66059526D01*
X55707567Y-65859782D01*
X55825063Y-65769909D01*
X55956560Y-65696800D01*
X56065572Y-65707332D01*
G36*
X75532292Y-55044600D02*
X75637073Y-55232120D01*
X75774726Y-55532644D01*
X75950256Y-55957291D01*
X76168669Y-56517182D01*
X76434970Y-57223435D01*
X76513936Y-57435819D01*
X76890991Y-58455318D01*
X77211835Y-59331695D01*
X77480673Y-60080018D01*
X77701710Y-60715355D01*
X77879153Y-61252772D01*
X78017208Y-61707336D01*
X78120080Y-62094114D01*
X78191975Y-62428174D01*
X78237100Y-62724582D01*
X78259660Y-62998406D01*
X78263860Y-63264712D01*
X78253907Y-63538569D01*
X78247414Y-63645836D01*
X78198383Y-64175138D01*
X78115200Y-64827453D01*
X78004910Y-65561550D01*
X77874559Y-66336199D01*
X77731195Y-67110169D01*
X77581864Y-67842227D01*
X77433611Y-68491143D01*
X77388967Y-68669000D01*
X77217932Y-69292848D01*
X77014664Y-69970598D01*
X76794904Y-70654156D01*
X76574396Y-71295430D01*
X76368879Y-71846327D01*
X76268718Y-72091548D01*
X76108894Y-72466095D01*
X75884792Y-71922214D01*
X75774589Y-71652064D01*
X75618868Y-71266713D01*
X75434603Y-70808342D01*
X75238769Y-70319128D01*
X75137779Y-70066000D01*
X74828872Y-69315487D01*
X74507535Y-68588346D01*
X74158019Y-67852702D01*
X73764580Y-67076680D01*
X73311469Y-66228402D01*
X72782941Y-65275995D01*
X72690994Y-65113000D01*
X72299475Y-64418934D01*
X71984585Y-63855573D01*
X71738948Y-63406595D01*
X71555187Y-63055680D01*
X71425923Y-62786506D01*
X71343780Y-62582751D01*
X71301380Y-62428096D01*
X71291346Y-62306219D01*
X71306300Y-62200798D01*
X71333721Y-62110275D01*
X71401188Y-61962744D01*
X71542429Y-61689496D01*
X71746980Y-61308918D01*
X72004374Y-60839396D01*
X72304147Y-60299316D01*
X72635833Y-59707064D01*
X72988967Y-59081025D01*
X73353085Y-58439585D01*
X73717719Y-57801130D01*
X74072407Y-57184047D01*
X74406681Y-56606721D01*
X74710078Y-56087537D01*
X74972131Y-55644883D01*
X75182376Y-55297142D01*
X75330347Y-55062703D01*
X75401325Y-54964093D01*
X75455378Y-54958964D01*
X75532292Y-55044600D01*
X75532292Y-55044600D01*
G37*
X75532292Y-55044600D02*
X75637073Y-55232120D01*
X75774726Y-55532644D01*
X75950256Y-55957291D01*
X76168669Y-56517182D01*
X76434970Y-57223435D01*
X76513936Y-57435819D01*
X76890991Y-58455318D01*
X77211835Y-59331695D01*
X77480673Y-60080018D01*
X77701710Y-60715355D01*
X77879153Y-61252772D01*
X78017208Y-61707336D01*
X78120080Y-62094114D01*
X78191975Y-62428174D01*
X78237100Y-62724582D01*
X78259660Y-62998406D01*
X78263860Y-63264712D01*
X78253907Y-63538569D01*
X78247414Y-63645836D01*
X78198383Y-64175138D01*
X78115200Y-64827453D01*
X78004910Y-65561550D01*
X77874559Y-66336199D01*
X77731195Y-67110169D01*
X77581864Y-67842227D01*
X77433611Y-68491143D01*
X77388967Y-68669000D01*
X77217932Y-69292848D01*
X77014664Y-69970598D01*
X76794904Y-70654156D01*
X76574396Y-71295430D01*
X76368879Y-71846327D01*
X76268718Y-72091548D01*
X76108894Y-72466095D01*
X75884792Y-71922214D01*
X75774589Y-71652064D01*
X75618868Y-71266713D01*
X75434603Y-70808342D01*
X75238769Y-70319128D01*
X75137779Y-70066000D01*
X74828872Y-69315487D01*
X74507535Y-68588346D01*
X74158019Y-67852702D01*
X73764580Y-67076680D01*
X73311469Y-66228402D01*
X72782941Y-65275995D01*
X72690994Y-65113000D01*
X72299475Y-64418934D01*
X71984585Y-63855573D01*
X71738948Y-63406595D01*
X71555187Y-63055680D01*
X71425923Y-62786506D01*
X71343780Y-62582751D01*
X71301380Y-62428096D01*
X71291346Y-62306219D01*
X71306300Y-62200798D01*
X71333721Y-62110275D01*
X71401188Y-61962744D01*
X71542429Y-61689496D01*
X71746980Y-61308918D01*
X72004374Y-60839396D01*
X72304147Y-60299316D01*
X72635833Y-59707064D01*
X72988967Y-59081025D01*
X73353085Y-58439585D01*
X73717719Y-57801130D01*
X74072407Y-57184047D01*
X74406681Y-56606721D01*
X74710078Y-56087537D01*
X74972131Y-55644883D01*
X75182376Y-55297142D01*
X75330347Y-55062703D01*
X75401325Y-54964093D01*
X75455378Y-54958964D01*
X75532292Y-55044600D01*
G36*
X64962437Y-56142676D02*
X65090398Y-56261771D01*
X65284433Y-56479147D01*
X65550696Y-56802324D01*
X65895340Y-57238823D01*
X66324517Y-57796163D01*
X66844381Y-58481865D01*
X66992325Y-58678333D01*
X67585979Y-59470613D01*
X68081873Y-60139462D01*
X68486759Y-60694680D01*
X68807391Y-61146067D01*
X69050522Y-61503424D01*
X69222906Y-61776550D01*
X69331296Y-61975246D01*
X69382445Y-62109312D01*
X69388667Y-62155807D01*
X69379996Y-62225304D01*
X69347032Y-62311660D01*
X69279342Y-62428128D01*
X69166498Y-62587959D01*
X68998068Y-62804404D01*
X68763622Y-63090715D01*
X68452729Y-63460143D01*
X68054960Y-63925940D01*
X67559883Y-64501358D01*
X67360913Y-64732000D01*
X67006066Y-65141083D01*
X66601492Y-65603999D01*
X66161175Y-66105068D01*
X65699101Y-66628605D01*
X65229252Y-67158928D01*
X64765615Y-67680355D01*
X64322173Y-68177203D01*
X63912911Y-68633790D01*
X63551813Y-69034433D01*
X63252865Y-69363449D01*
X63030049Y-69605157D01*
X62897352Y-69743872D01*
X62867946Y-69770524D01*
X62780231Y-69734660D01*
X62592980Y-69603266D01*
X62331200Y-69395547D01*
X62019892Y-69130708D01*
X61919867Y-69042353D01*
X61635641Y-68785907D01*
X61279382Y-68459417D01*
X60866880Y-68077807D01*
X60413926Y-67656003D01*
X59936312Y-67208929D01*
X59449828Y-66751510D01*
X58970267Y-66298671D01*
X58513419Y-65865336D01*
X58095076Y-65466431D01*
X57731029Y-65116881D01*
X57437070Y-64831609D01*
X57228988Y-64625542D01*
X57122577Y-64513603D01*
X57112000Y-64498291D01*
X57168041Y-64424024D01*
X57328463Y-64238778D01*
X57581714Y-63954999D01*
X57916242Y-63585131D01*
X58320495Y-63141619D01*
X58782922Y-62636909D01*
X59291969Y-62083445D01*
X59836085Y-61493673D01*
X60403718Y-60880036D01*
X60983316Y-60254980D01*
X61563327Y-59630950D01*
X62132199Y-59020391D01*
X62678380Y-58435748D01*
X63190317Y-57889466D01*
X63656460Y-57393989D01*
X64065256Y-56961762D01*
X64405153Y-56605231D01*
X64664599Y-56336841D01*
X64832042Y-56169036D01*
X64894398Y-56114343D01*
X64962437Y-56142676D01*
X64962437Y-56142676D01*
G37*
X64962437Y-56142676D02*
X65090398Y-56261771D01*
X65284433Y-56479147D01*
X65550696Y-56802324D01*
X65895340Y-57238823D01*
X66324517Y-57796163D01*
X66844381Y-58481865D01*
X66992325Y-58678333D01*
X67585979Y-59470613D01*
X68081873Y-60139462D01*
X68486759Y-60694680D01*
X68807391Y-61146067D01*
X69050522Y-61503424D01*
X69222906Y-61776550D01*
X69331296Y-61975246D01*
X69382445Y-62109312D01*
X69388667Y-62155807D01*
X69379996Y-62225304D01*
X69347032Y-62311660D01*
X69279342Y-62428128D01*
X69166498Y-62587959D01*
X68998068Y-62804404D01*
X68763622Y-63090715D01*
X68452729Y-63460143D01*
X68054960Y-63925940D01*
X67559883Y-64501358D01*
X67360913Y-64732000D01*
X67006066Y-65141083D01*
X66601492Y-65603999D01*
X66161175Y-66105068D01*
X65699101Y-66628605D01*
X65229252Y-67158928D01*
X64765615Y-67680355D01*
X64322173Y-68177203D01*
X63912911Y-68633790D01*
X63551813Y-69034433D01*
X63252865Y-69363449D01*
X63030049Y-69605157D01*
X62897352Y-69743872D01*
X62867946Y-69770524D01*
X62780231Y-69734660D01*
X62592980Y-69603266D01*
X62331200Y-69395547D01*
X62019892Y-69130708D01*
X61919867Y-69042353D01*
X61635641Y-68785907D01*
X61279382Y-68459417D01*
X60866880Y-68077807D01*
X60413926Y-67656003D01*
X59936312Y-67208929D01*
X59449828Y-66751510D01*
X58970267Y-66298671D01*
X58513419Y-65865336D01*
X58095076Y-65466431D01*
X57731029Y-65116881D01*
X57437070Y-64831609D01*
X57228988Y-64625542D01*
X57122577Y-64513603D01*
X57112000Y-64498291D01*
X57168041Y-64424024D01*
X57328463Y-64238778D01*
X57581714Y-63954999D01*
X57916242Y-63585131D01*
X58320495Y-63141619D01*
X58782922Y-62636909D01*
X59291969Y-62083445D01*
X59836085Y-61493673D01*
X60403718Y-60880036D01*
X60983316Y-60254980D01*
X61563327Y-59630950D01*
X62132199Y-59020391D01*
X62678380Y-58435748D01*
X63190317Y-57889466D01*
X63656460Y-57393989D01*
X64065256Y-56961762D01*
X64405153Y-56605231D01*
X64664599Y-56336841D01*
X64832042Y-56169036D01*
X64894398Y-56114343D01*
X64962437Y-56142676D01*
G36*
X15456000Y-2757798D02*
X16025913Y-2873716D01*
X16528836Y-3045558D01*
X17034321Y-3300427D01*
X17361000Y-3500125D01*
X18123387Y-4076768D01*
X18865751Y-4809531D01*
X19582948Y-5685854D01*
X20269833Y-6693180D01*
X20921265Y-7818949D01*
X21532098Y-9050603D01*
X22097190Y-10375582D01*
X22611397Y-11781330D01*
X23069575Y-13255285D01*
X23466581Y-14784891D01*
X23797272Y-16357588D01*
X24056503Y-17960818D01*
X24239132Y-19582021D01*
X24303536Y-20451333D01*
X24357188Y-21340333D01*
X23872155Y-20790000D01*
X22837727Y-19713037D01*
X21776436Y-18798235D01*
X20690344Y-18046696D01*
X19581511Y-17459522D01*
X18451997Y-17037816D01*
X17303863Y-16782679D01*
X16218000Y-16695815D01*
X15595009Y-16704113D01*
X15072083Y-16754181D01*
X14582637Y-16857760D01*
X14060089Y-17026588D01*
X13815827Y-17119347D01*
X13558154Y-17231211D01*
X13228391Y-17390033D01*
X12856442Y-17579510D01*
X12472208Y-17783336D01*
X12105592Y-17985205D01*
X11786498Y-18168814D01*
X11544826Y-18317857D01*
X11410481Y-18416030D01*
X11392891Y-18440500D01*
X11469145Y-18474794D01*
X11667541Y-18498314D01*
X11878833Y-18505151D01*
X12280557Y-18511981D01*
X12785960Y-18529471D01*
X13359927Y-18555514D01*
X13967342Y-18588005D01*
X14573090Y-18624837D01*
X15142056Y-18663905D01*
X15639125Y-18703102D01*
X16029181Y-18740324D01*
X16234916Y-18766378D01*
X17103537Y-18963644D01*
X18019643Y-19285070D01*
X18940235Y-19711681D01*
X19822314Y-20224507D01*
X20318563Y-20568194D01*
X21082663Y-21184096D01*
X21787084Y-21860099D01*
X22447092Y-22615976D01*
X23077950Y-23471500D01*
X23694923Y-24446444D01*
X24313273Y-25560580D01*
X24591141Y-26102833D01*
X24730751Y-26364455D01*
X24847269Y-26552562D01*
X24916643Y-26628544D01*
X24918719Y-26628698D01*
X25011226Y-26558219D01*
X25161013Y-26377292D01*
X25342071Y-26122897D01*
X25528386Y-25832019D01*
X25693949Y-25541640D01*
X25723504Y-25484465D01*
X25994368Y-24840822D01*
X26224155Y-24074362D01*
X26400019Y-23229232D01*
X26424375Y-23076000D01*
X26483576Y-22616399D01*
X26523573Y-22131641D01*
X26543503Y-21607203D01*
X26542502Y-21028563D01*
X26519708Y-20381197D01*
X26474257Y-19650584D01*
X26405287Y-18822200D01*
X26311932Y-17881524D01*
X26193332Y-16814033D01*
X26048622Y-15605204D01*
X25918611Y-14567000D01*
X25844194Y-13963707D01*
X25781003Y-13416041D01*
X25731253Y-12946234D01*
X25697154Y-12576517D01*
X25680922Y-12329122D01*
X25684770Y-12226282D01*
X25685492Y-12225368D01*
X25796733Y-12167254D01*
X26004606Y-12089796D01*
X26081667Y-12065009D01*
X26269007Y-12033575D01*
X26603637Y-12005213D01*
X27063538Y-11980172D01*
X27626691Y-11958701D01*
X28271076Y-11941049D01*
X28974674Y-11927465D01*
X29715465Y-11918196D01*
X30471430Y-11913492D01*
X31220549Y-11913601D01*
X31940804Y-11918771D01*
X32610174Y-11929253D01*
X33206641Y-11945293D01*
X33708184Y-11967141D01*
X33870080Y-11977070D01*
X35489477Y-12147607D01*
X37195194Y-12442742D01*
X38965096Y-12857031D01*
X40777048Y-13385030D01*
X42608912Y-14021296D01*
X43353667Y-14309435D01*
X44034749Y-14596573D01*
X44787762Y-14941262D01*
X45583862Y-15328121D01*
X46394207Y-15741770D01*
X47189954Y-16166827D01*
X47942260Y-16587914D01*
X48622282Y-16989649D01*
X49201177Y-17356651D01*
X49621410Y-17651723D01*
X49822586Y-17808884D01*
X49962572Y-17948300D01*
X50045324Y-18099821D01*
X50074796Y-18293297D01*
X50054942Y-18558581D01*
X49989718Y-18925522D01*
X49883079Y-19423972D01*
X49866317Y-19500271D01*
X49742256Y-20210282D01*
X49651462Y-21030611D01*
X49596567Y-21905038D01*
X49580202Y-22777341D01*
X49605000Y-23591299D01*
X49650345Y-24114127D01*
X49818543Y-25036477D01*
X50104855Y-26020950D01*
X50492465Y-27027355D01*
X50964557Y-28015503D01*
X51504317Y-28945204D01*
X51929493Y-29561322D01*
X52182589Y-29878026D01*
X52524112Y-30273520D01*
X52919849Y-30709830D01*
X53335588Y-31148984D01*
X53619738Y-31437305D01*
X54747606Y-32559611D01*
X54655040Y-32918972D01*
X54573112Y-33221942D01*
X54489059Y-33511000D01*
X54474495Y-33558073D01*
X54386516Y-33837812D01*
X52595425Y-32075955D01*
X51852630Y-31352835D01*
X51204080Y-30739074D01*
X50630686Y-30218217D01*
X50113358Y-29773809D01*
X49633007Y-29389396D01*
X49170544Y-29048523D01*
X48757562Y-28767799D01*
X48150125Y-28369832D01*
X48096036Y-27564416D01*
X48015229Y-26565408D01*
X47911747Y-25699739D01*
X47776916Y-24931996D01*
X47602061Y-24226764D01*
X47378507Y-23548631D01*
X47097582Y-22862182D01*
X46779685Y-22190214D01*
X46441843Y-21561851D01*
X46073275Y-20985624D01*
X45645289Y-20423310D01*
X45129195Y-19836685D01*
X44612629Y-19303202D01*
X43605342Y-18405867D01*
X42525692Y-17652881D01*
X41384299Y-17050082D01*
X40191784Y-16603306D01*
X39289667Y-16377960D01*
X38850209Y-16317692D01*
X38295069Y-16281428D01*
X37674064Y-16268644D01*
X37037013Y-16278816D01*
X36433730Y-16311420D01*
X35914035Y-16365933D01*
X35628467Y-16416442D01*
X34696344Y-16680177D01*
X33834230Y-17044127D01*
X33011075Y-17525573D01*
X32195829Y-18141799D01*
X31642193Y-18635275D01*
X31056862Y-19220615D01*
X30584914Y-19778165D01*
X30189421Y-20358105D01*
X29833451Y-21010614D01*
X29719768Y-21247404D01*
X29243540Y-22464948D01*
X28927103Y-23737566D01*
X28770445Y-25065487D01*
X28773555Y-26448938D01*
X28936417Y-27888150D01*
X29259021Y-29383351D01*
X29263385Y-29399834D01*
X29449451Y-30147967D01*
X29569614Y-30770208D01*
X29620561Y-31298008D01*
X29598980Y-31762816D01*
X29501557Y-32196084D01*
X29324980Y-32629260D01*
X29065935Y-33093795D01*
X28836750Y-33449994D01*
X28515489Y-33880916D01*
X28094540Y-34369901D01*
X27598288Y-34894771D01*
X27051120Y-35433342D01*
X26477421Y-35963435D01*
X25901577Y-36462869D01*
X25347973Y-36909461D01*
X24840996Y-37281032D01*
X24405031Y-37555400D01*
X24219000Y-37650249D01*
X23940264Y-37748402D01*
X23631613Y-37792765D01*
X23262557Y-37781974D01*
X22802601Y-37714665D01*
X22221254Y-37589475D01*
X22075646Y-37554422D01*
X20560375Y-37224760D01*
X19161520Y-37006244D01*
X17867569Y-36899083D01*
X16667008Y-36903484D01*
X15548324Y-37019654D01*
X14500003Y-37247803D01*
X13510532Y-37588136D01*
X13218998Y-37714159D01*
X12470771Y-38121891D01*
X11708727Y-38661810D01*
X10964583Y-39303003D01*
X10270055Y-40014561D01*
X9656858Y-40765571D01*
X9156709Y-41525123D01*
X8989432Y-41836348D01*
X8617187Y-42736552D01*
X8340910Y-43730620D01*
X8169383Y-44767254D01*
X8111386Y-45795157D01*
X8162839Y-46664919D01*
X8370322Y-47862165D01*
X8692350Y-48967849D01*
X9138718Y-49999469D01*
X9719222Y-50974521D01*
X10443656Y-51910504D01*
X11321817Y-52824914D01*
X11907625Y-53354160D01*
X12995249Y-54202023D01*
X14104739Y-54885507D01*
X15246263Y-55409159D01*
X16429990Y-55777531D01*
X17666088Y-55995171D01*
X17855102Y-56014949D01*
X18541068Y-56082431D01*
X19078435Y-56140053D01*
X19487441Y-56190902D01*
X19788325Y-56238067D01*
X20001325Y-56284635D01*
X20146679Y-56333695D01*
X20228183Y-56377023D01*
X20353756Y-56495576D01*
X20547126Y-56720783D01*
X20780923Y-57019236D01*
X21004691Y-57324841D01*
X21854869Y-58440148D01*
X22835251Y-59568437D01*
X23959295Y-60724855D01*
X24416089Y-61164587D01*
X24799512Y-61530535D01*
X25137303Y-61858513D01*
X25411305Y-62130429D01*
X25603361Y-62328191D01*
X25695314Y-62433706D01*
X25700667Y-62444597D01*
X25626651Y-62496235D01*
X25438495Y-62570482D01*
X25187032Y-62651774D01*
X24923097Y-62724549D01*
X24697522Y-62773243D01*
X24589887Y-62784667D01*
X24458564Y-62726609D01*
X24278017Y-62580717D01*
X24207305Y-62509500D01*
X24038127Y-62318679D01*
X23804077Y-62042581D01*
X23545245Y-61728805D01*
X23435969Y-61593723D01*
X22711161Y-60813217D01*
X21844311Y-60090322D01*
X20856956Y-59438877D01*
X19770631Y-58872717D01*
X18606874Y-58405681D01*
X18331595Y-58314082D01*
X17723458Y-58128464D01*
X17181496Y-57987150D01*
X16665111Y-57884553D01*
X16133708Y-57815085D01*
X15546687Y-57773156D01*
X14863454Y-57753179D01*
X14228333Y-57749244D01*
X13615458Y-57751015D01*
X13136699Y-57757787D01*
X12756848Y-57772529D01*
X12440701Y-57798209D01*
X12153050Y-57837798D01*
X11858691Y-57894265D01*
X11522417Y-57970579D01*
X11477240Y-57981292D01*
X10964352Y-58099014D01*
X10585537Y-58171757D01*
X10311612Y-58199497D01*
X10113391Y-58182208D01*
X9961692Y-58119863D01*
X9827329Y-58012439D01*
X9794307Y-57979833D01*
X9553891Y-57693926D01*
X9258492Y-57273779D01*
X8919696Y-56740854D01*
X8549091Y-56116608D01*
X8158267Y-55422502D01*
X7758810Y-54679995D01*
X7362309Y-53910547D01*
X6980352Y-53135615D01*
X6624527Y-52376661D01*
X6306421Y-51655144D01*
X6079568Y-51100667D01*
X5397621Y-49227549D01*
X4836028Y-47386577D01*
X4391564Y-45554346D01*
X4061003Y-43707453D01*
X3841119Y-41822494D01*
X3728686Y-39876067D01*
X3720478Y-37844767D01*
X3813270Y-35705192D01*
X3862214Y-35014000D01*
X3978061Y-33746314D01*
X4121803Y-32623312D01*
X4298542Y-31621885D01*
X4513381Y-30718925D01*
X4771424Y-29891323D01*
X5077774Y-29115970D01*
X5245053Y-28752302D01*
X5409041Y-28381266D01*
X5479307Y-28142984D01*
X5462405Y-28034539D01*
X5390141Y-27992955D01*
X5296876Y-28010961D01*
X5167662Y-28102452D01*
X4987551Y-28281325D01*
X4741597Y-28561478D01*
X4414852Y-28956806D01*
X4245912Y-29165518D01*
X3908930Y-29576326D01*
X3660420Y-29861378D01*
X3489286Y-30031881D01*
X3384433Y-30099047D01*
X3338532Y-30082217D01*
X3289070Y-29933750D01*
X3221648Y-29646098D01*
X3141292Y-29247843D01*
X3053023Y-28767568D01*
X2961864Y-28233854D01*
X2872838Y-27675284D01*
X2790969Y-27120438D01*
X2721279Y-26597900D01*
X2709874Y-26505000D01*
X2660169Y-25950424D01*
X2625779Y-25260729D01*
X2606298Y-24469399D01*
X2601323Y-23609917D01*
X2610446Y-22715767D01*
X2633263Y-21820433D01*
X2669370Y-20957396D01*
X2718361Y-20160142D01*
X2779830Y-19462154D01*
X2796954Y-19308333D01*
X3086625Y-17382830D01*
X3494894Y-15525097D01*
X4017050Y-13744418D01*
X4648384Y-12050078D01*
X5384186Y-10451363D01*
X6219745Y-8957557D01*
X7150352Y-7577945D01*
X8171296Y-6321813D01*
X9277869Y-5198444D01*
X10444352Y-4232695D01*
X11365749Y-3615744D01*
X12259828Y-3158250D01*
X13141749Y-2855751D01*
X14026674Y-2703785D01*
X14929764Y-2697891D01*
X15456000Y-2757798D01*
X15456000Y-2757798D01*
G37*
X15456000Y-2757798D02*
X16025913Y-2873716D01*
X16528836Y-3045558D01*
X17034321Y-3300427D01*
X17361000Y-3500125D01*
X18123387Y-4076768D01*
X18865751Y-4809531D01*
X19582948Y-5685854D01*
X20269833Y-6693180D01*
X20921265Y-7818949D01*
X21532098Y-9050603D01*
X22097190Y-10375582D01*
X22611397Y-11781330D01*
X23069575Y-13255285D01*
X23466581Y-14784891D01*
X23797272Y-16357588D01*
X24056503Y-17960818D01*
X24239132Y-19582021D01*
X24303536Y-20451333D01*
X24357188Y-21340333D01*
X23872155Y-20790000D01*
X22837727Y-19713037D01*
X21776436Y-18798235D01*
X20690344Y-18046696D01*
X19581511Y-17459522D01*
X18451997Y-17037816D01*
X17303863Y-16782679D01*
X16218000Y-16695815D01*
X15595009Y-16704113D01*
X15072083Y-16754181D01*
X14582637Y-16857760D01*
X14060089Y-17026588D01*
X13815827Y-17119347D01*
X13558154Y-17231211D01*
X13228391Y-17390033D01*
X12856442Y-17579510D01*
X12472208Y-17783336D01*
X12105592Y-17985205D01*
X11786498Y-18168814D01*
X11544826Y-18317857D01*
X11410481Y-18416030D01*
X11392891Y-18440500D01*
X11469145Y-18474794D01*
X11667541Y-18498314D01*
X11878833Y-18505151D01*
X12280557Y-18511981D01*
X12785960Y-18529471D01*
X13359927Y-18555514D01*
X13967342Y-18588005D01*
X14573090Y-18624837D01*
X15142056Y-18663905D01*
X15639125Y-18703102D01*
X16029181Y-18740324D01*
X16234916Y-18766378D01*
X17103537Y-18963644D01*
X18019643Y-19285070D01*
X18940235Y-19711681D01*
X19822314Y-20224507D01*
X20318563Y-20568194D01*
X21082663Y-21184096D01*
X21787084Y-21860099D01*
X22447092Y-22615976D01*
X23077950Y-23471500D01*
X23694923Y-24446444D01*
X24313273Y-25560580D01*
X24591141Y-26102833D01*
X24730751Y-26364455D01*
X24847269Y-26552562D01*
X24916643Y-26628544D01*
X24918719Y-26628698D01*
X25011226Y-26558219D01*
X25161013Y-26377292D01*
X25342071Y-26122897D01*
X25528386Y-25832019D01*
X25693949Y-25541640D01*
X25723504Y-25484465D01*
X25994368Y-24840822D01*
X26224155Y-24074362D01*
X26400019Y-23229232D01*
X26424375Y-23076000D01*
X26483576Y-22616399D01*
X26523573Y-22131641D01*
X26543503Y-21607203D01*
X26542502Y-21028563D01*
X26519708Y-20381197D01*
X26474257Y-19650584D01*
X26405287Y-18822200D01*
X26311932Y-17881524D01*
X26193332Y-16814033D01*
X26048622Y-15605204D01*
X25918611Y-14567000D01*
X25844194Y-13963707D01*
X25781003Y-13416041D01*
X25731253Y-12946234D01*
X25697154Y-12576517D01*
X25680922Y-12329122D01*
X25684770Y-12226282D01*
X25685492Y-12225368D01*
X25796733Y-12167254D01*
X26004606Y-12089796D01*
X26081667Y-12065009D01*
X26269007Y-12033575D01*
X26603637Y-12005213D01*
X27063538Y-11980172D01*
X27626691Y-11958701D01*
X28271076Y-11941049D01*
X28974674Y-11927465D01*
X29715465Y-11918196D01*
X30471430Y-11913492D01*
X31220549Y-11913601D01*
X31940804Y-11918771D01*
X32610174Y-11929253D01*
X33206641Y-11945293D01*
X33708184Y-11967141D01*
X33870080Y-11977070D01*
X35489477Y-12147607D01*
X37195194Y-12442742D01*
X38965096Y-12857031D01*
X40777048Y-13385030D01*
X42608912Y-14021296D01*
X43353667Y-14309435D01*
X44034749Y-14596573D01*
X44787762Y-14941262D01*
X45583862Y-15328121D01*
X46394207Y-15741770D01*
X47189954Y-16166827D01*
X47942260Y-16587914D01*
X48622282Y-16989649D01*
X49201177Y-17356651D01*
X49621410Y-17651723D01*
X49822586Y-17808884D01*
X49962572Y-17948300D01*
X50045324Y-18099821D01*
X50074796Y-18293297D01*
X50054942Y-18558581D01*
X49989718Y-18925522D01*
X49883079Y-19423972D01*
X49866317Y-19500271D01*
X49742256Y-20210282D01*
X49651462Y-21030611D01*
X49596567Y-21905038D01*
X49580202Y-22777341D01*
X49605000Y-23591299D01*
X49650345Y-24114127D01*
X49818543Y-25036477D01*
X50104855Y-26020950D01*
X50492465Y-27027355D01*
X50964557Y-28015503D01*
X51504317Y-28945204D01*
X51929493Y-29561322D01*
X52182589Y-29878026D01*
X52524112Y-30273520D01*
X52919849Y-30709830D01*
X53335588Y-31148984D01*
X53619738Y-31437305D01*
X54747606Y-32559611D01*
X54655040Y-32918972D01*
X54573112Y-33221942D01*
X54489059Y-33511000D01*
X54474495Y-33558073D01*
X54386516Y-33837812D01*
X52595425Y-32075955D01*
X51852630Y-31352835D01*
X51204080Y-30739074D01*
X50630686Y-30218217D01*
X50113358Y-29773809D01*
X49633007Y-29389396D01*
X49170544Y-29048523D01*
X48757562Y-28767799D01*
X48150125Y-28369832D01*
X48096036Y-27564416D01*
X48015229Y-26565408D01*
X47911747Y-25699739D01*
X47776916Y-24931996D01*
X47602061Y-24226764D01*
X47378507Y-23548631D01*
X47097582Y-22862182D01*
X46779685Y-22190214D01*
X46441843Y-21561851D01*
X46073275Y-20985624D01*
X45645289Y-20423310D01*
X45129195Y-19836685D01*
X44612629Y-19303202D01*
X43605342Y-18405867D01*
X42525692Y-17652881D01*
X41384299Y-17050082D01*
X40191784Y-16603306D01*
X39289667Y-16377960D01*
X38850209Y-16317692D01*
X38295069Y-16281428D01*
X37674064Y-16268644D01*
X37037013Y-16278816D01*
X36433730Y-16311420D01*
X35914035Y-16365933D01*
X35628467Y-16416442D01*
X34696344Y-16680177D01*
X33834230Y-17044127D01*
X33011075Y-17525573D01*
X32195829Y-18141799D01*
X31642193Y-18635275D01*
X31056862Y-19220615D01*
X30584914Y-19778165D01*
X30189421Y-20358105D01*
X29833451Y-21010614D01*
X29719768Y-21247404D01*
X29243540Y-22464948D01*
X28927103Y-23737566D01*
X28770445Y-25065487D01*
X28773555Y-26448938D01*
X28936417Y-27888150D01*
X29259021Y-29383351D01*
X29263385Y-29399834D01*
X29449451Y-30147967D01*
X29569614Y-30770208D01*
X29620561Y-31298008D01*
X29598980Y-31762816D01*
X29501557Y-32196084D01*
X29324980Y-32629260D01*
X29065935Y-33093795D01*
X28836750Y-33449994D01*
X28515489Y-33880916D01*
X28094540Y-34369901D01*
X27598288Y-34894771D01*
X27051120Y-35433342D01*
X26477421Y-35963435D01*
X25901577Y-36462869D01*
X25347973Y-36909461D01*
X24840996Y-37281032D01*
X24405031Y-37555400D01*
X24219000Y-37650249D01*
X23940264Y-37748402D01*
X23631613Y-37792765D01*
X23262557Y-37781974D01*
X22802601Y-37714665D01*
X22221254Y-37589475D01*
X22075646Y-37554422D01*
X20560375Y-37224760D01*
X19161520Y-37006244D01*
X17867569Y-36899083D01*
X16667008Y-36903484D01*
X15548324Y-37019654D01*
X14500003Y-37247803D01*
X13510532Y-37588136D01*
X13218998Y-37714159D01*
X12470771Y-38121891D01*
X11708727Y-38661810D01*
X10964583Y-39303003D01*
X10270055Y-40014561D01*
X9656858Y-40765571D01*
X9156709Y-41525123D01*
X8989432Y-41836348D01*
X8617187Y-42736552D01*
X8340910Y-43730620D01*
X8169383Y-44767254D01*
X8111386Y-45795157D01*
X8162839Y-46664919D01*
X8370322Y-47862165D01*
X8692350Y-48967849D01*
X9138718Y-49999469D01*
X9719222Y-50974521D01*
X10443656Y-51910504D01*
X11321817Y-52824914D01*
X11907625Y-53354160D01*
X12995249Y-54202023D01*
X14104739Y-54885507D01*
X15246263Y-55409159D01*
X16429990Y-55777531D01*
X17666088Y-55995171D01*
X17855102Y-56014949D01*
X18541068Y-56082431D01*
X19078435Y-56140053D01*
X19487441Y-56190902D01*
X19788325Y-56238067D01*
X20001325Y-56284635D01*
X20146679Y-56333695D01*
X20228183Y-56377023D01*
X20353756Y-56495576D01*
X20547126Y-56720783D01*
X20780923Y-57019236D01*
X21004691Y-57324841D01*
X21854869Y-58440148D01*
X22835251Y-59568437D01*
X23959295Y-60724855D01*
X24416089Y-61164587D01*
X24799512Y-61530535D01*
X25137303Y-61858513D01*
X25411305Y-62130429D01*
X25603361Y-62328191D01*
X25695314Y-62433706D01*
X25700667Y-62444597D01*
X25626651Y-62496235D01*
X25438495Y-62570482D01*
X25187032Y-62651774D01*
X24923097Y-62724549D01*
X24697522Y-62773243D01*
X24589887Y-62784667D01*
X24458564Y-62726609D01*
X24278017Y-62580717D01*
X24207305Y-62509500D01*
X24038127Y-62318679D01*
X23804077Y-62042581D01*
X23545245Y-61728805D01*
X23435969Y-61593723D01*
X22711161Y-60813217D01*
X21844311Y-60090322D01*
X20856956Y-59438877D01*
X19770631Y-58872717D01*
X18606874Y-58405681D01*
X18331595Y-58314082D01*
X17723458Y-58128464D01*
X17181496Y-57987150D01*
X16665111Y-57884553D01*
X16133708Y-57815085D01*
X15546687Y-57773156D01*
X14863454Y-57753179D01*
X14228333Y-57749244D01*
X13615458Y-57751015D01*
X13136699Y-57757787D01*
X12756848Y-57772529D01*
X12440701Y-57798209D01*
X12153050Y-57837798D01*
X11858691Y-57894265D01*
X11522417Y-57970579D01*
X11477240Y-57981292D01*
X10964352Y-58099014D01*
X10585537Y-58171757D01*
X10311612Y-58199497D01*
X10113391Y-58182208D01*
X9961692Y-58119863D01*
X9827329Y-58012439D01*
X9794307Y-57979833D01*
X9553891Y-57693926D01*
X9258492Y-57273779D01*
X8919696Y-56740854D01*
X8549091Y-56116608D01*
X8158267Y-55422502D01*
X7758810Y-54679995D01*
X7362309Y-53910547D01*
X6980352Y-53135615D01*
X6624527Y-52376661D01*
X6306421Y-51655144D01*
X6079568Y-51100667D01*
X5397621Y-49227549D01*
X4836028Y-47386577D01*
X4391564Y-45554346D01*
X4061003Y-43707453D01*
X3841119Y-41822494D01*
X3728686Y-39876067D01*
X3720478Y-37844767D01*
X3813270Y-35705192D01*
X3862214Y-35014000D01*
X3978061Y-33746314D01*
X4121803Y-32623312D01*
X4298542Y-31621885D01*
X4513381Y-30718925D01*
X4771424Y-29891323D01*
X5077774Y-29115970D01*
X5245053Y-28752302D01*
X5409041Y-28381266D01*
X5479307Y-28142984D01*
X5462405Y-28034539D01*
X5390141Y-27992955D01*
X5296876Y-28010961D01*
X5167662Y-28102452D01*
X4987551Y-28281325D01*
X4741597Y-28561478D01*
X4414852Y-28956806D01*
X4245912Y-29165518D01*
X3908930Y-29576326D01*
X3660420Y-29861378D01*
X3489286Y-30031881D01*
X3384433Y-30099047D01*
X3338532Y-30082217D01*
X3289070Y-29933750D01*
X3221648Y-29646098D01*
X3141292Y-29247843D01*
X3053023Y-28767568D01*
X2961864Y-28233854D01*
X2872838Y-27675284D01*
X2790969Y-27120438D01*
X2721279Y-26597900D01*
X2709874Y-26505000D01*
X2660169Y-25950424D01*
X2625779Y-25260729D01*
X2606298Y-24469399D01*
X2601323Y-23609917D01*
X2610446Y-22715767D01*
X2633263Y-21820433D01*
X2669370Y-20957396D01*
X2718361Y-20160142D01*
X2779830Y-19462154D01*
X2796954Y-19308333D01*
X3086625Y-17382830D01*
X3494894Y-15525097D01*
X4017050Y-13744418D01*
X4648384Y-12050078D01*
X5384186Y-10451363D01*
X6219745Y-8957557D01*
X7150352Y-7577945D01*
X8171296Y-6321813D01*
X9277869Y-5198444D01*
X10444352Y-4232695D01*
X11365749Y-3615744D01*
X12259828Y-3158250D01*
X13141749Y-2855751D01*
X14026674Y-2703785D01*
X14929764Y-2697891D01*
X15456000Y-2757798D01*
G36*
X71670939Y-47546960D02*
X71806845Y-47781814D01*
X71996977Y-48122930D01*
X72229600Y-48548211D01*
X72492983Y-49035560D01*
X72775392Y-49562878D01*
X73065095Y-50108067D01*
X73350357Y-50649030D01*
X73619447Y-51163668D01*
X73860632Y-51629884D01*
X74062177Y-52025579D01*
X74212351Y-52328657D01*
X74299420Y-52517018D01*
X74308615Y-52540000D01*
X74382614Y-52748989D01*
X74434864Y-52944724D01*
X74460064Y-53141353D01*
X74452916Y-53353024D01*
X74408118Y-53593889D01*
X74320370Y-53878095D01*
X74184374Y-54219792D01*
X73994828Y-54633129D01*
X73746432Y-55132255D01*
X73433887Y-55731320D01*
X73051893Y-56444472D01*
X72595149Y-57285861D01*
X72389875Y-57662333D01*
X71889433Y-58575654D01*
X71464860Y-59342031D01*
X71114169Y-59964896D01*
X70835375Y-60447679D01*
X70626491Y-60793811D01*
X70485532Y-61006724D01*
X70410510Y-61089846D01*
X70404702Y-61091333D01*
X70302632Y-61044897D01*
X70218321Y-60985500D01*
X70159617Y-60926776D01*
X70045191Y-60797798D01*
X69869688Y-60592068D01*
X69627756Y-60303089D01*
X69314039Y-59924366D01*
X68923184Y-59449401D01*
X68449837Y-58871698D01*
X67888642Y-58184761D01*
X67234247Y-57382092D01*
X66481298Y-56457196D01*
X66097217Y-55985031D01*
X65559397Y-55323729D01*
X68550933Y-51351166D01*
X69093248Y-50633313D01*
X69605869Y-49959226D01*
X70079735Y-49340524D01*
X70505783Y-48788827D01*
X70874950Y-48315755D01*
X71178174Y-47932927D01*
X71406392Y-47651964D01*
X71550541Y-47484484D01*
X71600992Y-47440468D01*
X71670939Y-47546960D01*
X71670939Y-47546960D01*
G37*
X71670939Y-47546960D02*
X71806845Y-47781814D01*
X71996977Y-48122930D01*
X72229600Y-48548211D01*
X72492983Y-49035560D01*
X72775392Y-49562878D01*
X73065095Y-50108067D01*
X73350357Y-50649030D01*
X73619447Y-51163668D01*
X73860632Y-51629884D01*
X74062177Y-52025579D01*
X74212351Y-52328657D01*
X74299420Y-52517018D01*
X74308615Y-52540000D01*
X74382614Y-52748989D01*
X74434864Y-52944724D01*
X74460064Y-53141353D01*
X74452916Y-53353024D01*
X74408118Y-53593889D01*
X74320370Y-53878095D01*
X74184374Y-54219792D01*
X73994828Y-54633129D01*
X73746432Y-55132255D01*
X73433887Y-55731320D01*
X73051893Y-56444472D01*
X72595149Y-57285861D01*
X72389875Y-57662333D01*
X71889433Y-58575654D01*
X71464860Y-59342031D01*
X71114169Y-59964896D01*
X70835375Y-60447679D01*
X70626491Y-60793811D01*
X70485532Y-61006724D01*
X70410510Y-61089846D01*
X70404702Y-61091333D01*
X70302632Y-61044897D01*
X70218321Y-60985500D01*
X70159617Y-60926776D01*
X70045191Y-60797798D01*
X69869688Y-60592068D01*
X69627756Y-60303089D01*
X69314039Y-59924366D01*
X68923184Y-59449401D01*
X68449837Y-58871698D01*
X67888642Y-58184761D01*
X67234247Y-57382092D01*
X66481298Y-56457196D01*
X66097217Y-55985031D01*
X65559397Y-55323729D01*
X68550933Y-51351166D01*
X69093248Y-50633313D01*
X69605869Y-49959226D01*
X70079735Y-49340524D01*
X70505783Y-48788827D01*
X70874950Y-48315755D01*
X71178174Y-47932927D01*
X71406392Y-47651964D01*
X71550541Y-47484484D01*
X71600992Y-47440468D01*
X71670939Y-47546960D01*
G36*
X76927571Y-49551312D02*
X76987520Y-49684990D01*
X77066955Y-49967684D01*
X77162425Y-50380637D01*
X77270481Y-50905091D01*
X77387673Y-51522290D01*
X77510551Y-52213476D01*
X77635665Y-52959894D01*
X77759564Y-53742784D01*
X77878799Y-54543392D01*
X77982050Y-55284233D01*
X78056793Y-55869585D01*
X78124482Y-56455262D01*
X78183079Y-57017330D01*
X78230547Y-57531857D01*
X78264847Y-57974911D01*
X78283942Y-58322560D01*
X78285794Y-58550871D01*
X78268364Y-58635912D01*
X78267454Y-58636000D01*
X78204490Y-58570945D01*
X78098004Y-58411215D01*
X78079177Y-58379814D01*
X77991598Y-58210186D01*
X77854579Y-57918437D01*
X77677994Y-57527751D01*
X77471715Y-57061311D01*
X77245615Y-56542301D01*
X77009569Y-55993905D01*
X76773449Y-55439308D01*
X76547130Y-54901692D01*
X76340483Y-54404242D01*
X76163383Y-53970141D01*
X76025703Y-53622574D01*
X75937317Y-53384724D01*
X75908000Y-53281629D01*
X75928659Y-53105381D01*
X75985714Y-52815516D01*
X76071781Y-52439047D01*
X76179478Y-52002987D01*
X76301422Y-51534348D01*
X76430230Y-51060143D01*
X76558518Y-50607384D01*
X76678903Y-50203085D01*
X76784002Y-49874256D01*
X76866433Y-49647912D01*
X76918811Y-49551065D01*
X76927571Y-49551312D01*
X76927571Y-49551312D01*
G37*
X76927571Y-49551312D02*
X76987520Y-49684990D01*
X77066955Y-49967684D01*
X77162425Y-50380637D01*
X77270481Y-50905091D01*
X77387673Y-51522290D01*
X77510551Y-52213476D01*
X77635665Y-52959894D01*
X77759564Y-53742784D01*
X77878799Y-54543392D01*
X77982050Y-55284233D01*
X78056793Y-55869585D01*
X78124482Y-56455262D01*
X78183079Y-57017330D01*
X78230547Y-57531857D01*
X78264847Y-57974911D01*
X78283942Y-58322560D01*
X78285794Y-58550871D01*
X78268364Y-58635912D01*
X78267454Y-58636000D01*
X78204490Y-58570945D01*
X78098004Y-58411215D01*
X78079177Y-58379814D01*
X77991598Y-58210186D01*
X77854579Y-57918437D01*
X77677994Y-57527751D01*
X77471715Y-57061311D01*
X77245615Y-56542301D01*
X77009569Y-55993905D01*
X76773449Y-55439308D01*
X76547130Y-54901692D01*
X76340483Y-54404242D01*
X76163383Y-53970141D01*
X76025703Y-53622574D01*
X75937317Y-53384724D01*
X75908000Y-53281629D01*
X75928659Y-53105381D01*
X75985714Y-52815516D01*
X76071781Y-52439047D01*
X76179478Y-52002987D01*
X76301422Y-51534348D01*
X76430230Y-51060143D01*
X76558518Y-50607384D01*
X76678903Y-50203085D01*
X76784002Y-49874256D01*
X76866433Y-49647912D01*
X76918811Y-49551065D01*
X76927571Y-49551312D01*
G36*
X32176130Y-43847976D02*
X32533890Y-43923473D01*
X32646451Y-43953984D01*
X33251318Y-44208594D01*
X33778707Y-44603199D01*
X34221242Y-45123654D01*
X34571548Y-45755812D01*
X34822246Y-46485528D01*
X34965961Y-47298655D01*
X34995317Y-48181047D01*
X34982381Y-48433667D01*
X34938216Y-48882841D01*
X34866828Y-49232140D01*
X34751724Y-49550679D01*
X34678020Y-49709040D01*
X34493661Y-50016572D01*
X34211199Y-50402815D01*
X33854666Y-50842010D01*
X33448093Y-51308397D01*
X33015511Y-51776218D01*
X32580951Y-52219714D01*
X32168444Y-52613127D01*
X31802021Y-52930697D01*
X31505713Y-53146665D01*
X31431221Y-53189285D01*
X31225147Y-53252508D01*
X30899257Y-53305299D01*
X30502924Y-53344196D01*
X30085523Y-53365735D01*
X29696426Y-53366453D01*
X29385008Y-53342888D01*
X29341333Y-53335858D01*
X28495482Y-53122019D01*
X27705018Y-52788941D01*
X26947477Y-52323566D01*
X26200393Y-51712836D01*
X25694858Y-51216187D01*
X24976623Y-50367089D01*
X24395047Y-49469130D01*
X23993258Y-48608473D01*
X27700258Y-48608473D01*
X27776870Y-49202815D01*
X28005732Y-49770410D01*
X28393294Y-50331268D01*
X28609850Y-50574826D01*
X29154096Y-51104846D01*
X29658761Y-51492091D01*
X30150081Y-51749805D01*
X30654293Y-51891233D01*
X31197632Y-51929618D01*
X31288667Y-51927133D01*
X31795066Y-51877033D01*
X32196238Y-51763952D01*
X32313121Y-51711776D01*
X32618499Y-51528443D01*
X32924220Y-51293647D01*
X33019917Y-51205101D01*
X33411102Y-50702304D01*
X33663858Y-50128154D01*
X33779558Y-49506843D01*
X33759575Y-48862566D01*
X33605282Y-48219516D01*
X33318051Y-47601886D01*
X32899257Y-47033870D01*
X32775855Y-46904145D01*
X32238044Y-46466626D01*
X31637276Y-46150361D01*
X30999830Y-45957069D01*
X30351984Y-45888469D01*
X29720016Y-45946280D01*
X29130206Y-46132221D01*
X28608832Y-46448010D01*
X28417311Y-46619048D01*
X28167179Y-46909039D01*
X27986245Y-47227788D01*
X27849206Y-47627960D01*
X27769446Y-47967373D01*
X27700258Y-48608473D01*
X23993258Y-48608473D01*
X23963143Y-48543966D01*
X23806329Y-48074296D01*
X23749489Y-47880823D01*
X23724128Y-47741243D01*
X23751659Y-47637127D01*
X23853494Y-47550049D01*
X24051046Y-47461583D01*
X24365728Y-47353302D01*
X24811667Y-47209140D01*
X26147462Y-46727645D01*
X27403373Y-46169510D01*
X28633193Y-45508653D01*
X29737662Y-44820693D01*
X30317293Y-44447589D01*
X30790710Y-44169882D01*
X31185609Y-43979318D01*
X31529683Y-43867647D01*
X31850625Y-43826617D01*
X32176130Y-43847976D01*
X32176130Y-43847976D01*
G37*
X32176130Y-43847976D02*
X32533890Y-43923473D01*
X32646451Y-43953984D01*
X33251318Y-44208594D01*
X33778707Y-44603199D01*
X34221242Y-45123654D01*
X34571548Y-45755812D01*
X34822246Y-46485528D01*
X34965961Y-47298655D01*
X34995317Y-48181047D01*
X34982381Y-48433667D01*
X34938216Y-48882841D01*
X34866828Y-49232140D01*
X34751724Y-49550679D01*
X34678020Y-49709040D01*
X34493661Y-50016572D01*
X34211199Y-50402815D01*
X33854666Y-50842010D01*
X33448093Y-51308397D01*
X33015511Y-51776218D01*
X32580951Y-52219714D01*
X32168444Y-52613127D01*
X31802021Y-52930697D01*
X31505713Y-53146665D01*
X31431221Y-53189285D01*
X31225147Y-53252508D01*
X30899257Y-53305299D01*
X30502924Y-53344196D01*
X30085523Y-53365735D01*
X29696426Y-53366453D01*
X29385008Y-53342888D01*
X29341333Y-53335858D01*
X28495482Y-53122019D01*
X27705018Y-52788941D01*
X26947477Y-52323566D01*
X26200393Y-51712836D01*
X25694858Y-51216187D01*
X24976623Y-50367089D01*
X24395047Y-49469130D01*
X23993258Y-48608473D01*
X27700258Y-48608473D01*
X27776870Y-49202815D01*
X28005732Y-49770410D01*
X28393294Y-50331268D01*
X28609850Y-50574826D01*
X29154096Y-51104846D01*
X29658761Y-51492091D01*
X30150081Y-51749805D01*
X30654293Y-51891233D01*
X31197632Y-51929618D01*
X31288667Y-51927133D01*
X31795066Y-51877033D01*
X32196238Y-51763952D01*
X32313121Y-51711776D01*
X32618499Y-51528443D01*
X32924220Y-51293647D01*
X33019917Y-51205101D01*
X33411102Y-50702304D01*
X33663858Y-50128154D01*
X33779558Y-49506843D01*
X33759575Y-48862566D01*
X33605282Y-48219516D01*
X33318051Y-47601886D01*
X32899257Y-47033870D01*
X32775855Y-46904145D01*
X32238044Y-46466626D01*
X31637276Y-46150361D01*
X30999830Y-45957069D01*
X30351984Y-45888469D01*
X29720016Y-45946280D01*
X29130206Y-46132221D01*
X28608832Y-46448010D01*
X28417311Y-46619048D01*
X28167179Y-46909039D01*
X27986245Y-47227788D01*
X27849206Y-47627960D01*
X27769446Y-47967373D01*
X27700258Y-48608473D01*
X23993258Y-48608473D01*
X23963143Y-48543966D01*
X23806329Y-48074296D01*
X23749489Y-47880823D01*
X23724128Y-47741243D01*
X23751659Y-47637127D01*
X23853494Y-47550049D01*
X24051046Y-47461583D01*
X24365728Y-47353302D01*
X24811667Y-47209140D01*
X26147462Y-46727645D01*
X27403373Y-46169510D01*
X28633193Y-45508653D01*
X29737662Y-44820693D01*
X30317293Y-44447589D01*
X30790710Y-44169882D01*
X31185609Y-43979318D01*
X31529683Y-43867647D01*
X31850625Y-43826617D01*
X32176130Y-43847976D01*
G36*
X74682062Y-41102853D02*
X74759470Y-41318093D01*
X74869322Y-41647159D01*
X75004072Y-42065702D01*
X75156172Y-42549372D01*
X75318075Y-43073822D01*
X75482235Y-43614703D01*
X75641105Y-44147665D01*
X75787138Y-44648359D01*
X75912786Y-45092437D01*
X75969738Y-45301000D01*
X76052085Y-45625674D01*
X76106993Y-45905075D01*
X76138257Y-46184985D01*
X76149672Y-46511188D01*
X76145030Y-46929468D01*
X76134613Y-47290667D01*
X76104972Y-47921383D01*
X76056852Y-48441525D01*
X75983053Y-48909477D01*
X75876675Y-49382441D01*
X75745229Y-49879883D01*
X75607543Y-50361421D01*
X75472446Y-50800096D01*
X75348766Y-51168946D01*
X75245329Y-51441012D01*
X75170965Y-51589332D01*
X75147728Y-51608667D01*
X75088420Y-51539429D01*
X74955175Y-51345277D01*
X74761085Y-51046552D01*
X74519247Y-50663595D01*
X74242753Y-50216748D01*
X74079446Y-49949129D01*
X73624499Y-49198642D01*
X73250449Y-48578069D01*
X72949287Y-48073209D01*
X72713000Y-47669863D01*
X72533578Y-47353829D01*
X72403010Y-47110906D01*
X72313286Y-46926894D01*
X72256395Y-46787593D01*
X72224327Y-46678800D01*
X72218338Y-46649933D01*
X72213381Y-46462406D01*
X72266846Y-46211667D01*
X72387366Y-45865127D01*
X72500004Y-45586785D01*
X72646411Y-45246018D01*
X72833660Y-44823963D01*
X73051260Y-44342933D01*
X73288719Y-43825240D01*
X73535546Y-43293196D01*
X73781249Y-42769113D01*
X74015336Y-42275303D01*
X74227317Y-41834079D01*
X74406700Y-41467752D01*
X74542994Y-41198634D01*
X74625706Y-41049039D01*
X74644645Y-41025788D01*
X74682062Y-41102853D01*
X74682062Y-41102853D01*
G37*
X74682062Y-41102853D02*
X74759470Y-41318093D01*
X74869322Y-41647159D01*
X75004072Y-42065702D01*
X75156172Y-42549372D01*
X75318075Y-43073822D01*
X75482235Y-43614703D01*
X75641105Y-44147665D01*
X75787138Y-44648359D01*
X75912786Y-45092437D01*
X75969738Y-45301000D01*
X76052085Y-45625674D01*
X76106993Y-45905075D01*
X76138257Y-46184985D01*
X76149672Y-46511188D01*
X76145030Y-46929468D01*
X76134613Y-47290667D01*
X76104972Y-47921383D01*
X76056852Y-48441525D01*
X75983053Y-48909477D01*
X75876675Y-49382441D01*
X75745229Y-49879883D01*
X75607543Y-50361421D01*
X75472446Y-50800096D01*
X75348766Y-51168946D01*
X75245329Y-51441012D01*
X75170965Y-51589332D01*
X75147728Y-51608667D01*
X75088420Y-51539429D01*
X74955175Y-51345277D01*
X74761085Y-51046552D01*
X74519247Y-50663595D01*
X74242753Y-50216748D01*
X74079446Y-49949129D01*
X73624499Y-49198642D01*
X73250449Y-48578069D01*
X72949287Y-48073209D01*
X72713000Y-47669863D01*
X72533578Y-47353829D01*
X72403010Y-47110906D01*
X72313286Y-46926894D01*
X72256395Y-46787593D01*
X72224327Y-46678800D01*
X72218338Y-46649933D01*
X72213381Y-46462406D01*
X72266846Y-46211667D01*
X72387366Y-45865127D01*
X72500004Y-45586785D01*
X72646411Y-45246018D01*
X72833660Y-44823963D01*
X73051260Y-44342933D01*
X73288719Y-43825240D01*
X73535546Y-43293196D01*
X73781249Y-42769113D01*
X74015336Y-42275303D01*
X74227317Y-41834079D01*
X74406700Y-41467752D01*
X74542994Y-41198634D01*
X74625706Y-41049039D01*
X74644645Y-41025788D01*
X74682062Y-41102853D01*
G36*
X23136552Y-49310674D02*
X23296475Y-49786050D01*
X23430555Y-50201300D01*
X23531403Y-50532096D01*
X23591629Y-50754113D01*
X23603843Y-50843024D01*
X23602219Y-50843663D01*
X23522544Y-50792182D01*
X23328460Y-50648505D01*
X23037707Y-50426312D01*
X22668026Y-50139286D01*
X22237157Y-49801109D01*
X21762839Y-49425463D01*
X21745980Y-49412053D01*
X21175735Y-48954771D01*
X20733313Y-48591440D01*
X20410706Y-48314899D01*
X20199904Y-48117986D01*
X20092901Y-47993539D01*
X20081688Y-47934397D01*
X20088928Y-47930247D01*
X20220863Y-47907436D01*
X20486979Y-47881637D01*
X20852218Y-47855601D01*
X21281527Y-47832079D01*
X21418948Y-47825864D01*
X22610333Y-47774681D01*
X23136552Y-49310674D01*
X23136552Y-49310674D01*
G37*
X23136552Y-49310674D02*
X23296475Y-49786050D01*
X23430555Y-50201300D01*
X23531403Y-50532096D01*
X23591629Y-50754113D01*
X23603843Y-50843024D01*
X23602219Y-50843663D01*
X23522544Y-50792182D01*
X23328460Y-50648505D01*
X23037707Y-50426312D01*
X22668026Y-50139286D01*
X22237157Y-49801109D01*
X21762839Y-49425463D01*
X21745980Y-49412053D01*
X21175735Y-48954771D01*
X20733313Y-48591440D01*
X20410706Y-48314899D01*
X20199904Y-48117986D01*
X20092901Y-47993539D01*
X20081688Y-47934397D01*
X20088928Y-47930247D01*
X20220863Y-47907436D01*
X20486979Y-47881637D01*
X20852218Y-47855601D01*
X21281527Y-47832079D01*
X21418948Y-47825864D01*
X22610333Y-47774681D01*
X23136552Y-49310674D01*
G36*
X34291301Y-41683189D02*
X34797128Y-42505406D01*
X35357575Y-43178463D01*
X35987731Y-43717855D01*
X36665000Y-44120733D01*
X37267562Y-44380491D01*
X37894783Y-44572044D01*
X38586643Y-44704059D01*
X39383123Y-44785199D01*
X39844325Y-44809859D01*
X41076317Y-44859747D01*
X41051778Y-45588373D01*
X41039335Y-45943309D01*
X41022159Y-46413407D01*
X41002260Y-46944630D01*
X40981645Y-47482942D01*
X40975546Y-47639669D01*
X40923853Y-48962338D01*
X40403093Y-49012354D01*
X40132664Y-49033199D01*
X39737808Y-49057009D01*
X39263345Y-49081384D01*
X38754098Y-49103926D01*
X38527667Y-49112752D01*
X38053183Y-49132176D01*
X37628034Y-49152893D01*
X37285710Y-49173016D01*
X37059701Y-49190661D01*
X36995080Y-49199023D01*
X36922696Y-49205724D01*
X36871142Y-49174423D01*
X36834769Y-49079256D01*
X36807931Y-48894357D01*
X36784981Y-48593863D01*
X36760271Y-48151909D01*
X36758309Y-48114622D01*
X36660326Y-47011081D01*
X36484054Y-46045255D01*
X36220354Y-45200291D01*
X35860090Y-44459335D01*
X35394123Y-43805533D01*
X34813316Y-43222030D01*
X34108532Y-42691974D01*
X33671462Y-42421030D01*
X33133258Y-42107294D01*
X33582235Y-41652669D01*
X34031213Y-41198044D01*
X34291301Y-41683189D01*
X34291301Y-41683189D01*
G37*
X34291301Y-41683189D02*
X34797128Y-42505406D01*
X35357575Y-43178463D01*
X35987731Y-43717855D01*
X36665000Y-44120733D01*
X37267562Y-44380491D01*
X37894783Y-44572044D01*
X38586643Y-44704059D01*
X39383123Y-44785199D01*
X39844325Y-44809859D01*
X41076317Y-44859747D01*
X41051778Y-45588373D01*
X41039335Y-45943309D01*
X41022159Y-46413407D01*
X41002260Y-46944630D01*
X40981645Y-47482942D01*
X40975546Y-47639669D01*
X40923853Y-48962338D01*
X40403093Y-49012354D01*
X40132664Y-49033199D01*
X39737808Y-49057009D01*
X39263345Y-49081384D01*
X38754098Y-49103926D01*
X38527667Y-49112752D01*
X38053183Y-49132176D01*
X37628034Y-49152893D01*
X37285710Y-49173016D01*
X37059701Y-49190661D01*
X36995080Y-49199023D01*
X36922696Y-49205724D01*
X36871142Y-49174423D01*
X36834769Y-49079256D01*
X36807931Y-48894357D01*
X36784981Y-48593863D01*
X36760271Y-48151909D01*
X36758309Y-48114622D01*
X36660326Y-47011081D01*
X36484054Y-46045255D01*
X36220354Y-45200291D01*
X35860090Y-44459335D01*
X35394123Y-43805533D01*
X34813316Y-43222030D01*
X34108532Y-42691974D01*
X33671462Y-42421030D01*
X33133258Y-42107294D01*
X33582235Y-41652669D01*
X34031213Y-41198044D01*
X34291301Y-41683189D01*
G36*
X40124551Y-31950262D02*
X40464702Y-32072567D01*
X40918504Y-32276262D01*
X41152840Y-32389582D01*
X41560773Y-32599240D01*
X41895322Y-32799078D01*
X42205161Y-33023953D01*
X42538964Y-33308724D01*
X42882471Y-33628260D01*
X43602140Y-34355031D01*
X44176718Y-35036443D01*
X44616717Y-35693933D01*
X44932647Y-36348937D01*
X45135021Y-37022893D01*
X45234350Y-37737237D01*
X45243917Y-38444162D01*
X45219213Y-38856023D01*
X45166861Y-39197370D01*
X45070383Y-39497612D01*
X44913301Y-39786158D01*
X44679136Y-40092417D01*
X44351412Y-40445797D01*
X43913648Y-40875707D01*
X43844288Y-40942104D01*
X43270832Y-41487417D01*
X42796637Y-41926498D01*
X42399555Y-42271154D01*
X42057437Y-42533192D01*
X41748133Y-42724418D01*
X41449493Y-42856639D01*
X41139369Y-42941662D01*
X40795611Y-42991294D01*
X40396070Y-43017340D01*
X39924667Y-43031466D01*
X39402407Y-43041118D01*
X39014371Y-43039961D01*
X38725645Y-43025306D01*
X38501315Y-42994465D01*
X38306466Y-42944752D01*
X38165592Y-42896047D01*
X37695757Y-42694436D01*
X37280916Y-42449376D01*
X36863401Y-42123529D01*
X36589639Y-41875611D01*
X36155625Y-41392247D01*
X35857891Y-40894467D01*
X35708146Y-40404154D01*
X35692160Y-40198151D01*
X35714651Y-39941084D01*
X35789070Y-39648105D01*
X35924153Y-39300018D01*
X36128637Y-38877626D01*
X36411256Y-38361733D01*
X36428327Y-38332691D01*
X37792343Y-38332691D01*
X37894316Y-39011054D01*
X37971975Y-39273564D01*
X38280327Y-39995801D01*
X38687832Y-40630988D01*
X39175817Y-41158594D01*
X39725611Y-41558093D01*
X40263333Y-41792826D01*
X40614850Y-41854463D01*
X41062239Y-41869572D01*
X41539503Y-41841341D01*
X41980641Y-41772955D01*
X42248863Y-41696943D01*
X42729376Y-41439556D01*
X43173876Y-41058517D01*
X43533975Y-40599053D01*
X43652611Y-40384939D01*
X43741822Y-40179323D01*
X43793888Y-39982869D01*
X43814920Y-39745599D01*
X43811025Y-39417536D01*
X43800295Y-39176756D01*
X43743040Y-38582578D01*
X43622994Y-38100774D01*
X43417384Y-37679179D01*
X43103437Y-37265630D01*
X42846939Y-36992952D01*
X42261392Y-36493956D01*
X41639027Y-36128930D01*
X40999290Y-35901790D01*
X40361624Y-35816450D01*
X39745473Y-35876824D01*
X39170283Y-36086828D01*
X38960615Y-36210558D01*
X38434588Y-36644754D01*
X38063712Y-37145721D01*
X37849219Y-37709640D01*
X37792343Y-38332691D01*
X36428327Y-38332691D01*
X36780747Y-37733143D01*
X36914739Y-37511667D01*
X37401081Y-36692155D01*
X37810965Y-35951778D01*
X38171530Y-35235728D01*
X38509917Y-34489197D01*
X38853267Y-33657375D01*
X38969098Y-33363000D01*
X39141458Y-32933951D01*
X39304382Y-32552191D01*
X39443293Y-32250201D01*
X39543613Y-32060464D01*
X39571059Y-32021697D01*
X39699224Y-31929826D01*
X39876556Y-31904348D01*
X40124551Y-31950262D01*
X40124551Y-31950262D01*
G37*
X40124551Y-31950262D02*
X40464702Y-32072567D01*
X40918504Y-32276262D01*
X41152840Y-32389582D01*
X41560773Y-32599240D01*
X41895322Y-32799078D01*
X42205161Y-33023953D01*
X42538964Y-33308724D01*
X42882471Y-33628260D01*
X43602140Y-34355031D01*
X44176718Y-35036443D01*
X44616717Y-35693933D01*
X44932647Y-36348937D01*
X45135021Y-37022893D01*
X45234350Y-37737237D01*
X45243917Y-38444162D01*
X45219213Y-38856023D01*
X45166861Y-39197370D01*
X45070383Y-39497612D01*
X44913301Y-39786158D01*
X44679136Y-40092417D01*
X44351412Y-40445797D01*
X43913648Y-40875707D01*
X43844288Y-40942104D01*
X43270832Y-41487417D01*
X42796637Y-41926498D01*
X42399555Y-42271154D01*
X42057437Y-42533192D01*
X41748133Y-42724418D01*
X41449493Y-42856639D01*
X41139369Y-42941662D01*
X40795611Y-42991294D01*
X40396070Y-43017340D01*
X39924667Y-43031466D01*
X39402407Y-43041118D01*
X39014371Y-43039961D01*
X38725645Y-43025306D01*
X38501315Y-42994465D01*
X38306466Y-42944752D01*
X38165592Y-42896047D01*
X37695757Y-42694436D01*
X37280916Y-42449376D01*
X36863401Y-42123529D01*
X36589639Y-41875611D01*
X36155625Y-41392247D01*
X35857891Y-40894467D01*
X35708146Y-40404154D01*
X35692160Y-40198151D01*
X35714651Y-39941084D01*
X35789070Y-39648105D01*
X35924153Y-39300018D01*
X36128637Y-38877626D01*
X36411256Y-38361733D01*
X36428327Y-38332691D01*
X37792343Y-38332691D01*
X37894316Y-39011054D01*
X37971975Y-39273564D01*
X38280327Y-39995801D01*
X38687832Y-40630988D01*
X39175817Y-41158594D01*
X39725611Y-41558093D01*
X40263333Y-41792826D01*
X40614850Y-41854463D01*
X41062239Y-41869572D01*
X41539503Y-41841341D01*
X41980641Y-41772955D01*
X42248863Y-41696943D01*
X42729376Y-41439556D01*
X43173876Y-41058517D01*
X43533975Y-40599053D01*
X43652611Y-40384939D01*
X43741822Y-40179323D01*
X43793888Y-39982869D01*
X43814920Y-39745599D01*
X43811025Y-39417536D01*
X43800295Y-39176756D01*
X43743040Y-38582578D01*
X43622994Y-38100774D01*
X43417384Y-37679179D01*
X43103437Y-37265630D01*
X42846939Y-36992952D01*
X42261392Y-36493956D01*
X41639027Y-36128930D01*
X40999290Y-35901790D01*
X40361624Y-35816450D01*
X39745473Y-35876824D01*
X39170283Y-36086828D01*
X38960615Y-36210558D01*
X38434588Y-36644754D01*
X38063712Y-37145721D01*
X37849219Y-37709640D01*
X37792343Y-38332691D01*
X36428327Y-38332691D01*
X36780747Y-37733143D01*
X36914739Y-37511667D01*
X37401081Y-36692155D01*
X37810965Y-35951778D01*
X38171530Y-35235728D01*
X38509917Y-34489197D01*
X38853267Y-33657375D01*
X38969098Y-33363000D01*
X39141458Y-32933951D01*
X39304382Y-32552191D01*
X39443293Y-32250201D01*
X39543613Y-32060464D01*
X39571059Y-32021697D01*
X39699224Y-31929826D01*
X39876556Y-31904348D01*
X40124551Y-31950262D01*
G36*
X41274081Y-29830696D02*
X41721170Y-30394156D01*
X42073737Y-30838746D01*
X42342293Y-31178421D01*
X42537348Y-31427133D01*
X42669414Y-31598838D01*
X42749001Y-31707488D01*
X42786620Y-31767037D01*
X42792781Y-31791439D01*
X42777995Y-31794649D01*
X42752772Y-31790618D01*
X42750200Y-31790364D01*
X42639063Y-31761038D01*
X42414427Y-31689530D01*
X42122284Y-31590555D01*
X42084705Y-31577471D01*
X41673776Y-31430350D01*
X41235394Y-31267359D01*
X40803706Y-31101886D01*
X40412863Y-30947316D01*
X40097013Y-30817038D01*
X39890305Y-30724437D01*
X39840601Y-30697758D01*
X39780871Y-30625708D01*
X39746064Y-30481310D01*
X39732751Y-30233813D01*
X39737505Y-29852465D01*
X39739337Y-29789293D01*
X39756927Y-29369937D01*
X39782438Y-28957952D01*
X39811434Y-28620431D01*
X39823403Y-28518363D01*
X39882333Y-28076392D01*
X41274081Y-29830696D01*
X41274081Y-29830696D01*
G37*
X41274081Y-29830696D02*
X41721170Y-30394156D01*
X42073737Y-30838746D01*
X42342293Y-31178421D01*
X42537348Y-31427133D01*
X42669414Y-31598838D01*
X42749001Y-31707488D01*
X42786620Y-31767037D01*
X42792781Y-31791439D01*
X42777995Y-31794649D01*
X42752772Y-31790618D01*
X42750200Y-31790364D01*
X42639063Y-31761038D01*
X42414427Y-31689530D01*
X42122284Y-31590555D01*
X42084705Y-31577471D01*
X41673776Y-31430350D01*
X41235394Y-31267359D01*
X40803706Y-31101886D01*
X40412863Y-30947316D01*
X40097013Y-30817038D01*
X39890305Y-30724437D01*
X39840601Y-30697758D01*
X39780871Y-30625708D01*
X39746064Y-30481310D01*
X39732751Y-30233813D01*
X39737505Y-29852465D01*
X39739337Y-29789293D01*
X39756927Y-29369937D01*
X39782438Y-28957952D01*
X39811434Y-28620431D01*
X39823403Y-28518363D01*
X39882333Y-28076392D01*
X41274081Y-29830696D01*
D10*
G36*
X15868629Y-50000000D02*
X17000000Y-48868629D01*
X18131371Y-50000000D01*
X17000000Y-51131371D01*
X15868629Y-50000000D01*
X15868629Y-50000000D01*
G37*
D12*
X51124973Y-37427641D02*
X51124973Y-37427641D01*
X18796051Y-48203949D02*
X18796051Y-48203949D01*
X49328922Y-39223693D02*
X49328922Y-39223693D01*
X20592102Y-46407898D02*
X20592102Y-46407898D01*
X47532871Y-41019744D02*
X47532871Y-41019744D01*
X22388154Y-44611846D02*
X22388154Y-44611846D01*
X45736820Y-42815795D02*
X45736820Y-42815795D01*
X24184205Y-42815795D02*
X24184205Y-42815795D01*
X43940768Y-44611846D02*
X43940768Y-44611846D01*
X25980256Y-41019744D02*
X25980256Y-41019744D01*
X42144717Y-46407898D02*
X42144717Y-46407898D01*
X27776307Y-39223693D02*
X27776307Y-39223693D01*
X40348666Y-48203949D02*
X40348666Y-48203949D01*
X29572359Y-37427641D02*
X29572359Y-37427641D01*
X38552615Y-50000000D02*
X38552615Y-50000000D01*
X31368410Y-35631590D02*
X31368410Y-35631590D01*
X36756563Y-51796051D02*
X36756563Y-51796051D01*
X33164461Y-33835539D02*
X33164461Y-33835539D01*
X34960512Y-53592102D02*
X34960512Y-53592102D01*
X34960512Y-32039488D02*
X34960512Y-32039488D01*
X33164461Y-55388154D02*
X33164461Y-55388154D01*
X36756563Y-30243437D02*
X36756563Y-30243437D01*
X31368410Y-57184205D02*
X31368410Y-57184205D01*
X38552615Y-28447385D02*
X38552615Y-28447385D01*
X29572359Y-58980256D02*
X29572359Y-58980256D01*
X40348666Y-26651334D02*
X40348666Y-26651334D01*
X27776307Y-60776307D02*
X27776307Y-60776307D01*
X42144717Y-24855283D02*
X42144717Y-24855283D01*
X52921024Y-35631590D02*
X52921024Y-35631590D01*
D10*
G36*
X94585786Y-5000000D02*
X96000000Y-3585786D01*
X97414214Y-5000000D01*
X96000000Y-6414214D01*
X94585786Y-5000000D01*
X94585786Y-5000000D01*
G37*
D13*
X104980256Y3980256D03*
D10*
G36*
X64131371Y-28000000D02*
X63000000Y-29131371D01*
X61868629Y-28000000D01*
X63000000Y-26868629D01*
X64131371Y-28000000D01*
X64131371Y-28000000D01*
G37*
D14*
X58403806Y-23403806D03*
D10*
G36*
X13868629Y-66000000D02*
X15000000Y-64868629D01*
X16131371Y-66000000D01*
X15000000Y-67131371D01*
X13868629Y-66000000D01*
X13868629Y-66000000D01*
G37*
D14*
X19596194Y-70596194D03*
D15*
X29050000Y-18000000D03*
X30950000Y-18000000D03*
D10*
G36*
X9169150Y-56361180D02*
X8638820Y-55830850D01*
X9487348Y-54982322D01*
X10017678Y-55512652D01*
X9169150Y-56361180D01*
X9169150Y-56361180D01*
G37*
G36*
X10512652Y-55017678D02*
X9982322Y-54487348D01*
X10830850Y-53638820D01*
X11361180Y-54169150D01*
X10512652Y-55017678D01*
X10512652Y-55017678D01*
G37*
D15*
X8050000Y-24000000D03*
X9950000Y-24000000D03*
D10*
G36*
X47169150Y-83361180D02*
X46638820Y-82830850D01*
X47487348Y-81982322D01*
X48017678Y-82512652D01*
X47169150Y-83361180D01*
X47169150Y-83361180D01*
G37*
G36*
X48512652Y-82017678D02*
X47982322Y-81487348D01*
X48830850Y-80638820D01*
X49361180Y-81169150D01*
X48512652Y-82017678D01*
X48512652Y-82017678D01*
G37*
G36*
X57169150Y-75361180D02*
X56638820Y-74830850D01*
X57487348Y-73982322D01*
X58017678Y-74512652D01*
X57169150Y-75361180D01*
X57169150Y-75361180D01*
G37*
G36*
X58512652Y-74017678D02*
X57982322Y-73487348D01*
X58830850Y-72638820D01*
X59361180Y-73169150D01*
X58512652Y-74017678D01*
X58512652Y-74017678D01*
G37*
G36*
X65169150Y-67361180D02*
X64638820Y-66830850D01*
X65487348Y-65982322D01*
X66017678Y-66512652D01*
X65169150Y-67361180D01*
X65169150Y-67361180D01*
G37*
G36*
X66512652Y-66017678D02*
X65982322Y-65487348D01*
X66830850Y-64638820D01*
X67361180Y-65169150D01*
X66512652Y-66017678D01*
X66512652Y-66017678D01*
G37*
G36*
X73169150Y-57361180D02*
X72638820Y-56830850D01*
X73487348Y-55982322D01*
X74017678Y-56512652D01*
X73169150Y-57361180D01*
X73169150Y-57361180D01*
G37*
G36*
X74512652Y-56017678D02*
X73982322Y-55487348D01*
X74830850Y-54638820D01*
X75361180Y-55169150D01*
X74512652Y-56017678D01*
X74512652Y-56017678D01*
G37*
D16*
X26600000Y-12550000D03*
X23400000Y-12550000D03*
X26600000Y-17450000D03*
X23400000Y-17450000D03*
D10*
G36*
X15687005Y-57282842D02*
X14979899Y-56575736D01*
X16040559Y-55515076D01*
X16747665Y-56222182D01*
X15687005Y-57282842D01*
X15687005Y-57282842D01*
G37*
G36*
X13424264Y-55020101D02*
X12717158Y-54312995D01*
X13777818Y-53252335D01*
X14484924Y-53959441D01*
X13424264Y-55020101D01*
X13424264Y-55020101D01*
G37*
G36*
X12222182Y-60747665D02*
X11515076Y-60040559D01*
X12575736Y-58979899D01*
X13282842Y-59687005D01*
X12222182Y-60747665D01*
X12222182Y-60747665D01*
G37*
G36*
X9959441Y-58484924D02*
X9252335Y-57777818D01*
X10312995Y-56717158D01*
X11020101Y-57424264D01*
X9959441Y-58484924D01*
X9959441Y-58484924D01*
G37*
D16*
X10600000Y-26550000D03*
X7400000Y-26550000D03*
X10600000Y-31450000D03*
X7400000Y-31450000D03*
D10*
G36*
X48687005Y-79282842D02*
X47979899Y-78575736D01*
X49040559Y-77515076D01*
X49747665Y-78222182D01*
X48687005Y-79282842D01*
X48687005Y-79282842D01*
G37*
G36*
X46424264Y-77020101D02*
X45717158Y-76312995D01*
X46777818Y-75252335D01*
X47484924Y-75959441D01*
X46424264Y-77020101D01*
X46424264Y-77020101D01*
G37*
G36*
X45222182Y-82747665D02*
X44515076Y-82040559D01*
X45575736Y-80979899D01*
X46282842Y-81687005D01*
X45222182Y-82747665D01*
X45222182Y-82747665D01*
G37*
G36*
X42959441Y-80484924D02*
X42252335Y-79777818D01*
X43312995Y-78717158D01*
X44020101Y-79424264D01*
X42959441Y-80484924D01*
X42959441Y-80484924D01*
G37*
G36*
X57687005Y-72282842D02*
X56979899Y-71575736D01*
X58040559Y-70515076D01*
X58747665Y-71222182D01*
X57687005Y-72282842D01*
X57687005Y-72282842D01*
G37*
G36*
X55424264Y-70020101D02*
X54717158Y-69312995D01*
X55777818Y-68252335D01*
X56484924Y-68959441D01*
X55424264Y-70020101D01*
X55424264Y-70020101D01*
G37*
G36*
X54222182Y-75747665D02*
X53515076Y-75040559D01*
X54575736Y-73979899D01*
X55282842Y-74687005D01*
X54222182Y-75747665D01*
X54222182Y-75747665D01*
G37*
G36*
X51959441Y-73484924D02*
X51252335Y-72777818D01*
X52312995Y-71717158D01*
X53020101Y-72424264D01*
X51959441Y-73484924D01*
X51959441Y-73484924D01*
G37*
G36*
X66687005Y-63282842D02*
X65979899Y-62575736D01*
X67040559Y-61515076D01*
X67747665Y-62222182D01*
X66687005Y-63282842D01*
X66687005Y-63282842D01*
G37*
G36*
X64424264Y-61020101D02*
X63717158Y-60312995D01*
X64777818Y-59252335D01*
X65484924Y-59959441D01*
X64424264Y-61020101D01*
X64424264Y-61020101D01*
G37*
G36*
X63222182Y-66747665D02*
X62515076Y-66040559D01*
X63575736Y-64979899D01*
X64282842Y-65687005D01*
X63222182Y-66747665D01*
X63222182Y-66747665D01*
G37*
G36*
X60959441Y-64484924D02*
X60252335Y-63777818D01*
X61312995Y-62717158D01*
X62020101Y-63424264D01*
X60959441Y-64484924D01*
X60959441Y-64484924D01*
G37*
G36*
X73687005Y-54282842D02*
X72979899Y-53575736D01*
X74040559Y-52515076D01*
X74747665Y-53222182D01*
X73687005Y-54282842D01*
X73687005Y-54282842D01*
G37*
G36*
X71424264Y-52020101D02*
X70717158Y-51312995D01*
X71777818Y-50252335D01*
X72484924Y-50959441D01*
X71424264Y-52020101D01*
X71424264Y-52020101D01*
G37*
G36*
X70222182Y-57747665D02*
X69515076Y-57040559D01*
X70575736Y-55979899D01*
X71282842Y-56687005D01*
X70222182Y-57747665D01*
X70222182Y-57747665D01*
G37*
G36*
X67959441Y-55484924D02*
X67252335Y-54777818D01*
X68312995Y-53717158D01*
X69020101Y-54424264D01*
X67959441Y-55484924D01*
X67959441Y-55484924D01*
G37*
D17*
X33000000Y-13000000D03*
D18*
X30460000Y-13000000D03*
D19*
X86000000Y-47000000D03*
D20*
X83460000Y-47000000D03*
X86000000Y-49540000D03*
X83460000Y-49540000D03*
X86000000Y-52080000D03*
X83460000Y-52080000D03*
X86000000Y-54620000D03*
X83460000Y-54620000D03*
X86000000Y-57160000D03*
X83460000Y-57160000D03*
X86000000Y-59700000D03*
X83460000Y-59700000D03*
X86000000Y-62240000D03*
X83460000Y-62240000D03*
X86000000Y-64780000D03*
X83460000Y-64780000D03*
X86000000Y-67320000D03*
X83460000Y-67320000D03*
X86000000Y-69860000D03*
X83460000Y-69860000D03*
X86000000Y-72400000D03*
X83460000Y-72400000D03*
X86000000Y-74940000D03*
X83460000Y-74940000D03*
X86000000Y-77480000D03*
X83460000Y-77480000D03*
X86000000Y-80020000D03*
X83460000Y-80020000D03*
X86000000Y-82560000D03*
X83460000Y-82560000D03*
D21*
X45000000Y-15900000D03*
X45000000Y-18100000D03*
D22*
X5000000Y-23540000D03*
D23*
X5000000Y-21000000D03*
X5000000Y-18460000D03*
D22*
X5024229Y-42060707D03*
D23*
X5024229Y-39520707D03*
X5024229Y-36980707D03*
X5024229Y-34440707D03*
D13*
X54181981Y-87181981D03*
X51000000Y-84000000D03*
X58778175Y-82585786D03*
X55596194Y-79403806D03*
X63181981Y-83181981D03*
X60000000Y-80000000D03*
X67778175Y-78585786D03*
X64596194Y-75403806D03*
X70181981Y-76181981D03*
X67000000Y-73000000D03*
X74778175Y-71585786D03*
X71596194Y-68403806D03*
X74181981Y-67181981D03*
X71000000Y-64000000D03*
X78778175Y-62585786D03*
X75596194Y-59403806D03*
D17*
X42000000Y-14000000D03*
D18*
X39460000Y-14000000D03*
X36920000Y-14000000D03*
D10*
G36*
X12077631Y-13000000D02*
X11000000Y-14077631D01*
X9922369Y-13000000D01*
X11000000Y-11922369D01*
X12077631Y-13000000D01*
X12077631Y-13000000D01*
G37*
D24*
X9203949Y-11203949D03*
X12796051Y-11203949D03*
X11000000Y-9407898D03*
X14592102Y-9407898D03*
X12796051Y-7611846D03*
X16388154Y-7611846D03*
X14592102Y-5815795D03*
D25*
X48835500Y-37114100D03*
X25243100Y-69195500D03*
X29050000Y-16326000D03*
X25331600Y-15655100D03*
X47470900Y-75059700D03*
X10600000Y-48964300D03*
X70054500Y-80020000D03*
X59356400Y-47000000D03*
X60128000Y-67219000D03*
X17577800Y-36250700D03*
X58525100Y-47830500D03*
X53792800Y-49551100D03*
X30449300Y-39696900D03*
X81105900Y-54519100D03*
X43759900Y-36415900D03*
X79514700Y-55413900D03*
X52419600Y-71165000D03*
X67498900Y-68241300D03*
X58483300Y-69913600D03*
X35239000Y-28106300D03*
X47709400Y-54666400D03*
X75008800Y-61702800D03*
X31097100Y-38094100D03*
X48115000Y-71859100D03*
X81781200Y-56591900D03*
X67506300Y-63676200D03*
X81447000Y-36794500D03*
X34980900Y-34657200D03*
X37075500Y-68180200D03*
X56879800Y-66529200D03*
X69051300Y-67415700D03*
X64266400Y-71450000D03*
X55399400Y-71450000D03*
D26*
X31368400Y-35631600D02*
X29572400Y-37427600D01*
X86000000Y-67320000D02*
X86000000Y-64780000D01*
X63831100Y-29125600D02*
X63831100Y-28831100D01*
X82975500Y-48270000D02*
X63831100Y-29125600D01*
X84004900Y-48270000D02*
X82975500Y-48270000D01*
X84685400Y-48950500D02*
X84004900Y-48270000D01*
X84685400Y-49981900D02*
X84685400Y-48950500D01*
X85513500Y-50810000D02*
X84685400Y-49981900D01*
X86470700Y-50810000D02*
X85513500Y-50810000D01*
X87232400Y-51571700D02*
X86470700Y-50810000D01*
X87232400Y-62872300D02*
X87232400Y-51571700D01*
X86550000Y-63554700D02*
X87232400Y-62872300D01*
X86000000Y-63554700D02*
X86550000Y-63554700D01*
X86000000Y-64780000D02*
X86000000Y-63554700D01*
X63763900Y-28763900D02*
X63831100Y-28831100D01*
X57185700Y-28763900D02*
X48835500Y-37114100D01*
X63763900Y-28763900D02*
X57185700Y-28763900D01*
X63000000Y-28000000D02*
X63763900Y-28763900D01*
X86000000Y-77480000D02*
X86000000Y-74940000D01*
X36756600Y-30243400D02*
X37587700Y-31074500D01*
X37981300Y-30680900D02*
X37587700Y-31074500D01*
X37981300Y-29538200D02*
X37981300Y-30680900D01*
X37721600Y-29278400D02*
X37981300Y-29538200D01*
X38552600Y-28447400D02*
X37721600Y-29278400D01*
X34305600Y-34356600D02*
X37587700Y-31074500D01*
X34305600Y-36795700D02*
X34305600Y-34356600D01*
X25243100Y-45858200D02*
X34305600Y-36795700D01*
X25243100Y-69195500D02*
X25243100Y-45858200D01*
X74778200Y-67778200D02*
X74778200Y-71585800D01*
X74182000Y-67182000D02*
X74778200Y-67778200D01*
X57858800Y-81666400D02*
X57858800Y-75202400D01*
X58778200Y-82585800D02*
X57858800Y-81666400D01*
X57328200Y-74671800D02*
X57858800Y-75202400D01*
X7400000Y-39065400D02*
X7400000Y-31450000D01*
X5643600Y-40821800D02*
X7400000Y-39065400D01*
X5024200Y-40821800D02*
X5643600Y-40821800D01*
X6391300Y-21591000D02*
X8050000Y-23249700D01*
X6391300Y-21000000D02*
X6391300Y-21591000D01*
X5000000Y-21000000D02*
X6391300Y-21000000D01*
X43560000Y-18100000D02*
X45000000Y-18100000D01*
X39460000Y-14000000D02*
X43560000Y-18100000D01*
X71257400Y-54601000D02*
X73328200Y-56671800D01*
X69727700Y-54601000D02*
X71257400Y-54601000D01*
X68932000Y-53805200D02*
X69727700Y-54601000D01*
X65328200Y-66671800D02*
X64638600Y-67361400D01*
X46433100Y-83156000D02*
X46638600Y-83361400D01*
X45099700Y-83156000D02*
X46433100Y-83156000D01*
X42340500Y-80396700D02*
X45099700Y-83156000D01*
X43136200Y-79601000D02*
X42340500Y-80396700D01*
X47328200Y-82671800D02*
X46638600Y-83361400D01*
X5024200Y-41441200D02*
X5024200Y-40821800D01*
X5024200Y-41441200D02*
X5024200Y-42060700D01*
X10329000Y-56202400D02*
X9858800Y-56202400D01*
X10931900Y-56805300D02*
X10329000Y-56202400D01*
X10136200Y-57601000D02*
X10931900Y-56805300D01*
X9328200Y-55671800D02*
X9858800Y-56202400D01*
X68136200Y-54601000D02*
X68534100Y-54203100D01*
X68534100Y-54203100D02*
X68932000Y-53805200D01*
X64797600Y-62202400D02*
X64797600Y-66141200D01*
X68534100Y-58465900D02*
X64797600Y-62202400D01*
X68534100Y-54203100D02*
X68534100Y-58465900D01*
X65328200Y-66671800D02*
X64797600Y-66141200D01*
X61136200Y-63601000D02*
X60738300Y-63998900D01*
X64425000Y-67147900D02*
X64638600Y-67361400D01*
X63091600Y-67147900D02*
X64425000Y-67147900D01*
X60738300Y-64794600D02*
X63091600Y-67147900D01*
X60738300Y-63998900D02*
X60738300Y-64794600D01*
X52136200Y-72601000D02*
X51738300Y-72998900D01*
X8050000Y-24000000D02*
X8050000Y-23249700D01*
X7400000Y-31450000D02*
X7400000Y-30449800D01*
X43931900Y-66155600D02*
X43931900Y-78805300D01*
X33164500Y-55388200D02*
X43931900Y-66155600D01*
X43136200Y-79601000D02*
X43931900Y-78805300D01*
X29050000Y-18000000D02*
X29050000Y-17249700D01*
X29050000Y-17249700D02*
X29050000Y-16326000D01*
X51838400Y-87182000D02*
X47328200Y-82671800D01*
X54182000Y-87182000D02*
X51838400Y-87182000D01*
X23400000Y-18012600D02*
X23400000Y-18575300D01*
X23400000Y-18012600D02*
X23400000Y-17450000D01*
X83460000Y-54620000D02*
X82234700Y-54620000D01*
X55841100Y-76158900D02*
X57328200Y-74671800D01*
X55280500Y-76158900D02*
X55841100Y-76158900D01*
X54780200Y-76659200D02*
X55280500Y-76158900D01*
X53841600Y-76659200D02*
X54780200Y-76659200D01*
X52375300Y-75192900D02*
X53841600Y-76659200D01*
X52375300Y-74785300D02*
X52375300Y-75192900D01*
X52188900Y-74598900D02*
X52375300Y-74785300D01*
X52188900Y-74298900D02*
X52188900Y-74598900D01*
X51738300Y-73848300D02*
X52188900Y-74298900D01*
X51738300Y-72998900D02*
X51738300Y-73848300D01*
X8797600Y-47073000D02*
X5024200Y-43299600D01*
X8797600Y-55141200D02*
X8797600Y-47073000D01*
X9328200Y-55671800D02*
X8797600Y-55141200D01*
X5024200Y-42060700D02*
X5024200Y-43299600D01*
X24069600Y-15655100D02*
X23400000Y-16324700D01*
X25331600Y-15655100D02*
X24069600Y-15655100D01*
X23400000Y-17450000D02*
X23400000Y-16324700D01*
X8050000Y-24000000D02*
X8050000Y-24750300D01*
X14254800Y-27720500D02*
X23400000Y-18575300D01*
X8862500Y-27720500D02*
X14254800Y-27720500D01*
X8862500Y-28987300D02*
X8862500Y-27720500D01*
X7400000Y-30449800D02*
X8862500Y-28987300D01*
X8862500Y-25562800D02*
X8050000Y-24750300D01*
X8862500Y-27720500D02*
X8862500Y-25562800D01*
X73701400Y-66701400D02*
X74182000Y-67182000D01*
X73701400Y-58638100D02*
X73701400Y-66701400D01*
X78527300Y-53812200D02*
X73701400Y-58638100D01*
X81426900Y-53812200D02*
X78527300Y-53812200D01*
X82234700Y-54620000D02*
X81426900Y-53812200D01*
X70182000Y-71879300D02*
X70182000Y-76182000D01*
X65858800Y-67556100D02*
X70182000Y-71879300D01*
X65858800Y-67202400D02*
X65858800Y-67556100D01*
X65328200Y-66671800D02*
X65858800Y-67202400D01*
X14396700Y-30778600D02*
X26600000Y-18575300D01*
X14396700Y-53340400D02*
X14396700Y-30778600D01*
X14396800Y-53340400D02*
X14396700Y-53340400D01*
X13601000Y-54136200D02*
X14396800Y-53340400D01*
X26600000Y-17450000D02*
X26600000Y-18575300D01*
X8250100Y-57306500D02*
X11603200Y-60659600D01*
X8250100Y-54947400D02*
X8250100Y-57306500D01*
X3632800Y-50330100D02*
X8250100Y-54947400D01*
X3632800Y-36441800D02*
X3632800Y-50330100D01*
X4363900Y-35710700D02*
X3632800Y-36441800D01*
X5689500Y-35710700D02*
X4363900Y-35710700D01*
X6524700Y-34875500D02*
X5689500Y-35710700D01*
X6524700Y-28550600D02*
X6524700Y-34875500D01*
X7400000Y-27675300D02*
X6524700Y-28550600D01*
X7400000Y-26550000D02*
X7400000Y-27675300D01*
X12399000Y-59863800D02*
X11603200Y-60659600D01*
X47470900Y-75266300D02*
X47470900Y-75059700D01*
X46601000Y-76136200D02*
X47470900Y-75266300D01*
X10600000Y-48964300D02*
X10600000Y-31450000D01*
X45310700Y-80184100D02*
X46194700Y-81068100D01*
X45310700Y-76157500D02*
X45310700Y-80184100D01*
X51536300Y-69931900D02*
X45310700Y-76157500D01*
X54805300Y-69931900D02*
X51536300Y-69931900D01*
X55601000Y-69136200D02*
X54805300Y-69931900D01*
X45399000Y-81863800D02*
X46194700Y-81068100D01*
X51125000Y-37427600D02*
X51956100Y-38258700D01*
X51956200Y-38258700D02*
X51956100Y-38258700D01*
X51956200Y-60650600D02*
X51956200Y-38258700D01*
X57724600Y-66419000D02*
X51956200Y-60650600D01*
X57724600Y-66614300D02*
X57724600Y-66419000D01*
X63735900Y-72625600D02*
X57724600Y-66614300D01*
X63807400Y-72625600D02*
X63735900Y-72625600D01*
X70054500Y-78872700D02*
X63807400Y-72625600D01*
X70054500Y-80020000D02*
X70054500Y-78872700D01*
X60128000Y-66680500D02*
X60128000Y-67219000D01*
X59356400Y-65908900D02*
X60128000Y-66680500D01*
X59356400Y-47000000D02*
X59356400Y-65908900D01*
X17000000Y-50000000D02*
X17831100Y-49168900D01*
X17577800Y-48915600D02*
X17577800Y-36250700D01*
X17831100Y-49168900D02*
X17577800Y-48915600D01*
X56804500Y-49551100D02*
X53792800Y-49551100D01*
X58525100Y-47830500D02*
X56804500Y-49551100D01*
X19369000Y-47114700D02*
X19627200Y-47372800D01*
X19369000Y-45891300D02*
X19369000Y-47114700D01*
X21881900Y-43378400D02*
X19369000Y-45891300D01*
X22950900Y-43378400D02*
X21881900Y-43378400D01*
X23568000Y-43995500D02*
X22950900Y-43378400D01*
X25150200Y-43995500D02*
X23568000Y-43995500D01*
X26070400Y-43075300D02*
X25150200Y-43995500D01*
X27070900Y-43075300D02*
X26070400Y-43075300D01*
X30449300Y-39696900D02*
X27070900Y-43075300D01*
X18796100Y-48203900D02*
X19627200Y-47372800D01*
X83460000Y-77480000D02*
X83460000Y-76254700D01*
X81105900Y-59145700D02*
X81105900Y-54519100D01*
X82930200Y-60970000D02*
X81105900Y-59145700D01*
X84004900Y-60970000D02*
X82930200Y-60970000D01*
X84685400Y-61650500D02*
X84004900Y-60970000D01*
X84685400Y-75488800D02*
X84685400Y-61650500D01*
X83919500Y-76254700D02*
X84685400Y-75488800D01*
X83460000Y-76254700D02*
X83919500Y-76254700D01*
X47532900Y-41019700D02*
X46701800Y-40188600D01*
X46701800Y-39357800D02*
X43759900Y-36415900D01*
X46701800Y-40188600D02*
X46701800Y-39357800D01*
X83460000Y-74940000D02*
X83460000Y-73714700D01*
X79514700Y-55414000D02*
X79514700Y-55413900D01*
X77633100Y-55414000D02*
X79514700Y-55414000D01*
X74204000Y-58843100D02*
X77633100Y-55414000D01*
X74204000Y-64931700D02*
X74204000Y-58843100D01*
X82987000Y-73714700D02*
X74204000Y-64931700D01*
X83460000Y-73714700D02*
X82987000Y-73714700D01*
X11000000Y-13000000D02*
X10195800Y-13804200D01*
X9950000Y-24000000D02*
X9950000Y-23249700D01*
X9950000Y-18460000D02*
X9950000Y-23249700D01*
X10195800Y-18214200D02*
X10195800Y-13804200D01*
X9950000Y-18460000D02*
X10195800Y-18214200D01*
X83967800Y-50765300D02*
X83460000Y-50765300D01*
X84774700Y-51572200D02*
X83967800Y-50765300D01*
X84774700Y-52629000D02*
X84774700Y-51572200D01*
X85540400Y-53394700D02*
X84774700Y-52629000D01*
X86000000Y-53394700D02*
X85540400Y-53394700D01*
X86000000Y-54620000D02*
X86000000Y-53394700D01*
X83460000Y-49540000D02*
X83460000Y-50120500D01*
X83460000Y-50120500D02*
X83460000Y-50765300D01*
X26600000Y-12550000D02*
X26600000Y-11424700D01*
X74005500Y-54661900D02*
X74671800Y-55328200D01*
X73535200Y-54661900D02*
X74005500Y-54661900D01*
X73068100Y-54194700D02*
X73535200Y-54661900D01*
X66141200Y-63267800D02*
X66141200Y-64797600D01*
X66068100Y-63194700D02*
X66141200Y-63267800D01*
X66863800Y-62399000D02*
X66068100Y-63194700D01*
X58671800Y-73328200D02*
X58141200Y-72797600D01*
X48141200Y-79267800D02*
X48141200Y-80797600D01*
X48068100Y-79194700D02*
X48141200Y-79267800D01*
X48671800Y-81328200D02*
X48141200Y-80797600D01*
X10600000Y-26550000D02*
X10600000Y-25424700D01*
X66863800Y-62399000D02*
X67659600Y-61603200D01*
X74671800Y-55328200D02*
X75202400Y-55858800D01*
X57863800Y-71399000D02*
X57068100Y-72194700D01*
X29572400Y-58980300D02*
X30403500Y-59811300D01*
X9950000Y-24774700D02*
X9950000Y-24000000D01*
X10600000Y-25424700D02*
X9950000Y-24774700D01*
X12732100Y-54858800D02*
X15068100Y-57194700D01*
X11202400Y-54858800D02*
X12732100Y-54858800D01*
X10671800Y-54328200D02*
X11202400Y-54858800D01*
X19596200Y-61722900D02*
X15068100Y-57194700D01*
X19596200Y-70596200D02*
X19596200Y-61722900D01*
X22388200Y-44611800D02*
X23219300Y-45442900D01*
X15068100Y-57194700D02*
X15863800Y-56399000D01*
X30950000Y-18000000D02*
X30950000Y-17249700D01*
X31720100Y-11720100D02*
X33000000Y-13000000D01*
X29168100Y-11720100D02*
X31720100Y-11720100D01*
X30403400Y-59811400D02*
X30403500Y-59811300D01*
X30403400Y-65035400D02*
X30403400Y-59811400D01*
X24842600Y-70596200D02*
X30403400Y-65035400D01*
X19596200Y-70596200D02*
X24842600Y-70596200D01*
X9950000Y-18460000D02*
X5000000Y-18460000D01*
X3561600Y-31739200D02*
X5024200Y-33201800D01*
X3561600Y-20517900D02*
X3561600Y-31739200D01*
X4380600Y-19698900D02*
X3561600Y-20517900D01*
X5000000Y-19698900D02*
X4380600Y-19698900D01*
X5000000Y-18460000D02*
X5000000Y-19698900D01*
X5024200Y-34440700D02*
X5024200Y-33201800D01*
X28872700Y-11424700D02*
X26600000Y-11424700D01*
X29168100Y-11720100D02*
X28872700Y-11424700D01*
X11966400Y-12358000D02*
X11804200Y-12195800D01*
X15674900Y-12358000D02*
X11966400Y-12358000D01*
X16608200Y-11424700D02*
X15674900Y-12358000D01*
X26600000Y-11424700D02*
X16608200Y-11424700D01*
X11000000Y-13000000D02*
X11804200Y-12195800D01*
X29168100Y-15467800D02*
X29168100Y-11720100D01*
X30950000Y-17249700D02*
X29168100Y-15467800D01*
X67659600Y-61603300D02*
X67659600Y-61603200D01*
X69021500Y-61603300D02*
X67659600Y-61603300D01*
X70301100Y-60323700D02*
X69021500Y-61603300D01*
X70737500Y-60323700D02*
X70301100Y-60323700D01*
X75202400Y-55858800D02*
X70737500Y-60323700D01*
X73863800Y-53399000D02*
X73156600Y-54106200D01*
X73156600Y-54106200D02*
X73068100Y-54194700D01*
X48863800Y-78399000D02*
X48466000Y-78796800D01*
X48466000Y-78796800D02*
X48068100Y-79194700D01*
X57068100Y-72194700D02*
X57671000Y-72797600D01*
X57671000Y-72797600D02*
X58141200Y-72797600D01*
X52203500Y-71292900D02*
X52419600Y-71292900D01*
X48466000Y-75030400D02*
X52203500Y-71292900D01*
X48466000Y-78796800D02*
X48466000Y-75030400D01*
X57671000Y-72829800D02*
X57671000Y-72797600D01*
X54341900Y-76158900D02*
X57671000Y-72829800D01*
X54048900Y-76158900D02*
X54341900Y-76158900D01*
X53081400Y-75191400D02*
X54048900Y-76158900D01*
X53081400Y-74779800D02*
X53081400Y-75191400D01*
X53424500Y-74436700D02*
X53081400Y-74779800D01*
X53424500Y-72297800D02*
X53424500Y-74436700D01*
X52419600Y-71292900D02*
X53424500Y-72297800D01*
X52419600Y-71292900D02*
X52419600Y-71165000D01*
X80940700Y-50120500D02*
X75202400Y-55858800D01*
X83460000Y-50120500D02*
X80940700Y-50120500D01*
X66406500Y-65062900D02*
X66141200Y-64797600D01*
X66406500Y-65062900D02*
X66671800Y-65328200D01*
X67498900Y-66155300D02*
X67498900Y-68241300D01*
X66671800Y-65328200D02*
X67498900Y-66155300D01*
X58483300Y-70427000D02*
X58659600Y-70603200D01*
X58483300Y-69913600D02*
X58483300Y-70427000D01*
X57863800Y-71399000D02*
X58659600Y-70603200D01*
X23219300Y-49043500D02*
X23219300Y-45442900D01*
X15863800Y-56399000D02*
X23219300Y-49043500D01*
X82952200Y-71174700D02*
X83460000Y-71174700D01*
X75008800Y-63231300D02*
X82952200Y-71174700D01*
X75008800Y-61702800D02*
X75008800Y-63231300D01*
X83460000Y-72400000D02*
X83460000Y-71174700D01*
X45736800Y-42815800D02*
X40913300Y-42815800D01*
X40913300Y-29108600D02*
X40913300Y-42815800D01*
X39071900Y-27267200D02*
X40913300Y-29108600D01*
X36078100Y-27267200D02*
X39071900Y-27267200D01*
X35239000Y-28106300D02*
X36078100Y-27267200D01*
X47709400Y-53768500D02*
X47709400Y-54666400D01*
X40913300Y-46972400D02*
X47709400Y-53768500D01*
X40913300Y-42815800D02*
X40913300Y-46972400D01*
X5024200Y-36980700D02*
X5024200Y-39520700D01*
X24184200Y-42815800D02*
X25015300Y-41984700D01*
X25275000Y-42244400D02*
X25015300Y-41984700D01*
X27139300Y-42244400D02*
X25275000Y-42244400D01*
X29774000Y-39609700D02*
X27139300Y-42244400D01*
X29774000Y-39417200D02*
X29774000Y-39609700D01*
X31097100Y-38094100D02*
X29774000Y-39417200D01*
X48384700Y-49055700D02*
X43940800Y-44611800D01*
X48384700Y-71589400D02*
X48384700Y-49055700D01*
X48115000Y-71859100D02*
X48384700Y-71589400D01*
X31925400Y-14465400D02*
X30460000Y-13000000D01*
X31925400Y-32660100D02*
X31925400Y-14465400D01*
X28386100Y-36199400D02*
X31925400Y-32660100D01*
X28386100Y-38037500D02*
X28386100Y-36199400D01*
X28979800Y-38631200D02*
X28386100Y-38037500D01*
X28979800Y-39682400D02*
X28979800Y-38631200D01*
X28249100Y-40413100D02*
X28979800Y-39682400D01*
X27035800Y-40413100D02*
X28249100Y-40413100D01*
X26811400Y-40188600D02*
X27035800Y-40413100D01*
X25980300Y-41019700D02*
X26811400Y-40188600D01*
X60000000Y-80000000D02*
X64596200Y-75403800D01*
X42144700Y-46407900D02*
X42975800Y-45576800D01*
X64596200Y-75071500D02*
X64596200Y-75403800D01*
X56898700Y-67374000D02*
X64596200Y-75071500D01*
X56769600Y-67374000D02*
X56898700Y-67374000D01*
X50439300Y-61043700D02*
X56769600Y-67374000D01*
X50439300Y-49438200D02*
X50439300Y-61043700D01*
X44407400Y-43406300D02*
X50439300Y-49438200D01*
X43484200Y-43406300D02*
X44407400Y-43406300D01*
X42715900Y-44174600D02*
X43484200Y-43406300D01*
X42715900Y-45316900D02*
X42715900Y-44174600D01*
X42975800Y-45576800D02*
X42715900Y-45316900D01*
X27532900Y-37804900D02*
X26945200Y-38392600D01*
X27532900Y-16602200D02*
X27532900Y-37804900D01*
X24606000Y-13675300D02*
X27532900Y-16602200D01*
X23400000Y-13675300D02*
X24606000Y-13675300D01*
X23400000Y-12550000D02*
X23400000Y-13675300D01*
X27776300Y-39223700D02*
X26945200Y-38392600D01*
X81781200Y-57262000D02*
X81781200Y-56591900D01*
X82949200Y-58430000D02*
X81781200Y-57262000D01*
X84004900Y-58430000D02*
X82949200Y-58430000D01*
X84774700Y-59199800D02*
X84004900Y-58430000D01*
X84774700Y-60249000D02*
X84774700Y-59199800D01*
X85540400Y-61014700D02*
X84774700Y-60249000D01*
X86000000Y-61014700D02*
X85540400Y-61014700D01*
X86000000Y-62240000D02*
X86000000Y-61014700D01*
X67506300Y-64313900D02*
X67506300Y-63676200D01*
X71596200Y-68403800D02*
X67506300Y-64313900D01*
X79398500Y-59403800D02*
X82234700Y-62240000D01*
X75596200Y-59403800D02*
X79398500Y-59403800D01*
X83460000Y-62240000D02*
X82234700Y-62240000D01*
X43275300Y-15000600D02*
X44174700Y-15900000D01*
X43275300Y-14000000D02*
X43275300Y-15000600D01*
X42000000Y-14000000D02*
X43275300Y-14000000D01*
X45000000Y-15900000D02*
X44174700Y-15900000D01*
X40721200Y-12721200D02*
X42000000Y-14000000D01*
X36395200Y-12721200D02*
X40721200Y-12721200D01*
X33735800Y-15380600D02*
X36395200Y-12721200D01*
X33735800Y-32744700D02*
X33735800Y-15380600D01*
X33995600Y-33004400D02*
X33735800Y-32744700D01*
X33164500Y-33835500D02*
X33995600Y-33004400D01*
X86000000Y-69860000D02*
X86000000Y-68634700D01*
X81447000Y-39757400D02*
X81447000Y-36794500D01*
X87732700Y-46043100D02*
X81447000Y-39757400D01*
X87732700Y-67409800D02*
X87732700Y-46043100D01*
X86507800Y-68634700D02*
X87732700Y-67409800D01*
X86000000Y-68634700D02*
X86507800Y-68634700D01*
X34980900Y-49479700D02*
X34980900Y-34657200D01*
X31929000Y-52531600D02*
X34980900Y-49479700D01*
X31929000Y-55948700D02*
X31929000Y-52531600D01*
X37075500Y-61095200D02*
X31929000Y-55948700D01*
X37075500Y-68180200D02*
X37075500Y-61095200D01*
X86000000Y-82560000D02*
X84774700Y-82560000D01*
X50939700Y-60589100D02*
X56879800Y-66529200D01*
X50939700Y-42630400D02*
X50939700Y-60589100D01*
X42975900Y-34666600D02*
X50939700Y-42630400D01*
X42975900Y-25686400D02*
X42975900Y-34666600D01*
X42975800Y-25686400D02*
X42975900Y-25686400D01*
X42144700Y-24855300D02*
X42975800Y-25686400D01*
X69051300Y-67884000D02*
X69051300Y-67415700D01*
X82457300Y-81290000D02*
X69051300Y-67884000D01*
X84012500Y-81290000D02*
X82457300Y-81290000D01*
X84774700Y-82052200D02*
X84012500Y-81290000D01*
X84774700Y-82560000D02*
X84774700Y-82052200D01*
X52921000Y-35631600D02*
X52090000Y-36462600D01*
X52921000Y-37293700D02*
X52090000Y-36462600D01*
X52921000Y-55513900D02*
X52921000Y-37293700D01*
X53421300Y-56014200D02*
X52921000Y-55513900D01*
X53421300Y-60681400D02*
X53421300Y-56014200D01*
X59431600Y-66691700D02*
X53421300Y-60681400D01*
X59431600Y-67092300D02*
X59431600Y-66691700D01*
X59452600Y-67113300D02*
X59431600Y-67092300D01*
X59452600Y-67591200D02*
X59452600Y-67113300D01*
X63986700Y-72125300D02*
X59452600Y-67591200D01*
X64157600Y-72125300D02*
X63986700Y-72125300D01*
X74592300Y-82560000D02*
X64157600Y-72125300D01*
X83460000Y-82560000D02*
X74592300Y-82560000D01*
X64266400Y-69627100D02*
X64266400Y-71450000D01*
X59856700Y-65217400D02*
X64266400Y-69627100D01*
X59856700Y-63642600D02*
X59856700Y-65217400D01*
X62567400Y-60931900D02*
X59856700Y-63642600D01*
X63805300Y-60931900D02*
X62567400Y-60931900D01*
X55399400Y-73863400D02*
X55399400Y-71450000D01*
X54399000Y-74863800D02*
X55399400Y-73863400D01*
X64601000Y-60136200D02*
X63805300Y-60931900D01*
X64194700Y-61780600D02*
X64194700Y-65068100D01*
X66811300Y-59164000D02*
X64194700Y-61780600D01*
X66811300Y-54686500D02*
X66811300Y-59164000D01*
X69565900Y-51931900D02*
X66811300Y-54686500D01*
X70805200Y-51931900D02*
X69565900Y-51931900D01*
X70805300Y-51931900D02*
X70805200Y-51931900D01*
X71601000Y-51136200D02*
X70805300Y-51931900D01*
X63399000Y-65863800D02*
X64194700Y-65068100D01*
M02*
