G04 #@! TF.FileFunction,Legend,Top*
%FSLAX46Y46*%
G04 Gerber Fmt 4.6, Leading zero omitted, Abs format (unit mm)*
G04 Created by KiCad (PCBNEW 4.0.7) date 06/04/18 21:42:21*
%MOMM*%
%LPD*%
G01*
G04 APERTURE LIST*
%ADD10C,0.100000*%
%ADD11C,0.120000*%
%ADD12C,0.150000*%
G04 APERTURE END LIST*
D10*
D11*
X93100000Y-56250000D02*
G75*
G03X93100000Y-56250000I-6100000J0D01*
G01*
X93100000Y-69750000D02*
G75*
G03X93100000Y-69750000I-6100000J0D01*
G01*
X54650000Y-77400000D02*
X55350000Y-77400000D01*
X55350000Y-78600000D02*
X54650000Y-78600000D01*
X63650000Y-77400000D02*
X64350000Y-77400000D01*
X64350000Y-78600000D02*
X63650000Y-78600000D01*
X72650000Y-77400000D02*
X73350000Y-77400000D01*
X73350000Y-78600000D02*
X72650000Y-78600000D01*
X81650000Y-77400000D02*
X82350000Y-77400000D01*
X82350000Y-78600000D02*
X81650000Y-78600000D01*
X90650000Y-77400000D02*
X91350000Y-77400000D01*
X91350000Y-78600000D02*
X90650000Y-78600000D01*
X51350000Y-80250000D02*
X58650000Y-80250000D01*
X51350000Y-85750000D02*
X58650000Y-85750000D01*
X58650000Y-85750000D02*
X58650000Y-84600000D01*
X60350000Y-80250000D02*
X67650000Y-80250000D01*
X60350000Y-85750000D02*
X67650000Y-85750000D01*
X67650000Y-85750000D02*
X67650000Y-84600000D01*
X69350000Y-80250000D02*
X76650000Y-80250000D01*
X69350000Y-85750000D02*
X76650000Y-85750000D01*
X76650000Y-85750000D02*
X76650000Y-84600000D01*
X78350000Y-80250000D02*
X85650000Y-80250000D01*
X78350000Y-85750000D02*
X85650000Y-85750000D01*
X85650000Y-85750000D02*
X85650000Y-84600000D01*
X87350000Y-80250000D02*
X94650000Y-80250000D01*
X87350000Y-85750000D02*
X94650000Y-85750000D01*
X94650000Y-85750000D02*
X94650000Y-84600000D01*
X54500000Y-72320000D02*
X55500000Y-72320000D01*
X55500000Y-73680000D02*
X54500000Y-73680000D01*
D12*
X83705771Y-35209293D02*
X83705771Y-42829293D01*
X86245771Y-35209293D02*
X86245771Y-42829293D01*
X86525771Y-32389293D02*
X86525771Y-33939293D01*
X83705771Y-42829293D02*
X86245771Y-42829293D01*
X86245771Y-35209293D02*
X83705771Y-35209293D01*
X83425771Y-33939293D02*
X83425771Y-32389293D01*
X83425771Y-32389293D02*
X86525771Y-32389293D01*
X54610000Y-34290000D02*
X54610000Y-39370000D01*
X52070000Y-34290000D02*
X54610000Y-34290000D01*
X52070000Y-39370000D02*
X52070000Y-34290000D01*
X54610000Y-39370000D02*
X52070000Y-39370000D01*
X54864000Y-42164000D02*
X54864000Y-40640000D01*
X51816000Y-42164000D02*
X54864000Y-42164000D01*
X51816000Y-40640000D02*
X51816000Y-42164000D01*
D11*
X54000462Y-51740000D02*
G75*
G03X52455170Y-57290000I-462J-2990000D01*
G01*
X53999538Y-51740000D02*
G75*
G02X55544830Y-57290000I462J-2990000D01*
G01*
X56500000Y-54730000D02*
G75*
G03X56500000Y-54730000I-2500000J0D01*
G01*
X52455000Y-57290000D02*
X55545000Y-57290000D01*
X51700000Y-67700000D02*
X52900000Y-67700000D01*
X55300000Y-67700000D02*
X55100000Y-67700000D01*
X55300000Y-61700000D02*
X55100000Y-61700000D01*
X51700000Y-67700000D02*
X51700000Y-61700000D01*
X51700000Y-61700000D02*
X52900000Y-61700000D01*
X55300000Y-67700000D02*
X55300000Y-61700000D01*
X50450000Y-62520000D02*
X50450000Y-62120000D01*
X50450000Y-62520000D02*
X50050000Y-62520000D01*
X50450000Y-62520000D02*
X49650000Y-61720000D01*
X50050000Y-63520000D02*
X49250000Y-62720000D01*
X50050000Y-63520000D02*
X49650000Y-63520000D01*
X50050000Y-63520000D02*
X50050000Y-63120000D01*
X51648679Y-62062315D02*
G75*
G03X51700000Y-67240000I1151321J-2577685D01*
G01*
X94730000Y-32476000D02*
X100064000Y-32476000D01*
X100064000Y-32476000D02*
X100064000Y-43144000D01*
X100064000Y-43144000D02*
X94730000Y-43144000D01*
X94730000Y-43144000D02*
X94730000Y-43144000D01*
X97270000Y-32984000D02*
X97270000Y-35270000D01*
X97270000Y-35270000D02*
X94984000Y-35270000D01*
X94984000Y-35270000D02*
X94984000Y-35270000D01*
X94400000Y-31900000D02*
X123600000Y-31900000D01*
X123600000Y-31900000D02*
X123600000Y-47350000D01*
X123600000Y-47350000D02*
X94400000Y-47350000D01*
X94400000Y-47350000D02*
X94400000Y-31900000D01*
X94400000Y-31900000D02*
X94400000Y-31900000D01*
X94730000Y-43144000D02*
X94730000Y-32476000D01*
X94730000Y-32476000D02*
X94730000Y-32476000D01*
D12*
X93928571Y-57130952D02*
X93976190Y-56988095D01*
X94023810Y-56940476D01*
X94119048Y-56892857D01*
X94261905Y-56892857D01*
X94357143Y-56940476D01*
X94404762Y-56988095D01*
X94452381Y-57083333D01*
X94452381Y-57464286D01*
X93452381Y-57464286D01*
X93452381Y-57130952D01*
X93500000Y-57035714D01*
X93547619Y-56988095D01*
X93642857Y-56940476D01*
X93738095Y-56940476D01*
X93833333Y-56988095D01*
X93880952Y-57035714D01*
X93928571Y-57130952D01*
X93928571Y-57464286D01*
X93452381Y-56559524D02*
X93452381Y-55892857D01*
X94452381Y-56559524D01*
X94452381Y-55892857D01*
X94452381Y-54988095D02*
X94452381Y-55559524D01*
X94452381Y-55273810D02*
X93452381Y-55273810D01*
X93595238Y-55369048D01*
X93690476Y-55464286D01*
X93738095Y-55559524D01*
X88871429Y-53380952D02*
X88871429Y-52619047D01*
X89252381Y-52999999D02*
X88490476Y-52999999D01*
X79928571Y-70630952D02*
X79976190Y-70488095D01*
X80023810Y-70440476D01*
X80119048Y-70392857D01*
X80261905Y-70392857D01*
X80357143Y-70440476D01*
X80404762Y-70488095D01*
X80452381Y-70583333D01*
X80452381Y-70964286D01*
X79452381Y-70964286D01*
X79452381Y-70630952D01*
X79500000Y-70535714D01*
X79547619Y-70488095D01*
X79642857Y-70440476D01*
X79738095Y-70440476D01*
X79833333Y-70488095D01*
X79880952Y-70535714D01*
X79928571Y-70630952D01*
X79928571Y-70964286D01*
X79452381Y-70059524D02*
X79452381Y-69392857D01*
X80452381Y-70059524D01*
X80452381Y-69392857D01*
X79547619Y-69059524D02*
X79500000Y-69011905D01*
X79452381Y-68916667D01*
X79452381Y-68678571D01*
X79500000Y-68583333D01*
X79547619Y-68535714D01*
X79642857Y-68488095D01*
X79738095Y-68488095D01*
X79880952Y-68535714D01*
X80452381Y-69107143D01*
X80452381Y-68488095D01*
X85271429Y-73380952D02*
X85271429Y-72619047D01*
X85652381Y-72999999D02*
X84890476Y-72999999D01*
X54833334Y-77107143D02*
X54785715Y-77154762D01*
X54642858Y-77202381D01*
X54547620Y-77202381D01*
X54404762Y-77154762D01*
X54309524Y-77059524D01*
X54261905Y-76964286D01*
X54214286Y-76773810D01*
X54214286Y-76630952D01*
X54261905Y-76440476D01*
X54309524Y-76345238D01*
X54404762Y-76250000D01*
X54547620Y-76202381D01*
X54642858Y-76202381D01*
X54785715Y-76250000D01*
X54833334Y-76297619D01*
X55785715Y-77202381D02*
X55214286Y-77202381D01*
X55500000Y-77202381D02*
X55500000Y-76202381D01*
X55404762Y-76345238D01*
X55309524Y-76440476D01*
X55214286Y-76488095D01*
X63833334Y-77107143D02*
X63785715Y-77154762D01*
X63642858Y-77202381D01*
X63547620Y-77202381D01*
X63404762Y-77154762D01*
X63309524Y-77059524D01*
X63261905Y-76964286D01*
X63214286Y-76773810D01*
X63214286Y-76630952D01*
X63261905Y-76440476D01*
X63309524Y-76345238D01*
X63404762Y-76250000D01*
X63547620Y-76202381D01*
X63642858Y-76202381D01*
X63785715Y-76250000D01*
X63833334Y-76297619D01*
X64214286Y-76297619D02*
X64261905Y-76250000D01*
X64357143Y-76202381D01*
X64595239Y-76202381D01*
X64690477Y-76250000D01*
X64738096Y-76297619D01*
X64785715Y-76392857D01*
X64785715Y-76488095D01*
X64738096Y-76630952D01*
X64166667Y-77202381D01*
X64785715Y-77202381D01*
X72833334Y-77107143D02*
X72785715Y-77154762D01*
X72642858Y-77202381D01*
X72547620Y-77202381D01*
X72404762Y-77154762D01*
X72309524Y-77059524D01*
X72261905Y-76964286D01*
X72214286Y-76773810D01*
X72214286Y-76630952D01*
X72261905Y-76440476D01*
X72309524Y-76345238D01*
X72404762Y-76250000D01*
X72547620Y-76202381D01*
X72642858Y-76202381D01*
X72785715Y-76250000D01*
X72833334Y-76297619D01*
X73166667Y-76202381D02*
X73785715Y-76202381D01*
X73452381Y-76583333D01*
X73595239Y-76583333D01*
X73690477Y-76630952D01*
X73738096Y-76678571D01*
X73785715Y-76773810D01*
X73785715Y-77011905D01*
X73738096Y-77107143D01*
X73690477Y-77154762D01*
X73595239Y-77202381D01*
X73309524Y-77202381D01*
X73214286Y-77154762D01*
X73166667Y-77107143D01*
X81833334Y-77107143D02*
X81785715Y-77154762D01*
X81642858Y-77202381D01*
X81547620Y-77202381D01*
X81404762Y-77154762D01*
X81309524Y-77059524D01*
X81261905Y-76964286D01*
X81214286Y-76773810D01*
X81214286Y-76630952D01*
X81261905Y-76440476D01*
X81309524Y-76345238D01*
X81404762Y-76250000D01*
X81547620Y-76202381D01*
X81642858Y-76202381D01*
X81785715Y-76250000D01*
X81833334Y-76297619D01*
X82690477Y-76535714D02*
X82690477Y-77202381D01*
X82452381Y-76154762D02*
X82214286Y-76869048D01*
X82833334Y-76869048D01*
X90833334Y-77107143D02*
X90785715Y-77154762D01*
X90642858Y-77202381D01*
X90547620Y-77202381D01*
X90404762Y-77154762D01*
X90309524Y-77059524D01*
X90261905Y-76964286D01*
X90214286Y-76773810D01*
X90214286Y-76630952D01*
X90261905Y-76440476D01*
X90309524Y-76345238D01*
X90404762Y-76250000D01*
X90547620Y-76202381D01*
X90642858Y-76202381D01*
X90785715Y-76250000D01*
X90833334Y-76297619D01*
X91738096Y-76202381D02*
X91261905Y-76202381D01*
X91214286Y-76678571D01*
X91261905Y-76630952D01*
X91357143Y-76583333D01*
X91595239Y-76583333D01*
X91690477Y-76630952D01*
X91738096Y-76678571D01*
X91785715Y-76773810D01*
X91785715Y-77011905D01*
X91738096Y-77107143D01*
X91690477Y-77154762D01*
X91595239Y-77202381D01*
X91357143Y-77202381D01*
X91261905Y-77154762D01*
X91214286Y-77107143D01*
X54261905Y-79952381D02*
X54261905Y-78952381D01*
X54500000Y-78952381D01*
X54642858Y-79000000D01*
X54738096Y-79095238D01*
X54785715Y-79190476D01*
X54833334Y-79380952D01*
X54833334Y-79523810D01*
X54785715Y-79714286D01*
X54738096Y-79809524D01*
X54642858Y-79904762D01*
X54500000Y-79952381D01*
X54261905Y-79952381D01*
X55785715Y-79952381D02*
X55214286Y-79952381D01*
X55500000Y-79952381D02*
X55500000Y-78952381D01*
X55404762Y-79095238D01*
X55309524Y-79190476D01*
X55214286Y-79238095D01*
X63261905Y-79952381D02*
X63261905Y-78952381D01*
X63500000Y-78952381D01*
X63642858Y-79000000D01*
X63738096Y-79095238D01*
X63785715Y-79190476D01*
X63833334Y-79380952D01*
X63833334Y-79523810D01*
X63785715Y-79714286D01*
X63738096Y-79809524D01*
X63642858Y-79904762D01*
X63500000Y-79952381D01*
X63261905Y-79952381D01*
X64214286Y-79047619D02*
X64261905Y-79000000D01*
X64357143Y-78952381D01*
X64595239Y-78952381D01*
X64690477Y-79000000D01*
X64738096Y-79047619D01*
X64785715Y-79142857D01*
X64785715Y-79238095D01*
X64738096Y-79380952D01*
X64166667Y-79952381D01*
X64785715Y-79952381D01*
X72261905Y-79952381D02*
X72261905Y-78952381D01*
X72500000Y-78952381D01*
X72642858Y-79000000D01*
X72738096Y-79095238D01*
X72785715Y-79190476D01*
X72833334Y-79380952D01*
X72833334Y-79523810D01*
X72785715Y-79714286D01*
X72738096Y-79809524D01*
X72642858Y-79904762D01*
X72500000Y-79952381D01*
X72261905Y-79952381D01*
X73166667Y-78952381D02*
X73785715Y-78952381D01*
X73452381Y-79333333D01*
X73595239Y-79333333D01*
X73690477Y-79380952D01*
X73738096Y-79428571D01*
X73785715Y-79523810D01*
X73785715Y-79761905D01*
X73738096Y-79857143D01*
X73690477Y-79904762D01*
X73595239Y-79952381D01*
X73309524Y-79952381D01*
X73214286Y-79904762D01*
X73166667Y-79857143D01*
X81261905Y-79952381D02*
X81261905Y-78952381D01*
X81500000Y-78952381D01*
X81642858Y-79000000D01*
X81738096Y-79095238D01*
X81785715Y-79190476D01*
X81833334Y-79380952D01*
X81833334Y-79523810D01*
X81785715Y-79714286D01*
X81738096Y-79809524D01*
X81642858Y-79904762D01*
X81500000Y-79952381D01*
X81261905Y-79952381D01*
X82690477Y-79285714D02*
X82690477Y-79952381D01*
X82452381Y-78904762D02*
X82214286Y-79619048D01*
X82833334Y-79619048D01*
X90261905Y-79952381D02*
X90261905Y-78952381D01*
X90500000Y-78952381D01*
X90642858Y-79000000D01*
X90738096Y-79095238D01*
X90785715Y-79190476D01*
X90833334Y-79380952D01*
X90833334Y-79523810D01*
X90785715Y-79714286D01*
X90738096Y-79809524D01*
X90642858Y-79904762D01*
X90500000Y-79952381D01*
X90261905Y-79952381D01*
X91738096Y-78952381D02*
X91261905Y-78952381D01*
X91214286Y-79428571D01*
X91261905Y-79380952D01*
X91357143Y-79333333D01*
X91595239Y-79333333D01*
X91690477Y-79380952D01*
X91738096Y-79428571D01*
X91785715Y-79523810D01*
X91785715Y-79761905D01*
X91738096Y-79857143D01*
X91690477Y-79904762D01*
X91595239Y-79952381D01*
X91357143Y-79952381D01*
X91261905Y-79904762D01*
X91214286Y-79857143D01*
X54833334Y-74902381D02*
X54500000Y-74426190D01*
X54261905Y-74902381D02*
X54261905Y-73902381D01*
X54642858Y-73902381D01*
X54738096Y-73950000D01*
X54785715Y-73997619D01*
X54833334Y-74092857D01*
X54833334Y-74235714D01*
X54785715Y-74330952D01*
X54738096Y-74378571D01*
X54642858Y-74426190D01*
X54261905Y-74426190D01*
X55785715Y-74902381D02*
X55214286Y-74902381D01*
X55500000Y-74902381D02*
X55500000Y-73902381D01*
X55404762Y-74045238D01*
X55309524Y-74140476D01*
X55214286Y-74188095D01*
X88452381Y-39595238D02*
X87976190Y-39928572D01*
X88452381Y-40166667D02*
X87452381Y-40166667D01*
X87452381Y-39785714D01*
X87500000Y-39690476D01*
X87547619Y-39642857D01*
X87642857Y-39595238D01*
X87785714Y-39595238D01*
X87880952Y-39642857D01*
X87928571Y-39690476D01*
X87976190Y-39785714D01*
X87976190Y-40166667D01*
X87928571Y-38833333D02*
X87928571Y-39166667D01*
X88452381Y-39166667D02*
X87452381Y-39166667D01*
X87452381Y-38690476D01*
X88452381Y-37785714D02*
X88452381Y-38357143D01*
X88452381Y-38071429D02*
X87452381Y-38071429D01*
X87595238Y-38166667D01*
X87690476Y-38261905D01*
X87738095Y-38357143D01*
X58237381Y-38695238D02*
X57761190Y-39028572D01*
X58237381Y-39266667D02*
X57237381Y-39266667D01*
X57237381Y-38885714D01*
X57285000Y-38790476D01*
X57332619Y-38742857D01*
X57427857Y-38695238D01*
X57570714Y-38695238D01*
X57665952Y-38742857D01*
X57713571Y-38790476D01*
X57761190Y-38885714D01*
X57761190Y-39266667D01*
X57713571Y-37933333D02*
X57713571Y-38266667D01*
X58237381Y-38266667D02*
X57237381Y-38266667D01*
X57237381Y-37790476D01*
X57332619Y-37457143D02*
X57285000Y-37409524D01*
X57237381Y-37314286D01*
X57237381Y-37076190D01*
X57285000Y-36980952D01*
X57332619Y-36933333D01*
X57427857Y-36885714D01*
X57523095Y-36885714D01*
X57665952Y-36933333D01*
X58237381Y-37504762D01*
X58237381Y-36885714D01*
X50492381Y-55468095D02*
X49492381Y-55468095D01*
X49492381Y-55230000D01*
X49540000Y-55087142D01*
X49635238Y-54991904D01*
X49730476Y-54944285D01*
X49920952Y-54896666D01*
X50063810Y-54896666D01*
X50254286Y-54944285D01*
X50349524Y-54991904D01*
X50444762Y-55087142D01*
X50492381Y-55230000D01*
X50492381Y-55468095D01*
X49492381Y-54039523D02*
X49492381Y-54230000D01*
X49540000Y-54325238D01*
X49587619Y-54372857D01*
X49730476Y-54468095D01*
X49920952Y-54515714D01*
X50301905Y-54515714D01*
X50397143Y-54468095D01*
X50444762Y-54420476D01*
X50492381Y-54325238D01*
X50492381Y-54134761D01*
X50444762Y-54039523D01*
X50397143Y-53991904D01*
X50301905Y-53944285D01*
X50063810Y-53944285D01*
X49968571Y-53991904D01*
X49920952Y-54039523D01*
X49873333Y-54134761D01*
X49873333Y-54325238D01*
X49920952Y-54420476D01*
X49968571Y-54468095D01*
X50063810Y-54515714D01*
X53352381Y-71561905D02*
X54161905Y-71561905D01*
X54257143Y-71514286D01*
X54304762Y-71466667D01*
X54352381Y-71371429D01*
X54352381Y-71180952D01*
X54304762Y-71085714D01*
X54257143Y-71038095D01*
X54161905Y-70990476D01*
X53352381Y-70990476D01*
X53447619Y-70561905D02*
X53400000Y-70514286D01*
X53352381Y-70419048D01*
X53352381Y-70180952D01*
X53400000Y-70085714D01*
X53447619Y-70038095D01*
X53542857Y-69990476D01*
X53638095Y-69990476D01*
X53780952Y-70038095D01*
X54352381Y-70609524D01*
X54352381Y-69990476D01*
X95238095Y-30452381D02*
X95238095Y-31261905D01*
X95285714Y-31357143D01*
X95333333Y-31404762D01*
X95428571Y-31452381D01*
X95619048Y-31452381D01*
X95714286Y-31404762D01*
X95761905Y-31357143D01*
X95809524Y-31261905D01*
X95809524Y-30452381D01*
X96809524Y-31452381D02*
X96238095Y-31452381D01*
X96523809Y-31452381D02*
X96523809Y-30452381D01*
X96428571Y-30595238D01*
X96333333Y-30690476D01*
X96238095Y-30738095D01*
M02*
