G04 #@! TF.FileFunction,Copper,L2,Bot,Signal*
%FSLAX46Y46*%
G04 Gerber Fmt 4.6, Leading zero omitted, Abs format (unit mm)*
G04 Created by KiCad (PCBNEW 4.0.7) date 06/04/18 21:42:21*
%MOMM*%
%LPD*%
G01*
G04 APERTURE LIST*
%ADD10C,0.100000*%
%ADD11R,1.600000X1.600000*%
%ADD12O,1.600000X1.600000*%
%ADD13C,1.600000*%
%ADD14R,2.032000X1.727200*%
%ADD15O,2.032000X1.727200*%
%ADD16R,1.800000X1.800000*%
%ADD17C,1.800000*%
%ADD18R,1.524000X1.524000*%
%ADD19C,1.524000*%
%ADD20R,2.000000X2.000000*%
%ADD21C,2.000000*%
%ADD22R,1.700000X1.700000*%
%ADD23O,1.700000X1.700000*%
G04 APERTURE END LIST*
D10*
D11*
X62000000Y-70000000D03*
D12*
X77240000Y-36980000D03*
X62000000Y-67460000D03*
X77240000Y-39520000D03*
X62000000Y-64920000D03*
X77240000Y-42060000D03*
X62000000Y-62380000D03*
X77240000Y-44600000D03*
X62000000Y-59840000D03*
X77240000Y-47140000D03*
X62000000Y-57300000D03*
X77240000Y-49680000D03*
X62000000Y-54760000D03*
X77240000Y-52220000D03*
X62000000Y-52220000D03*
X77240000Y-54760000D03*
X62000000Y-49680000D03*
X77240000Y-57300000D03*
X62000000Y-47140000D03*
X77240000Y-59840000D03*
X62000000Y-44600000D03*
X77240000Y-62380000D03*
X62000000Y-42060000D03*
X77240000Y-64920000D03*
X62000000Y-39520000D03*
X77240000Y-67460000D03*
X62000000Y-36980000D03*
X77240000Y-70000000D03*
X62000000Y-34440000D03*
X77240000Y-34440000D03*
D11*
X87000000Y-53000000D03*
D13*
X87000000Y-59500000D03*
D11*
X87000000Y-73000000D03*
D13*
X87000000Y-66500000D03*
D14*
X84975771Y-33939293D03*
D15*
X84975771Y-36479293D03*
X84975771Y-39019293D03*
X84975771Y-41559293D03*
D14*
X53340000Y-40640000D03*
D15*
X53340000Y-38100000D03*
X53340000Y-35560000D03*
D16*
X54000000Y-56000000D03*
D17*
X54000000Y-53460000D03*
D16*
X54000000Y-62000000D03*
D17*
X54000000Y-64540000D03*
X54000000Y-67080000D03*
D18*
X96000000Y-34000000D03*
D19*
X98540000Y-34000000D03*
X96000000Y-36540000D03*
X98540000Y-36540000D03*
X96000000Y-39080000D03*
X98540000Y-39080000D03*
X96000000Y-41620000D03*
X98540000Y-41620000D03*
D20*
X98000000Y-80000000D03*
D21*
X98000000Y-67300000D03*
D22*
X68000000Y-70000000D03*
D23*
X70540000Y-70000000D03*
X68000000Y-67460000D03*
X70540000Y-67460000D03*
X68000000Y-64920000D03*
X70540000Y-64920000D03*
X68000000Y-62380000D03*
X70540000Y-62380000D03*
X68000000Y-59840000D03*
X70540000Y-59840000D03*
X68000000Y-57300000D03*
X70540000Y-57300000D03*
X68000000Y-54760000D03*
X70540000Y-54760000D03*
X68000000Y-52220000D03*
X70540000Y-52220000D03*
X68000000Y-49680000D03*
X70540000Y-49680000D03*
X68000000Y-47140000D03*
X70540000Y-47140000D03*
X68000000Y-44600000D03*
X70540000Y-44600000D03*
X68000000Y-42060000D03*
X70540000Y-42060000D03*
X68000000Y-39520000D03*
X70540000Y-39520000D03*
X68000000Y-36980000D03*
X70540000Y-36980000D03*
X68000000Y-34440000D03*
X70540000Y-34440000D03*
M02*
