M48
;DRILL file {KiCad 4.0.7} date 2018 July 03, Tuesday 14:33:34
;FORMAT={-:-/ absolute / inch / decimal}
FMAT,2
INCH,TZ
T1C0.016
T2C0.024
T3C0.030
T4C0.031
T5C0.035
T6C0.039
T7C0.040
T8C0.043
T9C0.169
%
G90
G05
M72
T1
X0.3824Y-1.4486
X0.4071Y-1.3122
X0.498Y-1.2402
X0.5598Y-1.456
X0.6299Y-1.1811
X0.8508Y-1.8266
X0.8923Y-1.1876
X0.9185Y-0.751
X0.9197Y-1.5778
X0.9252Y-0.6299
X0.9702Y-1.5408
X0.9707Y-1.6874
X0.9986Y-2.7146
X1.0217Y-0.6286
X1.1008Y-1.638
X1.1024Y-0.4724
X1.1098Y-0.7406
X1.2795Y-0.9055
X1.322Y-2.5596
X1.3976Y-0.7874
X1.4344Y-2.1047
X1.5581Y-1.102
X1.6535Y-2.3228
X1.6732Y-0.8858
X1.7323Y-2.8346
X1.811Y-3.1631
X1.8553Y-3.249
X1.9255Y-0.9865
X1.9448Y-2.9291
X1.9583Y-3.0487
X2.0449Y-2.9281
X2.0472Y-2.7953
X2.0671Y-3.0305
X2.074Y-1.6981
X2.1063Y-2.8248
X2.1584Y-2.1026
X2.2468Y-2.8524
X2.2537Y-2.3885
X2.2749Y-2.5849
X2.2981Y-2.7239
X2.4286Y-2.1759
X2.4636Y-2.4281
X2.4746Y-2.4719
X2.5067Y-1.593
X2.5078Y-1.3112
X2.5394Y-2.5394
X2.6011Y-2.5039
X2.6243Y-2.6257
X2.6371Y-2.7908
X2.6575Y-2.3228
X2.6973Y-2.3578
X2.7479Y-2.1216
X2.7559Y-1.7165
X2.7622Y-1.2368
X2.7717Y-2.3228
X2.8346Y-2.1654
X2.8719Y-2.7341
X2.8767Y-2.1447
X2.8899Y-1.9605
X2.9331Y-2.4213
X2.9626Y-2.0669
X2.9666Y-1.2654
X2.9666Y-1.5571
X3.0118Y-1.2205
X3.0118Y-2.7165
X3.0433Y-1.9213
X3.0551Y-2.1969
X3.0709Y-2.0965
X3.0959Y-2.154
X3.126Y-2.2835
X3.3364Y-1.5393
X3.3364Y-1.7941
T2
X0.1368Y-0.56
X0.174Y-0.4703
X0.174Y-0.6498
X0.2638Y-0.4331
X0.2638Y-0.687
X0.3536Y-0.4703
X0.3536Y-0.6498
X0.3907Y-0.56
T3
X0.44Y-0.2382
X0.5107Y-0.1675
X0.5107Y-0.3089
X0.5814Y-0.2382
X0.5814Y-0.3796
X0.6521Y-0.3089
X0.6521Y-0.4503
X0.7228Y-0.3796
T4
X0.626Y-1.9724
X0.6967Y-1.9017
X0.7674Y-1.831
X0.8381Y-1.7603
X0.9055Y-1.3583
X0.9088Y-1.6896
X0.9795Y-1.6189
X1.0447Y-1.2191
X1.0502Y-1.5482
X1.0502Y-2.3967
X1.121Y-1.4775
X1.121Y-2.326
X1.1917Y-1.4068
X1.1917Y-2.2553
X1.2624Y-1.336
X1.2624Y-2.1846
X1.3331Y-1.2653
X1.3331Y-2.1139
X1.4038Y-1.1946
X1.4038Y-2.0432
X1.4745Y-1.1239
X1.4745Y-1.9724
X1.5452Y-1.0532
X1.5452Y-1.9017
X1.6159Y-0.9825
X1.6159Y-1.831
X1.6866Y-1.7603
X1.7574Y-1.6896
X1.8281Y-1.6189
X1.8988Y-1.5482
X1.9695Y-1.4775
X2.0402Y-1.4068
T5
X1.1992Y-0.5118
X1.2992Y-0.5118
X1.4535Y-0.5512
X1.5535Y-0.5512
X1.6535Y-0.5512
T6
X0.5906Y-2.5984
X0.7715Y-2.7794
X1.071Y-2.9134
X1.1417Y-2.8427
X1.1417Y-2.9841
X1.2124Y-2.9134
X1.4961Y-2.2047
X1.8898Y-1.811
X2.2994Y-0.9214
X2.4803Y-1.1024
X3.065Y-1.4154
X3.0905Y-1.5528
X3.1079Y-1.6513
X3.1252Y-1.7498
X3.1426Y-1.8482
X3.16Y-1.9467
X3.1773Y-2.0452
X3.189Y-1.5354
X3.1947Y-2.1437
X3.2063Y-1.6339
X3.212Y-2.2422
X3.2237Y-1.7324
X3.2294Y-2.3406
X3.2411Y-1.8309
X3.2468Y-2.4391
X3.2584Y-1.9294
X3.2641Y-2.5376
X3.2758Y-2.0278
X3.2815Y-2.6361
X3.2932Y-2.1263
X3.2989Y-2.7346
X3.3105Y-2.2248
X3.3162Y-2.833
X3.3279Y-2.3233
X3.3336Y-2.9315
X3.3453Y-2.4218
X3.3626Y-2.5202
X3.38Y-2.6187
X3.3974Y-2.7172
X3.4147Y-2.8157
X3.4321Y-2.9142
T7
X0.2362Y-1.1008
X0.2362Y-1.2008
X0.2362Y-1.3008
X0.2569Y-1.6906
X0.2569Y-1.7906
X0.2569Y-1.8906
X0.2569Y-1.9906
T8
X2.0079Y-3.3071
X2.1331Y-3.4324
X2.1888Y-3.1261
X2.3141Y-3.2514
X2.3622Y-3.1496
X2.4875Y-3.2749
X2.5432Y-2.9687
X2.6378Y-2.874
X2.6684Y-3.0939
X2.7631Y-2.9993
X2.7953Y-2.5197
X2.8187Y-2.6931
X2.9206Y-2.645
X2.944Y-2.8183
X2.9762Y-2.3387
X3.1015Y-2.464
T9
X0.2638Y-0.56
T0
M30
