M48
;DRILL file {KiCad 4.0.7} date 06/12/18 01:34:01
;FORMAT={-:-/ absolute / metric / decimal}
FMAT,2
METRIC,TZ
T1C0.762
T2C0.800
T3C0.900
T4C1.000
T5C1.016
T6C1.100
%
G90
G05
M71
T1
X9.204Y-11.204
X11.Y-9.408
X11.Y-13.
X12.796Y-7.612
X12.796Y-11.204
X14.592Y-5.816
X14.592Y-9.408
X16.388Y-7.612
T2
X23.Y-34.5
X26.536Y-30.964
T3
X30.46Y-13.
X33.Y-13.
X36.92Y-14.
X39.46Y-14.
X42.Y-14.
T4
X15.Y-66.
X19.596Y-70.596
X27.204Y-74.
X29.Y-72.204
X29.Y-75.796
X30.796Y-74.
X38.Y-56.
X48.Y-46.
X58.404Y-23.404
X63.Y-28.
X78.499Y-39.441
X78.94Y-41.942
X79.381Y-44.444
X79.822Y-46.945
X80.263Y-49.447
X80.704Y-51.948
X81.Y-39.
X81.145Y-54.45
X81.441Y-41.501
X81.586Y-56.951
X81.882Y-44.003
X82.027Y-59.452
X82.323Y-46.504
X82.468Y-61.954
X82.764Y-49.006
X82.909Y-64.455
X83.205Y-51.507
X83.35Y-66.957
X83.646Y-54.008
X83.791Y-69.458
X84.087Y-56.51
X84.232Y-71.959
X84.529Y-59.011
X84.674Y-74.461
X84.97Y-61.513
X85.411Y-64.014
X85.852Y-66.516
X86.293Y-69.017
X86.734Y-71.518
X87.175Y-74.02
T5
X5.Y-18.46
X5.Y-21.
X5.Y-23.54
X5.024Y-34.441
X5.024Y-36.981
X5.024Y-39.521
X5.024Y-42.061
T6
X51.Y-84.
X54.182Y-87.182
X55.596Y-79.404
X58.778Y-82.586
X60.Y-80.
X63.182Y-83.182
X64.596Y-75.404
X67.Y-73.
X67.778Y-78.586
X70.182Y-76.182
X71.Y-64.
X71.596Y-68.404
X74.182Y-67.182
X74.778Y-71.586
X75.596Y-59.404
X78.778Y-62.586
T0
M30
