G04 #@! TF.FileFunction,Paste,Bot*
%FSLAX46Y46*%
G04 Gerber Fmt 4.6, Leading zero omitted, Abs format (unit mm)*
G04 Created by KiCad (PCBNEW 4.0.7) date 06/12/18 01:33:59*
%MOMM*%
%LPD*%
G01*
G04 APERTURE LIST*
%ADD10C,0.100000*%
%ADD11R,1.200000X0.750000*%
%ADD12R,1.200000X0.900000*%
G04 APERTURE END LIST*
D10*
D11*
X24050000Y-15000000D03*
X25950000Y-15000000D03*
D10*
G36*
X12169150Y-58361180D02*
X11638820Y-57830850D01*
X12487348Y-56982322D01*
X13017678Y-57512652D01*
X12169150Y-58361180D01*
X12169150Y-58361180D01*
G37*
G36*
X13512652Y-57017678D02*
X12982322Y-56487348D01*
X13830850Y-55638820D01*
X14361180Y-56169150D01*
X13512652Y-57017678D01*
X13512652Y-57017678D01*
G37*
D11*
X8050000Y-29000000D03*
X9950000Y-29000000D03*
D10*
G36*
X45169150Y-80361180D02*
X44638820Y-79830850D01*
X45487348Y-78982322D01*
X46017678Y-79512652D01*
X45169150Y-80361180D01*
X45169150Y-80361180D01*
G37*
G36*
X46512652Y-79017678D02*
X45982322Y-78487348D01*
X46830850Y-77638820D01*
X47361180Y-78169150D01*
X46512652Y-79017678D01*
X46512652Y-79017678D01*
G37*
G36*
X54169150Y-73361180D02*
X53638820Y-72830850D01*
X54487348Y-71982322D01*
X55017678Y-72512652D01*
X54169150Y-73361180D01*
X54169150Y-73361180D01*
G37*
G36*
X55512652Y-72017678D02*
X54982322Y-71487348D01*
X55830850Y-70638820D01*
X56361180Y-71169150D01*
X55512652Y-72017678D01*
X55512652Y-72017678D01*
G37*
G36*
X63169150Y-64361180D02*
X62638820Y-63830850D01*
X63487348Y-62982322D01*
X64017678Y-63512652D01*
X63169150Y-64361180D01*
X63169150Y-64361180D01*
G37*
G36*
X64512652Y-63017678D02*
X63982322Y-62487348D01*
X64830850Y-61638820D01*
X65361180Y-62169150D01*
X64512652Y-63017678D01*
X64512652Y-63017678D01*
G37*
G36*
X70169150Y-55361180D02*
X69638820Y-54830850D01*
X70487348Y-53982322D01*
X71017678Y-54512652D01*
X70169150Y-55361180D01*
X70169150Y-55361180D01*
G37*
G36*
X71512652Y-54017678D02*
X70982322Y-53487348D01*
X71830850Y-52638820D01*
X72361180Y-53169150D01*
X71512652Y-54017678D01*
X71512652Y-54017678D01*
G37*
D12*
X37900000Y-20000000D03*
X40100000Y-20000000D03*
M02*
