G04 #@! TF.FileFunction,Copper,L2,Bot,Signal*
%FSLAX46Y46*%
G04 Gerber Fmt 4.6, Leading zero omitted, Abs format (unit mm)*
G04 Created by KiCad (PCBNEW 4.0.7) date 06/14/18 23:49:54*
%MOMM*%
%LPD*%
G01*
G04 APERTURE LIST*
%ADD10C,0.100000*%
%ADD11C,1.600000*%
%ADD12R,1.200000X0.750000*%
%ADD13R,1.800000X1.800000*%
%ADD14C,1.800000*%
%ADD15C,1.700000*%
%ADD16R,1.200000X0.900000*%
%ADD17R,2.032000X1.727200*%
%ADD18O,2.032000X1.727200*%
%ADD19C,2.000000*%
%ADD20C,1.524000*%
%ADD21C,1.700000*%
%ADD22C,1.600000*%
%ADD23C,8.600000*%
%ADD24C,0.900000*%
%ADD25C,0.254000*%
G04 APERTURE END LIST*
D10*
G36*
X64131371Y-28000000D02*
X63000000Y-29131371D01*
X61868629Y-28000000D01*
X63000000Y-26868629D01*
X64131371Y-28000000D01*
X64131371Y-28000000D01*
G37*
D11*
X58403806Y-23403806D03*
D10*
G36*
X13868629Y-66000000D02*
X15000000Y-64868629D01*
X16131371Y-66000000D01*
X15000000Y-67131371D01*
X13868629Y-66000000D01*
X13868629Y-66000000D01*
G37*
D11*
X19596194Y-70596194D03*
D12*
X24050000Y-15000000D03*
X25950000Y-15000000D03*
D10*
G36*
X68138820Y-31169150D02*
X68669150Y-30638820D01*
X69517678Y-31487348D01*
X68987348Y-32017678D01*
X68138820Y-31169150D01*
X68138820Y-31169150D01*
G37*
G36*
X69482322Y-32512652D02*
X70012652Y-31982322D01*
X70861180Y-32830850D01*
X70330850Y-33361180D01*
X69482322Y-32512652D01*
X69482322Y-32512652D01*
G37*
D12*
X11050000Y-37000000D03*
X12950000Y-37000000D03*
D10*
G36*
X45169150Y-80361180D02*
X44638820Y-79830850D01*
X45487348Y-78982322D01*
X46017678Y-79512652D01*
X45169150Y-80361180D01*
X45169150Y-80361180D01*
G37*
G36*
X46512652Y-79017678D02*
X45982322Y-78487348D01*
X46830850Y-77638820D01*
X47361180Y-78169150D01*
X46512652Y-79017678D01*
X46512652Y-79017678D01*
G37*
G36*
X54169150Y-73361180D02*
X53638820Y-72830850D01*
X54487348Y-71982322D01*
X55017678Y-72512652D01*
X54169150Y-73361180D01*
X54169150Y-73361180D01*
G37*
G36*
X55512652Y-72017678D02*
X54982322Y-71487348D01*
X55830850Y-70638820D01*
X56361180Y-71169150D01*
X55512652Y-72017678D01*
X55512652Y-72017678D01*
G37*
G36*
X63169150Y-64361180D02*
X62638820Y-63830850D01*
X63487348Y-62982322D01*
X64017678Y-63512652D01*
X63169150Y-64361180D01*
X63169150Y-64361180D01*
G37*
G36*
X64512652Y-63017678D02*
X63982322Y-62487348D01*
X64830850Y-61638820D01*
X65361180Y-62169150D01*
X64512652Y-63017678D01*
X64512652Y-63017678D01*
G37*
G36*
X70169150Y-55361180D02*
X69638820Y-54830850D01*
X70487348Y-53982322D01*
X71017678Y-54512652D01*
X70169150Y-55361180D01*
X70169150Y-55361180D01*
G37*
G36*
X71512652Y-54017678D02*
X70982322Y-53487348D01*
X71830850Y-52638820D01*
X72361180Y-53169150D01*
X71512652Y-54017678D01*
X71512652Y-54017678D01*
G37*
D13*
X33000000Y-13000000D03*
D14*
X30460000Y-13000000D03*
D10*
G36*
X81689486Y-38015312D02*
X81984688Y-39689486D01*
X80310514Y-39984688D01*
X80015312Y-38310514D01*
X81689486Y-38015312D01*
X81689486Y-38015312D01*
G37*
D15*
X78498588Y-39441066D02*
X78498588Y-39441066D01*
X81441066Y-41501412D02*
X81441066Y-41501412D01*
X78939655Y-41942478D02*
X78939655Y-41942478D01*
X81882133Y-44002823D02*
X81882133Y-44002823D01*
X79380721Y-44443890D02*
X79380721Y-44443890D01*
X82323199Y-46504235D02*
X82323199Y-46504235D01*
X79821787Y-46945301D02*
X79821787Y-46945301D01*
X82764265Y-49005647D02*
X82764265Y-49005647D01*
X80262854Y-49446713D02*
X80262854Y-49446713D01*
X83205332Y-51507058D02*
X83205332Y-51507058D01*
X80703920Y-51948125D02*
X80703920Y-51948125D01*
X83646398Y-54008470D02*
X83646398Y-54008470D01*
X81144987Y-54449537D02*
X81144987Y-54449537D01*
X84087465Y-56509882D02*
X84087465Y-56509882D01*
X81586053Y-56950948D02*
X81586053Y-56950948D01*
X84528531Y-59011294D02*
X84528531Y-59011294D01*
X82027119Y-59452360D02*
X82027119Y-59452360D01*
X84969597Y-61512705D02*
X84969597Y-61512705D01*
X82468186Y-61953772D02*
X82468186Y-61953772D01*
X85410664Y-64014117D02*
X85410664Y-64014117D01*
X82909252Y-64455183D02*
X82909252Y-64455183D01*
X85851730Y-66515529D02*
X85851730Y-66515529D01*
X83350318Y-66956595D02*
X83350318Y-66956595D01*
X86292796Y-69016940D02*
X86292796Y-69016940D01*
X83791385Y-69458007D02*
X83791385Y-69458007D01*
X86733863Y-71518352D02*
X86733863Y-71518352D01*
X84232451Y-71959418D02*
X84232451Y-71959418D01*
X87174929Y-74019764D02*
X87174929Y-74019764D01*
X84673518Y-74460830D02*
X84673518Y-74460830D01*
D16*
X37900000Y-20000000D03*
X40100000Y-20000000D03*
D17*
X6000000Y-33040000D03*
D18*
X6000000Y-30500000D03*
X6000000Y-27960000D03*
D17*
X6524229Y-50560707D03*
D18*
X6524229Y-48020707D03*
X6524229Y-45480707D03*
X6524229Y-42940707D03*
D19*
X54181981Y-87181981D03*
X51000000Y-84000000D03*
X58778175Y-82585786D03*
X55596194Y-79403806D03*
X63181981Y-83181981D03*
X60000000Y-80000000D03*
X67778175Y-78585786D03*
X64596194Y-75403806D03*
X70181981Y-76181981D03*
X67000000Y-73000000D03*
X74778175Y-71585786D03*
X71596194Y-68403806D03*
X74181981Y-67181981D03*
X71000000Y-64000000D03*
X78778175Y-62585786D03*
X75596194Y-59403806D03*
D13*
X42000000Y-14000000D03*
D14*
X39460000Y-14000000D03*
X36920000Y-14000000D03*
D10*
G36*
X11175000Y-7127631D02*
X10097369Y-6050000D01*
X11175000Y-4972369D01*
X12252631Y-6050000D01*
X11175000Y-7127631D01*
X11175000Y-7127631D01*
G37*
D20*
X12971051Y-4253949D03*
X12971051Y-7846051D03*
X14767102Y-6050000D03*
X14767102Y-9642102D03*
X16563154Y-7846051D03*
X16563154Y-11438154D03*
X18359205Y-9642102D03*
D11*
X23000000Y-34500000D03*
X26535534Y-30964466D03*
D10*
G36*
X38000000Y-57202082D02*
X36797918Y-56000000D01*
X38000000Y-54797918D01*
X39202082Y-56000000D01*
X38000000Y-57202082D01*
X38000000Y-57202082D01*
G37*
G36*
X48000000Y-47202082D02*
X46797918Y-46000000D01*
X48000000Y-44797918D01*
X49202082Y-46000000D01*
X48000000Y-47202082D01*
X48000000Y-47202082D01*
G37*
D21*
X29000000Y-72203949D03*
D15*
X30796051Y-74000000D02*
X30796051Y-74000000D01*
X27203949Y-74000000D02*
X27203949Y-74000000D01*
X29000000Y-75796051D02*
X29000000Y-75796051D01*
D10*
G36*
X78539486Y-34965312D02*
X78834688Y-36639486D01*
X77160514Y-36934688D01*
X76865312Y-35260514D01*
X78539486Y-34965312D01*
X78539486Y-34965312D01*
G37*
G36*
X14768629Y-50100000D02*
X15900000Y-48968629D01*
X17031371Y-50100000D01*
X15900000Y-51231371D01*
X14768629Y-50100000D01*
X14768629Y-50100000D01*
G37*
D22*
X50024973Y-37527641D02*
X50024973Y-37527641D01*
X17696051Y-48303949D02*
X17696051Y-48303949D01*
X48228922Y-39323693D02*
X48228922Y-39323693D01*
X19492102Y-46507898D02*
X19492102Y-46507898D01*
X46432871Y-41119744D02*
X46432871Y-41119744D01*
X21288154Y-44711846D02*
X21288154Y-44711846D01*
X44636820Y-42915795D02*
X44636820Y-42915795D01*
X23084205Y-42915795D02*
X23084205Y-42915795D01*
X42840768Y-44711846D02*
X42840768Y-44711846D01*
X24880256Y-41119744D02*
X24880256Y-41119744D01*
X41044717Y-46507898D02*
X41044717Y-46507898D01*
X26676307Y-39323693D02*
X26676307Y-39323693D01*
X39248666Y-48303949D02*
X39248666Y-48303949D01*
X28472359Y-37527641D02*
X28472359Y-37527641D01*
X37452615Y-50100000D02*
X37452615Y-50100000D01*
X30268410Y-35731590D02*
X30268410Y-35731590D01*
X35656563Y-51896051D02*
X35656563Y-51896051D01*
X32064461Y-33935539D02*
X32064461Y-33935539D01*
X33860512Y-53692102D02*
X33860512Y-53692102D01*
X33860512Y-32139488D02*
X33860512Y-32139488D01*
X32064461Y-55488154D02*
X32064461Y-55488154D01*
X35656563Y-30343437D02*
X35656563Y-30343437D01*
X30268410Y-57284205D02*
X30268410Y-57284205D01*
X37452615Y-28547385D02*
X37452615Y-28547385D01*
X28472359Y-59080256D02*
X28472359Y-59080256D01*
X39248666Y-26751334D02*
X39248666Y-26751334D01*
X26676307Y-60876307D02*
X26676307Y-60876307D01*
X41044717Y-24955283D02*
X41044717Y-24955283D01*
X51821024Y-35731590D02*
X51821024Y-35731590D01*
D23*
X6700000Y-14225000D03*
D24*
X9925000Y-14225000D03*
X8980419Y-16505419D03*
X6700000Y-17450000D03*
X4419581Y-16505419D03*
X3475000Y-14225000D03*
X4419581Y-11944581D03*
X6700000Y-11000000D03*
X8980419Y-11944581D03*
D25*
G36*
X18318547Y-4452591D02*
X20390852Y-7166324D01*
X20785088Y-8004076D01*
X20786408Y-8006796D01*
X22936408Y-12306796D01*
X22967454Y-12346515D01*
X23011507Y-12371026D01*
X23050000Y-12377000D01*
X25800000Y-12377000D01*
X25808090Y-12376742D01*
X29145173Y-12163737D01*
X28925267Y-12693330D01*
X28924735Y-13303991D01*
X29157932Y-13868371D01*
X29589357Y-14300551D01*
X30153330Y-14534733D01*
X30763991Y-14535265D01*
X31328371Y-14302068D01*
X31505841Y-14124908D01*
X31561673Y-14259699D01*
X31740302Y-14438327D01*
X31973691Y-14535000D01*
X32714250Y-14535000D01*
X32873000Y-14376250D01*
X32873000Y-13127000D01*
X33127000Y-13127000D01*
X33127000Y-14376250D01*
X33285750Y-14535000D01*
X34026309Y-14535000D01*
X34259698Y-14438327D01*
X34438327Y-14259699D01*
X34535000Y-14026310D01*
X34535000Y-13759336D01*
X35373542Y-13759336D01*
X35399161Y-14369460D01*
X35583357Y-14814148D01*
X35839841Y-14900554D01*
X36740395Y-14000000D01*
X35839841Y-13099446D01*
X35583357Y-13185852D01*
X35373542Y-13759336D01*
X34535000Y-13759336D01*
X34535000Y-13285750D01*
X34376250Y-13127000D01*
X33127000Y-13127000D01*
X32873000Y-13127000D01*
X32853000Y-13127000D01*
X32853000Y-12873000D01*
X32873000Y-12873000D01*
X32873000Y-12853000D01*
X33127000Y-12853000D01*
X33127000Y-12873000D01*
X34376250Y-12873000D01*
X34535000Y-12714250D01*
X34535000Y-12226532D01*
X34536299Y-12226580D01*
X36363743Y-12556535D01*
X36105852Y-12663357D01*
X36019446Y-12919841D01*
X36920000Y-13820395D01*
X37820554Y-12919841D01*
X37784586Y-12813076D01*
X38121455Y-12873899D01*
X38350751Y-12938389D01*
X38159449Y-13129357D01*
X38150797Y-13150194D01*
X38000159Y-13099446D01*
X37099605Y-14000000D01*
X38000159Y-14900554D01*
X38150327Y-14849965D01*
X38157932Y-14868371D01*
X38589357Y-15300551D01*
X39153330Y-15534733D01*
X39763991Y-15535265D01*
X40328371Y-15302068D01*
X40496613Y-15134120D01*
X40496838Y-15135317D01*
X40635910Y-15351441D01*
X40848110Y-15496431D01*
X41100000Y-15547440D01*
X42900000Y-15547440D01*
X43135317Y-15503162D01*
X43351441Y-15364090D01*
X43496431Y-15151890D01*
X43547440Y-14900000D01*
X43547440Y-14658634D01*
X44448083Y-15016032D01*
X47437802Y-16510891D01*
X49406804Y-17741517D01*
X51036333Y-20457399D01*
X52032769Y-22848846D01*
X52035905Y-22855780D01*
X53134868Y-25103659D01*
X57829650Y-35691890D01*
X58224567Y-37222195D01*
X58472098Y-39747014D01*
X58077590Y-42459260D01*
X56542923Y-45281068D01*
X53952649Y-48718162D01*
X50309619Y-52610715D01*
X46614590Y-56155945D01*
X43070556Y-59200820D01*
X39929749Y-61543961D01*
X37297507Y-63083574D01*
X33380341Y-64372768D01*
X29016831Y-64323183D01*
X25937817Y-63528599D01*
X24444437Y-62981026D01*
X20895142Y-61631294D01*
X20886191Y-61628266D01*
X19036191Y-61078266D01*
X19032604Y-61077256D01*
X18201252Y-60856428D01*
X25221428Y-60856428D01*
X25330661Y-61405578D01*
X25641730Y-61871126D01*
X25681488Y-61910884D01*
X26147035Y-62221953D01*
X26696186Y-62331185D01*
X27245336Y-62221953D01*
X27710884Y-61910884D01*
X28021953Y-61445336D01*
X28131185Y-60896186D01*
X28036273Y-60419029D01*
X28262168Y-60499789D01*
X28821400Y-60472170D01*
X29209776Y-60311289D01*
X29280522Y-60068024D01*
X28472359Y-59259861D01*
X28458217Y-59274004D01*
X28278612Y-59094399D01*
X28292754Y-59080256D01*
X27484591Y-58272093D01*
X27241326Y-58342839D01*
X27080445Y-58731215D01*
X27052826Y-59290447D01*
X27133586Y-59516341D01*
X26656428Y-59421428D01*
X26107278Y-59530661D01*
X25641730Y-59841730D01*
X25330661Y-60307278D01*
X25221428Y-60856428D01*
X18201252Y-60856428D01*
X15832604Y-60227256D01*
X12095222Y-59230621D01*
X10039021Y-58202521D01*
X9970906Y-58092488D01*
X27664196Y-58092488D01*
X28472359Y-58900651D01*
X28486502Y-58886509D01*
X28666107Y-59066114D01*
X28651964Y-59080256D01*
X29460127Y-59888419D01*
X29703392Y-59817673D01*
X29864273Y-59429297D01*
X29891892Y-58870065D01*
X29811132Y-58644171D01*
X30288289Y-58739083D01*
X30837439Y-58629851D01*
X31302987Y-58318782D01*
X31614056Y-57853234D01*
X31723288Y-57304084D01*
X31633639Y-56853383D01*
X32084340Y-56943032D01*
X32633490Y-56833800D01*
X33099038Y-56522731D01*
X33410107Y-56057183D01*
X33423260Y-55991056D01*
X36150540Y-55991056D01*
X36198064Y-56243627D01*
X36340109Y-56457809D01*
X37542191Y-57659891D01*
X37739894Y-57794976D01*
X37991056Y-57849460D01*
X38243627Y-57801936D01*
X38457809Y-57659891D01*
X39659891Y-56457809D01*
X39794976Y-56260106D01*
X39849460Y-56008944D01*
X39801936Y-55756373D01*
X39659891Y-55542191D01*
X38457809Y-54340109D01*
X38260106Y-54205024D01*
X38008944Y-54150540D01*
X37756373Y-54198064D01*
X37542191Y-54340109D01*
X36340109Y-55542191D01*
X36205024Y-55739894D01*
X36150540Y-55991056D01*
X33423260Y-55991056D01*
X33519339Y-55508033D01*
X33429689Y-55057331D01*
X33880391Y-55146980D01*
X34429541Y-55037748D01*
X34895089Y-54726679D01*
X35206158Y-54261131D01*
X35315390Y-53711981D01*
X35225741Y-53261280D01*
X35676442Y-53350929D01*
X36225592Y-53241697D01*
X36691140Y-52930628D01*
X37002209Y-52465080D01*
X37111441Y-51915930D01*
X37021792Y-51465228D01*
X37472494Y-51554878D01*
X38021644Y-51445646D01*
X38487192Y-51134577D01*
X38798261Y-50669029D01*
X38907493Y-50119879D01*
X38817844Y-49669178D01*
X39268545Y-49758827D01*
X39817695Y-49649595D01*
X40283243Y-49338526D01*
X40594312Y-48872978D01*
X40703544Y-48323828D01*
X40613895Y-47873127D01*
X41064596Y-47962776D01*
X41613746Y-47853544D01*
X42079294Y-47542475D01*
X42390363Y-47076927D01*
X42400174Y-47027603D01*
X47152002Y-47027603D01*
X47152002Y-47252109D01*
X47640302Y-47740409D01*
X47873691Y-47837082D01*
X48126310Y-47837081D01*
X48359699Y-47740408D01*
X48847998Y-47252109D01*
X48847998Y-47027603D01*
X48000000Y-46179605D01*
X47152002Y-47027603D01*
X42400174Y-47027603D01*
X42499595Y-46527777D01*
X42409945Y-46077075D01*
X42860647Y-46166724D01*
X43063828Y-46126309D01*
X46162918Y-46126309D01*
X46259591Y-46359698D01*
X46747891Y-46847998D01*
X46972397Y-46847998D01*
X47820395Y-46000000D01*
X48179605Y-46000000D01*
X49027603Y-46847998D01*
X49252109Y-46847998D01*
X49740408Y-46359699D01*
X49837081Y-46126310D01*
X49837082Y-45873691D01*
X49740409Y-45640302D01*
X49252109Y-45152002D01*
X49027603Y-45152002D01*
X48179605Y-46000000D01*
X47820395Y-46000000D01*
X46972397Y-45152002D01*
X46747891Y-45152002D01*
X46259592Y-45640301D01*
X46162919Y-45873690D01*
X46162918Y-46126309D01*
X43063828Y-46126309D01*
X43409797Y-46057492D01*
X43875345Y-45746423D01*
X44186414Y-45280875D01*
X44292430Y-44747891D01*
X47152002Y-44747891D01*
X47152002Y-44972397D01*
X48000000Y-45820395D01*
X48847998Y-44972397D01*
X48847998Y-44747891D01*
X48359698Y-44259591D01*
X48126309Y-44162918D01*
X47873690Y-44162919D01*
X47640301Y-44259592D01*
X47152002Y-44747891D01*
X44292430Y-44747891D01*
X44295646Y-44731725D01*
X44205997Y-44281023D01*
X44656699Y-44370673D01*
X45205849Y-44261441D01*
X45671397Y-43950372D01*
X45982466Y-43484824D01*
X46091698Y-42935674D01*
X46002049Y-42484973D01*
X46452750Y-42574622D01*
X47001900Y-42465390D01*
X47467448Y-42154321D01*
X47778517Y-41688773D01*
X47887749Y-41139623D01*
X47798100Y-40688922D01*
X48248801Y-40778571D01*
X48797951Y-40669339D01*
X49263499Y-40358270D01*
X49574568Y-39892722D01*
X49683800Y-39343572D01*
X49594150Y-38892870D01*
X50044852Y-38982519D01*
X50594002Y-38873287D01*
X51059550Y-38562218D01*
X51370619Y-38096670D01*
X51479851Y-37547520D01*
X51390202Y-37096819D01*
X51840903Y-37186468D01*
X52390053Y-37077236D01*
X52855601Y-36766167D01*
X53166670Y-36300619D01*
X53275902Y-35751469D01*
X53166670Y-35202318D01*
X52855601Y-34736771D01*
X52815843Y-34697013D01*
X52350295Y-34385944D01*
X51801145Y-34276711D01*
X51251995Y-34385944D01*
X50786447Y-34697013D01*
X50475378Y-35162561D01*
X50366145Y-35711711D01*
X50455795Y-36162412D01*
X50005094Y-36072762D01*
X49455944Y-36181995D01*
X48990396Y-36493064D01*
X48679327Y-36958612D01*
X48570094Y-37507762D01*
X48659744Y-37958464D01*
X48209043Y-37868814D01*
X47659893Y-37978047D01*
X47194345Y-38289116D01*
X46883276Y-38754664D01*
X46774043Y-39303814D01*
X46863693Y-39754515D01*
X46412992Y-39664865D01*
X45863842Y-39774098D01*
X45398294Y-40085167D01*
X45087225Y-40550715D01*
X44977992Y-41099865D01*
X45067642Y-41550566D01*
X44616941Y-41460916D01*
X44067791Y-41570149D01*
X43602243Y-41881218D01*
X43291174Y-42346766D01*
X43181941Y-42895916D01*
X43271591Y-43346617D01*
X42820889Y-43256967D01*
X42271739Y-43366200D01*
X41806191Y-43677269D01*
X41495122Y-44142817D01*
X41385889Y-44691967D01*
X41475539Y-45142669D01*
X41024838Y-45053019D01*
X40475688Y-45162252D01*
X40010140Y-45473321D01*
X39699071Y-45938869D01*
X39589838Y-46488019D01*
X39679488Y-46938720D01*
X39228787Y-46849070D01*
X38679637Y-46958303D01*
X38214089Y-47269372D01*
X37903020Y-47734920D01*
X37793787Y-48284070D01*
X37883437Y-48734771D01*
X37432736Y-48645121D01*
X36883586Y-48754354D01*
X36418038Y-49065423D01*
X36106969Y-49530971D01*
X35997736Y-50080121D01*
X36087386Y-50530822D01*
X35636684Y-50441172D01*
X35087534Y-50550405D01*
X34621986Y-50861474D01*
X34310917Y-51327022D01*
X34201684Y-51876172D01*
X34291334Y-52326873D01*
X33840633Y-52237223D01*
X33291483Y-52346456D01*
X32825935Y-52657525D01*
X32514866Y-53123073D01*
X32405633Y-53672223D01*
X32495283Y-54122925D01*
X32044582Y-54033275D01*
X31495432Y-54142508D01*
X31029884Y-54453577D01*
X30718815Y-54919125D01*
X30609582Y-55468275D01*
X30699232Y-55918976D01*
X30248531Y-55829326D01*
X29699381Y-55938559D01*
X29233833Y-56249628D01*
X28922764Y-56715176D01*
X28813531Y-57264326D01*
X28908444Y-57741483D01*
X28682550Y-57660723D01*
X28123318Y-57688342D01*
X27734942Y-57849223D01*
X27664196Y-58092488D01*
X9970906Y-58092488D01*
X7462539Y-54040511D01*
X6587533Y-52071747D01*
X7540229Y-52071747D01*
X7775546Y-52027469D01*
X7991670Y-51888397D01*
X8136660Y-51676197D01*
X8187669Y-51424307D01*
X8187669Y-50091056D01*
X14121251Y-50091056D01*
X14168775Y-50343627D01*
X14310820Y-50557809D01*
X15442191Y-51689180D01*
X15639894Y-51824265D01*
X15891056Y-51878749D01*
X16143627Y-51831225D01*
X16357809Y-51689180D01*
X17489180Y-50557809D01*
X17624265Y-50360106D01*
X17678749Y-50108944D01*
X17631225Y-49856373D01*
X17543830Y-49724594D01*
X17715930Y-49758827D01*
X18265080Y-49649595D01*
X18730628Y-49338526D01*
X19041697Y-48872978D01*
X19150929Y-48323828D01*
X19061280Y-47873127D01*
X19511981Y-47962776D01*
X20061131Y-47853544D01*
X20526679Y-47542475D01*
X20837748Y-47076927D01*
X20946980Y-46527777D01*
X20852068Y-46050619D01*
X21077963Y-46131379D01*
X21637195Y-46103760D01*
X22025571Y-45942879D01*
X22096317Y-45699614D01*
X21288154Y-44891451D01*
X21274012Y-44905594D01*
X21094407Y-44725989D01*
X21108549Y-44711846D01*
X20300386Y-43903683D01*
X20057121Y-43974429D01*
X19896240Y-44362805D01*
X19868621Y-44922037D01*
X19949381Y-45147932D01*
X19472223Y-45053019D01*
X18923073Y-45162252D01*
X18457525Y-45473321D01*
X18146456Y-45938869D01*
X18037223Y-46488019D01*
X18126873Y-46938720D01*
X17676172Y-46849070D01*
X17127022Y-46958303D01*
X16661474Y-47269372D01*
X16350405Y-47734920D01*
X16241172Y-48284070D01*
X16275024Y-48454255D01*
X16160106Y-48375735D01*
X15908944Y-48321251D01*
X15656373Y-48368775D01*
X15442191Y-48510820D01*
X14310820Y-49642191D01*
X14175735Y-49839894D01*
X14121251Y-50091056D01*
X8187669Y-50091056D01*
X8187669Y-49697107D01*
X8143391Y-49461790D01*
X8004319Y-49245666D01*
X7792119Y-49100676D01*
X7750790Y-49092307D01*
X7768644Y-49080377D01*
X8093500Y-48594196D01*
X8207574Y-48020707D01*
X8093500Y-47447218D01*
X7768644Y-46961037D01*
X7453863Y-46750707D01*
X7768644Y-46540377D01*
X8093500Y-46054196D01*
X8207574Y-45480707D01*
X8093500Y-44907218D01*
X7768644Y-44421037D01*
X7459160Y-44214246D01*
X7874961Y-43842743D01*
X7932122Y-43724078D01*
X20479991Y-43724078D01*
X21288154Y-44532241D01*
X21302297Y-44518099D01*
X21481902Y-44697704D01*
X21467759Y-44711846D01*
X22275922Y-45520009D01*
X22519187Y-45449263D01*
X22680068Y-45060887D01*
X22707687Y-44501655D01*
X22626927Y-44275761D01*
X23104084Y-44370673D01*
X23653234Y-44261441D01*
X24118782Y-43950372D01*
X24429851Y-43484824D01*
X24539083Y-42935674D01*
X24449434Y-42484973D01*
X24900135Y-42574622D01*
X25449285Y-42465390D01*
X25914833Y-42154321D01*
X26225902Y-41688773D01*
X26335134Y-41139623D01*
X26245485Y-40688922D01*
X26696186Y-40778571D01*
X27245336Y-40669339D01*
X27710884Y-40358270D01*
X28021953Y-39892722D01*
X28131185Y-39343572D01*
X28041535Y-38892869D01*
X28492238Y-38982519D01*
X29041388Y-38873287D01*
X29506936Y-38562218D01*
X29818005Y-38096670D01*
X29927237Y-37547520D01*
X29837588Y-37096819D01*
X30288289Y-37186468D01*
X30837439Y-37077236D01*
X31302987Y-36766167D01*
X31614056Y-36300619D01*
X31723288Y-35751469D01*
X31633639Y-35300768D01*
X32084340Y-35390417D01*
X32633490Y-35281185D01*
X33099038Y-34970116D01*
X33410107Y-34504568D01*
X33519339Y-33955418D01*
X33429690Y-33504717D01*
X33880391Y-33594366D01*
X34429541Y-33485134D01*
X34895089Y-33174065D01*
X35206158Y-32708517D01*
X35315390Y-32159367D01*
X35225741Y-31708666D01*
X35676442Y-31798315D01*
X36225592Y-31689083D01*
X36691140Y-31378014D01*
X37002209Y-30912466D01*
X37111441Y-30363316D01*
X37021791Y-29912613D01*
X37472494Y-30002263D01*
X38021644Y-29893031D01*
X38487192Y-29581962D01*
X38798261Y-29116414D01*
X38907493Y-28567264D01*
X38817844Y-28116563D01*
X39268545Y-28206212D01*
X39817695Y-28096980D01*
X40283243Y-27785911D01*
X40594312Y-27320363D01*
X40703544Y-26771213D01*
X40613895Y-26320512D01*
X41064596Y-26410161D01*
X41613746Y-26300929D01*
X42079294Y-25989860D01*
X42390363Y-25524312D01*
X42499595Y-24975162D01*
X42390363Y-24426011D01*
X42079294Y-23960464D01*
X42039536Y-23920706D01*
X41573988Y-23609637D01*
X41024838Y-23500404D01*
X40475688Y-23609637D01*
X40010140Y-23920706D01*
X39699071Y-24386254D01*
X39589838Y-24935404D01*
X39679488Y-25386105D01*
X39228787Y-25296455D01*
X38679637Y-25405688D01*
X38214089Y-25716757D01*
X37903020Y-26182305D01*
X37793787Y-26731455D01*
X37883437Y-27182156D01*
X37432736Y-27092506D01*
X36883586Y-27201739D01*
X36418038Y-27512808D01*
X36106969Y-27978356D01*
X35997736Y-28527506D01*
X36087387Y-28978209D01*
X35636684Y-28888558D01*
X35087534Y-28997791D01*
X34621986Y-29308860D01*
X34310917Y-29774408D01*
X34201684Y-30323558D01*
X34291334Y-30774259D01*
X33840633Y-30684609D01*
X33291483Y-30793842D01*
X32825935Y-31104911D01*
X32514866Y-31570459D01*
X32405633Y-32119609D01*
X32495283Y-32570310D01*
X32044582Y-32480660D01*
X31495432Y-32589893D01*
X31029884Y-32900962D01*
X30718815Y-33366510D01*
X30609582Y-33915660D01*
X30699232Y-34366361D01*
X30248531Y-34276711D01*
X29699381Y-34385944D01*
X29233833Y-34697013D01*
X28922764Y-35162561D01*
X28813531Y-35711711D01*
X28903181Y-36162412D01*
X28452480Y-36072762D01*
X27903330Y-36181995D01*
X27437782Y-36493064D01*
X27126713Y-36958612D01*
X27017480Y-37507762D01*
X27107131Y-37958465D01*
X26656428Y-37868814D01*
X26107278Y-37978047D01*
X25641730Y-38289116D01*
X25330661Y-38754664D01*
X25221428Y-39303814D01*
X25311078Y-39754515D01*
X24860377Y-39664865D01*
X24311227Y-39774098D01*
X23845679Y-40085167D01*
X23534610Y-40550715D01*
X23425377Y-41099865D01*
X23515027Y-41550566D01*
X23064326Y-41460916D01*
X22515176Y-41570149D01*
X22049628Y-41881218D01*
X21738559Y-42346766D01*
X21629326Y-42895916D01*
X21724239Y-43373073D01*
X21498345Y-43292313D01*
X20939113Y-43319932D01*
X20550737Y-43480813D01*
X20479991Y-43724078D01*
X7932122Y-43724078D01*
X8128938Y-43315498D01*
X8131587Y-43299733D01*
X8010446Y-43067707D01*
X6651229Y-43067707D01*
X6651229Y-43087707D01*
X6397229Y-43087707D01*
X6397229Y-43067707D01*
X5038012Y-43067707D01*
X4916871Y-43299733D01*
X4919520Y-43315498D01*
X5173497Y-43842743D01*
X5589298Y-44214246D01*
X5279814Y-44421037D01*
X4954958Y-44907218D01*
X4840884Y-45480707D01*
X4954958Y-46054196D01*
X5279814Y-46540377D01*
X5594595Y-46750707D01*
X5279814Y-46961037D01*
X4956684Y-47444635D01*
X4176158Y-43932269D01*
X4094305Y-42581681D01*
X4916871Y-42581681D01*
X5038012Y-42813707D01*
X6397229Y-42813707D01*
X6397229Y-41599783D01*
X6651229Y-41599783D01*
X6651229Y-42813707D01*
X8010446Y-42813707D01*
X8131587Y-42581681D01*
X8128938Y-42565916D01*
X7874961Y-42038671D01*
X7438549Y-41648753D01*
X6886142Y-41455523D01*
X6651229Y-41599783D01*
X6397229Y-41599783D01*
X6162316Y-41455523D01*
X5609909Y-41648753D01*
X5173497Y-42038671D01*
X4919520Y-42565916D01*
X4916871Y-42581681D01*
X4094305Y-42581681D01*
X3877118Y-38998107D01*
X3949763Y-36625000D01*
X9802560Y-36625000D01*
X9802560Y-37375000D01*
X9846838Y-37610317D01*
X9985910Y-37826441D01*
X10198110Y-37971431D01*
X10450000Y-38022440D01*
X11650000Y-38022440D01*
X11885317Y-37978162D01*
X11988646Y-37911671D01*
X11990302Y-37913327D01*
X12223691Y-38010000D01*
X12664250Y-38010000D01*
X12823000Y-37851250D01*
X12823000Y-37127000D01*
X13077000Y-37127000D01*
X13077000Y-37851250D01*
X13235750Y-38010000D01*
X13676309Y-38010000D01*
X13909698Y-37913327D01*
X14088327Y-37734699D01*
X14185000Y-37501310D01*
X14185000Y-37285750D01*
X14026250Y-37127000D01*
X13077000Y-37127000D01*
X12823000Y-37127000D01*
X12803000Y-37127000D01*
X12803000Y-36873000D01*
X12823000Y-36873000D01*
X12823000Y-36148750D01*
X13077000Y-36148750D01*
X13077000Y-36873000D01*
X14026250Y-36873000D01*
X14185000Y-36714250D01*
X14185000Y-36498690D01*
X14088327Y-36265301D01*
X13909698Y-36086673D01*
X13676309Y-35990000D01*
X13235750Y-35990000D01*
X13077000Y-36148750D01*
X12823000Y-36148750D01*
X12664250Y-35990000D01*
X12223691Y-35990000D01*
X11990302Y-36086673D01*
X11988932Y-36088043D01*
X11901890Y-36028569D01*
X11650000Y-35977560D01*
X10450000Y-35977560D01*
X10214683Y-36021838D01*
X9998559Y-36160910D01*
X9853569Y-36373110D01*
X9802560Y-36625000D01*
X3949763Y-36625000D01*
X4006115Y-34784187D01*
X21564752Y-34784187D01*
X21782757Y-35311800D01*
X22186077Y-35715824D01*
X22713309Y-35934750D01*
X23284187Y-35935248D01*
X23811800Y-35717243D01*
X24215824Y-35313923D01*
X24434750Y-34786691D01*
X24435248Y-34215813D01*
X24217243Y-33688200D01*
X23813923Y-33284176D01*
X23286691Y-33065250D01*
X22715813Y-33064752D01*
X22188200Y-33282757D01*
X21784176Y-33686077D01*
X21565250Y-34213309D01*
X21564752Y-34784187D01*
X4006115Y-34784187D01*
X4026766Y-34109596D01*
X4226077Y-32465282D01*
X4219601Y-32407285D01*
X3721599Y-31012878D01*
X3590866Y-30500000D01*
X4316655Y-30500000D01*
X4430729Y-31073489D01*
X4755585Y-31559670D01*
X4769913Y-31569243D01*
X4748683Y-31573238D01*
X4532559Y-31712310D01*
X4387569Y-31924510D01*
X4336560Y-32176400D01*
X4336560Y-33903600D01*
X4380838Y-34138917D01*
X4519910Y-34355041D01*
X4732110Y-34500031D01*
X4984000Y-34551040D01*
X7016000Y-34551040D01*
X7251317Y-34506762D01*
X7467441Y-34367690D01*
X7612431Y-34155490D01*
X7663440Y-33903600D01*
X7663440Y-32176400D01*
X7619162Y-31941083D01*
X7480090Y-31724959D01*
X7267890Y-31579969D01*
X7226561Y-31571600D01*
X7244415Y-31559670D01*
X7405947Y-31317920D01*
X25115756Y-31317920D01*
X25359091Y-31834340D01*
X25781529Y-32218330D01*
X26182080Y-32384244D01*
X26408534Y-32262632D01*
X26408534Y-31091466D01*
X26662534Y-31091466D01*
X26662534Y-32262632D01*
X26888988Y-32384244D01*
X27405408Y-32140909D01*
X27789398Y-31718471D01*
X27955312Y-31317920D01*
X27833700Y-31091466D01*
X26662534Y-31091466D01*
X26408534Y-31091466D01*
X25237368Y-31091466D01*
X25115756Y-31317920D01*
X7405947Y-31317920D01*
X7569271Y-31073489D01*
X7661263Y-30611012D01*
X25115756Y-30611012D01*
X25237368Y-30837466D01*
X26408534Y-30837466D01*
X26408534Y-29666300D01*
X26662534Y-29666300D01*
X26662534Y-30837466D01*
X27833700Y-30837466D01*
X27955312Y-30611012D01*
X27711977Y-30094592D01*
X27289539Y-29710602D01*
X26888988Y-29544688D01*
X26662534Y-29666300D01*
X26408534Y-29666300D01*
X26182080Y-29544688D01*
X25665660Y-29788023D01*
X25281670Y-30210461D01*
X25115756Y-30611012D01*
X7661263Y-30611012D01*
X7683345Y-30500000D01*
X7569271Y-29926511D01*
X7244415Y-29440330D01*
X6934931Y-29233539D01*
X7350732Y-28862036D01*
X7604709Y-28334791D01*
X7607358Y-28319026D01*
X7486217Y-28087000D01*
X6127000Y-28087000D01*
X6127000Y-28107000D01*
X5873000Y-28107000D01*
X5873000Y-28087000D01*
X4513783Y-28087000D01*
X4392642Y-28319026D01*
X4395291Y-28334791D01*
X4649268Y-28862036D01*
X5065069Y-29233539D01*
X4755585Y-29440330D01*
X4430729Y-29926511D01*
X4316655Y-30500000D01*
X3590866Y-30500000D01*
X3075129Y-28476730D01*
X2971226Y-27600974D01*
X4392642Y-27600974D01*
X4513783Y-27833000D01*
X5873000Y-27833000D01*
X5873000Y-26619076D01*
X6127000Y-26619076D01*
X6127000Y-27833000D01*
X7486217Y-27833000D01*
X7607358Y-27600974D01*
X7604709Y-27585209D01*
X7350732Y-27057964D01*
X6914320Y-26668046D01*
X6361913Y-26474816D01*
X6127000Y-26619076D01*
X5873000Y-26619076D01*
X5638087Y-26474816D01*
X5085680Y-26668046D01*
X4649268Y-27057964D01*
X4395291Y-27585209D01*
X4392642Y-27600974D01*
X2971226Y-27600974D01*
X2727000Y-25542496D01*
X2727000Y-22203970D01*
X2776709Y-21408626D01*
X2914385Y-19550000D01*
X36652560Y-19550000D01*
X36652560Y-20450000D01*
X36696838Y-20685317D01*
X36835910Y-20901441D01*
X37048110Y-21046431D01*
X37300000Y-21097440D01*
X38500000Y-21097440D01*
X38735317Y-21053162D01*
X38951441Y-20914090D01*
X38999134Y-20844289D01*
X39035910Y-20901441D01*
X39248110Y-21046431D01*
X39500000Y-21097440D01*
X40700000Y-21097440D01*
X40935317Y-21053162D01*
X41151441Y-20914090D01*
X41296431Y-20701890D01*
X41347440Y-20450000D01*
X41347440Y-19550000D01*
X41303162Y-19314683D01*
X41164090Y-19098559D01*
X40951890Y-18953569D01*
X40700000Y-18902560D01*
X39500000Y-18902560D01*
X39264683Y-18946838D01*
X39048559Y-19085910D01*
X39000866Y-19155711D01*
X38964090Y-19098559D01*
X38751890Y-18953569D01*
X38500000Y-18902560D01*
X37300000Y-18902560D01*
X37064683Y-18946838D01*
X36848559Y-19085910D01*
X36703569Y-19298110D01*
X36652560Y-19550000D01*
X2914385Y-19550000D01*
X2976000Y-18718201D01*
X3196103Y-17700225D01*
X3900897Y-18406250D01*
X5714061Y-19159141D01*
X7677325Y-19160854D01*
X9491801Y-18411129D01*
X10881250Y-17024103D01*
X11634141Y-15210939D01*
X11634652Y-14625000D01*
X22802560Y-14625000D01*
X22802560Y-15375000D01*
X22846838Y-15610317D01*
X22985910Y-15826441D01*
X23198110Y-15971431D01*
X23450000Y-16022440D01*
X24650000Y-16022440D01*
X24885317Y-15978162D01*
X24988646Y-15911671D01*
X24990302Y-15913327D01*
X25223691Y-16010000D01*
X25664250Y-16010000D01*
X25823000Y-15851250D01*
X25823000Y-15127000D01*
X26077000Y-15127000D01*
X26077000Y-15851250D01*
X26235750Y-16010000D01*
X26676309Y-16010000D01*
X26909698Y-15913327D01*
X27088327Y-15734699D01*
X27185000Y-15501310D01*
X27185000Y-15285750D01*
X27026250Y-15127000D01*
X26077000Y-15127000D01*
X25823000Y-15127000D01*
X25803000Y-15127000D01*
X25803000Y-15080159D01*
X36019446Y-15080159D01*
X36105852Y-15336643D01*
X36679336Y-15546458D01*
X37289460Y-15520839D01*
X37734148Y-15336643D01*
X37820554Y-15080159D01*
X36920000Y-14179605D01*
X36019446Y-15080159D01*
X25803000Y-15080159D01*
X25803000Y-14873000D01*
X25823000Y-14873000D01*
X25823000Y-14148750D01*
X26077000Y-14148750D01*
X26077000Y-14873000D01*
X27026250Y-14873000D01*
X27185000Y-14714250D01*
X27185000Y-14498690D01*
X27088327Y-14265301D01*
X26909698Y-14086673D01*
X26676309Y-13990000D01*
X26235750Y-13990000D01*
X26077000Y-14148750D01*
X25823000Y-14148750D01*
X25664250Y-13990000D01*
X25223691Y-13990000D01*
X24990302Y-14086673D01*
X24988932Y-14088043D01*
X24901890Y-14028569D01*
X24650000Y-13977560D01*
X23450000Y-13977560D01*
X23214683Y-14021838D01*
X22998559Y-14160910D01*
X22853569Y-14373110D01*
X22802560Y-14625000D01*
X11634652Y-14625000D01*
X11635854Y-13247675D01*
X10886129Y-11433199D01*
X9499103Y-10043750D01*
X7685939Y-9290859D01*
X6253558Y-9289609D01*
X6755113Y-8372480D01*
X8631009Y-6176309D01*
X9462369Y-6176309D01*
X9559042Y-6409698D01*
X9737670Y-6588327D01*
X9985116Y-6835772D01*
X10209622Y-6835772D01*
X10995395Y-6050000D01*
X10209622Y-5264228D01*
X9985116Y-5264228D01*
X9559043Y-5690301D01*
X9462370Y-5923690D01*
X9462369Y-6176309D01*
X8631009Y-6176309D01*
X8789927Y-5990259D01*
X11062437Y-4063565D01*
X11608075Y-3893496D01*
X11574294Y-3974849D01*
X11573859Y-4473203D01*
X11534698Y-4434042D01*
X11301309Y-4337369D01*
X11048690Y-4337370D01*
X10815301Y-4434043D01*
X10389228Y-4860116D01*
X10389228Y-5084622D01*
X11175000Y-5870395D01*
X11189142Y-5856252D01*
X11368748Y-6035858D01*
X11354605Y-6050000D01*
X11368748Y-6064142D01*
X11189142Y-6243748D01*
X11175000Y-6229605D01*
X10389228Y-7015378D01*
X10389228Y-7239884D01*
X10636673Y-7487330D01*
X10815302Y-7665958D01*
X11048691Y-7762631D01*
X11301310Y-7762630D01*
X11534699Y-7665957D01*
X11574242Y-7626414D01*
X11573809Y-8122712D01*
X11786041Y-8636354D01*
X12178681Y-9029680D01*
X12691951Y-9242808D01*
X13247712Y-9243293D01*
X13455745Y-9157336D01*
X13370345Y-9363002D01*
X13369860Y-9918763D01*
X13582092Y-10432405D01*
X13974732Y-10825731D01*
X14488002Y-11038859D01*
X15043763Y-11039344D01*
X15251798Y-10953386D01*
X15166397Y-11159054D01*
X15165912Y-11714815D01*
X15378144Y-12228457D01*
X15770784Y-12621783D01*
X16284054Y-12834911D01*
X16839815Y-12835396D01*
X17353457Y-12623164D01*
X17746783Y-12230524D01*
X17959911Y-11717254D01*
X17960396Y-11161493D01*
X17874438Y-10953459D01*
X18080105Y-11038859D01*
X18635866Y-11039344D01*
X19149508Y-10827112D01*
X19542834Y-10434472D01*
X19755962Y-9921202D01*
X19756447Y-9365441D01*
X19544215Y-8851799D01*
X19151575Y-8458473D01*
X18638305Y-8245345D01*
X18082544Y-8244860D01*
X17874511Y-8330817D01*
X17959911Y-8125151D01*
X17960396Y-7569390D01*
X17748164Y-7055748D01*
X17355524Y-6662422D01*
X16842254Y-6449294D01*
X16286493Y-6448809D01*
X16078459Y-6534767D01*
X16163859Y-6329100D01*
X16164344Y-5773339D01*
X15952112Y-5259697D01*
X15559472Y-4866371D01*
X15046202Y-4653243D01*
X14490441Y-4652758D01*
X14282408Y-4738715D01*
X14367808Y-4533049D01*
X14368293Y-3977288D01*
X14156061Y-3463646D01*
X13878676Y-3185776D01*
X14841767Y-2885592D01*
X18318547Y-4452591D01*
X18318547Y-4452591D01*
G37*
X18318547Y-4452591D02*
X20390852Y-7166324D01*
X20785088Y-8004076D01*
X20786408Y-8006796D01*
X22936408Y-12306796D01*
X22967454Y-12346515D01*
X23011507Y-12371026D01*
X23050000Y-12377000D01*
X25800000Y-12377000D01*
X25808090Y-12376742D01*
X29145173Y-12163737D01*
X28925267Y-12693330D01*
X28924735Y-13303991D01*
X29157932Y-13868371D01*
X29589357Y-14300551D01*
X30153330Y-14534733D01*
X30763991Y-14535265D01*
X31328371Y-14302068D01*
X31505841Y-14124908D01*
X31561673Y-14259699D01*
X31740302Y-14438327D01*
X31973691Y-14535000D01*
X32714250Y-14535000D01*
X32873000Y-14376250D01*
X32873000Y-13127000D01*
X33127000Y-13127000D01*
X33127000Y-14376250D01*
X33285750Y-14535000D01*
X34026309Y-14535000D01*
X34259698Y-14438327D01*
X34438327Y-14259699D01*
X34535000Y-14026310D01*
X34535000Y-13759336D01*
X35373542Y-13759336D01*
X35399161Y-14369460D01*
X35583357Y-14814148D01*
X35839841Y-14900554D01*
X36740395Y-14000000D01*
X35839841Y-13099446D01*
X35583357Y-13185852D01*
X35373542Y-13759336D01*
X34535000Y-13759336D01*
X34535000Y-13285750D01*
X34376250Y-13127000D01*
X33127000Y-13127000D01*
X32873000Y-13127000D01*
X32853000Y-13127000D01*
X32853000Y-12873000D01*
X32873000Y-12873000D01*
X32873000Y-12853000D01*
X33127000Y-12853000D01*
X33127000Y-12873000D01*
X34376250Y-12873000D01*
X34535000Y-12714250D01*
X34535000Y-12226532D01*
X34536299Y-12226580D01*
X36363743Y-12556535D01*
X36105852Y-12663357D01*
X36019446Y-12919841D01*
X36920000Y-13820395D01*
X37820554Y-12919841D01*
X37784586Y-12813076D01*
X38121455Y-12873899D01*
X38350751Y-12938389D01*
X38159449Y-13129357D01*
X38150797Y-13150194D01*
X38000159Y-13099446D01*
X37099605Y-14000000D01*
X38000159Y-14900554D01*
X38150327Y-14849965D01*
X38157932Y-14868371D01*
X38589357Y-15300551D01*
X39153330Y-15534733D01*
X39763991Y-15535265D01*
X40328371Y-15302068D01*
X40496613Y-15134120D01*
X40496838Y-15135317D01*
X40635910Y-15351441D01*
X40848110Y-15496431D01*
X41100000Y-15547440D01*
X42900000Y-15547440D01*
X43135317Y-15503162D01*
X43351441Y-15364090D01*
X43496431Y-15151890D01*
X43547440Y-14900000D01*
X43547440Y-14658634D01*
X44448083Y-15016032D01*
X47437802Y-16510891D01*
X49406804Y-17741517D01*
X51036333Y-20457399D01*
X52032769Y-22848846D01*
X52035905Y-22855780D01*
X53134868Y-25103659D01*
X57829650Y-35691890D01*
X58224567Y-37222195D01*
X58472098Y-39747014D01*
X58077590Y-42459260D01*
X56542923Y-45281068D01*
X53952649Y-48718162D01*
X50309619Y-52610715D01*
X46614590Y-56155945D01*
X43070556Y-59200820D01*
X39929749Y-61543961D01*
X37297507Y-63083574D01*
X33380341Y-64372768D01*
X29016831Y-64323183D01*
X25937817Y-63528599D01*
X24444437Y-62981026D01*
X20895142Y-61631294D01*
X20886191Y-61628266D01*
X19036191Y-61078266D01*
X19032604Y-61077256D01*
X18201252Y-60856428D01*
X25221428Y-60856428D01*
X25330661Y-61405578D01*
X25641730Y-61871126D01*
X25681488Y-61910884D01*
X26147035Y-62221953D01*
X26696186Y-62331185D01*
X27245336Y-62221953D01*
X27710884Y-61910884D01*
X28021953Y-61445336D01*
X28131185Y-60896186D01*
X28036273Y-60419029D01*
X28262168Y-60499789D01*
X28821400Y-60472170D01*
X29209776Y-60311289D01*
X29280522Y-60068024D01*
X28472359Y-59259861D01*
X28458217Y-59274004D01*
X28278612Y-59094399D01*
X28292754Y-59080256D01*
X27484591Y-58272093D01*
X27241326Y-58342839D01*
X27080445Y-58731215D01*
X27052826Y-59290447D01*
X27133586Y-59516341D01*
X26656428Y-59421428D01*
X26107278Y-59530661D01*
X25641730Y-59841730D01*
X25330661Y-60307278D01*
X25221428Y-60856428D01*
X18201252Y-60856428D01*
X15832604Y-60227256D01*
X12095222Y-59230621D01*
X10039021Y-58202521D01*
X9970906Y-58092488D01*
X27664196Y-58092488D01*
X28472359Y-58900651D01*
X28486502Y-58886509D01*
X28666107Y-59066114D01*
X28651964Y-59080256D01*
X29460127Y-59888419D01*
X29703392Y-59817673D01*
X29864273Y-59429297D01*
X29891892Y-58870065D01*
X29811132Y-58644171D01*
X30288289Y-58739083D01*
X30837439Y-58629851D01*
X31302987Y-58318782D01*
X31614056Y-57853234D01*
X31723288Y-57304084D01*
X31633639Y-56853383D01*
X32084340Y-56943032D01*
X32633490Y-56833800D01*
X33099038Y-56522731D01*
X33410107Y-56057183D01*
X33423260Y-55991056D01*
X36150540Y-55991056D01*
X36198064Y-56243627D01*
X36340109Y-56457809D01*
X37542191Y-57659891D01*
X37739894Y-57794976D01*
X37991056Y-57849460D01*
X38243627Y-57801936D01*
X38457809Y-57659891D01*
X39659891Y-56457809D01*
X39794976Y-56260106D01*
X39849460Y-56008944D01*
X39801936Y-55756373D01*
X39659891Y-55542191D01*
X38457809Y-54340109D01*
X38260106Y-54205024D01*
X38008944Y-54150540D01*
X37756373Y-54198064D01*
X37542191Y-54340109D01*
X36340109Y-55542191D01*
X36205024Y-55739894D01*
X36150540Y-55991056D01*
X33423260Y-55991056D01*
X33519339Y-55508033D01*
X33429689Y-55057331D01*
X33880391Y-55146980D01*
X34429541Y-55037748D01*
X34895089Y-54726679D01*
X35206158Y-54261131D01*
X35315390Y-53711981D01*
X35225741Y-53261280D01*
X35676442Y-53350929D01*
X36225592Y-53241697D01*
X36691140Y-52930628D01*
X37002209Y-52465080D01*
X37111441Y-51915930D01*
X37021792Y-51465228D01*
X37472494Y-51554878D01*
X38021644Y-51445646D01*
X38487192Y-51134577D01*
X38798261Y-50669029D01*
X38907493Y-50119879D01*
X38817844Y-49669178D01*
X39268545Y-49758827D01*
X39817695Y-49649595D01*
X40283243Y-49338526D01*
X40594312Y-48872978D01*
X40703544Y-48323828D01*
X40613895Y-47873127D01*
X41064596Y-47962776D01*
X41613746Y-47853544D01*
X42079294Y-47542475D01*
X42390363Y-47076927D01*
X42400174Y-47027603D01*
X47152002Y-47027603D01*
X47152002Y-47252109D01*
X47640302Y-47740409D01*
X47873691Y-47837082D01*
X48126310Y-47837081D01*
X48359699Y-47740408D01*
X48847998Y-47252109D01*
X48847998Y-47027603D01*
X48000000Y-46179605D01*
X47152002Y-47027603D01*
X42400174Y-47027603D01*
X42499595Y-46527777D01*
X42409945Y-46077075D01*
X42860647Y-46166724D01*
X43063828Y-46126309D01*
X46162918Y-46126309D01*
X46259591Y-46359698D01*
X46747891Y-46847998D01*
X46972397Y-46847998D01*
X47820395Y-46000000D01*
X48179605Y-46000000D01*
X49027603Y-46847998D01*
X49252109Y-46847998D01*
X49740408Y-46359699D01*
X49837081Y-46126310D01*
X49837082Y-45873691D01*
X49740409Y-45640302D01*
X49252109Y-45152002D01*
X49027603Y-45152002D01*
X48179605Y-46000000D01*
X47820395Y-46000000D01*
X46972397Y-45152002D01*
X46747891Y-45152002D01*
X46259592Y-45640301D01*
X46162919Y-45873690D01*
X46162918Y-46126309D01*
X43063828Y-46126309D01*
X43409797Y-46057492D01*
X43875345Y-45746423D01*
X44186414Y-45280875D01*
X44292430Y-44747891D01*
X47152002Y-44747891D01*
X47152002Y-44972397D01*
X48000000Y-45820395D01*
X48847998Y-44972397D01*
X48847998Y-44747891D01*
X48359698Y-44259591D01*
X48126309Y-44162918D01*
X47873690Y-44162919D01*
X47640301Y-44259592D01*
X47152002Y-44747891D01*
X44292430Y-44747891D01*
X44295646Y-44731725D01*
X44205997Y-44281023D01*
X44656699Y-44370673D01*
X45205849Y-44261441D01*
X45671397Y-43950372D01*
X45982466Y-43484824D01*
X46091698Y-42935674D01*
X46002049Y-42484973D01*
X46452750Y-42574622D01*
X47001900Y-42465390D01*
X47467448Y-42154321D01*
X47778517Y-41688773D01*
X47887749Y-41139623D01*
X47798100Y-40688922D01*
X48248801Y-40778571D01*
X48797951Y-40669339D01*
X49263499Y-40358270D01*
X49574568Y-39892722D01*
X49683800Y-39343572D01*
X49594150Y-38892870D01*
X50044852Y-38982519D01*
X50594002Y-38873287D01*
X51059550Y-38562218D01*
X51370619Y-38096670D01*
X51479851Y-37547520D01*
X51390202Y-37096819D01*
X51840903Y-37186468D01*
X52390053Y-37077236D01*
X52855601Y-36766167D01*
X53166670Y-36300619D01*
X53275902Y-35751469D01*
X53166670Y-35202318D01*
X52855601Y-34736771D01*
X52815843Y-34697013D01*
X52350295Y-34385944D01*
X51801145Y-34276711D01*
X51251995Y-34385944D01*
X50786447Y-34697013D01*
X50475378Y-35162561D01*
X50366145Y-35711711D01*
X50455795Y-36162412D01*
X50005094Y-36072762D01*
X49455944Y-36181995D01*
X48990396Y-36493064D01*
X48679327Y-36958612D01*
X48570094Y-37507762D01*
X48659744Y-37958464D01*
X48209043Y-37868814D01*
X47659893Y-37978047D01*
X47194345Y-38289116D01*
X46883276Y-38754664D01*
X46774043Y-39303814D01*
X46863693Y-39754515D01*
X46412992Y-39664865D01*
X45863842Y-39774098D01*
X45398294Y-40085167D01*
X45087225Y-40550715D01*
X44977992Y-41099865D01*
X45067642Y-41550566D01*
X44616941Y-41460916D01*
X44067791Y-41570149D01*
X43602243Y-41881218D01*
X43291174Y-42346766D01*
X43181941Y-42895916D01*
X43271591Y-43346617D01*
X42820889Y-43256967D01*
X42271739Y-43366200D01*
X41806191Y-43677269D01*
X41495122Y-44142817D01*
X41385889Y-44691967D01*
X41475539Y-45142669D01*
X41024838Y-45053019D01*
X40475688Y-45162252D01*
X40010140Y-45473321D01*
X39699071Y-45938869D01*
X39589838Y-46488019D01*
X39679488Y-46938720D01*
X39228787Y-46849070D01*
X38679637Y-46958303D01*
X38214089Y-47269372D01*
X37903020Y-47734920D01*
X37793787Y-48284070D01*
X37883437Y-48734771D01*
X37432736Y-48645121D01*
X36883586Y-48754354D01*
X36418038Y-49065423D01*
X36106969Y-49530971D01*
X35997736Y-50080121D01*
X36087386Y-50530822D01*
X35636684Y-50441172D01*
X35087534Y-50550405D01*
X34621986Y-50861474D01*
X34310917Y-51327022D01*
X34201684Y-51876172D01*
X34291334Y-52326873D01*
X33840633Y-52237223D01*
X33291483Y-52346456D01*
X32825935Y-52657525D01*
X32514866Y-53123073D01*
X32405633Y-53672223D01*
X32495283Y-54122925D01*
X32044582Y-54033275D01*
X31495432Y-54142508D01*
X31029884Y-54453577D01*
X30718815Y-54919125D01*
X30609582Y-55468275D01*
X30699232Y-55918976D01*
X30248531Y-55829326D01*
X29699381Y-55938559D01*
X29233833Y-56249628D01*
X28922764Y-56715176D01*
X28813531Y-57264326D01*
X28908444Y-57741483D01*
X28682550Y-57660723D01*
X28123318Y-57688342D01*
X27734942Y-57849223D01*
X27664196Y-58092488D01*
X9970906Y-58092488D01*
X7462539Y-54040511D01*
X6587533Y-52071747D01*
X7540229Y-52071747D01*
X7775546Y-52027469D01*
X7991670Y-51888397D01*
X8136660Y-51676197D01*
X8187669Y-51424307D01*
X8187669Y-50091056D01*
X14121251Y-50091056D01*
X14168775Y-50343627D01*
X14310820Y-50557809D01*
X15442191Y-51689180D01*
X15639894Y-51824265D01*
X15891056Y-51878749D01*
X16143627Y-51831225D01*
X16357809Y-51689180D01*
X17489180Y-50557809D01*
X17624265Y-50360106D01*
X17678749Y-50108944D01*
X17631225Y-49856373D01*
X17543830Y-49724594D01*
X17715930Y-49758827D01*
X18265080Y-49649595D01*
X18730628Y-49338526D01*
X19041697Y-48872978D01*
X19150929Y-48323828D01*
X19061280Y-47873127D01*
X19511981Y-47962776D01*
X20061131Y-47853544D01*
X20526679Y-47542475D01*
X20837748Y-47076927D01*
X20946980Y-46527777D01*
X20852068Y-46050619D01*
X21077963Y-46131379D01*
X21637195Y-46103760D01*
X22025571Y-45942879D01*
X22096317Y-45699614D01*
X21288154Y-44891451D01*
X21274012Y-44905594D01*
X21094407Y-44725989D01*
X21108549Y-44711846D01*
X20300386Y-43903683D01*
X20057121Y-43974429D01*
X19896240Y-44362805D01*
X19868621Y-44922037D01*
X19949381Y-45147932D01*
X19472223Y-45053019D01*
X18923073Y-45162252D01*
X18457525Y-45473321D01*
X18146456Y-45938869D01*
X18037223Y-46488019D01*
X18126873Y-46938720D01*
X17676172Y-46849070D01*
X17127022Y-46958303D01*
X16661474Y-47269372D01*
X16350405Y-47734920D01*
X16241172Y-48284070D01*
X16275024Y-48454255D01*
X16160106Y-48375735D01*
X15908944Y-48321251D01*
X15656373Y-48368775D01*
X15442191Y-48510820D01*
X14310820Y-49642191D01*
X14175735Y-49839894D01*
X14121251Y-50091056D01*
X8187669Y-50091056D01*
X8187669Y-49697107D01*
X8143391Y-49461790D01*
X8004319Y-49245666D01*
X7792119Y-49100676D01*
X7750790Y-49092307D01*
X7768644Y-49080377D01*
X8093500Y-48594196D01*
X8207574Y-48020707D01*
X8093500Y-47447218D01*
X7768644Y-46961037D01*
X7453863Y-46750707D01*
X7768644Y-46540377D01*
X8093500Y-46054196D01*
X8207574Y-45480707D01*
X8093500Y-44907218D01*
X7768644Y-44421037D01*
X7459160Y-44214246D01*
X7874961Y-43842743D01*
X7932122Y-43724078D01*
X20479991Y-43724078D01*
X21288154Y-44532241D01*
X21302297Y-44518099D01*
X21481902Y-44697704D01*
X21467759Y-44711846D01*
X22275922Y-45520009D01*
X22519187Y-45449263D01*
X22680068Y-45060887D01*
X22707687Y-44501655D01*
X22626927Y-44275761D01*
X23104084Y-44370673D01*
X23653234Y-44261441D01*
X24118782Y-43950372D01*
X24429851Y-43484824D01*
X24539083Y-42935674D01*
X24449434Y-42484973D01*
X24900135Y-42574622D01*
X25449285Y-42465390D01*
X25914833Y-42154321D01*
X26225902Y-41688773D01*
X26335134Y-41139623D01*
X26245485Y-40688922D01*
X26696186Y-40778571D01*
X27245336Y-40669339D01*
X27710884Y-40358270D01*
X28021953Y-39892722D01*
X28131185Y-39343572D01*
X28041535Y-38892869D01*
X28492238Y-38982519D01*
X29041388Y-38873287D01*
X29506936Y-38562218D01*
X29818005Y-38096670D01*
X29927237Y-37547520D01*
X29837588Y-37096819D01*
X30288289Y-37186468D01*
X30837439Y-37077236D01*
X31302987Y-36766167D01*
X31614056Y-36300619D01*
X31723288Y-35751469D01*
X31633639Y-35300768D01*
X32084340Y-35390417D01*
X32633490Y-35281185D01*
X33099038Y-34970116D01*
X33410107Y-34504568D01*
X33519339Y-33955418D01*
X33429690Y-33504717D01*
X33880391Y-33594366D01*
X34429541Y-33485134D01*
X34895089Y-33174065D01*
X35206158Y-32708517D01*
X35315390Y-32159367D01*
X35225741Y-31708666D01*
X35676442Y-31798315D01*
X36225592Y-31689083D01*
X36691140Y-31378014D01*
X37002209Y-30912466D01*
X37111441Y-30363316D01*
X37021791Y-29912613D01*
X37472494Y-30002263D01*
X38021644Y-29893031D01*
X38487192Y-29581962D01*
X38798261Y-29116414D01*
X38907493Y-28567264D01*
X38817844Y-28116563D01*
X39268545Y-28206212D01*
X39817695Y-28096980D01*
X40283243Y-27785911D01*
X40594312Y-27320363D01*
X40703544Y-26771213D01*
X40613895Y-26320512D01*
X41064596Y-26410161D01*
X41613746Y-26300929D01*
X42079294Y-25989860D01*
X42390363Y-25524312D01*
X42499595Y-24975162D01*
X42390363Y-24426011D01*
X42079294Y-23960464D01*
X42039536Y-23920706D01*
X41573988Y-23609637D01*
X41024838Y-23500404D01*
X40475688Y-23609637D01*
X40010140Y-23920706D01*
X39699071Y-24386254D01*
X39589838Y-24935404D01*
X39679488Y-25386105D01*
X39228787Y-25296455D01*
X38679637Y-25405688D01*
X38214089Y-25716757D01*
X37903020Y-26182305D01*
X37793787Y-26731455D01*
X37883437Y-27182156D01*
X37432736Y-27092506D01*
X36883586Y-27201739D01*
X36418038Y-27512808D01*
X36106969Y-27978356D01*
X35997736Y-28527506D01*
X36087387Y-28978209D01*
X35636684Y-28888558D01*
X35087534Y-28997791D01*
X34621986Y-29308860D01*
X34310917Y-29774408D01*
X34201684Y-30323558D01*
X34291334Y-30774259D01*
X33840633Y-30684609D01*
X33291483Y-30793842D01*
X32825935Y-31104911D01*
X32514866Y-31570459D01*
X32405633Y-32119609D01*
X32495283Y-32570310D01*
X32044582Y-32480660D01*
X31495432Y-32589893D01*
X31029884Y-32900962D01*
X30718815Y-33366510D01*
X30609582Y-33915660D01*
X30699232Y-34366361D01*
X30248531Y-34276711D01*
X29699381Y-34385944D01*
X29233833Y-34697013D01*
X28922764Y-35162561D01*
X28813531Y-35711711D01*
X28903181Y-36162412D01*
X28452480Y-36072762D01*
X27903330Y-36181995D01*
X27437782Y-36493064D01*
X27126713Y-36958612D01*
X27017480Y-37507762D01*
X27107131Y-37958465D01*
X26656428Y-37868814D01*
X26107278Y-37978047D01*
X25641730Y-38289116D01*
X25330661Y-38754664D01*
X25221428Y-39303814D01*
X25311078Y-39754515D01*
X24860377Y-39664865D01*
X24311227Y-39774098D01*
X23845679Y-40085167D01*
X23534610Y-40550715D01*
X23425377Y-41099865D01*
X23515027Y-41550566D01*
X23064326Y-41460916D01*
X22515176Y-41570149D01*
X22049628Y-41881218D01*
X21738559Y-42346766D01*
X21629326Y-42895916D01*
X21724239Y-43373073D01*
X21498345Y-43292313D01*
X20939113Y-43319932D01*
X20550737Y-43480813D01*
X20479991Y-43724078D01*
X7932122Y-43724078D01*
X8128938Y-43315498D01*
X8131587Y-43299733D01*
X8010446Y-43067707D01*
X6651229Y-43067707D01*
X6651229Y-43087707D01*
X6397229Y-43087707D01*
X6397229Y-43067707D01*
X5038012Y-43067707D01*
X4916871Y-43299733D01*
X4919520Y-43315498D01*
X5173497Y-43842743D01*
X5589298Y-44214246D01*
X5279814Y-44421037D01*
X4954958Y-44907218D01*
X4840884Y-45480707D01*
X4954958Y-46054196D01*
X5279814Y-46540377D01*
X5594595Y-46750707D01*
X5279814Y-46961037D01*
X4956684Y-47444635D01*
X4176158Y-43932269D01*
X4094305Y-42581681D01*
X4916871Y-42581681D01*
X5038012Y-42813707D01*
X6397229Y-42813707D01*
X6397229Y-41599783D01*
X6651229Y-41599783D01*
X6651229Y-42813707D01*
X8010446Y-42813707D01*
X8131587Y-42581681D01*
X8128938Y-42565916D01*
X7874961Y-42038671D01*
X7438549Y-41648753D01*
X6886142Y-41455523D01*
X6651229Y-41599783D01*
X6397229Y-41599783D01*
X6162316Y-41455523D01*
X5609909Y-41648753D01*
X5173497Y-42038671D01*
X4919520Y-42565916D01*
X4916871Y-42581681D01*
X4094305Y-42581681D01*
X3877118Y-38998107D01*
X3949763Y-36625000D01*
X9802560Y-36625000D01*
X9802560Y-37375000D01*
X9846838Y-37610317D01*
X9985910Y-37826441D01*
X10198110Y-37971431D01*
X10450000Y-38022440D01*
X11650000Y-38022440D01*
X11885317Y-37978162D01*
X11988646Y-37911671D01*
X11990302Y-37913327D01*
X12223691Y-38010000D01*
X12664250Y-38010000D01*
X12823000Y-37851250D01*
X12823000Y-37127000D01*
X13077000Y-37127000D01*
X13077000Y-37851250D01*
X13235750Y-38010000D01*
X13676309Y-38010000D01*
X13909698Y-37913327D01*
X14088327Y-37734699D01*
X14185000Y-37501310D01*
X14185000Y-37285750D01*
X14026250Y-37127000D01*
X13077000Y-37127000D01*
X12823000Y-37127000D01*
X12803000Y-37127000D01*
X12803000Y-36873000D01*
X12823000Y-36873000D01*
X12823000Y-36148750D01*
X13077000Y-36148750D01*
X13077000Y-36873000D01*
X14026250Y-36873000D01*
X14185000Y-36714250D01*
X14185000Y-36498690D01*
X14088327Y-36265301D01*
X13909698Y-36086673D01*
X13676309Y-35990000D01*
X13235750Y-35990000D01*
X13077000Y-36148750D01*
X12823000Y-36148750D01*
X12664250Y-35990000D01*
X12223691Y-35990000D01*
X11990302Y-36086673D01*
X11988932Y-36088043D01*
X11901890Y-36028569D01*
X11650000Y-35977560D01*
X10450000Y-35977560D01*
X10214683Y-36021838D01*
X9998559Y-36160910D01*
X9853569Y-36373110D01*
X9802560Y-36625000D01*
X3949763Y-36625000D01*
X4006115Y-34784187D01*
X21564752Y-34784187D01*
X21782757Y-35311800D01*
X22186077Y-35715824D01*
X22713309Y-35934750D01*
X23284187Y-35935248D01*
X23811800Y-35717243D01*
X24215824Y-35313923D01*
X24434750Y-34786691D01*
X24435248Y-34215813D01*
X24217243Y-33688200D01*
X23813923Y-33284176D01*
X23286691Y-33065250D01*
X22715813Y-33064752D01*
X22188200Y-33282757D01*
X21784176Y-33686077D01*
X21565250Y-34213309D01*
X21564752Y-34784187D01*
X4006115Y-34784187D01*
X4026766Y-34109596D01*
X4226077Y-32465282D01*
X4219601Y-32407285D01*
X3721599Y-31012878D01*
X3590866Y-30500000D01*
X4316655Y-30500000D01*
X4430729Y-31073489D01*
X4755585Y-31559670D01*
X4769913Y-31569243D01*
X4748683Y-31573238D01*
X4532559Y-31712310D01*
X4387569Y-31924510D01*
X4336560Y-32176400D01*
X4336560Y-33903600D01*
X4380838Y-34138917D01*
X4519910Y-34355041D01*
X4732110Y-34500031D01*
X4984000Y-34551040D01*
X7016000Y-34551040D01*
X7251317Y-34506762D01*
X7467441Y-34367690D01*
X7612431Y-34155490D01*
X7663440Y-33903600D01*
X7663440Y-32176400D01*
X7619162Y-31941083D01*
X7480090Y-31724959D01*
X7267890Y-31579969D01*
X7226561Y-31571600D01*
X7244415Y-31559670D01*
X7405947Y-31317920D01*
X25115756Y-31317920D01*
X25359091Y-31834340D01*
X25781529Y-32218330D01*
X26182080Y-32384244D01*
X26408534Y-32262632D01*
X26408534Y-31091466D01*
X26662534Y-31091466D01*
X26662534Y-32262632D01*
X26888988Y-32384244D01*
X27405408Y-32140909D01*
X27789398Y-31718471D01*
X27955312Y-31317920D01*
X27833700Y-31091466D01*
X26662534Y-31091466D01*
X26408534Y-31091466D01*
X25237368Y-31091466D01*
X25115756Y-31317920D01*
X7405947Y-31317920D01*
X7569271Y-31073489D01*
X7661263Y-30611012D01*
X25115756Y-30611012D01*
X25237368Y-30837466D01*
X26408534Y-30837466D01*
X26408534Y-29666300D01*
X26662534Y-29666300D01*
X26662534Y-30837466D01*
X27833700Y-30837466D01*
X27955312Y-30611012D01*
X27711977Y-30094592D01*
X27289539Y-29710602D01*
X26888988Y-29544688D01*
X26662534Y-29666300D01*
X26408534Y-29666300D01*
X26182080Y-29544688D01*
X25665660Y-29788023D01*
X25281670Y-30210461D01*
X25115756Y-30611012D01*
X7661263Y-30611012D01*
X7683345Y-30500000D01*
X7569271Y-29926511D01*
X7244415Y-29440330D01*
X6934931Y-29233539D01*
X7350732Y-28862036D01*
X7604709Y-28334791D01*
X7607358Y-28319026D01*
X7486217Y-28087000D01*
X6127000Y-28087000D01*
X6127000Y-28107000D01*
X5873000Y-28107000D01*
X5873000Y-28087000D01*
X4513783Y-28087000D01*
X4392642Y-28319026D01*
X4395291Y-28334791D01*
X4649268Y-28862036D01*
X5065069Y-29233539D01*
X4755585Y-29440330D01*
X4430729Y-29926511D01*
X4316655Y-30500000D01*
X3590866Y-30500000D01*
X3075129Y-28476730D01*
X2971226Y-27600974D01*
X4392642Y-27600974D01*
X4513783Y-27833000D01*
X5873000Y-27833000D01*
X5873000Y-26619076D01*
X6127000Y-26619076D01*
X6127000Y-27833000D01*
X7486217Y-27833000D01*
X7607358Y-27600974D01*
X7604709Y-27585209D01*
X7350732Y-27057964D01*
X6914320Y-26668046D01*
X6361913Y-26474816D01*
X6127000Y-26619076D01*
X5873000Y-26619076D01*
X5638087Y-26474816D01*
X5085680Y-26668046D01*
X4649268Y-27057964D01*
X4395291Y-27585209D01*
X4392642Y-27600974D01*
X2971226Y-27600974D01*
X2727000Y-25542496D01*
X2727000Y-22203970D01*
X2776709Y-21408626D01*
X2914385Y-19550000D01*
X36652560Y-19550000D01*
X36652560Y-20450000D01*
X36696838Y-20685317D01*
X36835910Y-20901441D01*
X37048110Y-21046431D01*
X37300000Y-21097440D01*
X38500000Y-21097440D01*
X38735317Y-21053162D01*
X38951441Y-20914090D01*
X38999134Y-20844289D01*
X39035910Y-20901441D01*
X39248110Y-21046431D01*
X39500000Y-21097440D01*
X40700000Y-21097440D01*
X40935317Y-21053162D01*
X41151441Y-20914090D01*
X41296431Y-20701890D01*
X41347440Y-20450000D01*
X41347440Y-19550000D01*
X41303162Y-19314683D01*
X41164090Y-19098559D01*
X40951890Y-18953569D01*
X40700000Y-18902560D01*
X39500000Y-18902560D01*
X39264683Y-18946838D01*
X39048559Y-19085910D01*
X39000866Y-19155711D01*
X38964090Y-19098559D01*
X38751890Y-18953569D01*
X38500000Y-18902560D01*
X37300000Y-18902560D01*
X37064683Y-18946838D01*
X36848559Y-19085910D01*
X36703569Y-19298110D01*
X36652560Y-19550000D01*
X2914385Y-19550000D01*
X2976000Y-18718201D01*
X3196103Y-17700225D01*
X3900897Y-18406250D01*
X5714061Y-19159141D01*
X7677325Y-19160854D01*
X9491801Y-18411129D01*
X10881250Y-17024103D01*
X11634141Y-15210939D01*
X11634652Y-14625000D01*
X22802560Y-14625000D01*
X22802560Y-15375000D01*
X22846838Y-15610317D01*
X22985910Y-15826441D01*
X23198110Y-15971431D01*
X23450000Y-16022440D01*
X24650000Y-16022440D01*
X24885317Y-15978162D01*
X24988646Y-15911671D01*
X24990302Y-15913327D01*
X25223691Y-16010000D01*
X25664250Y-16010000D01*
X25823000Y-15851250D01*
X25823000Y-15127000D01*
X26077000Y-15127000D01*
X26077000Y-15851250D01*
X26235750Y-16010000D01*
X26676309Y-16010000D01*
X26909698Y-15913327D01*
X27088327Y-15734699D01*
X27185000Y-15501310D01*
X27185000Y-15285750D01*
X27026250Y-15127000D01*
X26077000Y-15127000D01*
X25823000Y-15127000D01*
X25803000Y-15127000D01*
X25803000Y-15080159D01*
X36019446Y-15080159D01*
X36105852Y-15336643D01*
X36679336Y-15546458D01*
X37289460Y-15520839D01*
X37734148Y-15336643D01*
X37820554Y-15080159D01*
X36920000Y-14179605D01*
X36019446Y-15080159D01*
X25803000Y-15080159D01*
X25803000Y-14873000D01*
X25823000Y-14873000D01*
X25823000Y-14148750D01*
X26077000Y-14148750D01*
X26077000Y-14873000D01*
X27026250Y-14873000D01*
X27185000Y-14714250D01*
X27185000Y-14498690D01*
X27088327Y-14265301D01*
X26909698Y-14086673D01*
X26676309Y-13990000D01*
X26235750Y-13990000D01*
X26077000Y-14148750D01*
X25823000Y-14148750D01*
X25664250Y-13990000D01*
X25223691Y-13990000D01*
X24990302Y-14086673D01*
X24988932Y-14088043D01*
X24901890Y-14028569D01*
X24650000Y-13977560D01*
X23450000Y-13977560D01*
X23214683Y-14021838D01*
X22998559Y-14160910D01*
X22853569Y-14373110D01*
X22802560Y-14625000D01*
X11634652Y-14625000D01*
X11635854Y-13247675D01*
X10886129Y-11433199D01*
X9499103Y-10043750D01*
X7685939Y-9290859D01*
X6253558Y-9289609D01*
X6755113Y-8372480D01*
X8631009Y-6176309D01*
X9462369Y-6176309D01*
X9559042Y-6409698D01*
X9737670Y-6588327D01*
X9985116Y-6835772D01*
X10209622Y-6835772D01*
X10995395Y-6050000D01*
X10209622Y-5264228D01*
X9985116Y-5264228D01*
X9559043Y-5690301D01*
X9462370Y-5923690D01*
X9462369Y-6176309D01*
X8631009Y-6176309D01*
X8789927Y-5990259D01*
X11062437Y-4063565D01*
X11608075Y-3893496D01*
X11574294Y-3974849D01*
X11573859Y-4473203D01*
X11534698Y-4434042D01*
X11301309Y-4337369D01*
X11048690Y-4337370D01*
X10815301Y-4434043D01*
X10389228Y-4860116D01*
X10389228Y-5084622D01*
X11175000Y-5870395D01*
X11189142Y-5856252D01*
X11368748Y-6035858D01*
X11354605Y-6050000D01*
X11368748Y-6064142D01*
X11189142Y-6243748D01*
X11175000Y-6229605D01*
X10389228Y-7015378D01*
X10389228Y-7239884D01*
X10636673Y-7487330D01*
X10815302Y-7665958D01*
X11048691Y-7762631D01*
X11301310Y-7762630D01*
X11534699Y-7665957D01*
X11574242Y-7626414D01*
X11573809Y-8122712D01*
X11786041Y-8636354D01*
X12178681Y-9029680D01*
X12691951Y-9242808D01*
X13247712Y-9243293D01*
X13455745Y-9157336D01*
X13370345Y-9363002D01*
X13369860Y-9918763D01*
X13582092Y-10432405D01*
X13974732Y-10825731D01*
X14488002Y-11038859D01*
X15043763Y-11039344D01*
X15251798Y-10953386D01*
X15166397Y-11159054D01*
X15165912Y-11714815D01*
X15378144Y-12228457D01*
X15770784Y-12621783D01*
X16284054Y-12834911D01*
X16839815Y-12835396D01*
X17353457Y-12623164D01*
X17746783Y-12230524D01*
X17959911Y-11717254D01*
X17960396Y-11161493D01*
X17874438Y-10953459D01*
X18080105Y-11038859D01*
X18635866Y-11039344D01*
X19149508Y-10827112D01*
X19542834Y-10434472D01*
X19755962Y-9921202D01*
X19756447Y-9365441D01*
X19544215Y-8851799D01*
X19151575Y-8458473D01*
X18638305Y-8245345D01*
X18082544Y-8244860D01*
X17874511Y-8330817D01*
X17959911Y-8125151D01*
X17960396Y-7569390D01*
X17748164Y-7055748D01*
X17355524Y-6662422D01*
X16842254Y-6449294D01*
X16286493Y-6448809D01*
X16078459Y-6534767D01*
X16163859Y-6329100D01*
X16164344Y-5773339D01*
X15952112Y-5259697D01*
X15559472Y-4866371D01*
X15046202Y-4653243D01*
X14490441Y-4652758D01*
X14282408Y-4738715D01*
X14367808Y-4533049D01*
X14368293Y-3977288D01*
X14156061Y-3463646D01*
X13878676Y-3185776D01*
X14841767Y-2885592D01*
X18318547Y-4452591D01*
M02*
