G04 #@! TF.FileFunction,Soldermask,Bot*
%FSLAX46Y46*%
G04 Gerber Fmt 4.6, Leading zero omitted, Abs format (unit mm)*
G04 Created by KiCad (PCBNEW 4.0.7) date 2018 June 15, Friday 20:43:35*
%MOMM*%
%LPD*%
G01*
G04 APERTURE LIST*
%ADD10C,0.100000*%
%ADD11C,2.000000*%
%ADD12R,1.600000X1.150000*%
%ADD13R,2.200000X2.200000*%
%ADD14C,2.200000*%
%ADD15C,2.100000*%
%ADD16R,1.600000X1.300000*%
%ADD17R,2.432000X2.127200*%
%ADD18O,2.432000X2.127200*%
%ADD19C,2.400000*%
%ADD20C,1.924000*%
%ADD21C,2.100000*%
%ADD22C,2.000000*%
%ADD23C,9.000000*%
%ADD24C,1.300000*%
G04 APERTURE END LIST*
D10*
G36*
X64414214Y-28000000D02*
X63000000Y-29414214D01*
X61585786Y-28000000D01*
X63000000Y-26585786D01*
X64414214Y-28000000D01*
X64414214Y-28000000D01*
G37*
D11*
X58403806Y-23403806D03*
D10*
G36*
X13585786Y-66000000D02*
X15000000Y-64585786D01*
X16414214Y-66000000D01*
X15000000Y-67414214D01*
X13585786Y-66000000D01*
X13585786Y-66000000D01*
G37*
D11*
X19596194Y-70596194D03*
D12*
X24050000Y-15000000D03*
X25950000Y-15000000D03*
D10*
G36*
X67855977Y-31169150D02*
X68669150Y-30355977D01*
X69800521Y-31487348D01*
X68987348Y-32300521D01*
X67855977Y-31169150D01*
X67855977Y-31169150D01*
G37*
G36*
X69199479Y-32512652D02*
X70012652Y-31699479D01*
X71144023Y-32830850D01*
X70330850Y-33644023D01*
X69199479Y-32512652D01*
X69199479Y-32512652D01*
G37*
D12*
X11050000Y-37000000D03*
X12950000Y-37000000D03*
D10*
G36*
X45169150Y-80644023D02*
X44355977Y-79830850D01*
X45487348Y-78699479D01*
X46300521Y-79512652D01*
X45169150Y-80644023D01*
X45169150Y-80644023D01*
G37*
G36*
X46512652Y-79300521D02*
X45699479Y-78487348D01*
X46830850Y-77355977D01*
X47644023Y-78169150D01*
X46512652Y-79300521D01*
X46512652Y-79300521D01*
G37*
G36*
X54169150Y-73644023D02*
X53355977Y-72830850D01*
X54487348Y-71699479D01*
X55300521Y-72512652D01*
X54169150Y-73644023D01*
X54169150Y-73644023D01*
G37*
G36*
X55512652Y-72300521D02*
X54699479Y-71487348D01*
X55830850Y-70355977D01*
X56644023Y-71169150D01*
X55512652Y-72300521D01*
X55512652Y-72300521D01*
G37*
G36*
X63169150Y-64644023D02*
X62355977Y-63830850D01*
X63487348Y-62699479D01*
X64300521Y-63512652D01*
X63169150Y-64644023D01*
X63169150Y-64644023D01*
G37*
G36*
X64512652Y-63300521D02*
X63699479Y-62487348D01*
X64830850Y-61355977D01*
X65644023Y-62169150D01*
X64512652Y-63300521D01*
X64512652Y-63300521D01*
G37*
G36*
X70169150Y-55644023D02*
X69355977Y-54830850D01*
X70487348Y-53699479D01*
X71300521Y-54512652D01*
X70169150Y-55644023D01*
X70169150Y-55644023D01*
G37*
G36*
X71512652Y-54300521D02*
X70699479Y-53487348D01*
X71830850Y-52355977D01*
X72644023Y-53169150D01*
X71512652Y-54300521D01*
X71512652Y-54300521D01*
G37*
D13*
X33000000Y-13000000D03*
D14*
X30460000Y-13000000D03*
D10*
G36*
X81851718Y-37783621D02*
X82216379Y-39851718D01*
X80148282Y-40216379D01*
X79783621Y-38148282D01*
X81851718Y-37783621D01*
X81851718Y-37783621D01*
G37*
D15*
X78498588Y-39441066D02*
X78498588Y-39441066D01*
X81441066Y-41501412D02*
X81441066Y-41501412D01*
X78939655Y-41942478D02*
X78939655Y-41942478D01*
X81882133Y-44002823D02*
X81882133Y-44002823D01*
X79380721Y-44443890D02*
X79380721Y-44443890D01*
X82323199Y-46504235D02*
X82323199Y-46504235D01*
X79821787Y-46945301D02*
X79821787Y-46945301D01*
X82764265Y-49005647D02*
X82764265Y-49005647D01*
X80262854Y-49446713D02*
X80262854Y-49446713D01*
X83205332Y-51507058D02*
X83205332Y-51507058D01*
X80703920Y-51948125D02*
X80703920Y-51948125D01*
X83646398Y-54008470D02*
X83646398Y-54008470D01*
X81144987Y-54449537D02*
X81144987Y-54449537D01*
X84087465Y-56509882D02*
X84087465Y-56509882D01*
X81586053Y-56950948D02*
X81586053Y-56950948D01*
X84528531Y-59011294D02*
X84528531Y-59011294D01*
X82027119Y-59452360D02*
X82027119Y-59452360D01*
X84969597Y-61512705D02*
X84969597Y-61512705D01*
X82468186Y-61953772D02*
X82468186Y-61953772D01*
X85410664Y-64014117D02*
X85410664Y-64014117D01*
X82909252Y-64455183D02*
X82909252Y-64455183D01*
X85851730Y-66515529D02*
X85851730Y-66515529D01*
X83350318Y-66956595D02*
X83350318Y-66956595D01*
X86292796Y-69016940D02*
X86292796Y-69016940D01*
X83791385Y-69458007D02*
X83791385Y-69458007D01*
X86733863Y-71518352D02*
X86733863Y-71518352D01*
X84232451Y-71959418D02*
X84232451Y-71959418D01*
X87174929Y-74019764D02*
X87174929Y-74019764D01*
X84673518Y-74460830D02*
X84673518Y-74460830D01*
D16*
X37900000Y-20000000D03*
X40100000Y-20000000D03*
D17*
X6000000Y-33040000D03*
D18*
X6000000Y-30500000D03*
X6000000Y-27960000D03*
D17*
X6524229Y-50560707D03*
D18*
X6524229Y-48020707D03*
X6524229Y-45480707D03*
X6524229Y-42940707D03*
D19*
X54181981Y-87181981D03*
X51000000Y-84000000D03*
X58778175Y-82585786D03*
X55596194Y-79403806D03*
X63181981Y-83181981D03*
X60000000Y-80000000D03*
X67778175Y-78585786D03*
X64596194Y-75403806D03*
X70181981Y-76181981D03*
X67000000Y-73000000D03*
X74778175Y-71585786D03*
X71596194Y-68403806D03*
X74181981Y-67181981D03*
X71000000Y-64000000D03*
X78778175Y-62585786D03*
X75596194Y-59403806D03*
D13*
X42000000Y-14000000D03*
D14*
X39460000Y-14000000D03*
X36920000Y-14000000D03*
D10*
G36*
X11175000Y-7410473D02*
X9814527Y-6050000D01*
X11175000Y-4689527D01*
X12535473Y-6050000D01*
X11175000Y-7410473D01*
X11175000Y-7410473D01*
G37*
D20*
X12971051Y-4253949D03*
X12971051Y-7846051D03*
X14767102Y-6050000D03*
X14767102Y-9642102D03*
X16563154Y-7846051D03*
X16563154Y-11438154D03*
X18359205Y-9642102D03*
D11*
X23000000Y-34500000D03*
X26535534Y-30964466D03*
D10*
G36*
X38000000Y-57484924D02*
X36515076Y-56000000D01*
X38000000Y-54515076D01*
X39484924Y-56000000D01*
X38000000Y-57484924D01*
X38000000Y-57484924D01*
G37*
G36*
X48000000Y-47484924D02*
X46515076Y-46000000D01*
X48000000Y-44515076D01*
X49484924Y-46000000D01*
X48000000Y-47484924D01*
X48000000Y-47484924D01*
G37*
D21*
X29000000Y-72203949D03*
D15*
X30796051Y-74000000D02*
X30796051Y-74000000D01*
X27203949Y-74000000D02*
X27203949Y-74000000D01*
X29000000Y-75796051D02*
X29000000Y-75796051D01*
D10*
G36*
X78701718Y-34733621D02*
X79066379Y-36801718D01*
X76998282Y-37166379D01*
X76633621Y-35098282D01*
X78701718Y-34733621D01*
X78701718Y-34733621D01*
G37*
G36*
X14485786Y-50100000D02*
X15900000Y-48685786D01*
X17314214Y-50100000D01*
X15900000Y-51514214D01*
X14485786Y-50100000D01*
X14485786Y-50100000D01*
G37*
D22*
X50024973Y-37527641D02*
X50024973Y-37527641D01*
X17696051Y-48303949D02*
X17696051Y-48303949D01*
X48228922Y-39323693D02*
X48228922Y-39323693D01*
X19492102Y-46507898D02*
X19492102Y-46507898D01*
X46432871Y-41119744D02*
X46432871Y-41119744D01*
X21288154Y-44711846D02*
X21288154Y-44711846D01*
X44636820Y-42915795D02*
X44636820Y-42915795D01*
X23084205Y-42915795D02*
X23084205Y-42915795D01*
X42840768Y-44711846D02*
X42840768Y-44711846D01*
X24880256Y-41119744D02*
X24880256Y-41119744D01*
X41044717Y-46507898D02*
X41044717Y-46507898D01*
X26676307Y-39323693D02*
X26676307Y-39323693D01*
X39248666Y-48303949D02*
X39248666Y-48303949D01*
X28472359Y-37527641D02*
X28472359Y-37527641D01*
X37452615Y-50100000D02*
X37452615Y-50100000D01*
X30268410Y-35731590D02*
X30268410Y-35731590D01*
X35656563Y-51896051D02*
X35656563Y-51896051D01*
X32064461Y-33935539D02*
X32064461Y-33935539D01*
X33860512Y-53692102D02*
X33860512Y-53692102D01*
X33860512Y-32139488D02*
X33860512Y-32139488D01*
X32064461Y-55488154D02*
X32064461Y-55488154D01*
X35656563Y-30343437D02*
X35656563Y-30343437D01*
X30268410Y-57284205D02*
X30268410Y-57284205D01*
X37452615Y-28547385D02*
X37452615Y-28547385D01*
X28472359Y-59080256D02*
X28472359Y-59080256D01*
X39248666Y-26751334D02*
X39248666Y-26751334D01*
X26676307Y-60876307D02*
X26676307Y-60876307D01*
X41044717Y-24955283D02*
X41044717Y-24955283D01*
X51821024Y-35731590D02*
X51821024Y-35731590D01*
D23*
X6700000Y-14225000D03*
D24*
X9925000Y-14225000D03*
X8980419Y-16505419D03*
X6700000Y-17450000D03*
X4419581Y-16505419D03*
X3475000Y-14225000D03*
X4419581Y-11944581D03*
X6700000Y-11000000D03*
X8980419Y-11944581D03*
M02*
