M48
;DRILL file {KiCad 4.0.7} date 06/10/18 23:21:42
;FORMAT={-:-/ absolute / metric / decimal}
FMAT,2
METRIC,TZ
T1C0.400
T2C0.762
T3C0.800
T4C0.900
T5C1.000
T6C1.016
T7C1.020
T8C1.100
%
G90
G05
M71
T1
X10.6Y-48.964
X17.578Y-36.251
X25.243Y-69.195
X25.332Y-15.655
X29.05Y-16.326
X30.449Y-39.697
X31.097Y-38.094
X34.981Y-34.657
X35.239Y-28.106
X37.075Y-68.18
X43.76Y-36.416
X47.471Y-75.06
X47.709Y-54.666
X48.115Y-71.859
X48.835Y-37.114
X52.42Y-71.165
X53.793Y-49.551
X55.399Y-71.45
X56.88Y-66.529
X58.483Y-69.914
X58.525Y-47.831
X59.356Y-47.
X60.128Y-67.219
X64.266Y-71.45
X67.499Y-68.241
X67.506Y-63.676
X69.051Y-67.416
X70.054Y-80.02
X75.009Y-61.703
X79.515Y-55.414
X81.106Y-54.519
X81.447Y-36.794
X81.781Y-56.592
T2
X9.204Y-11.204
X11.Y-9.408
X11.Y-13.
X12.796Y-7.612
X12.796Y-11.204
X14.592Y-5.816
X14.592Y-9.408
X16.388Y-7.612
T3
X17.Y-50.
X18.796Y-48.204
X20.592Y-46.408
X22.388Y-44.612
X24.184Y-42.816
X25.98Y-41.02
X27.776Y-39.224
X27.776Y-60.776
X29.572Y-37.428
X29.572Y-58.98
X31.368Y-35.632
X31.368Y-57.184
X33.164Y-33.836
X33.164Y-55.388
X34.961Y-32.039
X34.961Y-53.592
X36.757Y-30.243
X36.757Y-51.796
X38.553Y-28.447
X38.553Y-50.
X40.349Y-26.651
X40.349Y-48.204
X42.145Y-24.855
X42.145Y-46.408
X43.941Y-44.612
X45.737Y-42.816
X47.533Y-41.02
X49.329Y-39.224
X51.125Y-37.428
X52.921Y-35.632
T4
X30.46Y-13.
X33.Y-13.
X36.92Y-14.
X39.46Y-14.
X42.Y-14.
T5
X15.Y-66.
X19.596Y-70.596
X58.404Y-23.404
X63.Y-28.
X83.46Y-47.
X83.46Y-49.54
X83.46Y-52.08
X83.46Y-54.62
X83.46Y-57.16
X83.46Y-59.7
X83.46Y-62.24
X83.46Y-64.78
X83.46Y-67.32
X83.46Y-69.86
X83.46Y-72.4
X83.46Y-74.94
X83.46Y-77.48
X83.46Y-80.02
X83.46Y-82.56
X86.Y-47.
X86.Y-49.54
X86.Y-52.08
X86.Y-54.62
X86.Y-57.16
X86.Y-59.7
X86.Y-62.24
X86.Y-64.78
X86.Y-67.32
X86.Y-69.86
X86.Y-72.4
X86.Y-74.94
X86.Y-77.48
X86.Y-80.02
X86.Y-82.56
T6
X5.Y-18.46
X5.Y-21.
X5.Y-23.54
X5.024Y-34.441
X5.024Y-36.981
X5.024Y-39.521
X5.024Y-42.061
T7
X96.Y-5.
X104.98Y3.98
T8
X51.Y-84.
X54.182Y-87.182
X55.596Y-79.404
X58.778Y-82.586
X60.Y-80.
X63.182Y-83.182
X64.596Y-75.404
X67.Y-73.
X67.778Y-78.586
X70.182Y-76.182
X71.Y-64.
X71.596Y-68.404
X74.182Y-67.182
X74.778Y-71.586
X75.596Y-59.404
X78.778Y-62.586
T0
M30
