M48
;DRILL file {KiCad 4.0.7} date 06/04/18 22:21:04
;FORMAT={-:-/ absolute / metric / decimal}
FMAT,2
METRIC,TZ
T1C0.762
T2C0.800
T3C0.900
T4C1.000
T5C1.016
T6C1.020
%
G90
G05
M71
T1
X46.Y55.62
X46.Y53.08
X46.Y50.54
X46.Y48.
X48.54Y55.62
X48.54Y53.08
X48.54Y50.54
X48.54Y48.
T2
X12.Y55.56
X12.Y53.02
X12.Y50.48
X12.Y47.94
X12.Y45.4
X12.Y42.86
X12.Y40.32
X12.Y37.78
X12.Y35.24
X12.Y32.7
X12.Y30.16
X12.Y27.62
X12.Y25.08
X12.Y22.54
X12.Y20.
X27.24Y55.56
X27.24Y53.02
X27.24Y50.48
X27.24Y47.94
X27.24Y45.4
X27.24Y42.86
X27.24Y40.32
X27.24Y37.78
X27.24Y35.24
X27.24Y32.7
X27.24Y30.16
X27.24Y27.62
X27.24Y25.08
X27.24Y22.54
X27.24Y20.
T3
X4.Y37.54
X4.Y35.
X4.Y30.08
X4.Y27.54
X4.Y25.
T4
X18.Y55.56
X18.Y53.02
X18.Y50.48
X18.Y47.94
X18.Y45.4
X18.Y42.86
X18.Y40.32
X18.Y37.78
X18.Y35.24
X18.Y32.7
X18.Y30.16
X18.Y27.62
X18.Y25.08
X18.Y22.54
X18.Y20.
X20.54Y55.56
X20.54Y53.02
X20.54Y50.48
X20.54Y47.94
X20.54Y45.4
X20.54Y42.86
X20.54Y40.32
X20.54Y37.78
X20.54Y35.24
X20.54Y32.7
X20.54Y30.16
X20.54Y27.62
X20.54Y25.08
X20.54Y22.54
X20.54Y20.
X37.Y37.5
X37.Y31.
X37.Y24.
X37.Y17.5
T5
X4.Y55.54
X4.Y53.
X4.Y50.46
X37.024Y55.061
X37.024Y52.521
X37.024Y49.981
X37.024Y47.441
T6
X48.Y22.7
X48.Y10.
T0
M30
