G04 #@! TF.FileFunction,Copper,L2,Bot,Signal*
%FSLAX46Y46*%
G04 Gerber Fmt 4.6, Leading zero omitted, Abs format (unit mm)*
G04 Created by KiCad (PCBNEW 4.0.7) date 2018 June 15, Friday 20:43:35*
%MOMM*%
%LPD*%
G01*
G04 APERTURE LIST*
%ADD10C,0.100000*%
%ADD11C,1.600000*%
%ADD12R,1.200000X0.750000*%
%ADD13R,1.800000X1.800000*%
%ADD14C,1.800000*%
%ADD15C,1.700000*%
%ADD16R,1.200000X0.900000*%
%ADD17R,2.032000X1.727200*%
%ADD18O,2.032000X1.727200*%
%ADD19C,2.000000*%
%ADD20C,1.524000*%
%ADD21C,1.700000*%
%ADD22C,1.600000*%
%ADD23C,8.600000*%
%ADD24C,0.900000*%
%ADD25C,0.600000*%
%ADD26C,0.127000*%
%ADD27C,0.250000*%
G04 APERTURE END LIST*
D10*
G36*
X64131371Y-28000000D02*
X63000000Y-29131371D01*
X61868629Y-28000000D01*
X63000000Y-26868629D01*
X64131371Y-28000000D01*
X64131371Y-28000000D01*
G37*
D11*
X58403806Y-23403806D03*
D10*
G36*
X13868629Y-66000000D02*
X15000000Y-64868629D01*
X16131371Y-66000000D01*
X15000000Y-67131371D01*
X13868629Y-66000000D01*
X13868629Y-66000000D01*
G37*
D11*
X19596194Y-70596194D03*
D12*
X24050000Y-15000000D03*
X25950000Y-15000000D03*
D10*
G36*
X68138820Y-31169150D02*
X68669150Y-30638820D01*
X69517678Y-31487348D01*
X68987348Y-32017678D01*
X68138820Y-31169150D01*
X68138820Y-31169150D01*
G37*
G36*
X69482322Y-32512652D02*
X70012652Y-31982322D01*
X70861180Y-32830850D01*
X70330850Y-33361180D01*
X69482322Y-32512652D01*
X69482322Y-32512652D01*
G37*
D12*
X11050000Y-37000000D03*
X12950000Y-37000000D03*
D10*
G36*
X45169150Y-80361180D02*
X44638820Y-79830850D01*
X45487348Y-78982322D01*
X46017678Y-79512652D01*
X45169150Y-80361180D01*
X45169150Y-80361180D01*
G37*
G36*
X46512652Y-79017678D02*
X45982322Y-78487348D01*
X46830850Y-77638820D01*
X47361180Y-78169150D01*
X46512652Y-79017678D01*
X46512652Y-79017678D01*
G37*
G36*
X54169150Y-73361180D02*
X53638820Y-72830850D01*
X54487348Y-71982322D01*
X55017678Y-72512652D01*
X54169150Y-73361180D01*
X54169150Y-73361180D01*
G37*
G36*
X55512652Y-72017678D02*
X54982322Y-71487348D01*
X55830850Y-70638820D01*
X56361180Y-71169150D01*
X55512652Y-72017678D01*
X55512652Y-72017678D01*
G37*
G36*
X63169150Y-64361180D02*
X62638820Y-63830850D01*
X63487348Y-62982322D01*
X64017678Y-63512652D01*
X63169150Y-64361180D01*
X63169150Y-64361180D01*
G37*
G36*
X64512652Y-63017678D02*
X63982322Y-62487348D01*
X64830850Y-61638820D01*
X65361180Y-62169150D01*
X64512652Y-63017678D01*
X64512652Y-63017678D01*
G37*
G36*
X70169150Y-55361180D02*
X69638820Y-54830850D01*
X70487348Y-53982322D01*
X71017678Y-54512652D01*
X70169150Y-55361180D01*
X70169150Y-55361180D01*
G37*
G36*
X71512652Y-54017678D02*
X70982322Y-53487348D01*
X71830850Y-52638820D01*
X72361180Y-53169150D01*
X71512652Y-54017678D01*
X71512652Y-54017678D01*
G37*
D13*
X33000000Y-13000000D03*
D14*
X30460000Y-13000000D03*
D10*
G36*
X81689486Y-38015312D02*
X81984688Y-39689486D01*
X80310514Y-39984688D01*
X80015312Y-38310514D01*
X81689486Y-38015312D01*
X81689486Y-38015312D01*
G37*
D15*
X78498588Y-39441066D02*
X78498588Y-39441066D01*
X81441066Y-41501412D02*
X81441066Y-41501412D01*
X78939655Y-41942478D02*
X78939655Y-41942478D01*
X81882133Y-44002823D02*
X81882133Y-44002823D01*
X79380721Y-44443890D02*
X79380721Y-44443890D01*
X82323199Y-46504235D02*
X82323199Y-46504235D01*
X79821787Y-46945301D02*
X79821787Y-46945301D01*
X82764265Y-49005647D02*
X82764265Y-49005647D01*
X80262854Y-49446713D02*
X80262854Y-49446713D01*
X83205332Y-51507058D02*
X83205332Y-51507058D01*
X80703920Y-51948125D02*
X80703920Y-51948125D01*
X83646398Y-54008470D02*
X83646398Y-54008470D01*
X81144987Y-54449537D02*
X81144987Y-54449537D01*
X84087465Y-56509882D02*
X84087465Y-56509882D01*
X81586053Y-56950948D02*
X81586053Y-56950948D01*
X84528531Y-59011294D02*
X84528531Y-59011294D01*
X82027119Y-59452360D02*
X82027119Y-59452360D01*
X84969597Y-61512705D02*
X84969597Y-61512705D01*
X82468186Y-61953772D02*
X82468186Y-61953772D01*
X85410664Y-64014117D02*
X85410664Y-64014117D01*
X82909252Y-64455183D02*
X82909252Y-64455183D01*
X85851730Y-66515529D02*
X85851730Y-66515529D01*
X83350318Y-66956595D02*
X83350318Y-66956595D01*
X86292796Y-69016940D02*
X86292796Y-69016940D01*
X83791385Y-69458007D02*
X83791385Y-69458007D01*
X86733863Y-71518352D02*
X86733863Y-71518352D01*
X84232451Y-71959418D02*
X84232451Y-71959418D01*
X87174929Y-74019764D02*
X87174929Y-74019764D01*
X84673518Y-74460830D02*
X84673518Y-74460830D01*
D16*
X37900000Y-20000000D03*
X40100000Y-20000000D03*
D17*
X6000000Y-33040000D03*
D18*
X6000000Y-30500000D03*
X6000000Y-27960000D03*
D17*
X6524229Y-50560707D03*
D18*
X6524229Y-48020707D03*
X6524229Y-45480707D03*
X6524229Y-42940707D03*
D19*
X54181981Y-87181981D03*
X51000000Y-84000000D03*
X58778175Y-82585786D03*
X55596194Y-79403806D03*
X63181981Y-83181981D03*
X60000000Y-80000000D03*
X67778175Y-78585786D03*
X64596194Y-75403806D03*
X70181981Y-76181981D03*
X67000000Y-73000000D03*
X74778175Y-71585786D03*
X71596194Y-68403806D03*
X74181981Y-67181981D03*
X71000000Y-64000000D03*
X78778175Y-62585786D03*
X75596194Y-59403806D03*
D13*
X42000000Y-14000000D03*
D14*
X39460000Y-14000000D03*
X36920000Y-14000000D03*
D10*
G36*
X11175000Y-7127631D02*
X10097369Y-6050000D01*
X11175000Y-4972369D01*
X12252631Y-6050000D01*
X11175000Y-7127631D01*
X11175000Y-7127631D01*
G37*
D20*
X12971051Y-4253949D03*
X12971051Y-7846051D03*
X14767102Y-6050000D03*
X14767102Y-9642102D03*
X16563154Y-7846051D03*
X16563154Y-11438154D03*
X18359205Y-9642102D03*
D11*
X23000000Y-34500000D03*
X26535534Y-30964466D03*
D10*
G36*
X38000000Y-57202082D02*
X36797918Y-56000000D01*
X38000000Y-54797918D01*
X39202082Y-56000000D01*
X38000000Y-57202082D01*
X38000000Y-57202082D01*
G37*
G36*
X48000000Y-47202082D02*
X46797918Y-46000000D01*
X48000000Y-44797918D01*
X49202082Y-46000000D01*
X48000000Y-47202082D01*
X48000000Y-47202082D01*
G37*
D21*
X29000000Y-72203949D03*
D15*
X30796051Y-74000000D02*
X30796051Y-74000000D01*
X27203949Y-74000000D02*
X27203949Y-74000000D01*
X29000000Y-75796051D02*
X29000000Y-75796051D01*
D10*
G36*
X78539486Y-34965312D02*
X78834688Y-36639486D01*
X77160514Y-36934688D01*
X76865312Y-35260514D01*
X78539486Y-34965312D01*
X78539486Y-34965312D01*
G37*
G36*
X14768629Y-50100000D02*
X15900000Y-48968629D01*
X17031371Y-50100000D01*
X15900000Y-51231371D01*
X14768629Y-50100000D01*
X14768629Y-50100000D01*
G37*
D22*
X50024973Y-37527641D02*
X50024973Y-37527641D01*
X17696051Y-48303949D02*
X17696051Y-48303949D01*
X48228922Y-39323693D02*
X48228922Y-39323693D01*
X19492102Y-46507898D02*
X19492102Y-46507898D01*
X46432871Y-41119744D02*
X46432871Y-41119744D01*
X21288154Y-44711846D02*
X21288154Y-44711846D01*
X44636820Y-42915795D02*
X44636820Y-42915795D01*
X23084205Y-42915795D02*
X23084205Y-42915795D01*
X42840768Y-44711846D02*
X42840768Y-44711846D01*
X24880256Y-41119744D02*
X24880256Y-41119744D01*
X41044717Y-46507898D02*
X41044717Y-46507898D01*
X26676307Y-39323693D02*
X26676307Y-39323693D01*
X39248666Y-48303949D02*
X39248666Y-48303949D01*
X28472359Y-37527641D02*
X28472359Y-37527641D01*
X37452615Y-50100000D02*
X37452615Y-50100000D01*
X30268410Y-35731590D02*
X30268410Y-35731590D01*
X35656563Y-51896051D02*
X35656563Y-51896051D01*
X32064461Y-33935539D02*
X32064461Y-33935539D01*
X33860512Y-53692102D02*
X33860512Y-53692102D01*
X33860512Y-32139488D02*
X33860512Y-32139488D01*
X32064461Y-55488154D02*
X32064461Y-55488154D01*
X35656563Y-30343437D02*
X35656563Y-30343437D01*
X30268410Y-57284205D02*
X30268410Y-57284205D01*
X37452615Y-28547385D02*
X37452615Y-28547385D01*
X28472359Y-59080256D02*
X28472359Y-59080256D01*
X39248666Y-26751334D02*
X39248666Y-26751334D01*
X26676307Y-60876307D02*
X26676307Y-60876307D01*
X41044717Y-24955283D02*
X41044717Y-24955283D01*
X51821024Y-35731590D02*
X51821024Y-35731590D01*
D23*
X6700000Y-14225000D03*
D24*
X9925000Y-14225000D03*
X8980419Y-16505419D03*
X6700000Y-17450000D03*
X4419581Y-16505419D03*
X3475000Y-14225000D03*
X4419581Y-11944581D03*
X6700000Y-11000000D03*
X8980419Y-11944581D03*
D25*
X39574500Y-27991800D03*
X33579200Y-65014600D03*
X23500000Y-16000000D03*
X32500000Y-23000000D03*
X73403173Y-49796585D03*
X71650000Y-43500000D03*
X78000000Y-49500000D03*
X77000000Y-54500000D03*
X75000000Y-54000000D03*
X74500000Y-61500000D03*
X75500000Y-47000000D03*
X72000000Y-46500000D03*
X72000000Y-55000000D03*
X67500000Y-59000000D03*
X64500000Y-64500000D03*
X68000000Y-67000000D03*
X72946839Y-69446839D03*
X76500000Y-69000000D03*
X53884100Y-71772100D03*
X44000000Y-72000000D03*
X42000000Y-59000000D03*
X49398958Y-74398958D03*
X9711800Y-36794500D03*
X23328900Y-19074600D03*
X69797600Y-53888900D03*
X62856100Y-62786300D03*
X53884100Y-71772100D03*
X45998400Y-80342000D03*
X63698400Y-33305100D03*
X76726000Y-45890000D03*
X10341100Y-33329300D03*
X63669600Y-40461400D03*
X61686200Y-55268500D03*
X21610000Y-46395700D03*
X76659500Y-52590700D03*
X57782200Y-65656100D03*
X75516900Y-52491700D03*
X24644300Y-39137100D03*
X54824100Y-53407200D03*
X28000000Y-12000000D03*
X28189798Y-18810202D03*
X42500000Y-22500000D03*
X35500000Y-20000000D03*
X16000000Y-30000000D03*
X22664467Y-30164467D03*
X12649997Y-31500000D03*
X84743600Y-39099100D03*
X84743600Y-45570800D03*
X73068100Y-54474300D03*
X66068100Y-63598700D03*
X57068100Y-72451500D03*
X49741100Y-77437300D03*
X70159600Y-31415400D03*
X68512100Y-59888600D03*
X66656500Y-66692900D03*
X58372800Y-69186300D03*
X14219900Y-36981900D03*
X75352300Y-39550400D03*
X75352300Y-32141200D03*
X48907900Y-25057300D03*
X25950000Y-15965600D03*
X25365100Y-68949800D03*
X52679100Y-43131000D03*
X57243400Y-60668300D03*
X23359300Y-40076000D03*
X27959400Y-41605200D03*
X24655000Y-42859000D03*
X36434400Y-53460100D03*
X78635600Y-54711500D03*
X76500000Y-31000000D03*
X66982900Y-70886700D03*
D26*
X28472400Y-37527600D02*
X30268400Y-35731600D01*
X61607000Y-27991800D02*
X62299400Y-27299400D01*
X39574500Y-27991800D02*
X61607000Y-27991800D01*
X63000000Y-28000000D02*
X62299400Y-27299400D01*
X37452600Y-28547400D02*
X35656600Y-30343400D01*
X85851700Y-66515500D02*
X85657800Y-65415700D01*
X15985400Y-65014600D02*
X15000000Y-66000000D01*
X33579200Y-65014600D02*
X15985400Y-65014600D01*
X85396200Y-65415700D02*
X85657800Y-65415700D01*
X85243300Y-65568600D02*
X85396200Y-65415700D01*
X82055600Y-65568600D02*
X85243300Y-65568600D01*
X81831400Y-65344400D02*
X82055600Y-65568600D01*
X72296300Y-65344400D02*
X81831400Y-65344400D01*
X72169100Y-65471600D02*
X72296300Y-65344400D01*
X70021300Y-65471600D02*
X72169100Y-65471600D01*
X69867600Y-65317900D02*
X70021300Y-65471600D01*
X69730300Y-65317900D02*
X69867600Y-65317900D01*
X69629700Y-65217300D02*
X69730300Y-65317900D01*
X58346000Y-65217300D02*
X69629700Y-65217300D01*
X58143400Y-65014700D02*
X58346000Y-65217300D01*
X33579200Y-65014700D02*
X58143400Y-65014700D01*
X33579200Y-65014600D02*
X33579200Y-65014700D01*
D27*
X23500000Y-16000000D02*
X23500000Y-15550000D01*
X23500000Y-15550000D02*
X24050000Y-15000000D01*
X23957500Y-16000000D02*
X23957500Y-15092500D01*
X23957500Y-15092500D02*
X24050000Y-15000000D01*
X32500000Y-23000000D02*
X31425000Y-23000000D01*
X31425000Y-23000000D02*
X24050000Y-15625000D01*
X24050000Y-15625000D02*
X24050000Y-15000000D01*
X73403173Y-49796585D02*
X73403173Y-49066027D01*
X73403173Y-49066027D02*
X73984600Y-48484600D01*
X72000000Y-44081400D02*
X72000000Y-43850000D01*
X72000000Y-43850000D02*
X71650000Y-43500000D01*
X75500000Y-47000000D02*
X78000000Y-49500000D01*
X75000000Y-54000000D02*
X76500000Y-54000000D01*
X76500000Y-54000000D02*
X77000000Y-54500000D01*
X78778175Y-62585786D02*
X75585786Y-62585786D01*
X75585786Y-62585786D02*
X74500000Y-61500000D01*
X72000000Y-46500000D02*
X72000000Y-44081400D01*
X72000000Y-44081400D02*
X71000000Y-43081400D01*
X73984600Y-48515400D02*
X75500000Y-47000000D01*
X73984600Y-48484600D02*
X72000000Y-46500000D01*
X70328249Y-54671751D02*
X71671751Y-54671751D01*
X71671751Y-54671751D02*
X72000000Y-55000000D01*
X67500000Y-59000000D02*
X70328249Y-56171751D01*
X70328249Y-56171751D02*
X70328249Y-54671751D01*
X68000000Y-67000000D02*
X68500000Y-66500000D01*
X68500000Y-66500000D02*
X68585400Y-66500000D01*
X64500000Y-64500000D02*
X64156498Y-64500000D01*
X64156498Y-64500000D02*
X63328249Y-63671751D01*
X71727390Y-66500000D02*
X68585400Y-66500000D01*
X68585400Y-66500000D02*
X68500000Y-66585400D01*
X72946839Y-69446839D02*
X73246838Y-69146840D01*
X73246838Y-69146840D02*
X73246838Y-68019448D01*
X73246838Y-68019448D02*
X71727390Y-66500000D01*
X76500000Y-68000000D02*
X75681981Y-67181981D01*
X75681981Y-67181981D02*
X74181981Y-67181981D01*
X76500000Y-69000000D02*
X76500000Y-68000000D01*
X44000000Y-72000000D02*
X45328249Y-73328249D01*
X45328249Y-73328249D02*
X45328249Y-79671751D01*
X38000000Y-56000000D02*
X41000000Y-59000000D01*
X41000000Y-59000000D02*
X42000000Y-59000000D01*
X49398958Y-74398958D02*
X45328249Y-78469667D01*
X45328249Y-78469667D02*
X45328249Y-79671751D01*
X70328200Y-54671800D02*
X69797600Y-54141200D01*
X69797600Y-54141200D02*
X69797600Y-53888900D01*
X62856100Y-63082700D02*
X62797600Y-63141200D01*
X62856100Y-62786300D02*
X62856100Y-63082700D01*
X63328200Y-63671800D02*
X62797600Y-63141200D01*
X54328200Y-72671800D02*
X53797600Y-72141200D01*
X66851300Y-33305100D02*
X68828200Y-31328200D01*
X63698400Y-33305100D02*
X66851300Y-33305100D01*
X45328200Y-79671800D02*
X45998400Y-80342000D01*
X53884100Y-72054700D02*
X53797600Y-72141200D01*
X53884100Y-71772100D02*
X53884100Y-72054700D01*
X63512900Y-33119600D02*
X63698400Y-33305100D01*
X56555100Y-33119600D02*
X63512900Y-33119600D01*
X78766500Y-45890000D02*
X79821800Y-46945300D01*
X76726000Y-45890000D02*
X78766500Y-45890000D01*
D26*
X47447600Y-40461400D02*
X63669600Y-40461400D01*
X44829700Y-37843500D02*
X47447600Y-40461400D01*
X34176300Y-37843500D02*
X44829700Y-37843500D01*
X29662100Y-33329300D02*
X34176300Y-37843500D01*
X10341100Y-33329300D02*
X29662100Y-33329300D01*
D27*
X28429300Y-73492400D02*
X28070400Y-73133500D01*
X29507500Y-73492400D02*
X28429300Y-73492400D01*
X32800100Y-70199800D02*
X29507500Y-73492400D01*
X82472900Y-70199800D02*
X32800100Y-70199800D01*
X84232500Y-71959400D02*
X82472900Y-70199800D01*
X27203900Y-74000000D02*
X28070400Y-73133500D01*
X27765500Y-60303300D02*
X27507400Y-60045200D01*
X56651400Y-60303300D02*
X27765500Y-60303300D01*
X61686200Y-55268500D02*
X56651400Y-60303300D01*
X26676300Y-60876300D02*
X27507400Y-60045200D01*
D26*
X81000000Y-39000000D02*
X79794300Y-39212500D01*
X15900000Y-50100000D02*
X16600600Y-49399400D01*
X16600600Y-47998300D02*
X16600600Y-49399400D01*
X19107400Y-45491500D02*
X16600600Y-47998300D01*
X20492500Y-45491500D02*
X19107400Y-45491500D01*
X20834100Y-45833100D02*
X20492500Y-45491500D01*
X21787100Y-45833100D02*
X20834100Y-45833100D01*
X24076900Y-43543300D02*
X21787100Y-45833100D01*
X24076900Y-42112400D02*
X24076900Y-43543300D01*
X22852100Y-40887600D02*
X24076900Y-42112400D01*
X22852100Y-39889100D02*
X22852100Y-40887600D01*
X23163500Y-39577700D02*
X22852100Y-39889100D01*
X23555200Y-39577700D02*
X23163500Y-39577700D01*
X23690500Y-39713000D02*
X23555200Y-39577700D01*
X25664400Y-39713000D02*
X23690500Y-39713000D01*
X27065800Y-41114400D02*
X25664400Y-39713000D01*
X28162700Y-41114400D02*
X27065800Y-41114400D01*
X28222700Y-41174400D02*
X28162700Y-41114400D01*
X44656400Y-41174400D02*
X28222700Y-41174400D01*
X45641900Y-42159900D02*
X44656400Y-41174400D01*
X65700000Y-42159900D02*
X45641900Y-42159900D01*
X69635400Y-38224500D02*
X65700000Y-42159900D01*
X79053400Y-38224500D02*
X69635400Y-38224500D01*
X79794300Y-38965400D02*
X79053400Y-38224500D01*
X79794300Y-39212500D02*
X79794300Y-38965400D01*
X76659500Y-52576400D02*
X76659500Y-52590700D01*
X75825500Y-51742400D02*
X76659500Y-52576400D01*
X73044300Y-51742400D02*
X75825500Y-51742400D01*
X72863900Y-51562000D02*
X73044300Y-51742400D01*
X72769800Y-51562000D02*
X72863900Y-51562000D01*
X72515500Y-51307700D02*
X72769800Y-51562000D01*
X40456400Y-51307700D02*
X72515500Y-51307700D01*
X35544400Y-46395700D02*
X40456400Y-51307700D01*
X21610000Y-46395700D02*
X35544400Y-46395700D01*
D27*
X80116700Y-65783300D02*
X83791400Y-69458000D01*
X72478000Y-65783300D02*
X80116700Y-65783300D01*
X72350900Y-65910400D02*
X72478000Y-65783300D01*
X58036500Y-65910400D02*
X72350900Y-65910400D01*
X57782200Y-65656100D02*
X58036500Y-65910400D01*
D26*
X80728900Y-44250100D02*
X80782300Y-44196700D01*
X80480500Y-44250100D02*
X80728900Y-44250100D01*
X80480500Y-44250000D02*
X80480500Y-44250100D01*
X81882100Y-44002800D02*
X80782300Y-44196700D01*
X79380700Y-44443900D02*
X80480500Y-44250000D01*
X30268400Y-57284200D02*
X29567900Y-56583600D01*
X19492100Y-46507900D02*
X20192700Y-45807300D01*
X29567900Y-56583600D02*
X29567900Y-52645300D01*
X27030700Y-52645300D02*
X20192700Y-45807300D01*
X29567900Y-52645300D02*
X27030700Y-52645300D01*
X72980300Y-52491700D02*
X75516900Y-52491700D01*
X72304900Y-51816300D02*
X72980300Y-52491700D01*
X70931100Y-51816300D02*
X72304900Y-51816300D01*
X70092500Y-52654900D02*
X70931100Y-51816300D01*
X53828200Y-52654900D02*
X70092500Y-52654900D01*
X53573900Y-52909200D02*
X53828200Y-52654900D01*
X34851800Y-52909200D02*
X53573900Y-52909200D01*
X34587900Y-52645300D02*
X34851800Y-52909200D01*
X29567900Y-52645300D02*
X34587900Y-52645300D01*
X25480500Y-38300900D02*
X24644300Y-39137100D01*
X27449600Y-38300900D02*
X25480500Y-38300900D01*
X29567800Y-40419100D02*
X27449600Y-38300900D01*
X45732200Y-40419100D02*
X29567800Y-40419100D01*
X45732300Y-40419000D02*
X45732200Y-40419100D01*
X54956300Y-53275000D02*
X54824100Y-53407200D01*
X70213300Y-53275000D02*
X54956300Y-53275000D01*
X71163400Y-52324900D02*
X70213300Y-53275000D01*
X72000100Y-52324900D02*
X71163400Y-52324900D01*
X81178900Y-61503700D02*
X72000100Y-52324900D01*
X81178900Y-62247900D02*
X81178900Y-61503700D01*
X82008100Y-63077100D02*
X81178900Y-62247900D01*
X83102100Y-63077100D02*
X82008100Y-63077100D01*
X84224300Y-64199300D02*
X83102100Y-63077100D01*
X84224300Y-64425400D02*
X84224300Y-64199300D01*
X84902100Y-65103200D02*
X84224300Y-64425400D01*
X86048200Y-65103200D02*
X84902100Y-65103200D01*
X86951500Y-66006500D02*
X86048200Y-65103200D01*
X86951500Y-67008600D02*
X86951500Y-66006500D01*
X86335000Y-67625100D02*
X86951500Y-67008600D01*
X84237300Y-67625100D02*
X86335000Y-67625100D01*
X83806000Y-68056400D02*
X84237300Y-67625100D01*
X83544200Y-68056400D02*
X83806000Y-68056400D01*
X83350300Y-66956600D02*
X83544200Y-68056400D01*
X46432900Y-41119700D02*
X45732300Y-40419000D01*
D27*
X30000000Y-15000000D02*
X32150000Y-15000000D01*
X32150000Y-15000000D02*
X33000000Y-14150000D01*
X33000000Y-14150000D02*
X33000000Y-13000000D01*
X28500000Y-13500000D02*
X30000000Y-15000000D01*
X28500000Y-12500000D02*
X28500000Y-13500000D01*
X28000000Y-12000000D02*
X28500000Y-12500000D01*
X25950000Y-15000000D02*
X25950000Y-16570404D01*
X25950000Y-16570404D02*
X28189798Y-18810202D01*
X35500000Y-20000000D02*
X37742990Y-22242990D01*
X37742990Y-22242990D02*
X42242990Y-22242990D01*
X42242990Y-22242990D02*
X42500000Y-22500000D01*
X16164467Y-30164467D02*
X16000000Y-30000000D01*
X22664467Y-30164467D02*
X16164467Y-30164467D01*
X26535534Y-30964466D02*
X25735535Y-30164467D01*
X25735535Y-30164467D02*
X22664467Y-30164467D01*
X12508700Y-31500000D02*
X9540000Y-31500000D01*
X9540000Y-31500000D02*
X7266000Y-29226000D01*
X7266000Y-29226000D02*
X7266000Y-29073600D01*
X7266000Y-29073600D02*
X6152400Y-27960000D01*
X6152400Y-27960000D02*
X6000000Y-27960000D01*
X12508700Y-31500000D02*
X26000000Y-31500000D01*
X26000000Y-31500000D02*
X26535534Y-30964466D01*
X27267100Y-75796100D02*
X28133600Y-76662500D01*
X24796100Y-75796100D02*
X27267100Y-75796100D01*
X19596200Y-70596200D02*
X24796100Y-75796100D01*
X29000000Y-75796100D02*
X28133600Y-76662500D01*
X82323200Y-46504200D02*
X83618000Y-46276000D01*
X70171800Y-32671800D02*
X70702400Y-32141200D01*
X65942300Y-63598700D02*
X66068100Y-63598700D01*
X64671800Y-62328200D02*
X65942300Y-63598700D01*
X46671800Y-78328200D02*
X47202400Y-78858800D01*
X70702400Y-31958200D02*
X70159600Y-31415400D01*
X70702400Y-32141200D02*
X70702400Y-31958200D01*
X72817900Y-55582800D02*
X68512100Y-59888600D01*
X72817900Y-54474300D02*
X72817900Y-55582800D01*
X71671800Y-53328200D02*
X72817900Y-54474300D01*
X72817900Y-54474300D02*
X73068100Y-54474300D01*
X48623900Y-77437300D02*
X49741100Y-77437300D01*
X47202400Y-78858800D02*
X48623900Y-77437300D01*
X50645900Y-77437300D02*
X56213400Y-71869800D01*
X49741100Y-77437300D02*
X50645900Y-77437300D01*
X55671800Y-71328200D02*
X56213400Y-71869800D01*
X56795100Y-72451500D02*
X57068100Y-72451500D01*
X56213400Y-71869800D02*
X56795100Y-72451500D01*
X60866200Y-66692900D02*
X58372800Y-69186300D01*
X66656500Y-66692900D02*
X60866200Y-66692900D01*
X13943400Y-36981900D02*
X13925300Y-37000000D01*
X14219900Y-36981900D02*
X13943400Y-36981900D01*
X12950000Y-37000000D02*
X13925300Y-37000000D01*
X77644700Y-41842800D02*
X75352300Y-39550400D01*
X77644700Y-42170800D02*
X77644700Y-41842800D01*
X75352300Y-32141200D02*
X70702400Y-32141200D01*
X78939700Y-41942500D02*
X77644700Y-42170800D01*
X58403800Y-25054900D02*
X58403800Y-23403800D01*
X58401400Y-25057300D02*
X58403800Y-25054900D01*
X48907900Y-25057300D02*
X58401400Y-25057300D01*
X63799100Y-25054900D02*
X70159600Y-31415400D01*
X58403800Y-25054900D02*
X63799100Y-25054900D01*
X25950000Y-15965600D02*
X25950000Y-15000000D01*
X21242600Y-68949800D02*
X19596200Y-70596200D01*
X25365100Y-68949800D02*
X21242600Y-68949800D01*
X50869000Y-43131000D02*
X48000000Y-46000000D01*
X52679100Y-43131000D02*
X50869000Y-43131000D01*
X84552800Y-45570800D02*
X84743600Y-45570800D01*
X84526200Y-45597400D02*
X84552800Y-45570800D01*
X84296500Y-45597400D02*
X84526200Y-45597400D01*
X83618000Y-46275900D02*
X84296500Y-45597400D01*
X83618000Y-46276000D02*
X83618000Y-46275900D01*
X77785700Y-32141200D02*
X84743600Y-39099100D01*
X75352300Y-32141200D02*
X77785700Y-32141200D01*
D26*
X65704600Y-60668300D02*
X57243400Y-60668300D01*
X70253600Y-65217300D02*
X65704600Y-60668300D01*
X71936500Y-65217300D02*
X70253600Y-65217300D01*
X72504800Y-64649000D02*
X71936500Y-65217300D01*
X81809400Y-64649000D02*
X72504800Y-64649000D01*
X81809400Y-64649100D02*
X81809400Y-64649000D01*
X82909300Y-64455200D02*
X81809400Y-64649100D01*
X25632700Y-40076000D02*
X23359300Y-40076000D01*
X28472500Y-42915800D02*
X25632700Y-40076000D01*
X43235700Y-42915800D02*
X28472500Y-42915800D01*
X43936300Y-43616300D02*
X43235700Y-42915800D01*
X44636800Y-42915800D02*
X43936300Y-43616300D01*
X6524200Y-45480700D02*
X6524200Y-44426300D01*
X8432300Y-43572600D02*
X22427400Y-43572600D01*
X7578600Y-44426300D02*
X8432300Y-43572600D01*
X6524200Y-44426300D02*
X7578600Y-44426300D01*
X23084200Y-42915800D02*
X22427400Y-43572600D01*
X82764300Y-49005600D02*
X82570400Y-47905800D01*
X82308700Y-47905800D02*
X82570400Y-47905800D01*
X82034900Y-48179600D02*
X82308700Y-47905800D01*
X78712900Y-48179600D02*
X82034900Y-48179600D01*
X77037100Y-46503800D02*
X78712900Y-48179600D01*
X76471800Y-46503800D02*
X77037100Y-46503800D01*
X72435900Y-42467900D02*
X76471800Y-46503800D01*
X45590200Y-42467900D02*
X72435900Y-42467900D01*
X44727500Y-41605200D02*
X45590200Y-42467900D01*
X27959400Y-41605200D02*
X44727500Y-41605200D01*
X51000000Y-84000000D02*
X55596200Y-79403800D01*
X83205300Y-51507100D02*
X83011400Y-50407200D01*
X82749800Y-50407200D02*
X82572500Y-50584500D01*
X44950000Y-47400000D02*
X44950000Y-47388700D01*
X83011400Y-50407200D02*
X82749800Y-50407200D01*
X82572500Y-50584500D02*
X75215500Y-50584500D01*
X75215500Y-50584500D02*
X75200000Y-50600000D01*
X40563900Y-43853500D02*
X27614100Y-43853500D01*
X75200000Y-50600000D02*
X73339548Y-50600000D01*
X73339548Y-50600000D02*
X72985538Y-50245990D01*
X72985538Y-50245990D02*
X47795990Y-50245990D01*
X47795990Y-50245990D02*
X44950000Y-47400000D01*
X44950000Y-47388700D02*
X44099100Y-47388700D01*
X44099100Y-47388700D02*
X40563900Y-43853500D01*
X27614100Y-43853500D02*
X24880300Y-41119700D01*
X64596200Y-75403800D02*
X60000000Y-80000000D01*
X82027100Y-59452400D02*
X81833200Y-58352500D01*
X41044700Y-46507900D02*
X41745400Y-47208500D01*
X43107300Y-47208500D02*
X41745400Y-47208500D01*
X43887900Y-47989100D02*
X43107300Y-47208500D01*
X44292100Y-47989100D02*
X43887900Y-47989100D01*
X47102100Y-50799100D02*
X44292100Y-47989100D01*
X72726100Y-50799100D02*
X47102100Y-50799100D01*
X72980400Y-51053400D02*
X72726100Y-50799100D01*
X73074500Y-51053400D02*
X72980400Y-51053400D01*
X73254900Y-51233800D02*
X73074500Y-51053400D01*
X76036100Y-51233800D02*
X73254900Y-51233800D01*
X76066700Y-51264400D02*
X76036100Y-51233800D01*
X76349000Y-51264400D02*
X76066700Y-51264400D01*
X76930200Y-51845600D02*
X76349000Y-51264400D01*
X76968100Y-51845600D02*
X76930200Y-51845600D01*
X80661200Y-55538700D02*
X76968100Y-51845600D01*
X81753600Y-55538700D02*
X80661200Y-55538700D01*
X82675200Y-56460300D02*
X81753600Y-55538700D01*
X82675200Y-57510600D02*
X82675200Y-56460300D01*
X81833300Y-58352500D02*
X82675200Y-57510600D01*
X81833200Y-58352500D02*
X81833300Y-58352500D01*
X83646400Y-54008500D02*
X83452500Y-52908600D01*
X83452500Y-52908600D02*
X83190700Y-52908600D01*
X83190700Y-52908600D02*
X83021400Y-53077900D01*
X79439200Y-53077900D02*
X77341090Y-50979790D01*
X83021400Y-53077900D02*
X79439200Y-53077900D01*
X77341090Y-50979790D02*
X73360114Y-50979790D01*
X73360114Y-50979790D02*
X72880324Y-50500000D01*
X72880324Y-50500000D02*
X72150000Y-50500000D01*
X72150000Y-50500000D02*
X72104910Y-50545090D01*
X72104910Y-50545090D02*
X47567390Y-50545090D01*
X47567390Y-50545090D02*
X44757100Y-47734800D01*
X44757100Y-47734800D02*
X44067700Y-47734800D01*
X44067700Y-47734800D02*
X41842800Y-45509900D01*
X41842800Y-45509900D02*
X27305900Y-45509900D01*
X27305900Y-45509900D02*
X24655000Y-42859000D01*
X81586100Y-56950900D02*
X81392200Y-55851100D01*
X41998200Y-51053400D02*
X39248700Y-48303900D01*
X72620800Y-51053400D02*
X41998200Y-51053400D01*
X72875100Y-51307700D02*
X72620800Y-51053400D01*
X72969200Y-51307700D02*
X72875100Y-51307700D01*
X73149600Y-51488100D02*
X72969200Y-51307700D01*
X75930800Y-51488100D02*
X73149600Y-51488100D01*
X75961400Y-51518700D02*
X75930800Y-51488100D01*
X76243700Y-51518700D02*
X75961400Y-51518700D01*
X76824900Y-52099900D02*
X76243700Y-51518700D01*
X76862800Y-52099900D02*
X76824900Y-52099900D01*
X80614000Y-55851100D02*
X76862800Y-52099900D01*
X81392200Y-55851100D02*
X80614000Y-55851100D01*
X82964000Y-56268500D02*
X81145000Y-54449500D01*
X82964000Y-58015100D02*
X82964000Y-56268500D01*
X83116200Y-58167300D02*
X82964000Y-58015100D01*
X83116200Y-59951600D02*
X83116200Y-58167300D01*
X82515100Y-60552700D02*
X83116200Y-59951600D01*
X80587600Y-60552700D02*
X82515100Y-60552700D01*
X72105500Y-52070600D02*
X80587600Y-60552700D01*
X71036400Y-52070600D02*
X72105500Y-52070600D01*
X70197800Y-52909200D02*
X71036400Y-52070600D01*
X54060400Y-52909200D02*
X70197800Y-52909200D01*
X53509500Y-53460100D02*
X54060400Y-52909200D01*
X36434400Y-53460100D02*
X53509500Y-53460100D01*
X35656600Y-51896100D02*
X36357200Y-52596600D01*
X78434900Y-54711500D02*
X78635600Y-54711500D01*
X76804900Y-53081500D02*
X78434900Y-54711500D01*
X76456300Y-53081500D02*
X76804900Y-53081500D01*
X76168700Y-52793900D02*
X76456300Y-53081500D01*
X76168700Y-52445300D02*
X76168700Y-52793900D01*
X75720100Y-51996700D02*
X76168700Y-52445300D01*
X72939000Y-51996700D02*
X75720100Y-51996700D01*
X72758600Y-51816300D02*
X72939000Y-51996700D01*
X72664500Y-51816300D02*
X72758600Y-51816300D01*
X72410200Y-51562000D02*
X72664500Y-51816300D01*
X70825800Y-51562000D02*
X72410200Y-51562000D01*
X70391100Y-51996700D02*
X70825800Y-51562000D01*
X36957100Y-51996700D02*
X70391100Y-51996700D01*
X36357200Y-52596600D02*
X36957100Y-51996700D01*
X42000000Y-15259200D02*
X37900000Y-19359200D01*
X42000000Y-14000000D02*
X42000000Y-15259200D01*
X37900000Y-20000000D02*
X37900000Y-19359200D01*
X35646000Y-37517000D02*
X32064500Y-33935500D01*
X48291100Y-37517000D02*
X35646000Y-37517000D01*
X49427900Y-38653800D02*
X48291100Y-37517000D01*
X68719600Y-38653800D02*
X49427900Y-38653800D01*
X69580300Y-37793100D02*
X68719600Y-38653800D01*
X81747500Y-37793100D02*
X69580300Y-37793100D01*
X82429800Y-38475400D02*
X81747500Y-37793100D01*
X82429800Y-40074500D02*
X82429800Y-38475400D01*
X82684100Y-40328800D02*
X82429800Y-40074500D01*
X82684100Y-42383700D02*
X82684100Y-40328800D01*
X85434200Y-45133800D02*
X82684100Y-42383700D01*
X85434200Y-46671500D02*
X85434200Y-45133800D01*
X85672300Y-46909600D02*
X85434200Y-46671500D01*
X85672300Y-60810000D02*
X85672300Y-46909600D01*
X84969600Y-61512700D02*
X85672300Y-60810000D01*
X33860500Y-53692100D02*
X34561100Y-54392700D01*
X75596200Y-59403800D02*
X71000000Y-64000000D01*
X61678500Y-54392700D02*
X34561100Y-54392700D01*
X71000000Y-63714200D02*
X61678500Y-54392700D01*
X71000000Y-64000000D02*
X71000000Y-63714200D01*
X6000000Y-33040000D02*
X7206800Y-33040000D01*
X33860500Y-32139500D02*
X33204900Y-32795100D01*
X7451700Y-32795100D02*
X33204900Y-32795100D01*
X7206800Y-33040000D02*
X7451700Y-32795100D01*
X85410700Y-64014100D02*
X86510500Y-63820200D01*
X36519600Y-36109800D02*
X33204900Y-32795100D01*
X50182400Y-36109800D02*
X36519600Y-36109800D01*
X51281000Y-37208400D02*
X50182400Y-36109800D01*
X63978200Y-37208400D02*
X51281000Y-37208400D01*
X64081200Y-37311400D02*
X63978200Y-37208400D01*
X81625400Y-37311400D02*
X64081200Y-37311400D01*
X82684100Y-38370100D02*
X81625400Y-37311400D01*
X82684100Y-39969200D02*
X82684100Y-38370100D01*
X82938400Y-40223500D02*
X82684100Y-39969200D01*
X82938400Y-40309700D02*
X82938400Y-40223500D01*
X83337500Y-40708800D02*
X82938400Y-40309700D01*
X83337500Y-41099200D02*
X83337500Y-40708800D01*
X83360500Y-41122200D02*
X83337500Y-41099200D01*
X83360500Y-41678900D02*
X83360500Y-41122200D01*
X83614700Y-41933100D02*
X83360500Y-41678900D01*
X83614700Y-42218200D02*
X83614700Y-41933100D01*
X83614800Y-42218300D02*
X83614700Y-42218200D01*
X83614800Y-42595200D02*
X83614800Y-42218300D01*
X84863100Y-43843500D02*
X83614800Y-42595200D01*
X84863100Y-44203000D02*
X84863100Y-43843500D01*
X85688500Y-45028400D02*
X84863100Y-44203000D01*
X85688500Y-45747600D02*
X85688500Y-45028400D01*
X86129600Y-46188700D02*
X85688500Y-45747600D01*
X86129600Y-63177700D02*
X86129600Y-46188700D01*
X86510500Y-63558600D02*
X86129600Y-63177700D01*
X86510500Y-63820200D02*
X86510500Y-63558600D01*
X71130400Y-30671200D02*
X76000000Y-30671200D01*
X76500000Y-31000000D02*
X76171200Y-30671200D01*
X76171200Y-30671200D02*
X76000000Y-30671200D01*
X39248700Y-26751300D02*
X39949300Y-26050700D01*
X62737700Y-22278500D02*
X71130400Y-30671200D01*
X44227200Y-22278500D02*
X62737700Y-22278500D01*
X42045800Y-24459900D02*
X44227200Y-22278500D01*
X42045800Y-25454300D02*
X42045800Y-24459900D01*
X41449300Y-26050800D02*
X42045800Y-25454300D01*
X39949300Y-26050800D02*
X41449300Y-26050800D01*
X39949300Y-26050700D02*
X39949300Y-26050800D01*
X20247300Y-7846100D02*
X16563200Y-7846100D01*
X35082700Y-22681500D02*
X20247300Y-7846100D01*
X40267400Y-22681500D02*
X35082700Y-22681500D01*
X42045800Y-24459900D02*
X40267400Y-22681500D01*
X87881000Y-64000000D02*
X87881000Y-70000000D01*
X88274800Y-70393800D02*
X87881000Y-70000000D01*
X88274800Y-73825900D02*
X88274800Y-70393800D01*
X81739800Y-37057100D02*
X82938400Y-38255700D01*
X44973300Y-33919000D02*
X77950300Y-33919000D01*
X83869000Y-41827800D02*
X83869000Y-42112800D01*
X38239900Y-25655800D02*
X38239900Y-27185600D01*
X85117400Y-44097700D02*
X85942800Y-44923100D01*
X38239900Y-27185600D02*
X39083700Y-28029400D01*
X39083700Y-28029400D02*
X39083700Y-28195000D01*
X39083700Y-28195000D02*
X39371300Y-28482600D01*
X39536900Y-28482600D02*
X44973300Y-33919000D01*
X39371300Y-28482600D02*
X39536900Y-28482600D01*
X77950300Y-33919000D02*
X81088400Y-37057100D01*
X83869000Y-42112800D02*
X83869100Y-42112900D01*
X81088400Y-37057100D02*
X81739800Y-37057100D01*
X85942800Y-44923100D02*
X85942800Y-45642200D01*
X83746800Y-39715500D02*
X83746800Y-41705600D01*
X82938400Y-38907100D02*
X83746800Y-39715500D01*
X82938400Y-38255700D02*
X82938400Y-38907100D01*
X83746800Y-41705600D02*
X83869000Y-41827800D01*
X83869100Y-42112900D02*
X83869100Y-42280600D01*
X83869100Y-42280600D02*
X84001100Y-42412600D01*
X84001100Y-42412600D02*
X84001100Y-42621900D01*
X84001100Y-42621900D02*
X85117400Y-43738200D01*
X85117400Y-43738200D02*
X85117400Y-44097700D01*
X85942800Y-45642200D02*
X86500000Y-46199400D01*
X86500000Y-46199400D02*
X86500000Y-62619000D01*
X86500000Y-62619000D02*
X87881000Y-64000000D01*
X88274800Y-73825900D02*
X87174900Y-74019800D01*
X41044700Y-24955300D02*
X40344200Y-25655800D01*
X40344100Y-25655800D02*
X38239900Y-25655800D01*
X40344200Y-25655800D02*
X40344100Y-25655800D01*
X30780800Y-25655800D02*
X16563200Y-11438200D01*
X38239900Y-25655800D02*
X30780800Y-25655800D01*
X70557000Y-74460800D02*
X66982900Y-70886700D01*
X83379900Y-74460800D02*
X70557000Y-74460800D01*
X83573700Y-74654600D02*
X83379900Y-74460800D01*
X83573700Y-74654700D02*
X83573700Y-74654600D01*
X84673500Y-74460800D02*
X83573700Y-74654700D01*
X14767100Y-11398500D02*
X14767100Y-9642100D01*
X39100200Y-35731600D02*
X14767100Y-11398500D01*
X50419900Y-35731600D02*
X39100200Y-35731600D01*
X51120500Y-36432100D02*
X50419900Y-35731600D01*
X51821000Y-35731600D02*
X51120500Y-36432100D01*
G36*
X18359274Y-4401296D02*
X20445426Y-7133162D01*
X20842544Y-7977038D01*
X20843204Y-7978398D01*
X20844362Y-7980714D01*
X20478524Y-7614876D01*
X20372438Y-7543991D01*
X20247300Y-7519100D01*
X17537654Y-7519100D01*
X17433038Y-7265911D01*
X17144812Y-6977181D01*
X16768034Y-6820729D01*
X16360064Y-6820373D01*
X15983014Y-6976167D01*
X15694284Y-7264393D01*
X15537832Y-7641171D01*
X15537476Y-8049141D01*
X15693270Y-8426191D01*
X15981496Y-8714921D01*
X16358274Y-8871373D01*
X16766244Y-8871729D01*
X17143294Y-8715935D01*
X17432024Y-8427709D01*
X17537747Y-8173100D01*
X20111852Y-8173100D01*
X21769258Y-9830506D01*
X22993204Y-12278398D01*
X23008727Y-12298258D01*
X23030754Y-12310513D01*
X23050000Y-12313500D01*
X24252252Y-12313500D01*
X26244111Y-14305359D01*
X25350000Y-14305359D01*
X25233824Y-14327219D01*
X25127124Y-14395879D01*
X25055542Y-14500642D01*
X25030359Y-14625000D01*
X25030359Y-15375000D01*
X25052219Y-15491176D01*
X25120879Y-15597876D01*
X25225642Y-15669458D01*
X25350000Y-15694641D01*
X25398224Y-15694641D01*
X25336607Y-15843032D01*
X25336394Y-16087097D01*
X25429597Y-16312666D01*
X25511500Y-16394712D01*
X25511500Y-16570404D01*
X25544879Y-16738211D01*
X25616081Y-16844772D01*
X25639934Y-16880470D01*
X27576292Y-18816829D01*
X27576192Y-18931699D01*
X27669395Y-19157268D01*
X27841825Y-19329999D01*
X28067230Y-19423595D01*
X28311295Y-19423808D01*
X28536864Y-19330605D01*
X28709595Y-19158175D01*
X28803191Y-18932770D01*
X28803404Y-18688705D01*
X28710201Y-18463136D01*
X28537771Y-18290405D01*
X28312366Y-18196809D01*
X28196437Y-18196708D01*
X26391481Y-16391753D01*
X26469797Y-16313573D01*
X26563393Y-16088168D01*
X26563606Y-15844103D01*
X26501850Y-15694641D01*
X26550000Y-15694641D01*
X26666176Y-15672781D01*
X26772876Y-15604121D01*
X26844458Y-15499358D01*
X26869641Y-15375000D01*
X26869641Y-14930889D01*
X34851476Y-22912724D01*
X34957562Y-22983609D01*
X35082700Y-23008500D01*
X40131952Y-23008500D01*
X41005393Y-23881941D01*
X40623000Y-23958004D01*
X40277976Y-24188542D01*
X40047438Y-24533566D01*
X39966484Y-24940550D01*
X40043712Y-25328800D01*
X30916248Y-25328800D01*
X20840823Y-15253375D01*
X23186500Y-15253375D01*
X23186500Y-15427414D01*
X23226616Y-15524261D01*
X23300740Y-15598385D01*
X23397587Y-15638500D01*
X23793625Y-15638500D01*
X23859500Y-15572625D01*
X23859500Y-15187500D01*
X24240500Y-15187500D01*
X24240500Y-15572625D01*
X24306375Y-15638500D01*
X24702413Y-15638500D01*
X24799260Y-15598385D01*
X24873384Y-15524261D01*
X24913500Y-15427414D01*
X24913500Y-15253375D01*
X24847625Y-15187500D01*
X24240500Y-15187500D01*
X23859500Y-15187500D01*
X23252375Y-15187500D01*
X23186500Y-15253375D01*
X20840823Y-15253375D01*
X20160034Y-14572586D01*
X23186500Y-14572586D01*
X23186500Y-14746625D01*
X23252375Y-14812500D01*
X23859500Y-14812500D01*
X23859500Y-14427375D01*
X24240500Y-14427375D01*
X24240500Y-14812500D01*
X24847625Y-14812500D01*
X24913500Y-14746625D01*
X24913500Y-14572586D01*
X24873384Y-14475739D01*
X24799260Y-14401615D01*
X24702413Y-14361500D01*
X24306375Y-14361500D01*
X24240500Y-14427375D01*
X23859500Y-14427375D01*
X23793625Y-14361500D01*
X23397587Y-14361500D01*
X23300740Y-14401615D01*
X23226616Y-14475739D01*
X23186500Y-14572586D01*
X20160034Y-14572586D01*
X17483439Y-11895991D01*
X17588476Y-11643034D01*
X17588832Y-11235064D01*
X17433038Y-10858014D01*
X17144812Y-10569284D01*
X16768034Y-10412832D01*
X16360064Y-10412476D01*
X15983014Y-10568270D01*
X15694284Y-10856496D01*
X15537832Y-11233274D01*
X15537476Y-11641244D01*
X15583374Y-11752326D01*
X15094100Y-11263052D01*
X15094100Y-10616582D01*
X15347242Y-10511986D01*
X15635972Y-10223760D01*
X15792424Y-9846982D01*
X15792425Y-9845192D01*
X17333527Y-9845192D01*
X17489321Y-10222242D01*
X17777547Y-10510972D01*
X18154325Y-10667424D01*
X18562295Y-10667780D01*
X18939345Y-10511986D01*
X19228075Y-10223760D01*
X19384527Y-9846982D01*
X19384883Y-9439012D01*
X19229089Y-9061962D01*
X18940863Y-8773232D01*
X18564085Y-8616780D01*
X18156115Y-8616424D01*
X17779065Y-8772218D01*
X17490335Y-9060444D01*
X17333883Y-9437222D01*
X17333527Y-9845192D01*
X15792425Y-9845192D01*
X15792780Y-9439012D01*
X15636986Y-9061962D01*
X15348760Y-8773232D01*
X14971982Y-8616780D01*
X14564012Y-8616424D01*
X14186962Y-8772218D01*
X13898232Y-9060444D01*
X13741780Y-9437222D01*
X13741424Y-9845192D01*
X13897218Y-10222242D01*
X14185444Y-10510972D01*
X14440100Y-10616714D01*
X14440100Y-11398500D01*
X14464991Y-11523638D01*
X14535876Y-11629724D01*
X33997608Y-31091456D01*
X33845779Y-31061255D01*
X33438795Y-31142209D01*
X33093771Y-31372747D01*
X32863233Y-31717771D01*
X32782279Y-32124755D01*
X32850574Y-32468100D01*
X7451700Y-32468100D01*
X7326562Y-32492991D01*
X7284662Y-32520988D01*
X7284662Y-32176400D01*
X7266288Y-32078753D01*
X7208579Y-31989070D01*
X7120525Y-31928905D01*
X7016000Y-31907738D01*
X4984000Y-31907738D01*
X4886353Y-31926112D01*
X4796670Y-31983821D01*
X4736505Y-32071875D01*
X4715338Y-32176400D01*
X4715338Y-33903600D01*
X4733712Y-34001247D01*
X4791421Y-34090930D01*
X4879475Y-34151095D01*
X4984000Y-34172262D01*
X7016000Y-34172262D01*
X7113647Y-34153888D01*
X7203330Y-34096179D01*
X7263495Y-34008125D01*
X7284662Y-33903600D01*
X7284662Y-33351513D01*
X7331938Y-33342109D01*
X7438024Y-33271224D01*
X7587148Y-33122100D01*
X9816988Y-33122100D01*
X9777698Y-33216721D01*
X9777502Y-33440895D01*
X9863109Y-33648080D01*
X10021486Y-33806734D01*
X10228521Y-33892702D01*
X10452695Y-33892898D01*
X10659880Y-33807291D01*
X10811135Y-33656300D01*
X22336254Y-33656300D01*
X22279820Y-33689368D01*
X22024425Y-34026675D01*
X21975473Y-34144856D01*
X21999515Y-34309500D01*
X22809500Y-34309500D01*
X22809500Y-33656300D01*
X23190500Y-33656300D01*
X23190500Y-34309500D01*
X24000485Y-34309500D01*
X24024527Y-34144856D01*
X23810632Y-33779820D01*
X23647496Y-33656300D01*
X29526652Y-33656300D01*
X30590759Y-34720407D01*
X30253677Y-34653357D01*
X29846693Y-34734311D01*
X29501669Y-34964849D01*
X29271131Y-35309873D01*
X29190177Y-35716857D01*
X29271131Y-36123841D01*
X29328241Y-36209311D01*
X28950080Y-36587472D01*
X28864610Y-36530362D01*
X28457626Y-36449408D01*
X28050642Y-36530362D01*
X27705618Y-36760900D01*
X27475080Y-37105924D01*
X27394126Y-37512908D01*
X27475080Y-37919892D01*
X27520604Y-37988023D01*
X27449600Y-37973900D01*
X25480500Y-37973900D01*
X25355363Y-37998791D01*
X25355361Y-37998792D01*
X25355362Y-37998792D01*
X25249276Y-38069676D01*
X24745264Y-38573688D01*
X24532705Y-38573502D01*
X24325520Y-38659109D01*
X24166866Y-38817486D01*
X24080898Y-39024521D01*
X24080702Y-39248695D01*
X24137435Y-39386000D01*
X23825948Y-39386000D01*
X23786424Y-39346476D01*
X23680338Y-39275591D01*
X23555200Y-39250700D01*
X23163500Y-39250700D01*
X23038363Y-39275591D01*
X23038361Y-39275592D01*
X23038362Y-39275592D01*
X22932276Y-39346476D01*
X22620876Y-39657876D01*
X22549991Y-39763962D01*
X22548016Y-39773891D01*
X22525100Y-39889100D01*
X22525100Y-40887600D01*
X22549991Y-41012738D01*
X22620876Y-41118824D01*
X23406691Y-41904639D01*
X23069472Y-41837562D01*
X22662488Y-41918516D01*
X22317464Y-42149054D01*
X22086926Y-42494078D01*
X22005972Y-42901062D01*
X22074505Y-43245600D01*
X8432300Y-43245600D01*
X8307163Y-43270491D01*
X8307161Y-43270492D01*
X8307162Y-43270492D01*
X8201076Y-43341376D01*
X7443152Y-44099300D01*
X6795716Y-44099300D01*
X7153132Y-44028206D01*
X7535010Y-43773042D01*
X7790174Y-43391164D01*
X7879775Y-42940707D01*
X7790174Y-42490250D01*
X7535010Y-42108372D01*
X7153132Y-41853208D01*
X6702675Y-41763607D01*
X6345783Y-41763607D01*
X5895326Y-41853208D01*
X5513448Y-42108372D01*
X5258284Y-42490250D01*
X5168683Y-42940707D01*
X5258284Y-43391164D01*
X5513448Y-43773042D01*
X5895326Y-44028206D01*
X6345783Y-44117807D01*
X6431158Y-44117807D01*
X6399063Y-44124191D01*
X6292976Y-44195076D01*
X6222091Y-44301163D01*
X6206094Y-44381588D01*
X5915440Y-44439402D01*
X5549782Y-44683727D01*
X5305457Y-45049385D01*
X5219662Y-45480707D01*
X5305457Y-45912029D01*
X5549782Y-46277687D01*
X5915440Y-46522012D01*
X6346762Y-46607807D01*
X6701696Y-46607807D01*
X7133018Y-46522012D01*
X7498676Y-46277687D01*
X7743001Y-45912029D01*
X7828796Y-45480707D01*
X7743001Y-45049385D01*
X7545163Y-44753300D01*
X7578600Y-44753300D01*
X7703738Y-44728409D01*
X7809824Y-44657524D01*
X8567748Y-43899600D01*
X20499518Y-43899600D01*
X20485365Y-43909057D01*
X20243988Y-44270302D01*
X20159229Y-44696420D01*
X20243988Y-45122538D01*
X20272026Y-45164500D01*
X19107400Y-45164500D01*
X18982262Y-45189391D01*
X18876176Y-45260276D01*
X16369376Y-47767076D01*
X16298491Y-47873162D01*
X16298491Y-47873163D01*
X16273600Y-47998300D01*
X16273600Y-48962283D01*
X16089973Y-48778656D01*
X16007934Y-48722601D01*
X15903711Y-48699993D01*
X15798904Y-48719713D01*
X15710027Y-48778656D01*
X14578656Y-49910027D01*
X14522601Y-49992066D01*
X14499993Y-50096289D01*
X14519713Y-50201096D01*
X14578656Y-50289973D01*
X15710027Y-51421344D01*
X15792066Y-51477399D01*
X15896289Y-51500007D01*
X16001096Y-51480287D01*
X16089973Y-51421344D01*
X17221344Y-50289973D01*
X17277399Y-50207934D01*
X17300007Y-50103711D01*
X17280287Y-49998904D01*
X17221344Y-49910027D01*
X16875931Y-49564614D01*
X16902709Y-49524538D01*
X16927600Y-49399400D01*
X16927600Y-49038665D01*
X16929310Y-49041224D01*
X16958776Y-49070690D01*
X17303800Y-49301228D01*
X17710784Y-49382182D01*
X18117768Y-49301228D01*
X18462792Y-49070690D01*
X18693330Y-48725666D01*
X18774284Y-48318682D01*
X18693330Y-47911698D01*
X18462792Y-47566674D01*
X18433326Y-47537208D01*
X18088302Y-47306670D01*
X17810030Y-47251318D01*
X18439471Y-46621877D01*
X18494823Y-46900149D01*
X18725361Y-47245173D01*
X18754827Y-47274639D01*
X19099851Y-47505177D01*
X19506835Y-47586131D01*
X19913819Y-47505177D01*
X20258843Y-47274639D01*
X20489381Y-46929615D01*
X20549637Y-46626685D01*
X26799476Y-52876524D01*
X26905563Y-52947409D01*
X27030700Y-52972300D01*
X29240900Y-52972300D01*
X29240900Y-56583600D01*
X29254142Y-56650173D01*
X29265783Y-56708717D01*
X29265789Y-56708726D01*
X29265791Y-56708737D01*
X29303781Y-56765593D01*
X29319826Y-56789610D01*
X29271131Y-56862488D01*
X29190177Y-57269472D01*
X29271131Y-57676456D01*
X29501669Y-58021480D01*
X29531135Y-58050946D01*
X29876159Y-58281484D01*
X30283143Y-58362438D01*
X30690127Y-58281484D01*
X31035151Y-58050946D01*
X31265689Y-57705922D01*
X31346643Y-57298938D01*
X31265689Y-56891954D01*
X31254687Y-56875487D01*
X37393921Y-56875487D01*
X37393921Y-56968648D01*
X37776616Y-57351343D01*
X37850740Y-57425466D01*
X37947587Y-57465581D01*
X38052414Y-57465581D01*
X38149261Y-57425466D01*
X38606079Y-56968648D01*
X38606079Y-56875487D01*
X38000000Y-56269408D01*
X37393921Y-56875487D01*
X31254687Y-56875487D01*
X31035151Y-56546930D01*
X31005685Y-56517464D01*
X30704379Y-56316137D01*
X31505886Y-56316137D01*
X31603567Y-56446617D01*
X32005439Y-56550035D01*
X32416295Y-56491791D01*
X32525343Y-56446601D01*
X32622204Y-56315305D01*
X32064461Y-55757562D01*
X31505886Y-56316137D01*
X30704379Y-56316137D01*
X30660661Y-56286926D01*
X30253677Y-56205972D01*
X29894900Y-56277337D01*
X29894900Y-55547176D01*
X31002580Y-55547176D01*
X31105998Y-55949048D01*
X31236478Y-56046729D01*
X31795053Y-55488154D01*
X32333869Y-55488154D01*
X32891612Y-56045897D01*
X33022908Y-55949036D01*
X33023508Y-55947586D01*
X36534419Y-55947586D01*
X36534419Y-56052413D01*
X36574534Y-56149260D01*
X36648657Y-56223384D01*
X37031352Y-56606079D01*
X37124513Y-56606079D01*
X37730592Y-56000000D01*
X38269408Y-56000000D01*
X38875487Y-56606079D01*
X38968648Y-56606079D01*
X39425466Y-56149261D01*
X39465581Y-56052414D01*
X39465581Y-55947587D01*
X39425466Y-55850740D01*
X39351343Y-55776616D01*
X38968648Y-55393921D01*
X38875487Y-55393921D01*
X38269408Y-56000000D01*
X37730592Y-56000000D01*
X37124513Y-55393921D01*
X37031352Y-55393921D01*
X36574534Y-55850739D01*
X36534419Y-55947586D01*
X33023508Y-55947586D01*
X33068098Y-55839988D01*
X33126342Y-55429132D01*
X33022924Y-55027260D01*
X32892444Y-54929579D01*
X32333869Y-55488154D01*
X31795053Y-55488154D01*
X31237310Y-54930411D01*
X31106014Y-55027272D01*
X31060824Y-55136320D01*
X31002580Y-55547176D01*
X29894900Y-55547176D01*
X29894900Y-54661003D01*
X31506718Y-54661003D01*
X32064461Y-55218746D01*
X32623036Y-54660171D01*
X32525355Y-54529691D01*
X32123483Y-54426273D01*
X31712627Y-54484517D01*
X31603579Y-54529707D01*
X31506718Y-54661003D01*
X29894900Y-54661003D01*
X29894900Y-52972300D01*
X33062407Y-52972300D01*
X32863233Y-53270385D01*
X32782279Y-53677369D01*
X32863233Y-54084353D01*
X33093771Y-54429377D01*
X33123237Y-54458843D01*
X33468261Y-54689381D01*
X33875245Y-54770335D01*
X34282229Y-54689381D01*
X34355034Y-54640734D01*
X34435962Y-54694809D01*
X34561100Y-54719700D01*
X37705573Y-54719700D01*
X37393921Y-55031352D01*
X37393921Y-55124513D01*
X38000000Y-55730592D01*
X38606079Y-55124513D01*
X38606079Y-55031352D01*
X38294427Y-54719700D01*
X48203241Y-54719700D01*
X46657300Y-56202968D01*
X43110281Y-59250407D01*
X42286733Y-59864800D01*
X29287339Y-59864800D01*
X29516525Y-59521800D01*
X29601284Y-59095682D01*
X29516525Y-58669564D01*
X29275148Y-58308318D01*
X29244296Y-58277467D01*
X28883051Y-58036090D01*
X28456933Y-57951331D01*
X28030815Y-58036090D01*
X27669570Y-58277467D01*
X27428193Y-58638712D01*
X27343434Y-59064830D01*
X27428193Y-59490948D01*
X27505755Y-59607027D01*
X27339594Y-59640079D01*
X27197334Y-59735134D01*
X27094989Y-59837479D01*
X27086999Y-59832141D01*
X26660881Y-59747382D01*
X26234763Y-59832141D01*
X25873518Y-60073518D01*
X25632141Y-60434763D01*
X25547382Y-60860881D01*
X25632141Y-61286999D01*
X25873518Y-61648244D01*
X25904369Y-61679096D01*
X26265615Y-61920473D01*
X26691733Y-62005232D01*
X27117851Y-61920473D01*
X27479096Y-61679096D01*
X27720473Y-61317851D01*
X27805232Y-60891733D01*
X27775409Y-60741800D01*
X41111180Y-60741800D01*
X39964869Y-61596984D01*
X37323753Y-63141788D01*
X33390173Y-64436384D01*
X29008417Y-64386591D01*
X25918910Y-63589299D01*
X24422182Y-63040499D01*
X20872571Y-61690647D01*
X20868096Y-61689133D01*
X19018096Y-61139133D01*
X19016302Y-61138628D01*
X15816302Y-60288628D01*
X12072611Y-59290310D01*
X9994511Y-58251260D01*
X7406269Y-54070254D01*
X6322927Y-51632734D01*
X6333729Y-51621932D01*
X6333729Y-50751207D01*
X6714729Y-50751207D01*
X6714729Y-51621932D01*
X6780604Y-51687807D01*
X7592642Y-51687807D01*
X7689489Y-51647692D01*
X7763613Y-51573568D01*
X7803729Y-51476721D01*
X7803729Y-50817082D01*
X7737854Y-50751207D01*
X6714729Y-50751207D01*
X6333729Y-50751207D01*
X6313729Y-50751207D01*
X6313729Y-50370207D01*
X6333729Y-50370207D01*
X6333729Y-49499482D01*
X6714729Y-49499482D01*
X6714729Y-50370207D01*
X7737854Y-50370207D01*
X7803729Y-50304332D01*
X7803729Y-49644693D01*
X7763613Y-49547846D01*
X7689489Y-49473722D01*
X7592642Y-49433607D01*
X6780604Y-49433607D01*
X6714729Y-49499482D01*
X6333729Y-49499482D01*
X6267854Y-49433607D01*
X5526143Y-49433607D01*
X5069029Y-48020707D01*
X5219662Y-48020707D01*
X5305457Y-48452029D01*
X5549782Y-48817687D01*
X5915440Y-49062012D01*
X6346762Y-49147807D01*
X6701696Y-49147807D01*
X7133018Y-49062012D01*
X7498676Y-48817687D01*
X7743001Y-48452029D01*
X7828796Y-48020707D01*
X7743001Y-47589385D01*
X7498676Y-47223727D01*
X7133018Y-46979402D01*
X6701696Y-46893607D01*
X6346762Y-46893607D01*
X5915440Y-46979402D01*
X5549782Y-47223727D01*
X5305457Y-47589385D01*
X5219662Y-48020707D01*
X5069029Y-48020707D01*
X4911338Y-47533299D01*
X4113080Y-43941138D01*
X3813559Y-38999043D01*
X3866997Y-37253375D01*
X10186500Y-37253375D01*
X10186500Y-37427414D01*
X10226616Y-37524261D01*
X10300740Y-37598385D01*
X10397587Y-37638500D01*
X10793625Y-37638500D01*
X10859500Y-37572625D01*
X10859500Y-37187500D01*
X11240500Y-37187500D01*
X11240500Y-37572625D01*
X11306375Y-37638500D01*
X11702413Y-37638500D01*
X11799260Y-37598385D01*
X11873384Y-37524261D01*
X11913500Y-37427414D01*
X11913500Y-37253375D01*
X11847625Y-37187500D01*
X11240500Y-37187500D01*
X10859500Y-37187500D01*
X10252375Y-37187500D01*
X10186500Y-37253375D01*
X3866997Y-37253375D01*
X3887837Y-36572586D01*
X10186500Y-36572586D01*
X10186500Y-36746625D01*
X10252375Y-36812500D01*
X10859500Y-36812500D01*
X10859500Y-36427375D01*
X11240500Y-36427375D01*
X11240500Y-36812500D01*
X11847625Y-36812500D01*
X11913500Y-36746625D01*
X11913500Y-36625000D01*
X12030359Y-36625000D01*
X12030359Y-37375000D01*
X12052219Y-37491176D01*
X12120879Y-37597876D01*
X12225642Y-37669458D01*
X12350000Y-37694641D01*
X13550000Y-37694641D01*
X13666176Y-37672781D01*
X13772876Y-37604121D01*
X13844458Y-37499358D01*
X13848697Y-37478426D01*
X13871927Y-37501697D01*
X14097332Y-37595293D01*
X14341397Y-37595506D01*
X14566966Y-37502303D01*
X14739697Y-37329873D01*
X14833293Y-37104468D01*
X14833506Y-36860403D01*
X14740303Y-36634834D01*
X14567873Y-36462103D01*
X14342468Y-36368507D01*
X14098403Y-36368294D01*
X13872834Y-36461497D01*
X13839037Y-36495235D01*
X13779121Y-36402124D01*
X13674358Y-36330542D01*
X13550000Y-36305359D01*
X12350000Y-36305359D01*
X12233824Y-36327219D01*
X12127124Y-36395879D01*
X12055542Y-36500642D01*
X12030359Y-36625000D01*
X11913500Y-36625000D01*
X11913500Y-36572586D01*
X11873384Y-36475739D01*
X11799260Y-36401615D01*
X11702413Y-36361500D01*
X11306375Y-36361500D01*
X11240500Y-36427375D01*
X10859500Y-36427375D01*
X10793625Y-36361500D01*
X10397587Y-36361500D01*
X10300740Y-36401615D01*
X10226616Y-36475739D01*
X10186500Y-36572586D01*
X3887837Y-36572586D01*
X3940412Y-34855144D01*
X21975473Y-34855144D01*
X22189368Y-35220180D01*
X22526675Y-35475575D01*
X22644856Y-35524527D01*
X22809500Y-35500485D01*
X22809500Y-34690500D01*
X23190500Y-34690500D01*
X23190500Y-35500485D01*
X23355144Y-35524527D01*
X23720180Y-35310632D01*
X23975575Y-34973325D01*
X24024527Y-34855144D01*
X24000485Y-34690500D01*
X23190500Y-34690500D01*
X22809500Y-34690500D01*
X21999515Y-34690500D01*
X21975473Y-34855144D01*
X3940412Y-34855144D01*
X3963382Y-34104809D01*
X4163039Y-32457641D01*
X4159801Y-32428643D01*
X3660797Y-31031432D01*
X3617592Y-30861935D01*
X4780194Y-30861935D01*
X4915969Y-31129776D01*
X5227890Y-31438357D01*
X5634156Y-31604082D01*
X5809500Y-31558004D01*
X5809500Y-30690500D01*
X6190500Y-30690500D01*
X6190500Y-31558004D01*
X6365844Y-31604082D01*
X6772110Y-31438357D01*
X7084031Y-31129776D01*
X7219806Y-30861935D01*
X7196387Y-30690500D01*
X6190500Y-30690500D01*
X5809500Y-30690500D01*
X4803613Y-30690500D01*
X4780194Y-30861935D01*
X3617592Y-30861935D01*
X3433077Y-30138065D01*
X4780194Y-30138065D01*
X4803613Y-30309500D01*
X5809500Y-30309500D01*
X5809500Y-29441996D01*
X6190500Y-29441996D01*
X6190500Y-30309500D01*
X7196387Y-30309500D01*
X7219806Y-30138065D01*
X7084031Y-29870224D01*
X6772110Y-29561643D01*
X6365844Y-29395918D01*
X6190500Y-29441996D01*
X5809500Y-29441996D01*
X5634156Y-29395918D01*
X5227890Y-29561643D01*
X4915969Y-29870224D01*
X4780194Y-30138065D01*
X3433077Y-30138065D01*
X3012566Y-28488371D01*
X2949878Y-27960000D01*
X4644454Y-27960000D01*
X4734055Y-28410457D01*
X4989219Y-28792335D01*
X5371097Y-29047499D01*
X5821554Y-29137100D01*
X6178446Y-29137100D01*
X6621283Y-29049015D01*
X6834758Y-29262490D01*
X6860879Y-29393807D01*
X6939920Y-29512099D01*
X6955934Y-29536066D01*
X9229934Y-31810067D01*
X9372194Y-31905122D01*
X9540000Y-31938500D01*
X12220869Y-31938500D01*
X12302024Y-32019797D01*
X12527429Y-32113393D01*
X12771494Y-32113606D01*
X12997063Y-32020403D01*
X13079109Y-31938500D01*
X25977668Y-31938500D01*
X26313073Y-32077773D01*
X26756051Y-32078159D01*
X27165457Y-31908996D01*
X27478963Y-31596037D01*
X27648841Y-31186927D01*
X27649227Y-30743949D01*
X27480064Y-30334543D01*
X27167105Y-30021037D01*
X26757995Y-29851159D01*
X26315017Y-29850773D01*
X26121806Y-29930606D01*
X26045601Y-29854401D01*
X25990227Y-29817401D01*
X25903342Y-29759346D01*
X25735535Y-29725967D01*
X23093595Y-29725967D01*
X23012440Y-29644670D01*
X22787035Y-29551074D01*
X22542970Y-29550861D01*
X22317401Y-29644064D01*
X22235355Y-29725967D01*
X16550580Y-29725967D01*
X16520403Y-29652934D01*
X16347973Y-29480203D01*
X16122568Y-29386607D01*
X15878503Y-29386394D01*
X15652934Y-29479597D01*
X15480203Y-29652027D01*
X15386607Y-29877432D01*
X15386394Y-30121497D01*
X15479597Y-30347066D01*
X15652027Y-30519797D01*
X15877432Y-30613393D01*
X16121497Y-30613606D01*
X16152842Y-30600655D01*
X16164467Y-30602967D01*
X22235339Y-30602967D01*
X22316494Y-30684264D01*
X22541899Y-30777860D01*
X22785964Y-30778073D01*
X23011533Y-30684870D01*
X23093579Y-30602967D01*
X25479961Y-30602967D01*
X25422227Y-30742005D01*
X25421949Y-31061500D01*
X13079125Y-31061500D01*
X12997970Y-30980203D01*
X12772565Y-30886607D01*
X12528500Y-30886394D01*
X12302931Y-30979597D01*
X12220885Y-31061500D01*
X9721633Y-31061500D01*
X7697242Y-29037110D01*
X7671121Y-28905793D01*
X7576066Y-28763534D01*
X7248739Y-28436207D01*
X7265945Y-28410457D01*
X7355546Y-27960000D01*
X7265945Y-27509543D01*
X7010781Y-27127665D01*
X6628903Y-26872501D01*
X6178446Y-26782900D01*
X5821554Y-26782900D01*
X5371097Y-26872501D01*
X4989219Y-27127665D01*
X4734055Y-27509543D01*
X4644454Y-27960000D01*
X2949878Y-27960000D01*
X2663500Y-25546244D01*
X2663500Y-22201977D01*
X2713349Y-21404399D01*
X2913001Y-18709098D01*
X3236155Y-17214508D01*
X4111610Y-18091491D01*
X5788281Y-18787706D01*
X7603754Y-18789290D01*
X9281638Y-18096003D01*
X10566491Y-16813390D01*
X11262706Y-15136719D01*
X11264290Y-13321246D01*
X10571003Y-11643362D01*
X9288390Y-10358509D01*
X7611719Y-9662294D01*
X5978150Y-9660869D01*
X6702556Y-8336240D01*
X6947786Y-8049141D01*
X11945373Y-8049141D01*
X12101167Y-8426191D01*
X12389393Y-8714921D01*
X12766171Y-8871373D01*
X13174141Y-8871729D01*
X13551191Y-8715935D01*
X13839921Y-8427709D01*
X13996373Y-8050931D01*
X13996729Y-7642961D01*
X13840935Y-7265911D01*
X13552709Y-6977181D01*
X13175931Y-6820729D01*
X12767961Y-6820373D01*
X12390911Y-6976167D01*
X12102181Y-7264393D01*
X11945729Y-7641171D01*
X11945373Y-8049141D01*
X6947786Y-8049141D01*
X8659158Y-6045584D01*
X9777759Y-6045584D01*
X9801221Y-6170279D01*
X9871349Y-6276020D01*
X10948980Y-7353651D01*
X11046586Y-7420343D01*
X11170584Y-7447241D01*
X11295279Y-7423779D01*
X11401020Y-7353651D01*
X12478651Y-6276020D01*
X12494318Y-6253090D01*
X13741424Y-6253090D01*
X13897218Y-6630140D01*
X14185444Y-6918870D01*
X14562222Y-7075322D01*
X14970192Y-7075678D01*
X15347242Y-6919884D01*
X15635972Y-6631658D01*
X15792424Y-6254880D01*
X15792780Y-5846910D01*
X15636986Y-5469860D01*
X15348760Y-5181130D01*
X14971982Y-5024678D01*
X14564012Y-5024322D01*
X14186962Y-5180116D01*
X13898232Y-5468342D01*
X13741780Y-5845120D01*
X13741424Y-6253090D01*
X12494318Y-6253090D01*
X12545343Y-6178414D01*
X12572241Y-6054416D01*
X12548779Y-5929721D01*
X12478651Y-5823980D01*
X11401020Y-4746349D01*
X11303414Y-4679657D01*
X11179416Y-4652759D01*
X11054721Y-4676221D01*
X10948980Y-4746349D01*
X9871349Y-5823980D01*
X9804657Y-5921586D01*
X9777759Y-6045584D01*
X8659158Y-6045584D01*
X8744962Y-5945131D01*
X11031220Y-4006782D01*
X12039667Y-3692461D01*
X11895738Y-4039080D01*
X11895365Y-4466941D01*
X12058755Y-4862375D01*
X12361034Y-5165182D01*
X12756182Y-5329262D01*
X13184043Y-5329635D01*
X13579477Y-5166245D01*
X13882284Y-4863966D01*
X14046364Y-4468818D01*
X14046737Y-4040957D01*
X13883347Y-3645523D01*
X13581068Y-3342716D01*
X13401281Y-3268062D01*
X14845883Y-2817796D01*
X18359274Y-4401296D01*
X18359274Y-4401296D01*
G37*
X18359274Y-4401296D02*
X20445426Y-7133162D01*
X20842544Y-7977038D01*
X20843204Y-7978398D01*
X20844362Y-7980714D01*
X20478524Y-7614876D01*
X20372438Y-7543991D01*
X20247300Y-7519100D01*
X17537654Y-7519100D01*
X17433038Y-7265911D01*
X17144812Y-6977181D01*
X16768034Y-6820729D01*
X16360064Y-6820373D01*
X15983014Y-6976167D01*
X15694284Y-7264393D01*
X15537832Y-7641171D01*
X15537476Y-8049141D01*
X15693270Y-8426191D01*
X15981496Y-8714921D01*
X16358274Y-8871373D01*
X16766244Y-8871729D01*
X17143294Y-8715935D01*
X17432024Y-8427709D01*
X17537747Y-8173100D01*
X20111852Y-8173100D01*
X21769258Y-9830506D01*
X22993204Y-12278398D01*
X23008727Y-12298258D01*
X23030754Y-12310513D01*
X23050000Y-12313500D01*
X24252252Y-12313500D01*
X26244111Y-14305359D01*
X25350000Y-14305359D01*
X25233824Y-14327219D01*
X25127124Y-14395879D01*
X25055542Y-14500642D01*
X25030359Y-14625000D01*
X25030359Y-15375000D01*
X25052219Y-15491176D01*
X25120879Y-15597876D01*
X25225642Y-15669458D01*
X25350000Y-15694641D01*
X25398224Y-15694641D01*
X25336607Y-15843032D01*
X25336394Y-16087097D01*
X25429597Y-16312666D01*
X25511500Y-16394712D01*
X25511500Y-16570404D01*
X25544879Y-16738211D01*
X25616081Y-16844772D01*
X25639934Y-16880470D01*
X27576292Y-18816829D01*
X27576192Y-18931699D01*
X27669395Y-19157268D01*
X27841825Y-19329999D01*
X28067230Y-19423595D01*
X28311295Y-19423808D01*
X28536864Y-19330605D01*
X28709595Y-19158175D01*
X28803191Y-18932770D01*
X28803404Y-18688705D01*
X28710201Y-18463136D01*
X28537771Y-18290405D01*
X28312366Y-18196809D01*
X28196437Y-18196708D01*
X26391481Y-16391753D01*
X26469797Y-16313573D01*
X26563393Y-16088168D01*
X26563606Y-15844103D01*
X26501850Y-15694641D01*
X26550000Y-15694641D01*
X26666176Y-15672781D01*
X26772876Y-15604121D01*
X26844458Y-15499358D01*
X26869641Y-15375000D01*
X26869641Y-14930889D01*
X34851476Y-22912724D01*
X34957562Y-22983609D01*
X35082700Y-23008500D01*
X40131952Y-23008500D01*
X41005393Y-23881941D01*
X40623000Y-23958004D01*
X40277976Y-24188542D01*
X40047438Y-24533566D01*
X39966484Y-24940550D01*
X40043712Y-25328800D01*
X30916248Y-25328800D01*
X20840823Y-15253375D01*
X23186500Y-15253375D01*
X23186500Y-15427414D01*
X23226616Y-15524261D01*
X23300740Y-15598385D01*
X23397587Y-15638500D01*
X23793625Y-15638500D01*
X23859500Y-15572625D01*
X23859500Y-15187500D01*
X24240500Y-15187500D01*
X24240500Y-15572625D01*
X24306375Y-15638500D01*
X24702413Y-15638500D01*
X24799260Y-15598385D01*
X24873384Y-15524261D01*
X24913500Y-15427414D01*
X24913500Y-15253375D01*
X24847625Y-15187500D01*
X24240500Y-15187500D01*
X23859500Y-15187500D01*
X23252375Y-15187500D01*
X23186500Y-15253375D01*
X20840823Y-15253375D01*
X20160034Y-14572586D01*
X23186500Y-14572586D01*
X23186500Y-14746625D01*
X23252375Y-14812500D01*
X23859500Y-14812500D01*
X23859500Y-14427375D01*
X24240500Y-14427375D01*
X24240500Y-14812500D01*
X24847625Y-14812500D01*
X24913500Y-14746625D01*
X24913500Y-14572586D01*
X24873384Y-14475739D01*
X24799260Y-14401615D01*
X24702413Y-14361500D01*
X24306375Y-14361500D01*
X24240500Y-14427375D01*
X23859500Y-14427375D01*
X23793625Y-14361500D01*
X23397587Y-14361500D01*
X23300740Y-14401615D01*
X23226616Y-14475739D01*
X23186500Y-14572586D01*
X20160034Y-14572586D01*
X17483439Y-11895991D01*
X17588476Y-11643034D01*
X17588832Y-11235064D01*
X17433038Y-10858014D01*
X17144812Y-10569284D01*
X16768034Y-10412832D01*
X16360064Y-10412476D01*
X15983014Y-10568270D01*
X15694284Y-10856496D01*
X15537832Y-11233274D01*
X15537476Y-11641244D01*
X15583374Y-11752326D01*
X15094100Y-11263052D01*
X15094100Y-10616582D01*
X15347242Y-10511986D01*
X15635972Y-10223760D01*
X15792424Y-9846982D01*
X15792425Y-9845192D01*
X17333527Y-9845192D01*
X17489321Y-10222242D01*
X17777547Y-10510972D01*
X18154325Y-10667424D01*
X18562295Y-10667780D01*
X18939345Y-10511986D01*
X19228075Y-10223760D01*
X19384527Y-9846982D01*
X19384883Y-9439012D01*
X19229089Y-9061962D01*
X18940863Y-8773232D01*
X18564085Y-8616780D01*
X18156115Y-8616424D01*
X17779065Y-8772218D01*
X17490335Y-9060444D01*
X17333883Y-9437222D01*
X17333527Y-9845192D01*
X15792425Y-9845192D01*
X15792780Y-9439012D01*
X15636986Y-9061962D01*
X15348760Y-8773232D01*
X14971982Y-8616780D01*
X14564012Y-8616424D01*
X14186962Y-8772218D01*
X13898232Y-9060444D01*
X13741780Y-9437222D01*
X13741424Y-9845192D01*
X13897218Y-10222242D01*
X14185444Y-10510972D01*
X14440100Y-10616714D01*
X14440100Y-11398500D01*
X14464991Y-11523638D01*
X14535876Y-11629724D01*
X33997608Y-31091456D01*
X33845779Y-31061255D01*
X33438795Y-31142209D01*
X33093771Y-31372747D01*
X32863233Y-31717771D01*
X32782279Y-32124755D01*
X32850574Y-32468100D01*
X7451700Y-32468100D01*
X7326562Y-32492991D01*
X7284662Y-32520988D01*
X7284662Y-32176400D01*
X7266288Y-32078753D01*
X7208579Y-31989070D01*
X7120525Y-31928905D01*
X7016000Y-31907738D01*
X4984000Y-31907738D01*
X4886353Y-31926112D01*
X4796670Y-31983821D01*
X4736505Y-32071875D01*
X4715338Y-32176400D01*
X4715338Y-33903600D01*
X4733712Y-34001247D01*
X4791421Y-34090930D01*
X4879475Y-34151095D01*
X4984000Y-34172262D01*
X7016000Y-34172262D01*
X7113647Y-34153888D01*
X7203330Y-34096179D01*
X7263495Y-34008125D01*
X7284662Y-33903600D01*
X7284662Y-33351513D01*
X7331938Y-33342109D01*
X7438024Y-33271224D01*
X7587148Y-33122100D01*
X9816988Y-33122100D01*
X9777698Y-33216721D01*
X9777502Y-33440895D01*
X9863109Y-33648080D01*
X10021486Y-33806734D01*
X10228521Y-33892702D01*
X10452695Y-33892898D01*
X10659880Y-33807291D01*
X10811135Y-33656300D01*
X22336254Y-33656300D01*
X22279820Y-33689368D01*
X22024425Y-34026675D01*
X21975473Y-34144856D01*
X21999515Y-34309500D01*
X22809500Y-34309500D01*
X22809500Y-33656300D01*
X23190500Y-33656300D01*
X23190500Y-34309500D01*
X24000485Y-34309500D01*
X24024527Y-34144856D01*
X23810632Y-33779820D01*
X23647496Y-33656300D01*
X29526652Y-33656300D01*
X30590759Y-34720407D01*
X30253677Y-34653357D01*
X29846693Y-34734311D01*
X29501669Y-34964849D01*
X29271131Y-35309873D01*
X29190177Y-35716857D01*
X29271131Y-36123841D01*
X29328241Y-36209311D01*
X28950080Y-36587472D01*
X28864610Y-36530362D01*
X28457626Y-36449408D01*
X28050642Y-36530362D01*
X27705618Y-36760900D01*
X27475080Y-37105924D01*
X27394126Y-37512908D01*
X27475080Y-37919892D01*
X27520604Y-37988023D01*
X27449600Y-37973900D01*
X25480500Y-37973900D01*
X25355363Y-37998791D01*
X25355361Y-37998792D01*
X25355362Y-37998792D01*
X25249276Y-38069676D01*
X24745264Y-38573688D01*
X24532705Y-38573502D01*
X24325520Y-38659109D01*
X24166866Y-38817486D01*
X24080898Y-39024521D01*
X24080702Y-39248695D01*
X24137435Y-39386000D01*
X23825948Y-39386000D01*
X23786424Y-39346476D01*
X23680338Y-39275591D01*
X23555200Y-39250700D01*
X23163500Y-39250700D01*
X23038363Y-39275591D01*
X23038361Y-39275592D01*
X23038362Y-39275592D01*
X22932276Y-39346476D01*
X22620876Y-39657876D01*
X22549991Y-39763962D01*
X22548016Y-39773891D01*
X22525100Y-39889100D01*
X22525100Y-40887600D01*
X22549991Y-41012738D01*
X22620876Y-41118824D01*
X23406691Y-41904639D01*
X23069472Y-41837562D01*
X22662488Y-41918516D01*
X22317464Y-42149054D01*
X22086926Y-42494078D01*
X22005972Y-42901062D01*
X22074505Y-43245600D01*
X8432300Y-43245600D01*
X8307163Y-43270491D01*
X8307161Y-43270492D01*
X8307162Y-43270492D01*
X8201076Y-43341376D01*
X7443152Y-44099300D01*
X6795716Y-44099300D01*
X7153132Y-44028206D01*
X7535010Y-43773042D01*
X7790174Y-43391164D01*
X7879775Y-42940707D01*
X7790174Y-42490250D01*
X7535010Y-42108372D01*
X7153132Y-41853208D01*
X6702675Y-41763607D01*
X6345783Y-41763607D01*
X5895326Y-41853208D01*
X5513448Y-42108372D01*
X5258284Y-42490250D01*
X5168683Y-42940707D01*
X5258284Y-43391164D01*
X5513448Y-43773042D01*
X5895326Y-44028206D01*
X6345783Y-44117807D01*
X6431158Y-44117807D01*
X6399063Y-44124191D01*
X6292976Y-44195076D01*
X6222091Y-44301163D01*
X6206094Y-44381588D01*
X5915440Y-44439402D01*
X5549782Y-44683727D01*
X5305457Y-45049385D01*
X5219662Y-45480707D01*
X5305457Y-45912029D01*
X5549782Y-46277687D01*
X5915440Y-46522012D01*
X6346762Y-46607807D01*
X6701696Y-46607807D01*
X7133018Y-46522012D01*
X7498676Y-46277687D01*
X7743001Y-45912029D01*
X7828796Y-45480707D01*
X7743001Y-45049385D01*
X7545163Y-44753300D01*
X7578600Y-44753300D01*
X7703738Y-44728409D01*
X7809824Y-44657524D01*
X8567748Y-43899600D01*
X20499518Y-43899600D01*
X20485365Y-43909057D01*
X20243988Y-44270302D01*
X20159229Y-44696420D01*
X20243988Y-45122538D01*
X20272026Y-45164500D01*
X19107400Y-45164500D01*
X18982262Y-45189391D01*
X18876176Y-45260276D01*
X16369376Y-47767076D01*
X16298491Y-47873162D01*
X16298491Y-47873163D01*
X16273600Y-47998300D01*
X16273600Y-48962283D01*
X16089973Y-48778656D01*
X16007934Y-48722601D01*
X15903711Y-48699993D01*
X15798904Y-48719713D01*
X15710027Y-48778656D01*
X14578656Y-49910027D01*
X14522601Y-49992066D01*
X14499993Y-50096289D01*
X14519713Y-50201096D01*
X14578656Y-50289973D01*
X15710027Y-51421344D01*
X15792066Y-51477399D01*
X15896289Y-51500007D01*
X16001096Y-51480287D01*
X16089973Y-51421344D01*
X17221344Y-50289973D01*
X17277399Y-50207934D01*
X17300007Y-50103711D01*
X17280287Y-49998904D01*
X17221344Y-49910027D01*
X16875931Y-49564614D01*
X16902709Y-49524538D01*
X16927600Y-49399400D01*
X16927600Y-49038665D01*
X16929310Y-49041224D01*
X16958776Y-49070690D01*
X17303800Y-49301228D01*
X17710784Y-49382182D01*
X18117768Y-49301228D01*
X18462792Y-49070690D01*
X18693330Y-48725666D01*
X18774284Y-48318682D01*
X18693330Y-47911698D01*
X18462792Y-47566674D01*
X18433326Y-47537208D01*
X18088302Y-47306670D01*
X17810030Y-47251318D01*
X18439471Y-46621877D01*
X18494823Y-46900149D01*
X18725361Y-47245173D01*
X18754827Y-47274639D01*
X19099851Y-47505177D01*
X19506835Y-47586131D01*
X19913819Y-47505177D01*
X20258843Y-47274639D01*
X20489381Y-46929615D01*
X20549637Y-46626685D01*
X26799476Y-52876524D01*
X26905563Y-52947409D01*
X27030700Y-52972300D01*
X29240900Y-52972300D01*
X29240900Y-56583600D01*
X29254142Y-56650173D01*
X29265783Y-56708717D01*
X29265789Y-56708726D01*
X29265791Y-56708737D01*
X29303781Y-56765593D01*
X29319826Y-56789610D01*
X29271131Y-56862488D01*
X29190177Y-57269472D01*
X29271131Y-57676456D01*
X29501669Y-58021480D01*
X29531135Y-58050946D01*
X29876159Y-58281484D01*
X30283143Y-58362438D01*
X30690127Y-58281484D01*
X31035151Y-58050946D01*
X31265689Y-57705922D01*
X31346643Y-57298938D01*
X31265689Y-56891954D01*
X31254687Y-56875487D01*
X37393921Y-56875487D01*
X37393921Y-56968648D01*
X37776616Y-57351343D01*
X37850740Y-57425466D01*
X37947587Y-57465581D01*
X38052414Y-57465581D01*
X38149261Y-57425466D01*
X38606079Y-56968648D01*
X38606079Y-56875487D01*
X38000000Y-56269408D01*
X37393921Y-56875487D01*
X31254687Y-56875487D01*
X31035151Y-56546930D01*
X31005685Y-56517464D01*
X30704379Y-56316137D01*
X31505886Y-56316137D01*
X31603567Y-56446617D01*
X32005439Y-56550035D01*
X32416295Y-56491791D01*
X32525343Y-56446601D01*
X32622204Y-56315305D01*
X32064461Y-55757562D01*
X31505886Y-56316137D01*
X30704379Y-56316137D01*
X30660661Y-56286926D01*
X30253677Y-56205972D01*
X29894900Y-56277337D01*
X29894900Y-55547176D01*
X31002580Y-55547176D01*
X31105998Y-55949048D01*
X31236478Y-56046729D01*
X31795053Y-55488154D01*
X32333869Y-55488154D01*
X32891612Y-56045897D01*
X33022908Y-55949036D01*
X33023508Y-55947586D01*
X36534419Y-55947586D01*
X36534419Y-56052413D01*
X36574534Y-56149260D01*
X36648657Y-56223384D01*
X37031352Y-56606079D01*
X37124513Y-56606079D01*
X37730592Y-56000000D01*
X38269408Y-56000000D01*
X38875487Y-56606079D01*
X38968648Y-56606079D01*
X39425466Y-56149261D01*
X39465581Y-56052414D01*
X39465581Y-55947587D01*
X39425466Y-55850740D01*
X39351343Y-55776616D01*
X38968648Y-55393921D01*
X38875487Y-55393921D01*
X38269408Y-56000000D01*
X37730592Y-56000000D01*
X37124513Y-55393921D01*
X37031352Y-55393921D01*
X36574534Y-55850739D01*
X36534419Y-55947586D01*
X33023508Y-55947586D01*
X33068098Y-55839988D01*
X33126342Y-55429132D01*
X33022924Y-55027260D01*
X32892444Y-54929579D01*
X32333869Y-55488154D01*
X31795053Y-55488154D01*
X31237310Y-54930411D01*
X31106014Y-55027272D01*
X31060824Y-55136320D01*
X31002580Y-55547176D01*
X29894900Y-55547176D01*
X29894900Y-54661003D01*
X31506718Y-54661003D01*
X32064461Y-55218746D01*
X32623036Y-54660171D01*
X32525355Y-54529691D01*
X32123483Y-54426273D01*
X31712627Y-54484517D01*
X31603579Y-54529707D01*
X31506718Y-54661003D01*
X29894900Y-54661003D01*
X29894900Y-52972300D01*
X33062407Y-52972300D01*
X32863233Y-53270385D01*
X32782279Y-53677369D01*
X32863233Y-54084353D01*
X33093771Y-54429377D01*
X33123237Y-54458843D01*
X33468261Y-54689381D01*
X33875245Y-54770335D01*
X34282229Y-54689381D01*
X34355034Y-54640734D01*
X34435962Y-54694809D01*
X34561100Y-54719700D01*
X37705573Y-54719700D01*
X37393921Y-55031352D01*
X37393921Y-55124513D01*
X38000000Y-55730592D01*
X38606079Y-55124513D01*
X38606079Y-55031352D01*
X38294427Y-54719700D01*
X48203241Y-54719700D01*
X46657300Y-56202968D01*
X43110281Y-59250407D01*
X42286733Y-59864800D01*
X29287339Y-59864800D01*
X29516525Y-59521800D01*
X29601284Y-59095682D01*
X29516525Y-58669564D01*
X29275148Y-58308318D01*
X29244296Y-58277467D01*
X28883051Y-58036090D01*
X28456933Y-57951331D01*
X28030815Y-58036090D01*
X27669570Y-58277467D01*
X27428193Y-58638712D01*
X27343434Y-59064830D01*
X27428193Y-59490948D01*
X27505755Y-59607027D01*
X27339594Y-59640079D01*
X27197334Y-59735134D01*
X27094989Y-59837479D01*
X27086999Y-59832141D01*
X26660881Y-59747382D01*
X26234763Y-59832141D01*
X25873518Y-60073518D01*
X25632141Y-60434763D01*
X25547382Y-60860881D01*
X25632141Y-61286999D01*
X25873518Y-61648244D01*
X25904369Y-61679096D01*
X26265615Y-61920473D01*
X26691733Y-62005232D01*
X27117851Y-61920473D01*
X27479096Y-61679096D01*
X27720473Y-61317851D01*
X27805232Y-60891733D01*
X27775409Y-60741800D01*
X41111180Y-60741800D01*
X39964869Y-61596984D01*
X37323753Y-63141788D01*
X33390173Y-64436384D01*
X29008417Y-64386591D01*
X25918910Y-63589299D01*
X24422182Y-63040499D01*
X20872571Y-61690647D01*
X20868096Y-61689133D01*
X19018096Y-61139133D01*
X19016302Y-61138628D01*
X15816302Y-60288628D01*
X12072611Y-59290310D01*
X9994511Y-58251260D01*
X7406269Y-54070254D01*
X6322927Y-51632734D01*
X6333729Y-51621932D01*
X6333729Y-50751207D01*
X6714729Y-50751207D01*
X6714729Y-51621932D01*
X6780604Y-51687807D01*
X7592642Y-51687807D01*
X7689489Y-51647692D01*
X7763613Y-51573568D01*
X7803729Y-51476721D01*
X7803729Y-50817082D01*
X7737854Y-50751207D01*
X6714729Y-50751207D01*
X6333729Y-50751207D01*
X6313729Y-50751207D01*
X6313729Y-50370207D01*
X6333729Y-50370207D01*
X6333729Y-49499482D01*
X6714729Y-49499482D01*
X6714729Y-50370207D01*
X7737854Y-50370207D01*
X7803729Y-50304332D01*
X7803729Y-49644693D01*
X7763613Y-49547846D01*
X7689489Y-49473722D01*
X7592642Y-49433607D01*
X6780604Y-49433607D01*
X6714729Y-49499482D01*
X6333729Y-49499482D01*
X6267854Y-49433607D01*
X5526143Y-49433607D01*
X5069029Y-48020707D01*
X5219662Y-48020707D01*
X5305457Y-48452029D01*
X5549782Y-48817687D01*
X5915440Y-49062012D01*
X6346762Y-49147807D01*
X6701696Y-49147807D01*
X7133018Y-49062012D01*
X7498676Y-48817687D01*
X7743001Y-48452029D01*
X7828796Y-48020707D01*
X7743001Y-47589385D01*
X7498676Y-47223727D01*
X7133018Y-46979402D01*
X6701696Y-46893607D01*
X6346762Y-46893607D01*
X5915440Y-46979402D01*
X5549782Y-47223727D01*
X5305457Y-47589385D01*
X5219662Y-48020707D01*
X5069029Y-48020707D01*
X4911338Y-47533299D01*
X4113080Y-43941138D01*
X3813559Y-38999043D01*
X3866997Y-37253375D01*
X10186500Y-37253375D01*
X10186500Y-37427414D01*
X10226616Y-37524261D01*
X10300740Y-37598385D01*
X10397587Y-37638500D01*
X10793625Y-37638500D01*
X10859500Y-37572625D01*
X10859500Y-37187500D01*
X11240500Y-37187500D01*
X11240500Y-37572625D01*
X11306375Y-37638500D01*
X11702413Y-37638500D01*
X11799260Y-37598385D01*
X11873384Y-37524261D01*
X11913500Y-37427414D01*
X11913500Y-37253375D01*
X11847625Y-37187500D01*
X11240500Y-37187500D01*
X10859500Y-37187500D01*
X10252375Y-37187500D01*
X10186500Y-37253375D01*
X3866997Y-37253375D01*
X3887837Y-36572586D01*
X10186500Y-36572586D01*
X10186500Y-36746625D01*
X10252375Y-36812500D01*
X10859500Y-36812500D01*
X10859500Y-36427375D01*
X11240500Y-36427375D01*
X11240500Y-36812500D01*
X11847625Y-36812500D01*
X11913500Y-36746625D01*
X11913500Y-36625000D01*
X12030359Y-36625000D01*
X12030359Y-37375000D01*
X12052219Y-37491176D01*
X12120879Y-37597876D01*
X12225642Y-37669458D01*
X12350000Y-37694641D01*
X13550000Y-37694641D01*
X13666176Y-37672781D01*
X13772876Y-37604121D01*
X13844458Y-37499358D01*
X13848697Y-37478426D01*
X13871927Y-37501697D01*
X14097332Y-37595293D01*
X14341397Y-37595506D01*
X14566966Y-37502303D01*
X14739697Y-37329873D01*
X14833293Y-37104468D01*
X14833506Y-36860403D01*
X14740303Y-36634834D01*
X14567873Y-36462103D01*
X14342468Y-36368507D01*
X14098403Y-36368294D01*
X13872834Y-36461497D01*
X13839037Y-36495235D01*
X13779121Y-36402124D01*
X13674358Y-36330542D01*
X13550000Y-36305359D01*
X12350000Y-36305359D01*
X12233824Y-36327219D01*
X12127124Y-36395879D01*
X12055542Y-36500642D01*
X12030359Y-36625000D01*
X11913500Y-36625000D01*
X11913500Y-36572586D01*
X11873384Y-36475739D01*
X11799260Y-36401615D01*
X11702413Y-36361500D01*
X11306375Y-36361500D01*
X11240500Y-36427375D01*
X10859500Y-36427375D01*
X10793625Y-36361500D01*
X10397587Y-36361500D01*
X10300740Y-36401615D01*
X10226616Y-36475739D01*
X10186500Y-36572586D01*
X3887837Y-36572586D01*
X3940412Y-34855144D01*
X21975473Y-34855144D01*
X22189368Y-35220180D01*
X22526675Y-35475575D01*
X22644856Y-35524527D01*
X22809500Y-35500485D01*
X22809500Y-34690500D01*
X23190500Y-34690500D01*
X23190500Y-35500485D01*
X23355144Y-35524527D01*
X23720180Y-35310632D01*
X23975575Y-34973325D01*
X24024527Y-34855144D01*
X24000485Y-34690500D01*
X23190500Y-34690500D01*
X22809500Y-34690500D01*
X21999515Y-34690500D01*
X21975473Y-34855144D01*
X3940412Y-34855144D01*
X3963382Y-34104809D01*
X4163039Y-32457641D01*
X4159801Y-32428643D01*
X3660797Y-31031432D01*
X3617592Y-30861935D01*
X4780194Y-30861935D01*
X4915969Y-31129776D01*
X5227890Y-31438357D01*
X5634156Y-31604082D01*
X5809500Y-31558004D01*
X5809500Y-30690500D01*
X6190500Y-30690500D01*
X6190500Y-31558004D01*
X6365844Y-31604082D01*
X6772110Y-31438357D01*
X7084031Y-31129776D01*
X7219806Y-30861935D01*
X7196387Y-30690500D01*
X6190500Y-30690500D01*
X5809500Y-30690500D01*
X4803613Y-30690500D01*
X4780194Y-30861935D01*
X3617592Y-30861935D01*
X3433077Y-30138065D01*
X4780194Y-30138065D01*
X4803613Y-30309500D01*
X5809500Y-30309500D01*
X5809500Y-29441996D01*
X6190500Y-29441996D01*
X6190500Y-30309500D01*
X7196387Y-30309500D01*
X7219806Y-30138065D01*
X7084031Y-29870224D01*
X6772110Y-29561643D01*
X6365844Y-29395918D01*
X6190500Y-29441996D01*
X5809500Y-29441996D01*
X5634156Y-29395918D01*
X5227890Y-29561643D01*
X4915969Y-29870224D01*
X4780194Y-30138065D01*
X3433077Y-30138065D01*
X3012566Y-28488371D01*
X2949878Y-27960000D01*
X4644454Y-27960000D01*
X4734055Y-28410457D01*
X4989219Y-28792335D01*
X5371097Y-29047499D01*
X5821554Y-29137100D01*
X6178446Y-29137100D01*
X6621283Y-29049015D01*
X6834758Y-29262490D01*
X6860879Y-29393807D01*
X6939920Y-29512099D01*
X6955934Y-29536066D01*
X9229934Y-31810067D01*
X9372194Y-31905122D01*
X9540000Y-31938500D01*
X12220869Y-31938500D01*
X12302024Y-32019797D01*
X12527429Y-32113393D01*
X12771494Y-32113606D01*
X12997063Y-32020403D01*
X13079109Y-31938500D01*
X25977668Y-31938500D01*
X26313073Y-32077773D01*
X26756051Y-32078159D01*
X27165457Y-31908996D01*
X27478963Y-31596037D01*
X27648841Y-31186927D01*
X27649227Y-30743949D01*
X27480064Y-30334543D01*
X27167105Y-30021037D01*
X26757995Y-29851159D01*
X26315017Y-29850773D01*
X26121806Y-29930606D01*
X26045601Y-29854401D01*
X25990227Y-29817401D01*
X25903342Y-29759346D01*
X25735535Y-29725967D01*
X23093595Y-29725967D01*
X23012440Y-29644670D01*
X22787035Y-29551074D01*
X22542970Y-29550861D01*
X22317401Y-29644064D01*
X22235355Y-29725967D01*
X16550580Y-29725967D01*
X16520403Y-29652934D01*
X16347973Y-29480203D01*
X16122568Y-29386607D01*
X15878503Y-29386394D01*
X15652934Y-29479597D01*
X15480203Y-29652027D01*
X15386607Y-29877432D01*
X15386394Y-30121497D01*
X15479597Y-30347066D01*
X15652027Y-30519797D01*
X15877432Y-30613393D01*
X16121497Y-30613606D01*
X16152842Y-30600655D01*
X16164467Y-30602967D01*
X22235339Y-30602967D01*
X22316494Y-30684264D01*
X22541899Y-30777860D01*
X22785964Y-30778073D01*
X23011533Y-30684870D01*
X23093579Y-30602967D01*
X25479961Y-30602967D01*
X25422227Y-30742005D01*
X25421949Y-31061500D01*
X13079125Y-31061500D01*
X12997970Y-30980203D01*
X12772565Y-30886607D01*
X12528500Y-30886394D01*
X12302931Y-30979597D01*
X12220885Y-31061500D01*
X9721633Y-31061500D01*
X7697242Y-29037110D01*
X7671121Y-28905793D01*
X7576066Y-28763534D01*
X7248739Y-28436207D01*
X7265945Y-28410457D01*
X7355546Y-27960000D01*
X7265945Y-27509543D01*
X7010781Y-27127665D01*
X6628903Y-26872501D01*
X6178446Y-26782900D01*
X5821554Y-26782900D01*
X5371097Y-26872501D01*
X4989219Y-27127665D01*
X4734055Y-27509543D01*
X4644454Y-27960000D01*
X2949878Y-27960000D01*
X2663500Y-25546244D01*
X2663500Y-22201977D01*
X2713349Y-21404399D01*
X2913001Y-18709098D01*
X3236155Y-17214508D01*
X4111610Y-18091491D01*
X5788281Y-18787706D01*
X7603754Y-18789290D01*
X9281638Y-18096003D01*
X10566491Y-16813390D01*
X11262706Y-15136719D01*
X11264290Y-13321246D01*
X10571003Y-11643362D01*
X9288390Y-10358509D01*
X7611719Y-9662294D01*
X5978150Y-9660869D01*
X6702556Y-8336240D01*
X6947786Y-8049141D01*
X11945373Y-8049141D01*
X12101167Y-8426191D01*
X12389393Y-8714921D01*
X12766171Y-8871373D01*
X13174141Y-8871729D01*
X13551191Y-8715935D01*
X13839921Y-8427709D01*
X13996373Y-8050931D01*
X13996729Y-7642961D01*
X13840935Y-7265911D01*
X13552709Y-6977181D01*
X13175931Y-6820729D01*
X12767961Y-6820373D01*
X12390911Y-6976167D01*
X12102181Y-7264393D01*
X11945729Y-7641171D01*
X11945373Y-8049141D01*
X6947786Y-8049141D01*
X8659158Y-6045584D01*
X9777759Y-6045584D01*
X9801221Y-6170279D01*
X9871349Y-6276020D01*
X10948980Y-7353651D01*
X11046586Y-7420343D01*
X11170584Y-7447241D01*
X11295279Y-7423779D01*
X11401020Y-7353651D01*
X12478651Y-6276020D01*
X12494318Y-6253090D01*
X13741424Y-6253090D01*
X13897218Y-6630140D01*
X14185444Y-6918870D01*
X14562222Y-7075322D01*
X14970192Y-7075678D01*
X15347242Y-6919884D01*
X15635972Y-6631658D01*
X15792424Y-6254880D01*
X15792780Y-5846910D01*
X15636986Y-5469860D01*
X15348760Y-5181130D01*
X14971982Y-5024678D01*
X14564012Y-5024322D01*
X14186962Y-5180116D01*
X13898232Y-5468342D01*
X13741780Y-5845120D01*
X13741424Y-6253090D01*
X12494318Y-6253090D01*
X12545343Y-6178414D01*
X12572241Y-6054416D01*
X12548779Y-5929721D01*
X12478651Y-5823980D01*
X11401020Y-4746349D01*
X11303414Y-4679657D01*
X11179416Y-4652759D01*
X11054721Y-4676221D01*
X10948980Y-4746349D01*
X9871349Y-5823980D01*
X9804657Y-5921586D01*
X9777759Y-6045584D01*
X8659158Y-6045584D01*
X8744962Y-5945131D01*
X11031220Y-4006782D01*
X12039667Y-3692461D01*
X11895738Y-4039080D01*
X11895365Y-4466941D01*
X12058755Y-4862375D01*
X12361034Y-5165182D01*
X12756182Y-5329262D01*
X13184043Y-5329635D01*
X13579477Y-5166245D01*
X13882284Y-4863966D01*
X14046364Y-4468818D01*
X14046737Y-4040957D01*
X13883347Y-3645523D01*
X13581068Y-3342716D01*
X13401281Y-3268062D01*
X14845883Y-2817796D01*
X18359274Y-4401296D01*
G36*
X30549576Y-25887024D02*
X30655662Y-25957909D01*
X30780800Y-25982800D01*
X37912900Y-25982800D01*
X37912900Y-27185600D01*
X37937791Y-27310738D01*
X38008676Y-27416824D01*
X38756700Y-28164848D01*
X38756700Y-28195000D01*
X38781591Y-28320138D01*
X38852476Y-28426224D01*
X39140076Y-28713824D01*
X39246162Y-28784709D01*
X39371300Y-28809600D01*
X39401452Y-28809600D01*
X44742076Y-34150224D01*
X44848162Y-34221109D01*
X44973300Y-34246000D01*
X57258009Y-34246000D01*
X57889825Y-35670946D01*
X58202200Y-36881400D01*
X51416448Y-36881400D01*
X51259798Y-36724750D01*
X51287019Y-36706559D01*
X51341201Y-36670355D01*
X51428773Y-36728869D01*
X51835757Y-36809823D01*
X52242741Y-36728869D01*
X52587765Y-36498331D01*
X52818303Y-36153307D01*
X52899257Y-35746323D01*
X52818303Y-35339339D01*
X52587765Y-34994315D01*
X52558299Y-34964849D01*
X52213275Y-34734311D01*
X51806291Y-34653357D01*
X51399307Y-34734311D01*
X51054283Y-34964849D01*
X50823745Y-35309873D01*
X50763501Y-35612738D01*
X50651126Y-35500379D01*
X50651124Y-35500376D01*
X50651121Y-35500374D01*
X50651107Y-35500360D01*
X50601893Y-35467481D01*
X50545037Y-35429491D01*
X50545026Y-35429489D01*
X50545017Y-35429483D01*
X50486473Y-35417842D01*
X50419900Y-35404600D01*
X39235648Y-35404600D01*
X34985402Y-31154354D01*
X35264312Y-31340716D01*
X35671296Y-31421670D01*
X36078280Y-31340716D01*
X36423304Y-31110178D01*
X36653842Y-30765154D01*
X36734796Y-30358170D01*
X36653842Y-29951186D01*
X36596732Y-29865716D01*
X36974894Y-29487554D01*
X37060364Y-29544664D01*
X37467348Y-29625618D01*
X37874332Y-29544664D01*
X38219356Y-29314126D01*
X38449894Y-28969102D01*
X38530848Y-28562118D01*
X38449894Y-28155134D01*
X38219356Y-27810110D01*
X38189890Y-27780644D01*
X37844866Y-27550106D01*
X37437882Y-27469152D01*
X37030898Y-27550106D01*
X36685874Y-27780644D01*
X36455336Y-28125668D01*
X36374382Y-28532652D01*
X36455336Y-28939636D01*
X36512446Y-29025106D01*
X36134284Y-29403268D01*
X36048814Y-29346158D01*
X35641830Y-29265204D01*
X35234846Y-29346158D01*
X34889822Y-29576696D01*
X34659284Y-29921720D01*
X34578330Y-30328704D01*
X34659284Y-30735688D01*
X34845646Y-31014598D01*
X16249256Y-12418208D01*
X16358274Y-12463476D01*
X16766244Y-12463832D01*
X17021086Y-12358534D01*
X30549576Y-25887024D01*
X30549576Y-25887024D01*
G37*
X30549576Y-25887024D02*
X30655662Y-25957909D01*
X30780800Y-25982800D01*
X37912900Y-25982800D01*
X37912900Y-27185600D01*
X37937791Y-27310738D01*
X38008676Y-27416824D01*
X38756700Y-28164848D01*
X38756700Y-28195000D01*
X38781591Y-28320138D01*
X38852476Y-28426224D01*
X39140076Y-28713824D01*
X39246162Y-28784709D01*
X39371300Y-28809600D01*
X39401452Y-28809600D01*
X44742076Y-34150224D01*
X44848162Y-34221109D01*
X44973300Y-34246000D01*
X57258009Y-34246000D01*
X57889825Y-35670946D01*
X58202200Y-36881400D01*
X51416448Y-36881400D01*
X51259798Y-36724750D01*
X51287019Y-36706559D01*
X51341201Y-36670355D01*
X51428773Y-36728869D01*
X51835757Y-36809823D01*
X52242741Y-36728869D01*
X52587765Y-36498331D01*
X52818303Y-36153307D01*
X52899257Y-35746323D01*
X52818303Y-35339339D01*
X52587765Y-34994315D01*
X52558299Y-34964849D01*
X52213275Y-34734311D01*
X51806291Y-34653357D01*
X51399307Y-34734311D01*
X51054283Y-34964849D01*
X50823745Y-35309873D01*
X50763501Y-35612738D01*
X50651126Y-35500379D01*
X50651124Y-35500376D01*
X50651121Y-35500374D01*
X50651107Y-35500360D01*
X50601893Y-35467481D01*
X50545037Y-35429491D01*
X50545026Y-35429489D01*
X50545017Y-35429483D01*
X50486473Y-35417842D01*
X50419900Y-35404600D01*
X39235648Y-35404600D01*
X34985402Y-31154354D01*
X35264312Y-31340716D01*
X35671296Y-31421670D01*
X36078280Y-31340716D01*
X36423304Y-31110178D01*
X36653842Y-30765154D01*
X36734796Y-30358170D01*
X36653842Y-29951186D01*
X36596732Y-29865716D01*
X36974894Y-29487554D01*
X37060364Y-29544664D01*
X37467348Y-29625618D01*
X37874332Y-29544664D01*
X38219356Y-29314126D01*
X38449894Y-28969102D01*
X38530848Y-28562118D01*
X38449894Y-28155134D01*
X38219356Y-27810110D01*
X38189890Y-27780644D01*
X37844866Y-27550106D01*
X37437882Y-27469152D01*
X37030898Y-27550106D01*
X36685874Y-27780644D01*
X36455336Y-28125668D01*
X36374382Y-28532652D01*
X36455336Y-28939636D01*
X36512446Y-29025106D01*
X36134284Y-29403268D01*
X36048814Y-29346158D01*
X35641830Y-29265204D01*
X35234846Y-29346158D01*
X34889822Y-29576696D01*
X34659284Y-29921720D01*
X34578330Y-30328704D01*
X34659284Y-30735688D01*
X34845646Y-31014598D01*
X16249256Y-12418208D01*
X16358274Y-12463476D01*
X16766244Y-12463832D01*
X17021086Y-12358534D01*
X30549576Y-25887024D01*
G36*
X56968028Y-33592000D02*
X45108748Y-33592000D01*
X39939950Y-28423202D01*
X40044535Y-28318800D01*
X54629911Y-28318800D01*
X56968028Y-33592000D01*
X56968028Y-33592000D01*
G37*
X56968028Y-33592000D02*
X45108748Y-33592000D01*
X39939950Y-28423202D01*
X40044535Y-28318800D01*
X54629911Y-28318800D01*
X56968028Y-33592000D01*
G36*
X34543143Y-12163289D02*
X38135739Y-12811952D01*
X38866243Y-13017406D01*
X38813984Y-13084576D01*
X39460000Y-13730592D01*
X39474142Y-13716450D01*
X39743550Y-13985858D01*
X39729408Y-14000000D01*
X40375424Y-14646016D01*
X40519249Y-14534119D01*
X40643017Y-14088105D01*
X40586681Y-13628677D01*
X40526953Y-13484481D01*
X40831338Y-13570089D01*
X40831338Y-14900000D01*
X40849712Y-14997647D01*
X40907421Y-15087330D01*
X40995475Y-15147495D01*
X41100000Y-15168662D01*
X41628090Y-15168662D01*
X37668776Y-19127976D01*
X37597891Y-19234062D01*
X37588487Y-19281338D01*
X37300000Y-19281338D01*
X37202353Y-19299712D01*
X37112670Y-19357421D01*
X37052505Y-19445475D01*
X37031338Y-19550000D01*
X37031338Y-20450000D01*
X37049712Y-20547647D01*
X37107421Y-20637330D01*
X37195475Y-20697495D01*
X37300000Y-20718662D01*
X38500000Y-20718662D01*
X38597647Y-20700288D01*
X38687330Y-20642579D01*
X38747495Y-20554525D01*
X38768662Y-20450000D01*
X38768662Y-20256375D01*
X39236500Y-20256375D01*
X39236500Y-20502414D01*
X39276616Y-20599261D01*
X39350740Y-20673385D01*
X39447587Y-20713500D01*
X39843625Y-20713500D01*
X39909500Y-20647625D01*
X39909500Y-20190500D01*
X40290500Y-20190500D01*
X40290500Y-20647625D01*
X40356375Y-20713500D01*
X40752413Y-20713500D01*
X40849260Y-20673385D01*
X40923384Y-20599261D01*
X40963500Y-20502414D01*
X40963500Y-20256375D01*
X40897625Y-20190500D01*
X40290500Y-20190500D01*
X39909500Y-20190500D01*
X39302375Y-20190500D01*
X39236500Y-20256375D01*
X38768662Y-20256375D01*
X38768662Y-19550000D01*
X38758800Y-19497586D01*
X39236500Y-19497586D01*
X39236500Y-19743625D01*
X39302375Y-19809500D01*
X39909500Y-19809500D01*
X39909500Y-19352375D01*
X40290500Y-19352375D01*
X40290500Y-19809500D01*
X40897625Y-19809500D01*
X40963500Y-19743625D01*
X40963500Y-19497586D01*
X40923384Y-19400739D01*
X40849260Y-19326615D01*
X40752413Y-19286500D01*
X40356375Y-19286500D01*
X40290500Y-19352375D01*
X39909500Y-19352375D01*
X39843625Y-19286500D01*
X39447587Y-19286500D01*
X39350740Y-19326615D01*
X39276616Y-19400739D01*
X39236500Y-19497586D01*
X38758800Y-19497586D01*
X38750288Y-19452353D01*
X38692579Y-19362670D01*
X38604525Y-19302505D01*
X38500000Y-19281338D01*
X38440310Y-19281338D01*
X42231224Y-15490424D01*
X42302109Y-15384338D01*
X42327000Y-15259200D01*
X42327000Y-15168662D01*
X42900000Y-15168662D01*
X42997647Y-15150288D01*
X43087330Y-15092579D01*
X43147495Y-15004525D01*
X43168662Y-14900000D01*
X43168662Y-14440008D01*
X44474048Y-14958019D01*
X47468901Y-16455445D01*
X49453402Y-17695759D01*
X51093167Y-20428700D01*
X51727667Y-21951500D01*
X44227200Y-21951500D01*
X44102063Y-21976391D01*
X44102061Y-21976392D01*
X44102062Y-21976392D01*
X43995976Y-22047276D01*
X42045800Y-23997452D01*
X40729838Y-22681490D01*
X41911183Y-22681490D01*
X41979597Y-22847066D01*
X42152027Y-23019797D01*
X42377432Y-23113393D01*
X42621497Y-23113606D01*
X42847066Y-23020403D01*
X43019797Y-22847973D01*
X43113393Y-22622568D01*
X43113606Y-22378503D01*
X43020403Y-22152934D01*
X42847973Y-21980203D01*
X42622568Y-21886607D01*
X42483556Y-21886486D01*
X42483419Y-21886394D01*
X42410797Y-21837869D01*
X42242990Y-21804490D01*
X37924622Y-21804490D01*
X36113506Y-19993374D01*
X36113606Y-19878503D01*
X36020403Y-19652934D01*
X35847973Y-19480203D01*
X35622568Y-19386607D01*
X35378503Y-19386394D01*
X35152934Y-19479597D01*
X34980203Y-19652027D01*
X34886607Y-19877432D01*
X34886394Y-20121497D01*
X34979597Y-20347066D01*
X35152027Y-20519797D01*
X35377432Y-20613393D01*
X35493362Y-20613494D01*
X37234368Y-22354500D01*
X35218148Y-22354500D01*
X25177148Y-12313500D01*
X25800000Y-12313500D01*
X25804045Y-12313371D01*
X27422977Y-12210035D01*
X27479597Y-12347066D01*
X27652027Y-12519797D01*
X27877432Y-12613393D01*
X27993362Y-12613494D01*
X28061500Y-12681632D01*
X28061500Y-13500000D01*
X28094879Y-13667807D01*
X28162345Y-13768776D01*
X28189934Y-13810066D01*
X29689933Y-15310066D01*
X29777365Y-15368486D01*
X29832193Y-15405121D01*
X30000000Y-15438500D01*
X32150000Y-15438500D01*
X32317807Y-15405121D01*
X32460066Y-15310066D01*
X33310067Y-14460066D01*
X33405122Y-14317806D01*
X33420534Y-14240321D01*
X35706290Y-14240321D01*
X35890645Y-14686495D01*
X36231710Y-15028155D01*
X36677561Y-15213289D01*
X37160321Y-15213710D01*
X37606495Y-15029355D01*
X37720624Y-14915424D01*
X38813984Y-14915424D01*
X38925881Y-15059249D01*
X39371895Y-15183017D01*
X39831323Y-15126681D01*
X39994119Y-15059249D01*
X40106016Y-14915424D01*
X39460000Y-14269408D01*
X38813984Y-14915424D01*
X37720624Y-14915424D01*
X37948155Y-14688290D01*
X38133289Y-14242439D01*
X38133577Y-13911895D01*
X38276983Y-13911895D01*
X38333319Y-14371323D01*
X38400751Y-14534119D01*
X38544576Y-14646016D01*
X39190592Y-14000000D01*
X38544576Y-13353984D01*
X38400751Y-13465881D01*
X38276983Y-13911895D01*
X38133577Y-13911895D01*
X38133710Y-13759679D01*
X37949355Y-13313505D01*
X37608290Y-12971845D01*
X37162439Y-12786711D01*
X36679679Y-12786290D01*
X36233505Y-12970645D01*
X35891845Y-13311710D01*
X35706711Y-13757561D01*
X35706290Y-14240321D01*
X33420534Y-14240321D01*
X33424648Y-14219641D01*
X33900000Y-14219641D01*
X34016176Y-14197781D01*
X34122876Y-14129121D01*
X34194458Y-14024358D01*
X34219641Y-13900000D01*
X34219641Y-12151307D01*
X34543143Y-12163289D01*
X34543143Y-12163289D01*
G37*
X34543143Y-12163289D02*
X38135739Y-12811952D01*
X38866243Y-13017406D01*
X38813984Y-13084576D01*
X39460000Y-13730592D01*
X39474142Y-13716450D01*
X39743550Y-13985858D01*
X39729408Y-14000000D01*
X40375424Y-14646016D01*
X40519249Y-14534119D01*
X40643017Y-14088105D01*
X40586681Y-13628677D01*
X40526953Y-13484481D01*
X40831338Y-13570089D01*
X40831338Y-14900000D01*
X40849712Y-14997647D01*
X40907421Y-15087330D01*
X40995475Y-15147495D01*
X41100000Y-15168662D01*
X41628090Y-15168662D01*
X37668776Y-19127976D01*
X37597891Y-19234062D01*
X37588487Y-19281338D01*
X37300000Y-19281338D01*
X37202353Y-19299712D01*
X37112670Y-19357421D01*
X37052505Y-19445475D01*
X37031338Y-19550000D01*
X37031338Y-20450000D01*
X37049712Y-20547647D01*
X37107421Y-20637330D01*
X37195475Y-20697495D01*
X37300000Y-20718662D01*
X38500000Y-20718662D01*
X38597647Y-20700288D01*
X38687330Y-20642579D01*
X38747495Y-20554525D01*
X38768662Y-20450000D01*
X38768662Y-20256375D01*
X39236500Y-20256375D01*
X39236500Y-20502414D01*
X39276616Y-20599261D01*
X39350740Y-20673385D01*
X39447587Y-20713500D01*
X39843625Y-20713500D01*
X39909500Y-20647625D01*
X39909500Y-20190500D01*
X40290500Y-20190500D01*
X40290500Y-20647625D01*
X40356375Y-20713500D01*
X40752413Y-20713500D01*
X40849260Y-20673385D01*
X40923384Y-20599261D01*
X40963500Y-20502414D01*
X40963500Y-20256375D01*
X40897625Y-20190500D01*
X40290500Y-20190500D01*
X39909500Y-20190500D01*
X39302375Y-20190500D01*
X39236500Y-20256375D01*
X38768662Y-20256375D01*
X38768662Y-19550000D01*
X38758800Y-19497586D01*
X39236500Y-19497586D01*
X39236500Y-19743625D01*
X39302375Y-19809500D01*
X39909500Y-19809500D01*
X39909500Y-19352375D01*
X40290500Y-19352375D01*
X40290500Y-19809500D01*
X40897625Y-19809500D01*
X40963500Y-19743625D01*
X40963500Y-19497586D01*
X40923384Y-19400739D01*
X40849260Y-19326615D01*
X40752413Y-19286500D01*
X40356375Y-19286500D01*
X40290500Y-19352375D01*
X39909500Y-19352375D01*
X39843625Y-19286500D01*
X39447587Y-19286500D01*
X39350740Y-19326615D01*
X39276616Y-19400739D01*
X39236500Y-19497586D01*
X38758800Y-19497586D01*
X38750288Y-19452353D01*
X38692579Y-19362670D01*
X38604525Y-19302505D01*
X38500000Y-19281338D01*
X38440310Y-19281338D01*
X42231224Y-15490424D01*
X42302109Y-15384338D01*
X42327000Y-15259200D01*
X42327000Y-15168662D01*
X42900000Y-15168662D01*
X42997647Y-15150288D01*
X43087330Y-15092579D01*
X43147495Y-15004525D01*
X43168662Y-14900000D01*
X43168662Y-14440008D01*
X44474048Y-14958019D01*
X47468901Y-16455445D01*
X49453402Y-17695759D01*
X51093167Y-20428700D01*
X51727667Y-21951500D01*
X44227200Y-21951500D01*
X44102063Y-21976391D01*
X44102061Y-21976392D01*
X44102062Y-21976392D01*
X43995976Y-22047276D01*
X42045800Y-23997452D01*
X40729838Y-22681490D01*
X41911183Y-22681490D01*
X41979597Y-22847066D01*
X42152027Y-23019797D01*
X42377432Y-23113393D01*
X42621497Y-23113606D01*
X42847066Y-23020403D01*
X43019797Y-22847973D01*
X43113393Y-22622568D01*
X43113606Y-22378503D01*
X43020403Y-22152934D01*
X42847973Y-21980203D01*
X42622568Y-21886607D01*
X42483556Y-21886486D01*
X42483419Y-21886394D01*
X42410797Y-21837869D01*
X42242990Y-21804490D01*
X37924622Y-21804490D01*
X36113506Y-19993374D01*
X36113606Y-19878503D01*
X36020403Y-19652934D01*
X35847973Y-19480203D01*
X35622568Y-19386607D01*
X35378503Y-19386394D01*
X35152934Y-19479597D01*
X34980203Y-19652027D01*
X34886607Y-19877432D01*
X34886394Y-20121497D01*
X34979597Y-20347066D01*
X35152027Y-20519797D01*
X35377432Y-20613393D01*
X35493362Y-20613494D01*
X37234368Y-22354500D01*
X35218148Y-22354500D01*
X25177148Y-12313500D01*
X25800000Y-12313500D01*
X25804045Y-12313371D01*
X27422977Y-12210035D01*
X27479597Y-12347066D01*
X27652027Y-12519797D01*
X27877432Y-12613393D01*
X27993362Y-12613494D01*
X28061500Y-12681632D01*
X28061500Y-13500000D01*
X28094879Y-13667807D01*
X28162345Y-13768776D01*
X28189934Y-13810066D01*
X29689933Y-15310066D01*
X29777365Y-15368486D01*
X29832193Y-15405121D01*
X30000000Y-15438500D01*
X32150000Y-15438500D01*
X32317807Y-15405121D01*
X32460066Y-15310066D01*
X33310067Y-14460066D01*
X33405122Y-14317806D01*
X33420534Y-14240321D01*
X35706290Y-14240321D01*
X35890645Y-14686495D01*
X36231710Y-15028155D01*
X36677561Y-15213289D01*
X37160321Y-15213710D01*
X37606495Y-15029355D01*
X37720624Y-14915424D01*
X38813984Y-14915424D01*
X38925881Y-15059249D01*
X39371895Y-15183017D01*
X39831323Y-15126681D01*
X39994119Y-15059249D01*
X40106016Y-14915424D01*
X39460000Y-14269408D01*
X38813984Y-14915424D01*
X37720624Y-14915424D01*
X37948155Y-14688290D01*
X38133289Y-14242439D01*
X38133577Y-13911895D01*
X38276983Y-13911895D01*
X38333319Y-14371323D01*
X38400751Y-14534119D01*
X38544576Y-14646016D01*
X39190592Y-14000000D01*
X38544576Y-13353984D01*
X38400751Y-13465881D01*
X38276983Y-13911895D01*
X38133577Y-13911895D01*
X38133710Y-13759679D01*
X37949355Y-13313505D01*
X37608290Y-12971845D01*
X37162439Y-12786711D01*
X36679679Y-12786290D01*
X36233505Y-12970645D01*
X35891845Y-13311710D01*
X35706711Y-13757561D01*
X35706290Y-14240321D01*
X33420534Y-14240321D01*
X33424648Y-14219641D01*
X33900000Y-14219641D01*
X34016176Y-14197781D01*
X34122876Y-14129121D01*
X34194458Y-14024358D01*
X34219641Y-13900000D01*
X34219641Y-12151307D01*
X34543143Y-12163289D01*
M02*
