M48
;DRILL file {KiCad 4.0.7} date 2018 June 15, Friday 20:43:37
;FORMAT={-:-/ absolute / inch / decimal}
FMAT,2
INCH,TZ
T1C0.016
T2C0.024
T3C0.030
T4C0.031
T5C0.035
T6C0.039
T7C0.040
T8C0.043
T9C0.169
%
G90
G05
M72
T1
X3.7682Y-3.3384
X3.793Y-3.2019
X3.8839Y-3.1299
X3.9457Y-3.3457
X4.0157Y-3.0709
X4.2366Y-3.7164
X4.2781Y-3.0773
X4.3043Y-2.6407
X4.3055Y-3.4676
X4.311Y-2.5197
X4.3561Y-3.4306
X4.3565Y-3.5771
X4.3845Y-4.6043
X4.4075Y-2.5183
X4.4866Y-3.5278
X4.4882Y-2.3622
X4.4957Y-2.6303
X4.6654Y-2.7953
X4.7078Y-4.4494
X4.7835Y-2.6772
X4.8203Y-3.9945
X4.9439Y-2.9918
X5.0394Y-4.2126
X5.0591Y-2.7756
X5.1181Y-4.7244
X5.1968Y-5.0528
X5.3113Y-2.8763
X5.3307Y-4.8189
X5.3441Y-4.9385
X5.4598Y-3.5878
X5.5072Y-4.7154
X5.5072Y-4.7154
X5.5443Y-3.9924
X5.6326Y-4.7422
X5.6395Y-4.2783
X5.6607Y-4.4746
X5.684Y-4.6136
X5.8144Y-4.0657
X5.8605Y-4.3617
X5.8925Y-3.4827
X5.8936Y-3.201
X5.9252Y-4.4291
X5.9869Y-4.3936
X6.0101Y-4.5155
X6.0229Y-4.6806
X6.0433Y-4.2126
X6.063Y-4.5276
X6.0832Y-4.2476
X6.1338Y-4.0114
X6.148Y-3.1266
X6.2067Y-3.6024
X6.2205Y-3.7205
X6.2205Y-4.0551
X6.2577Y-4.6239
X6.2625Y-4.0344
X6.2757Y-3.8503
X6.3189Y-4.311
X6.3386Y-4.0157
X6.3525Y-3.1552
X6.3525Y-3.4469
X6.3583Y-3.7402
X6.3589Y-3.9564
X6.3976Y-3.1102
X6.3976Y-4.6063
X6.4039Y-3.9603
X6.4065Y-3.6965
X6.4173Y-4.0354
X6.4567Y-3.8386
X6.4817Y-4.0438
X6.7222Y-3.4291
X6.7222Y-3.6839
T2
X3.5226Y-2.4498
X3.5598Y-2.36
X3.5598Y-2.5396
X3.6496Y-2.3228
X3.6496Y-2.5768
X3.7394Y-2.36
X3.7394Y-2.5396
X3.7766Y-2.4498
T3
X3.8258Y-2.128
X3.8965Y-2.0572
X3.8965Y-2.1987
X3.9672Y-2.128
X3.9672Y-2.2694
X4.0379Y-2.1987
X4.0379Y-2.3401
X4.1086Y-2.2694
T4
X4.0118Y-3.8622
X4.0825Y-3.7915
X4.1532Y-3.7208
X4.2239Y-3.6501
X4.2913Y-3.248
X4.2947Y-3.5794
X4.3654Y-3.5087
X4.4305Y-3.1088
X4.4361Y-3.4379
X4.4361Y-4.2865
X4.5068Y-3.3672
X4.5068Y-4.2158
X4.5775Y-3.2965
X4.5775Y-4.145
X4.6482Y-3.2258
X4.6482Y-4.0743
X4.7189Y-3.1551
X4.7189Y-4.0036
X4.7896Y-3.0844
X4.7896Y-3.9329
X4.8603Y-3.0137
X4.8603Y-3.8622
X4.931Y-2.943
X4.931Y-3.7915
X5.0018Y-2.8723
X5.0018Y-3.7208
X5.0725Y-3.6501
X5.1432Y-3.5794
X5.2139Y-3.5087
X5.2846Y-3.4379
X5.3553Y-3.3672
X5.426Y-3.2965
T5
X4.585Y-2.4016
X4.685Y-2.4016
X4.8394Y-2.4409
X4.9394Y-2.4409
X5.0394Y-2.4409
T6
X3.9764Y-4.4882
X4.1573Y-4.6691
X4.4568Y-4.8031
X4.5276Y-4.7324
X4.5276Y-4.8739
X4.5983Y-4.8031
X4.8819Y-4.0945
X5.2756Y-3.7008
X5.6852Y-2.8112
X5.8661Y-2.9921
X6.4508Y-3.3051
X6.4763Y-3.4426
X6.4937Y-3.541
X6.5111Y-3.6395
X6.5284Y-3.738
X6.5458Y-3.8365
X6.5631Y-3.935
X6.5748Y-3.4252
X6.5805Y-4.0334
X6.5922Y-3.5237
X6.5979Y-4.1319
X6.6095Y-3.6222
X6.6152Y-4.2304
X6.6269Y-3.7206
X6.6326Y-4.3289
X6.6443Y-3.8191
X6.65Y-4.4274
X6.6616Y-3.9176
X6.6673Y-4.5259
X6.679Y-4.0161
X6.6847Y-4.6243
X6.6964Y-4.1146
X6.7021Y-4.7228
X6.7137Y-4.213
X6.7194Y-4.8213
X6.7311Y-4.3115
X6.7485Y-4.41
X6.7658Y-4.5085
X6.7832Y-4.607
X6.8005Y-4.7054
X6.8179Y-4.8039
T7
X3.622Y-2.9906
X3.622Y-3.0906
X3.622Y-3.1906
X3.6427Y-3.5803
X3.6427Y-3.6803
X3.6427Y-3.7803
X3.6427Y-3.8803
T8
X5.3937Y-5.1969
X5.519Y-5.3221
X5.5747Y-5.0159
X5.6999Y-5.1412
X5.748Y-5.0394
X5.8733Y-5.1646
X5.929Y-4.8584
X6.0236Y-4.7638
X6.0543Y-4.9837
X6.1489Y-4.8891
X6.1811Y-4.4094
X6.2046Y-4.5828
X6.3064Y-4.5347
X6.3298Y-4.7081
X6.3621Y-4.2285
X6.4873Y-4.3538
T9
X3.6496Y-2.4498
T0
M30
