M48
;DRILL file {KiCad 4.0.7} date 06/14/18 23:49:55
;FORMAT={-:-/ absolute / metric / decimal}
FMAT,2
METRIC,TZ
T1C0.600
T2C0.762
T3C0.800
T4C0.900
T5C1.000
T6C1.016
T7C1.100
T8C4.300
%
G90
G05
M71
T1
X3.475Y-14.225
X4.42Y-11.945
X4.42Y-16.505
X6.7Y-11.
X6.7Y-17.45
X8.98Y-11.945
X8.98Y-16.505
X9.925Y-14.225
T2
X11.175Y-6.05
X12.971Y-4.254
X12.971Y-7.846
X14.767Y-6.05
X14.767Y-9.642
X16.563Y-7.846
X16.563Y-11.438
X18.359Y-9.642
T3
X15.9Y-50.1
X17.696Y-48.304
X19.492Y-46.508
X21.288Y-44.712
X23.Y-34.5
X23.084Y-42.916
X24.88Y-41.12
X26.536Y-30.964
X26.676Y-39.324
X26.676Y-60.876
X28.472Y-37.528
X28.472Y-59.08
X30.268Y-35.732
X30.268Y-57.284
X32.064Y-33.936
X32.064Y-55.488
X33.861Y-32.139
X33.861Y-53.692
X35.657Y-30.343
X35.657Y-51.896
X37.453Y-28.547
X37.453Y-50.1
X39.249Y-26.751
X39.249Y-48.304
X41.045Y-24.955
X41.045Y-46.508
X42.841Y-44.712
X44.637Y-42.916
X46.433Y-41.12
X48.229Y-39.324
X50.025Y-37.528
X51.821Y-35.732
T4
X30.46Y-13.
X33.Y-13.
X36.92Y-14.
X39.46Y-14.
X42.Y-14.
T5
X15.Y-66.
X19.596Y-70.596
X27.204Y-74.
X29.Y-72.204
X29.Y-75.796
X30.796Y-74.
X38.Y-56.
X48.Y-46.
X58.404Y-23.404
X63.Y-28.
X77.85Y-35.95
X78.499Y-39.441
X78.94Y-41.942
X79.381Y-44.444
X79.822Y-46.945
X80.263Y-49.447
X80.704Y-51.948
X81.Y-39.
X81.145Y-54.45
X81.441Y-41.501
X81.586Y-56.951
X81.882Y-44.003
X82.027Y-59.452
X82.323Y-46.504
X82.468Y-61.954
X82.764Y-49.006
X82.909Y-64.455
X83.205Y-51.507
X83.35Y-66.957
X83.646Y-54.008
X83.791Y-69.458
X84.087Y-56.51
X84.232Y-71.959
X84.529Y-59.011
X84.674Y-74.461
X84.97Y-61.513
X85.411Y-64.014
X85.852Y-66.516
X86.293Y-69.017
X86.734Y-71.518
X87.175Y-74.02
T6
X6.Y-27.96
X6.Y-30.5
X6.Y-33.04
X6.524Y-42.941
X6.524Y-45.481
X6.524Y-48.021
X6.524Y-50.561
T7
X51.Y-84.
X54.182Y-87.182
X55.596Y-79.404
X58.778Y-82.586
X60.Y-80.
X63.182Y-83.182
X64.596Y-75.404
X67.Y-73.
X67.778Y-78.586
X70.182Y-76.182
X71.Y-64.
X71.596Y-68.404
X74.182Y-67.182
X74.778Y-71.586
X75.596Y-59.404
X78.778Y-62.586
T8
X6.7Y-14.225
T0
M30
