G04 #@! TF.FileFunction,Copper,L2,Bot,Signal*
%FSLAX46Y46*%
G04 Gerber Fmt 4.6, Leading zero omitted, Abs format (unit mm)*
G04 Created by KiCad (PCBNEW 4.0.7) date 06/04/18 22:21:00*
%MOMM*%
%LPD*%
G01*
G04 APERTURE LIST*
%ADD10C,0.100000*%
%ADD11R,1.600000X1.600000*%
%ADD12O,1.600000X1.600000*%
%ADD13C,1.600000*%
%ADD14R,2.032000X1.727200*%
%ADD15O,2.032000X1.727200*%
%ADD16R,1.800000X1.800000*%
%ADD17C,1.800000*%
%ADD18R,1.524000X1.524000*%
%ADD19C,1.524000*%
%ADD20R,2.000000X2.000000*%
%ADD21C,2.000000*%
%ADD22R,1.700000X1.700000*%
%ADD23O,1.700000X1.700000*%
G04 APERTURE END LIST*
D10*
D11*
X12000000Y20000000D03*
D12*
X27240000Y53020000D03*
X12000000Y22540000D03*
X27240000Y50480000D03*
X12000000Y25080000D03*
X27240000Y47940000D03*
X12000000Y27620000D03*
X27240000Y45400000D03*
X12000000Y30160000D03*
X27240000Y42860000D03*
X12000000Y32700000D03*
X27240000Y40320000D03*
X12000000Y35240000D03*
X27240000Y37780000D03*
X12000000Y37780000D03*
X27240000Y35240000D03*
X12000000Y40320000D03*
X27240000Y32700000D03*
X12000000Y42860000D03*
X27240000Y30160000D03*
X12000000Y45400000D03*
X27240000Y27620000D03*
X12000000Y47940000D03*
X27240000Y25080000D03*
X12000000Y50480000D03*
X27240000Y22540000D03*
X12000000Y53020000D03*
X27240000Y20000000D03*
X12000000Y55560000D03*
X27240000Y55560000D03*
D11*
X37000000Y31000000D03*
D13*
X37000000Y37500000D03*
D11*
X37000000Y24000000D03*
D13*
X37000000Y17500000D03*
D14*
X37024229Y55060707D03*
D15*
X37024229Y52520707D03*
X37024229Y49980707D03*
X37024229Y47440707D03*
D14*
X4000000Y50460000D03*
D15*
X4000000Y53000000D03*
X4000000Y55540000D03*
D16*
X4000000Y35000000D03*
D17*
X4000000Y37540000D03*
D16*
X4000000Y25000000D03*
D17*
X4000000Y27540000D03*
X4000000Y30080000D03*
D18*
X46000000Y48000000D03*
D19*
X48540000Y48000000D03*
X46000000Y50540000D03*
X48540000Y50540000D03*
X46000000Y53080000D03*
X48540000Y53080000D03*
X46000000Y55620000D03*
X48540000Y55620000D03*
D20*
X48000000Y10000000D03*
D21*
X48000000Y22700000D03*
D22*
X18000000Y20000000D03*
D23*
X20540000Y20000000D03*
X18000000Y22540000D03*
X20540000Y22540000D03*
X18000000Y25080000D03*
X20540000Y25080000D03*
X18000000Y27620000D03*
X20540000Y27620000D03*
X18000000Y30160000D03*
X20540000Y30160000D03*
X18000000Y32700000D03*
X20540000Y32700000D03*
X18000000Y35240000D03*
X20540000Y35240000D03*
X18000000Y37780000D03*
X20540000Y37780000D03*
X18000000Y40320000D03*
X20540000Y40320000D03*
X18000000Y42860000D03*
X20540000Y42860000D03*
X18000000Y45400000D03*
X20540000Y45400000D03*
X18000000Y47940000D03*
X20540000Y47940000D03*
X18000000Y50480000D03*
X20540000Y50480000D03*
X18000000Y53020000D03*
X20540000Y53020000D03*
X18000000Y55560000D03*
X20540000Y55560000D03*
M02*
