G04 #@! TF.FileFunction,Copper,L2,Bot,Signal*
%FSLAX46Y46*%
G04 Gerber Fmt 4.6, Leading zero omitted, Abs format (unit mm)*
G04 Created by KiCad (PCBNEW 4.0.7) date 06/12/18 01:33:59*
%MOMM*%
%LPD*%
G01*
G04 APERTURE LIST*
%ADD10C,0.100000*%
%ADD11C,1.600000*%
%ADD12R,1.200000X0.750000*%
%ADD13R,1.800000X1.800000*%
%ADD14C,1.800000*%
%ADD15C,1.700000*%
%ADD16R,1.200000X0.900000*%
%ADD17R,2.032000X1.727200*%
%ADD18O,2.032000X1.727200*%
%ADD19C,2.000000*%
%ADD20C,1.524000*%
%ADD21C,1.700000*%
G04 APERTURE END LIST*
D10*
G36*
X64131371Y-28000000D02*
X63000000Y-29131371D01*
X61868629Y-28000000D01*
X63000000Y-26868629D01*
X64131371Y-28000000D01*
X64131371Y-28000000D01*
G37*
D11*
X58403806Y-23403806D03*
D10*
G36*
X13868629Y-66000000D02*
X15000000Y-64868629D01*
X16131371Y-66000000D01*
X15000000Y-67131371D01*
X13868629Y-66000000D01*
X13868629Y-66000000D01*
G37*
D11*
X19596194Y-70596194D03*
D12*
X24050000Y-15000000D03*
X25950000Y-15000000D03*
D10*
G36*
X12169150Y-58361180D02*
X11638820Y-57830850D01*
X12487348Y-56982322D01*
X13017678Y-57512652D01*
X12169150Y-58361180D01*
X12169150Y-58361180D01*
G37*
G36*
X13512652Y-57017678D02*
X12982322Y-56487348D01*
X13830850Y-55638820D01*
X14361180Y-56169150D01*
X13512652Y-57017678D01*
X13512652Y-57017678D01*
G37*
D12*
X8050000Y-29000000D03*
X9950000Y-29000000D03*
D10*
G36*
X45169150Y-80361180D02*
X44638820Y-79830850D01*
X45487348Y-78982322D01*
X46017678Y-79512652D01*
X45169150Y-80361180D01*
X45169150Y-80361180D01*
G37*
G36*
X46512652Y-79017678D02*
X45982322Y-78487348D01*
X46830850Y-77638820D01*
X47361180Y-78169150D01*
X46512652Y-79017678D01*
X46512652Y-79017678D01*
G37*
G36*
X54169150Y-73361180D02*
X53638820Y-72830850D01*
X54487348Y-71982322D01*
X55017678Y-72512652D01*
X54169150Y-73361180D01*
X54169150Y-73361180D01*
G37*
G36*
X55512652Y-72017678D02*
X54982322Y-71487348D01*
X55830850Y-70638820D01*
X56361180Y-71169150D01*
X55512652Y-72017678D01*
X55512652Y-72017678D01*
G37*
G36*
X63169150Y-64361180D02*
X62638820Y-63830850D01*
X63487348Y-62982322D01*
X64017678Y-63512652D01*
X63169150Y-64361180D01*
X63169150Y-64361180D01*
G37*
G36*
X64512652Y-63017678D02*
X63982322Y-62487348D01*
X64830850Y-61638820D01*
X65361180Y-62169150D01*
X64512652Y-63017678D01*
X64512652Y-63017678D01*
G37*
G36*
X70169150Y-55361180D02*
X69638820Y-54830850D01*
X70487348Y-53982322D01*
X71017678Y-54512652D01*
X70169150Y-55361180D01*
X70169150Y-55361180D01*
G37*
G36*
X71512652Y-54017678D02*
X70982322Y-53487348D01*
X71830850Y-52638820D01*
X72361180Y-53169150D01*
X71512652Y-54017678D01*
X71512652Y-54017678D01*
G37*
D13*
X33000000Y-13000000D03*
D14*
X30460000Y-13000000D03*
D10*
G36*
X81689486Y-38015312D02*
X81984688Y-39689486D01*
X80310514Y-39984688D01*
X80015312Y-38310514D01*
X81689486Y-38015312D01*
X81689486Y-38015312D01*
G37*
D15*
X78498588Y-39441066D02*
X78498588Y-39441066D01*
X81441066Y-41501412D02*
X81441066Y-41501412D01*
X78939655Y-41942478D02*
X78939655Y-41942478D01*
X81882133Y-44002823D02*
X81882133Y-44002823D01*
X79380721Y-44443890D02*
X79380721Y-44443890D01*
X82323199Y-46504235D02*
X82323199Y-46504235D01*
X79821787Y-46945301D02*
X79821787Y-46945301D01*
X82764265Y-49005647D02*
X82764265Y-49005647D01*
X80262854Y-49446713D02*
X80262854Y-49446713D01*
X83205332Y-51507058D02*
X83205332Y-51507058D01*
X80703920Y-51948125D02*
X80703920Y-51948125D01*
X83646398Y-54008470D02*
X83646398Y-54008470D01*
X81144987Y-54449537D02*
X81144987Y-54449537D01*
X84087465Y-56509882D02*
X84087465Y-56509882D01*
X81586053Y-56950948D02*
X81586053Y-56950948D01*
X84528531Y-59011294D02*
X84528531Y-59011294D01*
X82027119Y-59452360D02*
X82027119Y-59452360D01*
X84969597Y-61512705D02*
X84969597Y-61512705D01*
X82468186Y-61953772D02*
X82468186Y-61953772D01*
X85410664Y-64014117D02*
X85410664Y-64014117D01*
X82909252Y-64455183D02*
X82909252Y-64455183D01*
X85851730Y-66515529D02*
X85851730Y-66515529D01*
X83350318Y-66956595D02*
X83350318Y-66956595D01*
X86292796Y-69016940D02*
X86292796Y-69016940D01*
X83791385Y-69458007D02*
X83791385Y-69458007D01*
X86733863Y-71518352D02*
X86733863Y-71518352D01*
X84232451Y-71959418D02*
X84232451Y-71959418D01*
X87174929Y-74019764D02*
X87174929Y-74019764D01*
X84673518Y-74460830D02*
X84673518Y-74460830D01*
D16*
X37900000Y-20000000D03*
X40100000Y-20000000D03*
D17*
X5000000Y-23540000D03*
D18*
X5000000Y-21000000D03*
X5000000Y-18460000D03*
D17*
X5024229Y-42060707D03*
D18*
X5024229Y-39520707D03*
X5024229Y-36980707D03*
X5024229Y-34440707D03*
D19*
X54181981Y-87181981D03*
X51000000Y-84000000D03*
X58778175Y-82585786D03*
X55596194Y-79403806D03*
X63181981Y-83181981D03*
X60000000Y-80000000D03*
X67778175Y-78585786D03*
X64596194Y-75403806D03*
X70181981Y-76181981D03*
X67000000Y-73000000D03*
X74778175Y-71585786D03*
X71596194Y-68403806D03*
X74181981Y-67181981D03*
X71000000Y-64000000D03*
X78778175Y-62585786D03*
X75596194Y-59403806D03*
D13*
X42000000Y-14000000D03*
D14*
X39460000Y-14000000D03*
X36920000Y-14000000D03*
D10*
G36*
X12077631Y-13000000D02*
X11000000Y-14077631D01*
X9922369Y-13000000D01*
X11000000Y-11922369D01*
X12077631Y-13000000D01*
X12077631Y-13000000D01*
G37*
D20*
X9203949Y-11203949D03*
X12796051Y-11203949D03*
X11000000Y-9407898D03*
X14592102Y-9407898D03*
X12796051Y-7611846D03*
X16388154Y-7611846D03*
X14592102Y-5815795D03*
D11*
X23000000Y-34500000D03*
X26535534Y-30964466D03*
D10*
G36*
X38000000Y-57202082D02*
X36797918Y-56000000D01*
X38000000Y-54797918D01*
X39202082Y-56000000D01*
X38000000Y-57202082D01*
X38000000Y-57202082D01*
G37*
G36*
X48000000Y-47202082D02*
X46797918Y-46000000D01*
X48000000Y-44797918D01*
X49202082Y-46000000D01*
X48000000Y-47202082D01*
X48000000Y-47202082D01*
G37*
D21*
X29000000Y-72203949D03*
D15*
X30796051Y-74000000D02*
X30796051Y-74000000D01*
X27203949Y-74000000D02*
X27203949Y-74000000D01*
X29000000Y-75796051D02*
X29000000Y-75796051D01*
M02*
