G04 #@! TF.FileFunction,Legend,Bot*
%FSLAX46Y46*%
G04 Gerber Fmt 4.6, Leading zero omitted, Abs format (unit mm)*
G04 Created by KiCad (PCBNEW 4.0.7) date 06/14/18 23:49:54*
%MOMM*%
%LPD*%
G01*
G04 APERTURE LIST*
%ADD10C,0.100000*%
%ADD11C,0.150000*%
%ADD12C,0.250000*%
%ADD13C,0.120000*%
%ADD14C,2.000000*%
%ADD15R,1.600000X1.150000*%
%ADD16R,2.200000X2.200000*%
%ADD17C,2.200000*%
%ADD18C,2.100000*%
%ADD19R,1.600000X1.300000*%
%ADD20R,2.432000X2.127200*%
%ADD21O,2.432000X2.127200*%
%ADD22C,2.400000*%
%ADD23C,1.924000*%
%ADD24C,2.100000*%
%ADD25C,2.000000*%
%ADD26C,9.000000*%
%ADD27C,1.300000*%
G04 APERTURE END LIST*
D10*
D11*
X84155237Y-37828397D02*
X83592489Y-37927625D01*
X84047512Y-38862819D02*
X83873864Y-37878011D01*
X83358011Y-37968970D02*
X82875121Y-39069543D01*
X82701473Y-38084735D02*
X83531660Y-38953777D01*
X84242689Y-41416567D02*
X84488269Y-40889728D01*
X84805437Y-41317339D02*
X84631789Y-40332532D01*
X84256623Y-40398684D01*
X84171101Y-40462117D01*
X84132474Y-40517281D01*
X84102117Y-40619342D01*
X84126924Y-40760028D01*
X84190357Y-40845550D01*
X84245522Y-40884177D01*
X84347582Y-40914535D01*
X84722747Y-40848383D01*
X83740772Y-40489642D02*
X83257881Y-41590215D01*
X83084233Y-40605407D02*
X83914420Y-41474450D01*
X85117855Y-43850415D02*
X85363435Y-43323576D01*
X85680602Y-43751188D02*
X85506954Y-42766380D01*
X85131789Y-42832532D01*
X85046266Y-42895965D01*
X85007640Y-42951130D01*
X84977282Y-43053190D01*
X85002089Y-43193876D01*
X85065523Y-43279399D01*
X85120687Y-43318025D01*
X85222747Y-43348383D01*
X85597913Y-43282231D01*
X84734421Y-43869671D02*
X84602003Y-43941374D01*
X84367525Y-43982719D01*
X84265465Y-43952361D01*
X84210300Y-43913734D01*
X84146867Y-43828212D01*
X84130329Y-43734421D01*
X84160686Y-43632361D01*
X84199313Y-43577197D01*
X84284835Y-43513762D01*
X84464149Y-43433791D01*
X84549671Y-43370357D01*
X84588298Y-43315193D01*
X84618656Y-43213133D01*
X84602118Y-43119341D01*
X84538684Y-43033819D01*
X84483520Y-42995193D01*
X84381460Y-42964835D01*
X84146981Y-43006180D01*
X84014563Y-43077882D01*
X83724921Y-43080600D02*
X83162173Y-43179828D01*
X83617196Y-44115022D02*
X83443547Y-43130214D01*
X85663505Y-45375293D02*
X85749027Y-45311859D01*
X85889714Y-45287053D01*
X86038670Y-45309141D01*
X86148999Y-45386394D01*
X86212433Y-45471916D01*
X86292404Y-45651230D01*
X86317211Y-45791917D01*
X86303391Y-45987769D01*
X86273034Y-46089829D01*
X86195781Y-46200158D01*
X86063362Y-46271860D01*
X85969571Y-46288398D01*
X85820615Y-46266310D01*
X85765451Y-46227683D01*
X85707568Y-45899414D01*
X85895150Y-45866338D01*
X85359928Y-46395895D02*
X85186280Y-45411087D01*
X84797181Y-46495122D01*
X84623533Y-45510314D01*
X84328225Y-46577812D02*
X84154577Y-45593004D01*
X83920099Y-45634349D01*
X83787680Y-45706051D01*
X83710427Y-45816380D01*
X83680070Y-45918440D01*
X83666250Y-46114292D01*
X83691057Y-46254979D01*
X83771028Y-46434293D01*
X83834462Y-46519815D01*
X83944791Y-46597068D01*
X84093747Y-46619156D01*
X84328225Y-46577812D01*
X85805437Y-48817339D02*
X85631789Y-47832532D01*
X85397311Y-47873876D01*
X85264892Y-47945579D01*
X85187639Y-48055908D01*
X85157281Y-48157968D01*
X85143462Y-48353819D01*
X85168269Y-48494507D01*
X85248240Y-48673820D01*
X85311673Y-48759342D01*
X85422002Y-48836596D01*
X85570959Y-48858684D01*
X85805437Y-48817339D01*
X84710414Y-48091702D02*
X84655250Y-48053075D01*
X84553190Y-48022718D01*
X84318711Y-48064063D01*
X84233189Y-48127496D01*
X84194562Y-48182661D01*
X84164205Y-48284721D01*
X84180742Y-48378512D01*
X84252445Y-48510930D01*
X84914420Y-48974450D01*
X84304777Y-49081946D01*
X86305437Y-51317339D02*
X86131789Y-50332532D01*
X85897311Y-50373876D01*
X85764892Y-50445579D01*
X85687639Y-50555908D01*
X85657281Y-50657968D01*
X85643462Y-50853819D01*
X85668269Y-50994507D01*
X85748240Y-51173820D01*
X85811673Y-51259342D01*
X85922002Y-51336596D01*
X86070959Y-51358684D01*
X86305437Y-51317339D01*
X85240772Y-50489642D02*
X84631129Y-50597139D01*
X85025550Y-50914420D01*
X84884863Y-50939227D01*
X84799340Y-51002661D01*
X84760714Y-51057825D01*
X84730356Y-51159886D01*
X84771701Y-51394364D01*
X84835135Y-51479886D01*
X84890299Y-51518513D01*
X84992359Y-51548870D01*
X85273734Y-51499257D01*
X85359256Y-51435823D01*
X85397882Y-51380659D01*
X86805437Y-53817339D02*
X86631789Y-52832532D01*
X86397311Y-52873876D01*
X86264892Y-52945579D01*
X86187639Y-53055908D01*
X86157281Y-53157968D01*
X86143462Y-53353819D01*
X86168269Y-53494507D01*
X86248240Y-53673820D01*
X86311673Y-53759342D01*
X86422002Y-53836596D01*
X86570959Y-53858684D01*
X86805437Y-53817339D01*
X85282803Y-53408870D02*
X85398568Y-54065408D01*
X85451130Y-52992360D02*
X85809642Y-53654450D01*
X85199999Y-53761946D01*
X87305437Y-56317339D02*
X87131789Y-55332532D01*
X86897311Y-55373876D01*
X86764892Y-55445579D01*
X86687639Y-55555908D01*
X86657281Y-55657968D01*
X86643462Y-55853819D01*
X86668269Y-55994507D01*
X86748240Y-56173820D01*
X86811673Y-56259342D01*
X86922002Y-56336596D01*
X87070959Y-56358684D01*
X87305437Y-56317339D01*
X85678024Y-55588870D02*
X86146981Y-55506180D01*
X86276566Y-55966867D01*
X86221401Y-55928240D01*
X86119341Y-55897882D01*
X85884863Y-55939227D01*
X85799340Y-56002661D01*
X85760714Y-56057825D01*
X85730356Y-56159886D01*
X85771701Y-56394364D01*
X85835135Y-56479886D01*
X85890299Y-56518513D01*
X85992359Y-56548870D01*
X86226838Y-56507526D01*
X86312360Y-56444092D01*
X86350987Y-56388928D01*
X87805437Y-58817339D02*
X87631789Y-57832532D01*
X87397311Y-57873876D01*
X87264892Y-57945579D01*
X87187639Y-58055908D01*
X87157281Y-58157968D01*
X87143462Y-58353819D01*
X87168269Y-58494507D01*
X87248240Y-58673820D01*
X87311673Y-58759342D01*
X87422002Y-58836596D01*
X87570959Y-58858684D01*
X87805437Y-58817339D01*
X86224920Y-58080601D02*
X86412503Y-58047525D01*
X86514563Y-58077882D01*
X86569728Y-58116509D01*
X86688326Y-58240658D01*
X86768297Y-58419971D01*
X86834449Y-58795136D01*
X86804091Y-58897197D01*
X86765465Y-58952361D01*
X86679942Y-59015794D01*
X86492359Y-59048870D01*
X86390299Y-59018513D01*
X86335135Y-58979886D01*
X86271701Y-58894364D01*
X86230356Y-58659886D01*
X86260714Y-58557825D01*
X86299340Y-58502661D01*
X86384863Y-58439227D01*
X86572446Y-58406151D01*
X86674506Y-58436509D01*
X86729670Y-58475135D01*
X86793104Y-58560659D01*
X88305437Y-61317339D02*
X88131789Y-60332532D01*
X87897311Y-60373876D01*
X87764892Y-60445579D01*
X87687639Y-60555908D01*
X87657281Y-60657968D01*
X87643462Y-60853819D01*
X87668269Y-60994507D01*
X87748240Y-61173820D01*
X87811673Y-61259342D01*
X87922002Y-61336596D01*
X88070959Y-61358684D01*
X88305437Y-61317339D01*
X87240772Y-60489642D02*
X86584233Y-60605407D01*
X87179942Y-61515794D01*
X88805437Y-63817339D02*
X88631789Y-62832532D01*
X88397311Y-62873876D01*
X88264892Y-62945579D01*
X88187639Y-63055908D01*
X88157281Y-63157968D01*
X88143462Y-63353819D01*
X88168269Y-63494507D01*
X88248240Y-63673820D01*
X88311673Y-63759342D01*
X88422002Y-63836596D01*
X88570959Y-63858684D01*
X88805437Y-63817339D01*
X87580715Y-63453047D02*
X87666237Y-63389613D01*
X87704864Y-63334449D01*
X87735221Y-63232389D01*
X87726952Y-63185493D01*
X87663519Y-63099971D01*
X87608354Y-63061344D01*
X87506294Y-63030987D01*
X87318711Y-63064063D01*
X87233189Y-63127496D01*
X87194562Y-63182661D01*
X87164205Y-63284721D01*
X87172473Y-63331616D01*
X87235907Y-63417139D01*
X87291071Y-63455765D01*
X87393132Y-63486123D01*
X87580715Y-63453047D01*
X87682775Y-63483404D01*
X87737939Y-63522031D01*
X87801373Y-63607554D01*
X87834449Y-63795136D01*
X87804091Y-63897197D01*
X87765465Y-63952361D01*
X87679942Y-64015794D01*
X87492359Y-64048870D01*
X87390299Y-64018513D01*
X87335135Y-63979886D01*
X87271701Y-63894364D01*
X87238625Y-63706782D01*
X87268983Y-63604721D01*
X87307609Y-63549556D01*
X87393132Y-63486123D01*
X89305437Y-66317339D02*
X89131789Y-65332532D01*
X88897311Y-65373876D01*
X88764892Y-65445579D01*
X88687639Y-65555908D01*
X88657281Y-65657968D01*
X88643462Y-65853819D01*
X88668269Y-65994507D01*
X88748240Y-66173820D01*
X88811673Y-66259342D01*
X88922002Y-66336596D01*
X89070959Y-66358684D01*
X89305437Y-66317339D01*
X88273734Y-66499257D02*
X88086151Y-66532332D01*
X87984090Y-66501975D01*
X87928926Y-66463348D01*
X87810328Y-66339200D01*
X87730356Y-66159886D01*
X87664205Y-65784721D01*
X87694562Y-65682661D01*
X87733189Y-65627496D01*
X87818711Y-65564063D01*
X88006294Y-65530987D01*
X88108354Y-65561344D01*
X88163519Y-65599971D01*
X88226952Y-65685493D01*
X88268297Y-65919971D01*
X88237939Y-66022031D01*
X88199313Y-66077197D01*
X88113791Y-66140630D01*
X87926208Y-66173706D01*
X87824147Y-66143348D01*
X87768983Y-66104721D01*
X87705549Y-66019199D01*
X90274393Y-68734650D02*
X90100745Y-67749842D01*
X89866267Y-67791187D01*
X89733849Y-67862889D01*
X89656595Y-67973218D01*
X89626238Y-68075278D01*
X89612418Y-68271130D01*
X89637225Y-68411817D01*
X89717196Y-68591131D01*
X89780630Y-68676653D01*
X89890959Y-68753906D01*
X90039916Y-68775995D01*
X90274393Y-68734650D01*
X88773734Y-68999257D02*
X89336481Y-68900029D01*
X89055108Y-68949643D02*
X88881460Y-67964835D01*
X89000058Y-68088984D01*
X89110387Y-68166237D01*
X89212447Y-68196595D01*
X87990443Y-68121945D02*
X87896651Y-68138483D01*
X87811129Y-68201917D01*
X87772502Y-68257081D01*
X87742145Y-68359141D01*
X87728325Y-68554993D01*
X87769670Y-68789471D01*
X87849641Y-68968785D01*
X87913075Y-69054307D01*
X87968239Y-69092933D01*
X88070299Y-69123291D01*
X88164091Y-69106753D01*
X88249613Y-69043320D01*
X88288240Y-68988155D01*
X88318598Y-68886095D01*
X88332417Y-68690244D01*
X88291072Y-68455765D01*
X88211101Y-68276452D01*
X88147668Y-68190929D01*
X88092503Y-68152303D01*
X87990443Y-68121945D01*
X90774393Y-71234650D02*
X90600745Y-70249842D01*
X90366267Y-70291187D01*
X90233849Y-70362889D01*
X90156595Y-70473218D01*
X90126238Y-70575278D01*
X90112418Y-70771130D01*
X90137225Y-70911817D01*
X90217196Y-71091131D01*
X90280630Y-71176653D01*
X90390959Y-71253906D01*
X90539916Y-71275995D01*
X90774393Y-71234650D01*
X89273734Y-71499257D02*
X89836481Y-71400029D01*
X89555108Y-71449643D02*
X89381460Y-70464835D01*
X89500058Y-70588984D01*
X89610387Y-70666237D01*
X89712447Y-70696595D01*
X88335821Y-71664636D02*
X88898569Y-71565408D01*
X88617196Y-71615022D02*
X88443547Y-70630214D01*
X88562145Y-70754363D01*
X88672474Y-70831616D01*
X88774535Y-70861974D01*
X88774393Y-76734650D02*
X88600745Y-75749842D01*
X88366267Y-75791187D01*
X88233849Y-75862889D01*
X88156595Y-75973218D01*
X88126238Y-76075278D01*
X88112418Y-76271130D01*
X88137225Y-76411817D01*
X88217196Y-76591131D01*
X88280630Y-76676653D01*
X88390959Y-76753906D01*
X88539916Y-76775995D01*
X88774393Y-76734650D01*
X87273734Y-76999257D02*
X87836481Y-76900029D01*
X87555108Y-76949643D02*
X87381460Y-75964835D01*
X87500058Y-76088984D01*
X87610387Y-76166237D01*
X87712447Y-76196595D01*
X86741459Y-76174392D02*
X86686294Y-76135765D01*
X86584234Y-76105407D01*
X86349755Y-76146752D01*
X86264233Y-76210186D01*
X86225607Y-76265350D01*
X86195249Y-76367410D01*
X86211787Y-76461201D01*
X86283489Y-76593619D01*
X86945465Y-77057139D01*
X86335821Y-77164636D01*
X82774393Y-75234650D02*
X82600745Y-74249842D01*
X82366267Y-74291187D01*
X82233849Y-74362889D01*
X82156595Y-74473218D01*
X82126238Y-74575278D01*
X82112418Y-74771130D01*
X82137225Y-74911817D01*
X82217196Y-75091131D01*
X82280630Y-75176653D01*
X82390959Y-75253906D01*
X82539916Y-75275995D01*
X82774393Y-75234650D01*
X81273734Y-75499257D02*
X81836481Y-75400029D01*
X81555108Y-75449643D02*
X81381460Y-74464835D01*
X81500058Y-74588984D01*
X81610387Y-74666237D01*
X81712447Y-74696595D01*
X80771816Y-74572332D02*
X80162173Y-74679828D01*
X80556595Y-74997110D01*
X80415907Y-75021917D01*
X80330385Y-75085350D01*
X80291758Y-75140515D01*
X80261401Y-75242576D01*
X80302745Y-75477054D01*
X80366179Y-75562576D01*
X80421343Y-75601202D01*
X80523404Y-75631560D01*
X80804778Y-75581946D01*
X80890300Y-75518513D01*
X80928927Y-75463348D01*
X82124193Y-71745708D02*
X81514549Y-71853204D01*
X81908971Y-72170486D01*
X81768283Y-72195293D01*
X81682761Y-72258726D01*
X81644134Y-72313891D01*
X81613777Y-72415952D01*
X81655122Y-72650430D01*
X81718555Y-72735952D01*
X81773720Y-72774578D01*
X81875780Y-72804936D01*
X82157154Y-72755322D01*
X82242676Y-72691889D01*
X82281303Y-72636724D01*
X81233176Y-71902818D02*
X81078555Y-72945508D01*
X80576637Y-72018583D01*
X80342159Y-72059928D02*
X79732516Y-72167425D01*
X80126938Y-72484706D01*
X79986250Y-72509513D01*
X79900728Y-72572947D01*
X79862101Y-72628111D01*
X79831744Y-72730172D01*
X79873088Y-72964650D01*
X79936522Y-73050172D01*
X79991686Y-73088799D01*
X80093746Y-73119157D01*
X80375121Y-73069543D01*
X80460643Y-73006109D01*
X80499270Y-72950945D01*
X81623392Y-69882990D02*
X81154436Y-69965680D01*
X81766797Y-70147826D02*
X81264880Y-69220901D01*
X81110258Y-70263591D01*
X80219242Y-70420701D02*
X80464822Y-69893862D01*
X80781990Y-70321474D02*
X80608341Y-69336666D01*
X80233176Y-69402818D01*
X80147654Y-69466251D01*
X80109027Y-69521416D01*
X80078669Y-69623476D01*
X80103476Y-69764163D01*
X80166910Y-69849685D01*
X80222074Y-69888311D01*
X80324134Y-69918669D01*
X80699300Y-69852517D01*
X79706223Y-69979270D02*
X79377953Y-70037153D01*
X79328225Y-70577812D02*
X79797182Y-70495122D01*
X79623534Y-69510314D01*
X79154577Y-69593004D01*
X78486937Y-70194263D02*
X78815206Y-70136380D01*
X78906165Y-70652232D02*
X78732517Y-69667425D01*
X78263560Y-69750114D01*
X81232376Y-67540100D02*
X80763419Y-67622790D01*
X81375781Y-67804936D02*
X80873864Y-66878011D01*
X80719242Y-67920701D01*
X80029742Y-67026852D02*
X79935950Y-67043390D01*
X79850428Y-67106824D01*
X79811802Y-67161988D01*
X79781444Y-67264048D01*
X79767624Y-67459900D01*
X79808969Y-67694378D01*
X79888940Y-67873692D01*
X79952374Y-67959214D01*
X80007538Y-67997840D01*
X80109599Y-68028198D01*
X80203391Y-68011660D01*
X80288913Y-67948226D01*
X80327539Y-67893062D01*
X80357897Y-67791002D01*
X80371717Y-67595151D01*
X80330372Y-67360672D01*
X80250401Y-67181359D01*
X80186967Y-67095836D01*
X80131803Y-67057210D01*
X80029742Y-67026852D01*
X80732376Y-65040100D02*
X80263419Y-65122790D01*
X80875781Y-65304936D02*
X80373864Y-64378011D01*
X80219242Y-65420701D01*
X79375121Y-65569543D02*
X79937868Y-65470315D01*
X79656495Y-65519929D02*
X79482847Y-64535121D01*
X79601445Y-64659270D01*
X79711774Y-64736523D01*
X79813834Y-64766881D01*
D12*
X79500000Y-61000000D02*
X78500000Y-61000000D01*
X80000000Y-61500000D02*
X79500000Y-61000000D01*
X80500000Y-62000000D02*
X80000000Y-61500000D01*
X81500000Y-62000000D02*
X80500000Y-62000000D01*
D11*
X78232376Y-61040100D02*
X77763419Y-61122790D01*
X78375781Y-61304936D02*
X77873864Y-60378011D01*
X77719242Y-61420701D01*
X77280758Y-60579299D02*
X77225594Y-60540672D01*
X77123534Y-60510314D01*
X76889055Y-60551659D01*
X76803533Y-60615093D01*
X76764906Y-60670257D01*
X76734548Y-60772317D01*
X76751086Y-60866108D01*
X76822789Y-60998526D01*
X77484764Y-61462046D01*
X76875121Y-61569543D01*
X80232376Y-60040100D02*
X79763419Y-60122790D01*
X80375781Y-60304936D02*
X79873864Y-59378011D01*
X79719242Y-60420701D01*
X79311116Y-59477238D02*
X78701473Y-59584735D01*
X79095894Y-59902017D01*
X78955206Y-59926824D01*
X78869684Y-59990257D01*
X78831058Y-60045422D01*
X78800700Y-60147483D01*
X78842045Y-60381961D01*
X78905478Y-60467483D01*
X78960643Y-60506109D01*
X79062703Y-60536467D01*
X79344077Y-60486853D01*
X79429600Y-60423420D01*
X79468226Y-60368255D01*
X79732376Y-57540100D02*
X79263419Y-57622790D01*
X79875781Y-57804936D02*
X79373864Y-56878011D01*
X79219242Y-57920701D01*
X78353146Y-57396466D02*
X78468912Y-58053005D01*
X78521474Y-56979957D02*
X78879986Y-57642046D01*
X78270343Y-57749543D01*
X79232376Y-55040100D02*
X78763419Y-55122790D01*
X79375781Y-55304936D02*
X78873864Y-54378011D01*
X78719242Y-55420701D01*
X77748368Y-54576466D02*
X78217325Y-54493776D01*
X78346910Y-54954463D01*
X78291745Y-54915836D01*
X78189685Y-54885479D01*
X77955206Y-54926824D01*
X77869684Y-54990257D01*
X77831058Y-55045422D01*
X77800700Y-55147483D01*
X77842045Y-55381961D01*
X77905478Y-55467483D01*
X77960643Y-55506109D01*
X78062703Y-55536467D01*
X78297182Y-55495122D01*
X78382704Y-55431689D01*
X78421331Y-55376524D01*
X78732376Y-52540100D02*
X78263419Y-52622790D01*
X78875781Y-52804936D02*
X78373864Y-51878011D01*
X78219242Y-52920701D01*
X77295264Y-52068197D02*
X77482847Y-52035121D01*
X77584907Y-52065479D01*
X77640072Y-52104105D01*
X77758669Y-52228254D01*
X77838641Y-52407567D01*
X77904793Y-52782733D01*
X77874435Y-52884793D01*
X77835808Y-52939958D01*
X77750286Y-53003391D01*
X77562703Y-53036467D01*
X77460643Y-53006109D01*
X77405478Y-52967483D01*
X77342045Y-52881961D01*
X77300700Y-52647483D01*
X77331058Y-52545422D01*
X77369684Y-52490257D01*
X77455206Y-52426824D01*
X77642790Y-52393748D01*
X77744850Y-52424105D01*
X77800014Y-52462732D01*
X77863448Y-52548255D01*
X78232376Y-50040100D02*
X77763419Y-50122790D01*
X78375781Y-50304936D02*
X77873864Y-49378011D01*
X77719242Y-50420701D01*
X77311116Y-49477238D02*
X76654577Y-49593004D01*
X77250286Y-50503391D01*
X78217984Y-46729170D02*
X78063363Y-47771860D01*
X77561445Y-46844935D01*
X76827538Y-47893062D02*
X76882703Y-47931689D01*
X77031659Y-47953777D01*
X77125450Y-47937240D01*
X77257868Y-47865537D01*
X77335122Y-47755208D01*
X77365479Y-47653148D01*
X77379299Y-47457297D01*
X77354492Y-47316609D01*
X77274521Y-47137296D01*
X77211087Y-47051774D01*
X77100758Y-46974520D01*
X76951802Y-46952432D01*
X76858010Y-46968970D01*
X76725593Y-47040672D01*
X76686966Y-47095837D01*
X75842731Y-48066710D02*
X75897895Y-48105337D01*
X76046851Y-48127426D01*
X76140642Y-48110888D01*
X76273061Y-48039185D01*
X76350314Y-47928856D01*
X76380672Y-47826796D01*
X76394491Y-47630945D01*
X76369684Y-47490257D01*
X76289713Y-47310944D01*
X76226279Y-47225422D01*
X76115950Y-47148168D01*
X75966994Y-47126080D01*
X75873203Y-47142618D01*
X75740785Y-47214320D01*
X75702158Y-47269485D01*
X77117855Y-45350415D02*
X77363435Y-44823576D01*
X77680602Y-45251188D02*
X77506954Y-44266380D01*
X77131789Y-44332532D01*
X77046266Y-44395965D01*
X77007640Y-44451130D01*
X76977282Y-44553190D01*
X77002089Y-44693876D01*
X77065523Y-44779399D01*
X77120687Y-44818025D01*
X77222747Y-44848383D01*
X77597913Y-44782231D01*
X76734421Y-45369671D02*
X76602003Y-45441374D01*
X76367525Y-45482719D01*
X76265465Y-45452361D01*
X76210300Y-45413734D01*
X76146867Y-45328212D01*
X76130329Y-45234421D01*
X76160686Y-45132361D01*
X76199313Y-45077197D01*
X76284835Y-45013762D01*
X76464149Y-44933791D01*
X76549671Y-44870357D01*
X76588298Y-44815193D01*
X76618656Y-44713133D01*
X76602118Y-44619341D01*
X76538684Y-44533819D01*
X76483520Y-44495193D01*
X76381460Y-44464835D01*
X76146981Y-44506180D01*
X76014563Y-44577882D01*
X75724921Y-44580600D02*
X75162173Y-44679828D01*
X75617196Y-45615022D02*
X75443547Y-44630214D01*
X76663505Y-41875293D02*
X76749027Y-41811859D01*
X76889714Y-41787053D01*
X77038670Y-41809141D01*
X77148999Y-41886394D01*
X77212433Y-41971916D01*
X77292404Y-42151230D01*
X77317211Y-42291917D01*
X77303391Y-42487769D01*
X77273034Y-42589829D01*
X77195781Y-42700158D01*
X77063362Y-42771860D01*
X76969571Y-42788398D01*
X76820615Y-42766310D01*
X76765451Y-42727683D01*
X76707568Y-42399414D01*
X76895150Y-42366338D01*
X76359928Y-42895895D02*
X76186280Y-41911087D01*
X75797181Y-42995122D01*
X75623533Y-42010314D01*
X75328225Y-43077812D02*
X75154577Y-42093004D01*
X74920099Y-42134349D01*
X74787680Y-42206051D01*
X74710427Y-42316380D01*
X74680070Y-42418440D01*
X74666250Y-42614292D01*
X74691057Y-42754979D01*
X74771028Y-42934293D01*
X74834462Y-43019815D01*
X74944791Y-43097068D01*
X75093747Y-43119156D01*
X75328225Y-43077812D01*
X76483506Y-39270514D02*
X76328885Y-40313205D01*
X75826967Y-39386280D01*
X75672346Y-40428970D02*
X75498698Y-39444163D01*
X75203391Y-40511660D02*
X75029742Y-39526852D01*
X74640643Y-40610888D01*
X74466995Y-39626080D01*
D13*
X24650000Y-15600000D02*
X25350000Y-15600000D01*
X25350000Y-14400000D02*
X24650000Y-14400000D01*
X68828249Y-32176777D02*
X69323223Y-32671751D01*
X70171751Y-31823223D02*
X69676777Y-31328249D01*
X11650000Y-37600000D02*
X12350000Y-37600000D01*
X12350000Y-36400000D02*
X11650000Y-36400000D01*
X46176777Y-79671751D02*
X46671751Y-79176777D01*
X45823223Y-78328249D02*
X45328249Y-78823223D01*
X55176777Y-72671751D02*
X55671751Y-72176777D01*
X54823223Y-71328249D02*
X54328249Y-71823223D01*
X64176777Y-63671751D02*
X64671751Y-63176777D01*
X63823223Y-62328249D02*
X63328249Y-62823223D01*
X71176777Y-54671751D02*
X71671751Y-54176777D01*
X70823223Y-53328249D02*
X70328249Y-53823223D01*
X88715676Y-75098606D02*
X83594675Y-76001576D01*
X82530327Y-40019754D02*
X88715676Y-75098606D01*
X76957842Y-38362224D02*
X83594675Y-76001576D01*
X82530327Y-40019754D02*
X79969827Y-40471239D01*
X79969827Y-40471239D02*
X79518342Y-37910739D01*
X79518342Y-37910739D02*
X76957842Y-38362224D01*
X82309794Y-38769048D02*
X82078842Y-37459254D01*
X82078842Y-37459254D02*
X80769048Y-37690206D01*
X39500000Y-19320000D02*
X38500000Y-19320000D01*
X38500000Y-20680000D02*
X39500000Y-20680000D01*
X23883883Y-35468736D02*
X27504270Y-31848350D01*
X22031264Y-33616117D02*
X25651650Y-29995730D01*
X23883883Y-35468736D02*
X23661852Y-35246705D01*
X22253295Y-33838148D02*
X22031264Y-33616117D01*
X27504270Y-31848350D02*
X27282239Y-31626318D01*
X25873682Y-30217761D02*
X25651650Y-29995730D01*
X36119096Y-56000000D02*
X38000000Y-54119096D01*
X36161522Y-56042426D02*
X36119096Y-56000000D01*
X38042426Y-54161522D02*
X38000000Y-54119096D01*
X36161522Y-56042426D02*
X38042426Y-54161522D01*
X37059548Y-56940452D02*
X38000000Y-57880904D01*
X38000000Y-57880904D02*
X38940452Y-56940452D01*
X46119096Y-46000000D02*
X48000000Y-44119096D01*
X46161522Y-46042426D02*
X46119096Y-46000000D01*
X48042426Y-44161522D02*
X48000000Y-44119096D01*
X46161522Y-46042426D02*
X48042426Y-44161522D01*
X47059548Y-46940452D02*
X48000000Y-47880904D01*
X48000000Y-47880904D02*
X48940452Y-46940452D01*
X79390746Y-37028842D02*
X76771158Y-37490746D01*
X79380327Y-36969754D02*
X79390746Y-37028842D01*
X76760739Y-37431658D02*
X76771158Y-37490746D01*
X79380327Y-36969754D02*
X76760739Y-37431658D01*
X79159794Y-35719048D02*
X78928842Y-34409254D01*
X78928842Y-34409254D02*
X77619048Y-34640206D01*
X17696051Y-50100000D02*
X15900000Y-51896051D01*
X15900000Y-51896051D02*
X14012025Y-50008076D01*
X15808076Y-48212025D02*
X42840768Y-21179333D01*
X12124050Y-51896051D02*
X14012025Y-50008076D01*
X24880256Y-60876307D02*
X26768231Y-62764282D01*
X24880256Y-60876307D02*
X51821024Y-33935539D01*
X51821024Y-33935539D02*
X53709000Y-35823514D01*
X17696051Y-50100000D02*
X15808076Y-48212025D01*
X17696051Y-50100000D02*
X42840768Y-24955283D01*
X42840768Y-24955283D02*
X40952793Y-23067308D01*
D10*
X41044717Y-30343437D02*
X46432871Y-35731590D01*
X46432871Y-35731590D02*
X53617076Y-28547385D01*
X53617076Y-28547385D02*
X48228922Y-23159232D01*
X48228922Y-23159232D02*
X41044717Y-30343437D01*
D13*
X42840768Y-21179333D02*
X55596975Y-33935539D01*
X55596975Y-33935539D02*
X24880256Y-64652258D01*
X24880256Y-64652258D02*
X12124050Y-51896051D01*
D11*
X65174621Y-56216252D02*
X60224874Y-51266504D01*
X47496952Y-73893921D02*
X65174621Y-56216252D01*
X46082738Y-72479708D02*
X47496952Y-73893921D01*
X45375631Y-73186815D02*
X46082738Y-72479708D01*
X43254311Y-71065494D02*
X45375631Y-73186815D01*
X43961418Y-70358387D02*
X43254311Y-71065494D01*
X42547204Y-68944174D02*
X43961418Y-70358387D01*
X60224874Y-51266504D02*
X42547204Y-68944174D01*
X60224874Y-51266504D02*
X42547204Y-68944174D01*
X42547204Y-68944174D02*
X43961418Y-70358387D01*
X43961418Y-70358387D02*
X43254311Y-71065494D01*
X43254311Y-71065494D02*
X45375631Y-73186815D01*
X45375631Y-73186815D02*
X46082738Y-72479708D01*
X46082738Y-72479708D02*
X47496952Y-73893921D01*
X47496952Y-73893921D02*
X65174621Y-56216252D01*
X65174621Y-56216252D02*
X60224874Y-51266504D01*
X80377417Y-47377417D02*
X39365224Y-88389610D01*
X68710155Y-35710155D02*
X27697962Y-76722348D01*
X57750000Y-24750000D02*
X16737807Y-65762193D01*
X16737807Y-65762193D02*
X50325379Y-99349765D01*
X50325379Y-99349765D02*
X91337572Y-58337572D01*
X91337572Y-58337572D02*
X57750000Y-24750000D01*
X25166666Y-16607143D02*
X25214285Y-16654762D01*
X25357142Y-16702381D01*
X25452380Y-16702381D01*
X25595238Y-16654762D01*
X25690476Y-16559524D01*
X25738095Y-16464286D01*
X25785714Y-16273810D01*
X25785714Y-16130952D01*
X25738095Y-15940476D01*
X25690476Y-15845238D01*
X25595238Y-15750000D01*
X25452380Y-15702381D01*
X25357142Y-15702381D01*
X25214285Y-15750000D01*
X25166666Y-15797619D01*
X24214285Y-16702381D02*
X24785714Y-16702381D01*
X24500000Y-16702381D02*
X24500000Y-15702381D01*
X24595238Y-15845238D01*
X24690476Y-15940476D01*
X24785714Y-15988095D01*
X28976191Y-12952381D02*
X28880952Y-12952381D01*
X28785714Y-13000000D01*
X28738095Y-13047619D01*
X28690476Y-13142857D01*
X28642857Y-13333333D01*
X28642857Y-13571429D01*
X28690476Y-13761905D01*
X28738095Y-13857143D01*
X28785714Y-13904762D01*
X28880952Y-13952381D01*
X28976191Y-13952381D01*
X29071429Y-13904762D01*
X29119048Y-13857143D01*
X29166667Y-13761905D01*
X29214286Y-13571429D01*
X29214286Y-13333333D01*
X29166667Y-13142857D01*
X29119048Y-13047619D01*
X29071429Y-13000000D01*
X28976191Y-12952381D01*
X28214286Y-13857143D02*
X28166667Y-13904762D01*
X28214286Y-13952381D01*
X28261905Y-13904762D01*
X28214286Y-13857143D01*
X28214286Y-13952381D01*
X27214286Y-13952381D02*
X27785715Y-13952381D01*
X27500001Y-13952381D02*
X27500001Y-12952381D01*
X27595239Y-13095238D01*
X27690477Y-13190476D01*
X27785715Y-13238095D01*
X26357143Y-13285714D02*
X26357143Y-13952381D01*
X26785715Y-13285714D02*
X26785715Y-13809524D01*
X26738096Y-13904762D01*
X26642858Y-13952381D01*
X26500000Y-13952381D01*
X26404762Y-13904762D01*
X26357143Y-13857143D01*
X26023810Y-13285714D02*
X25642858Y-13285714D01*
X25880953Y-13952381D02*
X25880953Y-13095238D01*
X25833334Y-13000000D01*
X25738096Y-12952381D01*
X25642858Y-12952381D01*
X24261904Y-14333333D02*
X24309524Y-14285714D01*
X24404762Y-14142857D01*
X24452381Y-14047619D01*
X24500000Y-13904762D01*
X24547619Y-13666667D01*
X24547619Y-13476190D01*
X24500000Y-13238095D01*
X24452381Y-13095238D01*
X24404762Y-13000000D01*
X24309524Y-12857143D01*
X24261904Y-12809524D01*
X23738095Y-13952381D02*
X23833333Y-13904762D01*
X23880952Y-13857143D01*
X23928571Y-13761905D01*
X23928571Y-13476190D01*
X23880952Y-13380952D01*
X23833333Y-13333333D01*
X23738095Y-13285714D01*
X23595237Y-13285714D01*
X23499999Y-13333333D01*
X23452380Y-13380952D01*
X23404761Y-13476190D01*
X23404761Y-13761905D01*
X23452380Y-13857143D01*
X23499999Y-13904762D01*
X23595237Y-13952381D01*
X23738095Y-13952381D01*
X22976190Y-13285714D02*
X22976190Y-14285714D01*
X22976190Y-13333333D02*
X22880952Y-13285714D01*
X22690475Y-13285714D01*
X22595237Y-13333333D01*
X22547618Y-13380952D01*
X22499999Y-13476190D01*
X22499999Y-13761905D01*
X22547618Y-13857143D01*
X22595237Y-13904762D01*
X22690475Y-13952381D01*
X22880952Y-13952381D01*
X22976190Y-13904762D01*
X22214285Y-13285714D02*
X21833333Y-13285714D01*
X22071428Y-12952381D02*
X22071428Y-13809524D01*
X22023809Y-13904762D01*
X21928571Y-13952381D01*
X21833333Y-13952381D01*
X21499999Y-13857143D02*
X21452380Y-13904762D01*
X21499999Y-13952381D01*
X21547618Y-13904762D01*
X21499999Y-13857143D01*
X21499999Y-13952381D01*
X21119047Y-14333333D02*
X21071428Y-14285714D01*
X20976190Y-14142857D01*
X20928571Y-14047619D01*
X20880952Y-13904762D01*
X20833333Y-13666667D01*
X20833333Y-13476190D01*
X20880952Y-13238095D01*
X20928571Y-13095238D01*
X20976190Y-13000000D01*
X21071428Y-12857143D01*
X21119047Y-12809524D01*
X68481429Y-33254272D02*
X68481429Y-33321615D01*
X68548773Y-33456302D01*
X68616116Y-33523646D01*
X68750804Y-33590990D01*
X68885491Y-33590990D01*
X68986506Y-33557318D01*
X69154864Y-33456303D01*
X69255880Y-33355287D01*
X69356895Y-33186928D01*
X69390567Y-33085913D01*
X69390567Y-32951226D01*
X69323223Y-32816539D01*
X69255880Y-32749195D01*
X69121193Y-32681852D01*
X69053849Y-32681852D01*
X68784476Y-32412478D02*
X68784476Y-32345135D01*
X68750804Y-32244120D01*
X68582445Y-32075760D01*
X68481429Y-32042089D01*
X68414086Y-32042089D01*
X68313071Y-32075760D01*
X68245727Y-32143104D01*
X68178384Y-32277791D01*
X68178384Y-33085913D01*
X67740651Y-32648180D01*
X73759477Y-33363707D02*
X73692133Y-33296362D01*
X73591117Y-33262691D01*
X73523774Y-33262691D01*
X73422759Y-33296362D01*
X73254400Y-33397378D01*
X73086041Y-33565737D01*
X72985026Y-33734095D01*
X72951354Y-33835111D01*
X72951354Y-33902454D01*
X72985026Y-34003469D01*
X73052370Y-34070813D01*
X73153385Y-34104485D01*
X73220729Y-34104485D01*
X73321744Y-34070813D01*
X73490102Y-33969798D01*
X73658462Y-33801439D01*
X73759477Y-33633080D01*
X73793148Y-33532065D01*
X73793148Y-33464722D01*
X73759477Y-33363707D01*
X72580965Y-33464722D02*
X72513622Y-33464722D01*
X72513622Y-33532065D01*
X72580965Y-33532065D01*
X72580965Y-33464722D01*
X72513622Y-33532065D01*
X71806515Y-32824958D02*
X72210576Y-33229020D01*
X72008546Y-33026989D02*
X72715653Y-32319883D01*
X72681981Y-32488241D01*
X72681981Y-32622928D01*
X72715653Y-32723943D01*
X71671828Y-31747462D02*
X71200423Y-32218867D01*
X71974874Y-32050508D02*
X71604485Y-32420898D01*
X71503470Y-32454569D01*
X71402454Y-32420898D01*
X71301438Y-32319882D01*
X71267767Y-32218867D01*
X71267767Y-32151523D01*
X71436126Y-31511760D02*
X71166752Y-31242386D01*
X70863706Y-31882150D02*
X71469798Y-31276058D01*
X71503470Y-31175043D01*
X71469798Y-31074028D01*
X71402454Y-31006684D01*
X69449492Y-31006683D02*
X69516836Y-31006683D01*
X69685195Y-30973012D01*
X69786210Y-30939340D01*
X69920897Y-30871997D01*
X70122927Y-30737310D01*
X70257615Y-30602622D01*
X70392301Y-30400592D01*
X70459645Y-30265905D01*
X70493317Y-30164890D01*
X70526988Y-29996531D01*
X70526988Y-29929187D01*
X69348477Y-30366920D02*
X69449492Y-30400592D01*
X69516835Y-30400592D01*
X69617850Y-30366920D01*
X69819882Y-30164889D01*
X69853553Y-30063874D01*
X69853553Y-29996530D01*
X69819882Y-29895515D01*
X69718866Y-29794499D01*
X69617850Y-29760828D01*
X69550507Y-29760828D01*
X69449492Y-29794499D01*
X69247461Y-29996530D01*
X69213789Y-30097546D01*
X69213789Y-30164889D01*
X69247461Y-30265904D01*
X69348477Y-30366920D01*
X69281133Y-29356767D02*
X68574027Y-30063874D01*
X69247462Y-29390439D02*
X69213790Y-29289424D01*
X69079102Y-29154736D01*
X68978087Y-29121064D01*
X68910744Y-29121064D01*
X68809729Y-29154736D01*
X68607698Y-29356767D01*
X68574026Y-29457782D01*
X68574026Y-29525126D01*
X68607698Y-29626141D01*
X68742385Y-29760828D01*
X68843400Y-29794500D01*
X68742385Y-28818019D02*
X68473011Y-28548645D01*
X68877072Y-28481302D02*
X68270980Y-29087393D01*
X68169965Y-29121065D01*
X68068950Y-29087393D01*
X68001607Y-29020050D01*
X67833247Y-28717004D02*
X67765904Y-28717004D01*
X67765904Y-28784347D01*
X67833247Y-28784347D01*
X67833247Y-28717004D01*
X67765904Y-28784347D01*
X67227156Y-28784347D02*
X67227156Y-28717004D01*
X67260828Y-28548645D01*
X67294500Y-28447630D01*
X67361843Y-28312943D01*
X67496530Y-28110913D01*
X67631218Y-27976225D01*
X67833248Y-27841538D01*
X67967935Y-27774195D01*
X68068950Y-27740523D01*
X68237309Y-27706852D01*
X68304652Y-27706852D01*
X12166666Y-38607143D02*
X12214285Y-38654762D01*
X12357142Y-38702381D01*
X12452380Y-38702381D01*
X12595238Y-38654762D01*
X12690476Y-38559524D01*
X12738095Y-38464286D01*
X12785714Y-38273810D01*
X12785714Y-38130952D01*
X12738095Y-37940476D01*
X12690476Y-37845238D01*
X12595238Y-37750000D01*
X12452380Y-37702381D01*
X12357142Y-37702381D01*
X12214285Y-37750000D01*
X12166666Y-37797619D01*
X11833333Y-37702381D02*
X11214285Y-37702381D01*
X11547619Y-38083333D01*
X11404761Y-38083333D01*
X11309523Y-38130952D01*
X11261904Y-38178571D01*
X11214285Y-38273810D01*
X11214285Y-38511905D01*
X11261904Y-38607143D01*
X11309523Y-38654762D01*
X11404761Y-38702381D01*
X11690476Y-38702381D01*
X11785714Y-38654762D01*
X11833333Y-38607143D01*
X15976191Y-34952381D02*
X15880952Y-34952381D01*
X15785714Y-35000000D01*
X15738095Y-35047619D01*
X15690476Y-35142857D01*
X15642857Y-35333333D01*
X15642857Y-35571429D01*
X15690476Y-35761905D01*
X15738095Y-35857143D01*
X15785714Y-35904762D01*
X15880952Y-35952381D01*
X15976191Y-35952381D01*
X16071429Y-35904762D01*
X16119048Y-35857143D01*
X16166667Y-35761905D01*
X16214286Y-35571429D01*
X16214286Y-35333333D01*
X16166667Y-35142857D01*
X16119048Y-35047619D01*
X16071429Y-35000000D01*
X15976191Y-34952381D01*
X15214286Y-35857143D02*
X15166667Y-35904762D01*
X15214286Y-35952381D01*
X15261905Y-35904762D01*
X15214286Y-35857143D01*
X15214286Y-35952381D01*
X14214286Y-35952381D02*
X14785715Y-35952381D01*
X14500001Y-35952381D02*
X14500001Y-34952381D01*
X14595239Y-35095238D01*
X14690477Y-35190476D01*
X14785715Y-35238095D01*
X13357143Y-35285714D02*
X13357143Y-35952381D01*
X13785715Y-35285714D02*
X13785715Y-35809524D01*
X13738096Y-35904762D01*
X13642858Y-35952381D01*
X13500000Y-35952381D01*
X13404762Y-35904762D01*
X13357143Y-35857143D01*
X13023810Y-35285714D02*
X12642858Y-35285714D01*
X12880953Y-35952381D02*
X12880953Y-35095238D01*
X12833334Y-35000000D01*
X12738096Y-34952381D01*
X12642858Y-34952381D01*
X11261904Y-36333333D02*
X11309524Y-36285714D01*
X11404762Y-36142857D01*
X11452381Y-36047619D01*
X11500000Y-35904762D01*
X11547619Y-35666667D01*
X11547619Y-35476190D01*
X11500000Y-35238095D01*
X11452381Y-35095238D01*
X11404762Y-35000000D01*
X11309524Y-34857143D01*
X11261904Y-34809524D01*
X10738095Y-35952381D02*
X10833333Y-35904762D01*
X10880952Y-35857143D01*
X10928571Y-35761905D01*
X10928571Y-35476190D01*
X10880952Y-35380952D01*
X10833333Y-35333333D01*
X10738095Y-35285714D01*
X10595237Y-35285714D01*
X10499999Y-35333333D01*
X10452380Y-35380952D01*
X10404761Y-35476190D01*
X10404761Y-35761905D01*
X10452380Y-35857143D01*
X10499999Y-35904762D01*
X10595237Y-35952381D01*
X10738095Y-35952381D01*
X9976190Y-35285714D02*
X9976190Y-36285714D01*
X9976190Y-35333333D02*
X9880952Y-35285714D01*
X9690475Y-35285714D01*
X9595237Y-35333333D01*
X9547618Y-35380952D01*
X9499999Y-35476190D01*
X9499999Y-35761905D01*
X9547618Y-35857143D01*
X9595237Y-35904762D01*
X9690475Y-35952381D01*
X9880952Y-35952381D01*
X9976190Y-35904762D01*
X9214285Y-35285714D02*
X8833333Y-35285714D01*
X9071428Y-34952381D02*
X9071428Y-35809524D01*
X9023809Y-35904762D01*
X8928571Y-35952381D01*
X8833333Y-35952381D01*
X8499999Y-35857143D02*
X8452380Y-35904762D01*
X8499999Y-35952381D01*
X8547618Y-35904762D01*
X8499999Y-35857143D01*
X8499999Y-35952381D01*
X8119047Y-36333333D02*
X8071428Y-36285714D01*
X7976190Y-36142857D01*
X7928571Y-36047619D01*
X7880952Y-35904762D01*
X7833333Y-35666667D01*
X7833333Y-35476190D01*
X7880952Y-35238095D01*
X7928571Y-35095238D01*
X7976190Y-35000000D01*
X8071428Y-34857143D01*
X8119047Y-34809524D01*
X47254272Y-80018571D02*
X47321615Y-80018571D01*
X47456302Y-79951227D01*
X47523646Y-79883884D01*
X47590990Y-79749196D01*
X47590990Y-79614509D01*
X47557318Y-79513494D01*
X47456303Y-79345136D01*
X47355287Y-79244120D01*
X47186928Y-79143105D01*
X47085913Y-79109433D01*
X46951226Y-79109433D01*
X46816539Y-79176777D01*
X46749195Y-79244120D01*
X46681852Y-79378807D01*
X46681852Y-79446151D01*
X46244119Y-80220601D02*
X46715524Y-80692006D01*
X46143105Y-79782868D02*
X46816540Y-80119586D01*
X46378807Y-80557319D01*
X47363707Y-74740523D02*
X47296362Y-74807867D01*
X47262691Y-74908883D01*
X47262691Y-74976226D01*
X47296362Y-75077241D01*
X47397378Y-75245600D01*
X47565737Y-75413959D01*
X47734095Y-75514974D01*
X47835111Y-75548646D01*
X47902454Y-75548646D01*
X48003469Y-75514974D01*
X48070813Y-75447630D01*
X48104485Y-75346615D01*
X48104485Y-75279271D01*
X48070813Y-75178256D01*
X47969798Y-75009898D01*
X47801439Y-74841538D01*
X47633080Y-74740523D01*
X47532065Y-74706852D01*
X47464722Y-74706852D01*
X47363707Y-74740523D01*
X47464722Y-75919035D02*
X47464722Y-75986378D01*
X47532065Y-75986378D01*
X47532065Y-75919035D01*
X47464722Y-75919035D01*
X47532065Y-75986378D01*
X46824958Y-76693485D02*
X47229020Y-76289424D01*
X47026989Y-76491454D02*
X46319883Y-75784347D01*
X46488241Y-75818019D01*
X46622928Y-75818019D01*
X46723943Y-75784347D01*
X45747462Y-76828172D02*
X46218867Y-77299577D01*
X46050508Y-76525126D02*
X46420898Y-76895515D01*
X46454569Y-76996530D01*
X46420898Y-77097546D01*
X46319882Y-77198562D01*
X46218867Y-77232233D01*
X46151523Y-77232233D01*
X45511760Y-77063874D02*
X45242386Y-77333248D01*
X45882150Y-77636294D02*
X45276058Y-77030202D01*
X45175043Y-76996530D01*
X45074028Y-77030202D01*
X45006684Y-77097546D01*
X45006683Y-79050508D02*
X45006683Y-78983164D01*
X44973012Y-78814805D01*
X44939340Y-78713790D01*
X44871997Y-78579103D01*
X44737310Y-78377073D01*
X44602622Y-78242385D01*
X44400592Y-78107699D01*
X44265905Y-78040355D01*
X44164890Y-78006683D01*
X43996531Y-77973012D01*
X43929187Y-77973012D01*
X44366920Y-79151523D02*
X44400592Y-79050508D01*
X44400592Y-78983165D01*
X44366920Y-78882150D01*
X44164889Y-78680118D01*
X44063874Y-78646447D01*
X43996530Y-78646447D01*
X43895515Y-78680118D01*
X43794499Y-78781134D01*
X43760828Y-78882150D01*
X43760828Y-78949493D01*
X43794499Y-79050508D01*
X43996530Y-79252539D01*
X44097546Y-79286211D01*
X44164889Y-79286211D01*
X44265904Y-79252539D01*
X44366920Y-79151523D01*
X43356767Y-79218867D02*
X44063874Y-79925973D01*
X43390439Y-79252538D02*
X43289424Y-79286210D01*
X43154736Y-79420898D01*
X43121064Y-79521913D01*
X43121064Y-79589256D01*
X43154736Y-79690271D01*
X43356767Y-79892302D01*
X43457782Y-79925974D01*
X43525126Y-79925974D01*
X43626141Y-79892302D01*
X43760828Y-79757615D01*
X43794500Y-79656600D01*
X42818019Y-79757615D02*
X42548645Y-80026989D01*
X42481302Y-79622928D02*
X43087393Y-80229020D01*
X43121065Y-80330035D01*
X43087393Y-80431050D01*
X43020050Y-80498393D01*
X42717004Y-80666753D02*
X42717004Y-80734096D01*
X42784347Y-80734096D01*
X42784347Y-80666753D01*
X42717004Y-80666753D01*
X42784347Y-80734096D01*
X42784347Y-81272844D02*
X42717004Y-81272844D01*
X42548645Y-81239172D01*
X42447630Y-81205500D01*
X42312943Y-81138157D01*
X42110913Y-81003470D01*
X41976225Y-80868782D01*
X41841538Y-80666752D01*
X41774195Y-80532065D01*
X41740523Y-80431050D01*
X41706852Y-80262691D01*
X41706852Y-80195348D01*
X56254272Y-73018571D02*
X56321615Y-73018571D01*
X56456302Y-72951227D01*
X56523646Y-72883884D01*
X56590990Y-72749196D01*
X56590990Y-72614509D01*
X56557318Y-72513494D01*
X56456303Y-72345136D01*
X56355287Y-72244120D01*
X56186928Y-72143105D01*
X56085913Y-72109433D01*
X55951226Y-72109433D01*
X55816539Y-72176777D01*
X55749195Y-72244120D01*
X55681852Y-72378807D01*
X55681852Y-72446151D01*
X54974745Y-73018571D02*
X55311463Y-72681853D01*
X55681852Y-72984898D01*
X55614509Y-72984898D01*
X55513493Y-73018570D01*
X55345134Y-73186929D01*
X55311462Y-73287944D01*
X55311462Y-73355288D01*
X55345135Y-73456304D01*
X55513493Y-73624662D01*
X55614509Y-73658334D01*
X55681852Y-73658334D01*
X55782867Y-73624662D01*
X55951226Y-73456303D01*
X55984898Y-73355288D01*
X55984898Y-73287944D01*
X56363707Y-67740523D02*
X56296362Y-67807867D01*
X56262691Y-67908883D01*
X56262691Y-67976226D01*
X56296362Y-68077241D01*
X56397378Y-68245600D01*
X56565737Y-68413959D01*
X56734095Y-68514974D01*
X56835111Y-68548646D01*
X56902454Y-68548646D01*
X57003469Y-68514974D01*
X57070813Y-68447630D01*
X57104485Y-68346615D01*
X57104485Y-68279271D01*
X57070813Y-68178256D01*
X56969798Y-68009898D01*
X56801439Y-67841538D01*
X56633080Y-67740523D01*
X56532065Y-67706852D01*
X56464722Y-67706852D01*
X56363707Y-67740523D01*
X56464722Y-68919035D02*
X56464722Y-68986378D01*
X56532065Y-68986378D01*
X56532065Y-68919035D01*
X56464722Y-68919035D01*
X56532065Y-68986378D01*
X55824958Y-69693485D02*
X56229020Y-69289424D01*
X56026989Y-69491454D02*
X55319883Y-68784347D01*
X55488241Y-68818019D01*
X55622928Y-68818019D01*
X55723943Y-68784347D01*
X54747462Y-69828172D02*
X55218867Y-70299577D01*
X55050508Y-69525126D02*
X55420898Y-69895515D01*
X55454569Y-69996530D01*
X55420898Y-70097546D01*
X55319882Y-70198562D01*
X55218867Y-70232233D01*
X55151523Y-70232233D01*
X54511760Y-70063874D02*
X54242386Y-70333248D01*
X54882150Y-70636294D02*
X54276058Y-70030202D01*
X54175043Y-69996530D01*
X54074028Y-70030202D01*
X54006684Y-70097546D01*
X54006683Y-72050508D02*
X54006683Y-71983164D01*
X53973012Y-71814805D01*
X53939340Y-71713790D01*
X53871997Y-71579103D01*
X53737310Y-71377073D01*
X53602622Y-71242385D01*
X53400592Y-71107699D01*
X53265905Y-71040355D01*
X53164890Y-71006683D01*
X52996531Y-70973012D01*
X52929187Y-70973012D01*
X53366920Y-72151523D02*
X53400592Y-72050508D01*
X53400592Y-71983165D01*
X53366920Y-71882150D01*
X53164889Y-71680118D01*
X53063874Y-71646447D01*
X52996530Y-71646447D01*
X52895515Y-71680118D01*
X52794499Y-71781134D01*
X52760828Y-71882150D01*
X52760828Y-71949493D01*
X52794499Y-72050508D01*
X52996530Y-72252539D01*
X53097546Y-72286211D01*
X53164889Y-72286211D01*
X53265904Y-72252539D01*
X53366920Y-72151523D01*
X52356767Y-72218867D02*
X53063874Y-72925973D01*
X52390439Y-72252538D02*
X52289424Y-72286210D01*
X52154736Y-72420898D01*
X52121064Y-72521913D01*
X52121064Y-72589256D01*
X52154736Y-72690271D01*
X52356767Y-72892302D01*
X52457782Y-72925974D01*
X52525126Y-72925974D01*
X52626141Y-72892302D01*
X52760828Y-72757615D01*
X52794500Y-72656600D01*
X51818019Y-72757615D02*
X51548645Y-73026989D01*
X51481302Y-72622928D02*
X52087393Y-73229020D01*
X52121065Y-73330035D01*
X52087393Y-73431050D01*
X52020050Y-73498393D01*
X51717004Y-73666753D02*
X51717004Y-73734096D01*
X51784347Y-73734096D01*
X51784347Y-73666753D01*
X51717004Y-73666753D01*
X51784347Y-73734096D01*
X51784347Y-74272844D02*
X51717004Y-74272844D01*
X51548645Y-74239172D01*
X51447630Y-74205500D01*
X51312943Y-74138157D01*
X51110913Y-74003470D01*
X50976225Y-73868782D01*
X50841538Y-73666752D01*
X50774195Y-73532065D01*
X50740523Y-73431050D01*
X50706852Y-73262691D01*
X50706852Y-73195348D01*
X65254272Y-64018571D02*
X65321615Y-64018571D01*
X65456302Y-63951227D01*
X65523646Y-63883884D01*
X65590990Y-63749196D01*
X65590990Y-63614509D01*
X65557318Y-63513494D01*
X65456303Y-63345136D01*
X65355287Y-63244120D01*
X65186928Y-63143105D01*
X65085913Y-63109433D01*
X64951226Y-63109433D01*
X64816539Y-63176777D01*
X64749195Y-63244120D01*
X64681852Y-63378807D01*
X64681852Y-63446151D01*
X64008417Y-63984899D02*
X64143105Y-63850211D01*
X64244120Y-63816540D01*
X64311463Y-63816540D01*
X64479822Y-63850211D01*
X64648180Y-63951226D01*
X64917555Y-64220601D01*
X64951226Y-64321616D01*
X64951226Y-64388959D01*
X64917555Y-64489975D01*
X64782867Y-64624662D01*
X64681852Y-64658334D01*
X64614509Y-64658334D01*
X64513493Y-64624662D01*
X64345135Y-64456304D01*
X64311462Y-64355288D01*
X64311462Y-64287944D01*
X64345134Y-64186929D01*
X64479822Y-64052242D01*
X64580837Y-64018570D01*
X64648180Y-64018570D01*
X64749196Y-64052242D01*
X65363707Y-58740523D02*
X65296362Y-58807867D01*
X65262691Y-58908883D01*
X65262691Y-58976226D01*
X65296362Y-59077241D01*
X65397378Y-59245600D01*
X65565737Y-59413959D01*
X65734095Y-59514974D01*
X65835111Y-59548646D01*
X65902454Y-59548646D01*
X66003469Y-59514974D01*
X66070813Y-59447630D01*
X66104485Y-59346615D01*
X66104485Y-59279271D01*
X66070813Y-59178256D01*
X65969798Y-59009898D01*
X65801439Y-58841538D01*
X65633080Y-58740523D01*
X65532065Y-58706852D01*
X65464722Y-58706852D01*
X65363707Y-58740523D01*
X65464722Y-59919035D02*
X65464722Y-59986378D01*
X65532065Y-59986378D01*
X65532065Y-59919035D01*
X65464722Y-59919035D01*
X65532065Y-59986378D01*
X64824958Y-60693485D02*
X65229020Y-60289424D01*
X65026989Y-60491454D02*
X64319883Y-59784347D01*
X64488241Y-59818019D01*
X64622928Y-59818019D01*
X64723943Y-59784347D01*
X63747462Y-60828172D02*
X64218867Y-61299577D01*
X64050508Y-60525126D02*
X64420898Y-60895515D01*
X64454569Y-60996530D01*
X64420898Y-61097546D01*
X64319882Y-61198562D01*
X64218867Y-61232233D01*
X64151523Y-61232233D01*
X63511760Y-61063874D02*
X63242386Y-61333248D01*
X63882150Y-61636294D02*
X63276058Y-61030202D01*
X63175043Y-60996530D01*
X63074028Y-61030202D01*
X63006684Y-61097546D01*
X63006683Y-63050508D02*
X63006683Y-62983164D01*
X62973012Y-62814805D01*
X62939340Y-62713790D01*
X62871997Y-62579103D01*
X62737310Y-62377073D01*
X62602622Y-62242385D01*
X62400592Y-62107699D01*
X62265905Y-62040355D01*
X62164890Y-62006683D01*
X61996531Y-61973012D01*
X61929187Y-61973012D01*
X62366920Y-63151523D02*
X62400592Y-63050508D01*
X62400592Y-62983165D01*
X62366920Y-62882150D01*
X62164889Y-62680118D01*
X62063874Y-62646447D01*
X61996530Y-62646447D01*
X61895515Y-62680118D01*
X61794499Y-62781134D01*
X61760828Y-62882150D01*
X61760828Y-62949493D01*
X61794499Y-63050508D01*
X61996530Y-63252539D01*
X62097546Y-63286211D01*
X62164889Y-63286211D01*
X62265904Y-63252539D01*
X62366920Y-63151523D01*
X61356767Y-63218867D02*
X62063874Y-63925973D01*
X61390439Y-63252538D02*
X61289424Y-63286210D01*
X61154736Y-63420898D01*
X61121064Y-63521913D01*
X61121064Y-63589256D01*
X61154736Y-63690271D01*
X61356767Y-63892302D01*
X61457782Y-63925974D01*
X61525126Y-63925974D01*
X61626141Y-63892302D01*
X61760828Y-63757615D01*
X61794500Y-63656600D01*
X60818019Y-63757615D02*
X60548645Y-64026989D01*
X60481302Y-63622928D02*
X61087393Y-64229020D01*
X61121065Y-64330035D01*
X61087393Y-64431050D01*
X61020050Y-64498393D01*
X60717004Y-64666753D02*
X60717004Y-64734096D01*
X60784347Y-64734096D01*
X60784347Y-64666753D01*
X60717004Y-64666753D01*
X60784347Y-64734096D01*
X60784347Y-65272844D02*
X60717004Y-65272844D01*
X60548645Y-65239172D01*
X60447630Y-65205500D01*
X60312943Y-65138157D01*
X60110913Y-65003470D01*
X59976225Y-64868782D01*
X59841538Y-64666752D01*
X59774195Y-64532065D01*
X59740523Y-64431050D01*
X59706852Y-64262691D01*
X59706852Y-64195348D01*
X72254272Y-55018571D02*
X72321615Y-55018571D01*
X72456302Y-54951227D01*
X72523646Y-54883884D01*
X72590990Y-54749196D01*
X72590990Y-54614509D01*
X72557318Y-54513494D01*
X72456303Y-54345136D01*
X72355287Y-54244120D01*
X72186928Y-54143105D01*
X72085913Y-54109433D01*
X71951226Y-54109433D01*
X71816539Y-54176777D01*
X71749195Y-54244120D01*
X71681852Y-54378807D01*
X71681852Y-54446151D01*
X71378807Y-54614509D02*
X70907402Y-55085914D01*
X71917555Y-55489975D01*
X72363707Y-49740523D02*
X72296362Y-49807867D01*
X72262691Y-49908883D01*
X72262691Y-49976226D01*
X72296362Y-50077241D01*
X72397378Y-50245600D01*
X72565737Y-50413959D01*
X72734095Y-50514974D01*
X72835111Y-50548646D01*
X72902454Y-50548646D01*
X73003469Y-50514974D01*
X73070813Y-50447630D01*
X73104485Y-50346615D01*
X73104485Y-50279271D01*
X73070813Y-50178256D01*
X72969798Y-50009898D01*
X72801439Y-49841538D01*
X72633080Y-49740523D01*
X72532065Y-49706852D01*
X72464722Y-49706852D01*
X72363707Y-49740523D01*
X72464722Y-50919035D02*
X72464722Y-50986378D01*
X72532065Y-50986378D01*
X72532065Y-50919035D01*
X72464722Y-50919035D01*
X72532065Y-50986378D01*
X71824958Y-51693485D02*
X72229020Y-51289424D01*
X72026989Y-51491454D02*
X71319883Y-50784347D01*
X71488241Y-50818019D01*
X71622928Y-50818019D01*
X71723943Y-50784347D01*
X70747462Y-51828172D02*
X71218867Y-52299577D01*
X71050508Y-51525126D02*
X71420898Y-51895515D01*
X71454569Y-51996530D01*
X71420898Y-52097546D01*
X71319882Y-52198562D01*
X71218867Y-52232233D01*
X71151523Y-52232233D01*
X70511760Y-52063874D02*
X70242386Y-52333248D01*
X70882150Y-52636294D02*
X70276058Y-52030202D01*
X70175043Y-51996530D01*
X70074028Y-52030202D01*
X70006684Y-52097546D01*
X70006683Y-54050508D02*
X70006683Y-53983164D01*
X69973012Y-53814805D01*
X69939340Y-53713790D01*
X69871997Y-53579103D01*
X69737310Y-53377073D01*
X69602622Y-53242385D01*
X69400592Y-53107699D01*
X69265905Y-53040355D01*
X69164890Y-53006683D01*
X68996531Y-52973012D01*
X68929187Y-52973012D01*
X69366920Y-54151523D02*
X69400592Y-54050508D01*
X69400592Y-53983165D01*
X69366920Y-53882150D01*
X69164889Y-53680118D01*
X69063874Y-53646447D01*
X68996530Y-53646447D01*
X68895515Y-53680118D01*
X68794499Y-53781134D01*
X68760828Y-53882150D01*
X68760828Y-53949493D01*
X68794499Y-54050508D01*
X68996530Y-54252539D01*
X69097546Y-54286211D01*
X69164889Y-54286211D01*
X69265904Y-54252539D01*
X69366920Y-54151523D01*
X68356767Y-54218867D02*
X69063874Y-54925973D01*
X68390439Y-54252538D02*
X68289424Y-54286210D01*
X68154736Y-54420898D01*
X68121064Y-54521913D01*
X68121064Y-54589256D01*
X68154736Y-54690271D01*
X68356767Y-54892302D01*
X68457782Y-54925974D01*
X68525126Y-54925974D01*
X68626141Y-54892302D01*
X68760828Y-54757615D01*
X68794500Y-54656600D01*
X67818019Y-54757615D02*
X67548645Y-55026989D01*
X67481302Y-54622928D02*
X68087393Y-55229020D01*
X68121065Y-55330035D01*
X68087393Y-55431050D01*
X68020050Y-55498393D01*
X67717004Y-55666753D02*
X67717004Y-55734096D01*
X67784347Y-55734096D01*
X67784347Y-55666753D01*
X67717004Y-55666753D01*
X67784347Y-55734096D01*
X67784347Y-56272844D02*
X67717004Y-56272844D01*
X67548645Y-56239172D01*
X67447630Y-56205500D01*
X67312943Y-56138157D01*
X67110913Y-56003470D01*
X66976225Y-55868782D01*
X66841538Y-55666752D01*
X66774195Y-55532065D01*
X66740523Y-55431050D01*
X66706852Y-55262691D01*
X66706852Y-55195348D01*
X83733176Y-77402818D02*
X83857210Y-78106252D01*
X83928914Y-78238670D01*
X84039243Y-78315923D01*
X84188198Y-78338012D01*
X84281990Y-78321474D01*
X82922016Y-78561274D02*
X83484764Y-78462046D01*
X83203391Y-78511660D02*
X83029742Y-77526852D01*
X83148340Y-77651001D01*
X83258669Y-77728254D01*
X83360730Y-77758612D01*
X87136345Y-80201029D02*
X86962697Y-79216222D01*
X86728219Y-79257566D01*
X86595801Y-79329269D01*
X86518547Y-79439598D01*
X86488190Y-79541658D01*
X86474370Y-79737509D01*
X86499177Y-79878197D01*
X86579148Y-80057510D01*
X86642582Y-80143032D01*
X86752911Y-80220286D01*
X86901868Y-80242374D01*
X87136345Y-80201029D01*
X85768103Y-80393934D02*
X85870163Y-80424292D01*
X86057746Y-80391216D01*
X86143269Y-80327782D01*
X86173626Y-80225722D01*
X86107475Y-79850557D01*
X86044041Y-79765034D01*
X85941981Y-79734677D01*
X85754398Y-79767753D01*
X85668876Y-79831186D01*
X85638518Y-79933246D01*
X85655056Y-80027038D01*
X86140550Y-80038140D01*
X85285442Y-79850442D02*
X85166730Y-80548326D01*
X84816486Y-79933132D01*
X83806757Y-80788126D02*
X83633108Y-79803318D01*
X83699260Y-80178483D02*
X83597200Y-80148125D01*
X83409617Y-80181201D01*
X83324095Y-80244634D01*
X83285468Y-80299799D01*
X83255110Y-80401859D01*
X83304724Y-80683233D01*
X83368158Y-80768755D01*
X83423322Y-80807382D01*
X83525382Y-80837740D01*
X83712965Y-80804664D01*
X83798488Y-80741230D01*
X82915740Y-80945236D02*
X82799974Y-80288697D01*
X82833050Y-80476279D02*
X82769617Y-80390757D01*
X82714452Y-80352131D01*
X82612392Y-80321773D01*
X82518600Y-80338311D01*
X81922662Y-81071989D02*
X82024722Y-81102347D01*
X82212306Y-81069271D01*
X82297828Y-81005837D01*
X82328185Y-80903777D01*
X82262034Y-80528612D01*
X82198600Y-80443089D01*
X82096540Y-80412732D01*
X81908957Y-80445808D01*
X81823435Y-80509241D01*
X81793077Y-80611301D01*
X81809615Y-80705093D01*
X82295110Y-80716195D01*
X81039915Y-81275995D02*
X80948956Y-80760143D01*
X80979314Y-80658082D01*
X81064836Y-80594649D01*
X81252419Y-80561573D01*
X81354479Y-80591931D01*
X81031646Y-81229099D02*
X81133706Y-81259457D01*
X81368185Y-81218112D01*
X81453707Y-81154678D01*
X81484064Y-81052618D01*
X81467526Y-80958827D01*
X81404093Y-80873305D01*
X81302033Y-80842947D01*
X81067554Y-80884292D01*
X80965494Y-80853935D01*
X80570959Y-81358684D02*
X80397311Y-80373876D01*
X80411016Y-81000058D02*
X80195794Y-81424836D01*
X80080028Y-80768297D02*
X80521345Y-81077311D01*
X79633047Y-81524063D02*
X79718569Y-81460630D01*
X79757196Y-81405465D01*
X79787553Y-81303405D01*
X79737939Y-81022031D01*
X79674506Y-80936509D01*
X79619341Y-80897882D01*
X79517281Y-80867525D01*
X79376594Y-80892332D01*
X79291071Y-80955765D01*
X79252445Y-81010930D01*
X79222087Y-81112990D01*
X79271701Y-81394364D01*
X79335135Y-81479886D01*
X79390299Y-81518513D01*
X79492359Y-81548870D01*
X79633047Y-81524063D01*
X78344890Y-81074249D02*
X78460656Y-81730788D01*
X78766951Y-80999828D02*
X78857910Y-81515680D01*
X78827552Y-81617740D01*
X78742030Y-81681174D01*
X78601343Y-81705981D01*
X78499282Y-81675623D01*
X78444118Y-81636996D01*
X78016621Y-81132131D02*
X77641457Y-81198283D01*
X77818052Y-80828669D02*
X77966893Y-81672790D01*
X77936536Y-81774851D01*
X77851014Y-81838284D01*
X77757222Y-81854822D01*
X76463400Y-82469787D02*
X76502027Y-82414622D01*
X76571012Y-82257397D01*
X76601369Y-82155337D01*
X76623458Y-82006382D01*
X76629009Y-81763635D01*
X76595933Y-81576052D01*
X76507693Y-81349843D01*
X76435990Y-81217425D01*
X76372557Y-81131903D01*
X76253959Y-81007754D01*
X76198793Y-80969128D01*
X75881397Y-82185581D02*
X75966919Y-82122147D01*
X76005546Y-82066983D01*
X76035903Y-81964922D01*
X75986290Y-81683548D01*
X75922856Y-81598026D01*
X75867692Y-81559399D01*
X75765632Y-81529042D01*
X75624944Y-81553849D01*
X75539422Y-81617282D01*
X75500795Y-81672447D01*
X75470437Y-81774507D01*
X75520051Y-82055881D01*
X75583485Y-82141403D01*
X75638649Y-82180030D01*
X75740709Y-82210388D01*
X75881397Y-82185581D01*
X75015302Y-81661345D02*
X75188950Y-82646153D01*
X75023571Y-81708241D02*
X74921510Y-81677883D01*
X74733927Y-81710959D01*
X74648405Y-81774392D01*
X74609778Y-81829557D01*
X74579421Y-81931617D01*
X74629035Y-82212991D01*
X74692468Y-82298514D01*
X74747633Y-82337140D01*
X74849693Y-82367498D01*
X75037276Y-82334422D01*
X75122798Y-82270988D01*
X74264972Y-81793649D02*
X73889807Y-81859800D01*
X74066402Y-81490186D02*
X74215244Y-82334308D01*
X74184886Y-82436368D01*
X74099364Y-82499801D01*
X74005573Y-82516339D01*
X73660765Y-82480431D02*
X73622138Y-82535595D01*
X73677303Y-82574222D01*
X73715929Y-82519057D01*
X73660765Y-82480431D01*
X73677303Y-82574222D01*
X73368290Y-83015538D02*
X73313125Y-82976911D01*
X73194527Y-82852763D01*
X73131094Y-82767240D01*
X73059392Y-82634823D01*
X72971151Y-82408614D01*
X72938075Y-82221031D01*
X72943626Y-81978284D01*
X72965715Y-81829328D01*
X72996072Y-81727268D01*
X73065057Y-81570044D01*
X73103683Y-81514879D01*
X39166666Y-21902381D02*
X39500000Y-21426190D01*
X39738095Y-21902381D02*
X39738095Y-20902381D01*
X39357142Y-20902381D01*
X39261904Y-20950000D01*
X39214285Y-20997619D01*
X39166666Y-21092857D01*
X39166666Y-21235714D01*
X39214285Y-21330952D01*
X39261904Y-21378571D01*
X39357142Y-21426190D01*
X39738095Y-21426190D01*
X38214285Y-21902381D02*
X38785714Y-21902381D01*
X38500000Y-21902381D02*
X38500000Y-20902381D01*
X38595238Y-21045238D01*
X38690476Y-21140476D01*
X38785714Y-21188095D01*
X39595238Y-18902381D02*
X40166667Y-18902381D01*
X39880953Y-18902381D02*
X39880953Y-17902381D01*
X39976191Y-18045238D01*
X40071429Y-18140476D01*
X40166667Y-18188095D01*
X38976191Y-17902381D02*
X38880952Y-17902381D01*
X38785714Y-17950000D01*
X38738095Y-17997619D01*
X38690476Y-18092857D01*
X38642857Y-18283333D01*
X38642857Y-18521429D01*
X38690476Y-18711905D01*
X38738095Y-18807143D01*
X38785714Y-18854762D01*
X38880952Y-18902381D01*
X38976191Y-18902381D01*
X39071429Y-18854762D01*
X39119048Y-18807143D01*
X39166667Y-18711905D01*
X39214286Y-18521429D01*
X39214286Y-18283333D01*
X39166667Y-18092857D01*
X39119048Y-17997619D01*
X39071429Y-17950000D01*
X38976191Y-17902381D01*
X38214286Y-18902381D02*
X38214286Y-17902381D01*
X38119048Y-18521429D02*
X37833333Y-18902381D01*
X37833333Y-18235714D02*
X38214286Y-18616667D01*
X56229019Y-82343401D02*
X56161675Y-82478088D01*
X55993316Y-82646447D01*
X55892301Y-82680119D01*
X55824957Y-82680119D01*
X55723942Y-82646447D01*
X55656599Y-82579104D01*
X55622927Y-82478089D01*
X55622927Y-82410745D01*
X55656598Y-82309729D01*
X55757614Y-82141370D01*
X55791286Y-82040355D01*
X55791286Y-81973012D01*
X55757614Y-81871996D01*
X55690271Y-81804653D01*
X55589255Y-81770981D01*
X55521912Y-81770981D01*
X55420897Y-81804653D01*
X55252538Y-81973012D01*
X55185194Y-82107699D01*
X54915820Y-82309729D02*
X55454569Y-83185195D01*
X54814804Y-82814806D01*
X55185194Y-83454569D01*
X54309729Y-82915821D01*
X54377072Y-84262691D02*
X54781133Y-83858630D01*
X54579103Y-84060660D02*
X53871996Y-83353553D01*
X54040355Y-83387225D01*
X54175042Y-83387225D01*
X54276057Y-83353553D01*
X65229020Y-78843401D02*
X65161676Y-78978088D01*
X64993317Y-79146447D01*
X64892302Y-79180119D01*
X64824958Y-79180119D01*
X64723943Y-79146447D01*
X64656600Y-79079104D01*
X64622928Y-78978089D01*
X64622928Y-78910745D01*
X64656599Y-78809729D01*
X64757615Y-78641370D01*
X64791287Y-78540355D01*
X64791287Y-78473012D01*
X64757615Y-78371996D01*
X64690272Y-78304653D01*
X64589256Y-78270981D01*
X64521913Y-78270981D01*
X64420898Y-78304653D01*
X64252539Y-78473012D01*
X64185195Y-78607699D01*
X63915821Y-78809729D02*
X64454570Y-79685195D01*
X63814805Y-79314806D01*
X64185195Y-79954569D01*
X63309730Y-79415821D01*
X63141371Y-79718867D02*
X63074028Y-79718867D01*
X62973013Y-79752538D01*
X62804653Y-79920898D01*
X62770982Y-80021913D01*
X62770982Y-80089256D01*
X62804653Y-80190271D01*
X62871997Y-80257615D01*
X63006684Y-80324958D01*
X63814806Y-80324958D01*
X63377073Y-80762691D01*
X72229019Y-71343401D02*
X72161675Y-71478088D01*
X71993316Y-71646447D01*
X71892301Y-71680119D01*
X71824957Y-71680119D01*
X71723942Y-71646447D01*
X71656599Y-71579104D01*
X71622927Y-71478089D01*
X71622927Y-71410745D01*
X71656598Y-71309729D01*
X71757614Y-71141370D01*
X71791286Y-71040355D01*
X71791286Y-70973012D01*
X71757614Y-70871996D01*
X71690271Y-70804653D01*
X71589255Y-70770981D01*
X71521912Y-70770981D01*
X71420897Y-70804653D01*
X71252538Y-70973012D01*
X71185194Y-71107699D01*
X70915820Y-71309729D02*
X71454569Y-72185195D01*
X70814804Y-71814806D01*
X71185194Y-72454569D01*
X70309729Y-71915821D01*
X70107698Y-72117851D02*
X69669965Y-72555584D01*
X70175042Y-72589255D01*
X70074026Y-72690271D01*
X70040354Y-72791286D01*
X70040354Y-72858630D01*
X70074027Y-72959646D01*
X70242385Y-73128004D01*
X70343400Y-73161676D01*
X70410744Y-73161676D01*
X70511759Y-73128004D01*
X70713790Y-72925973D01*
X70747462Y-72824958D01*
X70747462Y-72757615D01*
X76229019Y-62343401D02*
X76161675Y-62478088D01*
X75993316Y-62646447D01*
X75892301Y-62680119D01*
X75824957Y-62680119D01*
X75723942Y-62646447D01*
X75656599Y-62579104D01*
X75622927Y-62478089D01*
X75622927Y-62410745D01*
X75656598Y-62309729D01*
X75757614Y-62141370D01*
X75791286Y-62040355D01*
X75791286Y-61973012D01*
X75757614Y-61871996D01*
X75690271Y-61804653D01*
X75589255Y-61770981D01*
X75521912Y-61770981D01*
X75420897Y-61804653D01*
X75252538Y-61973012D01*
X75185194Y-62107699D01*
X74915820Y-62309729D02*
X75454569Y-63185195D01*
X74814804Y-62814806D01*
X75185194Y-63454569D01*
X74309729Y-62915821D01*
X73973011Y-63723943D02*
X74444416Y-64195348D01*
X73871996Y-63286210D02*
X74545431Y-63622928D01*
X74107698Y-64060661D01*
X26948349Y-34677114D02*
X27015692Y-34677114D01*
X27150379Y-34609770D01*
X27217723Y-34542427D01*
X27285067Y-34407739D01*
X27285067Y-34273052D01*
X27251395Y-34172037D01*
X27150380Y-34003679D01*
X27049364Y-33902663D01*
X26881005Y-33801648D01*
X26779990Y-33767976D01*
X26645303Y-33767976D01*
X26510616Y-33835320D01*
X26443272Y-33902663D01*
X26375929Y-34037350D01*
X26375929Y-34104694D01*
X26207570Y-34744456D02*
X26241242Y-34643441D01*
X26241242Y-34576098D01*
X26207570Y-34475083D01*
X26173899Y-34441411D01*
X26072884Y-34407739D01*
X26005540Y-34407739D01*
X25904525Y-34441411D01*
X25769837Y-34576098D01*
X25736166Y-34677114D01*
X25736166Y-34744457D01*
X25769837Y-34845472D01*
X25803509Y-34879144D01*
X25904524Y-34912816D01*
X25971868Y-34912816D01*
X26072883Y-34879144D01*
X26207570Y-34744456D01*
X26308586Y-34710785D01*
X26375929Y-34710785D01*
X26476945Y-34744457D01*
X26611632Y-34879144D01*
X26645303Y-34980159D01*
X26645303Y-35047502D01*
X26611632Y-35148518D01*
X26476944Y-35283205D01*
X26375929Y-35316877D01*
X26308586Y-35316877D01*
X26207570Y-35283205D01*
X26072884Y-35148518D01*
X26039211Y-35047502D01*
X26039211Y-34980159D01*
X26072883Y-34879144D01*
X26021704Y-28497673D02*
X26425765Y-28093612D01*
X26223735Y-28295642D02*
X25516628Y-27588536D01*
X25684987Y-27622207D01*
X25819674Y-27622207D01*
X25920689Y-27588536D01*
X24876865Y-28228299D02*
X24809521Y-28295643D01*
X24775849Y-28396658D01*
X24775849Y-28464002D01*
X24809521Y-28565017D01*
X24910536Y-28733376D01*
X25078895Y-28901735D01*
X25247254Y-29002750D01*
X25348269Y-29036422D01*
X25415612Y-29036422D01*
X25516627Y-29002750D01*
X25583972Y-28935406D01*
X25617643Y-28834391D01*
X25617643Y-28767047D01*
X25583972Y-28666032D01*
X25482956Y-28497673D01*
X25314597Y-28329314D01*
X25146238Y-28228299D01*
X25045223Y-28194627D01*
X24977880Y-28194627D01*
X24876865Y-28228299D01*
X24203430Y-28901734D02*
X24136086Y-28969078D01*
X24102414Y-29070093D01*
X24102414Y-29137437D01*
X24136086Y-29238452D01*
X24237101Y-29406811D01*
X24405460Y-29575170D01*
X24573819Y-29676185D01*
X24674834Y-29709857D01*
X24742177Y-29709857D01*
X24843192Y-29676185D01*
X24910536Y-29608841D01*
X24944208Y-29507826D01*
X24944208Y-29440482D01*
X24910536Y-29339467D01*
X24809521Y-29171109D01*
X24641162Y-29002749D01*
X24472803Y-28901734D01*
X24371788Y-28868062D01*
X24304445Y-28868062D01*
X24203430Y-28901734D01*
X23597337Y-29979230D02*
X24068742Y-30450635D01*
X23900384Y-29676184D02*
X24270773Y-30046574D01*
X24304445Y-30147589D01*
X24270773Y-30248604D01*
X24169757Y-30349620D01*
X24068742Y-30383292D01*
X24001399Y-30383292D01*
X23361635Y-30214933D02*
X23092262Y-30484306D01*
X23732025Y-30787352D02*
X23125933Y-30181261D01*
X23024918Y-30147589D01*
X22923903Y-30181261D01*
X22856560Y-30248604D01*
X22856558Y-32201567D02*
X22856559Y-32134223D01*
X22822887Y-31965864D01*
X22789215Y-31864849D01*
X22721872Y-31730162D01*
X22587185Y-31528132D01*
X22452498Y-31393444D01*
X22250467Y-31258757D01*
X22115780Y-31191414D01*
X22014765Y-31157742D01*
X21846407Y-31124070D01*
X21779062Y-31124071D01*
X22216796Y-32302582D02*
X22250467Y-32201567D01*
X22250467Y-32134223D01*
X22216796Y-32033208D01*
X22014764Y-31831177D01*
X21913749Y-31797505D01*
X21846406Y-31797505D01*
X21745391Y-31831177D01*
X21644375Y-31932193D01*
X21610703Y-32033208D01*
X21610703Y-32100552D01*
X21644375Y-32201567D01*
X21846406Y-32403598D01*
X21947421Y-32437269D01*
X22014764Y-32437269D01*
X22115780Y-32403598D01*
X22216796Y-32302582D01*
X21206643Y-32369925D02*
X21913749Y-33077032D01*
X21240314Y-32403597D02*
X21139299Y-32437269D01*
X21004612Y-32571956D01*
X20970940Y-32672971D01*
X20970940Y-32740315D01*
X21004612Y-32841330D01*
X21206643Y-33043361D01*
X21307658Y-33077033D01*
X21375001Y-33077033D01*
X21476016Y-33043361D01*
X21610704Y-32908673D01*
X21644376Y-32807658D01*
X20667894Y-32908673D02*
X20398521Y-33178047D01*
X20331177Y-32773987D02*
X20937269Y-33380078D01*
X20970941Y-33481093D01*
X20937269Y-33582109D01*
X20869925Y-33649452D01*
X20566879Y-33817811D02*
X20566879Y-33885155D01*
X20634223Y-33885155D01*
X20634223Y-33817811D01*
X20566879Y-33817811D01*
X20634223Y-33885155D01*
X20634223Y-34423902D02*
X20566879Y-34423902D01*
X20398521Y-34390230D01*
X20297505Y-34356559D01*
X20162819Y-34289215D01*
X19960788Y-34154528D01*
X19826101Y-34019841D01*
X19691414Y-33817811D01*
X19624070Y-33683124D01*
X19590399Y-33582109D01*
X19556727Y-33413750D01*
X19556727Y-33346407D01*
X39348477Y-53877073D02*
X39853553Y-54382149D01*
X39988241Y-54449492D01*
X40122928Y-54449492D01*
X40257615Y-54382149D01*
X40324958Y-54314805D01*
X39112775Y-54247462D02*
X39045431Y-54247462D01*
X38944416Y-54281133D01*
X38776057Y-54449493D01*
X38742385Y-54550508D01*
X38742385Y-54617851D01*
X38776057Y-54718867D01*
X38843400Y-54786210D01*
X38978087Y-54853553D01*
X39786210Y-54853553D01*
X39348477Y-55291286D01*
X42782996Y-53442553D02*
X43254401Y-54385362D01*
X42311592Y-53913958D01*
X42311592Y-55193485D02*
X42378935Y-55193485D01*
X42513622Y-55126141D01*
X42580965Y-55058798D01*
X42648310Y-54924110D01*
X42648310Y-54789424D01*
X42614638Y-54688408D01*
X42513623Y-54520050D01*
X42412607Y-54419034D01*
X42244248Y-54318019D01*
X42143233Y-54284347D01*
X42008546Y-54284347D01*
X41873859Y-54351691D01*
X41806515Y-54419035D01*
X41739172Y-54553722D01*
X41739172Y-54621065D01*
X41604485Y-55900592D02*
X41671828Y-55900592D01*
X41806515Y-55833248D01*
X41873859Y-55765905D01*
X41941203Y-55631217D01*
X41941203Y-55496530D01*
X41907531Y-55395515D01*
X41806516Y-55227157D01*
X41705500Y-55126141D01*
X41537141Y-55025126D01*
X41436126Y-54991454D01*
X41301439Y-54991454D01*
X41166752Y-55058798D01*
X41099408Y-55126141D01*
X41032065Y-55260828D01*
X41032065Y-55328172D01*
X40897377Y-57281133D02*
X40897378Y-57213789D01*
X40863706Y-57045431D01*
X40830035Y-56944416D01*
X40762691Y-56809729D01*
X40628004Y-56607698D01*
X40493317Y-56473011D01*
X40291286Y-56338324D01*
X40156600Y-56270981D01*
X40055584Y-56237309D01*
X39887226Y-56203637D01*
X39819882Y-56203638D01*
X40358630Y-57281133D02*
X39887225Y-56809729D01*
X39954569Y-56877072D02*
X39887225Y-56877072D01*
X39786210Y-56910744D01*
X39685194Y-57011760D01*
X39651522Y-57112775D01*
X39685194Y-57213790D01*
X40055584Y-57584180D01*
X39685194Y-57213790D02*
X39584179Y-57180118D01*
X39483164Y-57213790D01*
X39382149Y-57314805D01*
X39348477Y-57415820D01*
X39382149Y-57516836D01*
X39752538Y-57887225D01*
X39112775Y-58526988D02*
X38742385Y-58156599D01*
X38708714Y-58055584D01*
X38742385Y-57954569D01*
X38877073Y-57819881D01*
X38978088Y-57786209D01*
X39079103Y-58493317D02*
X39180118Y-58459645D01*
X39348478Y-58291286D01*
X39382149Y-58190271D01*
X39348478Y-58089255D01*
X39281134Y-58021912D01*
X39180119Y-57988240D01*
X39079104Y-58021912D01*
X38910745Y-58190271D01*
X38809729Y-58223943D01*
X38843401Y-58796362D02*
X38001607Y-58695347D01*
X38371996Y-58324957D02*
X38473012Y-59166752D01*
X36621065Y-59604485D02*
X36957783Y-59267767D01*
X37328172Y-59570812D01*
X37260828Y-59570812D01*
X37159813Y-59604484D01*
X36991454Y-59772843D01*
X36957782Y-59873859D01*
X36957782Y-59941202D01*
X36991455Y-60042218D01*
X37159813Y-60210576D01*
X37260828Y-60244248D01*
X37328172Y-60244248D01*
X37429187Y-60210576D01*
X37597546Y-60042217D01*
X37631218Y-59941202D01*
X37631218Y-59873859D01*
X36385363Y-59840187D02*
X36856768Y-60782996D01*
X35913958Y-60311592D01*
X36722080Y-61456431D02*
X36654737Y-61456431D01*
X36486378Y-61422759D01*
X36385363Y-61389087D01*
X36250676Y-61321744D01*
X36048646Y-61187057D01*
X35913958Y-61052369D01*
X35779271Y-60850339D01*
X35711928Y-60715652D01*
X35678256Y-60614637D01*
X35644584Y-60446278D01*
X35644584Y-60378935D01*
X49348477Y-43877073D02*
X49853553Y-44382149D01*
X49988241Y-44449492D01*
X50122928Y-44449492D01*
X50257615Y-44382149D01*
X50324958Y-44314805D01*
X49079103Y-44146447D02*
X48641370Y-44584180D01*
X49146447Y-44617851D01*
X49045431Y-44718867D01*
X49011759Y-44819882D01*
X49011759Y-44887225D01*
X49045431Y-44988241D01*
X49213790Y-45156600D01*
X49314805Y-45190271D01*
X49382149Y-45190271D01*
X49483164Y-45156600D01*
X49685195Y-44954569D01*
X49718867Y-44853553D01*
X49718867Y-44786210D01*
X49685194Y-46607699D02*
X49718866Y-46506684D01*
X49819881Y-46405669D01*
X49954569Y-46338325D01*
X50089255Y-46338325D01*
X50190271Y-46371996D01*
X50358629Y-46473012D01*
X50459645Y-46574027D01*
X50560660Y-46742386D01*
X50594332Y-46843401D01*
X50594332Y-46978088D01*
X50526988Y-47112776D01*
X50459644Y-47180119D01*
X50324957Y-47247462D01*
X50257614Y-47247462D01*
X50021912Y-47011760D01*
X50156599Y-46877074D01*
X50021912Y-47617851D02*
X49314805Y-46910745D01*
X49617851Y-48021913D01*
X48910744Y-47314806D01*
X49281133Y-48358630D02*
X48574027Y-47651523D01*
X48405668Y-47819882D01*
X48338324Y-47954569D01*
X48338324Y-48089256D01*
X48371996Y-48190271D01*
X48473011Y-48358630D01*
X48574027Y-48459646D01*
X48742385Y-48560661D01*
X48843400Y-48594333D01*
X48978087Y-48594333D01*
X49112775Y-48526988D01*
X49281133Y-48358630D01*
X40498904Y-69269118D02*
X39993828Y-69774194D01*
X39993828Y-69168103D02*
X41104996Y-69875209D01*
X40364217Y-70009897D02*
X40869294Y-69504820D01*
X40869293Y-70110912D02*
X39758126Y-69403805D01*
X39623438Y-70346614D02*
X39556095Y-70481301D01*
X39556095Y-70548645D01*
X39589767Y-70649660D01*
X39690782Y-70750675D01*
X39791797Y-70784347D01*
X39859141Y-70784347D01*
X39960156Y-70750675D01*
X40229530Y-70481301D01*
X39522424Y-69774194D01*
X39286721Y-70009897D01*
X39253049Y-70110912D01*
X39253049Y-70178256D01*
X39286721Y-70279271D01*
X39354064Y-70346614D01*
X39455079Y-70380286D01*
X39522423Y-70380286D01*
X39623438Y-70346614D01*
X39859141Y-70110911D01*
X39219377Y-71491454D02*
X38848988Y-71121064D01*
X38815316Y-71020049D01*
X38848988Y-70919034D01*
X38983675Y-70784346D01*
X39084691Y-70750675D01*
X39185706Y-71457782D02*
X39286721Y-71424110D01*
X39455080Y-71255751D01*
X39488752Y-71154736D01*
X39455080Y-71053721D01*
X39387737Y-70986377D01*
X39286722Y-70952706D01*
X39185706Y-70986377D01*
X39017347Y-71154737D01*
X38916332Y-71188408D01*
X38579614Y-72131217D02*
X37872507Y-71424110D01*
X38545942Y-72097546D02*
X38646958Y-72063874D01*
X38781645Y-71929186D01*
X38815317Y-71828171D01*
X38815317Y-71760828D01*
X38781645Y-71659813D01*
X38579614Y-71457782D01*
X38478599Y-71424110D01*
X38411255Y-71424110D01*
X38310240Y-71457782D01*
X38175553Y-71592469D01*
X38141881Y-71693484D01*
X37468446Y-72299576D02*
X38040866Y-72871996D01*
X38141881Y-72905667D01*
X38209224Y-72905667D01*
X38310240Y-72871995D01*
X38411255Y-72770980D01*
X38444927Y-72669965D01*
X37906179Y-72737309D02*
X38007194Y-72703637D01*
X38141882Y-72568950D01*
X38175553Y-72467934D01*
X38175553Y-72400591D01*
X38141882Y-72299576D01*
X37939851Y-72097545D01*
X37838836Y-72063873D01*
X37771492Y-72063873D01*
X37670477Y-72097545D01*
X37535789Y-72232232D01*
X37502118Y-72333248D01*
X37300087Y-73343401D02*
X37401103Y-73309729D01*
X37535790Y-73175041D01*
X37569462Y-73074026D01*
X37535790Y-72973011D01*
X37266416Y-72703636D01*
X37165401Y-72669965D01*
X37064385Y-72703636D01*
X36929698Y-72838324D01*
X36896026Y-72939339D01*
X36929698Y-73040354D01*
X36997042Y-73107699D01*
X37401103Y-72838324D01*
X36896027Y-73814805D02*
X36929698Y-73713789D01*
X36896027Y-73612774D01*
X36289935Y-73006683D01*
X36626652Y-74084179D02*
X36155248Y-73612774D01*
X35919546Y-73377072D02*
X35986889Y-73377072D01*
X35986889Y-73444416D01*
X35919546Y-73444416D01*
X35919546Y-73377072D01*
X35986889Y-73444416D01*
X35919546Y-73848476D02*
X35650172Y-74117850D01*
X36289935Y-74420896D02*
X35683844Y-73814805D01*
X35582828Y-73781133D01*
X35481813Y-73814805D01*
X35414470Y-73882148D01*
X35582828Y-75060660D02*
X35683843Y-75026989D01*
X35818530Y-74892301D01*
X35852202Y-74791286D01*
X35818530Y-74690271D01*
X35549156Y-74420896D01*
X35448141Y-74387224D01*
X35347126Y-74420896D01*
X35212438Y-74555584D01*
X35178766Y-74656599D01*
X35212438Y-74757614D01*
X35279782Y-74824958D01*
X35683844Y-74555584D01*
X34741034Y-75902454D02*
X34673691Y-76037141D01*
X34505331Y-76205500D01*
X34404316Y-76239172D01*
X34336973Y-76239172D01*
X34235958Y-76205500D01*
X34168614Y-76138157D01*
X34134942Y-76037141D01*
X34134942Y-75969798D01*
X34168613Y-75868782D01*
X34269629Y-75700423D01*
X34303301Y-75599408D01*
X34303301Y-75532064D01*
X34269629Y-75431049D01*
X34202286Y-75363706D01*
X34101271Y-75330034D01*
X34033927Y-75330034D01*
X33932912Y-75363706D01*
X33764553Y-75532065D01*
X33697209Y-75666752D01*
X34067599Y-76643232D02*
X33360492Y-75936126D01*
X33764553Y-76946279D02*
X33394163Y-76575889D01*
X33360491Y-76474874D01*
X33394163Y-76373859D01*
X33495179Y-76272843D01*
X33596194Y-76239171D01*
X33663538Y-76239171D01*
X33427836Y-77282996D02*
X32956431Y-76811591D01*
X32720729Y-76575889D02*
X32788072Y-76575889D01*
X32788072Y-76643232D01*
X32720729Y-76643232D01*
X32720729Y-76575889D01*
X32788072Y-76643232D01*
X32720729Y-77047293D02*
X32451355Y-77316667D01*
X32384012Y-76912606D02*
X32990103Y-77518698D01*
X33023775Y-77619713D01*
X32990103Y-77720728D01*
X32922760Y-77788072D01*
X32316667Y-77451354D02*
X32047294Y-77720728D01*
X31979950Y-77316667D02*
X32586042Y-77922759D01*
X32619714Y-78023774D01*
X32586042Y-78124789D01*
X32518698Y-78192133D01*
X31878934Y-77889087D02*
X32181981Y-78528851D01*
X31542217Y-78225805D02*
X32181981Y-78528851D01*
X32417683Y-78629866D01*
X32485026Y-78629866D01*
X32586041Y-78596194D01*
X31037141Y-79269630D02*
X30700423Y-79606348D01*
X31306515Y-79404317D02*
X30363706Y-78932912D01*
X30835110Y-79875722D01*
X30296362Y-80414470D02*
X29589255Y-79707363D01*
X30262690Y-80380798D02*
X30363705Y-80347126D01*
X30498393Y-80212439D01*
X30532064Y-80111424D01*
X30532064Y-80044080D01*
X30498393Y-79943065D01*
X30296362Y-79741034D01*
X30195346Y-79707362D01*
X30128003Y-79707362D01*
X30026988Y-79741034D01*
X29892300Y-79875722D01*
X29858629Y-79976737D01*
X29656598Y-81054233D02*
X28949491Y-80347126D01*
X29622927Y-81020561D02*
X29723942Y-80986890D01*
X29858629Y-80852202D01*
X29892301Y-80751187D01*
X29892301Y-80683844D01*
X29858629Y-80582828D01*
X29656598Y-80380797D01*
X29555583Y-80347126D01*
X29488240Y-80347126D01*
X29387224Y-80380797D01*
X29252537Y-80515485D01*
X29218865Y-80616500D01*
X28478087Y-80818530D02*
X28343400Y-80953218D01*
X28309728Y-81054233D01*
X28309728Y-81188920D01*
X28410743Y-81357279D01*
X28646446Y-81592981D01*
X28814805Y-81693996D01*
X28949491Y-81693996D01*
X29050507Y-81660325D01*
X29185194Y-81525637D01*
X29218866Y-81424622D01*
X29218866Y-81289935D01*
X29117851Y-81121577D01*
X28882148Y-80885874D01*
X28713789Y-80784859D01*
X28579103Y-80784859D01*
X28478087Y-80818530D01*
X28107698Y-81660324D02*
X28579103Y-82131729D01*
X28175041Y-81727667D02*
X28107698Y-81727667D01*
X28006683Y-81761339D01*
X27905667Y-81862355D01*
X27871995Y-81963370D01*
X27905667Y-82064385D01*
X28276056Y-82434775D01*
X27467934Y-83781645D02*
X27467934Y-83714301D01*
X27434263Y-83545942D01*
X27400591Y-83444927D01*
X27333248Y-83310240D01*
X27198561Y-83108210D01*
X27063873Y-82973522D01*
X26861843Y-82838836D01*
X26727156Y-82771492D01*
X26626141Y-82737820D01*
X26457782Y-82704149D01*
X26390438Y-82704149D01*
X26828171Y-83882660D02*
X26861843Y-83781645D01*
X26861843Y-83714302D01*
X26828171Y-83613286D01*
X26626140Y-83411255D01*
X26525125Y-83377584D01*
X26457782Y-83377584D01*
X26356766Y-83411255D01*
X26255750Y-83512271D01*
X26222079Y-83613286D01*
X26222079Y-83680630D01*
X26255750Y-83781645D01*
X26457782Y-83983676D01*
X26558797Y-84017348D01*
X26626140Y-84017348D01*
X26727155Y-83983676D01*
X26828171Y-83882660D01*
X25818018Y-83950004D02*
X26525125Y-84657110D01*
X25851690Y-83983675D02*
X25750675Y-84017347D01*
X25615987Y-84152035D01*
X25582315Y-84253050D01*
X25582315Y-84320393D01*
X25615987Y-84421408D01*
X25818018Y-84623439D01*
X25919033Y-84657111D01*
X25986377Y-84657111D01*
X26087392Y-84623439D01*
X26222079Y-84488752D01*
X26255751Y-84387737D01*
X25279270Y-84488752D02*
X25009896Y-84758126D01*
X24942553Y-84354065D02*
X25548644Y-84960157D01*
X25582316Y-85061172D01*
X25548644Y-85162187D01*
X25481301Y-85229530D01*
X25178255Y-85397890D02*
X25178255Y-85465233D01*
X25245598Y-85465233D01*
X25245598Y-85397890D01*
X25178255Y-85397890D01*
X25245598Y-85465233D01*
X25245598Y-86003981D02*
X25178255Y-86003981D01*
X25009896Y-85970309D01*
X24908881Y-85936637D01*
X24774194Y-85869294D01*
X24572164Y-85734607D01*
X24437476Y-85599919D01*
X24302789Y-85397889D01*
X24235446Y-85263202D01*
X24201774Y-85162187D01*
X24168103Y-84993828D01*
X24168103Y-84926485D01*
D10*
X29730676Y-69851640D02*
X29683536Y-69945921D01*
X29565685Y-70063773D01*
X29494974Y-70087343D01*
X29447834Y-70087343D01*
X29377123Y-70063772D01*
X29329983Y-70016632D01*
X29306412Y-69945921D01*
X29306412Y-69898781D01*
X29329982Y-69828070D01*
X29400693Y-69710219D01*
X29424264Y-69639509D01*
X29424263Y-69592368D01*
X29400694Y-69521657D01*
X29353553Y-69474517D01*
X29282842Y-69450947D01*
X29235702Y-69450947D01*
X29164991Y-69474517D01*
X29047140Y-69592368D01*
X29000000Y-69686649D01*
X29259272Y-70370186D02*
X28764297Y-69875211D01*
X28646446Y-69993062D01*
X28599306Y-70087343D01*
X28599306Y-70181624D01*
X28622876Y-70252334D01*
X28693586Y-70370186D01*
X28764297Y-70440897D01*
X28882148Y-70511607D01*
X28952859Y-70535177D01*
X29047140Y-70535177D01*
X29141421Y-70488037D01*
X29259272Y-70370186D01*
X28646446Y-70700169D02*
X28410744Y-70935871D01*
X28835008Y-70794450D02*
X28175042Y-70464467D01*
X28505025Y-71124433D01*
X33537269Y-73681802D02*
X33490129Y-73776083D01*
X33372277Y-73893934D01*
X33301566Y-73917504D01*
X33254426Y-73917504D01*
X33183715Y-73893934D01*
X33136575Y-73846794D01*
X33113005Y-73776083D01*
X33113005Y-73728943D01*
X33136575Y-73658232D01*
X33207285Y-73540381D01*
X33230856Y-73469670D01*
X33230855Y-73422530D01*
X33207286Y-73351819D01*
X33160145Y-73304678D01*
X33089434Y-73281108D01*
X33042294Y-73281108D01*
X32971583Y-73304679D01*
X32853733Y-73422530D01*
X32806592Y-73516810D01*
X32735881Y-74436050D02*
X32783021Y-74436049D01*
X32877303Y-74388909D01*
X32924443Y-74341769D01*
X32971583Y-74247488D01*
X32971583Y-74153207D01*
X32948013Y-74082496D01*
X32877303Y-73964645D01*
X32806592Y-73893934D01*
X32688740Y-73823224D01*
X32618030Y-73799654D01*
X32523749Y-73799654D01*
X32429468Y-73846794D01*
X32382328Y-73893934D01*
X32335187Y-73988215D01*
X32335187Y-74035356D01*
X32335187Y-74931024D02*
X32570889Y-74695322D01*
X32075915Y-74200348D01*
X29129636Y-77193766D02*
X29153206Y-77123056D01*
X29223917Y-77052346D01*
X29318197Y-77005205D01*
X29412479Y-77005205D01*
X29483189Y-77028775D01*
X29601041Y-77099486D01*
X29671751Y-77170196D01*
X29742461Y-77288048D01*
X29766032Y-77358758D01*
X29766031Y-77453039D01*
X29718891Y-77547320D01*
X29671751Y-77594460D01*
X29577470Y-77641600D01*
X29530329Y-77641601D01*
X29365338Y-77476610D01*
X29459619Y-77382328D01*
X29365338Y-77900874D02*
X28870363Y-77405899D01*
X29082495Y-78183716D01*
X28587521Y-77688742D01*
X28846793Y-78419418D02*
X28351819Y-77924444D01*
X28233968Y-78042294D01*
X28186827Y-78136575D01*
X28186827Y-78230856D01*
X28210397Y-78301566D01*
X28281108Y-78419418D01*
X28351819Y-78490129D01*
X28469670Y-78560839D01*
X28540381Y-78584410D01*
X28634661Y-78584409D01*
X28728943Y-78537269D01*
X28846793Y-78419418D01*
X25523392Y-73116117D02*
X25216979Y-73422529D01*
X25570532Y-73446099D01*
X25499821Y-73516810D01*
X25476251Y-73587521D01*
X25476251Y-73634661D01*
X25499822Y-73705372D01*
X25617672Y-73823223D01*
X25688383Y-73846793D01*
X25735523Y-73846793D01*
X25806234Y-73823223D01*
X25947656Y-73681802D01*
X25971226Y-73611091D01*
X25971226Y-73563951D01*
X25075557Y-73563951D02*
X25405540Y-74223917D01*
X24745574Y-73893934D01*
X24627723Y-74011785D02*
X24321310Y-74318198D01*
X24674863Y-74341768D01*
X24604152Y-74412479D01*
X24580582Y-74483190D01*
X24580582Y-74530330D01*
X24604153Y-74601041D01*
X24722004Y-74718891D01*
X24792714Y-74742462D01*
X24839854Y-74742462D01*
X24910566Y-74718892D01*
X25051987Y-74577471D01*
X25075557Y-74506759D01*
X25075557Y-74459619D01*
D11*
X80983176Y-34652818D02*
X81107210Y-35356252D01*
X81178914Y-35488670D01*
X81289243Y-35565923D01*
X81438198Y-35588012D01*
X81531990Y-35571474D01*
X80150042Y-35138197D02*
X80265807Y-35794736D01*
X80318369Y-34721688D02*
X80676881Y-35383777D01*
X80067238Y-35491274D01*
X75362635Y-36986967D02*
X75831591Y-36904278D01*
X75657943Y-35919470D01*
X74943407Y-36528998D02*
X74615137Y-36586881D01*
X74565409Y-37127540D02*
X75034366Y-37044850D01*
X74860717Y-36060042D01*
X74391761Y-36142732D01*
X74143349Y-37201960D02*
X73969701Y-36217152D01*
X73735223Y-36258497D01*
X73602804Y-36330200D01*
X73525551Y-36440529D01*
X73495193Y-36542589D01*
X73481374Y-36738440D01*
X73506181Y-36879128D01*
X73586152Y-37058441D01*
X73649586Y-37143963D01*
X73759915Y-37221216D01*
X73908871Y-37243305D01*
X74143349Y-37201960D01*
X73197168Y-37320444D02*
X73064750Y-37392146D01*
X72830271Y-37433491D01*
X72728211Y-37403134D01*
X72673047Y-37364507D01*
X72609613Y-37278985D01*
X72593075Y-37185194D01*
X72623433Y-37083134D01*
X72662060Y-37027969D01*
X72747582Y-36964535D01*
X72926896Y-36884563D01*
X73012418Y-36821130D01*
X73051045Y-36765965D01*
X73081402Y-36663905D01*
X73064864Y-36570114D01*
X73001431Y-36484592D01*
X72946266Y-36445965D01*
X72844206Y-36415608D01*
X72609728Y-36456952D01*
X72477310Y-36528655D01*
X71109069Y-36721559D02*
X70921485Y-36754635D01*
X70835963Y-36818069D01*
X70758710Y-36928398D01*
X70744890Y-37124249D01*
X70802773Y-37452519D01*
X70882745Y-37631832D01*
X70993074Y-37709085D01*
X71095134Y-37739443D01*
X71282717Y-37706367D01*
X71368239Y-37642933D01*
X71445492Y-37532604D01*
X71459312Y-37336753D01*
X71401429Y-37008483D01*
X71321458Y-36829170D01*
X71211129Y-36751917D01*
X71109069Y-36721559D01*
X70264948Y-36870400D02*
X70405520Y-37667626D01*
X70375162Y-37769686D01*
X70336536Y-37824851D01*
X70251014Y-37888284D01*
X70063430Y-37921360D01*
X69961370Y-37891002D01*
X69906206Y-37852376D01*
X69842772Y-37766854D01*
X69702200Y-36969628D01*
X69373931Y-37027511D02*
X68811183Y-37126738D01*
X69266206Y-38061932D02*
X69092558Y-37077124D01*
X18083276Y-59703184D02*
X17746558Y-59366466D01*
X17948589Y-59972558D02*
X18419994Y-59029749D01*
X17477184Y-59501153D01*
X16871093Y-58895061D02*
X17275154Y-59299123D01*
X17073124Y-59097092D02*
X17780231Y-58389985D01*
X17746559Y-58558344D01*
X17746559Y-58693031D01*
X17780231Y-58794046D01*
%LPC*%
D10*
G36*
X64414214Y-28000000D02*
X63000000Y-29414214D01*
X61585786Y-28000000D01*
X63000000Y-26585786D01*
X64414214Y-28000000D01*
X64414214Y-28000000D01*
G37*
D14*
X58403806Y-23403806D03*
D10*
G36*
X13585786Y-66000000D02*
X15000000Y-64585786D01*
X16414214Y-66000000D01*
X15000000Y-67414214D01*
X13585786Y-66000000D01*
X13585786Y-66000000D01*
G37*
D14*
X19596194Y-70596194D03*
D15*
X24050000Y-15000000D03*
X25950000Y-15000000D03*
D10*
G36*
X67855977Y-31169150D02*
X68669150Y-30355977D01*
X69800521Y-31487348D01*
X68987348Y-32300521D01*
X67855977Y-31169150D01*
X67855977Y-31169150D01*
G37*
G36*
X69199479Y-32512652D02*
X70012652Y-31699479D01*
X71144023Y-32830850D01*
X70330850Y-33644023D01*
X69199479Y-32512652D01*
X69199479Y-32512652D01*
G37*
D15*
X11050000Y-37000000D03*
X12950000Y-37000000D03*
D10*
G36*
X45169150Y-80644023D02*
X44355977Y-79830850D01*
X45487348Y-78699479D01*
X46300521Y-79512652D01*
X45169150Y-80644023D01*
X45169150Y-80644023D01*
G37*
G36*
X46512652Y-79300521D02*
X45699479Y-78487348D01*
X46830850Y-77355977D01*
X47644023Y-78169150D01*
X46512652Y-79300521D01*
X46512652Y-79300521D01*
G37*
G36*
X54169150Y-73644023D02*
X53355977Y-72830850D01*
X54487348Y-71699479D01*
X55300521Y-72512652D01*
X54169150Y-73644023D01*
X54169150Y-73644023D01*
G37*
G36*
X55512652Y-72300521D02*
X54699479Y-71487348D01*
X55830850Y-70355977D01*
X56644023Y-71169150D01*
X55512652Y-72300521D01*
X55512652Y-72300521D01*
G37*
G36*
X63169150Y-64644023D02*
X62355977Y-63830850D01*
X63487348Y-62699479D01*
X64300521Y-63512652D01*
X63169150Y-64644023D01*
X63169150Y-64644023D01*
G37*
G36*
X64512652Y-63300521D02*
X63699479Y-62487348D01*
X64830850Y-61355977D01*
X65644023Y-62169150D01*
X64512652Y-63300521D01*
X64512652Y-63300521D01*
G37*
G36*
X70169150Y-55644023D02*
X69355977Y-54830850D01*
X70487348Y-53699479D01*
X71300521Y-54512652D01*
X70169150Y-55644023D01*
X70169150Y-55644023D01*
G37*
G36*
X71512652Y-54300521D02*
X70699479Y-53487348D01*
X71830850Y-52355977D01*
X72644023Y-53169150D01*
X71512652Y-54300521D01*
X71512652Y-54300521D01*
G37*
D16*
X33000000Y-13000000D03*
D17*
X30460000Y-13000000D03*
D10*
G36*
X81851718Y-37783621D02*
X82216379Y-39851718D01*
X80148282Y-40216379D01*
X79783621Y-38148282D01*
X81851718Y-37783621D01*
X81851718Y-37783621D01*
G37*
D18*
X78498588Y-39441066D02*
X78498588Y-39441066D01*
X81441066Y-41501412D02*
X81441066Y-41501412D01*
X78939655Y-41942478D02*
X78939655Y-41942478D01*
X81882133Y-44002823D02*
X81882133Y-44002823D01*
X79380721Y-44443890D02*
X79380721Y-44443890D01*
X82323199Y-46504235D02*
X82323199Y-46504235D01*
X79821787Y-46945301D02*
X79821787Y-46945301D01*
X82764265Y-49005647D02*
X82764265Y-49005647D01*
X80262854Y-49446713D02*
X80262854Y-49446713D01*
X83205332Y-51507058D02*
X83205332Y-51507058D01*
X80703920Y-51948125D02*
X80703920Y-51948125D01*
X83646398Y-54008470D02*
X83646398Y-54008470D01*
X81144987Y-54449537D02*
X81144987Y-54449537D01*
X84087465Y-56509882D02*
X84087465Y-56509882D01*
X81586053Y-56950948D02*
X81586053Y-56950948D01*
X84528531Y-59011294D02*
X84528531Y-59011294D01*
X82027119Y-59452360D02*
X82027119Y-59452360D01*
X84969597Y-61512705D02*
X84969597Y-61512705D01*
X82468186Y-61953772D02*
X82468186Y-61953772D01*
X85410664Y-64014117D02*
X85410664Y-64014117D01*
X82909252Y-64455183D02*
X82909252Y-64455183D01*
X85851730Y-66515529D02*
X85851730Y-66515529D01*
X83350318Y-66956595D02*
X83350318Y-66956595D01*
X86292796Y-69016940D02*
X86292796Y-69016940D01*
X83791385Y-69458007D02*
X83791385Y-69458007D01*
X86733863Y-71518352D02*
X86733863Y-71518352D01*
X84232451Y-71959418D02*
X84232451Y-71959418D01*
X87174929Y-74019764D02*
X87174929Y-74019764D01*
X84673518Y-74460830D02*
X84673518Y-74460830D01*
D19*
X37900000Y-20000000D03*
X40100000Y-20000000D03*
D20*
X6000000Y-33040000D03*
D21*
X6000000Y-30500000D03*
X6000000Y-27960000D03*
D20*
X6524229Y-50560707D03*
D21*
X6524229Y-48020707D03*
X6524229Y-45480707D03*
X6524229Y-42940707D03*
D22*
X54181981Y-87181981D03*
X51000000Y-84000000D03*
X58778175Y-82585786D03*
X55596194Y-79403806D03*
X63181981Y-83181981D03*
X60000000Y-80000000D03*
X67778175Y-78585786D03*
X64596194Y-75403806D03*
X70181981Y-76181981D03*
X67000000Y-73000000D03*
X74778175Y-71585786D03*
X71596194Y-68403806D03*
X74181981Y-67181981D03*
X71000000Y-64000000D03*
X78778175Y-62585786D03*
X75596194Y-59403806D03*
D16*
X42000000Y-14000000D03*
D17*
X39460000Y-14000000D03*
X36920000Y-14000000D03*
D10*
G36*
X11175000Y-7410473D02*
X9814527Y-6050000D01*
X11175000Y-4689527D01*
X12535473Y-6050000D01*
X11175000Y-7410473D01*
X11175000Y-7410473D01*
G37*
D23*
X12971051Y-4253949D03*
X12971051Y-7846051D03*
X14767102Y-6050000D03*
X14767102Y-9642102D03*
X16563154Y-7846051D03*
X16563154Y-11438154D03*
X18359205Y-9642102D03*
D14*
X23000000Y-34500000D03*
X26535534Y-30964466D03*
D10*
G36*
X38000000Y-57484924D02*
X36515076Y-56000000D01*
X38000000Y-54515076D01*
X39484924Y-56000000D01*
X38000000Y-57484924D01*
X38000000Y-57484924D01*
G37*
G36*
X48000000Y-47484924D02*
X46515076Y-46000000D01*
X48000000Y-44515076D01*
X49484924Y-46000000D01*
X48000000Y-47484924D01*
X48000000Y-47484924D01*
G37*
D24*
X29000000Y-72203949D03*
D18*
X30796051Y-74000000D02*
X30796051Y-74000000D01*
X27203949Y-74000000D02*
X27203949Y-74000000D01*
X29000000Y-75796051D02*
X29000000Y-75796051D01*
D10*
G36*
X78701718Y-34733621D02*
X79066379Y-36801718D01*
X76998282Y-37166379D01*
X76633621Y-35098282D01*
X78701718Y-34733621D01*
X78701718Y-34733621D01*
G37*
G36*
X14485786Y-50100000D02*
X15900000Y-48685786D01*
X17314214Y-50100000D01*
X15900000Y-51514214D01*
X14485786Y-50100000D01*
X14485786Y-50100000D01*
G37*
D25*
X50024973Y-37527641D02*
X50024973Y-37527641D01*
X17696051Y-48303949D02*
X17696051Y-48303949D01*
X48228922Y-39323693D02*
X48228922Y-39323693D01*
X19492102Y-46507898D02*
X19492102Y-46507898D01*
X46432871Y-41119744D02*
X46432871Y-41119744D01*
X21288154Y-44711846D02*
X21288154Y-44711846D01*
X44636820Y-42915795D02*
X44636820Y-42915795D01*
X23084205Y-42915795D02*
X23084205Y-42915795D01*
X42840768Y-44711846D02*
X42840768Y-44711846D01*
X24880256Y-41119744D02*
X24880256Y-41119744D01*
X41044717Y-46507898D02*
X41044717Y-46507898D01*
X26676307Y-39323693D02*
X26676307Y-39323693D01*
X39248666Y-48303949D02*
X39248666Y-48303949D01*
X28472359Y-37527641D02*
X28472359Y-37527641D01*
X37452615Y-50100000D02*
X37452615Y-50100000D01*
X30268410Y-35731590D02*
X30268410Y-35731590D01*
X35656563Y-51896051D02*
X35656563Y-51896051D01*
X32064461Y-33935539D02*
X32064461Y-33935539D01*
X33860512Y-53692102D02*
X33860512Y-53692102D01*
X33860512Y-32139488D02*
X33860512Y-32139488D01*
X32064461Y-55488154D02*
X32064461Y-55488154D01*
X35656563Y-30343437D02*
X35656563Y-30343437D01*
X30268410Y-57284205D02*
X30268410Y-57284205D01*
X37452615Y-28547385D02*
X37452615Y-28547385D01*
X28472359Y-59080256D02*
X28472359Y-59080256D01*
X39248666Y-26751334D02*
X39248666Y-26751334D01*
X26676307Y-60876307D02*
X26676307Y-60876307D01*
X41044717Y-24955283D02*
X41044717Y-24955283D01*
X51821024Y-35731590D02*
X51821024Y-35731590D01*
D26*
X6700000Y-14225000D03*
D27*
X9925000Y-14225000D03*
X8980419Y-16505419D03*
X6700000Y-17450000D03*
X4419581Y-16505419D03*
X3475000Y-14225000D03*
X4419581Y-11944581D03*
X6700000Y-11000000D03*
X8980419Y-11944581D03*
M02*
