G04 #@! TF.FileFunction,Legend,Bot*
%FSLAX46Y46*%
G04 Gerber Fmt 4.6, Leading zero omitted, Abs format (unit mm)*
G04 Created by KiCad (PCBNEW 4.0.7) date 06/12/18 02:01:21*
%MOMM*%
%LPD*%
G01*
G04 APERTURE LIST*
%ADD10C,0.100000*%
%ADD11C,0.120000*%
%ADD12C,0.150000*%
%ADD13C,2.000000*%
%ADD14R,1.600000X1.150000*%
%ADD15R,2.200000X2.200000*%
%ADD16C,2.200000*%
%ADD17C,2.100000*%
%ADD18R,1.600000X1.300000*%
%ADD19R,2.432000X2.127200*%
%ADD20O,2.432000X2.127200*%
%ADD21C,2.400000*%
%ADD22C,1.924000*%
%ADD23C,2.100000*%
%ADD24R,2.100000X2.100000*%
%ADD25C,2.000000*%
G04 APERTURE END LIST*
D10*
D11*
X24650000Y-15600000D02*
X25350000Y-15600000D01*
X25350000Y-14400000D02*
X24650000Y-14400000D01*
X13176777Y-57671751D02*
X13671751Y-57176777D01*
X12823223Y-56328249D02*
X12328249Y-56823223D01*
X8650000Y-29600000D02*
X9350000Y-29600000D01*
X9350000Y-28400000D02*
X8650000Y-28400000D01*
X46176777Y-79671751D02*
X46671751Y-79176777D01*
X45823223Y-78328249D02*
X45328249Y-78823223D01*
X55176777Y-72671751D02*
X55671751Y-72176777D01*
X54823223Y-71328249D02*
X54328249Y-71823223D01*
X64176777Y-63671751D02*
X64671751Y-63176777D01*
X63823223Y-62328249D02*
X63328249Y-62823223D01*
X71176777Y-54671751D02*
X71671751Y-54176777D01*
X70823223Y-53328249D02*
X70328249Y-53823223D01*
X88715676Y-75098606D02*
X83594675Y-76001576D01*
X82530327Y-40019754D02*
X88715676Y-75098606D01*
X76957842Y-38362224D02*
X83594675Y-76001576D01*
X82530327Y-40019754D02*
X79969827Y-40471239D01*
X79969827Y-40471239D02*
X79518342Y-37910739D01*
X79518342Y-37910739D02*
X76957842Y-38362224D01*
X82309794Y-38769048D02*
X82078842Y-37459254D01*
X82078842Y-37459254D02*
X80769048Y-37690206D01*
X39500000Y-19320000D02*
X38500000Y-19320000D01*
X38500000Y-20680000D02*
X39500000Y-20680000D01*
X23883883Y-35468736D02*
X27504270Y-31848350D01*
X22031264Y-33616117D02*
X25651650Y-29995730D01*
X23883883Y-35468736D02*
X23661852Y-35246705D01*
X22253295Y-33838148D02*
X22031264Y-33616117D01*
X27504270Y-31848350D02*
X27282239Y-31626318D01*
X25873682Y-30217761D02*
X25651650Y-29995730D01*
X36119096Y-56000000D02*
X38000000Y-54119096D01*
X36161522Y-56042426D02*
X36119096Y-56000000D01*
X38042426Y-54161522D02*
X38000000Y-54119096D01*
X36161522Y-56042426D02*
X38042426Y-54161522D01*
X37059548Y-56940452D02*
X38000000Y-57880904D01*
X38000000Y-57880904D02*
X38940452Y-56940452D01*
X46119096Y-46000000D02*
X48000000Y-44119096D01*
X46161522Y-46042426D02*
X46119096Y-46000000D01*
X48042426Y-44161522D02*
X48000000Y-44119096D01*
X46161522Y-46042426D02*
X48042426Y-44161522D01*
X47059548Y-46940452D02*
X48000000Y-47880904D01*
X48000000Y-47880904D02*
X48940452Y-46940452D01*
X17696051Y-50100000D02*
X15900000Y-51896051D01*
X15900000Y-51896051D02*
X14012025Y-50008076D01*
X15808076Y-48212025D02*
X42840768Y-21179333D01*
X12124050Y-51896051D02*
X14012025Y-50008076D01*
X24880256Y-60876307D02*
X26768231Y-62764282D01*
X24880256Y-60876307D02*
X51821024Y-33935539D01*
X51821024Y-33935539D02*
X53709000Y-35823514D01*
X17696051Y-50100000D02*
X15808076Y-48212025D01*
X17696051Y-50100000D02*
X42840768Y-24955283D01*
X42840768Y-24955283D02*
X40952793Y-23067308D01*
D10*
X41044717Y-30343437D02*
X46432871Y-35731590D01*
X46432871Y-35731590D02*
X53617076Y-28547385D01*
X53617076Y-28547385D02*
X48228922Y-23159232D01*
X48228922Y-23159232D02*
X41044717Y-30343437D01*
D11*
X42840768Y-21179333D02*
X55596975Y-33935539D01*
X55596975Y-33935539D02*
X24880256Y-64652258D01*
X24880256Y-64652258D02*
X12124050Y-51896051D01*
D12*
X25166666Y-16607143D02*
X25214285Y-16654762D01*
X25357142Y-16702381D01*
X25452380Y-16702381D01*
X25595238Y-16654762D01*
X25690476Y-16559524D01*
X25738095Y-16464286D01*
X25785714Y-16273810D01*
X25785714Y-16130952D01*
X25738095Y-15940476D01*
X25690476Y-15845238D01*
X25595238Y-15750000D01*
X25452380Y-15702381D01*
X25357142Y-15702381D01*
X25214285Y-15750000D01*
X25166666Y-15797619D01*
X24214285Y-16702381D02*
X24785714Y-16702381D01*
X24500000Y-16702381D02*
X24500000Y-15702381D01*
X24595238Y-15845238D01*
X24690476Y-15940476D01*
X24785714Y-15988095D01*
X28976191Y-12952381D02*
X28880952Y-12952381D01*
X28785714Y-13000000D01*
X28738095Y-13047619D01*
X28690476Y-13142857D01*
X28642857Y-13333333D01*
X28642857Y-13571429D01*
X28690476Y-13761905D01*
X28738095Y-13857143D01*
X28785714Y-13904762D01*
X28880952Y-13952381D01*
X28976191Y-13952381D01*
X29071429Y-13904762D01*
X29119048Y-13857143D01*
X29166667Y-13761905D01*
X29214286Y-13571429D01*
X29214286Y-13333333D01*
X29166667Y-13142857D01*
X29119048Y-13047619D01*
X29071429Y-13000000D01*
X28976191Y-12952381D01*
X28214286Y-13857143D02*
X28166667Y-13904762D01*
X28214286Y-13952381D01*
X28261905Y-13904762D01*
X28214286Y-13857143D01*
X28214286Y-13952381D01*
X27214286Y-13952381D02*
X27785715Y-13952381D01*
X27500001Y-13952381D02*
X27500001Y-12952381D01*
X27595239Y-13095238D01*
X27690477Y-13190476D01*
X27785715Y-13238095D01*
X26357143Y-13285714D02*
X26357143Y-13952381D01*
X26785715Y-13285714D02*
X26785715Y-13809524D01*
X26738096Y-13904762D01*
X26642858Y-13952381D01*
X26500000Y-13952381D01*
X26404762Y-13904762D01*
X26357143Y-13857143D01*
X26023810Y-13285714D02*
X25642858Y-13285714D01*
X25880953Y-13952381D02*
X25880953Y-13095238D01*
X25833334Y-13000000D01*
X25738096Y-12952381D01*
X25642858Y-12952381D01*
X24261904Y-14333333D02*
X24309524Y-14285714D01*
X24404762Y-14142857D01*
X24452381Y-14047619D01*
X24500000Y-13904762D01*
X24547619Y-13666667D01*
X24547619Y-13476190D01*
X24500000Y-13238095D01*
X24452381Y-13095238D01*
X24404762Y-13000000D01*
X24309524Y-12857143D01*
X24261904Y-12809524D01*
X23738095Y-13952381D02*
X23833333Y-13904762D01*
X23880952Y-13857143D01*
X23928571Y-13761905D01*
X23928571Y-13476190D01*
X23880952Y-13380952D01*
X23833333Y-13333333D01*
X23738095Y-13285714D01*
X23595237Y-13285714D01*
X23499999Y-13333333D01*
X23452380Y-13380952D01*
X23404761Y-13476190D01*
X23404761Y-13761905D01*
X23452380Y-13857143D01*
X23499999Y-13904762D01*
X23595237Y-13952381D01*
X23738095Y-13952381D01*
X22976190Y-13285714D02*
X22976190Y-14285714D01*
X22976190Y-13333333D02*
X22880952Y-13285714D01*
X22690475Y-13285714D01*
X22595237Y-13333333D01*
X22547618Y-13380952D01*
X22499999Y-13476190D01*
X22499999Y-13761905D01*
X22547618Y-13857143D01*
X22595237Y-13904762D01*
X22690475Y-13952381D01*
X22880952Y-13952381D01*
X22976190Y-13904762D01*
X22214285Y-13285714D02*
X21833333Y-13285714D01*
X22071428Y-12952381D02*
X22071428Y-13809524D01*
X22023809Y-13904762D01*
X21928571Y-13952381D01*
X21833333Y-13952381D01*
X21499999Y-13857143D02*
X21452380Y-13904762D01*
X21499999Y-13952381D01*
X21547618Y-13904762D01*
X21499999Y-13857143D01*
X21499999Y-13952381D01*
X21119047Y-14333333D02*
X21071428Y-14285714D01*
X20976190Y-14142857D01*
X20928571Y-14047619D01*
X20880952Y-13904762D01*
X20833333Y-13666667D01*
X20833333Y-13476190D01*
X20880952Y-13238095D01*
X20928571Y-13095238D01*
X20976190Y-13000000D01*
X21071428Y-12857143D01*
X21119047Y-12809524D01*
X14254272Y-58018571D02*
X14321615Y-58018571D01*
X14456302Y-57951227D01*
X14523646Y-57883884D01*
X14590990Y-57749196D01*
X14590990Y-57614509D01*
X14557318Y-57513494D01*
X14456303Y-57345136D01*
X14355287Y-57244120D01*
X14186928Y-57143105D01*
X14085913Y-57109433D01*
X13951226Y-57109433D01*
X13816539Y-57176777D01*
X13749195Y-57244120D01*
X13681852Y-57378807D01*
X13681852Y-57446151D01*
X13412478Y-57715524D02*
X13345135Y-57715524D01*
X13244120Y-57749196D01*
X13075760Y-57917555D01*
X13042089Y-58018571D01*
X13042089Y-58085914D01*
X13075760Y-58186929D01*
X13143104Y-58254273D01*
X13277791Y-58321616D01*
X14085913Y-58321616D01*
X13648180Y-58759349D01*
X14363707Y-52740523D02*
X14296362Y-52807867D01*
X14262691Y-52908883D01*
X14262691Y-52976226D01*
X14296362Y-53077241D01*
X14397378Y-53245600D01*
X14565737Y-53413959D01*
X14734095Y-53514974D01*
X14835111Y-53548646D01*
X14902454Y-53548646D01*
X15003469Y-53514974D01*
X15070813Y-53447630D01*
X15104485Y-53346615D01*
X15104485Y-53279271D01*
X15070813Y-53178256D01*
X14969798Y-53009898D01*
X14801439Y-52841538D01*
X14633080Y-52740523D01*
X14532065Y-52706852D01*
X14464722Y-52706852D01*
X14363707Y-52740523D01*
X14464722Y-53919035D02*
X14464722Y-53986378D01*
X14532065Y-53986378D01*
X14532065Y-53919035D01*
X14464722Y-53919035D01*
X14532065Y-53986378D01*
X13824958Y-54693485D02*
X14229020Y-54289424D01*
X14026989Y-54491454D02*
X13319883Y-53784347D01*
X13488241Y-53818019D01*
X13622928Y-53818019D01*
X13723943Y-53784347D01*
X12747462Y-54828172D02*
X13218867Y-55299577D01*
X13050508Y-54525126D02*
X13420898Y-54895515D01*
X13454569Y-54996530D01*
X13420898Y-55097546D01*
X13319882Y-55198562D01*
X13218867Y-55232233D01*
X13151523Y-55232233D01*
X12511760Y-55063874D02*
X12242386Y-55333248D01*
X12882150Y-55636294D02*
X12276058Y-55030202D01*
X12175043Y-54996530D01*
X12074028Y-55030202D01*
X12006684Y-55097546D01*
X12006683Y-57050508D02*
X12006683Y-56983164D01*
X11973012Y-56814805D01*
X11939340Y-56713790D01*
X11871997Y-56579103D01*
X11737310Y-56377073D01*
X11602622Y-56242385D01*
X11400592Y-56107699D01*
X11265905Y-56040355D01*
X11164890Y-56006683D01*
X10996531Y-55973012D01*
X10929187Y-55973012D01*
X11366920Y-57151523D02*
X11400592Y-57050508D01*
X11400592Y-56983165D01*
X11366920Y-56882150D01*
X11164889Y-56680118D01*
X11063874Y-56646447D01*
X10996530Y-56646447D01*
X10895515Y-56680118D01*
X10794499Y-56781134D01*
X10760828Y-56882150D01*
X10760828Y-56949493D01*
X10794499Y-57050508D01*
X10996530Y-57252539D01*
X11097546Y-57286211D01*
X11164889Y-57286211D01*
X11265904Y-57252539D01*
X11366920Y-57151523D01*
X10356767Y-57218867D02*
X11063874Y-57925973D01*
X10390439Y-57252538D02*
X10289424Y-57286210D01*
X10154736Y-57420898D01*
X10121064Y-57521913D01*
X10121064Y-57589256D01*
X10154736Y-57690271D01*
X10356767Y-57892302D01*
X10457782Y-57925974D01*
X10525126Y-57925974D01*
X10626141Y-57892302D01*
X10760828Y-57757615D01*
X10794500Y-57656600D01*
X9818019Y-57757615D02*
X9548645Y-58026989D01*
X9481302Y-57622928D02*
X10087393Y-58229020D01*
X10121065Y-58330035D01*
X10087393Y-58431050D01*
X10020050Y-58498393D01*
X9717004Y-58666753D02*
X9717004Y-58734096D01*
X9784347Y-58734096D01*
X9784347Y-58666753D01*
X9717004Y-58666753D01*
X9784347Y-58734096D01*
X9784347Y-59272844D02*
X9717004Y-59272844D01*
X9548645Y-59239172D01*
X9447630Y-59205500D01*
X9312943Y-59138157D01*
X9110913Y-59003470D01*
X8976225Y-58868782D01*
X8841538Y-58666752D01*
X8774195Y-58532065D01*
X8740523Y-58431050D01*
X8706852Y-58262691D01*
X8706852Y-58195348D01*
X9166666Y-30607143D02*
X9214285Y-30654762D01*
X9357142Y-30702381D01*
X9452380Y-30702381D01*
X9595238Y-30654762D01*
X9690476Y-30559524D01*
X9738095Y-30464286D01*
X9785714Y-30273810D01*
X9785714Y-30130952D01*
X9738095Y-29940476D01*
X9690476Y-29845238D01*
X9595238Y-29750000D01*
X9452380Y-29702381D01*
X9357142Y-29702381D01*
X9214285Y-29750000D01*
X9166666Y-29797619D01*
X8833333Y-29702381D02*
X8214285Y-29702381D01*
X8547619Y-30083333D01*
X8404761Y-30083333D01*
X8309523Y-30130952D01*
X8261904Y-30178571D01*
X8214285Y-30273810D01*
X8214285Y-30511905D01*
X8261904Y-30607143D01*
X8309523Y-30654762D01*
X8404761Y-30702381D01*
X8690476Y-30702381D01*
X8785714Y-30654762D01*
X8833333Y-30607143D01*
X12976191Y-26952381D02*
X12880952Y-26952381D01*
X12785714Y-27000000D01*
X12738095Y-27047619D01*
X12690476Y-27142857D01*
X12642857Y-27333333D01*
X12642857Y-27571429D01*
X12690476Y-27761905D01*
X12738095Y-27857143D01*
X12785714Y-27904762D01*
X12880952Y-27952381D01*
X12976191Y-27952381D01*
X13071429Y-27904762D01*
X13119048Y-27857143D01*
X13166667Y-27761905D01*
X13214286Y-27571429D01*
X13214286Y-27333333D01*
X13166667Y-27142857D01*
X13119048Y-27047619D01*
X13071429Y-27000000D01*
X12976191Y-26952381D01*
X12214286Y-27857143D02*
X12166667Y-27904762D01*
X12214286Y-27952381D01*
X12261905Y-27904762D01*
X12214286Y-27857143D01*
X12214286Y-27952381D01*
X11214286Y-27952381D02*
X11785715Y-27952381D01*
X11500001Y-27952381D02*
X11500001Y-26952381D01*
X11595239Y-27095238D01*
X11690477Y-27190476D01*
X11785715Y-27238095D01*
X10357143Y-27285714D02*
X10357143Y-27952381D01*
X10785715Y-27285714D02*
X10785715Y-27809524D01*
X10738096Y-27904762D01*
X10642858Y-27952381D01*
X10500000Y-27952381D01*
X10404762Y-27904762D01*
X10357143Y-27857143D01*
X10023810Y-27285714D02*
X9642858Y-27285714D01*
X9880953Y-27952381D02*
X9880953Y-27095238D01*
X9833334Y-27000000D01*
X9738096Y-26952381D01*
X9642858Y-26952381D01*
X8261904Y-28333333D02*
X8309524Y-28285714D01*
X8404762Y-28142857D01*
X8452381Y-28047619D01*
X8500000Y-27904762D01*
X8547619Y-27666667D01*
X8547619Y-27476190D01*
X8500000Y-27238095D01*
X8452381Y-27095238D01*
X8404762Y-27000000D01*
X8309524Y-26857143D01*
X8261904Y-26809524D01*
X7738095Y-27952381D02*
X7833333Y-27904762D01*
X7880952Y-27857143D01*
X7928571Y-27761905D01*
X7928571Y-27476190D01*
X7880952Y-27380952D01*
X7833333Y-27333333D01*
X7738095Y-27285714D01*
X7595237Y-27285714D01*
X7499999Y-27333333D01*
X7452380Y-27380952D01*
X7404761Y-27476190D01*
X7404761Y-27761905D01*
X7452380Y-27857143D01*
X7499999Y-27904762D01*
X7595237Y-27952381D01*
X7738095Y-27952381D01*
X6976190Y-27285714D02*
X6976190Y-28285714D01*
X6976190Y-27333333D02*
X6880952Y-27285714D01*
X6690475Y-27285714D01*
X6595237Y-27333333D01*
X6547618Y-27380952D01*
X6499999Y-27476190D01*
X6499999Y-27761905D01*
X6547618Y-27857143D01*
X6595237Y-27904762D01*
X6690475Y-27952381D01*
X6880952Y-27952381D01*
X6976190Y-27904762D01*
X6214285Y-27285714D02*
X5833333Y-27285714D01*
X6071428Y-26952381D02*
X6071428Y-27809524D01*
X6023809Y-27904762D01*
X5928571Y-27952381D01*
X5833333Y-27952381D01*
X5499999Y-27857143D02*
X5452380Y-27904762D01*
X5499999Y-27952381D01*
X5547618Y-27904762D01*
X5499999Y-27857143D01*
X5499999Y-27952381D01*
X5119047Y-28333333D02*
X5071428Y-28285714D01*
X4976190Y-28142857D01*
X4928571Y-28047619D01*
X4880952Y-27904762D01*
X4833333Y-27666667D01*
X4833333Y-27476190D01*
X4880952Y-27238095D01*
X4928571Y-27095238D01*
X4976190Y-27000000D01*
X5071428Y-26857143D01*
X5119047Y-26809524D01*
X47254272Y-80018571D02*
X47321615Y-80018571D01*
X47456302Y-79951227D01*
X47523646Y-79883884D01*
X47590990Y-79749196D01*
X47590990Y-79614509D01*
X47557318Y-79513494D01*
X47456303Y-79345136D01*
X47355287Y-79244120D01*
X47186928Y-79143105D01*
X47085913Y-79109433D01*
X46951226Y-79109433D01*
X46816539Y-79176777D01*
X46749195Y-79244120D01*
X46681852Y-79378807D01*
X46681852Y-79446151D01*
X46244119Y-80220601D02*
X46715524Y-80692006D01*
X46143105Y-79782868D02*
X46816540Y-80119586D01*
X46378807Y-80557319D01*
X47363707Y-74740523D02*
X47296362Y-74807867D01*
X47262691Y-74908883D01*
X47262691Y-74976226D01*
X47296362Y-75077241D01*
X47397378Y-75245600D01*
X47565737Y-75413959D01*
X47734095Y-75514974D01*
X47835111Y-75548646D01*
X47902454Y-75548646D01*
X48003469Y-75514974D01*
X48070813Y-75447630D01*
X48104485Y-75346615D01*
X48104485Y-75279271D01*
X48070813Y-75178256D01*
X47969798Y-75009898D01*
X47801439Y-74841538D01*
X47633080Y-74740523D01*
X47532065Y-74706852D01*
X47464722Y-74706852D01*
X47363707Y-74740523D01*
X47464722Y-75919035D02*
X47464722Y-75986378D01*
X47532065Y-75986378D01*
X47532065Y-75919035D01*
X47464722Y-75919035D01*
X47532065Y-75986378D01*
X46824958Y-76693485D02*
X47229020Y-76289424D01*
X47026989Y-76491454D02*
X46319883Y-75784347D01*
X46488241Y-75818019D01*
X46622928Y-75818019D01*
X46723943Y-75784347D01*
X45747462Y-76828172D02*
X46218867Y-77299577D01*
X46050508Y-76525126D02*
X46420898Y-76895515D01*
X46454569Y-76996530D01*
X46420898Y-77097546D01*
X46319882Y-77198562D01*
X46218867Y-77232233D01*
X46151523Y-77232233D01*
X45511760Y-77063874D02*
X45242386Y-77333248D01*
X45882150Y-77636294D02*
X45276058Y-77030202D01*
X45175043Y-76996530D01*
X45074028Y-77030202D01*
X45006684Y-77097546D01*
X45006683Y-79050508D02*
X45006683Y-78983164D01*
X44973012Y-78814805D01*
X44939340Y-78713790D01*
X44871997Y-78579103D01*
X44737310Y-78377073D01*
X44602622Y-78242385D01*
X44400592Y-78107699D01*
X44265905Y-78040355D01*
X44164890Y-78006683D01*
X43996531Y-77973012D01*
X43929187Y-77973012D01*
X44366920Y-79151523D02*
X44400592Y-79050508D01*
X44400592Y-78983165D01*
X44366920Y-78882150D01*
X44164889Y-78680118D01*
X44063874Y-78646447D01*
X43996530Y-78646447D01*
X43895515Y-78680118D01*
X43794499Y-78781134D01*
X43760828Y-78882150D01*
X43760828Y-78949493D01*
X43794499Y-79050508D01*
X43996530Y-79252539D01*
X44097546Y-79286211D01*
X44164889Y-79286211D01*
X44265904Y-79252539D01*
X44366920Y-79151523D01*
X43356767Y-79218867D02*
X44063874Y-79925973D01*
X43390439Y-79252538D02*
X43289424Y-79286210D01*
X43154736Y-79420898D01*
X43121064Y-79521913D01*
X43121064Y-79589256D01*
X43154736Y-79690271D01*
X43356767Y-79892302D01*
X43457782Y-79925974D01*
X43525126Y-79925974D01*
X43626141Y-79892302D01*
X43760828Y-79757615D01*
X43794500Y-79656600D01*
X42818019Y-79757615D02*
X42548645Y-80026989D01*
X42481302Y-79622928D02*
X43087393Y-80229020D01*
X43121065Y-80330035D01*
X43087393Y-80431050D01*
X43020050Y-80498393D01*
X42717004Y-80666753D02*
X42717004Y-80734096D01*
X42784347Y-80734096D01*
X42784347Y-80666753D01*
X42717004Y-80666753D01*
X42784347Y-80734096D01*
X42784347Y-81272844D02*
X42717004Y-81272844D01*
X42548645Y-81239172D01*
X42447630Y-81205500D01*
X42312943Y-81138157D01*
X42110913Y-81003470D01*
X41976225Y-80868782D01*
X41841538Y-80666752D01*
X41774195Y-80532065D01*
X41740523Y-80431050D01*
X41706852Y-80262691D01*
X41706852Y-80195348D01*
X56254272Y-73018571D02*
X56321615Y-73018571D01*
X56456302Y-72951227D01*
X56523646Y-72883884D01*
X56590990Y-72749196D01*
X56590990Y-72614509D01*
X56557318Y-72513494D01*
X56456303Y-72345136D01*
X56355287Y-72244120D01*
X56186928Y-72143105D01*
X56085913Y-72109433D01*
X55951226Y-72109433D01*
X55816539Y-72176777D01*
X55749195Y-72244120D01*
X55681852Y-72378807D01*
X55681852Y-72446151D01*
X54974745Y-73018571D02*
X55311463Y-72681853D01*
X55681852Y-72984898D01*
X55614509Y-72984898D01*
X55513493Y-73018570D01*
X55345134Y-73186929D01*
X55311462Y-73287944D01*
X55311462Y-73355288D01*
X55345135Y-73456304D01*
X55513493Y-73624662D01*
X55614509Y-73658334D01*
X55681852Y-73658334D01*
X55782867Y-73624662D01*
X55951226Y-73456303D01*
X55984898Y-73355288D01*
X55984898Y-73287944D01*
X56363707Y-67740523D02*
X56296362Y-67807867D01*
X56262691Y-67908883D01*
X56262691Y-67976226D01*
X56296362Y-68077241D01*
X56397378Y-68245600D01*
X56565737Y-68413959D01*
X56734095Y-68514974D01*
X56835111Y-68548646D01*
X56902454Y-68548646D01*
X57003469Y-68514974D01*
X57070813Y-68447630D01*
X57104485Y-68346615D01*
X57104485Y-68279271D01*
X57070813Y-68178256D01*
X56969798Y-68009898D01*
X56801439Y-67841538D01*
X56633080Y-67740523D01*
X56532065Y-67706852D01*
X56464722Y-67706852D01*
X56363707Y-67740523D01*
X56464722Y-68919035D02*
X56464722Y-68986378D01*
X56532065Y-68986378D01*
X56532065Y-68919035D01*
X56464722Y-68919035D01*
X56532065Y-68986378D01*
X55824958Y-69693485D02*
X56229020Y-69289424D01*
X56026989Y-69491454D02*
X55319883Y-68784347D01*
X55488241Y-68818019D01*
X55622928Y-68818019D01*
X55723943Y-68784347D01*
X54747462Y-69828172D02*
X55218867Y-70299577D01*
X55050508Y-69525126D02*
X55420898Y-69895515D01*
X55454569Y-69996530D01*
X55420898Y-70097546D01*
X55319882Y-70198562D01*
X55218867Y-70232233D01*
X55151523Y-70232233D01*
X54511760Y-70063874D02*
X54242386Y-70333248D01*
X54882150Y-70636294D02*
X54276058Y-70030202D01*
X54175043Y-69996530D01*
X54074028Y-70030202D01*
X54006684Y-70097546D01*
X54006683Y-72050508D02*
X54006683Y-71983164D01*
X53973012Y-71814805D01*
X53939340Y-71713790D01*
X53871997Y-71579103D01*
X53737310Y-71377073D01*
X53602622Y-71242385D01*
X53400592Y-71107699D01*
X53265905Y-71040355D01*
X53164890Y-71006683D01*
X52996531Y-70973012D01*
X52929187Y-70973012D01*
X53366920Y-72151523D02*
X53400592Y-72050508D01*
X53400592Y-71983165D01*
X53366920Y-71882150D01*
X53164889Y-71680118D01*
X53063874Y-71646447D01*
X52996530Y-71646447D01*
X52895515Y-71680118D01*
X52794499Y-71781134D01*
X52760828Y-71882150D01*
X52760828Y-71949493D01*
X52794499Y-72050508D01*
X52996530Y-72252539D01*
X53097546Y-72286211D01*
X53164889Y-72286211D01*
X53265904Y-72252539D01*
X53366920Y-72151523D01*
X52356767Y-72218867D02*
X53063874Y-72925973D01*
X52390439Y-72252538D02*
X52289424Y-72286210D01*
X52154736Y-72420898D01*
X52121064Y-72521913D01*
X52121064Y-72589256D01*
X52154736Y-72690271D01*
X52356767Y-72892302D01*
X52457782Y-72925974D01*
X52525126Y-72925974D01*
X52626141Y-72892302D01*
X52760828Y-72757615D01*
X52794500Y-72656600D01*
X51818019Y-72757615D02*
X51548645Y-73026989D01*
X51481302Y-72622928D02*
X52087393Y-73229020D01*
X52121065Y-73330035D01*
X52087393Y-73431050D01*
X52020050Y-73498393D01*
X51717004Y-73666753D02*
X51717004Y-73734096D01*
X51784347Y-73734096D01*
X51784347Y-73666753D01*
X51717004Y-73666753D01*
X51784347Y-73734096D01*
X51784347Y-74272844D02*
X51717004Y-74272844D01*
X51548645Y-74239172D01*
X51447630Y-74205500D01*
X51312943Y-74138157D01*
X51110913Y-74003470D01*
X50976225Y-73868782D01*
X50841538Y-73666752D01*
X50774195Y-73532065D01*
X50740523Y-73431050D01*
X50706852Y-73262691D01*
X50706852Y-73195348D01*
X65254272Y-64018571D02*
X65321615Y-64018571D01*
X65456302Y-63951227D01*
X65523646Y-63883884D01*
X65590990Y-63749196D01*
X65590990Y-63614509D01*
X65557318Y-63513494D01*
X65456303Y-63345136D01*
X65355287Y-63244120D01*
X65186928Y-63143105D01*
X65085913Y-63109433D01*
X64951226Y-63109433D01*
X64816539Y-63176777D01*
X64749195Y-63244120D01*
X64681852Y-63378807D01*
X64681852Y-63446151D01*
X64008417Y-63984899D02*
X64143105Y-63850211D01*
X64244120Y-63816540D01*
X64311463Y-63816540D01*
X64479822Y-63850211D01*
X64648180Y-63951226D01*
X64917555Y-64220601D01*
X64951226Y-64321616D01*
X64951226Y-64388959D01*
X64917555Y-64489975D01*
X64782867Y-64624662D01*
X64681852Y-64658334D01*
X64614509Y-64658334D01*
X64513493Y-64624662D01*
X64345135Y-64456304D01*
X64311462Y-64355288D01*
X64311462Y-64287944D01*
X64345134Y-64186929D01*
X64479822Y-64052242D01*
X64580837Y-64018570D01*
X64648180Y-64018570D01*
X64749196Y-64052242D01*
X65363707Y-58740523D02*
X65296362Y-58807867D01*
X65262691Y-58908883D01*
X65262691Y-58976226D01*
X65296362Y-59077241D01*
X65397378Y-59245600D01*
X65565737Y-59413959D01*
X65734095Y-59514974D01*
X65835111Y-59548646D01*
X65902454Y-59548646D01*
X66003469Y-59514974D01*
X66070813Y-59447630D01*
X66104485Y-59346615D01*
X66104485Y-59279271D01*
X66070813Y-59178256D01*
X65969798Y-59009898D01*
X65801439Y-58841538D01*
X65633080Y-58740523D01*
X65532065Y-58706852D01*
X65464722Y-58706852D01*
X65363707Y-58740523D01*
X65464722Y-59919035D02*
X65464722Y-59986378D01*
X65532065Y-59986378D01*
X65532065Y-59919035D01*
X65464722Y-59919035D01*
X65532065Y-59986378D01*
X64824958Y-60693485D02*
X65229020Y-60289424D01*
X65026989Y-60491454D02*
X64319883Y-59784347D01*
X64488241Y-59818019D01*
X64622928Y-59818019D01*
X64723943Y-59784347D01*
X63747462Y-60828172D02*
X64218867Y-61299577D01*
X64050508Y-60525126D02*
X64420898Y-60895515D01*
X64454569Y-60996530D01*
X64420898Y-61097546D01*
X64319882Y-61198562D01*
X64218867Y-61232233D01*
X64151523Y-61232233D01*
X63511760Y-61063874D02*
X63242386Y-61333248D01*
X63882150Y-61636294D02*
X63276058Y-61030202D01*
X63175043Y-60996530D01*
X63074028Y-61030202D01*
X63006684Y-61097546D01*
X63006683Y-63050508D02*
X63006683Y-62983164D01*
X62973012Y-62814805D01*
X62939340Y-62713790D01*
X62871997Y-62579103D01*
X62737310Y-62377073D01*
X62602622Y-62242385D01*
X62400592Y-62107699D01*
X62265905Y-62040355D01*
X62164890Y-62006683D01*
X61996531Y-61973012D01*
X61929187Y-61973012D01*
X62366920Y-63151523D02*
X62400592Y-63050508D01*
X62400592Y-62983165D01*
X62366920Y-62882150D01*
X62164889Y-62680118D01*
X62063874Y-62646447D01*
X61996530Y-62646447D01*
X61895515Y-62680118D01*
X61794499Y-62781134D01*
X61760828Y-62882150D01*
X61760828Y-62949493D01*
X61794499Y-63050508D01*
X61996530Y-63252539D01*
X62097546Y-63286211D01*
X62164889Y-63286211D01*
X62265904Y-63252539D01*
X62366920Y-63151523D01*
X61356767Y-63218867D02*
X62063874Y-63925973D01*
X61390439Y-63252538D02*
X61289424Y-63286210D01*
X61154736Y-63420898D01*
X61121064Y-63521913D01*
X61121064Y-63589256D01*
X61154736Y-63690271D01*
X61356767Y-63892302D01*
X61457782Y-63925974D01*
X61525126Y-63925974D01*
X61626141Y-63892302D01*
X61760828Y-63757615D01*
X61794500Y-63656600D01*
X60818019Y-63757615D02*
X60548645Y-64026989D01*
X60481302Y-63622928D02*
X61087393Y-64229020D01*
X61121065Y-64330035D01*
X61087393Y-64431050D01*
X61020050Y-64498393D01*
X60717004Y-64666753D02*
X60717004Y-64734096D01*
X60784347Y-64734096D01*
X60784347Y-64666753D01*
X60717004Y-64666753D01*
X60784347Y-64734096D01*
X60784347Y-65272844D02*
X60717004Y-65272844D01*
X60548645Y-65239172D01*
X60447630Y-65205500D01*
X60312943Y-65138157D01*
X60110913Y-65003470D01*
X59976225Y-64868782D01*
X59841538Y-64666752D01*
X59774195Y-64532065D01*
X59740523Y-64431050D01*
X59706852Y-64262691D01*
X59706852Y-64195348D01*
X72254272Y-55018571D02*
X72321615Y-55018571D01*
X72456302Y-54951227D01*
X72523646Y-54883884D01*
X72590990Y-54749196D01*
X72590990Y-54614509D01*
X72557318Y-54513494D01*
X72456303Y-54345136D01*
X72355287Y-54244120D01*
X72186928Y-54143105D01*
X72085913Y-54109433D01*
X71951226Y-54109433D01*
X71816539Y-54176777D01*
X71749195Y-54244120D01*
X71681852Y-54378807D01*
X71681852Y-54446151D01*
X71378807Y-54614509D02*
X70907402Y-55085914D01*
X71917555Y-55489975D01*
X72363707Y-49740523D02*
X72296362Y-49807867D01*
X72262691Y-49908883D01*
X72262691Y-49976226D01*
X72296362Y-50077241D01*
X72397378Y-50245600D01*
X72565737Y-50413959D01*
X72734095Y-50514974D01*
X72835111Y-50548646D01*
X72902454Y-50548646D01*
X73003469Y-50514974D01*
X73070813Y-50447630D01*
X73104485Y-50346615D01*
X73104485Y-50279271D01*
X73070813Y-50178256D01*
X72969798Y-50009898D01*
X72801439Y-49841538D01*
X72633080Y-49740523D01*
X72532065Y-49706852D01*
X72464722Y-49706852D01*
X72363707Y-49740523D01*
X72464722Y-50919035D02*
X72464722Y-50986378D01*
X72532065Y-50986378D01*
X72532065Y-50919035D01*
X72464722Y-50919035D01*
X72532065Y-50986378D01*
X71824958Y-51693485D02*
X72229020Y-51289424D01*
X72026989Y-51491454D02*
X71319883Y-50784347D01*
X71488241Y-50818019D01*
X71622928Y-50818019D01*
X71723943Y-50784347D01*
X70747462Y-51828172D02*
X71218867Y-52299577D01*
X71050508Y-51525126D02*
X71420898Y-51895515D01*
X71454569Y-51996530D01*
X71420898Y-52097546D01*
X71319882Y-52198562D01*
X71218867Y-52232233D01*
X71151523Y-52232233D01*
X70511760Y-52063874D02*
X70242386Y-52333248D01*
X70882150Y-52636294D02*
X70276058Y-52030202D01*
X70175043Y-51996530D01*
X70074028Y-52030202D01*
X70006684Y-52097546D01*
X70006683Y-54050508D02*
X70006683Y-53983164D01*
X69973012Y-53814805D01*
X69939340Y-53713790D01*
X69871997Y-53579103D01*
X69737310Y-53377073D01*
X69602622Y-53242385D01*
X69400592Y-53107699D01*
X69265905Y-53040355D01*
X69164890Y-53006683D01*
X68996531Y-52973012D01*
X68929187Y-52973012D01*
X69366920Y-54151523D02*
X69400592Y-54050508D01*
X69400592Y-53983165D01*
X69366920Y-53882150D01*
X69164889Y-53680118D01*
X69063874Y-53646447D01*
X68996530Y-53646447D01*
X68895515Y-53680118D01*
X68794499Y-53781134D01*
X68760828Y-53882150D01*
X68760828Y-53949493D01*
X68794499Y-54050508D01*
X68996530Y-54252539D01*
X69097546Y-54286211D01*
X69164889Y-54286211D01*
X69265904Y-54252539D01*
X69366920Y-54151523D01*
X68356767Y-54218867D02*
X69063874Y-54925973D01*
X68390439Y-54252538D02*
X68289424Y-54286210D01*
X68154736Y-54420898D01*
X68121064Y-54521913D01*
X68121064Y-54589256D01*
X68154736Y-54690271D01*
X68356767Y-54892302D01*
X68457782Y-54925974D01*
X68525126Y-54925974D01*
X68626141Y-54892302D01*
X68760828Y-54757615D01*
X68794500Y-54656600D01*
X67818019Y-54757615D02*
X67548645Y-55026989D01*
X67481302Y-54622928D02*
X68087393Y-55229020D01*
X68121065Y-55330035D01*
X68087393Y-55431050D01*
X68020050Y-55498393D01*
X67717004Y-55666753D02*
X67717004Y-55734096D01*
X67784347Y-55734096D01*
X67784347Y-55666753D01*
X67717004Y-55666753D01*
X67784347Y-55734096D01*
X67784347Y-56272844D02*
X67717004Y-56272844D01*
X67548645Y-56239172D01*
X67447630Y-56205500D01*
X67312943Y-56138157D01*
X67110913Y-56003470D01*
X66976225Y-55868782D01*
X66841538Y-55666752D01*
X66774195Y-55532065D01*
X66740523Y-55431050D01*
X66706852Y-55262691D01*
X66706852Y-55195348D01*
X79577870Y-36328749D02*
X79701904Y-37032183D01*
X79773608Y-37164601D01*
X79883937Y-37241854D01*
X80032892Y-37263943D01*
X80126684Y-37247405D01*
X78766710Y-37487205D02*
X79329458Y-37387977D01*
X79048085Y-37437591D02*
X78874436Y-36452783D01*
X78993034Y-36576932D01*
X79103363Y-36654185D01*
X79205424Y-36684543D01*
X87798971Y-62636345D02*
X88783778Y-62462697D01*
X88742434Y-62228219D01*
X88670731Y-62095801D01*
X88560402Y-62018547D01*
X88458342Y-61988190D01*
X88262491Y-61974370D01*
X88121803Y-61999177D01*
X87942490Y-62079148D01*
X87856968Y-62142582D01*
X87779714Y-62252911D01*
X87757626Y-62401868D01*
X87798971Y-62636345D01*
X87606066Y-61268103D02*
X87575708Y-61370163D01*
X87608784Y-61557746D01*
X87672218Y-61643269D01*
X87774278Y-61673626D01*
X88149443Y-61607475D01*
X88234966Y-61544041D01*
X88265323Y-61441981D01*
X88232247Y-61254398D01*
X88168814Y-61168876D01*
X88066754Y-61138518D01*
X87972962Y-61155056D01*
X87961860Y-61640550D01*
X88149558Y-60785442D02*
X87451674Y-60666730D01*
X88066868Y-60316486D01*
X87211874Y-59306757D02*
X88196682Y-59133108D01*
X87821517Y-59199260D02*
X87851875Y-59097200D01*
X87818799Y-58909617D01*
X87755366Y-58824095D01*
X87700201Y-58785468D01*
X87598141Y-58755110D01*
X87316767Y-58804724D01*
X87231245Y-58868158D01*
X87192618Y-58923322D01*
X87162260Y-59025382D01*
X87195336Y-59212965D01*
X87258770Y-59298488D01*
X87054764Y-58415740D02*
X87711303Y-58299974D01*
X87523721Y-58333050D02*
X87609243Y-58269617D01*
X87647869Y-58214452D01*
X87678227Y-58112392D01*
X87661689Y-58018600D01*
X86928011Y-57422662D02*
X86897653Y-57524722D01*
X86930729Y-57712306D01*
X86994163Y-57797828D01*
X87096223Y-57828185D01*
X87471388Y-57762034D01*
X87556911Y-57698600D01*
X87587268Y-57596540D01*
X87554192Y-57408957D01*
X87490759Y-57323435D01*
X87388699Y-57293077D01*
X87294907Y-57309615D01*
X87283805Y-57795110D01*
X86724005Y-56539915D02*
X87239857Y-56448956D01*
X87341918Y-56479314D01*
X87405351Y-56564836D01*
X87438427Y-56752419D01*
X87408069Y-56854479D01*
X86770901Y-56531646D02*
X86740543Y-56633706D01*
X86781888Y-56868185D01*
X86845322Y-56953707D01*
X86947382Y-56984064D01*
X87041173Y-56967526D01*
X87126695Y-56904093D01*
X87157053Y-56802033D01*
X87115708Y-56567554D01*
X87146065Y-56465494D01*
X86641316Y-56070959D02*
X87626124Y-55897311D01*
X86999942Y-55911016D02*
X86575164Y-55695794D01*
X87231703Y-55580028D02*
X86922689Y-56021345D01*
X86475937Y-55133047D02*
X86539370Y-55218569D01*
X86594535Y-55257196D01*
X86696595Y-55287553D01*
X86977969Y-55237939D01*
X87063491Y-55174506D01*
X87102118Y-55119341D01*
X87132475Y-55017281D01*
X87107668Y-54876594D01*
X87044235Y-54791071D01*
X86989070Y-54752445D01*
X86887010Y-54722087D01*
X86605636Y-54771701D01*
X86520114Y-54835135D01*
X86481487Y-54890299D01*
X86451130Y-54992359D01*
X86475937Y-55133047D01*
X86925751Y-53844890D02*
X86269212Y-53960656D01*
X87000172Y-54266951D02*
X86484320Y-54357910D01*
X86382260Y-54327552D01*
X86318826Y-54242030D01*
X86294019Y-54101343D01*
X86324377Y-53999282D01*
X86363004Y-53944118D01*
X86867869Y-53516621D02*
X86801717Y-53141457D01*
X87171331Y-53318052D02*
X86327210Y-53466893D01*
X86225149Y-53436536D01*
X86161716Y-53351014D01*
X86145178Y-53257222D01*
X85530213Y-51963400D02*
X85585378Y-52002027D01*
X85742603Y-52071012D01*
X85844663Y-52101369D01*
X85993618Y-52123458D01*
X86236365Y-52129009D01*
X86423948Y-52095933D01*
X86650157Y-52007693D01*
X86782575Y-51935990D01*
X86868097Y-51872557D01*
X86992246Y-51753959D01*
X87030872Y-51698793D01*
X85814419Y-51381397D02*
X85877853Y-51466919D01*
X85933017Y-51505546D01*
X86035078Y-51535903D01*
X86316452Y-51486290D01*
X86401974Y-51422856D01*
X86440601Y-51367692D01*
X86470958Y-51265632D01*
X86446151Y-51124944D01*
X86382718Y-51039422D01*
X86327553Y-51000795D01*
X86225493Y-50970437D01*
X85944119Y-51020051D01*
X85858597Y-51083485D01*
X85819970Y-51138649D01*
X85789612Y-51240709D01*
X85814419Y-51381397D01*
X86338655Y-50515302D02*
X85353847Y-50688950D01*
X86291759Y-50523571D02*
X86322117Y-50421510D01*
X86289041Y-50233927D01*
X86225608Y-50148405D01*
X86170443Y-50109778D01*
X86068383Y-50079421D01*
X85787009Y-50129035D01*
X85701486Y-50192468D01*
X85662860Y-50247633D01*
X85632502Y-50349693D01*
X85665578Y-50537276D01*
X85729012Y-50622798D01*
X86206351Y-49764972D02*
X86140200Y-49389807D01*
X86509814Y-49566402D02*
X85665692Y-49715244D01*
X85563632Y-49684886D01*
X85500199Y-49599364D01*
X85483661Y-49505573D01*
X85519569Y-49160765D02*
X85464405Y-49122138D01*
X85425778Y-49177303D01*
X85480943Y-49215929D01*
X85519569Y-49160765D01*
X85425778Y-49177303D01*
X84984462Y-48868290D02*
X85023089Y-48813125D01*
X85147237Y-48694527D01*
X85232760Y-48631094D01*
X85365177Y-48559392D01*
X85591386Y-48471151D01*
X85778969Y-48438075D01*
X86021716Y-48443626D01*
X86170672Y-48465715D01*
X86272732Y-48496072D01*
X86429956Y-48565057D01*
X86485121Y-48603683D01*
X39166666Y-21902381D02*
X39500000Y-21426190D01*
X39738095Y-21902381D02*
X39738095Y-20902381D01*
X39357142Y-20902381D01*
X39261904Y-20950000D01*
X39214285Y-20997619D01*
X39166666Y-21092857D01*
X39166666Y-21235714D01*
X39214285Y-21330952D01*
X39261904Y-21378571D01*
X39357142Y-21426190D01*
X39738095Y-21426190D01*
X38214285Y-21902381D02*
X38785714Y-21902381D01*
X38500000Y-21902381D02*
X38500000Y-20902381D01*
X38595238Y-21045238D01*
X38690476Y-21140476D01*
X38785714Y-21188095D01*
X39595238Y-18902381D02*
X40166667Y-18902381D01*
X39880953Y-18902381D02*
X39880953Y-17902381D01*
X39976191Y-18045238D01*
X40071429Y-18140476D01*
X40166667Y-18188095D01*
X38976191Y-17902381D02*
X38880952Y-17902381D01*
X38785714Y-17950000D01*
X38738095Y-17997619D01*
X38690476Y-18092857D01*
X38642857Y-18283333D01*
X38642857Y-18521429D01*
X38690476Y-18711905D01*
X38738095Y-18807143D01*
X38785714Y-18854762D01*
X38880952Y-18902381D01*
X38976191Y-18902381D01*
X39071429Y-18854762D01*
X39119048Y-18807143D01*
X39166667Y-18711905D01*
X39214286Y-18521429D01*
X39214286Y-18283333D01*
X39166667Y-18092857D01*
X39119048Y-17997619D01*
X39071429Y-17950000D01*
X38976191Y-17902381D01*
X38214286Y-18902381D02*
X38214286Y-17902381D01*
X38119048Y-18521429D02*
X37833333Y-18902381D01*
X37833333Y-18235714D02*
X38214286Y-18616667D01*
X56229019Y-82343401D02*
X56161675Y-82478088D01*
X55993316Y-82646447D01*
X55892301Y-82680119D01*
X55824957Y-82680119D01*
X55723942Y-82646447D01*
X55656599Y-82579104D01*
X55622927Y-82478089D01*
X55622927Y-82410745D01*
X55656598Y-82309729D01*
X55757614Y-82141370D01*
X55791286Y-82040355D01*
X55791286Y-81973012D01*
X55757614Y-81871996D01*
X55690271Y-81804653D01*
X55589255Y-81770981D01*
X55521912Y-81770981D01*
X55420897Y-81804653D01*
X55252538Y-81973012D01*
X55185194Y-82107699D01*
X54915820Y-82309729D02*
X55454569Y-83185195D01*
X54814804Y-82814806D01*
X55185194Y-83454569D01*
X54309729Y-82915821D01*
X54377072Y-84262691D02*
X54781133Y-83858630D01*
X54579103Y-84060660D02*
X53871996Y-83353553D01*
X54040355Y-83387225D01*
X54175042Y-83387225D01*
X54276057Y-83353553D01*
X65229020Y-78843401D02*
X65161676Y-78978088D01*
X64993317Y-79146447D01*
X64892302Y-79180119D01*
X64824958Y-79180119D01*
X64723943Y-79146447D01*
X64656600Y-79079104D01*
X64622928Y-78978089D01*
X64622928Y-78910745D01*
X64656599Y-78809729D01*
X64757615Y-78641370D01*
X64791287Y-78540355D01*
X64791287Y-78473012D01*
X64757615Y-78371996D01*
X64690272Y-78304653D01*
X64589256Y-78270981D01*
X64521913Y-78270981D01*
X64420898Y-78304653D01*
X64252539Y-78473012D01*
X64185195Y-78607699D01*
X63915821Y-78809729D02*
X64454570Y-79685195D01*
X63814805Y-79314806D01*
X64185195Y-79954569D01*
X63309730Y-79415821D01*
X63141371Y-79718867D02*
X63074028Y-79718867D01*
X62973013Y-79752538D01*
X62804653Y-79920898D01*
X62770982Y-80021913D01*
X62770982Y-80089256D01*
X62804653Y-80190271D01*
X62871997Y-80257615D01*
X63006684Y-80324958D01*
X63814806Y-80324958D01*
X63377073Y-80762691D01*
X72229019Y-71343401D02*
X72161675Y-71478088D01*
X71993316Y-71646447D01*
X71892301Y-71680119D01*
X71824957Y-71680119D01*
X71723942Y-71646447D01*
X71656599Y-71579104D01*
X71622927Y-71478089D01*
X71622927Y-71410745D01*
X71656598Y-71309729D01*
X71757614Y-71141370D01*
X71791286Y-71040355D01*
X71791286Y-70973012D01*
X71757614Y-70871996D01*
X71690271Y-70804653D01*
X71589255Y-70770981D01*
X71521912Y-70770981D01*
X71420897Y-70804653D01*
X71252538Y-70973012D01*
X71185194Y-71107699D01*
X70915820Y-71309729D02*
X71454569Y-72185195D01*
X70814804Y-71814806D01*
X71185194Y-72454569D01*
X70309729Y-71915821D01*
X70107698Y-72117851D02*
X69669965Y-72555584D01*
X70175042Y-72589255D01*
X70074026Y-72690271D01*
X70040354Y-72791286D01*
X70040354Y-72858630D01*
X70074027Y-72959646D01*
X70242385Y-73128004D01*
X70343400Y-73161676D01*
X70410744Y-73161676D01*
X70511759Y-73128004D01*
X70713790Y-72925973D01*
X70747462Y-72824958D01*
X70747462Y-72757615D01*
X76229019Y-62343401D02*
X76161675Y-62478088D01*
X75993316Y-62646447D01*
X75892301Y-62680119D01*
X75824957Y-62680119D01*
X75723942Y-62646447D01*
X75656599Y-62579104D01*
X75622927Y-62478089D01*
X75622927Y-62410745D01*
X75656598Y-62309729D01*
X75757614Y-62141370D01*
X75791286Y-62040355D01*
X75791286Y-61973012D01*
X75757614Y-61871996D01*
X75690271Y-61804653D01*
X75589255Y-61770981D01*
X75521912Y-61770981D01*
X75420897Y-61804653D01*
X75252538Y-61973012D01*
X75185194Y-62107699D01*
X74915820Y-62309729D02*
X75454569Y-63185195D01*
X74814804Y-62814806D01*
X75185194Y-63454569D01*
X74309729Y-62915821D01*
X73973011Y-63723943D02*
X74444416Y-64195348D01*
X73871996Y-63286210D02*
X74545431Y-63622928D01*
X74107698Y-64060661D01*
X26948349Y-34677114D02*
X27015692Y-34677114D01*
X27150379Y-34609770D01*
X27217723Y-34542427D01*
X27285067Y-34407739D01*
X27285067Y-34273052D01*
X27251395Y-34172037D01*
X27150380Y-34003679D01*
X27049364Y-33902663D01*
X26881005Y-33801648D01*
X26779990Y-33767976D01*
X26645303Y-33767976D01*
X26510616Y-33835320D01*
X26443272Y-33902663D01*
X26375929Y-34037350D01*
X26375929Y-34104694D01*
X26207570Y-34744456D02*
X26241242Y-34643441D01*
X26241242Y-34576098D01*
X26207570Y-34475083D01*
X26173899Y-34441411D01*
X26072884Y-34407739D01*
X26005540Y-34407739D01*
X25904525Y-34441411D01*
X25769837Y-34576098D01*
X25736166Y-34677114D01*
X25736166Y-34744457D01*
X25769837Y-34845472D01*
X25803509Y-34879144D01*
X25904524Y-34912816D01*
X25971868Y-34912816D01*
X26072883Y-34879144D01*
X26207570Y-34744456D01*
X26308586Y-34710785D01*
X26375929Y-34710785D01*
X26476945Y-34744457D01*
X26611632Y-34879144D01*
X26645303Y-34980159D01*
X26645303Y-35047502D01*
X26611632Y-35148518D01*
X26476944Y-35283205D01*
X26375929Y-35316877D01*
X26308586Y-35316877D01*
X26207570Y-35283205D01*
X26072884Y-35148518D01*
X26039211Y-35047502D01*
X26039211Y-34980159D01*
X26072883Y-34879144D01*
X26021704Y-28497673D02*
X26425765Y-28093612D01*
X26223735Y-28295642D02*
X25516628Y-27588536D01*
X25684987Y-27622207D01*
X25819674Y-27622207D01*
X25920689Y-27588536D01*
X24876865Y-28228299D02*
X24809521Y-28295643D01*
X24775849Y-28396658D01*
X24775849Y-28464002D01*
X24809521Y-28565017D01*
X24910536Y-28733376D01*
X25078895Y-28901735D01*
X25247254Y-29002750D01*
X25348269Y-29036422D01*
X25415612Y-29036422D01*
X25516627Y-29002750D01*
X25583972Y-28935406D01*
X25617643Y-28834391D01*
X25617643Y-28767047D01*
X25583972Y-28666032D01*
X25482956Y-28497673D01*
X25314597Y-28329314D01*
X25146238Y-28228299D01*
X25045223Y-28194627D01*
X24977880Y-28194627D01*
X24876865Y-28228299D01*
X24203430Y-28901734D02*
X24136086Y-28969078D01*
X24102414Y-29070093D01*
X24102414Y-29137437D01*
X24136086Y-29238452D01*
X24237101Y-29406811D01*
X24405460Y-29575170D01*
X24573819Y-29676185D01*
X24674834Y-29709857D01*
X24742177Y-29709857D01*
X24843192Y-29676185D01*
X24910536Y-29608841D01*
X24944208Y-29507826D01*
X24944208Y-29440482D01*
X24910536Y-29339467D01*
X24809521Y-29171109D01*
X24641162Y-29002749D01*
X24472803Y-28901734D01*
X24371788Y-28868062D01*
X24304445Y-28868062D01*
X24203430Y-28901734D01*
X23597337Y-29979230D02*
X24068742Y-30450635D01*
X23900384Y-29676184D02*
X24270773Y-30046574D01*
X24304445Y-30147589D01*
X24270773Y-30248604D01*
X24169757Y-30349620D01*
X24068742Y-30383292D01*
X24001399Y-30383292D01*
X23361635Y-30214933D02*
X23092262Y-30484306D01*
X23732025Y-30787352D02*
X23125933Y-30181261D01*
X23024918Y-30147589D01*
X22923903Y-30181261D01*
X22856560Y-30248604D01*
X22856558Y-32201567D02*
X22856559Y-32134223D01*
X22822887Y-31965864D01*
X22789215Y-31864849D01*
X22721872Y-31730162D01*
X22587185Y-31528132D01*
X22452498Y-31393444D01*
X22250467Y-31258757D01*
X22115780Y-31191414D01*
X22014765Y-31157742D01*
X21846407Y-31124070D01*
X21779062Y-31124071D01*
X22216796Y-32302582D02*
X22250467Y-32201567D01*
X22250467Y-32134223D01*
X22216796Y-32033208D01*
X22014764Y-31831177D01*
X21913749Y-31797505D01*
X21846406Y-31797505D01*
X21745391Y-31831177D01*
X21644375Y-31932193D01*
X21610703Y-32033208D01*
X21610703Y-32100552D01*
X21644375Y-32201567D01*
X21846406Y-32403598D01*
X21947421Y-32437269D01*
X22014764Y-32437269D01*
X22115780Y-32403598D01*
X22216796Y-32302582D01*
X21206643Y-32369925D02*
X21913749Y-33077032D01*
X21240314Y-32403597D02*
X21139299Y-32437269D01*
X21004612Y-32571956D01*
X20970940Y-32672971D01*
X20970940Y-32740315D01*
X21004612Y-32841330D01*
X21206643Y-33043361D01*
X21307658Y-33077033D01*
X21375001Y-33077033D01*
X21476016Y-33043361D01*
X21610704Y-32908673D01*
X21644376Y-32807658D01*
X20667894Y-32908673D02*
X20398521Y-33178047D01*
X20331177Y-32773987D02*
X20937269Y-33380078D01*
X20970941Y-33481093D01*
X20937269Y-33582109D01*
X20869925Y-33649452D01*
X20566879Y-33817811D02*
X20566879Y-33885155D01*
X20634223Y-33885155D01*
X20634223Y-33817811D01*
X20566879Y-33817811D01*
X20634223Y-33885155D01*
X20634223Y-34423902D02*
X20566879Y-34423902D01*
X20398521Y-34390230D01*
X20297505Y-34356559D01*
X20162819Y-34289215D01*
X19960788Y-34154528D01*
X19826101Y-34019841D01*
X19691414Y-33817811D01*
X19624070Y-33683124D01*
X19590399Y-33582109D01*
X19556727Y-33413750D01*
X19556727Y-33346407D01*
X39348477Y-53877073D02*
X39853553Y-54382149D01*
X39988241Y-54449492D01*
X40122928Y-54449492D01*
X40257615Y-54382149D01*
X40324958Y-54314805D01*
X39112775Y-54247462D02*
X39045431Y-54247462D01*
X38944416Y-54281133D01*
X38776057Y-54449493D01*
X38742385Y-54550508D01*
X38742385Y-54617851D01*
X38776057Y-54718867D01*
X38843400Y-54786210D01*
X38978087Y-54853553D01*
X39786210Y-54853553D01*
X39348477Y-55291286D01*
X42782996Y-53442553D02*
X43254401Y-54385362D01*
X42311592Y-53913958D01*
X42311592Y-55193485D02*
X42378935Y-55193485D01*
X42513622Y-55126141D01*
X42580965Y-55058798D01*
X42648310Y-54924110D01*
X42648310Y-54789424D01*
X42614638Y-54688408D01*
X42513623Y-54520050D01*
X42412607Y-54419034D01*
X42244248Y-54318019D01*
X42143233Y-54284347D01*
X42008546Y-54284347D01*
X41873859Y-54351691D01*
X41806515Y-54419035D01*
X41739172Y-54553722D01*
X41739172Y-54621065D01*
X41604485Y-55900592D02*
X41671828Y-55900592D01*
X41806515Y-55833248D01*
X41873859Y-55765905D01*
X41941203Y-55631217D01*
X41941203Y-55496530D01*
X41907531Y-55395515D01*
X41806516Y-55227157D01*
X41705500Y-55126141D01*
X41537141Y-55025126D01*
X41436126Y-54991454D01*
X41301439Y-54991454D01*
X41166752Y-55058798D01*
X41099408Y-55126141D01*
X41032065Y-55260828D01*
X41032065Y-55328172D01*
X40897377Y-57281133D02*
X40897378Y-57213789D01*
X40863706Y-57045431D01*
X40830035Y-56944416D01*
X40762691Y-56809729D01*
X40628004Y-56607698D01*
X40493317Y-56473011D01*
X40291286Y-56338324D01*
X40156600Y-56270981D01*
X40055584Y-56237309D01*
X39887226Y-56203637D01*
X39819882Y-56203638D01*
X40358630Y-57281133D02*
X39887225Y-56809729D01*
X39954569Y-56877072D02*
X39887225Y-56877072D01*
X39786210Y-56910744D01*
X39685194Y-57011760D01*
X39651522Y-57112775D01*
X39685194Y-57213790D01*
X40055584Y-57584180D01*
X39685194Y-57213790D02*
X39584179Y-57180118D01*
X39483164Y-57213790D01*
X39382149Y-57314805D01*
X39348477Y-57415820D01*
X39382149Y-57516836D01*
X39752538Y-57887225D01*
X39112775Y-58526988D02*
X38742385Y-58156599D01*
X38708714Y-58055584D01*
X38742385Y-57954569D01*
X38877073Y-57819881D01*
X38978088Y-57786209D01*
X39079103Y-58493317D02*
X39180118Y-58459645D01*
X39348478Y-58291286D01*
X39382149Y-58190271D01*
X39348478Y-58089255D01*
X39281134Y-58021912D01*
X39180119Y-57988240D01*
X39079104Y-58021912D01*
X38910745Y-58190271D01*
X38809729Y-58223943D01*
X38843401Y-58796362D02*
X38001607Y-58695347D01*
X38371996Y-58324957D02*
X38473012Y-59166752D01*
X36621065Y-59604485D02*
X36957783Y-59267767D01*
X37328172Y-59570812D01*
X37260828Y-59570812D01*
X37159813Y-59604484D01*
X36991454Y-59772843D01*
X36957782Y-59873859D01*
X36957782Y-59941202D01*
X36991455Y-60042218D01*
X37159813Y-60210576D01*
X37260828Y-60244248D01*
X37328172Y-60244248D01*
X37429187Y-60210576D01*
X37597546Y-60042217D01*
X37631218Y-59941202D01*
X37631218Y-59873859D01*
X36385363Y-59840187D02*
X36856768Y-60782996D01*
X35913958Y-60311592D01*
X36722080Y-61456431D02*
X36654737Y-61456431D01*
X36486378Y-61422759D01*
X36385363Y-61389087D01*
X36250676Y-61321744D01*
X36048646Y-61187057D01*
X35913958Y-61052369D01*
X35779271Y-60850339D01*
X35711928Y-60715652D01*
X35678256Y-60614637D01*
X35644584Y-60446278D01*
X35644584Y-60378935D01*
X49348477Y-43877073D02*
X49853553Y-44382149D01*
X49988241Y-44449492D01*
X50122928Y-44449492D01*
X50257615Y-44382149D01*
X50324958Y-44314805D01*
X49079103Y-44146447D02*
X48641370Y-44584180D01*
X49146447Y-44617851D01*
X49045431Y-44718867D01*
X49011759Y-44819882D01*
X49011759Y-44887225D01*
X49045431Y-44988241D01*
X49213790Y-45156600D01*
X49314805Y-45190271D01*
X49382149Y-45190271D01*
X49483164Y-45156600D01*
X49685195Y-44954569D01*
X49718867Y-44853553D01*
X49718867Y-44786210D01*
X49685194Y-46607699D02*
X49718866Y-46506684D01*
X49819881Y-46405669D01*
X49954569Y-46338325D01*
X50089255Y-46338325D01*
X50190271Y-46371996D01*
X50358629Y-46473012D01*
X50459645Y-46574027D01*
X50560660Y-46742386D01*
X50594332Y-46843401D01*
X50594332Y-46978088D01*
X50526988Y-47112776D01*
X50459644Y-47180119D01*
X50324957Y-47247462D01*
X50257614Y-47247462D01*
X50021912Y-47011760D01*
X50156599Y-46877074D01*
X50021912Y-47617851D02*
X49314805Y-46910745D01*
X49617851Y-48021913D01*
X48910744Y-47314806D01*
X49281133Y-48358630D02*
X48574027Y-47651523D01*
X48405668Y-47819882D01*
X48338324Y-47954569D01*
X48338324Y-48089256D01*
X48371996Y-48190271D01*
X48473011Y-48358630D01*
X48574027Y-48459646D01*
X48742385Y-48560661D01*
X48843400Y-48594333D01*
X48978087Y-48594333D01*
X49112775Y-48526988D01*
X49281133Y-48358630D01*
X40498904Y-69269118D02*
X39993828Y-69774194D01*
X39993828Y-69168103D02*
X41104996Y-69875209D01*
X40364217Y-70009897D02*
X40869294Y-69504820D01*
X40869293Y-70110912D02*
X39758126Y-69403805D01*
X39623438Y-70346614D02*
X39556095Y-70481301D01*
X39556095Y-70548645D01*
X39589767Y-70649660D01*
X39690782Y-70750675D01*
X39791797Y-70784347D01*
X39859141Y-70784347D01*
X39960156Y-70750675D01*
X40229530Y-70481301D01*
X39522424Y-69774194D01*
X39286721Y-70009897D01*
X39253049Y-70110912D01*
X39253049Y-70178256D01*
X39286721Y-70279271D01*
X39354064Y-70346614D01*
X39455079Y-70380286D01*
X39522423Y-70380286D01*
X39623438Y-70346614D01*
X39859141Y-70110911D01*
X39219377Y-71491454D02*
X38848988Y-71121064D01*
X38815316Y-71020049D01*
X38848988Y-70919034D01*
X38983675Y-70784346D01*
X39084691Y-70750675D01*
X39185706Y-71457782D02*
X39286721Y-71424110D01*
X39455080Y-71255751D01*
X39488752Y-71154736D01*
X39455080Y-71053721D01*
X39387737Y-70986377D01*
X39286722Y-70952706D01*
X39185706Y-70986377D01*
X39017347Y-71154737D01*
X38916332Y-71188408D01*
X38579614Y-72131217D02*
X37872507Y-71424110D01*
X38545942Y-72097546D02*
X38646958Y-72063874D01*
X38781645Y-71929186D01*
X38815317Y-71828171D01*
X38815317Y-71760828D01*
X38781645Y-71659813D01*
X38579614Y-71457782D01*
X38478599Y-71424110D01*
X38411255Y-71424110D01*
X38310240Y-71457782D01*
X38175553Y-71592469D01*
X38141881Y-71693484D01*
X37468446Y-72299576D02*
X38040866Y-72871996D01*
X38141881Y-72905667D01*
X38209224Y-72905667D01*
X38310240Y-72871995D01*
X38411255Y-72770980D01*
X38444927Y-72669965D01*
X37906179Y-72737309D02*
X38007194Y-72703637D01*
X38141882Y-72568950D01*
X38175553Y-72467934D01*
X38175553Y-72400591D01*
X38141882Y-72299576D01*
X37939851Y-72097545D01*
X37838836Y-72063873D01*
X37771492Y-72063873D01*
X37670477Y-72097545D01*
X37535789Y-72232232D01*
X37502118Y-72333248D01*
X37300087Y-73343401D02*
X37401103Y-73309729D01*
X37535790Y-73175041D01*
X37569462Y-73074026D01*
X37535790Y-72973011D01*
X37266416Y-72703636D01*
X37165401Y-72669965D01*
X37064385Y-72703636D01*
X36929698Y-72838324D01*
X36896026Y-72939339D01*
X36929698Y-73040354D01*
X36997042Y-73107699D01*
X37401103Y-72838324D01*
X36896027Y-73814805D02*
X36929698Y-73713789D01*
X36896027Y-73612774D01*
X36289935Y-73006683D01*
X36626652Y-74084179D02*
X36155248Y-73612774D01*
X35919546Y-73377072D02*
X35986889Y-73377072D01*
X35986889Y-73444416D01*
X35919546Y-73444416D01*
X35919546Y-73377072D01*
X35986889Y-73444416D01*
X35919546Y-73848476D02*
X35650172Y-74117850D01*
X36289935Y-74420896D02*
X35683844Y-73814805D01*
X35582828Y-73781133D01*
X35481813Y-73814805D01*
X35414470Y-73882148D01*
X35582828Y-75060660D02*
X35683843Y-75026989D01*
X35818530Y-74892301D01*
X35852202Y-74791286D01*
X35818530Y-74690271D01*
X35549156Y-74420896D01*
X35448141Y-74387224D01*
X35347126Y-74420896D01*
X35212438Y-74555584D01*
X35178766Y-74656599D01*
X35212438Y-74757614D01*
X35279782Y-74824958D01*
X35683844Y-74555584D01*
X34741034Y-75902454D02*
X34673691Y-76037141D01*
X34505331Y-76205500D01*
X34404316Y-76239172D01*
X34336973Y-76239172D01*
X34235958Y-76205500D01*
X34168614Y-76138157D01*
X34134942Y-76037141D01*
X34134942Y-75969798D01*
X34168613Y-75868782D01*
X34269629Y-75700423D01*
X34303301Y-75599408D01*
X34303301Y-75532064D01*
X34269629Y-75431049D01*
X34202286Y-75363706D01*
X34101271Y-75330034D01*
X34033927Y-75330034D01*
X33932912Y-75363706D01*
X33764553Y-75532065D01*
X33697209Y-75666752D01*
X34067599Y-76643232D02*
X33360492Y-75936126D01*
X33764553Y-76946279D02*
X33394163Y-76575889D01*
X33360491Y-76474874D01*
X33394163Y-76373859D01*
X33495179Y-76272843D01*
X33596194Y-76239171D01*
X33663538Y-76239171D01*
X33427836Y-77282996D02*
X32956431Y-76811591D01*
X32720729Y-76575889D02*
X32788072Y-76575889D01*
X32788072Y-76643232D01*
X32720729Y-76643232D01*
X32720729Y-76575889D01*
X32788072Y-76643232D01*
X32720729Y-77047293D02*
X32451355Y-77316667D01*
X32384012Y-76912606D02*
X32990103Y-77518698D01*
X33023775Y-77619713D01*
X32990103Y-77720728D01*
X32922760Y-77788072D01*
X32316667Y-77451354D02*
X32047294Y-77720728D01*
X31979950Y-77316667D02*
X32586042Y-77922759D01*
X32619714Y-78023774D01*
X32586042Y-78124789D01*
X32518698Y-78192133D01*
X31878934Y-77889087D02*
X32181981Y-78528851D01*
X31542217Y-78225805D02*
X32181981Y-78528851D01*
X32417683Y-78629866D01*
X32485026Y-78629866D01*
X32586041Y-78596194D01*
X31037141Y-79269630D02*
X30700423Y-79606348D01*
X31306515Y-79404317D02*
X30363706Y-78932912D01*
X30835110Y-79875722D01*
X30296362Y-80414470D02*
X29589255Y-79707363D01*
X30262690Y-80380798D02*
X30363705Y-80347126D01*
X30498393Y-80212439D01*
X30532064Y-80111424D01*
X30532064Y-80044080D01*
X30498393Y-79943065D01*
X30296362Y-79741034D01*
X30195346Y-79707362D01*
X30128003Y-79707362D01*
X30026988Y-79741034D01*
X29892300Y-79875722D01*
X29858629Y-79976737D01*
X29656598Y-81054233D02*
X28949491Y-80347126D01*
X29622927Y-81020561D02*
X29723942Y-80986890D01*
X29858629Y-80852202D01*
X29892301Y-80751187D01*
X29892301Y-80683844D01*
X29858629Y-80582828D01*
X29656598Y-80380797D01*
X29555583Y-80347126D01*
X29488240Y-80347126D01*
X29387224Y-80380797D01*
X29252537Y-80515485D01*
X29218865Y-80616500D01*
X28478087Y-80818530D02*
X28343400Y-80953218D01*
X28309728Y-81054233D01*
X28309728Y-81188920D01*
X28410743Y-81357279D01*
X28646446Y-81592981D01*
X28814805Y-81693996D01*
X28949491Y-81693996D01*
X29050507Y-81660325D01*
X29185194Y-81525637D01*
X29218866Y-81424622D01*
X29218866Y-81289935D01*
X29117851Y-81121577D01*
X28882148Y-80885874D01*
X28713789Y-80784859D01*
X28579103Y-80784859D01*
X28478087Y-80818530D01*
X28107698Y-81660324D02*
X28579103Y-82131729D01*
X28175041Y-81727667D02*
X28107698Y-81727667D01*
X28006683Y-81761339D01*
X27905667Y-81862355D01*
X27871995Y-81963370D01*
X27905667Y-82064385D01*
X28276056Y-82434775D01*
X27467934Y-83781645D02*
X27467934Y-83714301D01*
X27434263Y-83545942D01*
X27400591Y-83444927D01*
X27333248Y-83310240D01*
X27198561Y-83108210D01*
X27063873Y-82973522D01*
X26861843Y-82838836D01*
X26727156Y-82771492D01*
X26626141Y-82737820D01*
X26457782Y-82704149D01*
X26390438Y-82704149D01*
X26828171Y-83882660D02*
X26861843Y-83781645D01*
X26861843Y-83714302D01*
X26828171Y-83613286D01*
X26626140Y-83411255D01*
X26525125Y-83377584D01*
X26457782Y-83377584D01*
X26356766Y-83411255D01*
X26255750Y-83512271D01*
X26222079Y-83613286D01*
X26222079Y-83680630D01*
X26255750Y-83781645D01*
X26457782Y-83983676D01*
X26558797Y-84017348D01*
X26626140Y-84017348D01*
X26727155Y-83983676D01*
X26828171Y-83882660D01*
X25818018Y-83950004D02*
X26525125Y-84657110D01*
X25851690Y-83983675D02*
X25750675Y-84017347D01*
X25615987Y-84152035D01*
X25582315Y-84253050D01*
X25582315Y-84320393D01*
X25615987Y-84421408D01*
X25818018Y-84623439D01*
X25919033Y-84657111D01*
X25986377Y-84657111D01*
X26087392Y-84623439D01*
X26222079Y-84488752D01*
X26255751Y-84387737D01*
X25279270Y-84488752D02*
X25009896Y-84758126D01*
X24942553Y-84354065D02*
X25548644Y-84960157D01*
X25582316Y-85061172D01*
X25548644Y-85162187D01*
X25481301Y-85229530D01*
X25178255Y-85397890D02*
X25178255Y-85465233D01*
X25245598Y-85465233D01*
X25245598Y-85397890D01*
X25178255Y-85397890D01*
X25245598Y-85465233D01*
X25245598Y-86003981D02*
X25178255Y-86003981D01*
X25009896Y-85970309D01*
X24908881Y-85936637D01*
X24774194Y-85869294D01*
X24572164Y-85734607D01*
X24437476Y-85599919D01*
X24302789Y-85397889D01*
X24235446Y-85263202D01*
X24201774Y-85162187D01*
X24168103Y-84993828D01*
X24168103Y-84926485D01*
D10*
X29730676Y-69851640D02*
X29683536Y-69945921D01*
X29565685Y-70063773D01*
X29494974Y-70087343D01*
X29447834Y-70087343D01*
X29377123Y-70063772D01*
X29329983Y-70016632D01*
X29306412Y-69945921D01*
X29306412Y-69898781D01*
X29329982Y-69828070D01*
X29400693Y-69710219D01*
X29424264Y-69639509D01*
X29424263Y-69592368D01*
X29400694Y-69521657D01*
X29353553Y-69474517D01*
X29282842Y-69450947D01*
X29235702Y-69450947D01*
X29164991Y-69474517D01*
X29047140Y-69592368D01*
X29000000Y-69686649D01*
X29259272Y-70370186D02*
X28764297Y-69875211D01*
X28646446Y-69993062D01*
X28599306Y-70087343D01*
X28599306Y-70181624D01*
X28622876Y-70252334D01*
X28693586Y-70370186D01*
X28764297Y-70440897D01*
X28882148Y-70511607D01*
X28952859Y-70535177D01*
X29047140Y-70535177D01*
X29141421Y-70488037D01*
X29259272Y-70370186D01*
X28646446Y-70700169D02*
X28410744Y-70935871D01*
X28835008Y-70794450D02*
X28175042Y-70464467D01*
X28505025Y-71124433D01*
X33537269Y-73681802D02*
X33490129Y-73776083D01*
X33372277Y-73893934D01*
X33301566Y-73917504D01*
X33254426Y-73917504D01*
X33183715Y-73893934D01*
X33136575Y-73846794D01*
X33113005Y-73776083D01*
X33113005Y-73728943D01*
X33136575Y-73658232D01*
X33207285Y-73540381D01*
X33230856Y-73469670D01*
X33230855Y-73422530D01*
X33207286Y-73351819D01*
X33160145Y-73304678D01*
X33089434Y-73281108D01*
X33042294Y-73281108D01*
X32971583Y-73304679D01*
X32853733Y-73422530D01*
X32806592Y-73516810D01*
X32735881Y-74436050D02*
X32783021Y-74436049D01*
X32877303Y-74388909D01*
X32924443Y-74341769D01*
X32971583Y-74247488D01*
X32971583Y-74153207D01*
X32948013Y-74082496D01*
X32877303Y-73964645D01*
X32806592Y-73893934D01*
X32688740Y-73823224D01*
X32618030Y-73799654D01*
X32523749Y-73799654D01*
X32429468Y-73846794D01*
X32382328Y-73893934D01*
X32335187Y-73988215D01*
X32335187Y-74035356D01*
X32335187Y-74931024D02*
X32570889Y-74695322D01*
X32075915Y-74200348D01*
X29129636Y-77193766D02*
X29153206Y-77123056D01*
X29223917Y-77052346D01*
X29318197Y-77005205D01*
X29412479Y-77005205D01*
X29483189Y-77028775D01*
X29601041Y-77099486D01*
X29671751Y-77170196D01*
X29742461Y-77288048D01*
X29766032Y-77358758D01*
X29766031Y-77453039D01*
X29718891Y-77547320D01*
X29671751Y-77594460D01*
X29577470Y-77641600D01*
X29530329Y-77641601D01*
X29365338Y-77476610D01*
X29459619Y-77382328D01*
X29365338Y-77900874D02*
X28870363Y-77405899D01*
X29082495Y-78183716D01*
X28587521Y-77688742D01*
X28846793Y-78419418D02*
X28351819Y-77924444D01*
X28233968Y-78042294D01*
X28186827Y-78136575D01*
X28186827Y-78230856D01*
X28210397Y-78301566D01*
X28281108Y-78419418D01*
X28351819Y-78490129D01*
X28469670Y-78560839D01*
X28540381Y-78584410D01*
X28634661Y-78584409D01*
X28728943Y-78537269D01*
X28846793Y-78419418D01*
X25523392Y-73116117D02*
X25216979Y-73422529D01*
X25570532Y-73446099D01*
X25499821Y-73516810D01*
X25476251Y-73587521D01*
X25476251Y-73634661D01*
X25499822Y-73705372D01*
X25617672Y-73823223D01*
X25688383Y-73846793D01*
X25735523Y-73846793D01*
X25806234Y-73823223D01*
X25947656Y-73681802D01*
X25971226Y-73611091D01*
X25971226Y-73563951D01*
X25075557Y-73563951D02*
X25405540Y-74223917D01*
X24745574Y-73893934D01*
X24627723Y-74011785D02*
X24321310Y-74318198D01*
X24674863Y-74341768D01*
X24604152Y-74412479D01*
X24580582Y-74483190D01*
X24580582Y-74530330D01*
X24604153Y-74601041D01*
X24722004Y-74718891D01*
X24792714Y-74742462D01*
X24839854Y-74742462D01*
X24910566Y-74718892D01*
X25051987Y-74577471D01*
X25075557Y-74506759D01*
X25075557Y-74459619D01*
D12*
X18083276Y-59703184D02*
X17746558Y-59366466D01*
X17948589Y-59972558D02*
X18419994Y-59029749D01*
X17477184Y-59501153D01*
X16871093Y-58895061D02*
X17275154Y-59299123D01*
X17073124Y-59097092D02*
X17780231Y-58389985D01*
X17746559Y-58558344D01*
X17746559Y-58693031D01*
X17780231Y-58794046D01*
%LPC*%
D10*
G36*
X64414214Y-28000000D02*
X63000000Y-29414214D01*
X61585786Y-28000000D01*
X63000000Y-26585786D01*
X64414214Y-28000000D01*
X64414214Y-28000000D01*
G37*
D13*
X58403806Y-23403806D03*
D10*
G36*
X13585786Y-66000000D02*
X15000000Y-64585786D01*
X16414214Y-66000000D01*
X15000000Y-67414214D01*
X13585786Y-66000000D01*
X13585786Y-66000000D01*
G37*
D13*
X19596194Y-70596194D03*
D14*
X24050000Y-15000000D03*
X25950000Y-15000000D03*
D10*
G36*
X12169150Y-58644023D02*
X11355977Y-57830850D01*
X12487348Y-56699479D01*
X13300521Y-57512652D01*
X12169150Y-58644023D01*
X12169150Y-58644023D01*
G37*
G36*
X13512652Y-57300521D02*
X12699479Y-56487348D01*
X13830850Y-55355977D01*
X14644023Y-56169150D01*
X13512652Y-57300521D01*
X13512652Y-57300521D01*
G37*
D14*
X8050000Y-29000000D03*
X9950000Y-29000000D03*
D10*
G36*
X45169150Y-80644023D02*
X44355977Y-79830850D01*
X45487348Y-78699479D01*
X46300521Y-79512652D01*
X45169150Y-80644023D01*
X45169150Y-80644023D01*
G37*
G36*
X46512652Y-79300521D02*
X45699479Y-78487348D01*
X46830850Y-77355977D01*
X47644023Y-78169150D01*
X46512652Y-79300521D01*
X46512652Y-79300521D01*
G37*
G36*
X54169150Y-73644023D02*
X53355977Y-72830850D01*
X54487348Y-71699479D01*
X55300521Y-72512652D01*
X54169150Y-73644023D01*
X54169150Y-73644023D01*
G37*
G36*
X55512652Y-72300521D02*
X54699479Y-71487348D01*
X55830850Y-70355977D01*
X56644023Y-71169150D01*
X55512652Y-72300521D01*
X55512652Y-72300521D01*
G37*
G36*
X63169150Y-64644023D02*
X62355977Y-63830850D01*
X63487348Y-62699479D01*
X64300521Y-63512652D01*
X63169150Y-64644023D01*
X63169150Y-64644023D01*
G37*
G36*
X64512652Y-63300521D02*
X63699479Y-62487348D01*
X64830850Y-61355977D01*
X65644023Y-62169150D01*
X64512652Y-63300521D01*
X64512652Y-63300521D01*
G37*
G36*
X70169150Y-55644023D02*
X69355977Y-54830850D01*
X70487348Y-53699479D01*
X71300521Y-54512652D01*
X70169150Y-55644023D01*
X70169150Y-55644023D01*
G37*
G36*
X71512652Y-54300521D02*
X70699479Y-53487348D01*
X71830850Y-52355977D01*
X72644023Y-53169150D01*
X71512652Y-54300521D01*
X71512652Y-54300521D01*
G37*
D15*
X33000000Y-13000000D03*
D16*
X30460000Y-13000000D03*
D10*
G36*
X81851718Y-37783621D02*
X82216379Y-39851718D01*
X80148282Y-40216379D01*
X79783621Y-38148282D01*
X81851718Y-37783621D01*
X81851718Y-37783621D01*
G37*
D17*
X78498588Y-39441066D02*
X78498588Y-39441066D01*
X81441066Y-41501412D02*
X81441066Y-41501412D01*
X78939655Y-41942478D02*
X78939655Y-41942478D01*
X81882133Y-44002823D02*
X81882133Y-44002823D01*
X79380721Y-44443890D02*
X79380721Y-44443890D01*
X82323199Y-46504235D02*
X82323199Y-46504235D01*
X79821787Y-46945301D02*
X79821787Y-46945301D01*
X82764265Y-49005647D02*
X82764265Y-49005647D01*
X80262854Y-49446713D02*
X80262854Y-49446713D01*
X83205332Y-51507058D02*
X83205332Y-51507058D01*
X80703920Y-51948125D02*
X80703920Y-51948125D01*
X83646398Y-54008470D02*
X83646398Y-54008470D01*
X81144987Y-54449537D02*
X81144987Y-54449537D01*
X84087465Y-56509882D02*
X84087465Y-56509882D01*
X81586053Y-56950948D02*
X81586053Y-56950948D01*
X84528531Y-59011294D02*
X84528531Y-59011294D01*
X82027119Y-59452360D02*
X82027119Y-59452360D01*
X84969597Y-61512705D02*
X84969597Y-61512705D01*
X82468186Y-61953772D02*
X82468186Y-61953772D01*
X85410664Y-64014117D02*
X85410664Y-64014117D01*
X82909252Y-64455183D02*
X82909252Y-64455183D01*
X85851730Y-66515529D02*
X85851730Y-66515529D01*
X83350318Y-66956595D02*
X83350318Y-66956595D01*
X86292796Y-69016940D02*
X86292796Y-69016940D01*
X83791385Y-69458007D02*
X83791385Y-69458007D01*
X86733863Y-71518352D02*
X86733863Y-71518352D01*
X84232451Y-71959418D02*
X84232451Y-71959418D01*
X87174929Y-74019764D02*
X87174929Y-74019764D01*
X84673518Y-74460830D02*
X84673518Y-74460830D01*
D18*
X37900000Y-20000000D03*
X40100000Y-20000000D03*
D19*
X5000000Y-23540000D03*
D20*
X5000000Y-21000000D03*
X5000000Y-18460000D03*
D19*
X5024229Y-42060707D03*
D20*
X5024229Y-39520707D03*
X5024229Y-36980707D03*
X5024229Y-34440707D03*
D21*
X54181981Y-87181981D03*
X51000000Y-84000000D03*
X58778175Y-82585786D03*
X55596194Y-79403806D03*
X63181981Y-83181981D03*
X60000000Y-80000000D03*
X67778175Y-78585786D03*
X64596194Y-75403806D03*
X70181981Y-76181981D03*
X67000000Y-73000000D03*
X74778175Y-71585786D03*
X71596194Y-68403806D03*
X74181981Y-67181981D03*
X71000000Y-64000000D03*
X78778175Y-62585786D03*
X75596194Y-59403806D03*
D15*
X42000000Y-14000000D03*
D16*
X39460000Y-14000000D03*
X36920000Y-14000000D03*
D10*
G36*
X12360473Y-13000000D02*
X11000000Y-14360473D01*
X9639527Y-13000000D01*
X11000000Y-11639527D01*
X12360473Y-13000000D01*
X12360473Y-13000000D01*
G37*
D22*
X9203949Y-11203949D03*
X12796051Y-11203949D03*
X11000000Y-9407898D03*
X14592102Y-9407898D03*
X12796051Y-7611846D03*
X16388154Y-7611846D03*
X14592102Y-5815795D03*
D13*
X23000000Y-34500000D03*
X26535534Y-30964466D03*
D10*
G36*
X38000000Y-57484924D02*
X36515076Y-56000000D01*
X38000000Y-54515076D01*
X39484924Y-56000000D01*
X38000000Y-57484924D01*
X38000000Y-57484924D01*
G37*
G36*
X48000000Y-47484924D02*
X46515076Y-46000000D01*
X48000000Y-44515076D01*
X49484924Y-46000000D01*
X48000000Y-47484924D01*
X48000000Y-47484924D01*
G37*
D23*
X29000000Y-72203949D03*
D17*
X30796051Y-74000000D02*
X30796051Y-74000000D01*
X27203949Y-74000000D02*
X27203949Y-74000000D01*
X29000000Y-75796051D02*
X29000000Y-75796051D01*
D24*
X45949331Y-109831598D03*
D10*
G36*
X14485786Y-50100000D02*
X15900000Y-48685786D01*
X17314214Y-50100000D01*
X15900000Y-51514214D01*
X14485786Y-50100000D01*
X14485786Y-50100000D01*
G37*
D25*
X50024973Y-37527641D02*
X50024973Y-37527641D01*
X17696051Y-48303949D02*
X17696051Y-48303949D01*
X48228922Y-39323693D02*
X48228922Y-39323693D01*
X19492102Y-46507898D02*
X19492102Y-46507898D01*
X46432871Y-41119744D02*
X46432871Y-41119744D01*
X21288154Y-44711846D02*
X21288154Y-44711846D01*
X44636820Y-42915795D02*
X44636820Y-42915795D01*
X23084205Y-42915795D02*
X23084205Y-42915795D01*
X42840768Y-44711846D02*
X42840768Y-44711846D01*
X24880256Y-41119744D02*
X24880256Y-41119744D01*
X41044717Y-46507898D02*
X41044717Y-46507898D01*
X26676307Y-39323693D02*
X26676307Y-39323693D01*
X39248666Y-48303949D02*
X39248666Y-48303949D01*
X28472359Y-37527641D02*
X28472359Y-37527641D01*
X37452615Y-50100000D02*
X37452615Y-50100000D01*
X30268410Y-35731590D02*
X30268410Y-35731590D01*
X35656563Y-51896051D02*
X35656563Y-51896051D01*
X32064461Y-33935539D02*
X32064461Y-33935539D01*
X33860512Y-53692102D02*
X33860512Y-53692102D01*
X33860512Y-32139488D02*
X33860512Y-32139488D01*
X32064461Y-55488154D02*
X32064461Y-55488154D01*
X35656563Y-30343437D02*
X35656563Y-30343437D01*
X30268410Y-57284205D02*
X30268410Y-57284205D01*
X37452615Y-28547385D02*
X37452615Y-28547385D01*
X28472359Y-59080256D02*
X28472359Y-59080256D01*
X39248666Y-26751334D02*
X39248666Y-26751334D01*
X26676307Y-60876307D02*
X26676307Y-60876307D01*
X41044717Y-24955283D02*
X41044717Y-24955283D01*
X51821024Y-35731590D02*
X51821024Y-35731590D01*
M02*
