G04 #@! TF.FileFunction,Legend,Top*
%FSLAX46Y46*%
G04 Gerber Fmt 4.6, Leading zero omitted, Abs format (unit mm)*
G04 Created by KiCad (PCBNEW 4.0.7) date 2018 June 15, Friday 20:43:35*
%MOMM*%
%LPD*%
G01*
G04 APERTURE LIST*
%ADD10C,0.100000*%
%ADD11C,0.120000*%
%ADD12C,0.150000*%
%ADD13C,0.010000*%
%ADD14C,0.300000*%
%ADD15C,2.000000*%
%ADD16R,1.400000X1.900000*%
%ADD17R,2.200000X2.200000*%
%ADD18C,2.200000*%
%ADD19C,2.100000*%
%ADD20R,2.432000X2.127200*%
%ADD21O,2.432000X2.127200*%
%ADD22C,2.400000*%
%ADD23C,1.924000*%
%ADD24C,2.100000*%
%ADD25C,2.000000*%
%ADD26C,9.000000*%
%ADD27C,1.300000*%
G04 APERTURE END LIST*
D10*
D11*
X66801902Y-25701903D02*
G75*
G03X66801902Y-25701903I-6099999J0D01*
G01*
X23398096Y-68298097D02*
G75*
G03X23398096Y-68298097I-6099999J0D01*
G01*
X22250000Y-18650000D02*
X22250000Y-11350000D01*
X27750000Y-18650000D02*
X27750000Y-11350000D01*
X27750000Y-11350000D02*
X26600000Y-11350000D01*
X61974517Y-35136396D02*
X67136396Y-29974517D01*
X65863604Y-39025483D02*
X71025483Y-33863604D01*
X71025483Y-33863604D02*
X70212311Y-33050431D01*
X9250000Y-40650000D02*
X9250000Y-33350000D01*
X14750000Y-40650000D02*
X14750000Y-33350000D01*
X14750000Y-33350000D02*
X13600000Y-33350000D01*
X41474517Y-79636396D02*
X46636396Y-74474517D01*
X45363604Y-83525483D02*
X50525483Y-78363604D01*
X50525483Y-78363604D02*
X49712311Y-77550431D01*
X50474517Y-72636396D02*
X55636396Y-67474517D01*
X54363604Y-76525483D02*
X59525483Y-71363604D01*
X59525483Y-71363604D02*
X58712311Y-70550431D01*
X59474517Y-63636396D02*
X64636396Y-58474517D01*
X63363604Y-67525483D02*
X68525483Y-62363604D01*
X68525483Y-62363604D02*
X67712311Y-61550431D01*
X66474517Y-54636396D02*
X71636396Y-49474517D01*
X70363604Y-58525483D02*
X75525483Y-53363604D01*
X75525483Y-53363604D02*
X74712311Y-52550431D01*
X28740000Y-12999538D02*
G75*
G03X34290000Y-14544830I2990000J-462D01*
G01*
X28740000Y-13000462D02*
G75*
G02X34290000Y-11455170I2990000J462D01*
G01*
X34230000Y-13000000D02*
G75*
G03X34230000Y-13000000I-2500000J0D01*
G01*
X34290000Y-14545000D02*
X34290000Y-11455000D01*
D12*
X7270000Y-26690000D02*
X7270000Y-31770000D01*
X4730000Y-26690000D02*
X7270000Y-26690000D01*
X4730000Y-31770000D02*
X4730000Y-26690000D01*
X7270000Y-31770000D02*
X4730000Y-31770000D01*
X7524000Y-34564000D02*
X7524000Y-33040000D01*
X4476000Y-34564000D02*
X7524000Y-34564000D01*
X4476000Y-33040000D02*
X4476000Y-34564000D01*
X7794229Y-49290707D02*
X7794229Y-41670707D01*
X5254229Y-49290707D02*
X5254229Y-41670707D01*
X4974229Y-52110707D02*
X4974229Y-50560707D01*
X7794229Y-41670707D02*
X5254229Y-41670707D01*
X5254229Y-49290707D02*
X7794229Y-49290707D01*
X8074229Y-50560707D02*
X8074229Y-52110707D01*
X8074229Y-52110707D02*
X4974229Y-52110707D01*
D11*
X55596194Y-87181981D02*
X58778175Y-84000000D01*
X51883883Y-85237437D02*
X52944544Y-86298097D01*
X54181981Y-79403806D02*
X51000000Y-82585786D01*
X57894291Y-81348350D02*
X56833631Y-80287689D01*
X64596194Y-83181981D02*
X67778175Y-80000000D01*
X60883883Y-81237437D02*
X61944544Y-82298097D01*
X63181981Y-75403806D02*
X60000000Y-78585786D01*
X66894291Y-77348350D02*
X65833631Y-76287689D01*
X71596194Y-76181981D02*
X74778175Y-73000000D01*
X67883883Y-74237437D02*
X68944544Y-75298097D01*
X70181981Y-68403806D02*
X67000000Y-71585786D01*
X73894291Y-70348350D02*
X72833631Y-69287689D01*
X75596194Y-67181981D02*
X78778175Y-64000000D01*
X71883883Y-65237437D02*
X72944544Y-66298097D01*
X74181981Y-59403806D02*
X71000000Y-62585786D01*
X77894291Y-61348350D02*
X76833631Y-60287689D01*
X36300000Y-11700000D02*
X36300000Y-12900000D01*
X36300000Y-15300000D02*
X36300000Y-15100000D01*
X42300000Y-15300000D02*
X42300000Y-15100000D01*
X36300000Y-11700000D02*
X42300000Y-11700000D01*
X42300000Y-11700000D02*
X42300000Y-12900000D01*
X36300000Y-15300000D02*
X42300000Y-15300000D01*
X41480000Y-10450000D02*
X41880000Y-10450000D01*
X41480000Y-10450000D02*
X41480000Y-10050000D01*
X41480000Y-10450000D02*
X42280000Y-9650000D01*
X40480000Y-10050000D02*
X41280000Y-9250000D01*
X40480000Y-10050000D02*
X40480000Y-9650000D01*
X40480000Y-10050000D02*
X40880000Y-10050000D01*
X41937685Y-11648679D02*
G75*
G03X36760000Y-11700000I-2577685J-1151321D01*
G01*
X9199344Y-5870395D02*
X12971051Y-2098687D01*
X12971051Y-2098687D02*
X20514466Y-9642102D01*
X20514466Y-9642102D02*
X16742759Y-13413810D01*
X16742759Y-13413810D02*
X16742759Y-13413810D01*
X11354605Y-4433554D02*
X12971051Y-6050000D01*
X12971051Y-6050000D02*
X11354605Y-7666446D01*
X11354605Y-7666446D02*
X11354605Y-7666446D01*
X8558705Y-5696447D02*
X29206223Y14951071D01*
X29206223Y14951071D02*
X40131023Y4026272D01*
X40131023Y4026272D02*
X19483505Y-16621246D01*
X19483505Y-16621246D02*
X8558705Y-5696447D01*
X8558705Y-5696447D02*
X8558705Y-5696447D01*
X16742759Y-13413810D02*
X9199344Y-5870395D01*
X9199344Y-5870395D02*
X9199344Y-5870395D01*
D12*
X26288730Y-74848528D02*
G75*
G03X26288730Y-74848528I-400000J0D01*
G01*
D13*
G36*
X67706245Y-28930830D02*
X68306073Y-28973574D01*
X68534082Y-29000489D01*
X69952073Y-29279868D01*
X71372585Y-29723189D01*
X72786661Y-30325452D01*
X74185346Y-31081656D01*
X75559682Y-31986800D01*
X76900716Y-33035883D01*
X78199490Y-34223904D01*
X78586466Y-34613785D01*
X79595903Y-35724529D01*
X80543832Y-36917068D01*
X81436627Y-38203003D01*
X82280662Y-39593934D01*
X83082311Y-41101461D01*
X83847949Y-42737184D01*
X84583948Y-44512703D01*
X85296684Y-46439618D01*
X85645163Y-47460000D01*
X86175514Y-49139268D01*
X86664014Y-50858974D01*
X87103890Y-52588677D01*
X87488371Y-54297936D01*
X87810685Y-55956310D01*
X88064058Y-57533360D01*
X88241719Y-58998644D01*
X88263386Y-59228667D01*
X88331001Y-60094019D01*
X88387479Y-61048962D01*
X88432708Y-62070010D01*
X88466580Y-63133681D01*
X88488986Y-64216489D01*
X88499816Y-65294950D01*
X88498962Y-66345581D01*
X88486314Y-67344897D01*
X88461762Y-68269414D01*
X88425198Y-69095647D01*
X88376512Y-69800114D01*
X88315596Y-70359329D01*
X88315174Y-70362333D01*
X87958237Y-72550701D01*
X87517485Y-74641679D01*
X86996676Y-76621032D01*
X86399568Y-78474524D01*
X85729920Y-80187920D01*
X85707294Y-80240372D01*
X85405661Y-80909091D01*
X85099638Y-81521954D01*
X84773747Y-82100905D01*
X84412507Y-82667888D01*
X84000440Y-83244845D01*
X83522066Y-83853721D01*
X82961905Y-84516458D01*
X82304477Y-85255001D01*
X81723250Y-85888050D01*
X80948169Y-86706164D01*
X80144298Y-87521894D01*
X79332772Y-88315518D01*
X78534723Y-89067312D01*
X77771287Y-89757556D01*
X77063597Y-90366526D01*
X76432788Y-90874501D01*
X76162000Y-91077768D01*
X74501459Y-92191326D01*
X72733705Y-93194924D01*
X70880220Y-94080867D01*
X68962489Y-94841460D01*
X67001995Y-95469008D01*
X65020221Y-95955817D01*
X63038650Y-96294191D01*
X61091333Y-96475775D01*
X60617843Y-96497516D01*
X60041973Y-96518653D01*
X59387514Y-96538774D01*
X58678252Y-96557467D01*
X57937978Y-96574323D01*
X57190480Y-96588929D01*
X56459547Y-96600874D01*
X55768967Y-96609747D01*
X55142530Y-96615137D01*
X54604025Y-96616632D01*
X54177240Y-96613822D01*
X53885964Y-96606295D01*
X53810000Y-96601648D01*
X51361272Y-96365308D01*
X49050610Y-96072368D01*
X46854647Y-95717340D01*
X44750015Y-95294738D01*
X42713344Y-94799074D01*
X40721267Y-94224861D01*
X38750416Y-93566612D01*
X36777423Y-92818841D01*
X35566240Y-92317836D01*
X33997680Y-91621266D01*
X32576489Y-90928621D01*
X31281577Y-90226609D01*
X30091856Y-89501943D01*
X29521999Y-89109908D01*
X66637000Y-89109908D01*
X66902695Y-89112954D01*
X67103484Y-89091125D01*
X67411544Y-89030238D01*
X67772487Y-88941630D01*
X67918695Y-88901190D01*
X68936444Y-88541386D01*
X70000617Y-88037840D01*
X71095973Y-87404515D01*
X72207276Y-86655377D01*
X73319285Y-85804390D01*
X74416761Y-84865519D01*
X75484466Y-83852729D01*
X76507161Y-82779983D01*
X77469606Y-81661247D01*
X78356563Y-80510485D01*
X79152793Y-79341662D01*
X79843057Y-78168742D01*
X80039489Y-77794003D01*
X80268726Y-77317758D01*
X80483203Y-76826062D01*
X80674932Y-76342859D01*
X80835922Y-75892093D01*
X80958182Y-75497710D01*
X81033724Y-75183652D01*
X81054557Y-74973866D01*
X81012691Y-74892294D01*
X81007849Y-74892000D01*
X80938985Y-74914095D01*
X80850210Y-74991946D01*
X80729019Y-75142902D01*
X80562905Y-75384312D01*
X80339362Y-75733527D01*
X80045887Y-76207895D01*
X79970353Y-76331333D01*
X78708188Y-78279650D01*
X77391526Y-80077004D01*
X76007083Y-81736675D01*
X74541574Y-83271941D01*
X72981716Y-84696084D01*
X71314222Y-86022381D01*
X69525810Y-87264111D01*
X68224619Y-88072445D01*
X67809980Y-88321816D01*
X67432313Y-88554290D01*
X67122432Y-88750499D01*
X66911152Y-88891075D01*
X66848667Y-88937232D01*
X66637000Y-89109908D01*
X29521999Y-89109908D01*
X28986239Y-88741331D01*
X27943637Y-87931485D01*
X26942962Y-87059115D01*
X26389118Y-86534507D01*
X25402131Y-85530430D01*
X24550442Y-84568193D01*
X23814228Y-83621731D01*
X23173665Y-82664981D01*
X22608930Y-81671880D01*
X22443202Y-81346609D01*
X21813291Y-79942384D01*
X21412513Y-78786954D01*
X22666855Y-78786954D01*
X22709673Y-78888270D01*
X22823840Y-79043730D01*
X23020544Y-79266201D01*
X23310973Y-79568551D01*
X23706317Y-79963648D01*
X24067935Y-80318362D01*
X24714448Y-80936156D01*
X25269643Y-81436375D01*
X25750084Y-81831967D01*
X26172334Y-82135877D01*
X26552956Y-82361052D01*
X26862516Y-82502743D01*
X27613751Y-82750550D01*
X28463239Y-82948038D01*
X29343572Y-83079976D01*
X29476489Y-83093396D01*
X29728015Y-83121092D01*
X29977181Y-83159242D01*
X30245257Y-83213773D01*
X30553513Y-83290611D01*
X30923221Y-83395683D01*
X31375650Y-83534916D01*
X31932070Y-83714236D01*
X32613751Y-83939570D01*
X33116638Y-84107668D01*
X35738482Y-84947123D01*
X38264744Y-85674319D01*
X40720834Y-86295466D01*
X43132163Y-86816774D01*
X45524142Y-87244450D01*
X46656172Y-87415916D01*
X47532336Y-87534119D01*
X48430922Y-87642628D01*
X49326982Y-87739333D01*
X50195567Y-87822122D01*
X51011729Y-87888886D01*
X51750520Y-87937514D01*
X52386989Y-87965896D01*
X52896190Y-87971921D01*
X53132667Y-87963777D01*
X53401211Y-87948511D01*
X53787118Y-87928358D01*
X54238582Y-87905951D01*
X54699000Y-87884146D01*
X57019862Y-87695577D01*
X59296037Y-87346929D01*
X61521673Y-86839923D01*
X63690913Y-86176280D01*
X65797904Y-85357723D01*
X67836791Y-84385971D01*
X69223729Y-83613521D01*
X70442095Y-82837166D01*
X71549423Y-82010125D01*
X72562519Y-81114029D01*
X73498188Y-80130505D01*
X74373235Y-79041182D01*
X75204464Y-77827688D01*
X76008682Y-76471654D01*
X76372061Y-75798982D01*
X77149004Y-74193485D01*
X77841333Y-72502946D01*
X78438141Y-70762752D01*
X78928520Y-69008289D01*
X79301562Y-67274942D01*
X79546359Y-65598099D01*
X79561676Y-65451667D01*
X79590675Y-65060136D01*
X79614802Y-64524887D01*
X79634059Y-63871464D01*
X79648448Y-63125411D01*
X79657972Y-62312273D01*
X79662632Y-61457595D01*
X79662431Y-60586922D01*
X79657369Y-59725796D01*
X79647451Y-58899765D01*
X79632676Y-58134371D01*
X79613048Y-57455159D01*
X79588569Y-56887675D01*
X79560968Y-56477000D01*
X79427974Y-55205540D01*
X79244779Y-53885281D01*
X79008456Y-52503431D01*
X78716077Y-51047203D01*
X78364715Y-49503807D01*
X77951442Y-47860454D01*
X77473332Y-46104353D01*
X76927457Y-44222717D01*
X76310890Y-42202755D01*
X76247219Y-41999000D01*
X75961752Y-41083232D01*
X75724043Y-40310104D01*
X75529229Y-39661305D01*
X75372447Y-39118523D01*
X75248837Y-38663447D01*
X75153534Y-38277768D01*
X75081678Y-37943174D01*
X75028405Y-37641354D01*
X74988854Y-37353998D01*
X74970860Y-37192306D01*
X74781878Y-36096030D01*
X74450063Y-35088949D01*
X73973919Y-34166996D01*
X73717636Y-33786333D01*
X73350629Y-33308626D01*
X72948479Y-32833569D01*
X72528051Y-32376439D01*
X72106212Y-31952517D01*
X71699826Y-31577080D01*
X71325760Y-31265410D01*
X71000877Y-31032784D01*
X70742045Y-30894481D01*
X70566128Y-30865781D01*
X70520864Y-30890247D01*
X70508396Y-30963857D01*
X70571609Y-31102680D01*
X70721409Y-31323726D01*
X70968700Y-31644006D01*
X71140252Y-31856410D01*
X71842681Y-32828268D01*
X72409208Y-33848776D01*
X72827115Y-34893000D01*
X72994609Y-35492076D01*
X73076459Y-36042653D01*
X73097512Y-36692944D01*
X73060241Y-37385595D01*
X72967117Y-38063250D01*
X72864146Y-38519702D01*
X72399147Y-39982759D01*
X71786396Y-41505322D01*
X71025125Y-43088589D01*
X70114571Y-44733759D01*
X69053966Y-46442033D01*
X67842547Y-48214608D01*
X66479546Y-50052684D01*
X64964198Y-51957459D01*
X63295739Y-53930134D01*
X62314597Y-55042187D01*
X59852746Y-57737380D01*
X57335483Y-60383725D01*
X54777792Y-62967201D01*
X52194658Y-65473786D01*
X49601064Y-67889461D01*
X47011995Y-70200206D01*
X44442435Y-72391999D01*
X41907366Y-74450820D01*
X39967000Y-75952797D01*
X38334148Y-77138797D01*
X36772658Y-78171457D01*
X35282273Y-79050878D01*
X33862735Y-79777163D01*
X32513790Y-80350414D01*
X31235179Y-80770733D01*
X30026648Y-81038223D01*
X28887940Y-81152985D01*
X27818797Y-81115122D01*
X27242264Y-81025661D01*
X26628007Y-80850682D01*
X25934637Y-80563958D01*
X25194273Y-80181420D01*
X24439030Y-79719004D01*
X24007333Y-79420844D01*
X23527522Y-79085703D01*
X23163676Y-78857636D01*
X22905277Y-78731130D01*
X22741810Y-78700668D01*
X22684197Y-78726914D01*
X22666855Y-78786954D01*
X21412513Y-78786954D01*
X21338373Y-78573211D01*
X21013378Y-77218891D01*
X20833233Y-75859223D01*
X20790000Y-74762194D01*
X20850080Y-73268665D01*
X21029783Y-71885958D01*
X21328298Y-70616414D01*
X21744819Y-69462373D01*
X22278536Y-68426176D01*
X22928641Y-67510164D01*
X23510832Y-66885531D01*
X24423394Y-66131917D01*
X25436015Y-65514876D01*
X26548470Y-65034538D01*
X26940890Y-64904993D01*
X27247996Y-64810864D01*
X27502076Y-64732979D01*
X27649536Y-64687766D01*
X27651853Y-64687055D01*
X27705911Y-64688714D01*
X27740638Y-64750136D01*
X27758409Y-64896616D01*
X27761598Y-65153448D01*
X27752580Y-65545926D01*
X27747465Y-65705456D01*
X27736184Y-66183117D01*
X27742498Y-66521927D01*
X27772091Y-66719133D01*
X27830648Y-66771983D01*
X27923853Y-66677722D01*
X28057393Y-66433598D01*
X28236952Y-66036857D01*
X28468215Y-65484747D01*
X28533736Y-65324667D01*
X28825206Y-64646144D01*
X29149318Y-63952644D01*
X29488198Y-63278365D01*
X29823975Y-62657508D01*
X30138778Y-62124273D01*
X30414732Y-61712858D01*
X30436279Y-61684000D01*
X30634025Y-61435576D01*
X30918035Y-61096915D01*
X31259254Y-60701777D01*
X31628628Y-60283923D01*
X31898688Y-59984677D01*
X32261282Y-59584471D01*
X32609528Y-59195885D01*
X32916951Y-58848770D01*
X33157074Y-58572978D01*
X33281395Y-58425629D01*
X33617000Y-58015572D01*
X33618802Y-56526619D01*
X33620411Y-55196783D01*
X36453322Y-55196783D01*
X36507509Y-55318495D01*
X36562059Y-55334000D01*
X36670117Y-55277207D01*
X36856924Y-55126979D01*
X37085550Y-54913536D01*
X37128854Y-54870169D01*
X37485708Y-54536577D01*
X37798673Y-54321146D01*
X38117420Y-54200897D01*
X38491625Y-54152852D01*
X38688629Y-54148667D01*
X39033592Y-54131480D01*
X39213442Y-54077676D01*
X39229100Y-53983885D01*
X39081491Y-53846738D01*
X38815283Y-53686427D01*
X38354545Y-53512176D01*
X37914879Y-53503725D01*
X37494123Y-53661855D01*
X37090116Y-53987347D01*
X36728500Y-54439500D01*
X36570731Y-54720133D01*
X36476700Y-54984944D01*
X36453322Y-55196783D01*
X33620411Y-55196783D01*
X33620604Y-55037667D01*
X33975439Y-54347403D01*
X34502748Y-53482343D01*
X35136300Y-52740784D01*
X35889707Y-52109359D01*
X36776581Y-51574701D01*
X36822848Y-51551188D01*
X37287597Y-51336294D01*
X37744097Y-51171627D01*
X38227479Y-51050190D01*
X38772874Y-50964989D01*
X39415412Y-50909025D01*
X40190224Y-50875302D01*
X40221000Y-50874415D01*
X40736245Y-50855867D01*
X41214320Y-50831440D01*
X41620584Y-50803455D01*
X41920398Y-50774232D01*
X42061934Y-50751119D01*
X42244439Y-50689456D01*
X42385952Y-50593759D01*
X42493341Y-50442491D01*
X42573474Y-50214115D01*
X42633221Y-49887094D01*
X42679450Y-49439893D01*
X42719028Y-48850973D01*
X42729917Y-48656583D01*
X42792411Y-47706357D01*
X42873058Y-46901421D01*
X42980033Y-46218025D01*
X43005269Y-46113564D01*
X45428000Y-46113564D01*
X45464684Y-46422666D01*
X45561011Y-46745858D01*
X45696393Y-47040260D01*
X45850242Y-47262990D01*
X46001969Y-47371164D01*
X46033789Y-47375333D01*
X46067655Y-47297471D01*
X46093254Y-47091019D01*
X46106061Y-46796681D01*
X46106726Y-46719167D01*
X46121453Y-46342537D01*
X46176965Y-46037366D01*
X46292984Y-45757247D01*
X46489229Y-45455773D01*
X46785423Y-45086535D01*
X46815794Y-45050592D01*
X46981576Y-44837614D01*
X47080341Y-44676090D01*
X47092848Y-44609293D01*
X46978995Y-44601695D01*
X46763980Y-44664585D01*
X46490887Y-44779758D01*
X46202803Y-44929010D01*
X45942814Y-45094136D01*
X45939251Y-45096711D01*
X45644146Y-45362972D01*
X45483445Y-45660743D01*
X45428802Y-46046405D01*
X45428000Y-46113564D01*
X43005269Y-46113564D01*
X43121509Y-45632418D01*
X43305661Y-45120851D01*
X43540663Y-44659574D01*
X43834690Y-44224837D01*
X44195915Y-43792891D01*
X44521750Y-43450522D01*
X45138977Y-42866489D01*
X45703844Y-42416956D01*
X46239980Y-42085099D01*
X46757239Y-41858906D01*
X46965512Y-41792627D01*
X47167270Y-41749796D01*
X47400669Y-41727966D01*
X47703869Y-41724694D01*
X48115026Y-41737533D01*
X48427652Y-41751867D01*
X49009482Y-41771936D01*
X49459980Y-41759934D01*
X49815964Y-41703780D01*
X50114252Y-41591391D01*
X50391662Y-41410684D01*
X50685012Y-41149578D01*
X50889000Y-40944124D01*
X51770428Y-40073099D01*
X52627441Y-39313294D01*
X53493676Y-38641799D01*
X54402775Y-38035705D01*
X55388376Y-37472102D01*
X56484119Y-36928082D01*
X57366000Y-36533120D01*
X57791830Y-36346600D01*
X58164611Y-36178158D01*
X58455563Y-36041202D01*
X58635906Y-35949139D01*
X58678333Y-35921742D01*
X58638035Y-35888660D01*
X58437060Y-35871808D01*
X58083313Y-35871487D01*
X57684139Y-35883798D01*
X56605278Y-35927388D01*
X56657837Y-35703527D01*
X56757650Y-35331231D01*
X56896750Y-34880952D01*
X57057215Y-34404595D01*
X57221119Y-33954067D01*
X57370538Y-33581276D01*
X57451637Y-33404770D01*
X57931064Y-32617628D01*
X58558583Y-31854122D01*
X59312954Y-31137119D01*
X60137518Y-30513271D01*
X60875409Y-30067924D01*
X61656568Y-29705439D01*
X62513198Y-29414444D01*
X63477500Y-29183568D01*
X64308667Y-29040349D01*
X64872481Y-28976939D01*
X65544794Y-28933804D01*
X66274958Y-28911422D01*
X67012324Y-28910272D01*
X67706245Y-28930830D01*
X67706245Y-28930830D01*
G37*
X67706245Y-28930830D02*
X68306073Y-28973574D01*
X68534082Y-29000489D01*
X69952073Y-29279868D01*
X71372585Y-29723189D01*
X72786661Y-30325452D01*
X74185346Y-31081656D01*
X75559682Y-31986800D01*
X76900716Y-33035883D01*
X78199490Y-34223904D01*
X78586466Y-34613785D01*
X79595903Y-35724529D01*
X80543832Y-36917068D01*
X81436627Y-38203003D01*
X82280662Y-39593934D01*
X83082311Y-41101461D01*
X83847949Y-42737184D01*
X84583948Y-44512703D01*
X85296684Y-46439618D01*
X85645163Y-47460000D01*
X86175514Y-49139268D01*
X86664014Y-50858974D01*
X87103890Y-52588677D01*
X87488371Y-54297936D01*
X87810685Y-55956310D01*
X88064058Y-57533360D01*
X88241719Y-58998644D01*
X88263386Y-59228667D01*
X88331001Y-60094019D01*
X88387479Y-61048962D01*
X88432708Y-62070010D01*
X88466580Y-63133681D01*
X88488986Y-64216489D01*
X88499816Y-65294950D01*
X88498962Y-66345581D01*
X88486314Y-67344897D01*
X88461762Y-68269414D01*
X88425198Y-69095647D01*
X88376512Y-69800114D01*
X88315596Y-70359329D01*
X88315174Y-70362333D01*
X87958237Y-72550701D01*
X87517485Y-74641679D01*
X86996676Y-76621032D01*
X86399568Y-78474524D01*
X85729920Y-80187920D01*
X85707294Y-80240372D01*
X85405661Y-80909091D01*
X85099638Y-81521954D01*
X84773747Y-82100905D01*
X84412507Y-82667888D01*
X84000440Y-83244845D01*
X83522066Y-83853721D01*
X82961905Y-84516458D01*
X82304477Y-85255001D01*
X81723250Y-85888050D01*
X80948169Y-86706164D01*
X80144298Y-87521894D01*
X79332772Y-88315518D01*
X78534723Y-89067312D01*
X77771287Y-89757556D01*
X77063597Y-90366526D01*
X76432788Y-90874501D01*
X76162000Y-91077768D01*
X74501459Y-92191326D01*
X72733705Y-93194924D01*
X70880220Y-94080867D01*
X68962489Y-94841460D01*
X67001995Y-95469008D01*
X65020221Y-95955817D01*
X63038650Y-96294191D01*
X61091333Y-96475775D01*
X60617843Y-96497516D01*
X60041973Y-96518653D01*
X59387514Y-96538774D01*
X58678252Y-96557467D01*
X57937978Y-96574323D01*
X57190480Y-96588929D01*
X56459547Y-96600874D01*
X55768967Y-96609747D01*
X55142530Y-96615137D01*
X54604025Y-96616632D01*
X54177240Y-96613822D01*
X53885964Y-96606295D01*
X53810000Y-96601648D01*
X51361272Y-96365308D01*
X49050610Y-96072368D01*
X46854647Y-95717340D01*
X44750015Y-95294738D01*
X42713344Y-94799074D01*
X40721267Y-94224861D01*
X38750416Y-93566612D01*
X36777423Y-92818841D01*
X35566240Y-92317836D01*
X33997680Y-91621266D01*
X32576489Y-90928621D01*
X31281577Y-90226609D01*
X30091856Y-89501943D01*
X29521999Y-89109908D01*
X66637000Y-89109908D01*
X66902695Y-89112954D01*
X67103484Y-89091125D01*
X67411544Y-89030238D01*
X67772487Y-88941630D01*
X67918695Y-88901190D01*
X68936444Y-88541386D01*
X70000617Y-88037840D01*
X71095973Y-87404515D01*
X72207276Y-86655377D01*
X73319285Y-85804390D01*
X74416761Y-84865519D01*
X75484466Y-83852729D01*
X76507161Y-82779983D01*
X77469606Y-81661247D01*
X78356563Y-80510485D01*
X79152793Y-79341662D01*
X79843057Y-78168742D01*
X80039489Y-77794003D01*
X80268726Y-77317758D01*
X80483203Y-76826062D01*
X80674932Y-76342859D01*
X80835922Y-75892093D01*
X80958182Y-75497710D01*
X81033724Y-75183652D01*
X81054557Y-74973866D01*
X81012691Y-74892294D01*
X81007849Y-74892000D01*
X80938985Y-74914095D01*
X80850210Y-74991946D01*
X80729019Y-75142902D01*
X80562905Y-75384312D01*
X80339362Y-75733527D01*
X80045887Y-76207895D01*
X79970353Y-76331333D01*
X78708188Y-78279650D01*
X77391526Y-80077004D01*
X76007083Y-81736675D01*
X74541574Y-83271941D01*
X72981716Y-84696084D01*
X71314222Y-86022381D01*
X69525810Y-87264111D01*
X68224619Y-88072445D01*
X67809980Y-88321816D01*
X67432313Y-88554290D01*
X67122432Y-88750499D01*
X66911152Y-88891075D01*
X66848667Y-88937232D01*
X66637000Y-89109908D01*
X29521999Y-89109908D01*
X28986239Y-88741331D01*
X27943637Y-87931485D01*
X26942962Y-87059115D01*
X26389118Y-86534507D01*
X25402131Y-85530430D01*
X24550442Y-84568193D01*
X23814228Y-83621731D01*
X23173665Y-82664981D01*
X22608930Y-81671880D01*
X22443202Y-81346609D01*
X21813291Y-79942384D01*
X21412513Y-78786954D01*
X22666855Y-78786954D01*
X22709673Y-78888270D01*
X22823840Y-79043730D01*
X23020544Y-79266201D01*
X23310973Y-79568551D01*
X23706317Y-79963648D01*
X24067935Y-80318362D01*
X24714448Y-80936156D01*
X25269643Y-81436375D01*
X25750084Y-81831967D01*
X26172334Y-82135877D01*
X26552956Y-82361052D01*
X26862516Y-82502743D01*
X27613751Y-82750550D01*
X28463239Y-82948038D01*
X29343572Y-83079976D01*
X29476489Y-83093396D01*
X29728015Y-83121092D01*
X29977181Y-83159242D01*
X30245257Y-83213773D01*
X30553513Y-83290611D01*
X30923221Y-83395683D01*
X31375650Y-83534916D01*
X31932070Y-83714236D01*
X32613751Y-83939570D01*
X33116638Y-84107668D01*
X35738482Y-84947123D01*
X38264744Y-85674319D01*
X40720834Y-86295466D01*
X43132163Y-86816774D01*
X45524142Y-87244450D01*
X46656172Y-87415916D01*
X47532336Y-87534119D01*
X48430922Y-87642628D01*
X49326982Y-87739333D01*
X50195567Y-87822122D01*
X51011729Y-87888886D01*
X51750520Y-87937514D01*
X52386989Y-87965896D01*
X52896190Y-87971921D01*
X53132667Y-87963777D01*
X53401211Y-87948511D01*
X53787118Y-87928358D01*
X54238582Y-87905951D01*
X54699000Y-87884146D01*
X57019862Y-87695577D01*
X59296037Y-87346929D01*
X61521673Y-86839923D01*
X63690913Y-86176280D01*
X65797904Y-85357723D01*
X67836791Y-84385971D01*
X69223729Y-83613521D01*
X70442095Y-82837166D01*
X71549423Y-82010125D01*
X72562519Y-81114029D01*
X73498188Y-80130505D01*
X74373235Y-79041182D01*
X75204464Y-77827688D01*
X76008682Y-76471654D01*
X76372061Y-75798982D01*
X77149004Y-74193485D01*
X77841333Y-72502946D01*
X78438141Y-70762752D01*
X78928520Y-69008289D01*
X79301562Y-67274942D01*
X79546359Y-65598099D01*
X79561676Y-65451667D01*
X79590675Y-65060136D01*
X79614802Y-64524887D01*
X79634059Y-63871464D01*
X79648448Y-63125411D01*
X79657972Y-62312273D01*
X79662632Y-61457595D01*
X79662431Y-60586922D01*
X79657369Y-59725796D01*
X79647451Y-58899765D01*
X79632676Y-58134371D01*
X79613048Y-57455159D01*
X79588569Y-56887675D01*
X79560968Y-56477000D01*
X79427974Y-55205540D01*
X79244779Y-53885281D01*
X79008456Y-52503431D01*
X78716077Y-51047203D01*
X78364715Y-49503807D01*
X77951442Y-47860454D01*
X77473332Y-46104353D01*
X76927457Y-44222717D01*
X76310890Y-42202755D01*
X76247219Y-41999000D01*
X75961752Y-41083232D01*
X75724043Y-40310104D01*
X75529229Y-39661305D01*
X75372447Y-39118523D01*
X75248837Y-38663447D01*
X75153534Y-38277768D01*
X75081678Y-37943174D01*
X75028405Y-37641354D01*
X74988854Y-37353998D01*
X74970860Y-37192306D01*
X74781878Y-36096030D01*
X74450063Y-35088949D01*
X73973919Y-34166996D01*
X73717636Y-33786333D01*
X73350629Y-33308626D01*
X72948479Y-32833569D01*
X72528051Y-32376439D01*
X72106212Y-31952517D01*
X71699826Y-31577080D01*
X71325760Y-31265410D01*
X71000877Y-31032784D01*
X70742045Y-30894481D01*
X70566128Y-30865781D01*
X70520864Y-30890247D01*
X70508396Y-30963857D01*
X70571609Y-31102680D01*
X70721409Y-31323726D01*
X70968700Y-31644006D01*
X71140252Y-31856410D01*
X71842681Y-32828268D01*
X72409208Y-33848776D01*
X72827115Y-34893000D01*
X72994609Y-35492076D01*
X73076459Y-36042653D01*
X73097512Y-36692944D01*
X73060241Y-37385595D01*
X72967117Y-38063250D01*
X72864146Y-38519702D01*
X72399147Y-39982759D01*
X71786396Y-41505322D01*
X71025125Y-43088589D01*
X70114571Y-44733759D01*
X69053966Y-46442033D01*
X67842547Y-48214608D01*
X66479546Y-50052684D01*
X64964198Y-51957459D01*
X63295739Y-53930134D01*
X62314597Y-55042187D01*
X59852746Y-57737380D01*
X57335483Y-60383725D01*
X54777792Y-62967201D01*
X52194658Y-65473786D01*
X49601064Y-67889461D01*
X47011995Y-70200206D01*
X44442435Y-72391999D01*
X41907366Y-74450820D01*
X39967000Y-75952797D01*
X38334148Y-77138797D01*
X36772658Y-78171457D01*
X35282273Y-79050878D01*
X33862735Y-79777163D01*
X32513790Y-80350414D01*
X31235179Y-80770733D01*
X30026648Y-81038223D01*
X28887940Y-81152985D01*
X27818797Y-81115122D01*
X27242264Y-81025661D01*
X26628007Y-80850682D01*
X25934637Y-80563958D01*
X25194273Y-80181420D01*
X24439030Y-79719004D01*
X24007333Y-79420844D01*
X23527522Y-79085703D01*
X23163676Y-78857636D01*
X22905277Y-78731130D01*
X22741810Y-78700668D01*
X22684197Y-78726914D01*
X22666855Y-78786954D01*
X21412513Y-78786954D01*
X21338373Y-78573211D01*
X21013378Y-77218891D01*
X20833233Y-75859223D01*
X20790000Y-74762194D01*
X20850080Y-73268665D01*
X21029783Y-71885958D01*
X21328298Y-70616414D01*
X21744819Y-69462373D01*
X22278536Y-68426176D01*
X22928641Y-67510164D01*
X23510832Y-66885531D01*
X24423394Y-66131917D01*
X25436015Y-65514876D01*
X26548470Y-65034538D01*
X26940890Y-64904993D01*
X27247996Y-64810864D01*
X27502076Y-64732979D01*
X27649536Y-64687766D01*
X27651853Y-64687055D01*
X27705911Y-64688714D01*
X27740638Y-64750136D01*
X27758409Y-64896616D01*
X27761598Y-65153448D01*
X27752580Y-65545926D01*
X27747465Y-65705456D01*
X27736184Y-66183117D01*
X27742498Y-66521927D01*
X27772091Y-66719133D01*
X27830648Y-66771983D01*
X27923853Y-66677722D01*
X28057393Y-66433598D01*
X28236952Y-66036857D01*
X28468215Y-65484747D01*
X28533736Y-65324667D01*
X28825206Y-64646144D01*
X29149318Y-63952644D01*
X29488198Y-63278365D01*
X29823975Y-62657508D01*
X30138778Y-62124273D01*
X30414732Y-61712858D01*
X30436279Y-61684000D01*
X30634025Y-61435576D01*
X30918035Y-61096915D01*
X31259254Y-60701777D01*
X31628628Y-60283923D01*
X31898688Y-59984677D01*
X32261282Y-59584471D01*
X32609528Y-59195885D01*
X32916951Y-58848770D01*
X33157074Y-58572978D01*
X33281395Y-58425629D01*
X33617000Y-58015572D01*
X33618802Y-56526619D01*
X33620411Y-55196783D01*
X36453322Y-55196783D01*
X36507509Y-55318495D01*
X36562059Y-55334000D01*
X36670117Y-55277207D01*
X36856924Y-55126979D01*
X37085550Y-54913536D01*
X37128854Y-54870169D01*
X37485708Y-54536577D01*
X37798673Y-54321146D01*
X38117420Y-54200897D01*
X38491625Y-54152852D01*
X38688629Y-54148667D01*
X39033592Y-54131480D01*
X39213442Y-54077676D01*
X39229100Y-53983885D01*
X39081491Y-53846738D01*
X38815283Y-53686427D01*
X38354545Y-53512176D01*
X37914879Y-53503725D01*
X37494123Y-53661855D01*
X37090116Y-53987347D01*
X36728500Y-54439500D01*
X36570731Y-54720133D01*
X36476700Y-54984944D01*
X36453322Y-55196783D01*
X33620411Y-55196783D01*
X33620604Y-55037667D01*
X33975439Y-54347403D01*
X34502748Y-53482343D01*
X35136300Y-52740784D01*
X35889707Y-52109359D01*
X36776581Y-51574701D01*
X36822848Y-51551188D01*
X37287597Y-51336294D01*
X37744097Y-51171627D01*
X38227479Y-51050190D01*
X38772874Y-50964989D01*
X39415412Y-50909025D01*
X40190224Y-50875302D01*
X40221000Y-50874415D01*
X40736245Y-50855867D01*
X41214320Y-50831440D01*
X41620584Y-50803455D01*
X41920398Y-50774232D01*
X42061934Y-50751119D01*
X42244439Y-50689456D01*
X42385952Y-50593759D01*
X42493341Y-50442491D01*
X42573474Y-50214115D01*
X42633221Y-49887094D01*
X42679450Y-49439893D01*
X42719028Y-48850973D01*
X42729917Y-48656583D01*
X42792411Y-47706357D01*
X42873058Y-46901421D01*
X42980033Y-46218025D01*
X43005269Y-46113564D01*
X45428000Y-46113564D01*
X45464684Y-46422666D01*
X45561011Y-46745858D01*
X45696393Y-47040260D01*
X45850242Y-47262990D01*
X46001969Y-47371164D01*
X46033789Y-47375333D01*
X46067655Y-47297471D01*
X46093254Y-47091019D01*
X46106061Y-46796681D01*
X46106726Y-46719167D01*
X46121453Y-46342537D01*
X46176965Y-46037366D01*
X46292984Y-45757247D01*
X46489229Y-45455773D01*
X46785423Y-45086535D01*
X46815794Y-45050592D01*
X46981576Y-44837614D01*
X47080341Y-44676090D01*
X47092848Y-44609293D01*
X46978995Y-44601695D01*
X46763980Y-44664585D01*
X46490887Y-44779758D01*
X46202803Y-44929010D01*
X45942814Y-45094136D01*
X45939251Y-45096711D01*
X45644146Y-45362972D01*
X45483445Y-45660743D01*
X45428802Y-46046405D01*
X45428000Y-46113564D01*
X43005269Y-46113564D01*
X43121509Y-45632418D01*
X43305661Y-45120851D01*
X43540663Y-44659574D01*
X43834690Y-44224837D01*
X44195915Y-43792891D01*
X44521750Y-43450522D01*
X45138977Y-42866489D01*
X45703844Y-42416956D01*
X46239980Y-42085099D01*
X46757239Y-41858906D01*
X46965512Y-41792627D01*
X47167270Y-41749796D01*
X47400669Y-41727966D01*
X47703869Y-41724694D01*
X48115026Y-41737533D01*
X48427652Y-41751867D01*
X49009482Y-41771936D01*
X49459980Y-41759934D01*
X49815964Y-41703780D01*
X50114252Y-41591391D01*
X50391662Y-41410684D01*
X50685012Y-41149578D01*
X50889000Y-40944124D01*
X51770428Y-40073099D01*
X52627441Y-39313294D01*
X53493676Y-38641799D01*
X54402775Y-38035705D01*
X55388376Y-37472102D01*
X56484119Y-36928082D01*
X57366000Y-36533120D01*
X57791830Y-36346600D01*
X58164611Y-36178158D01*
X58455563Y-36041202D01*
X58635906Y-35949139D01*
X58678333Y-35921742D01*
X58638035Y-35888660D01*
X58437060Y-35871808D01*
X58083313Y-35871487D01*
X57684139Y-35883798D01*
X56605278Y-35927388D01*
X56657837Y-35703527D01*
X56757650Y-35331231D01*
X56896750Y-34880952D01*
X57057215Y-34404595D01*
X57221119Y-33954067D01*
X57370538Y-33581276D01*
X57451637Y-33404770D01*
X57931064Y-32617628D01*
X58558583Y-31854122D01*
X59312954Y-31137119D01*
X60137518Y-30513271D01*
X60875409Y-30067924D01*
X61656568Y-29705439D01*
X62513198Y-29414444D01*
X63477500Y-29183568D01*
X64308667Y-29040349D01*
X64872481Y-28976939D01*
X65544794Y-28933804D01*
X66274958Y-28911422D01*
X67012324Y-28910272D01*
X67706245Y-28930830D01*
G36*
X15849177Y-60634380D02*
X16245129Y-60644338D01*
X16558570Y-60662617D01*
X16818438Y-60691241D01*
X17053669Y-60732237D01*
X17293198Y-60787628D01*
X17428687Y-60822695D01*
X18229702Y-61066490D01*
X19025841Y-61377145D01*
X19846598Y-61768813D01*
X20721468Y-62255645D01*
X21679945Y-62851795D01*
X21743099Y-62892877D01*
X22101489Y-63131653D01*
X22402461Y-63341891D01*
X22620361Y-63504918D01*
X22729537Y-63602061D01*
X22737333Y-63616582D01*
X22671744Y-63697667D01*
X22499554Y-63838608D01*
X22257626Y-64009309D01*
X22250500Y-64014030D01*
X21847011Y-64320490D01*
X21386237Y-64735667D01*
X20901335Y-65225120D01*
X20425464Y-65754411D01*
X19991782Y-66289100D01*
X19774000Y-66586187D01*
X19543188Y-66915606D01*
X19340819Y-67204197D01*
X19191139Y-67417396D01*
X19124193Y-67512470D01*
X19060362Y-67575650D01*
X18969461Y-67583573D01*
X18816270Y-67526734D01*
X18565572Y-67395627D01*
X18446860Y-67329642D01*
X17530664Y-66840236D01*
X16705858Y-66454999D01*
X15938245Y-66164513D01*
X15193630Y-65959357D01*
X14437818Y-65830113D01*
X13636613Y-65767361D01*
X12755820Y-65761683D01*
X12754603Y-65761709D01*
X12185901Y-65777674D01*
X11771356Y-65799405D01*
X11495832Y-65829088D01*
X11344191Y-65868910D01*
X11301294Y-65921059D01*
X11329408Y-65967631D01*
X11427387Y-66003657D01*
X11657177Y-66064706D01*
X11984607Y-66142284D01*
X12375506Y-66227894D01*
X12380686Y-66228987D01*
X12853943Y-66338978D01*
X13342882Y-66469632D01*
X13780658Y-66602278D01*
X14028696Y-66689320D01*
X14818093Y-67050084D01*
X15663588Y-67540898D01*
X16538367Y-68144165D01*
X17415617Y-68842289D01*
X17739158Y-69124420D01*
X18201982Y-69538090D01*
X18052143Y-70331211D01*
X17910860Y-71053776D01*
X17773581Y-71708042D01*
X17644945Y-72274587D01*
X17529591Y-72733984D01*
X17432158Y-73066811D01*
X17357286Y-73253643D01*
X17352113Y-73262167D01*
X17195356Y-73399433D01*
X16948804Y-73445978D01*
X16597713Y-73400862D01*
X16127340Y-73263149D01*
X15864513Y-73167558D01*
X15081422Y-72823148D01*
X14344414Y-72396779D01*
X13619829Y-71865671D01*
X12874006Y-71207048D01*
X12657448Y-70997333D01*
X12287513Y-70621036D01*
X11930437Y-70236763D01*
X11618175Y-69880363D01*
X11382681Y-69587687D01*
X11309172Y-69484687D01*
X10689115Y-68421657D01*
X10198127Y-67291846D01*
X9845427Y-66124337D01*
X9640227Y-64948212D01*
X9588536Y-64054667D01*
X9613481Y-63399940D01*
X9702133Y-62869107D01*
X9865832Y-62425032D01*
X10115915Y-62030576D01*
X10258363Y-61860803D01*
X10645224Y-61482794D01*
X11058860Y-61197405D01*
X11550056Y-60974926D01*
X12034296Y-60821912D01*
X12268410Y-60761621D01*
X12495512Y-60715746D01*
X12743794Y-60682268D01*
X13041449Y-60659167D01*
X13416668Y-60644423D01*
X13897646Y-60636015D01*
X14512574Y-60631924D01*
X14694000Y-60631329D01*
X15341780Y-60630719D01*
X15849177Y-60634380D01*
X15849177Y-60634380D01*
G37*
X15849177Y-60634380D02*
X16245129Y-60644338D01*
X16558570Y-60662617D01*
X16818438Y-60691241D01*
X17053669Y-60732237D01*
X17293198Y-60787628D01*
X17428687Y-60822695D01*
X18229702Y-61066490D01*
X19025841Y-61377145D01*
X19846598Y-61768813D01*
X20721468Y-62255645D01*
X21679945Y-62851795D01*
X21743099Y-62892877D01*
X22101489Y-63131653D01*
X22402461Y-63341891D01*
X22620361Y-63504918D01*
X22729537Y-63602061D01*
X22737333Y-63616582D01*
X22671744Y-63697667D01*
X22499554Y-63838608D01*
X22257626Y-64009309D01*
X22250500Y-64014030D01*
X21847011Y-64320490D01*
X21386237Y-64735667D01*
X20901335Y-65225120D01*
X20425464Y-65754411D01*
X19991782Y-66289100D01*
X19774000Y-66586187D01*
X19543188Y-66915606D01*
X19340819Y-67204197D01*
X19191139Y-67417396D01*
X19124193Y-67512470D01*
X19060362Y-67575650D01*
X18969461Y-67583573D01*
X18816270Y-67526734D01*
X18565572Y-67395627D01*
X18446860Y-67329642D01*
X17530664Y-66840236D01*
X16705858Y-66454999D01*
X15938245Y-66164513D01*
X15193630Y-65959357D01*
X14437818Y-65830113D01*
X13636613Y-65767361D01*
X12755820Y-65761683D01*
X12754603Y-65761709D01*
X12185901Y-65777674D01*
X11771356Y-65799405D01*
X11495832Y-65829088D01*
X11344191Y-65868910D01*
X11301294Y-65921059D01*
X11329408Y-65967631D01*
X11427387Y-66003657D01*
X11657177Y-66064706D01*
X11984607Y-66142284D01*
X12375506Y-66227894D01*
X12380686Y-66228987D01*
X12853943Y-66338978D01*
X13342882Y-66469632D01*
X13780658Y-66602278D01*
X14028696Y-66689320D01*
X14818093Y-67050084D01*
X15663588Y-67540898D01*
X16538367Y-68144165D01*
X17415617Y-68842289D01*
X17739158Y-69124420D01*
X18201982Y-69538090D01*
X18052143Y-70331211D01*
X17910860Y-71053776D01*
X17773581Y-71708042D01*
X17644945Y-72274587D01*
X17529591Y-72733984D01*
X17432158Y-73066811D01*
X17357286Y-73253643D01*
X17352113Y-73262167D01*
X17195356Y-73399433D01*
X16948804Y-73445978D01*
X16597713Y-73400862D01*
X16127340Y-73263149D01*
X15864513Y-73167558D01*
X15081422Y-72823148D01*
X14344414Y-72396779D01*
X13619829Y-71865671D01*
X12874006Y-71207048D01*
X12657448Y-70997333D01*
X12287513Y-70621036D01*
X11930437Y-70236763D01*
X11618175Y-69880363D01*
X11382681Y-69587687D01*
X11309172Y-69484687D01*
X10689115Y-68421657D01*
X10198127Y-67291846D01*
X9845427Y-66124337D01*
X9640227Y-64948212D01*
X9588536Y-64054667D01*
X9613481Y-63399940D01*
X9702133Y-62869107D01*
X9865832Y-62425032D01*
X10115915Y-62030576D01*
X10258363Y-61860803D01*
X10645224Y-61482794D01*
X11058860Y-61197405D01*
X11550056Y-60974926D01*
X12034296Y-60821912D01*
X12268410Y-60761621D01*
X12495512Y-60715746D01*
X12743794Y-60682268D01*
X13041449Y-60659167D01*
X13416668Y-60644423D01*
X13897646Y-60636015D01*
X14512574Y-60631924D01*
X14694000Y-60631329D01*
X15341780Y-60630719D01*
X15849177Y-60634380D01*
G36*
X38860449Y-18642344D02*
X39877895Y-18928145D01*
X40813667Y-19328047D01*
X41815489Y-19919100D01*
X42740129Y-20645407D01*
X43568217Y-21486038D01*
X44280378Y-22420061D01*
X44857242Y-23426547D01*
X45086542Y-23944569D01*
X45245645Y-24397284D01*
X45376029Y-24899124D01*
X45481691Y-25475238D01*
X45566632Y-26150774D01*
X45634849Y-26950879D01*
X45678447Y-27666730D01*
X45721947Y-28358822D01*
X45771257Y-28907650D01*
X45825434Y-29304706D01*
X45883536Y-29541483D01*
X45887206Y-29550596D01*
X45964864Y-29688383D01*
X46096272Y-29835695D01*
X46303459Y-30010813D01*
X46608457Y-30232017D01*
X47033295Y-30517589D01*
X47125279Y-30577949D01*
X48143886Y-31276327D01*
X49053670Y-31973013D01*
X49908736Y-32712458D01*
X50763187Y-33539111D01*
X50901142Y-33680058D01*
X51286402Y-34091484D01*
X51666311Y-34524599D01*
X52023345Y-34956560D01*
X52339981Y-35364522D01*
X52598694Y-35725641D01*
X52781960Y-36017075D01*
X52872256Y-36215979D01*
X52878667Y-36257919D01*
X52813823Y-36349222D01*
X52633148Y-36523509D01*
X52357427Y-36764647D01*
X52007445Y-37056504D01*
X51603988Y-37382948D01*
X51167839Y-37727846D01*
X50719785Y-38075066D01*
X50280610Y-38408475D01*
X49871099Y-38711941D01*
X49512038Y-38969332D01*
X49224210Y-39164515D01*
X49028402Y-39281358D01*
X48950079Y-39307110D01*
X48888315Y-39226003D01*
X48762819Y-39013539D01*
X48584706Y-38690255D01*
X48365087Y-38276689D01*
X48115078Y-37793378D01*
X47883333Y-37335806D01*
X47407677Y-36407916D01*
X46948070Y-35558525D01*
X46490331Y-34768424D01*
X46020278Y-34018406D01*
X45523729Y-33289263D01*
X44986503Y-32561786D01*
X44394419Y-31816768D01*
X43733294Y-31035001D01*
X42988948Y-30197278D01*
X42147199Y-29284390D01*
X41199475Y-28283000D01*
X40795909Y-27855105D01*
X40421653Y-27447821D01*
X40096423Y-27083430D01*
X39839932Y-26784215D01*
X39671893Y-26572458D01*
X39626419Y-26505000D01*
X39513871Y-26283011D01*
X39366514Y-25951900D01*
X39206145Y-25562139D01*
X39096279Y-25277333D01*
X38872576Y-24702923D01*
X38669835Y-24228695D01*
X38494982Y-23868415D01*
X38354944Y-23635851D01*
X38256647Y-23544770D01*
X38228619Y-23552847D01*
X38211280Y-23662556D01*
X38220266Y-23909368D01*
X38253428Y-24263460D01*
X38308618Y-24695014D01*
X38313244Y-24727305D01*
X38467865Y-26045423D01*
X38530682Y-27256328D01*
X38499024Y-28396787D01*
X38370221Y-29503565D01*
X38141599Y-30613426D01*
X37810488Y-31763136D01*
X37799584Y-31796667D01*
X37314614Y-33062419D01*
X36681331Y-34358419D01*
X35913973Y-35667475D01*
X35026780Y-36972392D01*
X34033989Y-38255980D01*
X32949839Y-39501044D01*
X31788569Y-40690392D01*
X30564418Y-41806831D01*
X29291624Y-42833169D01*
X27984426Y-43752213D01*
X27799681Y-43871213D01*
X26739954Y-44496316D01*
X25610566Y-45072113D01*
X24453500Y-45580619D01*
X23310742Y-46003848D01*
X22224275Y-46323815D01*
X21890667Y-46402489D01*
X21480806Y-46468917D01*
X20917548Y-46523201D01*
X20216476Y-46564096D01*
X19604667Y-46585361D01*
X18963683Y-46598784D01*
X18446237Y-46599966D01*
X18006835Y-46586772D01*
X17599982Y-46557067D01*
X17180184Y-46508712D01*
X16792141Y-46453310D01*
X16248296Y-46376833D01*
X15852273Y-46335624D01*
X15586303Y-46329553D01*
X15432617Y-46358486D01*
X15373445Y-46422290D01*
X15371333Y-46442691D01*
X15395179Y-46510450D01*
X15479305Y-46583539D01*
X15642596Y-46670302D01*
X15903936Y-46779082D01*
X16282208Y-46918223D01*
X16796296Y-47096066D01*
X17026360Y-47173904D01*
X18461667Y-47657523D01*
X19862575Y-49019262D01*
X20785627Y-49909410D01*
X21614783Y-50690901D01*
X22371107Y-51379410D01*
X23075661Y-51990612D01*
X23749507Y-52540183D01*
X24413709Y-53043797D01*
X25089328Y-53517129D01*
X25797427Y-53975855D01*
X26559069Y-54435649D01*
X27395317Y-54912188D01*
X28327232Y-55421145D01*
X28814553Y-55681475D01*
X29497830Y-56046184D01*
X30043909Y-56342042D01*
X30466403Y-56577197D01*
X30778926Y-56759798D01*
X30995093Y-56897996D01*
X31128518Y-56999938D01*
X31192815Y-57073774D01*
X31204000Y-57111724D01*
X31152972Y-57222542D01*
X31010800Y-57440529D01*
X30793850Y-57745024D01*
X30518486Y-58115366D01*
X30201076Y-58530895D01*
X29857986Y-58970950D01*
X29505580Y-59414871D01*
X29160225Y-59841997D01*
X28838286Y-60231668D01*
X28556131Y-60563223D01*
X28330124Y-60816001D01*
X28176632Y-60969342D01*
X28118693Y-61006667D01*
X28010742Y-60959780D01*
X27798702Y-60832625D01*
X27514747Y-60645459D01*
X27237634Y-60451994D01*
X26225756Y-59649252D01*
X25222899Y-58699872D01*
X24250368Y-57626104D01*
X23329473Y-56450197D01*
X23106633Y-56138333D01*
X22826489Y-55738692D01*
X22535124Y-55322903D01*
X22272013Y-54947303D01*
X22117412Y-54726504D01*
X21907062Y-54426986D01*
X21733142Y-54201385D01*
X21567667Y-54039524D01*
X21382647Y-53931223D01*
X21150097Y-53866303D01*
X20842028Y-53834587D01*
X20430454Y-53825894D01*
X19887386Y-53830047D01*
X19659736Y-53832667D01*
X19074879Y-53837289D01*
X18624280Y-53834663D01*
X18272926Y-53822114D01*
X17985802Y-53796966D01*
X17727895Y-53756541D01*
X17464192Y-53698164D01*
X17278062Y-53650634D01*
X16588811Y-53437902D01*
X15859159Y-53159126D01*
X15167984Y-52846180D01*
X14778667Y-52640649D01*
X14086545Y-52180945D01*
X13383572Y-51593145D01*
X12702414Y-50912796D01*
X12075738Y-50175447D01*
X11536213Y-49416647D01*
X11116505Y-48671943D01*
X11100243Y-48637819D01*
X10887341Y-48160751D01*
X10730543Y-47733237D01*
X10621914Y-47313568D01*
X10553518Y-46860037D01*
X10517417Y-46330934D01*
X10505676Y-45684551D01*
X10505591Y-45512667D01*
X10508204Y-44986255D01*
X10516437Y-44594869D01*
X10534253Y-44304208D01*
X10565613Y-44079972D01*
X10614480Y-43887861D01*
X10684816Y-43693575D01*
X10727890Y-43588215D01*
X11191505Y-42622742D01*
X11724862Y-41800942D01*
X12345201Y-41105504D01*
X13069761Y-40519112D01*
X13915781Y-40024454D01*
X14567000Y-39732557D01*
X15244333Y-39459000D01*
X17107000Y-39463832D01*
X17721047Y-39466265D01*
X18203425Y-39472427D01*
X18591801Y-39485999D01*
X18923838Y-39510663D01*
X19237202Y-39550101D01*
X19569559Y-39607996D01*
X19958572Y-39688027D01*
X20409000Y-39786608D01*
X21191513Y-39957061D01*
X21833601Y-40090757D01*
X22359221Y-40191593D01*
X22792329Y-40263465D01*
X23156882Y-40310266D01*
X23476838Y-40335893D01*
X23776152Y-40344242D01*
X23838000Y-40344168D01*
X24135345Y-40336612D01*
X24403203Y-40310879D01*
X24655885Y-40256980D01*
X24907703Y-40164925D01*
X25172968Y-40024727D01*
X25465991Y-39826396D01*
X25801084Y-39559944D01*
X26192557Y-39215381D01*
X26654722Y-38782719D01*
X27201890Y-38251969D01*
X27848372Y-37613142D01*
X28078150Y-37384667D01*
X29010164Y-36448184D01*
X29826272Y-35609374D01*
X30524469Y-34870447D01*
X31102749Y-34233610D01*
X31559108Y-33701071D01*
X31891541Y-33275039D01*
X32098042Y-32957722D01*
X32098352Y-32957152D01*
X32200934Y-32741381D01*
X32272957Y-32512746D01*
X32313176Y-32251888D01*
X32320350Y-31939451D01*
X32293235Y-31556076D01*
X32230589Y-31082407D01*
X32131168Y-30499085D01*
X31993730Y-29786754D01*
X31849546Y-29082003D01*
X31653256Y-28116056D01*
X31497158Y-27293132D01*
X31378828Y-26592370D01*
X31295847Y-25992907D01*
X31245791Y-25473884D01*
X31226240Y-25014439D01*
X31234772Y-24593711D01*
X31268964Y-24190838D01*
X31275436Y-24136498D01*
X31482239Y-23100013D01*
X31836002Y-22146173D01*
X32333597Y-21279213D01*
X32971898Y-20503370D01*
X33747778Y-19822880D01*
X34658112Y-19241977D01*
X35027315Y-19053645D01*
X35924084Y-18716410D01*
X36870535Y-18535860D01*
X37853660Y-18511377D01*
X38860449Y-18642344D01*
X38860449Y-18642344D01*
G37*
X38860449Y-18642344D02*
X39877895Y-18928145D01*
X40813667Y-19328047D01*
X41815489Y-19919100D01*
X42740129Y-20645407D01*
X43568217Y-21486038D01*
X44280378Y-22420061D01*
X44857242Y-23426547D01*
X45086542Y-23944569D01*
X45245645Y-24397284D01*
X45376029Y-24899124D01*
X45481691Y-25475238D01*
X45566632Y-26150774D01*
X45634849Y-26950879D01*
X45678447Y-27666730D01*
X45721947Y-28358822D01*
X45771257Y-28907650D01*
X45825434Y-29304706D01*
X45883536Y-29541483D01*
X45887206Y-29550596D01*
X45964864Y-29688383D01*
X46096272Y-29835695D01*
X46303459Y-30010813D01*
X46608457Y-30232017D01*
X47033295Y-30517589D01*
X47125279Y-30577949D01*
X48143886Y-31276327D01*
X49053670Y-31973013D01*
X49908736Y-32712458D01*
X50763187Y-33539111D01*
X50901142Y-33680058D01*
X51286402Y-34091484D01*
X51666311Y-34524599D01*
X52023345Y-34956560D01*
X52339981Y-35364522D01*
X52598694Y-35725641D01*
X52781960Y-36017075D01*
X52872256Y-36215979D01*
X52878667Y-36257919D01*
X52813823Y-36349222D01*
X52633148Y-36523509D01*
X52357427Y-36764647D01*
X52007445Y-37056504D01*
X51603988Y-37382948D01*
X51167839Y-37727846D01*
X50719785Y-38075066D01*
X50280610Y-38408475D01*
X49871099Y-38711941D01*
X49512038Y-38969332D01*
X49224210Y-39164515D01*
X49028402Y-39281358D01*
X48950079Y-39307110D01*
X48888315Y-39226003D01*
X48762819Y-39013539D01*
X48584706Y-38690255D01*
X48365087Y-38276689D01*
X48115078Y-37793378D01*
X47883333Y-37335806D01*
X47407677Y-36407916D01*
X46948070Y-35558525D01*
X46490331Y-34768424D01*
X46020278Y-34018406D01*
X45523729Y-33289263D01*
X44986503Y-32561786D01*
X44394419Y-31816768D01*
X43733294Y-31035001D01*
X42988948Y-30197278D01*
X42147199Y-29284390D01*
X41199475Y-28283000D01*
X40795909Y-27855105D01*
X40421653Y-27447821D01*
X40096423Y-27083430D01*
X39839932Y-26784215D01*
X39671893Y-26572458D01*
X39626419Y-26505000D01*
X39513871Y-26283011D01*
X39366514Y-25951900D01*
X39206145Y-25562139D01*
X39096279Y-25277333D01*
X38872576Y-24702923D01*
X38669835Y-24228695D01*
X38494982Y-23868415D01*
X38354944Y-23635851D01*
X38256647Y-23544770D01*
X38228619Y-23552847D01*
X38211280Y-23662556D01*
X38220266Y-23909368D01*
X38253428Y-24263460D01*
X38308618Y-24695014D01*
X38313244Y-24727305D01*
X38467865Y-26045423D01*
X38530682Y-27256328D01*
X38499024Y-28396787D01*
X38370221Y-29503565D01*
X38141599Y-30613426D01*
X37810488Y-31763136D01*
X37799584Y-31796667D01*
X37314614Y-33062419D01*
X36681331Y-34358419D01*
X35913973Y-35667475D01*
X35026780Y-36972392D01*
X34033989Y-38255980D01*
X32949839Y-39501044D01*
X31788569Y-40690392D01*
X30564418Y-41806831D01*
X29291624Y-42833169D01*
X27984426Y-43752213D01*
X27799681Y-43871213D01*
X26739954Y-44496316D01*
X25610566Y-45072113D01*
X24453500Y-45580619D01*
X23310742Y-46003848D01*
X22224275Y-46323815D01*
X21890667Y-46402489D01*
X21480806Y-46468917D01*
X20917548Y-46523201D01*
X20216476Y-46564096D01*
X19604667Y-46585361D01*
X18963683Y-46598784D01*
X18446237Y-46599966D01*
X18006835Y-46586772D01*
X17599982Y-46557067D01*
X17180184Y-46508712D01*
X16792141Y-46453310D01*
X16248296Y-46376833D01*
X15852273Y-46335624D01*
X15586303Y-46329553D01*
X15432617Y-46358486D01*
X15373445Y-46422290D01*
X15371333Y-46442691D01*
X15395179Y-46510450D01*
X15479305Y-46583539D01*
X15642596Y-46670302D01*
X15903936Y-46779082D01*
X16282208Y-46918223D01*
X16796296Y-47096066D01*
X17026360Y-47173904D01*
X18461667Y-47657523D01*
X19862575Y-49019262D01*
X20785627Y-49909410D01*
X21614783Y-50690901D01*
X22371107Y-51379410D01*
X23075661Y-51990612D01*
X23749507Y-52540183D01*
X24413709Y-53043797D01*
X25089328Y-53517129D01*
X25797427Y-53975855D01*
X26559069Y-54435649D01*
X27395317Y-54912188D01*
X28327232Y-55421145D01*
X28814553Y-55681475D01*
X29497830Y-56046184D01*
X30043909Y-56342042D01*
X30466403Y-56577197D01*
X30778926Y-56759798D01*
X30995093Y-56897996D01*
X31128518Y-56999938D01*
X31192815Y-57073774D01*
X31204000Y-57111724D01*
X31152972Y-57222542D01*
X31010800Y-57440529D01*
X30793850Y-57745024D01*
X30518486Y-58115366D01*
X30201076Y-58530895D01*
X29857986Y-58970950D01*
X29505580Y-59414871D01*
X29160225Y-59841997D01*
X28838286Y-60231668D01*
X28556131Y-60563223D01*
X28330124Y-60816001D01*
X28176632Y-60969342D01*
X28118693Y-61006667D01*
X28010742Y-60959780D01*
X27798702Y-60832625D01*
X27514747Y-60645459D01*
X27237634Y-60451994D01*
X26225756Y-59649252D01*
X25222899Y-58699872D01*
X24250368Y-57626104D01*
X23329473Y-56450197D01*
X23106633Y-56138333D01*
X22826489Y-55738692D01*
X22535124Y-55322903D01*
X22272013Y-54947303D01*
X22117412Y-54726504D01*
X21907062Y-54426986D01*
X21733142Y-54201385D01*
X21567667Y-54039524D01*
X21382647Y-53931223D01*
X21150097Y-53866303D01*
X20842028Y-53834587D01*
X20430454Y-53825894D01*
X19887386Y-53830047D01*
X19659736Y-53832667D01*
X19074879Y-53837289D01*
X18624280Y-53834663D01*
X18272926Y-53822114D01*
X17985802Y-53796966D01*
X17727895Y-53756541D01*
X17464192Y-53698164D01*
X17278062Y-53650634D01*
X16588811Y-53437902D01*
X15859159Y-53159126D01*
X15167984Y-52846180D01*
X14778667Y-52640649D01*
X14086545Y-52180945D01*
X13383572Y-51593145D01*
X12702414Y-50912796D01*
X12075738Y-50175447D01*
X11536213Y-49416647D01*
X11116505Y-48671943D01*
X11100243Y-48637819D01*
X10887341Y-48160751D01*
X10730543Y-47733237D01*
X10621914Y-47313568D01*
X10553518Y-46860037D01*
X10517417Y-46330934D01*
X10505676Y-45684551D01*
X10505591Y-45512667D01*
X10508204Y-44986255D01*
X10516437Y-44594869D01*
X10534253Y-44304208D01*
X10565613Y-44079972D01*
X10614480Y-43887861D01*
X10684816Y-43693575D01*
X10727890Y-43588215D01*
X11191505Y-42622742D01*
X11724862Y-41800942D01*
X12345201Y-41105504D01*
X13069761Y-40519112D01*
X13915781Y-40024454D01*
X14567000Y-39732557D01*
X15244333Y-39459000D01*
X17107000Y-39463832D01*
X17721047Y-39466265D01*
X18203425Y-39472427D01*
X18591801Y-39485999D01*
X18923838Y-39510663D01*
X19237202Y-39550101D01*
X19569559Y-39607996D01*
X19958572Y-39688027D01*
X20409000Y-39786608D01*
X21191513Y-39957061D01*
X21833601Y-40090757D01*
X22359221Y-40191593D01*
X22792329Y-40263465D01*
X23156882Y-40310266D01*
X23476838Y-40335893D01*
X23776152Y-40344242D01*
X23838000Y-40344168D01*
X24135345Y-40336612D01*
X24403203Y-40310879D01*
X24655885Y-40256980D01*
X24907703Y-40164925D01*
X25172968Y-40024727D01*
X25465991Y-39826396D01*
X25801084Y-39559944D01*
X26192557Y-39215381D01*
X26654722Y-38782719D01*
X27201890Y-38251969D01*
X27848372Y-37613142D01*
X28078150Y-37384667D01*
X29010164Y-36448184D01*
X29826272Y-35609374D01*
X30524469Y-34870447D01*
X31102749Y-34233610D01*
X31559108Y-33701071D01*
X31891541Y-33275039D01*
X32098042Y-32957722D01*
X32098352Y-32957152D01*
X32200934Y-32741381D01*
X32272957Y-32512746D01*
X32313176Y-32251888D01*
X32320350Y-31939451D01*
X32293235Y-31556076D01*
X32230589Y-31082407D01*
X32131168Y-30499085D01*
X31993730Y-29786754D01*
X31849546Y-29082003D01*
X31653256Y-28116056D01*
X31497158Y-27293132D01*
X31378828Y-26592370D01*
X31295847Y-25992907D01*
X31245791Y-25473884D01*
X31226240Y-25014439D01*
X31234772Y-24593711D01*
X31268964Y-24190838D01*
X31275436Y-24136498D01*
X31482239Y-23100013D01*
X31836002Y-22146173D01*
X32333597Y-21279213D01*
X32971898Y-20503370D01*
X33747778Y-19822880D01*
X34658112Y-19241977D01*
X35027315Y-19053645D01*
X35924084Y-18716410D01*
X36870535Y-18535860D01*
X37853660Y-18511377D01*
X38860449Y-18642344D01*
G36*
X56304489Y-17675175D02*
X57104339Y-17763319D01*
X57942785Y-17930446D01*
X58795585Y-18170935D01*
X59638497Y-18479165D01*
X60447277Y-18849516D01*
X61197683Y-19276365D01*
X61726333Y-19644492D01*
X62510522Y-20315436D01*
X63263158Y-21092674D01*
X63943049Y-21928997D01*
X64509006Y-22777191D01*
X64604379Y-22943167D01*
X64770138Y-23281948D01*
X64956292Y-23728213D01*
X65141861Y-24225248D01*
X65305869Y-24716334D01*
X65427336Y-25144755D01*
X65442956Y-25210369D01*
X65460821Y-25359123D01*
X65399996Y-25445878D01*
X65222029Y-25512880D01*
X65149334Y-25532948D01*
X64660792Y-25656583D01*
X64118700Y-25780687D01*
X63560757Y-25897934D01*
X63024661Y-26000998D01*
X62548111Y-26082551D01*
X62168806Y-26135266D01*
X61966113Y-26151613D01*
X61654243Y-26144657D01*
X61402301Y-26089417D01*
X61173949Y-25964262D01*
X60932850Y-25747564D01*
X60642664Y-25417693D01*
X60555943Y-25312255D01*
X59863696Y-24391872D01*
X59266596Y-23450539D01*
X58775333Y-22510556D01*
X58400595Y-21594219D01*
X58153072Y-20723829D01*
X58055658Y-20096357D01*
X58015139Y-19786864D01*
X57961241Y-19560434D01*
X57904144Y-19459359D01*
X57902151Y-19458590D01*
X57814326Y-19508515D01*
X57741046Y-19707401D01*
X57684741Y-20035313D01*
X57647842Y-20472311D01*
X57632781Y-20998460D01*
X57641950Y-21592777D01*
X57674568Y-22185974D01*
X57733787Y-22716162D01*
X57829324Y-23217214D01*
X57970899Y-23723001D01*
X58168230Y-24267394D01*
X58431035Y-24884264D01*
X58769033Y-25607484D01*
X58830272Y-25734367D01*
X59071693Y-26235575D01*
X59245516Y-26606504D01*
X59359274Y-26868631D01*
X59420498Y-27043432D01*
X59436719Y-27152383D01*
X59415470Y-27216960D01*
X59364745Y-27258367D01*
X58639265Y-27733649D01*
X57895926Y-28306461D01*
X57181760Y-28935960D01*
X56543803Y-29581300D01*
X56132642Y-30065174D01*
X55897875Y-30357574D01*
X55697193Y-30592248D01*
X55555099Y-30741457D01*
X55500583Y-30780667D01*
X55420726Y-30716290D01*
X55272957Y-30545098D01*
X55085032Y-30299991D01*
X55024416Y-30216185D01*
X54707915Y-29744731D01*
X54362507Y-29183719D01*
X54015686Y-28581862D01*
X53694947Y-27987870D01*
X53427785Y-27450454D01*
X53294701Y-27151707D01*
X53025294Y-26403227D01*
X52793560Y-25560738D01*
X52607380Y-24670428D01*
X52474635Y-23778482D01*
X52403208Y-22931088D01*
X52400979Y-22174430D01*
X52413568Y-21988134D01*
X52537572Y-21074974D01*
X52742013Y-20230272D01*
X53018042Y-19479935D01*
X53356806Y-18849868D01*
X53595029Y-18530327D01*
X53848684Y-18290719D01*
X54172395Y-18057618D01*
X54378939Y-17940855D01*
X54917546Y-17758322D01*
X55567477Y-17671636D01*
X56304489Y-17675175D01*
X56304489Y-17675175D01*
G37*
X56304489Y-17675175D02*
X57104339Y-17763319D01*
X57942785Y-17930446D01*
X58795585Y-18170935D01*
X59638497Y-18479165D01*
X60447277Y-18849516D01*
X61197683Y-19276365D01*
X61726333Y-19644492D01*
X62510522Y-20315436D01*
X63263158Y-21092674D01*
X63943049Y-21928997D01*
X64509006Y-22777191D01*
X64604379Y-22943167D01*
X64770138Y-23281948D01*
X64956292Y-23728213D01*
X65141861Y-24225248D01*
X65305869Y-24716334D01*
X65427336Y-25144755D01*
X65442956Y-25210369D01*
X65460821Y-25359123D01*
X65399996Y-25445878D01*
X65222029Y-25512880D01*
X65149334Y-25532948D01*
X64660792Y-25656583D01*
X64118700Y-25780687D01*
X63560757Y-25897934D01*
X63024661Y-26000998D01*
X62548111Y-26082551D01*
X62168806Y-26135266D01*
X61966113Y-26151613D01*
X61654243Y-26144657D01*
X61402301Y-26089417D01*
X61173949Y-25964262D01*
X60932850Y-25747564D01*
X60642664Y-25417693D01*
X60555943Y-25312255D01*
X59863696Y-24391872D01*
X59266596Y-23450539D01*
X58775333Y-22510556D01*
X58400595Y-21594219D01*
X58153072Y-20723829D01*
X58055658Y-20096357D01*
X58015139Y-19786864D01*
X57961241Y-19560434D01*
X57904144Y-19459359D01*
X57902151Y-19458590D01*
X57814326Y-19508515D01*
X57741046Y-19707401D01*
X57684741Y-20035313D01*
X57647842Y-20472311D01*
X57632781Y-20998460D01*
X57641950Y-21592777D01*
X57674568Y-22185974D01*
X57733787Y-22716162D01*
X57829324Y-23217214D01*
X57970899Y-23723001D01*
X58168230Y-24267394D01*
X58431035Y-24884264D01*
X58769033Y-25607484D01*
X58830272Y-25734367D01*
X59071693Y-26235575D01*
X59245516Y-26606504D01*
X59359274Y-26868631D01*
X59420498Y-27043432D01*
X59436719Y-27152383D01*
X59415470Y-27216960D01*
X59364745Y-27258367D01*
X58639265Y-27733649D01*
X57895926Y-28306461D01*
X57181760Y-28935960D01*
X56543803Y-29581300D01*
X56132642Y-30065174D01*
X55897875Y-30357574D01*
X55697193Y-30592248D01*
X55555099Y-30741457D01*
X55500583Y-30780667D01*
X55420726Y-30716290D01*
X55272957Y-30545098D01*
X55085032Y-30299991D01*
X55024416Y-30216185D01*
X54707915Y-29744731D01*
X54362507Y-29183719D01*
X54015686Y-28581862D01*
X53694947Y-27987870D01*
X53427785Y-27450454D01*
X53294701Y-27151707D01*
X53025294Y-26403227D01*
X52793560Y-25560738D01*
X52607380Y-24670428D01*
X52474635Y-23778482D01*
X52403208Y-22931088D01*
X52400979Y-22174430D01*
X52413568Y-21988134D01*
X52537572Y-21074974D01*
X52742013Y-20230272D01*
X53018042Y-19479935D01*
X53356806Y-18849868D01*
X53595029Y-18530327D01*
X53848684Y-18290719D01*
X54172395Y-18057618D01*
X54378939Y-17940855D01*
X54917546Y-17758322D01*
X55567477Y-17671636D01*
X56304489Y-17675175D01*
D12*
X58326565Y-29572419D02*
X58461252Y-29505076D01*
X58528596Y-29505076D01*
X58629611Y-29538748D01*
X58730626Y-29639763D01*
X58764298Y-29740778D01*
X58764298Y-29808122D01*
X58730626Y-29909137D01*
X58461252Y-30178512D01*
X57754145Y-29471405D01*
X57989848Y-29235702D01*
X58090863Y-29202030D01*
X58158206Y-29202030D01*
X58259222Y-29235702D01*
X58326565Y-29303045D01*
X58360237Y-29404061D01*
X58360237Y-29471404D01*
X58326565Y-29572419D01*
X58090862Y-29808122D01*
X58393908Y-28831641D02*
X58865313Y-28360237D01*
X59101015Y-29538748D01*
X59572420Y-29067343D01*
X60212183Y-28427580D02*
X59808122Y-28831641D01*
X60010152Y-28629611D02*
X59303045Y-27922504D01*
X59336717Y-28090863D01*
X59336717Y-28225550D01*
X59303045Y-28326565D01*
X61407326Y-29053926D02*
X61946075Y-29592674D01*
X61407327Y-29592674D02*
X61946075Y-29053926D01*
X20326565Y-67572419D02*
X20461252Y-67505076D01*
X20528596Y-67505076D01*
X20629611Y-67538748D01*
X20730626Y-67639763D01*
X20764298Y-67740778D01*
X20764298Y-67808122D01*
X20730626Y-67909137D01*
X20461252Y-68178512D01*
X19754145Y-67471405D01*
X19989848Y-67235702D01*
X20090863Y-67202030D01*
X20158206Y-67202030D01*
X20259222Y-67235702D01*
X20326565Y-67303045D01*
X20360237Y-67404061D01*
X20360237Y-67471404D01*
X20326565Y-67572419D01*
X20090862Y-67808122D01*
X20393908Y-66831641D02*
X20865313Y-66360237D01*
X21101015Y-67538748D01*
X21572420Y-67067343D01*
X21168359Y-66191878D02*
X21168359Y-66124535D01*
X21202030Y-66023519D01*
X21370390Y-65855160D01*
X21471405Y-65821488D01*
X21538748Y-65821488D01*
X21639763Y-65855160D01*
X21707107Y-65922504D01*
X21774450Y-66057190D01*
X21774450Y-66865313D01*
X22212183Y-66427580D01*
X15952910Y-64508342D02*
X16491659Y-65047090D01*
X15952911Y-65047090D02*
X16491659Y-64508342D01*
X21952381Y-15738095D02*
X20952381Y-15738095D01*
X20952381Y-15500000D01*
X21000000Y-15357142D01*
X21095238Y-15261904D01*
X21190476Y-15214285D01*
X21380952Y-15166666D01*
X21523810Y-15166666D01*
X21714286Y-15214285D01*
X21809524Y-15261904D01*
X21904762Y-15357142D01*
X21952381Y-15500000D01*
X21952381Y-15738095D01*
X21952381Y-14214285D02*
X21952381Y-14785714D01*
X21952381Y-14500000D02*
X20952381Y-14500000D01*
X21095238Y-14595238D01*
X21190476Y-14690476D01*
X21238095Y-14785714D01*
X22309523Y-19952381D02*
X22309523Y-18952381D01*
X22785713Y-19285714D02*
X22785713Y-19952381D01*
X22785713Y-19380952D02*
X22833332Y-19333333D01*
X22928570Y-19285714D01*
X23071428Y-19285714D01*
X23166666Y-19333333D01*
X23214285Y-19428571D01*
X23214285Y-19952381D01*
X23547618Y-19285714D02*
X23928570Y-19285714D01*
X23690475Y-19952381D02*
X23690475Y-19095238D01*
X23738094Y-19000000D01*
X23833332Y-18952381D01*
X23928570Y-18952381D01*
X24261904Y-19952381D02*
X24261904Y-19285714D01*
X24261904Y-19476190D02*
X24309523Y-19380952D01*
X24357142Y-19333333D01*
X24452380Y-19285714D01*
X24547619Y-19285714D01*
X25309524Y-19952381D02*
X25309524Y-19428571D01*
X25261905Y-19333333D01*
X25166667Y-19285714D01*
X24976190Y-19285714D01*
X24880952Y-19333333D01*
X25309524Y-19904762D02*
X25214286Y-19952381D01*
X24976190Y-19952381D01*
X24880952Y-19904762D01*
X24833333Y-19809524D01*
X24833333Y-19714286D01*
X24880952Y-19619048D01*
X24976190Y-19571429D01*
X25214286Y-19571429D01*
X25309524Y-19523810D01*
X25785714Y-19952381D02*
X25785714Y-19285714D01*
X25785714Y-19476190D02*
X25833333Y-19380952D01*
X25880952Y-19333333D01*
X25976190Y-19285714D01*
X26071429Y-19285714D01*
X26785715Y-19904762D02*
X26690477Y-19952381D01*
X26500000Y-19952381D01*
X26404762Y-19904762D01*
X26357143Y-19809524D01*
X26357143Y-19428571D01*
X26404762Y-19333333D01*
X26500000Y-19285714D01*
X26690477Y-19285714D01*
X26785715Y-19333333D01*
X26833334Y-19428571D01*
X26833334Y-19523810D01*
X26357143Y-19619048D01*
X27690477Y-19952381D02*
X27690477Y-18952381D01*
X27690477Y-19904762D02*
X27595239Y-19952381D01*
X27404762Y-19952381D01*
X27309524Y-19904762D01*
X27261905Y-19857143D01*
X27214286Y-19761905D01*
X27214286Y-19476190D01*
X27261905Y-19380952D01*
X27309524Y-19333333D01*
X27404762Y-19285714D01*
X27595239Y-19285714D01*
X27690477Y-19333333D01*
X63823096Y-32866920D02*
X63115989Y-32159813D01*
X63284348Y-31991454D01*
X63419035Y-31924110D01*
X63553722Y-31924110D01*
X63654737Y-31957782D01*
X63823096Y-32058797D01*
X63924112Y-32159813D01*
X64025127Y-32328171D01*
X64058798Y-32429187D01*
X64058798Y-32563873D01*
X63991454Y-32698561D01*
X63823096Y-32866920D01*
X63856767Y-31553721D02*
X63856767Y-31486378D01*
X63890439Y-31385363D01*
X64058798Y-31217003D01*
X64159814Y-31183332D01*
X64227157Y-31183332D01*
X64328172Y-31217003D01*
X64395516Y-31284347D01*
X64462859Y-31419034D01*
X64462859Y-32227156D01*
X64900592Y-31789423D01*
X8952381Y-37738095D02*
X7952381Y-37738095D01*
X7952381Y-37500000D01*
X8000000Y-37357142D01*
X8095238Y-37261904D01*
X8190476Y-37214285D01*
X8380952Y-37166666D01*
X8523810Y-37166666D01*
X8714286Y-37214285D01*
X8809524Y-37261904D01*
X8904762Y-37357142D01*
X8952381Y-37500000D01*
X8952381Y-37738095D01*
X7952381Y-36833333D02*
X7952381Y-36214285D01*
X8333333Y-36547619D01*
X8333333Y-36404761D01*
X8380952Y-36309523D01*
X8428571Y-36261904D01*
X8523810Y-36214285D01*
X8761905Y-36214285D01*
X8857143Y-36261904D01*
X8904762Y-36309523D01*
X8952381Y-36404761D01*
X8952381Y-36690476D01*
X8904762Y-36785714D01*
X8857143Y-36833333D01*
X15785714Y-38571428D02*
X16452381Y-38571428D01*
X15404762Y-38809524D02*
X16119048Y-39047619D01*
X16119048Y-38428571D01*
X15452381Y-38142857D02*
X15452381Y-37523809D01*
X15833333Y-37857143D01*
X15833333Y-37714285D01*
X15880952Y-37619047D01*
X15928571Y-37571428D01*
X16023810Y-37523809D01*
X16261905Y-37523809D01*
X16357143Y-37571428D01*
X16404762Y-37619047D01*
X16452381Y-37714285D01*
X16452381Y-38000000D01*
X16404762Y-38095238D01*
X16357143Y-38142857D01*
X15452381Y-37190476D02*
X15452381Y-36571428D01*
X15833333Y-36904762D01*
X15833333Y-36761904D01*
X15880952Y-36666666D01*
X15928571Y-36619047D01*
X16023810Y-36571428D01*
X16261905Y-36571428D01*
X16357143Y-36619047D01*
X16404762Y-36666666D01*
X16452381Y-36761904D01*
X16452381Y-37047619D01*
X16404762Y-37142857D01*
X16357143Y-37190476D01*
X16452381Y-36142857D02*
X15452381Y-36142857D01*
X16166667Y-35809523D01*
X15452381Y-35476190D01*
X16452381Y-35476190D01*
X16452381Y-35000000D02*
X15452381Y-35000000D01*
X15928571Y-35000000D02*
X15928571Y-34428571D01*
X16452381Y-34428571D02*
X15452381Y-34428571D01*
X15785714Y-34047619D02*
X15785714Y-33523809D01*
X16452381Y-34047619D01*
X16452381Y-33523809D01*
X16452381Y-31809523D02*
X15976190Y-32142857D01*
X16452381Y-32380952D02*
X15452381Y-32380952D01*
X15452381Y-31999999D01*
X15500000Y-31904761D01*
X15547619Y-31857142D01*
X15642857Y-31809523D01*
X15785714Y-31809523D01*
X15880952Y-31857142D01*
X15928571Y-31904761D01*
X15976190Y-31999999D01*
X15976190Y-32380952D01*
X15928571Y-31047618D02*
X15928571Y-31380952D01*
X16452381Y-31380952D02*
X15452381Y-31380952D01*
X15452381Y-30904761D01*
X30261905Y-19452381D02*
X30261905Y-18452381D01*
X30500000Y-18452381D01*
X30642858Y-18500000D01*
X30738096Y-18595238D01*
X30785715Y-18690476D01*
X30833334Y-18880952D01*
X30833334Y-19023810D01*
X30785715Y-19214286D01*
X30738096Y-19309524D01*
X30642858Y-19404762D01*
X30500000Y-19452381D01*
X30261905Y-19452381D01*
X31404762Y-18880952D02*
X31309524Y-18833333D01*
X31261905Y-18785714D01*
X31214286Y-18690476D01*
X31214286Y-18642857D01*
X31261905Y-18547619D01*
X31309524Y-18500000D01*
X31404762Y-18452381D01*
X31595239Y-18452381D01*
X31690477Y-18500000D01*
X31738096Y-18547619D01*
X31785715Y-18642857D01*
X31785715Y-18690476D01*
X31738096Y-18785714D01*
X31690477Y-18833333D01*
X31595239Y-18880952D01*
X31404762Y-18880952D01*
X31309524Y-18928571D01*
X31261905Y-18976190D01*
X31214286Y-19071429D01*
X31214286Y-19261905D01*
X31261905Y-19357143D01*
X31309524Y-19404762D01*
X31404762Y-19452381D01*
X31595239Y-19452381D01*
X31690477Y-19404762D01*
X31738096Y-19357143D01*
X31785715Y-19261905D01*
X31785715Y-19071429D01*
X31738096Y-18976190D01*
X31690477Y-18928571D01*
X31595239Y-18880952D01*
X29738095Y-17452381D02*
X29928571Y-17452381D01*
X30023810Y-17404762D01*
X30071429Y-17357143D01*
X30166667Y-17214286D01*
X30214286Y-17023810D01*
X30214286Y-16642857D01*
X30166667Y-16547619D01*
X30119048Y-16500000D01*
X30023810Y-16452381D01*
X29833333Y-16452381D01*
X29738095Y-16500000D01*
X29690476Y-16547619D01*
X29642857Y-16642857D01*
X29642857Y-16880952D01*
X29690476Y-16976190D01*
X29738095Y-17023810D01*
X29833333Y-17071429D01*
X30023810Y-17071429D01*
X30119048Y-17023810D01*
X30166667Y-16976190D01*
X30214286Y-16880952D01*
X31071429Y-16785714D02*
X31071429Y-17452381D01*
X30833333Y-16404762D02*
X30595238Y-17119048D01*
X31214286Y-17119048D01*
X31785714Y-16452381D02*
X31880953Y-16452381D01*
X31976191Y-16500000D01*
X32023810Y-16547619D01*
X32071429Y-16642857D01*
X32119048Y-16833333D01*
X32119048Y-17071429D01*
X32071429Y-17261905D01*
X32023810Y-17357143D01*
X31976191Y-17404762D01*
X31880953Y-17452381D01*
X31785714Y-17452381D01*
X31690476Y-17404762D01*
X31642857Y-17357143D01*
X31595238Y-17261905D01*
X31547619Y-17071429D01*
X31547619Y-16833333D01*
X31595238Y-16642857D01*
X31642857Y-16547619D01*
X31690476Y-16500000D01*
X31785714Y-16452381D01*
X32547619Y-16785714D02*
X32547619Y-17452381D01*
X32547619Y-16880952D02*
X32595238Y-16833333D01*
X32690476Y-16785714D01*
X32833334Y-16785714D01*
X32928572Y-16833333D01*
X32976191Y-16928571D01*
X32976191Y-17452381D01*
X33452381Y-17452381D02*
X33452381Y-16785714D01*
X33452381Y-16880952D02*
X33500000Y-16833333D01*
X33595238Y-16785714D01*
X33738096Y-16785714D01*
X33833334Y-16833333D01*
X33880953Y-16928571D01*
X33880953Y-17452381D01*
X33880953Y-16928571D02*
X33928572Y-16833333D01*
X34023810Y-16785714D01*
X34166667Y-16785714D01*
X34261905Y-16833333D01*
X34309524Y-16928571D01*
X34309524Y-17452381D01*
X8452381Y-31095238D02*
X7976190Y-31428572D01*
X8452381Y-31666667D02*
X7452381Y-31666667D01*
X7452381Y-31285714D01*
X7500000Y-31190476D01*
X7547619Y-31142857D01*
X7642857Y-31095238D01*
X7785714Y-31095238D01*
X7880952Y-31142857D01*
X7928571Y-31190476D01*
X7976190Y-31285714D01*
X7976190Y-31666667D01*
X7928571Y-30333333D02*
X7928571Y-30666667D01*
X8452381Y-30666667D02*
X7452381Y-30666667D01*
X7452381Y-30190476D01*
X8452381Y-29285714D02*
X8452381Y-29857143D01*
X8452381Y-29571429D02*
X7452381Y-29571429D01*
X7595238Y-29666667D01*
X7690476Y-29761905D01*
X7738095Y-29857143D01*
X3785714Y-37357143D02*
X4452381Y-37357143D01*
X3404762Y-37595239D02*
X4119048Y-37833334D01*
X4119048Y-37214286D01*
X3452381Y-36928572D02*
X3452381Y-36309524D01*
X3833333Y-36642858D01*
X3833333Y-36500000D01*
X3880952Y-36404762D01*
X3928571Y-36357143D01*
X4023810Y-36309524D01*
X4261905Y-36309524D01*
X4357143Y-36357143D01*
X4404762Y-36404762D01*
X4452381Y-36500000D01*
X4452381Y-36785715D01*
X4404762Y-36880953D01*
X4357143Y-36928572D01*
X3452381Y-35976191D02*
X3452381Y-35357143D01*
X3833333Y-35690477D01*
X3833333Y-35547619D01*
X3880952Y-35452381D01*
X3928571Y-35404762D01*
X4023810Y-35357143D01*
X4261905Y-35357143D01*
X4357143Y-35404762D01*
X4404762Y-35452381D01*
X4452381Y-35547619D01*
X4452381Y-35833334D01*
X4404762Y-35928572D01*
X4357143Y-35976191D01*
X4452381Y-34928572D02*
X3452381Y-34928572D01*
X4166667Y-34595238D01*
X3452381Y-34261905D01*
X4452381Y-34261905D01*
X4452381Y-33785715D02*
X3452381Y-33785715D01*
X3928571Y-33785715D02*
X3928571Y-33214286D01*
X4452381Y-33214286D02*
X3452381Y-33214286D01*
X3785714Y-32833334D02*
X3785714Y-32309524D01*
X4452381Y-32833334D01*
X4452381Y-32309524D01*
X3452381Y-31309524D02*
X3452381Y-30738095D01*
X4452381Y-31023810D02*
X3452381Y-31023810D01*
X4452381Y-30404762D02*
X3785714Y-30404762D01*
X3976190Y-30404762D02*
X3880952Y-30357143D01*
X3833333Y-30309524D01*
X3785714Y-30214286D01*
X3785714Y-30119047D01*
X4452381Y-29357142D02*
X3928571Y-29357142D01*
X3833333Y-29404761D01*
X3785714Y-29499999D01*
X3785714Y-29690476D01*
X3833333Y-29785714D01*
X4404762Y-29357142D02*
X4452381Y-29452380D01*
X4452381Y-29690476D01*
X4404762Y-29785714D01*
X4309524Y-29833333D01*
X4214286Y-29833333D01*
X4119048Y-29785714D01*
X4071429Y-29690476D01*
X4071429Y-29452380D01*
X4023810Y-29357142D01*
X3785714Y-28880952D02*
X4452381Y-28880952D01*
X3880952Y-28880952D02*
X3833333Y-28833333D01*
X3785714Y-28738095D01*
X3785714Y-28595237D01*
X3833333Y-28499999D01*
X3928571Y-28452380D01*
X4452381Y-28452380D01*
X4404762Y-28023809D02*
X4452381Y-27928571D01*
X4452381Y-27738095D01*
X4404762Y-27642856D01*
X4309524Y-27595237D01*
X4261905Y-27595237D01*
X4166667Y-27642856D01*
X4119048Y-27738095D01*
X4119048Y-27880952D01*
X4071429Y-27976190D01*
X3976190Y-28023809D01*
X3928571Y-28023809D01*
X3833333Y-27976190D01*
X3785714Y-27880952D01*
X3785714Y-27738095D01*
X3833333Y-27642856D01*
X4452381Y-27166666D02*
X3785714Y-27166666D01*
X3880952Y-27166666D02*
X3833333Y-27119047D01*
X3785714Y-27023809D01*
X3785714Y-26880951D01*
X3833333Y-26785713D01*
X3928571Y-26738094D01*
X4452381Y-26738094D01*
X3928571Y-26738094D02*
X3833333Y-26690475D01*
X3785714Y-26595237D01*
X3785714Y-26452380D01*
X3833333Y-26357142D01*
X3928571Y-26309523D01*
X4452381Y-26309523D01*
X4452381Y-25833333D02*
X3785714Y-25833333D01*
X3452381Y-25833333D02*
X3500000Y-25880952D01*
X3547619Y-25833333D01*
X3500000Y-25785714D01*
X3452381Y-25833333D01*
X3547619Y-25833333D01*
X3785714Y-25500000D02*
X3785714Y-25119048D01*
X3452381Y-25357143D02*
X4309524Y-25357143D01*
X4404762Y-25309524D01*
X4452381Y-25214286D01*
X4452381Y-25119048D01*
X3785714Y-24928571D02*
X3785714Y-24547619D01*
X3452381Y-24785714D02*
X4309524Y-24785714D01*
X4404762Y-24738095D01*
X4452381Y-24642857D01*
X4452381Y-24547619D01*
X4404762Y-23833332D02*
X4452381Y-23928570D01*
X4452381Y-24119047D01*
X4404762Y-24214285D01*
X4309524Y-24261904D01*
X3928571Y-24261904D01*
X3833333Y-24214285D01*
X3785714Y-24119047D01*
X3785714Y-23928570D01*
X3833333Y-23833332D01*
X3928571Y-23785713D01*
X4023810Y-23785713D01*
X4119048Y-24261904D01*
X4452381Y-23357142D02*
X3785714Y-23357142D01*
X3976190Y-23357142D02*
X3880952Y-23309523D01*
X3833333Y-23261904D01*
X3785714Y-23166666D01*
X3785714Y-23071427D01*
X4952381Y-47095238D02*
X4476190Y-47428572D01*
X4952381Y-47666667D02*
X3952381Y-47666667D01*
X3952381Y-47285714D01*
X4000000Y-47190476D01*
X4047619Y-47142857D01*
X4142857Y-47095238D01*
X4285714Y-47095238D01*
X4380952Y-47142857D01*
X4428571Y-47190476D01*
X4476190Y-47285714D01*
X4476190Y-47666667D01*
X4428571Y-46333333D02*
X4428571Y-46666667D01*
X4952381Y-46666667D02*
X3952381Y-46666667D01*
X3952381Y-46190476D01*
X4047619Y-45857143D02*
X4000000Y-45809524D01*
X3952381Y-45714286D01*
X3952381Y-45476190D01*
X4000000Y-45380952D01*
X4047619Y-45333333D01*
X4142857Y-45285714D01*
X4238095Y-45285714D01*
X4380952Y-45333333D01*
X4952381Y-45904762D01*
X4952381Y-45285714D01*
X9285714Y-54285714D02*
X9952381Y-54285714D01*
X8904762Y-54523810D02*
X9619048Y-54761905D01*
X9619048Y-54142857D01*
X8952381Y-53857143D02*
X8952381Y-53238095D01*
X9333333Y-53571429D01*
X9333333Y-53428571D01*
X9380952Y-53333333D01*
X9428571Y-53285714D01*
X9523810Y-53238095D01*
X9761905Y-53238095D01*
X9857143Y-53285714D01*
X9904762Y-53333333D01*
X9952381Y-53428571D01*
X9952381Y-53714286D01*
X9904762Y-53809524D01*
X9857143Y-53857143D01*
X8952381Y-52904762D02*
X8952381Y-52285714D01*
X9333333Y-52619048D01*
X9333333Y-52476190D01*
X9380952Y-52380952D01*
X9428571Y-52333333D01*
X9523810Y-52285714D01*
X9761905Y-52285714D01*
X9857143Y-52333333D01*
X9904762Y-52380952D01*
X9952381Y-52476190D01*
X9952381Y-52761905D01*
X9904762Y-52857143D01*
X9857143Y-52904762D01*
X9952381Y-51857143D02*
X8952381Y-51857143D01*
X9666667Y-51523809D01*
X8952381Y-51190476D01*
X9952381Y-51190476D01*
X9952381Y-50714286D02*
X8952381Y-50714286D01*
X9428571Y-50714286D02*
X9428571Y-50142857D01*
X9952381Y-50142857D02*
X8952381Y-50142857D01*
X9285714Y-49761905D02*
X9285714Y-49238095D01*
X9952381Y-49761905D01*
X9952381Y-49238095D01*
X9952381Y-47523809D02*
X9476190Y-47857143D01*
X9952381Y-48095238D02*
X8952381Y-48095238D01*
X8952381Y-47714285D01*
X9000000Y-47619047D01*
X9047619Y-47571428D01*
X9142857Y-47523809D01*
X9285714Y-47523809D01*
X9380952Y-47571428D01*
X9428571Y-47619047D01*
X9476190Y-47714285D01*
X9476190Y-48095238D01*
X9904762Y-46714285D02*
X9952381Y-46809523D01*
X9952381Y-47000000D01*
X9904762Y-47095238D01*
X9809524Y-47142857D01*
X9428571Y-47142857D01*
X9333333Y-47095238D01*
X9285714Y-47000000D01*
X9285714Y-46809523D01*
X9333333Y-46714285D01*
X9428571Y-46666666D01*
X9523810Y-46666666D01*
X9619048Y-47142857D01*
X9904762Y-45809523D02*
X9952381Y-45904761D01*
X9952381Y-46095238D01*
X9904762Y-46190476D01*
X9857143Y-46238095D01*
X9761905Y-46285714D01*
X9476190Y-46285714D01*
X9380952Y-46238095D01*
X9333333Y-46190476D01*
X9285714Y-46095238D01*
X9285714Y-45904761D01*
X9333333Y-45809523D01*
X9904762Y-44999999D02*
X9952381Y-45095237D01*
X9952381Y-45285714D01*
X9904762Y-45380952D01*
X9809524Y-45428571D01*
X9428571Y-45428571D01*
X9333333Y-45380952D01*
X9285714Y-45285714D01*
X9285714Y-45095237D01*
X9333333Y-44999999D01*
X9428571Y-44952380D01*
X9523810Y-44952380D01*
X9619048Y-45428571D01*
X9952381Y-44523809D02*
X9285714Y-44523809D01*
X8952381Y-44523809D02*
X9000000Y-44571428D01*
X9047619Y-44523809D01*
X9000000Y-44476190D01*
X8952381Y-44523809D01*
X9047619Y-44523809D01*
X9285714Y-44142857D02*
X9952381Y-43904762D01*
X9285714Y-43666666D01*
X9904762Y-42904761D02*
X9952381Y-42999999D01*
X9952381Y-43190476D01*
X9904762Y-43285714D01*
X9809524Y-43333333D01*
X9428571Y-43333333D01*
X9333333Y-43285714D01*
X9285714Y-43190476D01*
X9285714Y-42999999D01*
X9333333Y-42904761D01*
X9428571Y-42857142D01*
X9523810Y-42857142D01*
X9619048Y-43333333D01*
X9952381Y-42428571D02*
X9285714Y-42428571D01*
X9476190Y-42428571D02*
X9380952Y-42380952D01*
X9333333Y-42333333D01*
X9285714Y-42238095D01*
X9285714Y-42142856D01*
X32438095Y-13352381D02*
X32438095Y-14161905D01*
X32485714Y-14257143D01*
X32533333Y-14304762D01*
X32628571Y-14352381D01*
X32819048Y-14352381D01*
X32914286Y-14304762D01*
X32961905Y-14257143D01*
X33009524Y-14161905D01*
X33009524Y-13352381D01*
X34009524Y-14352381D02*
X33438095Y-14352381D01*
X33723809Y-14352381D02*
X33723809Y-13352381D01*
X33628571Y-13495238D01*
X33533333Y-13590476D01*
X33438095Y-13638095D01*
X36817143Y-16507143D02*
X36769524Y-16554762D01*
X36626667Y-16602381D01*
X36531429Y-16602381D01*
X36388571Y-16554762D01*
X36293333Y-16459524D01*
X36245714Y-16364286D01*
X36198095Y-16173810D01*
X36198095Y-16030952D01*
X36245714Y-15840476D01*
X36293333Y-15745238D01*
X36388571Y-15650000D01*
X36531429Y-15602381D01*
X36626667Y-15602381D01*
X36769524Y-15650000D01*
X36817143Y-15697619D01*
X37245714Y-16602381D02*
X37245714Y-15602381D01*
X37245714Y-16078571D02*
X37817143Y-16078571D01*
X37817143Y-16602381D02*
X37817143Y-15602381D01*
X38960000Y-16697619D02*
X38864762Y-16650000D01*
X38769524Y-16554762D01*
X38626667Y-16411905D01*
X38531428Y-16364286D01*
X38436190Y-16364286D01*
X38483809Y-16602381D02*
X38388571Y-16554762D01*
X38293333Y-16459524D01*
X38245714Y-16269048D01*
X38245714Y-15935714D01*
X38293333Y-15745238D01*
X38388571Y-15650000D01*
X38483809Y-15602381D01*
X38674286Y-15602381D01*
X38769524Y-15650000D01*
X38864762Y-15745238D01*
X38912381Y-15935714D01*
X38912381Y-16269048D01*
X38864762Y-16459524D01*
X38769524Y-16554762D01*
X38674286Y-16602381D01*
X38483809Y-16602381D01*
X39864762Y-16602381D02*
X39293333Y-16602381D01*
X39579047Y-16602381D02*
X39579047Y-15602381D01*
X39483809Y-15745238D01*
X39388571Y-15840476D01*
X39293333Y-15888095D01*
X40436190Y-16030952D02*
X40340952Y-15983333D01*
X40293333Y-15935714D01*
X40245714Y-15840476D01*
X40245714Y-15792857D01*
X40293333Y-15697619D01*
X40340952Y-15650000D01*
X40436190Y-15602381D01*
X40626667Y-15602381D01*
X40721905Y-15650000D01*
X40769524Y-15697619D01*
X40817143Y-15792857D01*
X40817143Y-15840476D01*
X40769524Y-15935714D01*
X40721905Y-15983333D01*
X40626667Y-16030952D01*
X40436190Y-16030952D01*
X40340952Y-16078571D01*
X40293333Y-16126190D01*
X40245714Y-16221429D01*
X40245714Y-16411905D01*
X40293333Y-16507143D01*
X40340952Y-16554762D01*
X40436190Y-16602381D01*
X40626667Y-16602381D01*
X40721905Y-16554762D01*
X40769524Y-16507143D01*
X40817143Y-16411905D01*
X40817143Y-16221429D01*
X40769524Y-16126190D01*
X40721905Y-16078571D01*
X40626667Y-16030952D01*
X41150476Y-15602381D02*
X41769524Y-15602381D01*
X41436190Y-15983333D01*
X41579048Y-15983333D01*
X41674286Y-16030952D01*
X41721905Y-16078571D01*
X41769524Y-16173810D01*
X41769524Y-16411905D01*
X41721905Y-16507143D01*
X41674286Y-16554762D01*
X41579048Y-16602381D01*
X41293333Y-16602381D01*
X41198095Y-16554762D01*
X41150476Y-16507143D01*
X42340952Y-16030952D02*
X42245714Y-15983333D01*
X42198095Y-15935714D01*
X42150476Y-15840476D01*
X42150476Y-15792857D01*
X42198095Y-15697619D01*
X42245714Y-15650000D01*
X42340952Y-15602381D01*
X42531429Y-15602381D01*
X42626667Y-15650000D01*
X42674286Y-15697619D01*
X42721905Y-15792857D01*
X42721905Y-15840476D01*
X42674286Y-15935714D01*
X42626667Y-15983333D01*
X42531429Y-16030952D01*
X42340952Y-16030952D01*
X42245714Y-16078571D01*
X42198095Y-16126190D01*
X42150476Y-16221429D01*
X42150476Y-16411905D01*
X42198095Y-16507143D01*
X42245714Y-16554762D01*
X42340952Y-16602381D01*
X42531429Y-16602381D01*
X42626667Y-16554762D01*
X42674286Y-16507143D01*
X42721905Y-16411905D01*
X42721905Y-16221429D01*
X42674286Y-16126190D01*
X42626667Y-16078571D01*
X42531429Y-16030952D01*
X8127707Y-4080203D02*
X8700127Y-4652623D01*
X8801142Y-4686295D01*
X8868485Y-4686295D01*
X8969500Y-4652623D01*
X9104188Y-4517935D01*
X9137860Y-4416920D01*
X9137860Y-4349577D01*
X9104188Y-4248562D01*
X8531768Y-3676142D01*
X8902157Y-3440440D02*
X8902157Y-3373096D01*
X8935829Y-3272081D01*
X9104188Y-3103722D01*
X9205203Y-3070050D01*
X9272547Y-3070050D01*
X9373562Y-3103722D01*
X9440905Y-3171065D01*
X9508249Y-3305752D01*
X9508249Y-4113875D01*
X9945982Y-3676142D01*
X12612477Y-1127240D02*
X13319584Y-420133D01*
X13016538Y-1531302D01*
X13723645Y-824195D01*
X13757317Y-2272080D02*
X13858332Y-1699659D01*
X13353255Y-1868019D02*
X14060362Y-1160912D01*
X14329737Y-1430286D01*
X14363408Y-1531302D01*
X14363408Y-1598645D01*
X14329737Y-1699660D01*
X14228722Y-1800675D01*
X14127706Y-1834347D01*
X14060363Y-1834347D01*
X13959348Y-1800675D01*
X13689973Y-1531301D01*
X14666455Y-2440439D02*
X14430752Y-2204736D01*
X14060362Y-2575126D02*
X14767469Y-1868019D01*
X15104187Y-2204737D01*
X15272545Y-2507782D02*
X15339889Y-2507782D01*
X15440904Y-2541454D01*
X15609263Y-2709813D01*
X15642935Y-2810828D01*
X15642935Y-2878172D01*
X15609263Y-2979187D01*
X15541920Y-3046530D01*
X15407233Y-3113874D01*
X14599110Y-3113874D01*
X15036843Y-3551607D01*
X16114340Y-3686294D02*
X15642935Y-4157698D01*
X16215354Y-3248561D02*
X15541919Y-3585279D01*
X15979652Y-4023012D01*
X16350042Y-4864805D02*
X16013324Y-4528087D01*
X16720431Y-3820981D01*
X17427538Y-4528087D02*
X17494882Y-4595431D01*
X17528553Y-4696447D01*
X17528553Y-4763790D01*
X17494882Y-4864805D01*
X17393867Y-5033164D01*
X17225507Y-5201523D01*
X17057149Y-5302538D01*
X16956133Y-5336210D01*
X16888790Y-5336210D01*
X16787775Y-5302538D01*
X16720431Y-5235194D01*
X16686759Y-5134179D01*
X16686759Y-5066836D01*
X16720431Y-4965820D01*
X16821446Y-4797462D01*
X16989805Y-4629102D01*
X17158164Y-4528087D01*
X17259179Y-4494416D01*
X17326522Y-4494416D01*
X17427538Y-4528087D01*
X17629569Y-6144332D02*
X17225507Y-5740271D01*
X17427538Y-5942301D02*
X18134644Y-5235194D01*
X17966286Y-5268866D01*
X17831599Y-5268866D01*
X17730584Y-5235194D01*
X18404019Y-7457530D02*
X18404019Y-7390186D01*
X18437690Y-7221828D01*
X18471362Y-7120812D01*
X18538706Y-6986126D01*
X18673393Y-6784095D01*
X18808080Y-6649408D01*
X19010110Y-6514721D01*
X19144797Y-6447377D01*
X19245812Y-6413706D01*
X19414171Y-6380034D01*
X19481515Y-6380035D01*
X19043782Y-7558545D02*
X19010110Y-7457530D01*
X19010110Y-7390187D01*
X19043782Y-7289172D01*
X19245813Y-7087141D01*
X19346828Y-7053469D01*
X19414172Y-7053469D01*
X19515187Y-7087141D01*
X19616203Y-7188157D01*
X19649874Y-7289172D01*
X19649874Y-7356515D01*
X19616203Y-7457530D01*
X19414172Y-7659561D01*
X19313157Y-7693233D01*
X19245813Y-7693233D01*
X19144798Y-7659561D01*
X19043782Y-7558545D01*
X20053935Y-7625889D02*
X19346828Y-8332996D01*
X20020263Y-7659561D02*
X20121278Y-7693232D01*
X20255966Y-7827920D01*
X20289638Y-7928935D01*
X20289638Y-7996278D01*
X20255966Y-8097294D01*
X20053935Y-8299325D01*
X19952920Y-8332996D01*
X19885576Y-8332996D01*
X19784561Y-8299325D01*
X19649874Y-8164637D01*
X19616202Y-8063622D01*
X20592683Y-8164637D02*
X20862057Y-8434011D01*
X20929400Y-8029950D02*
X20323309Y-8636042D01*
X20289637Y-8737057D01*
X20323309Y-8838072D01*
X20390652Y-8905416D01*
X20693698Y-9073775D02*
X20693698Y-9141118D01*
X20626355Y-9141118D01*
X20626355Y-9073775D01*
X20693698Y-9073775D01*
X20626355Y-9141118D01*
X20626355Y-9679866D02*
X20693698Y-9679866D01*
X20862057Y-9646194D01*
X20963072Y-9612522D01*
X21097759Y-9545179D01*
X21299789Y-9410492D01*
X21434477Y-9275804D01*
X21569164Y-9073774D01*
X21636507Y-8939087D01*
X21670179Y-8838072D01*
X21703851Y-8669714D01*
X21703851Y-8602370D01*
X5366667Y-9377381D02*
X5033333Y-8901190D01*
X4795238Y-9377381D02*
X4795238Y-8377381D01*
X5176191Y-8377381D01*
X5271429Y-8425000D01*
X5319048Y-8472619D01*
X5366667Y-8567857D01*
X5366667Y-8710714D01*
X5319048Y-8805952D01*
X5271429Y-8853571D01*
X5176191Y-8901190D01*
X4795238Y-8901190D01*
X5795238Y-8853571D02*
X6128572Y-8853571D01*
X6271429Y-9377381D02*
X5795238Y-9377381D01*
X5795238Y-8377381D01*
X6271429Y-8377381D01*
X7033334Y-8853571D02*
X6700000Y-8853571D01*
X6700000Y-9377381D02*
X6700000Y-8377381D01*
X7176191Y-8377381D01*
X7700000Y-8377381D02*
X7700000Y-8615476D01*
X7461905Y-8520238D02*
X7700000Y-8615476D01*
X7938096Y-8520238D01*
X7557143Y-8805952D02*
X7700000Y-8615476D01*
X7842858Y-8805952D01*
X8461905Y-8377381D02*
X8461905Y-8615476D01*
X8223810Y-8520238D02*
X8461905Y-8615476D01*
X8700001Y-8520238D01*
X8319048Y-8805952D02*
X8461905Y-8615476D01*
X8604763Y-8805952D01*
%LPC*%
X67299576Y-39099408D02*
X67434263Y-39032064D01*
X67501607Y-39032065D01*
X67602623Y-39065737D01*
X67703638Y-39166752D01*
X67737310Y-39267767D01*
X67737310Y-39335110D01*
X67703638Y-39436126D01*
X67434263Y-39705500D01*
X66727157Y-38998393D01*
X66962859Y-38762690D01*
X67063874Y-38729019D01*
X67131218Y-38729019D01*
X67232233Y-38762690D01*
X67299576Y-38830034D01*
X67333248Y-38931049D01*
X67333248Y-38998393D01*
X67299576Y-39099408D01*
X67063874Y-39335110D01*
X67973012Y-38223942D02*
X68444416Y-38695347D01*
X67669965Y-38526988D02*
X68040355Y-38897378D01*
X68141370Y-38931050D01*
X68242385Y-38897378D01*
X68343401Y-38796362D01*
X68377073Y-38695347D01*
X68377073Y-38628004D01*
X68242385Y-37954569D02*
X68612775Y-37584179D01*
X68713790Y-38425973D01*
X69084180Y-38055584D01*
X68814805Y-37382149D02*
X69185195Y-37011759D01*
X69286210Y-37853553D01*
X69656600Y-37483164D01*
X70161676Y-36910744D02*
X70128004Y-37011759D01*
X69993317Y-37146447D01*
X69892302Y-37180118D01*
X69791286Y-37146447D01*
X69521912Y-36877072D01*
X69488240Y-36776057D01*
X69521912Y-36675042D01*
X69656600Y-36540354D01*
X69757615Y-36506683D01*
X69858630Y-36540354D01*
X69925974Y-36607698D01*
X69656600Y-37011760D01*
X70532065Y-36607698D02*
X70060660Y-36136294D01*
X70195347Y-36270981D02*
X70161675Y-36169965D01*
X70161675Y-36102622D01*
X70195347Y-36001607D01*
X70262691Y-35934263D01*
X70902455Y-36169965D02*
X71003470Y-36136294D01*
X71138157Y-36001607D01*
X71171829Y-35900591D01*
X71138157Y-35799576D01*
X71104486Y-35765904D01*
X71003470Y-35732232D01*
X70902455Y-35765905D01*
X70801439Y-35866920D01*
X70700424Y-35900592D01*
X70599408Y-35866919D01*
X70565737Y-35833247D01*
X70532065Y-35732232D01*
X70565737Y-35631217D01*
X70666752Y-35530202D01*
X70767768Y-35496530D01*
D14*
X80771352Y-72368821D02*
X79294140Y-72108349D01*
X79393368Y-71545602D01*
X79488519Y-71417318D01*
X79571266Y-71359379D01*
X79724356Y-71313842D01*
X79935385Y-71351052D01*
X80063670Y-71446203D01*
X80121609Y-71528949D01*
X80167146Y-71682040D01*
X80067919Y-72244787D01*
X81155859Y-70188175D02*
X81031824Y-70891610D01*
X79554613Y-70631138D01*
X80808219Y-69691695D02*
X80932254Y-68988260D01*
X81205472Y-69906802D02*
X79815085Y-69153926D01*
X81379121Y-68921994D01*
X80812125Y-68024183D02*
X81515558Y-68148217D01*
X79951523Y-68380149D02*
X80812125Y-68024183D01*
X80125171Y-67395341D01*
X76183366Y-80849326D02*
X75773669Y-81434435D01*
X74544941Y-80574070D01*
X75826535Y-79989083D02*
X76113324Y-79579507D01*
X76879852Y-79854641D02*
X76470155Y-80439750D01*
X75241427Y-79579385D01*
X75651124Y-78994277D01*
X76856545Y-79140737D02*
X77266243Y-78555628D01*
X77125670Y-79503576D02*
X76183731Y-78233636D01*
X77699247Y-78684424D01*
X78477672Y-77572718D02*
X77605776Y-77572597D01*
X77986035Y-78274848D02*
X76757307Y-77414484D01*
X77085065Y-76946397D01*
X77225516Y-76870345D01*
X77324997Y-76852804D01*
X77482988Y-76876233D01*
X77658520Y-76999141D01*
X77734573Y-77139593D01*
X77752114Y-77239072D01*
X77728685Y-77397065D01*
X77400927Y-77865151D01*
X78846400Y-77046120D02*
X77617672Y-76185756D01*
X79338037Y-76343990D01*
X78109309Y-75483625D01*
X68888129Y-86869829D02*
X69104631Y-86805430D01*
X69397186Y-86600581D01*
X69473238Y-86460131D01*
X69490779Y-86360650D01*
X69467350Y-86202659D01*
X69385411Y-86085637D01*
X69244961Y-86009585D01*
X69145480Y-85992044D01*
X68987489Y-86015473D01*
X68712476Y-86120841D01*
X68554484Y-86144270D01*
X68455003Y-86126728D01*
X68314553Y-86050677D01*
X68232613Y-85933655D01*
X68209185Y-85775664D01*
X68226726Y-85676183D01*
X68302778Y-85535732D01*
X68595332Y-85330884D01*
X68811834Y-85266485D01*
X70742936Y-85658277D02*
X70157827Y-86067975D01*
X69297462Y-84839246D01*
X70526190Y-83978882D02*
X70760233Y-83815003D01*
X70918226Y-83791574D01*
X71117187Y-83826656D01*
X71339576Y-84019730D01*
X71626364Y-84429306D01*
X71731733Y-84704320D01*
X71696651Y-84903281D01*
X71620598Y-85043731D01*
X71386555Y-85207610D01*
X71228564Y-85231039D01*
X71029603Y-85195957D01*
X70807212Y-85002883D01*
X70520424Y-84593307D01*
X70415056Y-84318293D01*
X70450138Y-84119332D01*
X70526190Y-83978882D01*
X71403853Y-83364335D02*
X72105984Y-82872698D01*
X72615284Y-84347245D02*
X71754919Y-83118517D01*
X58444783Y-90139593D02*
X58184310Y-88662381D01*
X58862766Y-89630709D01*
X59169118Y-88488733D01*
X59429590Y-89965945D01*
X60153926Y-88315085D02*
X60435299Y-88265471D01*
X60588391Y-88311008D01*
X60753884Y-88426888D01*
X60873841Y-88695858D01*
X60960665Y-89188262D01*
X60939936Y-89482039D01*
X60824056Y-89647533D01*
X60695772Y-89742683D01*
X60414398Y-89792296D01*
X60261308Y-89746760D01*
X60095815Y-89630881D01*
X59975857Y-89361910D01*
X59889033Y-88869506D01*
X59909763Y-88575729D01*
X60025643Y-88410236D01*
X60153926Y-88315085D01*
X61680580Y-89569034D02*
X61420108Y-88091823D01*
X61771825Y-88029806D01*
X61995258Y-88062939D01*
X62160753Y-88178819D01*
X62255903Y-88307102D01*
X62375860Y-88576073D01*
X62413070Y-88787102D01*
X62392341Y-89080880D01*
X62346805Y-89233970D01*
X62230924Y-89399464D01*
X62032298Y-89507017D01*
X61680580Y-89569034D01*
X63021354Y-88534785D02*
X63513758Y-88447961D01*
X63861226Y-89184528D02*
X63157792Y-89308562D01*
X62897320Y-87831350D01*
X63600754Y-87707316D01*
D13*
G36*
X47723391Y-85008006D02*
X48349765Y-85270428D01*
X48934078Y-85516826D01*
X49455813Y-85738425D01*
X49894454Y-85926449D01*
X50229483Y-86072124D01*
X50440383Y-86166675D01*
X50497334Y-86194408D01*
X50578955Y-86245889D01*
X50584294Y-86279993D01*
X50492223Y-86299954D01*
X50281614Y-86309012D01*
X49931339Y-86310403D01*
X49746000Y-86309530D01*
X49220990Y-86295296D01*
X48629505Y-86261925D01*
X48066193Y-86215345D01*
X47828773Y-86189452D01*
X47417039Y-86134195D01*
X46882134Y-86054347D01*
X46253635Y-85955028D01*
X45561117Y-85841360D01*
X44834154Y-85718462D01*
X44102322Y-85591457D01*
X43395197Y-85465465D01*
X42742353Y-85345608D01*
X42173366Y-85237005D01*
X41717811Y-85144779D01*
X41448667Y-85084730D01*
X41237000Y-85033759D01*
X41427114Y-84961084D01*
X41563138Y-84918354D01*
X41835913Y-84839996D01*
X42218437Y-84733499D01*
X42683709Y-84606351D01*
X43204729Y-84466043D01*
X43394505Y-84415413D01*
X45171781Y-83942416D01*
X47723391Y-85008006D01*
X47723391Y-85008006D01*
G37*
X47723391Y-85008006D02*
X48349765Y-85270428D01*
X48934078Y-85516826D01*
X49455813Y-85738425D01*
X49894454Y-85926449D01*
X50229483Y-86072124D01*
X50440383Y-86166675D01*
X50497334Y-86194408D01*
X50578955Y-86245889D01*
X50584294Y-86279993D01*
X50492223Y-86299954D01*
X50281614Y-86309012D01*
X49931339Y-86310403D01*
X49746000Y-86309530D01*
X49220990Y-86295296D01*
X48629505Y-86261925D01*
X48066193Y-86215345D01*
X47828773Y-86189452D01*
X47417039Y-86134195D01*
X46882134Y-86054347D01*
X46253635Y-85955028D01*
X45561117Y-85841360D01*
X44834154Y-85718462D01*
X44102322Y-85591457D01*
X43395197Y-85465465D01*
X42742353Y-85345608D01*
X42173366Y-85237005D01*
X41717811Y-85144779D01*
X41448667Y-85084730D01*
X41237000Y-85033759D01*
X41427114Y-84961084D01*
X41563138Y-84918354D01*
X41835913Y-84839996D01*
X42218437Y-84733499D01*
X42683709Y-84606351D01*
X43204729Y-84466043D01*
X43394505Y-84415413D01*
X45171781Y-83942416D01*
X47723391Y-85008006D01*
G36*
X54506183Y-79462366D02*
X54713122Y-79537908D01*
X54960929Y-79657410D01*
X55153933Y-79754942D01*
X55472563Y-79917876D01*
X55903305Y-80142320D01*
X56409482Y-80408938D01*
X56954418Y-80698396D01*
X57501435Y-80991356D01*
X57606805Y-81048098D01*
X58359314Y-81449405D01*
X59110812Y-81842131D01*
X59841271Y-82216387D01*
X60530667Y-82562286D01*
X61158974Y-82869939D01*
X61706164Y-83129460D01*
X62152212Y-83330960D01*
X62477093Y-83464552D01*
X62561384Y-83494398D01*
X63010525Y-83647899D01*
X63434209Y-83803238D01*
X63803869Y-83948820D01*
X64090939Y-84073047D01*
X64266851Y-84164321D01*
X64308667Y-84203741D01*
X64228909Y-84279858D01*
X63999261Y-84391581D01*
X63634162Y-84533653D01*
X63148051Y-84700818D01*
X62555366Y-84887820D01*
X61895667Y-85082228D01*
X60454777Y-85475629D01*
X59151857Y-85791410D01*
X57975216Y-86031169D01*
X56913165Y-86196508D01*
X55954013Y-86289028D01*
X55086072Y-86310327D01*
X54297651Y-86262008D01*
X53801758Y-86190342D01*
X53455715Y-86116627D01*
X53056945Y-86009484D01*
X52590331Y-85863537D01*
X52040757Y-85673409D01*
X51393107Y-85433726D01*
X50632264Y-85139110D01*
X49743113Y-84784187D01*
X49010101Y-84486284D01*
X48357234Y-84218247D01*
X47846616Y-84005222D01*
X47463109Y-83839757D01*
X47191571Y-83714396D01*
X47016864Y-83621687D01*
X46923846Y-83554175D01*
X46897377Y-83504407D01*
X46922318Y-83464928D01*
X46927475Y-83460948D01*
X47068996Y-83368667D01*
X47337160Y-83205191D01*
X47711135Y-82982534D01*
X48170087Y-82712710D01*
X48693181Y-82407735D01*
X49259584Y-82079623D01*
X49848461Y-81740388D01*
X50438978Y-81402045D01*
X51010302Y-81076608D01*
X51541599Y-80776092D01*
X52012034Y-80512512D01*
X52400773Y-80297881D01*
X52589051Y-80196039D01*
X53125931Y-79908909D01*
X53539350Y-79693999D01*
X53856696Y-79546601D01*
X54105359Y-79462002D01*
X54312725Y-79435494D01*
X54506183Y-79462366D01*
X54506183Y-79462366D01*
G37*
X54506183Y-79462366D02*
X54713122Y-79537908D01*
X54960929Y-79657410D01*
X55153933Y-79754942D01*
X55472563Y-79917876D01*
X55903305Y-80142320D01*
X56409482Y-80408938D01*
X56954418Y-80698396D01*
X57501435Y-80991356D01*
X57606805Y-81048098D01*
X58359314Y-81449405D01*
X59110812Y-81842131D01*
X59841271Y-82216387D01*
X60530667Y-82562286D01*
X61158974Y-82869939D01*
X61706164Y-83129460D01*
X62152212Y-83330960D01*
X62477093Y-83464552D01*
X62561384Y-83494398D01*
X63010525Y-83647899D01*
X63434209Y-83803238D01*
X63803869Y-83948820D01*
X64090939Y-84073047D01*
X64266851Y-84164321D01*
X64308667Y-84203741D01*
X64228909Y-84279858D01*
X63999261Y-84391581D01*
X63634162Y-84533653D01*
X63148051Y-84700818D01*
X62555366Y-84887820D01*
X61895667Y-85082228D01*
X60454777Y-85475629D01*
X59151857Y-85791410D01*
X57975216Y-86031169D01*
X56913165Y-86196508D01*
X55954013Y-86289028D01*
X55086072Y-86310327D01*
X54297651Y-86262008D01*
X53801758Y-86190342D01*
X53455715Y-86116627D01*
X53056945Y-86009484D01*
X52590331Y-85863537D01*
X52040757Y-85673409D01*
X51393107Y-85433726D01*
X50632264Y-85139110D01*
X49743113Y-84784187D01*
X49010101Y-84486284D01*
X48357234Y-84218247D01*
X47846616Y-84005222D01*
X47463109Y-83839757D01*
X47191571Y-83714396D01*
X47016864Y-83621687D01*
X46923846Y-83554175D01*
X46897377Y-83504407D01*
X46922318Y-83464928D01*
X46927475Y-83460948D01*
X47068996Y-83368667D01*
X47337160Y-83205191D01*
X47711135Y-82982534D01*
X48170087Y-82712710D01*
X48693181Y-82407735D01*
X49259584Y-82079623D01*
X49848461Y-81740388D01*
X50438978Y-81402045D01*
X51010302Y-81076608D01*
X51541599Y-80776092D01*
X52012034Y-80512512D01*
X52400773Y-80297881D01*
X52589051Y-80196039D01*
X53125931Y-79908909D01*
X53539350Y-79693999D01*
X53856696Y-79546601D01*
X54105359Y-79462002D01*
X54312725Y-79435494D01*
X54506183Y-79462366D01*
G36*
X38524449Y-80182874D02*
X38754376Y-80299485D01*
X39085064Y-80479149D01*
X39496195Y-80709851D01*
X39967453Y-80979574D01*
X40478522Y-81276301D01*
X41009083Y-81588017D01*
X41538821Y-81902704D01*
X42047419Y-82208346D01*
X42514559Y-82492927D01*
X42919926Y-82744431D01*
X43243202Y-82950840D01*
X43464071Y-83100139D01*
X43562216Y-83180311D01*
X43565333Y-83187161D01*
X43553809Y-83227682D01*
X43501965Y-83270238D01*
X43383899Y-83325981D01*
X43173706Y-83406063D01*
X42845481Y-83521636D01*
X42560648Y-83619674D01*
X41995978Y-83795119D01*
X41358215Y-83963551D01*
X40700537Y-84113210D01*
X40076126Y-84232336D01*
X39538163Y-84309167D01*
X39374333Y-84324324D01*
X38896989Y-84329094D01*
X38390398Y-84286455D01*
X38189000Y-84254106D01*
X37960784Y-84202884D01*
X37597561Y-84112583D01*
X37127114Y-83990742D01*
X36577225Y-83844905D01*
X35975677Y-83682612D01*
X35350250Y-83511406D01*
X34728729Y-83338828D01*
X34138894Y-83172420D01*
X33608528Y-83019723D01*
X33236000Y-82909584D01*
X32855000Y-82795061D01*
X34082667Y-82176682D01*
X34604956Y-81916186D01*
X35164436Y-81641640D01*
X35739771Y-81363065D01*
X36309630Y-81090482D01*
X36852677Y-80833913D01*
X37347579Y-80603380D01*
X37773002Y-80408903D01*
X38107612Y-80260503D01*
X38330076Y-80168203D01*
X38415599Y-80141333D01*
X38524449Y-80182874D01*
X38524449Y-80182874D01*
G37*
X38524449Y-80182874D02*
X38754376Y-80299485D01*
X39085064Y-80479149D01*
X39496195Y-80709851D01*
X39967453Y-80979574D01*
X40478522Y-81276301D01*
X41009083Y-81588017D01*
X41538821Y-81902704D01*
X42047419Y-82208346D01*
X42514559Y-82492927D01*
X42919926Y-82744431D01*
X43243202Y-82950840D01*
X43464071Y-83100139D01*
X43562216Y-83180311D01*
X43565333Y-83187161D01*
X43553809Y-83227682D01*
X43501965Y-83270238D01*
X43383899Y-83325981D01*
X43173706Y-83406063D01*
X42845481Y-83521636D01*
X42560648Y-83619674D01*
X41995978Y-83795119D01*
X41358215Y-83963551D01*
X40700537Y-84113210D01*
X40076126Y-84232336D01*
X39538163Y-84309167D01*
X39374333Y-84324324D01*
X38896989Y-84329094D01*
X38390398Y-84286455D01*
X38189000Y-84254106D01*
X37960784Y-84202884D01*
X37597561Y-84112583D01*
X37127114Y-83990742D01*
X36577225Y-83844905D01*
X35975677Y-83682612D01*
X35350250Y-83511406D01*
X34728729Y-83338828D01*
X34138894Y-83172420D01*
X33608528Y-83019723D01*
X33236000Y-82909584D01*
X32855000Y-82795061D01*
X34082667Y-82176682D01*
X34604956Y-81916186D01*
X35164436Y-81641640D01*
X35739771Y-81363065D01*
X36309630Y-81090482D01*
X36852677Y-80833913D01*
X37347579Y-80603380D01*
X37773002Y-80408903D01*
X38107612Y-80260503D01*
X38330076Y-80168203D01*
X38415599Y-80141333D01*
X38524449Y-80182874D01*
G36*
X66867816Y-76138813D02*
X67552013Y-76823583D01*
X68199671Y-77473116D01*
X68801035Y-78077540D01*
X69346349Y-78626988D01*
X69825857Y-79111590D01*
X70229802Y-79521477D01*
X70548430Y-79846780D01*
X70771984Y-80077630D01*
X70890708Y-80204158D01*
X70907793Y-80225669D01*
X70845377Y-80296049D01*
X70683128Y-80446892D01*
X70451396Y-80650367D01*
X70353438Y-80734000D01*
X69804965Y-81169035D01*
X69156710Y-81635725D01*
X68463797Y-82097323D01*
X67781348Y-82517083D01*
X67174491Y-82853129D01*
X66751623Y-83060081D01*
X66408404Y-83192191D01*
X66094982Y-83254955D01*
X65761503Y-83253870D01*
X65358116Y-83194430D01*
X64920678Y-83101599D01*
X63928805Y-82835622D01*
X62838937Y-82467595D01*
X61678002Y-82009783D01*
X60472927Y-81474450D01*
X59250643Y-80873861D01*
X58038076Y-80220280D01*
X56862156Y-79525972D01*
X56328833Y-79188445D01*
X55986710Y-78961876D01*
X55703292Y-78764697D01*
X55505464Y-78616317D01*
X55420111Y-78536143D01*
X55418667Y-78531395D01*
X55481090Y-78465350D01*
X55660795Y-78299147D01*
X55946432Y-78042757D01*
X56326652Y-77706148D01*
X56790106Y-77299291D01*
X57325445Y-76832155D01*
X57921320Y-76314709D01*
X58566381Y-75756924D01*
X59120816Y-75279234D01*
X62822965Y-72094620D01*
X66867816Y-76138813D01*
X66867816Y-76138813D01*
G37*
X66867816Y-76138813D02*
X67552013Y-76823583D01*
X68199671Y-77473116D01*
X68801035Y-78077540D01*
X69346349Y-78626988D01*
X69825857Y-79111590D01*
X70229802Y-79521477D01*
X70548430Y-79846780D01*
X70771984Y-80077630D01*
X70890708Y-80204158D01*
X70907793Y-80225669D01*
X70845377Y-80296049D01*
X70683128Y-80446892D01*
X70451396Y-80650367D01*
X70353438Y-80734000D01*
X69804965Y-81169035D01*
X69156710Y-81635725D01*
X68463797Y-82097323D01*
X67781348Y-82517083D01*
X67174491Y-82853129D01*
X66751623Y-83060081D01*
X66408404Y-83192191D01*
X66094982Y-83254955D01*
X65761503Y-83253870D01*
X65358116Y-83194430D01*
X64920678Y-83101599D01*
X63928805Y-82835622D01*
X62838937Y-82467595D01*
X61678002Y-82009783D01*
X60472927Y-81474450D01*
X59250643Y-80873861D01*
X58038076Y-80220280D01*
X56862156Y-79525972D01*
X56328833Y-79188445D01*
X55986710Y-78961876D01*
X55703292Y-78764697D01*
X55505464Y-78616317D01*
X55420111Y-78536143D01*
X55418667Y-78531395D01*
X55481090Y-78465350D01*
X55660795Y-78299147D01*
X55946432Y-78042757D01*
X56326652Y-77706148D01*
X56790106Y-77299291D01*
X57325445Y-76832155D01*
X57921320Y-76314709D01*
X58566381Y-75756924D01*
X59120816Y-75279234D01*
X62822965Y-72094620D01*
X66867816Y-76138813D01*
G36*
X47202273Y-73777982D02*
X47297294Y-73814605D01*
X47432786Y-73892833D01*
X47620893Y-74021533D01*
X47873762Y-74209575D01*
X48203538Y-74465826D01*
X48622366Y-74799157D01*
X49142393Y-75218434D01*
X49775764Y-75732529D01*
X50090724Y-75988807D01*
X50687824Y-76476004D01*
X51243248Y-76931366D01*
X51743401Y-77343589D01*
X52174690Y-77701367D01*
X52523520Y-77993397D01*
X52776298Y-78208375D01*
X52919430Y-78334997D01*
X52947110Y-78364068D01*
X52892822Y-78450379D01*
X52705788Y-78605996D01*
X52402861Y-78820896D01*
X52000896Y-79085051D01*
X51516744Y-79388437D01*
X50967262Y-79721027D01*
X50369300Y-80072797D01*
X49739714Y-80433721D01*
X49095358Y-80793773D01*
X48453083Y-81142928D01*
X47829745Y-81471160D01*
X47242197Y-81768444D01*
X47138571Y-81819345D01*
X46647246Y-82056711D01*
X46273464Y-82228213D01*
X45984209Y-82345485D01*
X45746465Y-82420163D01*
X45527217Y-82463879D01*
X45293449Y-82488270D01*
X45227486Y-82492801D01*
X44614064Y-82532168D01*
X43462577Y-81934968D01*
X43053468Y-81720065D01*
X42585273Y-81469629D01*
X42081003Y-81196441D01*
X41563668Y-80913279D01*
X41056278Y-80632923D01*
X40581845Y-80368151D01*
X40163376Y-80131742D01*
X39823884Y-79936475D01*
X39586377Y-79795129D01*
X39473867Y-79720483D01*
X39471908Y-79718705D01*
X39500223Y-79638761D01*
X39636370Y-79481915D01*
X39854903Y-79275718D01*
X39979908Y-79168701D01*
X40149715Y-79032651D01*
X40431942Y-78812563D01*
X40810311Y-78520750D01*
X41268548Y-78169525D01*
X41790376Y-77771199D01*
X42359518Y-77338084D01*
X42959697Y-76882493D01*
X43574639Y-76416737D01*
X44188066Y-75953129D01*
X44783701Y-75503981D01*
X45345270Y-75081604D01*
X45856495Y-74698312D01*
X46301100Y-74366415D01*
X46662809Y-74098226D01*
X46925346Y-73906058D01*
X47072434Y-73802221D01*
X47085058Y-73794070D01*
X47135576Y-73774093D01*
X47202273Y-73777982D01*
X47202273Y-73777982D01*
G37*
X47202273Y-73777982D02*
X47297294Y-73814605D01*
X47432786Y-73892833D01*
X47620893Y-74021533D01*
X47873762Y-74209575D01*
X48203538Y-74465826D01*
X48622366Y-74799157D01*
X49142393Y-75218434D01*
X49775764Y-75732529D01*
X50090724Y-75988807D01*
X50687824Y-76476004D01*
X51243248Y-76931366D01*
X51743401Y-77343589D01*
X52174690Y-77701367D01*
X52523520Y-77993397D01*
X52776298Y-78208375D01*
X52919430Y-78334997D01*
X52947110Y-78364068D01*
X52892822Y-78450379D01*
X52705788Y-78605996D01*
X52402861Y-78820896D01*
X52000896Y-79085051D01*
X51516744Y-79388437D01*
X50967262Y-79721027D01*
X50369300Y-80072797D01*
X49739714Y-80433721D01*
X49095358Y-80793773D01*
X48453083Y-81142928D01*
X47829745Y-81471160D01*
X47242197Y-81768444D01*
X47138571Y-81819345D01*
X46647246Y-82056711D01*
X46273464Y-82228213D01*
X45984209Y-82345485D01*
X45746465Y-82420163D01*
X45527217Y-82463879D01*
X45293449Y-82488270D01*
X45227486Y-82492801D01*
X44614064Y-82532168D01*
X43462577Y-81934968D01*
X43053468Y-81720065D01*
X42585273Y-81469629D01*
X42081003Y-81196441D01*
X41563668Y-80913279D01*
X41056278Y-80632923D01*
X40581845Y-80368151D01*
X40163376Y-80131742D01*
X39823884Y-79936475D01*
X39586377Y-79795129D01*
X39473867Y-79720483D01*
X39471908Y-79718705D01*
X39500223Y-79638761D01*
X39636370Y-79481915D01*
X39854903Y-79275718D01*
X39979908Y-79168701D01*
X40149715Y-79032651D01*
X40431942Y-78812563D01*
X40810311Y-78520750D01*
X41268548Y-78169525D01*
X41790376Y-77771199D01*
X42359518Y-77338084D01*
X42959697Y-76882493D01*
X43574639Y-76416737D01*
X44188066Y-75953129D01*
X44783701Y-75503981D01*
X45345270Y-75081604D01*
X45856495Y-74698312D01*
X46301100Y-74366415D01*
X46662809Y-74098226D01*
X46925346Y-73906058D01*
X47072434Y-73802221D01*
X47085058Y-73794070D01*
X47135576Y-73774093D01*
X47202273Y-73777982D01*
G36*
X70630719Y-63750090D02*
X70773433Y-63943091D01*
X70981173Y-64260607D01*
X71239294Y-64677732D01*
X71533152Y-65169560D01*
X71848103Y-65711185D01*
X72169501Y-66277702D01*
X72482704Y-66844204D01*
X72773065Y-67385787D01*
X72811121Y-67458320D01*
X73426452Y-68694887D01*
X73957571Y-69887567D01*
X74397281Y-71017487D01*
X74738389Y-72065775D01*
X74973701Y-73013558D01*
X75017466Y-73245781D01*
X75081428Y-73608822D01*
X75127450Y-73906274D01*
X75147711Y-74160437D01*
X75134392Y-74393613D01*
X75079670Y-74628103D01*
X74975725Y-74886208D01*
X74814736Y-75190230D01*
X74588882Y-75562468D01*
X74290343Y-76025226D01*
X73911297Y-76600804D01*
X73760896Y-76828889D01*
X73407740Y-77362087D01*
X73081283Y-77849550D01*
X72793933Y-78273176D01*
X72558100Y-78614863D01*
X72386194Y-78856507D01*
X72290622Y-78980007D01*
X72278513Y-78991423D01*
X72188055Y-78952970D01*
X71991779Y-78802843D01*
X71701392Y-78551279D01*
X71328600Y-78208512D01*
X70885110Y-77784779D01*
X70767509Y-77670273D01*
X70361350Y-77273926D01*
X69992276Y-76914692D01*
X69678639Y-76610362D01*
X69438791Y-76378722D01*
X69291085Y-76237560D01*
X69255077Y-76204333D01*
X69175688Y-76128455D01*
X68988943Y-75946027D01*
X68707718Y-75669740D01*
X68344888Y-75312288D01*
X67913326Y-74886360D01*
X67425908Y-74404649D01*
X66895509Y-73879847D01*
X66559968Y-73547554D01*
X65928611Y-72921081D01*
X65408597Y-72402197D01*
X64990118Y-71980187D01*
X64663367Y-71644336D01*
X64418535Y-71383928D01*
X64245814Y-71188248D01*
X64135397Y-71046580D01*
X64077476Y-70948208D01*
X64062242Y-70882417D01*
X64079888Y-70838491D01*
X64080117Y-70838221D01*
X64413235Y-70447653D01*
X64831816Y-69959439D01*
X65316269Y-69396222D01*
X65847000Y-68780645D01*
X66404415Y-68135351D01*
X66968923Y-67482981D01*
X67520929Y-66846180D01*
X68040841Y-66247590D01*
X68509066Y-65709853D01*
X68906010Y-65255613D01*
X69209225Y-64910744D01*
X70435518Y-63523155D01*
X70630719Y-63750090D01*
X70630719Y-63750090D01*
G37*
X70630719Y-63750090D02*
X70773433Y-63943091D01*
X70981173Y-64260607D01*
X71239294Y-64677732D01*
X71533152Y-65169560D01*
X71848103Y-65711185D01*
X72169501Y-66277702D01*
X72482704Y-66844204D01*
X72773065Y-67385787D01*
X72811121Y-67458320D01*
X73426452Y-68694887D01*
X73957571Y-69887567D01*
X74397281Y-71017487D01*
X74738389Y-72065775D01*
X74973701Y-73013558D01*
X75017466Y-73245781D01*
X75081428Y-73608822D01*
X75127450Y-73906274D01*
X75147711Y-74160437D01*
X75134392Y-74393613D01*
X75079670Y-74628103D01*
X74975725Y-74886208D01*
X74814736Y-75190230D01*
X74588882Y-75562468D01*
X74290343Y-76025226D01*
X73911297Y-76600804D01*
X73760896Y-76828889D01*
X73407740Y-77362087D01*
X73081283Y-77849550D01*
X72793933Y-78273176D01*
X72558100Y-78614863D01*
X72386194Y-78856507D01*
X72290622Y-78980007D01*
X72278513Y-78991423D01*
X72188055Y-78952970D01*
X71991779Y-78802843D01*
X71701392Y-78551279D01*
X71328600Y-78208512D01*
X70885110Y-77784779D01*
X70767509Y-77670273D01*
X70361350Y-77273926D01*
X69992276Y-76914692D01*
X69678639Y-76610362D01*
X69438791Y-76378722D01*
X69291085Y-76237560D01*
X69255077Y-76204333D01*
X69175688Y-76128455D01*
X68988943Y-75946027D01*
X68707718Y-75669740D01*
X68344888Y-75312288D01*
X67913326Y-74886360D01*
X67425908Y-74404649D01*
X66895509Y-73879847D01*
X66559968Y-73547554D01*
X65928611Y-72921081D01*
X65408597Y-72402197D01*
X64990118Y-71980187D01*
X64663367Y-71644336D01*
X64418535Y-71383928D01*
X64245814Y-71188248D01*
X64135397Y-71046580D01*
X64077476Y-70948208D01*
X64062242Y-70882417D01*
X64079888Y-70838491D01*
X64080117Y-70838221D01*
X64413235Y-70447653D01*
X64831816Y-69959439D01*
X65316269Y-69396222D01*
X65847000Y-68780645D01*
X66404415Y-68135351D01*
X66968923Y-67482981D01*
X67520929Y-66846180D01*
X68040841Y-66247590D01*
X68509066Y-65709853D01*
X68906010Y-65255613D01*
X69209225Y-64910744D01*
X70435518Y-63523155D01*
X70630719Y-63750090D01*
G36*
X56065572Y-65707332D02*
X56211625Y-65816695D01*
X56290730Y-65888721D01*
X56449588Y-66034154D01*
X56704146Y-66265606D01*
X57024291Y-66555764D01*
X57379908Y-66877312D01*
X57535333Y-67017617D01*
X58161251Y-67585230D01*
X58773809Y-68146149D01*
X59360427Y-68688428D01*
X59908525Y-69200122D01*
X60405523Y-69669283D01*
X60838841Y-70083966D01*
X61195900Y-70432225D01*
X61464120Y-70702114D01*
X61630920Y-70881687D01*
X61684000Y-70957269D01*
X61622115Y-71065982D01*
X61446367Y-71270965D01*
X61171619Y-71558472D01*
X60812734Y-71914755D01*
X60384573Y-72326070D01*
X59901998Y-72778667D01*
X59379872Y-73258802D01*
X58833057Y-73752727D01*
X58276415Y-74246695D01*
X57724809Y-74726960D01*
X57193100Y-75179776D01*
X56696151Y-75591394D01*
X56519333Y-75734294D01*
X56127857Y-76041360D01*
X55709367Y-76358026D01*
X55287912Y-76667363D01*
X54887541Y-76952443D01*
X54532302Y-77196339D01*
X54246245Y-77382120D01*
X54053419Y-77492860D01*
X53987256Y-77516667D01*
X53894808Y-77471176D01*
X53695405Y-77348028D01*
X53420441Y-77167212D01*
X53167304Y-76994570D01*
X52775168Y-76717763D01*
X52293931Y-76369525D01*
X51747646Y-75968023D01*
X51160368Y-75531430D01*
X50556151Y-75077914D01*
X49959050Y-74625645D01*
X49393117Y-74192794D01*
X48882409Y-73797531D01*
X48450979Y-73458025D01*
X48122880Y-73192446D01*
X48025347Y-73110458D01*
X48070766Y-73042476D01*
X48228293Y-72871820D01*
X48485322Y-72610353D01*
X48829243Y-72269943D01*
X49247450Y-71862454D01*
X49727335Y-71399752D01*
X50256289Y-70893702D01*
X50821705Y-70356171D01*
X51410976Y-69799023D01*
X52011493Y-69234125D01*
X52610648Y-68673342D01*
X53195835Y-68128539D01*
X53754444Y-67611582D01*
X54273869Y-67134337D01*
X54741502Y-66708669D01*
X55144734Y-66346443D01*
X55470958Y-66059526D01*
X55707567Y-65859782D01*
X55825063Y-65769909D01*
X55956560Y-65696800D01*
X56065572Y-65707332D01*
X56065572Y-65707332D01*
G37*
X56065572Y-65707332D02*
X56211625Y-65816695D01*
X56290730Y-65888721D01*
X56449588Y-66034154D01*
X56704146Y-66265606D01*
X57024291Y-66555764D01*
X57379908Y-66877312D01*
X57535333Y-67017617D01*
X58161251Y-67585230D01*
X58773809Y-68146149D01*
X59360427Y-68688428D01*
X59908525Y-69200122D01*
X60405523Y-69669283D01*
X60838841Y-70083966D01*
X61195900Y-70432225D01*
X61464120Y-70702114D01*
X61630920Y-70881687D01*
X61684000Y-70957269D01*
X61622115Y-71065982D01*
X61446367Y-71270965D01*
X61171619Y-71558472D01*
X60812734Y-71914755D01*
X60384573Y-72326070D01*
X59901998Y-72778667D01*
X59379872Y-73258802D01*
X58833057Y-73752727D01*
X58276415Y-74246695D01*
X57724809Y-74726960D01*
X57193100Y-75179776D01*
X56696151Y-75591394D01*
X56519333Y-75734294D01*
X56127857Y-76041360D01*
X55709367Y-76358026D01*
X55287912Y-76667363D01*
X54887541Y-76952443D01*
X54532302Y-77196339D01*
X54246245Y-77382120D01*
X54053419Y-77492860D01*
X53987256Y-77516667D01*
X53894808Y-77471176D01*
X53695405Y-77348028D01*
X53420441Y-77167212D01*
X53167304Y-76994570D01*
X52775168Y-76717763D01*
X52293931Y-76369525D01*
X51747646Y-75968023D01*
X51160368Y-75531430D01*
X50556151Y-75077914D01*
X49959050Y-74625645D01*
X49393117Y-74192794D01*
X48882409Y-73797531D01*
X48450979Y-73458025D01*
X48122880Y-73192446D01*
X48025347Y-73110458D01*
X48070766Y-73042476D01*
X48228293Y-72871820D01*
X48485322Y-72610353D01*
X48829243Y-72269943D01*
X49247450Y-71862454D01*
X49727335Y-71399752D01*
X50256289Y-70893702D01*
X50821705Y-70356171D01*
X51410976Y-69799023D01*
X52011493Y-69234125D01*
X52610648Y-68673342D01*
X53195835Y-68128539D01*
X53754444Y-67611582D01*
X54273869Y-67134337D01*
X54741502Y-66708669D01*
X55144734Y-66346443D01*
X55470958Y-66059526D01*
X55707567Y-65859782D01*
X55825063Y-65769909D01*
X55956560Y-65696800D01*
X56065572Y-65707332D01*
G36*
X75532292Y-55044600D02*
X75637073Y-55232120D01*
X75774726Y-55532644D01*
X75950256Y-55957291D01*
X76168669Y-56517182D01*
X76434970Y-57223435D01*
X76513936Y-57435819D01*
X76890991Y-58455318D01*
X77211835Y-59331695D01*
X77480673Y-60080018D01*
X77701710Y-60715355D01*
X77879153Y-61252772D01*
X78017208Y-61707336D01*
X78120080Y-62094114D01*
X78191975Y-62428174D01*
X78237100Y-62724582D01*
X78259660Y-62998406D01*
X78263860Y-63264712D01*
X78253907Y-63538569D01*
X78247414Y-63645836D01*
X78198383Y-64175138D01*
X78115200Y-64827453D01*
X78004910Y-65561550D01*
X77874559Y-66336199D01*
X77731195Y-67110169D01*
X77581864Y-67842227D01*
X77433611Y-68491143D01*
X77388967Y-68669000D01*
X77217932Y-69292848D01*
X77014664Y-69970598D01*
X76794904Y-70654156D01*
X76574396Y-71295430D01*
X76368879Y-71846327D01*
X76268718Y-72091548D01*
X76108894Y-72466095D01*
X75884792Y-71922214D01*
X75774589Y-71652064D01*
X75618868Y-71266713D01*
X75434603Y-70808342D01*
X75238769Y-70319128D01*
X75137779Y-70066000D01*
X74828872Y-69315487D01*
X74507535Y-68588346D01*
X74158019Y-67852702D01*
X73764580Y-67076680D01*
X73311469Y-66228402D01*
X72782941Y-65275995D01*
X72690994Y-65113000D01*
X72299475Y-64418934D01*
X71984585Y-63855573D01*
X71738948Y-63406595D01*
X71555187Y-63055680D01*
X71425923Y-62786506D01*
X71343780Y-62582751D01*
X71301380Y-62428096D01*
X71291346Y-62306219D01*
X71306300Y-62200798D01*
X71333721Y-62110275D01*
X71401188Y-61962744D01*
X71542429Y-61689496D01*
X71746980Y-61308918D01*
X72004374Y-60839396D01*
X72304147Y-60299316D01*
X72635833Y-59707064D01*
X72988967Y-59081025D01*
X73353085Y-58439585D01*
X73717719Y-57801130D01*
X74072407Y-57184047D01*
X74406681Y-56606721D01*
X74710078Y-56087537D01*
X74972131Y-55644883D01*
X75182376Y-55297142D01*
X75330347Y-55062703D01*
X75401325Y-54964093D01*
X75455378Y-54958964D01*
X75532292Y-55044600D01*
X75532292Y-55044600D01*
G37*
X75532292Y-55044600D02*
X75637073Y-55232120D01*
X75774726Y-55532644D01*
X75950256Y-55957291D01*
X76168669Y-56517182D01*
X76434970Y-57223435D01*
X76513936Y-57435819D01*
X76890991Y-58455318D01*
X77211835Y-59331695D01*
X77480673Y-60080018D01*
X77701710Y-60715355D01*
X77879153Y-61252772D01*
X78017208Y-61707336D01*
X78120080Y-62094114D01*
X78191975Y-62428174D01*
X78237100Y-62724582D01*
X78259660Y-62998406D01*
X78263860Y-63264712D01*
X78253907Y-63538569D01*
X78247414Y-63645836D01*
X78198383Y-64175138D01*
X78115200Y-64827453D01*
X78004910Y-65561550D01*
X77874559Y-66336199D01*
X77731195Y-67110169D01*
X77581864Y-67842227D01*
X77433611Y-68491143D01*
X77388967Y-68669000D01*
X77217932Y-69292848D01*
X77014664Y-69970598D01*
X76794904Y-70654156D01*
X76574396Y-71295430D01*
X76368879Y-71846327D01*
X76268718Y-72091548D01*
X76108894Y-72466095D01*
X75884792Y-71922214D01*
X75774589Y-71652064D01*
X75618868Y-71266713D01*
X75434603Y-70808342D01*
X75238769Y-70319128D01*
X75137779Y-70066000D01*
X74828872Y-69315487D01*
X74507535Y-68588346D01*
X74158019Y-67852702D01*
X73764580Y-67076680D01*
X73311469Y-66228402D01*
X72782941Y-65275995D01*
X72690994Y-65113000D01*
X72299475Y-64418934D01*
X71984585Y-63855573D01*
X71738948Y-63406595D01*
X71555187Y-63055680D01*
X71425923Y-62786506D01*
X71343780Y-62582751D01*
X71301380Y-62428096D01*
X71291346Y-62306219D01*
X71306300Y-62200798D01*
X71333721Y-62110275D01*
X71401188Y-61962744D01*
X71542429Y-61689496D01*
X71746980Y-61308918D01*
X72004374Y-60839396D01*
X72304147Y-60299316D01*
X72635833Y-59707064D01*
X72988967Y-59081025D01*
X73353085Y-58439585D01*
X73717719Y-57801130D01*
X74072407Y-57184047D01*
X74406681Y-56606721D01*
X74710078Y-56087537D01*
X74972131Y-55644883D01*
X75182376Y-55297142D01*
X75330347Y-55062703D01*
X75401325Y-54964093D01*
X75455378Y-54958964D01*
X75532292Y-55044600D01*
G36*
X64962437Y-56142676D02*
X65090398Y-56261771D01*
X65284433Y-56479147D01*
X65550696Y-56802324D01*
X65895340Y-57238823D01*
X66324517Y-57796163D01*
X66844381Y-58481865D01*
X66992325Y-58678333D01*
X67585979Y-59470613D01*
X68081873Y-60139462D01*
X68486759Y-60694680D01*
X68807391Y-61146067D01*
X69050522Y-61503424D01*
X69222906Y-61776550D01*
X69331296Y-61975246D01*
X69382445Y-62109312D01*
X69388667Y-62155807D01*
X69379996Y-62225304D01*
X69347032Y-62311660D01*
X69279342Y-62428128D01*
X69166498Y-62587959D01*
X68998068Y-62804404D01*
X68763622Y-63090715D01*
X68452729Y-63460143D01*
X68054960Y-63925940D01*
X67559883Y-64501358D01*
X67360913Y-64732000D01*
X67006066Y-65141083D01*
X66601492Y-65603999D01*
X66161175Y-66105068D01*
X65699101Y-66628605D01*
X65229252Y-67158928D01*
X64765615Y-67680355D01*
X64322173Y-68177203D01*
X63912911Y-68633790D01*
X63551813Y-69034433D01*
X63252865Y-69363449D01*
X63030049Y-69605157D01*
X62897352Y-69743872D01*
X62867946Y-69770524D01*
X62780231Y-69734660D01*
X62592980Y-69603266D01*
X62331200Y-69395547D01*
X62019892Y-69130708D01*
X61919867Y-69042353D01*
X61635641Y-68785907D01*
X61279382Y-68459417D01*
X60866880Y-68077807D01*
X60413926Y-67656003D01*
X59936312Y-67208929D01*
X59449828Y-66751510D01*
X58970267Y-66298671D01*
X58513419Y-65865336D01*
X58095076Y-65466431D01*
X57731029Y-65116881D01*
X57437070Y-64831609D01*
X57228988Y-64625542D01*
X57122577Y-64513603D01*
X57112000Y-64498291D01*
X57168041Y-64424024D01*
X57328463Y-64238778D01*
X57581714Y-63954999D01*
X57916242Y-63585131D01*
X58320495Y-63141619D01*
X58782922Y-62636909D01*
X59291969Y-62083445D01*
X59836085Y-61493673D01*
X60403718Y-60880036D01*
X60983316Y-60254980D01*
X61563327Y-59630950D01*
X62132199Y-59020391D01*
X62678380Y-58435748D01*
X63190317Y-57889466D01*
X63656460Y-57393989D01*
X64065256Y-56961762D01*
X64405153Y-56605231D01*
X64664599Y-56336841D01*
X64832042Y-56169036D01*
X64894398Y-56114343D01*
X64962437Y-56142676D01*
X64962437Y-56142676D01*
G37*
X64962437Y-56142676D02*
X65090398Y-56261771D01*
X65284433Y-56479147D01*
X65550696Y-56802324D01*
X65895340Y-57238823D01*
X66324517Y-57796163D01*
X66844381Y-58481865D01*
X66992325Y-58678333D01*
X67585979Y-59470613D01*
X68081873Y-60139462D01*
X68486759Y-60694680D01*
X68807391Y-61146067D01*
X69050522Y-61503424D01*
X69222906Y-61776550D01*
X69331296Y-61975246D01*
X69382445Y-62109312D01*
X69388667Y-62155807D01*
X69379996Y-62225304D01*
X69347032Y-62311660D01*
X69279342Y-62428128D01*
X69166498Y-62587959D01*
X68998068Y-62804404D01*
X68763622Y-63090715D01*
X68452729Y-63460143D01*
X68054960Y-63925940D01*
X67559883Y-64501358D01*
X67360913Y-64732000D01*
X67006066Y-65141083D01*
X66601492Y-65603999D01*
X66161175Y-66105068D01*
X65699101Y-66628605D01*
X65229252Y-67158928D01*
X64765615Y-67680355D01*
X64322173Y-68177203D01*
X63912911Y-68633790D01*
X63551813Y-69034433D01*
X63252865Y-69363449D01*
X63030049Y-69605157D01*
X62897352Y-69743872D01*
X62867946Y-69770524D01*
X62780231Y-69734660D01*
X62592980Y-69603266D01*
X62331200Y-69395547D01*
X62019892Y-69130708D01*
X61919867Y-69042353D01*
X61635641Y-68785907D01*
X61279382Y-68459417D01*
X60866880Y-68077807D01*
X60413926Y-67656003D01*
X59936312Y-67208929D01*
X59449828Y-66751510D01*
X58970267Y-66298671D01*
X58513419Y-65865336D01*
X58095076Y-65466431D01*
X57731029Y-65116881D01*
X57437070Y-64831609D01*
X57228988Y-64625542D01*
X57122577Y-64513603D01*
X57112000Y-64498291D01*
X57168041Y-64424024D01*
X57328463Y-64238778D01*
X57581714Y-63954999D01*
X57916242Y-63585131D01*
X58320495Y-63141619D01*
X58782922Y-62636909D01*
X59291969Y-62083445D01*
X59836085Y-61493673D01*
X60403718Y-60880036D01*
X60983316Y-60254980D01*
X61563327Y-59630950D01*
X62132199Y-59020391D01*
X62678380Y-58435748D01*
X63190317Y-57889466D01*
X63656460Y-57393989D01*
X64065256Y-56961762D01*
X64405153Y-56605231D01*
X64664599Y-56336841D01*
X64832042Y-56169036D01*
X64894398Y-56114343D01*
X64962437Y-56142676D01*
G36*
X71670939Y-47546960D02*
X71806845Y-47781814D01*
X71996977Y-48122930D01*
X72229600Y-48548211D01*
X72492983Y-49035560D01*
X72775392Y-49562878D01*
X73065095Y-50108067D01*
X73350357Y-50649030D01*
X73619447Y-51163668D01*
X73860632Y-51629884D01*
X74062177Y-52025579D01*
X74212351Y-52328657D01*
X74299420Y-52517018D01*
X74308615Y-52540000D01*
X74382614Y-52748989D01*
X74434864Y-52944724D01*
X74460064Y-53141353D01*
X74452916Y-53353024D01*
X74408118Y-53593889D01*
X74320370Y-53878095D01*
X74184374Y-54219792D01*
X73994828Y-54633129D01*
X73746432Y-55132255D01*
X73433887Y-55731320D01*
X73051893Y-56444472D01*
X72595149Y-57285861D01*
X72389875Y-57662333D01*
X71889433Y-58575654D01*
X71464860Y-59342031D01*
X71114169Y-59964896D01*
X70835375Y-60447679D01*
X70626491Y-60793811D01*
X70485532Y-61006724D01*
X70410510Y-61089846D01*
X70404702Y-61091333D01*
X70302632Y-61044897D01*
X70218321Y-60985500D01*
X70159617Y-60926776D01*
X70045191Y-60797798D01*
X69869688Y-60592068D01*
X69627756Y-60303089D01*
X69314039Y-59924366D01*
X68923184Y-59449401D01*
X68449837Y-58871698D01*
X67888642Y-58184761D01*
X67234247Y-57382092D01*
X66481298Y-56457196D01*
X66097217Y-55985031D01*
X65559397Y-55323729D01*
X68550933Y-51351166D01*
X69093248Y-50633313D01*
X69605869Y-49959226D01*
X70079735Y-49340524D01*
X70505783Y-48788827D01*
X70874950Y-48315755D01*
X71178174Y-47932927D01*
X71406392Y-47651964D01*
X71550541Y-47484484D01*
X71600992Y-47440468D01*
X71670939Y-47546960D01*
X71670939Y-47546960D01*
G37*
X71670939Y-47546960D02*
X71806845Y-47781814D01*
X71996977Y-48122930D01*
X72229600Y-48548211D01*
X72492983Y-49035560D01*
X72775392Y-49562878D01*
X73065095Y-50108067D01*
X73350357Y-50649030D01*
X73619447Y-51163668D01*
X73860632Y-51629884D01*
X74062177Y-52025579D01*
X74212351Y-52328657D01*
X74299420Y-52517018D01*
X74308615Y-52540000D01*
X74382614Y-52748989D01*
X74434864Y-52944724D01*
X74460064Y-53141353D01*
X74452916Y-53353024D01*
X74408118Y-53593889D01*
X74320370Y-53878095D01*
X74184374Y-54219792D01*
X73994828Y-54633129D01*
X73746432Y-55132255D01*
X73433887Y-55731320D01*
X73051893Y-56444472D01*
X72595149Y-57285861D01*
X72389875Y-57662333D01*
X71889433Y-58575654D01*
X71464860Y-59342031D01*
X71114169Y-59964896D01*
X70835375Y-60447679D01*
X70626491Y-60793811D01*
X70485532Y-61006724D01*
X70410510Y-61089846D01*
X70404702Y-61091333D01*
X70302632Y-61044897D01*
X70218321Y-60985500D01*
X70159617Y-60926776D01*
X70045191Y-60797798D01*
X69869688Y-60592068D01*
X69627756Y-60303089D01*
X69314039Y-59924366D01*
X68923184Y-59449401D01*
X68449837Y-58871698D01*
X67888642Y-58184761D01*
X67234247Y-57382092D01*
X66481298Y-56457196D01*
X66097217Y-55985031D01*
X65559397Y-55323729D01*
X68550933Y-51351166D01*
X69093248Y-50633313D01*
X69605869Y-49959226D01*
X70079735Y-49340524D01*
X70505783Y-48788827D01*
X70874950Y-48315755D01*
X71178174Y-47932927D01*
X71406392Y-47651964D01*
X71550541Y-47484484D01*
X71600992Y-47440468D01*
X71670939Y-47546960D01*
G36*
X76927571Y-49551312D02*
X76987520Y-49684990D01*
X77066955Y-49967684D01*
X77162425Y-50380637D01*
X77270481Y-50905091D01*
X77387673Y-51522290D01*
X77510551Y-52213476D01*
X77635665Y-52959894D01*
X77759564Y-53742784D01*
X77878799Y-54543392D01*
X77982050Y-55284233D01*
X78056793Y-55869585D01*
X78124482Y-56455262D01*
X78183079Y-57017330D01*
X78230547Y-57531857D01*
X78264847Y-57974911D01*
X78283942Y-58322560D01*
X78285794Y-58550871D01*
X78268364Y-58635912D01*
X78267454Y-58636000D01*
X78204490Y-58570945D01*
X78098004Y-58411215D01*
X78079177Y-58379814D01*
X77991598Y-58210186D01*
X77854579Y-57918437D01*
X77677994Y-57527751D01*
X77471715Y-57061311D01*
X77245615Y-56542301D01*
X77009569Y-55993905D01*
X76773449Y-55439308D01*
X76547130Y-54901692D01*
X76340483Y-54404242D01*
X76163383Y-53970141D01*
X76025703Y-53622574D01*
X75937317Y-53384724D01*
X75908000Y-53281629D01*
X75928659Y-53105381D01*
X75985714Y-52815516D01*
X76071781Y-52439047D01*
X76179478Y-52002987D01*
X76301422Y-51534348D01*
X76430230Y-51060143D01*
X76558518Y-50607384D01*
X76678903Y-50203085D01*
X76784002Y-49874256D01*
X76866433Y-49647912D01*
X76918811Y-49551065D01*
X76927571Y-49551312D01*
X76927571Y-49551312D01*
G37*
X76927571Y-49551312D02*
X76987520Y-49684990D01*
X77066955Y-49967684D01*
X77162425Y-50380637D01*
X77270481Y-50905091D01*
X77387673Y-51522290D01*
X77510551Y-52213476D01*
X77635665Y-52959894D01*
X77759564Y-53742784D01*
X77878799Y-54543392D01*
X77982050Y-55284233D01*
X78056793Y-55869585D01*
X78124482Y-56455262D01*
X78183079Y-57017330D01*
X78230547Y-57531857D01*
X78264847Y-57974911D01*
X78283942Y-58322560D01*
X78285794Y-58550871D01*
X78268364Y-58635912D01*
X78267454Y-58636000D01*
X78204490Y-58570945D01*
X78098004Y-58411215D01*
X78079177Y-58379814D01*
X77991598Y-58210186D01*
X77854579Y-57918437D01*
X77677994Y-57527751D01*
X77471715Y-57061311D01*
X77245615Y-56542301D01*
X77009569Y-55993905D01*
X76773449Y-55439308D01*
X76547130Y-54901692D01*
X76340483Y-54404242D01*
X76163383Y-53970141D01*
X76025703Y-53622574D01*
X75937317Y-53384724D01*
X75908000Y-53281629D01*
X75928659Y-53105381D01*
X75985714Y-52815516D01*
X76071781Y-52439047D01*
X76179478Y-52002987D01*
X76301422Y-51534348D01*
X76430230Y-51060143D01*
X76558518Y-50607384D01*
X76678903Y-50203085D01*
X76784002Y-49874256D01*
X76866433Y-49647912D01*
X76918811Y-49551065D01*
X76927571Y-49551312D01*
G36*
X32176130Y-43847976D02*
X32533890Y-43923473D01*
X32646451Y-43953984D01*
X33251318Y-44208594D01*
X33778707Y-44603199D01*
X34221242Y-45123654D01*
X34571548Y-45755812D01*
X34822246Y-46485528D01*
X34965961Y-47298655D01*
X34995317Y-48181047D01*
X34982381Y-48433667D01*
X34938216Y-48882841D01*
X34866828Y-49232140D01*
X34751724Y-49550679D01*
X34678020Y-49709040D01*
X34493661Y-50016572D01*
X34211199Y-50402815D01*
X33854666Y-50842010D01*
X33448093Y-51308397D01*
X33015511Y-51776218D01*
X32580951Y-52219714D01*
X32168444Y-52613127D01*
X31802021Y-52930697D01*
X31505713Y-53146665D01*
X31431221Y-53189285D01*
X31225147Y-53252508D01*
X30899257Y-53305299D01*
X30502924Y-53344196D01*
X30085523Y-53365735D01*
X29696426Y-53366453D01*
X29385008Y-53342888D01*
X29341333Y-53335858D01*
X28495482Y-53122019D01*
X27705018Y-52788941D01*
X26947477Y-52323566D01*
X26200393Y-51712836D01*
X25694858Y-51216187D01*
X24976623Y-50367089D01*
X24395047Y-49469130D01*
X23993258Y-48608473D01*
X27700258Y-48608473D01*
X27776870Y-49202815D01*
X28005732Y-49770410D01*
X28393294Y-50331268D01*
X28609850Y-50574826D01*
X29154096Y-51104846D01*
X29658761Y-51492091D01*
X30150081Y-51749805D01*
X30654293Y-51891233D01*
X31197632Y-51929618D01*
X31288667Y-51927133D01*
X31795066Y-51877033D01*
X32196238Y-51763952D01*
X32313121Y-51711776D01*
X32618499Y-51528443D01*
X32924220Y-51293647D01*
X33019917Y-51205101D01*
X33411102Y-50702304D01*
X33663858Y-50128154D01*
X33779558Y-49506843D01*
X33759575Y-48862566D01*
X33605282Y-48219516D01*
X33318051Y-47601886D01*
X32899257Y-47033870D01*
X32775855Y-46904145D01*
X32238044Y-46466626D01*
X31637276Y-46150361D01*
X30999830Y-45957069D01*
X30351984Y-45888469D01*
X29720016Y-45946280D01*
X29130206Y-46132221D01*
X28608832Y-46448010D01*
X28417311Y-46619048D01*
X28167179Y-46909039D01*
X27986245Y-47227788D01*
X27849206Y-47627960D01*
X27769446Y-47967373D01*
X27700258Y-48608473D01*
X23993258Y-48608473D01*
X23963143Y-48543966D01*
X23806329Y-48074296D01*
X23749489Y-47880823D01*
X23724128Y-47741243D01*
X23751659Y-47637127D01*
X23853494Y-47550049D01*
X24051046Y-47461583D01*
X24365728Y-47353302D01*
X24811667Y-47209140D01*
X26147462Y-46727645D01*
X27403373Y-46169510D01*
X28633193Y-45508653D01*
X29737662Y-44820693D01*
X30317293Y-44447589D01*
X30790710Y-44169882D01*
X31185609Y-43979318D01*
X31529683Y-43867647D01*
X31850625Y-43826617D01*
X32176130Y-43847976D01*
X32176130Y-43847976D01*
G37*
X32176130Y-43847976D02*
X32533890Y-43923473D01*
X32646451Y-43953984D01*
X33251318Y-44208594D01*
X33778707Y-44603199D01*
X34221242Y-45123654D01*
X34571548Y-45755812D01*
X34822246Y-46485528D01*
X34965961Y-47298655D01*
X34995317Y-48181047D01*
X34982381Y-48433667D01*
X34938216Y-48882841D01*
X34866828Y-49232140D01*
X34751724Y-49550679D01*
X34678020Y-49709040D01*
X34493661Y-50016572D01*
X34211199Y-50402815D01*
X33854666Y-50842010D01*
X33448093Y-51308397D01*
X33015511Y-51776218D01*
X32580951Y-52219714D01*
X32168444Y-52613127D01*
X31802021Y-52930697D01*
X31505713Y-53146665D01*
X31431221Y-53189285D01*
X31225147Y-53252508D01*
X30899257Y-53305299D01*
X30502924Y-53344196D01*
X30085523Y-53365735D01*
X29696426Y-53366453D01*
X29385008Y-53342888D01*
X29341333Y-53335858D01*
X28495482Y-53122019D01*
X27705018Y-52788941D01*
X26947477Y-52323566D01*
X26200393Y-51712836D01*
X25694858Y-51216187D01*
X24976623Y-50367089D01*
X24395047Y-49469130D01*
X23993258Y-48608473D01*
X27700258Y-48608473D01*
X27776870Y-49202815D01*
X28005732Y-49770410D01*
X28393294Y-50331268D01*
X28609850Y-50574826D01*
X29154096Y-51104846D01*
X29658761Y-51492091D01*
X30150081Y-51749805D01*
X30654293Y-51891233D01*
X31197632Y-51929618D01*
X31288667Y-51927133D01*
X31795066Y-51877033D01*
X32196238Y-51763952D01*
X32313121Y-51711776D01*
X32618499Y-51528443D01*
X32924220Y-51293647D01*
X33019917Y-51205101D01*
X33411102Y-50702304D01*
X33663858Y-50128154D01*
X33779558Y-49506843D01*
X33759575Y-48862566D01*
X33605282Y-48219516D01*
X33318051Y-47601886D01*
X32899257Y-47033870D01*
X32775855Y-46904145D01*
X32238044Y-46466626D01*
X31637276Y-46150361D01*
X30999830Y-45957069D01*
X30351984Y-45888469D01*
X29720016Y-45946280D01*
X29130206Y-46132221D01*
X28608832Y-46448010D01*
X28417311Y-46619048D01*
X28167179Y-46909039D01*
X27986245Y-47227788D01*
X27849206Y-47627960D01*
X27769446Y-47967373D01*
X27700258Y-48608473D01*
X23993258Y-48608473D01*
X23963143Y-48543966D01*
X23806329Y-48074296D01*
X23749489Y-47880823D01*
X23724128Y-47741243D01*
X23751659Y-47637127D01*
X23853494Y-47550049D01*
X24051046Y-47461583D01*
X24365728Y-47353302D01*
X24811667Y-47209140D01*
X26147462Y-46727645D01*
X27403373Y-46169510D01*
X28633193Y-45508653D01*
X29737662Y-44820693D01*
X30317293Y-44447589D01*
X30790710Y-44169882D01*
X31185609Y-43979318D01*
X31529683Y-43867647D01*
X31850625Y-43826617D01*
X32176130Y-43847976D01*
G36*
X74682062Y-41102853D02*
X74759470Y-41318093D01*
X74869322Y-41647159D01*
X75004072Y-42065702D01*
X75156172Y-42549372D01*
X75318075Y-43073822D01*
X75482235Y-43614703D01*
X75641105Y-44147665D01*
X75787138Y-44648359D01*
X75912786Y-45092437D01*
X75969738Y-45301000D01*
X76052085Y-45625674D01*
X76106993Y-45905075D01*
X76138257Y-46184985D01*
X76149672Y-46511188D01*
X76145030Y-46929468D01*
X76134613Y-47290667D01*
X76104972Y-47921383D01*
X76056852Y-48441525D01*
X75983053Y-48909477D01*
X75876675Y-49382441D01*
X75745229Y-49879883D01*
X75607543Y-50361421D01*
X75472446Y-50800096D01*
X75348766Y-51168946D01*
X75245329Y-51441012D01*
X75170965Y-51589332D01*
X75147728Y-51608667D01*
X75088420Y-51539429D01*
X74955175Y-51345277D01*
X74761085Y-51046552D01*
X74519247Y-50663595D01*
X74242753Y-50216748D01*
X74079446Y-49949129D01*
X73624499Y-49198642D01*
X73250449Y-48578069D01*
X72949287Y-48073209D01*
X72713000Y-47669863D01*
X72533578Y-47353829D01*
X72403010Y-47110906D01*
X72313286Y-46926894D01*
X72256395Y-46787593D01*
X72224327Y-46678800D01*
X72218338Y-46649933D01*
X72213381Y-46462406D01*
X72266846Y-46211667D01*
X72387366Y-45865127D01*
X72500004Y-45586785D01*
X72646411Y-45246018D01*
X72833660Y-44823963D01*
X73051260Y-44342933D01*
X73288719Y-43825240D01*
X73535546Y-43293196D01*
X73781249Y-42769113D01*
X74015336Y-42275303D01*
X74227317Y-41834079D01*
X74406700Y-41467752D01*
X74542994Y-41198634D01*
X74625706Y-41049039D01*
X74644645Y-41025788D01*
X74682062Y-41102853D01*
X74682062Y-41102853D01*
G37*
X74682062Y-41102853D02*
X74759470Y-41318093D01*
X74869322Y-41647159D01*
X75004072Y-42065702D01*
X75156172Y-42549372D01*
X75318075Y-43073822D01*
X75482235Y-43614703D01*
X75641105Y-44147665D01*
X75787138Y-44648359D01*
X75912786Y-45092437D01*
X75969738Y-45301000D01*
X76052085Y-45625674D01*
X76106993Y-45905075D01*
X76138257Y-46184985D01*
X76149672Y-46511188D01*
X76145030Y-46929468D01*
X76134613Y-47290667D01*
X76104972Y-47921383D01*
X76056852Y-48441525D01*
X75983053Y-48909477D01*
X75876675Y-49382441D01*
X75745229Y-49879883D01*
X75607543Y-50361421D01*
X75472446Y-50800096D01*
X75348766Y-51168946D01*
X75245329Y-51441012D01*
X75170965Y-51589332D01*
X75147728Y-51608667D01*
X75088420Y-51539429D01*
X74955175Y-51345277D01*
X74761085Y-51046552D01*
X74519247Y-50663595D01*
X74242753Y-50216748D01*
X74079446Y-49949129D01*
X73624499Y-49198642D01*
X73250449Y-48578069D01*
X72949287Y-48073209D01*
X72713000Y-47669863D01*
X72533578Y-47353829D01*
X72403010Y-47110906D01*
X72313286Y-46926894D01*
X72256395Y-46787593D01*
X72224327Y-46678800D01*
X72218338Y-46649933D01*
X72213381Y-46462406D01*
X72266846Y-46211667D01*
X72387366Y-45865127D01*
X72500004Y-45586785D01*
X72646411Y-45246018D01*
X72833660Y-44823963D01*
X73051260Y-44342933D01*
X73288719Y-43825240D01*
X73535546Y-43293196D01*
X73781249Y-42769113D01*
X74015336Y-42275303D01*
X74227317Y-41834079D01*
X74406700Y-41467752D01*
X74542994Y-41198634D01*
X74625706Y-41049039D01*
X74644645Y-41025788D01*
X74682062Y-41102853D01*
G36*
X40124551Y-31950262D02*
X40464702Y-32072567D01*
X40918504Y-32276262D01*
X41152840Y-32389582D01*
X41560773Y-32599240D01*
X41895322Y-32799078D01*
X42205161Y-33023953D01*
X42538964Y-33308724D01*
X42882471Y-33628260D01*
X43602140Y-34355031D01*
X44176718Y-35036443D01*
X44616717Y-35693933D01*
X44932647Y-36348937D01*
X45135021Y-37022893D01*
X45234350Y-37737237D01*
X45243917Y-38444162D01*
X45219213Y-38856023D01*
X45166861Y-39197370D01*
X45070383Y-39497612D01*
X44913301Y-39786158D01*
X44679136Y-40092417D01*
X44351412Y-40445797D01*
X43913648Y-40875707D01*
X43844288Y-40942104D01*
X43270832Y-41487417D01*
X42796637Y-41926498D01*
X42399555Y-42271154D01*
X42057437Y-42533192D01*
X41748133Y-42724418D01*
X41449493Y-42856639D01*
X41139369Y-42941662D01*
X40795611Y-42991294D01*
X40396070Y-43017340D01*
X39924667Y-43031466D01*
X39402407Y-43041118D01*
X39014371Y-43039961D01*
X38725645Y-43025306D01*
X38501315Y-42994465D01*
X38306466Y-42944752D01*
X38165592Y-42896047D01*
X37695757Y-42694436D01*
X37280916Y-42449376D01*
X36863401Y-42123529D01*
X36589639Y-41875611D01*
X36155625Y-41392247D01*
X35857891Y-40894467D01*
X35708146Y-40404154D01*
X35692160Y-40198151D01*
X35714651Y-39941084D01*
X35789070Y-39648105D01*
X35924153Y-39300018D01*
X36128637Y-38877626D01*
X36411256Y-38361733D01*
X36428327Y-38332691D01*
X37792343Y-38332691D01*
X37894316Y-39011054D01*
X37971975Y-39273564D01*
X38280327Y-39995801D01*
X38687832Y-40630988D01*
X39175817Y-41158594D01*
X39725611Y-41558093D01*
X40263333Y-41792826D01*
X40614850Y-41854463D01*
X41062239Y-41869572D01*
X41539503Y-41841341D01*
X41980641Y-41772955D01*
X42248863Y-41696943D01*
X42729376Y-41439556D01*
X43173876Y-41058517D01*
X43533975Y-40599053D01*
X43652611Y-40384939D01*
X43741822Y-40179323D01*
X43793888Y-39982869D01*
X43814920Y-39745599D01*
X43811025Y-39417536D01*
X43800295Y-39176756D01*
X43743040Y-38582578D01*
X43622994Y-38100774D01*
X43417384Y-37679179D01*
X43103437Y-37265630D01*
X42846939Y-36992952D01*
X42261392Y-36493956D01*
X41639027Y-36128930D01*
X40999290Y-35901790D01*
X40361624Y-35816450D01*
X39745473Y-35876824D01*
X39170283Y-36086828D01*
X38960615Y-36210558D01*
X38434588Y-36644754D01*
X38063712Y-37145721D01*
X37849219Y-37709640D01*
X37792343Y-38332691D01*
X36428327Y-38332691D01*
X36780747Y-37733143D01*
X36914739Y-37511667D01*
X37401081Y-36692155D01*
X37810965Y-35951778D01*
X38171530Y-35235728D01*
X38509917Y-34489197D01*
X38853267Y-33657375D01*
X38969098Y-33363000D01*
X39141458Y-32933951D01*
X39304382Y-32552191D01*
X39443293Y-32250201D01*
X39543613Y-32060464D01*
X39571059Y-32021697D01*
X39699224Y-31929826D01*
X39876556Y-31904348D01*
X40124551Y-31950262D01*
X40124551Y-31950262D01*
G37*
X40124551Y-31950262D02*
X40464702Y-32072567D01*
X40918504Y-32276262D01*
X41152840Y-32389582D01*
X41560773Y-32599240D01*
X41895322Y-32799078D01*
X42205161Y-33023953D01*
X42538964Y-33308724D01*
X42882471Y-33628260D01*
X43602140Y-34355031D01*
X44176718Y-35036443D01*
X44616717Y-35693933D01*
X44932647Y-36348937D01*
X45135021Y-37022893D01*
X45234350Y-37737237D01*
X45243917Y-38444162D01*
X45219213Y-38856023D01*
X45166861Y-39197370D01*
X45070383Y-39497612D01*
X44913301Y-39786158D01*
X44679136Y-40092417D01*
X44351412Y-40445797D01*
X43913648Y-40875707D01*
X43844288Y-40942104D01*
X43270832Y-41487417D01*
X42796637Y-41926498D01*
X42399555Y-42271154D01*
X42057437Y-42533192D01*
X41748133Y-42724418D01*
X41449493Y-42856639D01*
X41139369Y-42941662D01*
X40795611Y-42991294D01*
X40396070Y-43017340D01*
X39924667Y-43031466D01*
X39402407Y-43041118D01*
X39014371Y-43039961D01*
X38725645Y-43025306D01*
X38501315Y-42994465D01*
X38306466Y-42944752D01*
X38165592Y-42896047D01*
X37695757Y-42694436D01*
X37280916Y-42449376D01*
X36863401Y-42123529D01*
X36589639Y-41875611D01*
X36155625Y-41392247D01*
X35857891Y-40894467D01*
X35708146Y-40404154D01*
X35692160Y-40198151D01*
X35714651Y-39941084D01*
X35789070Y-39648105D01*
X35924153Y-39300018D01*
X36128637Y-38877626D01*
X36411256Y-38361733D01*
X36428327Y-38332691D01*
X37792343Y-38332691D01*
X37894316Y-39011054D01*
X37971975Y-39273564D01*
X38280327Y-39995801D01*
X38687832Y-40630988D01*
X39175817Y-41158594D01*
X39725611Y-41558093D01*
X40263333Y-41792826D01*
X40614850Y-41854463D01*
X41062239Y-41869572D01*
X41539503Y-41841341D01*
X41980641Y-41772955D01*
X42248863Y-41696943D01*
X42729376Y-41439556D01*
X43173876Y-41058517D01*
X43533975Y-40599053D01*
X43652611Y-40384939D01*
X43741822Y-40179323D01*
X43793888Y-39982869D01*
X43814920Y-39745599D01*
X43811025Y-39417536D01*
X43800295Y-39176756D01*
X43743040Y-38582578D01*
X43622994Y-38100774D01*
X43417384Y-37679179D01*
X43103437Y-37265630D01*
X42846939Y-36992952D01*
X42261392Y-36493956D01*
X41639027Y-36128930D01*
X40999290Y-35901790D01*
X40361624Y-35816450D01*
X39745473Y-35876824D01*
X39170283Y-36086828D01*
X38960615Y-36210558D01*
X38434588Y-36644754D01*
X38063712Y-37145721D01*
X37849219Y-37709640D01*
X37792343Y-38332691D01*
X36428327Y-38332691D01*
X36780747Y-37733143D01*
X36914739Y-37511667D01*
X37401081Y-36692155D01*
X37810965Y-35951778D01*
X38171530Y-35235728D01*
X38509917Y-34489197D01*
X38853267Y-33657375D01*
X38969098Y-33363000D01*
X39141458Y-32933951D01*
X39304382Y-32552191D01*
X39443293Y-32250201D01*
X39543613Y-32060464D01*
X39571059Y-32021697D01*
X39699224Y-31929826D01*
X39876556Y-31904348D01*
X40124551Y-31950262D01*
D10*
G36*
X64414214Y-28000000D02*
X63000000Y-29414214D01*
X61585786Y-28000000D01*
X63000000Y-26585786D01*
X64414214Y-28000000D01*
X64414214Y-28000000D01*
G37*
D15*
X58403806Y-23403806D03*
D10*
G36*
X13585786Y-66000000D02*
X15000000Y-64585786D01*
X16414214Y-66000000D01*
X15000000Y-67414214D01*
X13585786Y-66000000D01*
X13585786Y-66000000D01*
G37*
D15*
X19596194Y-70596194D03*
D16*
X26600000Y-12550000D03*
X23400000Y-12550000D03*
X26600000Y-17450000D03*
X23400000Y-17450000D03*
D10*
G36*
X69187005Y-35065685D02*
X68197056Y-34075736D01*
X69540559Y-32732233D01*
X70530508Y-33722182D01*
X69187005Y-35065685D01*
X69187005Y-35065685D01*
G37*
G36*
X66924264Y-32802944D02*
X65934315Y-31812995D01*
X67277818Y-30469492D01*
X68267767Y-31459441D01*
X66924264Y-32802944D01*
X66924264Y-32802944D01*
G37*
G36*
X65722182Y-38530508D02*
X64732233Y-37540559D01*
X66075736Y-36197056D01*
X67065685Y-37187005D01*
X65722182Y-38530508D01*
X65722182Y-38530508D01*
G37*
G36*
X63459441Y-36267767D02*
X62469492Y-35277818D01*
X63812995Y-33934315D01*
X64802944Y-34924264D01*
X63459441Y-36267767D01*
X63459441Y-36267767D01*
G37*
D16*
X13600000Y-34550000D03*
X10400000Y-34550000D03*
X13600000Y-39450000D03*
X10400000Y-39450000D03*
D10*
G36*
X48687005Y-79565685D02*
X47697056Y-78575736D01*
X49040559Y-77232233D01*
X50030508Y-78222182D01*
X48687005Y-79565685D01*
X48687005Y-79565685D01*
G37*
G36*
X46424264Y-77302944D02*
X45434315Y-76312995D01*
X46777818Y-74969492D01*
X47767767Y-75959441D01*
X46424264Y-77302944D01*
X46424264Y-77302944D01*
G37*
G36*
X45222182Y-83030508D02*
X44232233Y-82040559D01*
X45575736Y-80697056D01*
X46565685Y-81687005D01*
X45222182Y-83030508D01*
X45222182Y-83030508D01*
G37*
G36*
X42959441Y-80767767D02*
X41969492Y-79777818D01*
X43312995Y-78434315D01*
X44302944Y-79424264D01*
X42959441Y-80767767D01*
X42959441Y-80767767D01*
G37*
G36*
X57687005Y-72565685D02*
X56697056Y-71575736D01*
X58040559Y-70232233D01*
X59030508Y-71222182D01*
X57687005Y-72565685D01*
X57687005Y-72565685D01*
G37*
G36*
X55424264Y-70302944D02*
X54434315Y-69312995D01*
X55777818Y-67969492D01*
X56767767Y-68959441D01*
X55424264Y-70302944D01*
X55424264Y-70302944D01*
G37*
G36*
X54222182Y-76030508D02*
X53232233Y-75040559D01*
X54575736Y-73697056D01*
X55565685Y-74687005D01*
X54222182Y-76030508D01*
X54222182Y-76030508D01*
G37*
G36*
X51959441Y-73767767D02*
X50969492Y-72777818D01*
X52312995Y-71434315D01*
X53302944Y-72424264D01*
X51959441Y-73767767D01*
X51959441Y-73767767D01*
G37*
G36*
X66687005Y-63565685D02*
X65697056Y-62575736D01*
X67040559Y-61232233D01*
X68030508Y-62222182D01*
X66687005Y-63565685D01*
X66687005Y-63565685D01*
G37*
G36*
X64424264Y-61302944D02*
X63434315Y-60312995D01*
X64777818Y-58969492D01*
X65767767Y-59959441D01*
X64424264Y-61302944D01*
X64424264Y-61302944D01*
G37*
G36*
X63222182Y-67030508D02*
X62232233Y-66040559D01*
X63575736Y-64697056D01*
X64565685Y-65687005D01*
X63222182Y-67030508D01*
X63222182Y-67030508D01*
G37*
G36*
X60959441Y-64767767D02*
X59969492Y-63777818D01*
X61312995Y-62434315D01*
X62302944Y-63424264D01*
X60959441Y-64767767D01*
X60959441Y-64767767D01*
G37*
G36*
X73687005Y-54565685D02*
X72697056Y-53575736D01*
X74040559Y-52232233D01*
X75030508Y-53222182D01*
X73687005Y-54565685D01*
X73687005Y-54565685D01*
G37*
G36*
X71424264Y-52302944D02*
X70434315Y-51312995D01*
X71777818Y-49969492D01*
X72767767Y-50959441D01*
X71424264Y-52302944D01*
X71424264Y-52302944D01*
G37*
G36*
X70222182Y-58030508D02*
X69232233Y-57040559D01*
X70575736Y-55697056D01*
X71565685Y-56687005D01*
X70222182Y-58030508D01*
X70222182Y-58030508D01*
G37*
G36*
X67959441Y-55767767D02*
X66969492Y-54777818D01*
X68312995Y-53434315D01*
X69302944Y-54424264D01*
X67959441Y-55767767D01*
X67959441Y-55767767D01*
G37*
D17*
X33000000Y-13000000D03*
D18*
X30460000Y-13000000D03*
D10*
G36*
X81851718Y-37783621D02*
X82216379Y-39851718D01*
X80148282Y-40216379D01*
X79783621Y-38148282D01*
X81851718Y-37783621D01*
X81851718Y-37783621D01*
G37*
D19*
X78498588Y-39441066D02*
X78498588Y-39441066D01*
X81441066Y-41501412D02*
X81441066Y-41501412D01*
X78939655Y-41942478D02*
X78939655Y-41942478D01*
X81882133Y-44002823D02*
X81882133Y-44002823D01*
X79380721Y-44443890D02*
X79380721Y-44443890D01*
X82323199Y-46504235D02*
X82323199Y-46504235D01*
X79821787Y-46945301D02*
X79821787Y-46945301D01*
X82764265Y-49005647D02*
X82764265Y-49005647D01*
X80262854Y-49446713D02*
X80262854Y-49446713D01*
X83205332Y-51507058D02*
X83205332Y-51507058D01*
X80703920Y-51948125D02*
X80703920Y-51948125D01*
X83646398Y-54008470D02*
X83646398Y-54008470D01*
X81144987Y-54449537D02*
X81144987Y-54449537D01*
X84087465Y-56509882D02*
X84087465Y-56509882D01*
X81586053Y-56950948D02*
X81586053Y-56950948D01*
X84528531Y-59011294D02*
X84528531Y-59011294D01*
X82027119Y-59452360D02*
X82027119Y-59452360D01*
X84969597Y-61512705D02*
X84969597Y-61512705D01*
X82468186Y-61953772D02*
X82468186Y-61953772D01*
X85410664Y-64014117D02*
X85410664Y-64014117D01*
X82909252Y-64455183D02*
X82909252Y-64455183D01*
X85851730Y-66515529D02*
X85851730Y-66515529D01*
X83350318Y-66956595D02*
X83350318Y-66956595D01*
X86292796Y-69016940D02*
X86292796Y-69016940D01*
X83791385Y-69458007D02*
X83791385Y-69458007D01*
X86733863Y-71518352D02*
X86733863Y-71518352D01*
X84232451Y-71959418D02*
X84232451Y-71959418D01*
X87174929Y-74019764D02*
X87174929Y-74019764D01*
X84673518Y-74460830D02*
X84673518Y-74460830D01*
D20*
X6000000Y-33040000D03*
D21*
X6000000Y-30500000D03*
X6000000Y-27960000D03*
D20*
X6524229Y-50560707D03*
D21*
X6524229Y-48020707D03*
X6524229Y-45480707D03*
X6524229Y-42940707D03*
D22*
X54181981Y-87181981D03*
X51000000Y-84000000D03*
X58778175Y-82585786D03*
X55596194Y-79403806D03*
X63181981Y-83181981D03*
X60000000Y-80000000D03*
X67778175Y-78585786D03*
X64596194Y-75403806D03*
X70181981Y-76181981D03*
X67000000Y-73000000D03*
X74778175Y-71585786D03*
X71596194Y-68403806D03*
X74181981Y-67181981D03*
X71000000Y-64000000D03*
X78778175Y-62585786D03*
X75596194Y-59403806D03*
D17*
X42000000Y-14000000D03*
D18*
X39460000Y-14000000D03*
X36920000Y-14000000D03*
D10*
G36*
X11175000Y-7410473D02*
X9814527Y-6050000D01*
X11175000Y-4689527D01*
X12535473Y-6050000D01*
X11175000Y-7410473D01*
X11175000Y-7410473D01*
G37*
D23*
X12971051Y-4253949D03*
X12971051Y-7846051D03*
X14767102Y-6050000D03*
X14767102Y-9642102D03*
X16563154Y-7846051D03*
X16563154Y-11438154D03*
X18359205Y-9642102D03*
D15*
X23000000Y-34500000D03*
X26535534Y-30964466D03*
D10*
G36*
X38000000Y-57484924D02*
X36515076Y-56000000D01*
X38000000Y-54515076D01*
X39484924Y-56000000D01*
X38000000Y-57484924D01*
X38000000Y-57484924D01*
G37*
G36*
X48000000Y-47484924D02*
X46515076Y-46000000D01*
X48000000Y-44515076D01*
X49484924Y-46000000D01*
X48000000Y-47484924D01*
X48000000Y-47484924D01*
G37*
D24*
X29000000Y-72203949D03*
D19*
X30796051Y-74000000D02*
X30796051Y-74000000D01*
X27203949Y-74000000D02*
X27203949Y-74000000D01*
X29000000Y-75796051D02*
X29000000Y-75796051D01*
D10*
G36*
X78701718Y-34733621D02*
X79066379Y-36801718D01*
X76998282Y-37166379D01*
X76633621Y-35098282D01*
X78701718Y-34733621D01*
X78701718Y-34733621D01*
G37*
G36*
X14485786Y-50100000D02*
X15900000Y-48685786D01*
X17314214Y-50100000D01*
X15900000Y-51514214D01*
X14485786Y-50100000D01*
X14485786Y-50100000D01*
G37*
D25*
X50024973Y-37527641D02*
X50024973Y-37527641D01*
X17696051Y-48303949D02*
X17696051Y-48303949D01*
X48228922Y-39323693D02*
X48228922Y-39323693D01*
X19492102Y-46507898D02*
X19492102Y-46507898D01*
X46432871Y-41119744D02*
X46432871Y-41119744D01*
X21288154Y-44711846D02*
X21288154Y-44711846D01*
X44636820Y-42915795D02*
X44636820Y-42915795D01*
X23084205Y-42915795D02*
X23084205Y-42915795D01*
X42840768Y-44711846D02*
X42840768Y-44711846D01*
X24880256Y-41119744D02*
X24880256Y-41119744D01*
X41044717Y-46507898D02*
X41044717Y-46507898D01*
X26676307Y-39323693D02*
X26676307Y-39323693D01*
X39248666Y-48303949D02*
X39248666Y-48303949D01*
X28472359Y-37527641D02*
X28472359Y-37527641D01*
X37452615Y-50100000D02*
X37452615Y-50100000D01*
X30268410Y-35731590D02*
X30268410Y-35731590D01*
X35656563Y-51896051D02*
X35656563Y-51896051D01*
X32064461Y-33935539D02*
X32064461Y-33935539D01*
X33860512Y-53692102D02*
X33860512Y-53692102D01*
X33860512Y-32139488D02*
X33860512Y-32139488D01*
X32064461Y-55488154D02*
X32064461Y-55488154D01*
X35656563Y-30343437D02*
X35656563Y-30343437D01*
X30268410Y-57284205D02*
X30268410Y-57284205D01*
X37452615Y-28547385D02*
X37452615Y-28547385D01*
X28472359Y-59080256D02*
X28472359Y-59080256D01*
X39248666Y-26751334D02*
X39248666Y-26751334D01*
X26676307Y-60876307D02*
X26676307Y-60876307D01*
X41044717Y-24955283D02*
X41044717Y-24955283D01*
X51821024Y-35731590D02*
X51821024Y-35731590D01*
D26*
X6700000Y-14225000D03*
D27*
X9925000Y-14225000D03*
X8980419Y-16505419D03*
X6700000Y-17450000D03*
X4419581Y-16505419D03*
X3475000Y-14225000D03*
X4419581Y-11944581D03*
X6700000Y-11000000D03*
X8980419Y-11944581D03*
M02*
