G04 #@! TF.FileFunction,Drawing*
%FSLAX46Y46*%
G04 Gerber Fmt 4.6, Leading zero omitted, Abs format (unit mm)*
G04 Created by KiCad (PCBNEW 4.0.7) date 06/10/18 13:53:04*
%MOMM*%
%LPD*%
G01*
G04 APERTURE LIST*
%ADD10C,0.100000*%
G04 APERTURE END LIST*
D10*
X106703654Y51922607D02*
X109025431Y55957650D01*
X105305154Y47887623D02*
X106703654Y51922607D01*
X104829933Y43852698D02*
X105305154Y47887623D01*
X105050596Y39456381D02*
X104829933Y43852698D01*
X119889554Y-3001571D02*
X118600967Y-150950D01*
X121993719Y-5852192D02*
X119889554Y-3001571D01*
X158188160Y-12865061D02*
X154675052Y-13962200D01*
X161701210Y-10978053D02*
X158188160Y-12865061D01*
X165214200Y-8301175D02*
X161701210Y-10978053D01*
X168155749Y-5089280D02*
X165214200Y-8301175D01*
X170310428Y-1877327D02*
X168155749Y-5089280D01*
X171678235Y1334685D02*
X170310428Y-1877327D01*
X155277244Y42407279D02*
X155799267Y40560487D01*
X106355521Y34959523D02*
X105693004Y36706037D01*
X106174810Y33554321D02*
X106355521Y34959523D01*
X105793546Y30844194D02*
X106174810Y33554321D01*
X146625104Y48730821D02*
X149636327Y48068304D01*
X162316836Y38066113D02*
X165575621Y35240510D01*
X159058051Y39839439D02*
X162316836Y38066113D01*
X155799267Y40560487D02*
X159058051Y39839439D01*
X105898370Y26894609D02*
X105793546Y30844194D01*
X106729575Y22944992D02*
X105898370Y26894609D01*
X108287161Y18995342D02*
X106729575Y22944992D01*
X110571127Y15045658D02*
X108287161Y18995342D01*
X110209706Y14021721D02*
X110571127Y15045658D01*
X172997184Y16220011D02*
X173264148Y12235254D01*
X172339430Y20204769D02*
X172997184Y16220011D01*
X171290886Y24189526D02*
X172339430Y20204769D01*
X169851552Y28174283D02*
X171290886Y24189526D01*
X150921144Y-14626370D02*
X147167235Y-14805427D01*
X154675052Y-13962200D02*
X150921144Y-14626370D01*
X109788225Y12154821D02*
X110209706Y14021721D01*
X172838830Y5490033D02*
X171678235Y1334685D01*
X173244040Y9645512D02*
X172838830Y5490033D01*
X168187191Y31657258D02*
X169851552Y28174283D01*
X165635681Y35140233D02*
X168187191Y31657258D01*
X143734531Y47907702D02*
X146625104Y48730821D01*
X149636327Y48068304D02*
X153550837Y45418502D01*
X110362900Y8952899D02*
X109788225Y12154821D01*
X112277425Y5751110D02*
X110362900Y8952899D01*
X125597079Y-8902970D02*
X121993719Y-5852192D01*
X129200440Y-10850700D02*
X125597079Y-8902970D01*
X142971473Y48168581D02*
X143734531Y47907702D01*
X105693004Y36706037D02*
X105050596Y39456381D01*
X153550837Y45418502D02*
X155277244Y42407279D01*
X115007661Y3563932D02*
X112277425Y5751110D01*
X117737896Y2860273D02*
X115007661Y3563932D01*
X133692139Y-12571864D02*
X129200440Y-10850700D01*
X138183838Y-13804707D02*
X133692139Y-12571864D01*
X142675536Y-14549228D02*
X138183838Y-13804707D01*
X147167235Y-14805427D02*
X142675536Y-14549228D01*
X173223931Y9685729D02*
X173244040Y9645512D01*
X173264148Y10468631D02*
X173223931Y9685729D01*
X173244040Y12195037D02*
X173264148Y10468631D01*
X173264148Y12235254D02*
X173244040Y12195037D01*
X165595729Y35180450D02*
X165635681Y35140233D01*
X165575621Y35240510D02*
X165595729Y35180450D01*
X112448148Y58822823D02*
X115870996Y59691450D01*
X109025431Y55957650D02*
X112448148Y58822823D01*
X136032422Y51593318D02*
X139418383Y50236300D01*
X132646461Y52423052D02*
X136032422Y51593318D01*
X129260500Y52725500D02*
X132646461Y52423052D01*
X142289113Y48650387D02*
X142971473Y48168581D01*
X139418383Y50236300D02*
X142289113Y48650387D01*
X125878067Y52547568D02*
X128618356Y52725500D01*
X123137777Y52183633D02*
X125878067Y52547568D01*
X122023418Y54833435D02*
X123137777Y52183633D01*
X120206988Y57483237D02*
X122023418Y54833435D01*
X118038992Y59147334D02*
X120206988Y57483237D01*
X115870996Y59691450D02*
X118038992Y59147334D01*
X118600967Y-150950D02*
X117737896Y2860273D01*
X129180331Y52705656D02*
X129260500Y52725500D01*
X129140115Y52725500D02*
X129180331Y52705656D01*
X128979513Y52705656D02*
X129140115Y52725500D01*
X128618356Y52725500D02*
X128979513Y52705656D01*
M02*
