G04 #@! TF.FileFunction,Paste,Top*
%FSLAX46Y46*%
G04 Gerber Fmt 4.6, Leading zero omitted, Abs format (unit mm)*
G04 Created by KiCad (PCBNEW 4.0.7) date 06/12/18 01:33:59*
%MOMM*%
%LPD*%
G01*
G04 APERTURE LIST*
%ADD10C,0.100000*%
%ADD11C,0.010000*%
%ADD12R,1.000000X1.500000*%
G04 APERTURE END LIST*
D10*
D11*
G36*
X47723391Y-85008006D02*
X48349765Y-85270428D01*
X48934078Y-85516826D01*
X49455813Y-85738425D01*
X49894454Y-85926449D01*
X50229483Y-86072124D01*
X50440383Y-86166675D01*
X50497334Y-86194408D01*
X50578955Y-86245889D01*
X50584294Y-86279993D01*
X50492223Y-86299954D01*
X50281614Y-86309012D01*
X49931339Y-86310403D01*
X49746000Y-86309530D01*
X49220990Y-86295296D01*
X48629505Y-86261925D01*
X48066193Y-86215345D01*
X47828773Y-86189452D01*
X47417039Y-86134195D01*
X46882134Y-86054347D01*
X46253635Y-85955028D01*
X45561117Y-85841360D01*
X44834154Y-85718462D01*
X44102322Y-85591457D01*
X43395197Y-85465465D01*
X42742353Y-85345608D01*
X42173366Y-85237005D01*
X41717811Y-85144779D01*
X41448667Y-85084730D01*
X41237000Y-85033759D01*
X41427114Y-84961084D01*
X41563138Y-84918354D01*
X41835913Y-84839996D01*
X42218437Y-84733499D01*
X42683709Y-84606351D01*
X43204729Y-84466043D01*
X43394505Y-84415413D01*
X45171781Y-83942416D01*
X47723391Y-85008006D01*
X47723391Y-85008006D01*
G37*
X47723391Y-85008006D02*
X48349765Y-85270428D01*
X48934078Y-85516826D01*
X49455813Y-85738425D01*
X49894454Y-85926449D01*
X50229483Y-86072124D01*
X50440383Y-86166675D01*
X50497334Y-86194408D01*
X50578955Y-86245889D01*
X50584294Y-86279993D01*
X50492223Y-86299954D01*
X50281614Y-86309012D01*
X49931339Y-86310403D01*
X49746000Y-86309530D01*
X49220990Y-86295296D01*
X48629505Y-86261925D01*
X48066193Y-86215345D01*
X47828773Y-86189452D01*
X47417039Y-86134195D01*
X46882134Y-86054347D01*
X46253635Y-85955028D01*
X45561117Y-85841360D01*
X44834154Y-85718462D01*
X44102322Y-85591457D01*
X43395197Y-85465465D01*
X42742353Y-85345608D01*
X42173366Y-85237005D01*
X41717811Y-85144779D01*
X41448667Y-85084730D01*
X41237000Y-85033759D01*
X41427114Y-84961084D01*
X41563138Y-84918354D01*
X41835913Y-84839996D01*
X42218437Y-84733499D01*
X42683709Y-84606351D01*
X43204729Y-84466043D01*
X43394505Y-84415413D01*
X45171781Y-83942416D01*
X47723391Y-85008006D01*
G36*
X54506183Y-79462366D02*
X54713122Y-79537908D01*
X54960929Y-79657410D01*
X55153933Y-79754942D01*
X55472563Y-79917876D01*
X55903305Y-80142320D01*
X56409482Y-80408938D01*
X56954418Y-80698396D01*
X57501435Y-80991356D01*
X57606805Y-81048098D01*
X58359314Y-81449405D01*
X59110812Y-81842131D01*
X59841271Y-82216387D01*
X60530667Y-82562286D01*
X61158974Y-82869939D01*
X61706164Y-83129460D01*
X62152212Y-83330960D01*
X62477093Y-83464552D01*
X62561384Y-83494398D01*
X63010525Y-83647899D01*
X63434209Y-83803238D01*
X63803869Y-83948820D01*
X64090939Y-84073047D01*
X64266851Y-84164321D01*
X64308667Y-84203741D01*
X64228909Y-84279858D01*
X63999261Y-84391581D01*
X63634162Y-84533653D01*
X63148051Y-84700818D01*
X62555366Y-84887820D01*
X61895667Y-85082228D01*
X60454777Y-85475629D01*
X59151857Y-85791410D01*
X57975216Y-86031169D01*
X56913165Y-86196508D01*
X55954013Y-86289028D01*
X55086072Y-86310327D01*
X54297651Y-86262008D01*
X53801758Y-86190342D01*
X53455715Y-86116627D01*
X53056945Y-86009484D01*
X52590331Y-85863537D01*
X52040757Y-85673409D01*
X51393107Y-85433726D01*
X50632264Y-85139110D01*
X49743113Y-84784187D01*
X49010101Y-84486284D01*
X48357234Y-84218247D01*
X47846616Y-84005222D01*
X47463109Y-83839757D01*
X47191571Y-83714396D01*
X47016864Y-83621687D01*
X46923846Y-83554175D01*
X46897377Y-83504407D01*
X46922318Y-83464928D01*
X46927475Y-83460948D01*
X47068996Y-83368667D01*
X47337160Y-83205191D01*
X47711135Y-82982534D01*
X48170087Y-82712710D01*
X48693181Y-82407735D01*
X49259584Y-82079623D01*
X49848461Y-81740388D01*
X50438978Y-81402045D01*
X51010302Y-81076608D01*
X51541599Y-80776092D01*
X52012034Y-80512512D01*
X52400773Y-80297881D01*
X52589051Y-80196039D01*
X53125931Y-79908909D01*
X53539350Y-79693999D01*
X53856696Y-79546601D01*
X54105359Y-79462002D01*
X54312725Y-79435494D01*
X54506183Y-79462366D01*
X54506183Y-79462366D01*
G37*
X54506183Y-79462366D02*
X54713122Y-79537908D01*
X54960929Y-79657410D01*
X55153933Y-79754942D01*
X55472563Y-79917876D01*
X55903305Y-80142320D01*
X56409482Y-80408938D01*
X56954418Y-80698396D01*
X57501435Y-80991356D01*
X57606805Y-81048098D01*
X58359314Y-81449405D01*
X59110812Y-81842131D01*
X59841271Y-82216387D01*
X60530667Y-82562286D01*
X61158974Y-82869939D01*
X61706164Y-83129460D01*
X62152212Y-83330960D01*
X62477093Y-83464552D01*
X62561384Y-83494398D01*
X63010525Y-83647899D01*
X63434209Y-83803238D01*
X63803869Y-83948820D01*
X64090939Y-84073047D01*
X64266851Y-84164321D01*
X64308667Y-84203741D01*
X64228909Y-84279858D01*
X63999261Y-84391581D01*
X63634162Y-84533653D01*
X63148051Y-84700818D01*
X62555366Y-84887820D01*
X61895667Y-85082228D01*
X60454777Y-85475629D01*
X59151857Y-85791410D01*
X57975216Y-86031169D01*
X56913165Y-86196508D01*
X55954013Y-86289028D01*
X55086072Y-86310327D01*
X54297651Y-86262008D01*
X53801758Y-86190342D01*
X53455715Y-86116627D01*
X53056945Y-86009484D01*
X52590331Y-85863537D01*
X52040757Y-85673409D01*
X51393107Y-85433726D01*
X50632264Y-85139110D01*
X49743113Y-84784187D01*
X49010101Y-84486284D01*
X48357234Y-84218247D01*
X47846616Y-84005222D01*
X47463109Y-83839757D01*
X47191571Y-83714396D01*
X47016864Y-83621687D01*
X46923846Y-83554175D01*
X46897377Y-83504407D01*
X46922318Y-83464928D01*
X46927475Y-83460948D01*
X47068996Y-83368667D01*
X47337160Y-83205191D01*
X47711135Y-82982534D01*
X48170087Y-82712710D01*
X48693181Y-82407735D01*
X49259584Y-82079623D01*
X49848461Y-81740388D01*
X50438978Y-81402045D01*
X51010302Y-81076608D01*
X51541599Y-80776092D01*
X52012034Y-80512512D01*
X52400773Y-80297881D01*
X52589051Y-80196039D01*
X53125931Y-79908909D01*
X53539350Y-79693999D01*
X53856696Y-79546601D01*
X54105359Y-79462002D01*
X54312725Y-79435494D01*
X54506183Y-79462366D01*
G36*
X38524449Y-80182874D02*
X38754376Y-80299485D01*
X39085064Y-80479149D01*
X39496195Y-80709851D01*
X39967453Y-80979574D01*
X40478522Y-81276301D01*
X41009083Y-81588017D01*
X41538821Y-81902704D01*
X42047419Y-82208346D01*
X42514559Y-82492927D01*
X42919926Y-82744431D01*
X43243202Y-82950840D01*
X43464071Y-83100139D01*
X43562216Y-83180311D01*
X43565333Y-83187161D01*
X43553809Y-83227682D01*
X43501965Y-83270238D01*
X43383899Y-83325981D01*
X43173706Y-83406063D01*
X42845481Y-83521636D01*
X42560648Y-83619674D01*
X41995978Y-83795119D01*
X41358215Y-83963551D01*
X40700537Y-84113210D01*
X40076126Y-84232336D01*
X39538163Y-84309167D01*
X39374333Y-84324324D01*
X38896989Y-84329094D01*
X38390398Y-84286455D01*
X38189000Y-84254106D01*
X37960784Y-84202884D01*
X37597561Y-84112583D01*
X37127114Y-83990742D01*
X36577225Y-83844905D01*
X35975677Y-83682612D01*
X35350250Y-83511406D01*
X34728729Y-83338828D01*
X34138894Y-83172420D01*
X33608528Y-83019723D01*
X33236000Y-82909584D01*
X32855000Y-82795061D01*
X34082667Y-82176682D01*
X34604956Y-81916186D01*
X35164436Y-81641640D01*
X35739771Y-81363065D01*
X36309630Y-81090482D01*
X36852677Y-80833913D01*
X37347579Y-80603380D01*
X37773002Y-80408903D01*
X38107612Y-80260503D01*
X38330076Y-80168203D01*
X38415599Y-80141333D01*
X38524449Y-80182874D01*
X38524449Y-80182874D01*
G37*
X38524449Y-80182874D02*
X38754376Y-80299485D01*
X39085064Y-80479149D01*
X39496195Y-80709851D01*
X39967453Y-80979574D01*
X40478522Y-81276301D01*
X41009083Y-81588017D01*
X41538821Y-81902704D01*
X42047419Y-82208346D01*
X42514559Y-82492927D01*
X42919926Y-82744431D01*
X43243202Y-82950840D01*
X43464071Y-83100139D01*
X43562216Y-83180311D01*
X43565333Y-83187161D01*
X43553809Y-83227682D01*
X43501965Y-83270238D01*
X43383899Y-83325981D01*
X43173706Y-83406063D01*
X42845481Y-83521636D01*
X42560648Y-83619674D01*
X41995978Y-83795119D01*
X41358215Y-83963551D01*
X40700537Y-84113210D01*
X40076126Y-84232336D01*
X39538163Y-84309167D01*
X39374333Y-84324324D01*
X38896989Y-84329094D01*
X38390398Y-84286455D01*
X38189000Y-84254106D01*
X37960784Y-84202884D01*
X37597561Y-84112583D01*
X37127114Y-83990742D01*
X36577225Y-83844905D01*
X35975677Y-83682612D01*
X35350250Y-83511406D01*
X34728729Y-83338828D01*
X34138894Y-83172420D01*
X33608528Y-83019723D01*
X33236000Y-82909584D01*
X32855000Y-82795061D01*
X34082667Y-82176682D01*
X34604956Y-81916186D01*
X35164436Y-81641640D01*
X35739771Y-81363065D01*
X36309630Y-81090482D01*
X36852677Y-80833913D01*
X37347579Y-80603380D01*
X37773002Y-80408903D01*
X38107612Y-80260503D01*
X38330076Y-80168203D01*
X38415599Y-80141333D01*
X38524449Y-80182874D01*
G36*
X66867816Y-76138813D02*
X67552013Y-76823583D01*
X68199671Y-77473116D01*
X68801035Y-78077540D01*
X69346349Y-78626988D01*
X69825857Y-79111590D01*
X70229802Y-79521477D01*
X70548430Y-79846780D01*
X70771984Y-80077630D01*
X70890708Y-80204158D01*
X70907793Y-80225669D01*
X70845377Y-80296049D01*
X70683128Y-80446892D01*
X70451396Y-80650367D01*
X70353438Y-80734000D01*
X69804965Y-81169035D01*
X69156710Y-81635725D01*
X68463797Y-82097323D01*
X67781348Y-82517083D01*
X67174491Y-82853129D01*
X66751623Y-83060081D01*
X66408404Y-83192191D01*
X66094982Y-83254955D01*
X65761503Y-83253870D01*
X65358116Y-83194430D01*
X64920678Y-83101599D01*
X63928805Y-82835622D01*
X62838937Y-82467595D01*
X61678002Y-82009783D01*
X60472927Y-81474450D01*
X59250643Y-80873861D01*
X58038076Y-80220280D01*
X56862156Y-79525972D01*
X56328833Y-79188445D01*
X55986710Y-78961876D01*
X55703292Y-78764697D01*
X55505464Y-78616317D01*
X55420111Y-78536143D01*
X55418667Y-78531395D01*
X55481090Y-78465350D01*
X55660795Y-78299147D01*
X55946432Y-78042757D01*
X56326652Y-77706148D01*
X56790106Y-77299291D01*
X57325445Y-76832155D01*
X57921320Y-76314709D01*
X58566381Y-75756924D01*
X59120816Y-75279234D01*
X62822965Y-72094620D01*
X66867816Y-76138813D01*
X66867816Y-76138813D01*
G37*
X66867816Y-76138813D02*
X67552013Y-76823583D01*
X68199671Y-77473116D01*
X68801035Y-78077540D01*
X69346349Y-78626988D01*
X69825857Y-79111590D01*
X70229802Y-79521477D01*
X70548430Y-79846780D01*
X70771984Y-80077630D01*
X70890708Y-80204158D01*
X70907793Y-80225669D01*
X70845377Y-80296049D01*
X70683128Y-80446892D01*
X70451396Y-80650367D01*
X70353438Y-80734000D01*
X69804965Y-81169035D01*
X69156710Y-81635725D01*
X68463797Y-82097323D01*
X67781348Y-82517083D01*
X67174491Y-82853129D01*
X66751623Y-83060081D01*
X66408404Y-83192191D01*
X66094982Y-83254955D01*
X65761503Y-83253870D01*
X65358116Y-83194430D01*
X64920678Y-83101599D01*
X63928805Y-82835622D01*
X62838937Y-82467595D01*
X61678002Y-82009783D01*
X60472927Y-81474450D01*
X59250643Y-80873861D01*
X58038076Y-80220280D01*
X56862156Y-79525972D01*
X56328833Y-79188445D01*
X55986710Y-78961876D01*
X55703292Y-78764697D01*
X55505464Y-78616317D01*
X55420111Y-78536143D01*
X55418667Y-78531395D01*
X55481090Y-78465350D01*
X55660795Y-78299147D01*
X55946432Y-78042757D01*
X56326652Y-77706148D01*
X56790106Y-77299291D01*
X57325445Y-76832155D01*
X57921320Y-76314709D01*
X58566381Y-75756924D01*
X59120816Y-75279234D01*
X62822965Y-72094620D01*
X66867816Y-76138813D01*
G36*
X47202273Y-73777982D02*
X47297294Y-73814605D01*
X47432786Y-73892833D01*
X47620893Y-74021533D01*
X47873762Y-74209575D01*
X48203538Y-74465826D01*
X48622366Y-74799157D01*
X49142393Y-75218434D01*
X49775764Y-75732529D01*
X50090724Y-75988807D01*
X50687824Y-76476004D01*
X51243248Y-76931366D01*
X51743401Y-77343589D01*
X52174690Y-77701367D01*
X52523520Y-77993397D01*
X52776298Y-78208375D01*
X52919430Y-78334997D01*
X52947110Y-78364068D01*
X52892822Y-78450379D01*
X52705788Y-78605996D01*
X52402861Y-78820896D01*
X52000896Y-79085051D01*
X51516744Y-79388437D01*
X50967262Y-79721027D01*
X50369300Y-80072797D01*
X49739714Y-80433721D01*
X49095358Y-80793773D01*
X48453083Y-81142928D01*
X47829745Y-81471160D01*
X47242197Y-81768444D01*
X47138571Y-81819345D01*
X46647246Y-82056711D01*
X46273464Y-82228213D01*
X45984209Y-82345485D01*
X45746465Y-82420163D01*
X45527217Y-82463879D01*
X45293449Y-82488270D01*
X45227486Y-82492801D01*
X44614064Y-82532168D01*
X43462577Y-81934968D01*
X43053468Y-81720065D01*
X42585273Y-81469629D01*
X42081003Y-81196441D01*
X41563668Y-80913279D01*
X41056278Y-80632923D01*
X40581845Y-80368151D01*
X40163376Y-80131742D01*
X39823884Y-79936475D01*
X39586377Y-79795129D01*
X39473867Y-79720483D01*
X39471908Y-79718705D01*
X39500223Y-79638761D01*
X39636370Y-79481915D01*
X39854903Y-79275718D01*
X39979908Y-79168701D01*
X40149715Y-79032651D01*
X40431942Y-78812563D01*
X40810311Y-78520750D01*
X41268548Y-78169525D01*
X41790376Y-77771199D01*
X42359518Y-77338084D01*
X42959697Y-76882493D01*
X43574639Y-76416737D01*
X44188066Y-75953129D01*
X44783701Y-75503981D01*
X45345270Y-75081604D01*
X45856495Y-74698312D01*
X46301100Y-74366415D01*
X46662809Y-74098226D01*
X46925346Y-73906058D01*
X47072434Y-73802221D01*
X47085058Y-73794070D01*
X47135576Y-73774093D01*
X47202273Y-73777982D01*
X47202273Y-73777982D01*
G37*
X47202273Y-73777982D02*
X47297294Y-73814605D01*
X47432786Y-73892833D01*
X47620893Y-74021533D01*
X47873762Y-74209575D01*
X48203538Y-74465826D01*
X48622366Y-74799157D01*
X49142393Y-75218434D01*
X49775764Y-75732529D01*
X50090724Y-75988807D01*
X50687824Y-76476004D01*
X51243248Y-76931366D01*
X51743401Y-77343589D01*
X52174690Y-77701367D01*
X52523520Y-77993397D01*
X52776298Y-78208375D01*
X52919430Y-78334997D01*
X52947110Y-78364068D01*
X52892822Y-78450379D01*
X52705788Y-78605996D01*
X52402861Y-78820896D01*
X52000896Y-79085051D01*
X51516744Y-79388437D01*
X50967262Y-79721027D01*
X50369300Y-80072797D01*
X49739714Y-80433721D01*
X49095358Y-80793773D01*
X48453083Y-81142928D01*
X47829745Y-81471160D01*
X47242197Y-81768444D01*
X47138571Y-81819345D01*
X46647246Y-82056711D01*
X46273464Y-82228213D01*
X45984209Y-82345485D01*
X45746465Y-82420163D01*
X45527217Y-82463879D01*
X45293449Y-82488270D01*
X45227486Y-82492801D01*
X44614064Y-82532168D01*
X43462577Y-81934968D01*
X43053468Y-81720065D01*
X42585273Y-81469629D01*
X42081003Y-81196441D01*
X41563668Y-80913279D01*
X41056278Y-80632923D01*
X40581845Y-80368151D01*
X40163376Y-80131742D01*
X39823884Y-79936475D01*
X39586377Y-79795129D01*
X39473867Y-79720483D01*
X39471908Y-79718705D01*
X39500223Y-79638761D01*
X39636370Y-79481915D01*
X39854903Y-79275718D01*
X39979908Y-79168701D01*
X40149715Y-79032651D01*
X40431942Y-78812563D01*
X40810311Y-78520750D01*
X41268548Y-78169525D01*
X41790376Y-77771199D01*
X42359518Y-77338084D01*
X42959697Y-76882493D01*
X43574639Y-76416737D01*
X44188066Y-75953129D01*
X44783701Y-75503981D01*
X45345270Y-75081604D01*
X45856495Y-74698312D01*
X46301100Y-74366415D01*
X46662809Y-74098226D01*
X46925346Y-73906058D01*
X47072434Y-73802221D01*
X47085058Y-73794070D01*
X47135576Y-73774093D01*
X47202273Y-73777982D01*
G36*
X70630719Y-63750090D02*
X70773433Y-63943091D01*
X70981173Y-64260607D01*
X71239294Y-64677732D01*
X71533152Y-65169560D01*
X71848103Y-65711185D01*
X72169501Y-66277702D01*
X72482704Y-66844204D01*
X72773065Y-67385787D01*
X72811121Y-67458320D01*
X73426452Y-68694887D01*
X73957571Y-69887567D01*
X74397281Y-71017487D01*
X74738389Y-72065775D01*
X74973701Y-73013558D01*
X75017466Y-73245781D01*
X75081428Y-73608822D01*
X75127450Y-73906274D01*
X75147711Y-74160437D01*
X75134392Y-74393613D01*
X75079670Y-74628103D01*
X74975725Y-74886208D01*
X74814736Y-75190230D01*
X74588882Y-75562468D01*
X74290343Y-76025226D01*
X73911297Y-76600804D01*
X73760896Y-76828889D01*
X73407740Y-77362087D01*
X73081283Y-77849550D01*
X72793933Y-78273176D01*
X72558100Y-78614863D01*
X72386194Y-78856507D01*
X72290622Y-78980007D01*
X72278513Y-78991423D01*
X72188055Y-78952970D01*
X71991779Y-78802843D01*
X71701392Y-78551279D01*
X71328600Y-78208512D01*
X70885110Y-77784779D01*
X70767509Y-77670273D01*
X70361350Y-77273926D01*
X69992276Y-76914692D01*
X69678639Y-76610362D01*
X69438791Y-76378722D01*
X69291085Y-76237560D01*
X69255077Y-76204333D01*
X69175688Y-76128455D01*
X68988943Y-75946027D01*
X68707718Y-75669740D01*
X68344888Y-75312288D01*
X67913326Y-74886360D01*
X67425908Y-74404649D01*
X66895509Y-73879847D01*
X66559968Y-73547554D01*
X65928611Y-72921081D01*
X65408597Y-72402197D01*
X64990118Y-71980187D01*
X64663367Y-71644336D01*
X64418535Y-71383928D01*
X64245814Y-71188248D01*
X64135397Y-71046580D01*
X64077476Y-70948208D01*
X64062242Y-70882417D01*
X64079888Y-70838491D01*
X64080117Y-70838221D01*
X64413235Y-70447653D01*
X64831816Y-69959439D01*
X65316269Y-69396222D01*
X65847000Y-68780645D01*
X66404415Y-68135351D01*
X66968923Y-67482981D01*
X67520929Y-66846180D01*
X68040841Y-66247590D01*
X68509066Y-65709853D01*
X68906010Y-65255613D01*
X69209225Y-64910744D01*
X70435518Y-63523155D01*
X70630719Y-63750090D01*
X70630719Y-63750090D01*
G37*
X70630719Y-63750090D02*
X70773433Y-63943091D01*
X70981173Y-64260607D01*
X71239294Y-64677732D01*
X71533152Y-65169560D01*
X71848103Y-65711185D01*
X72169501Y-66277702D01*
X72482704Y-66844204D01*
X72773065Y-67385787D01*
X72811121Y-67458320D01*
X73426452Y-68694887D01*
X73957571Y-69887567D01*
X74397281Y-71017487D01*
X74738389Y-72065775D01*
X74973701Y-73013558D01*
X75017466Y-73245781D01*
X75081428Y-73608822D01*
X75127450Y-73906274D01*
X75147711Y-74160437D01*
X75134392Y-74393613D01*
X75079670Y-74628103D01*
X74975725Y-74886208D01*
X74814736Y-75190230D01*
X74588882Y-75562468D01*
X74290343Y-76025226D01*
X73911297Y-76600804D01*
X73760896Y-76828889D01*
X73407740Y-77362087D01*
X73081283Y-77849550D01*
X72793933Y-78273176D01*
X72558100Y-78614863D01*
X72386194Y-78856507D01*
X72290622Y-78980007D01*
X72278513Y-78991423D01*
X72188055Y-78952970D01*
X71991779Y-78802843D01*
X71701392Y-78551279D01*
X71328600Y-78208512D01*
X70885110Y-77784779D01*
X70767509Y-77670273D01*
X70361350Y-77273926D01*
X69992276Y-76914692D01*
X69678639Y-76610362D01*
X69438791Y-76378722D01*
X69291085Y-76237560D01*
X69255077Y-76204333D01*
X69175688Y-76128455D01*
X68988943Y-75946027D01*
X68707718Y-75669740D01*
X68344888Y-75312288D01*
X67913326Y-74886360D01*
X67425908Y-74404649D01*
X66895509Y-73879847D01*
X66559968Y-73547554D01*
X65928611Y-72921081D01*
X65408597Y-72402197D01*
X64990118Y-71980187D01*
X64663367Y-71644336D01*
X64418535Y-71383928D01*
X64245814Y-71188248D01*
X64135397Y-71046580D01*
X64077476Y-70948208D01*
X64062242Y-70882417D01*
X64079888Y-70838491D01*
X64080117Y-70838221D01*
X64413235Y-70447653D01*
X64831816Y-69959439D01*
X65316269Y-69396222D01*
X65847000Y-68780645D01*
X66404415Y-68135351D01*
X66968923Y-67482981D01*
X67520929Y-66846180D01*
X68040841Y-66247590D01*
X68509066Y-65709853D01*
X68906010Y-65255613D01*
X69209225Y-64910744D01*
X70435518Y-63523155D01*
X70630719Y-63750090D01*
G36*
X56065572Y-65707332D02*
X56211625Y-65816695D01*
X56290730Y-65888721D01*
X56449588Y-66034154D01*
X56704146Y-66265606D01*
X57024291Y-66555764D01*
X57379908Y-66877312D01*
X57535333Y-67017617D01*
X58161251Y-67585230D01*
X58773809Y-68146149D01*
X59360427Y-68688428D01*
X59908525Y-69200122D01*
X60405523Y-69669283D01*
X60838841Y-70083966D01*
X61195900Y-70432225D01*
X61464120Y-70702114D01*
X61630920Y-70881687D01*
X61684000Y-70957269D01*
X61622115Y-71065982D01*
X61446367Y-71270965D01*
X61171619Y-71558472D01*
X60812734Y-71914755D01*
X60384573Y-72326070D01*
X59901998Y-72778667D01*
X59379872Y-73258802D01*
X58833057Y-73752727D01*
X58276415Y-74246695D01*
X57724809Y-74726960D01*
X57193100Y-75179776D01*
X56696151Y-75591394D01*
X56519333Y-75734294D01*
X56127857Y-76041360D01*
X55709367Y-76358026D01*
X55287912Y-76667363D01*
X54887541Y-76952443D01*
X54532302Y-77196339D01*
X54246245Y-77382120D01*
X54053419Y-77492860D01*
X53987256Y-77516667D01*
X53894808Y-77471176D01*
X53695405Y-77348028D01*
X53420441Y-77167212D01*
X53167304Y-76994570D01*
X52775168Y-76717763D01*
X52293931Y-76369525D01*
X51747646Y-75968023D01*
X51160368Y-75531430D01*
X50556151Y-75077914D01*
X49959050Y-74625645D01*
X49393117Y-74192794D01*
X48882409Y-73797531D01*
X48450979Y-73458025D01*
X48122880Y-73192446D01*
X48025347Y-73110458D01*
X48070766Y-73042476D01*
X48228293Y-72871820D01*
X48485322Y-72610353D01*
X48829243Y-72269943D01*
X49247450Y-71862454D01*
X49727335Y-71399752D01*
X50256289Y-70893702D01*
X50821705Y-70356171D01*
X51410976Y-69799023D01*
X52011493Y-69234125D01*
X52610648Y-68673342D01*
X53195835Y-68128539D01*
X53754444Y-67611582D01*
X54273869Y-67134337D01*
X54741502Y-66708669D01*
X55144734Y-66346443D01*
X55470958Y-66059526D01*
X55707567Y-65859782D01*
X55825063Y-65769909D01*
X55956560Y-65696800D01*
X56065572Y-65707332D01*
X56065572Y-65707332D01*
G37*
X56065572Y-65707332D02*
X56211625Y-65816695D01*
X56290730Y-65888721D01*
X56449588Y-66034154D01*
X56704146Y-66265606D01*
X57024291Y-66555764D01*
X57379908Y-66877312D01*
X57535333Y-67017617D01*
X58161251Y-67585230D01*
X58773809Y-68146149D01*
X59360427Y-68688428D01*
X59908525Y-69200122D01*
X60405523Y-69669283D01*
X60838841Y-70083966D01*
X61195900Y-70432225D01*
X61464120Y-70702114D01*
X61630920Y-70881687D01*
X61684000Y-70957269D01*
X61622115Y-71065982D01*
X61446367Y-71270965D01*
X61171619Y-71558472D01*
X60812734Y-71914755D01*
X60384573Y-72326070D01*
X59901998Y-72778667D01*
X59379872Y-73258802D01*
X58833057Y-73752727D01*
X58276415Y-74246695D01*
X57724809Y-74726960D01*
X57193100Y-75179776D01*
X56696151Y-75591394D01*
X56519333Y-75734294D01*
X56127857Y-76041360D01*
X55709367Y-76358026D01*
X55287912Y-76667363D01*
X54887541Y-76952443D01*
X54532302Y-77196339D01*
X54246245Y-77382120D01*
X54053419Y-77492860D01*
X53987256Y-77516667D01*
X53894808Y-77471176D01*
X53695405Y-77348028D01*
X53420441Y-77167212D01*
X53167304Y-76994570D01*
X52775168Y-76717763D01*
X52293931Y-76369525D01*
X51747646Y-75968023D01*
X51160368Y-75531430D01*
X50556151Y-75077914D01*
X49959050Y-74625645D01*
X49393117Y-74192794D01*
X48882409Y-73797531D01*
X48450979Y-73458025D01*
X48122880Y-73192446D01*
X48025347Y-73110458D01*
X48070766Y-73042476D01*
X48228293Y-72871820D01*
X48485322Y-72610353D01*
X48829243Y-72269943D01*
X49247450Y-71862454D01*
X49727335Y-71399752D01*
X50256289Y-70893702D01*
X50821705Y-70356171D01*
X51410976Y-69799023D01*
X52011493Y-69234125D01*
X52610648Y-68673342D01*
X53195835Y-68128539D01*
X53754444Y-67611582D01*
X54273869Y-67134337D01*
X54741502Y-66708669D01*
X55144734Y-66346443D01*
X55470958Y-66059526D01*
X55707567Y-65859782D01*
X55825063Y-65769909D01*
X55956560Y-65696800D01*
X56065572Y-65707332D01*
G36*
X75532292Y-55044600D02*
X75637073Y-55232120D01*
X75774726Y-55532644D01*
X75950256Y-55957291D01*
X76168669Y-56517182D01*
X76434970Y-57223435D01*
X76513936Y-57435819D01*
X76890991Y-58455318D01*
X77211835Y-59331695D01*
X77480673Y-60080018D01*
X77701710Y-60715355D01*
X77879153Y-61252772D01*
X78017208Y-61707336D01*
X78120080Y-62094114D01*
X78191975Y-62428174D01*
X78237100Y-62724582D01*
X78259660Y-62998406D01*
X78263860Y-63264712D01*
X78253907Y-63538569D01*
X78247414Y-63645836D01*
X78198383Y-64175138D01*
X78115200Y-64827453D01*
X78004910Y-65561550D01*
X77874559Y-66336199D01*
X77731195Y-67110169D01*
X77581864Y-67842227D01*
X77433611Y-68491143D01*
X77388967Y-68669000D01*
X77217932Y-69292848D01*
X77014664Y-69970598D01*
X76794904Y-70654156D01*
X76574396Y-71295430D01*
X76368879Y-71846327D01*
X76268718Y-72091548D01*
X76108894Y-72466095D01*
X75884792Y-71922214D01*
X75774589Y-71652064D01*
X75618868Y-71266713D01*
X75434603Y-70808342D01*
X75238769Y-70319128D01*
X75137779Y-70066000D01*
X74828872Y-69315487D01*
X74507535Y-68588346D01*
X74158019Y-67852702D01*
X73764580Y-67076680D01*
X73311469Y-66228402D01*
X72782941Y-65275995D01*
X72690994Y-65113000D01*
X72299475Y-64418934D01*
X71984585Y-63855573D01*
X71738948Y-63406595D01*
X71555187Y-63055680D01*
X71425923Y-62786506D01*
X71343780Y-62582751D01*
X71301380Y-62428096D01*
X71291346Y-62306219D01*
X71306300Y-62200798D01*
X71333721Y-62110275D01*
X71401188Y-61962744D01*
X71542429Y-61689496D01*
X71746980Y-61308918D01*
X72004374Y-60839396D01*
X72304147Y-60299316D01*
X72635833Y-59707064D01*
X72988967Y-59081025D01*
X73353085Y-58439585D01*
X73717719Y-57801130D01*
X74072407Y-57184047D01*
X74406681Y-56606721D01*
X74710078Y-56087537D01*
X74972131Y-55644883D01*
X75182376Y-55297142D01*
X75330347Y-55062703D01*
X75401325Y-54964093D01*
X75455378Y-54958964D01*
X75532292Y-55044600D01*
X75532292Y-55044600D01*
G37*
X75532292Y-55044600D02*
X75637073Y-55232120D01*
X75774726Y-55532644D01*
X75950256Y-55957291D01*
X76168669Y-56517182D01*
X76434970Y-57223435D01*
X76513936Y-57435819D01*
X76890991Y-58455318D01*
X77211835Y-59331695D01*
X77480673Y-60080018D01*
X77701710Y-60715355D01*
X77879153Y-61252772D01*
X78017208Y-61707336D01*
X78120080Y-62094114D01*
X78191975Y-62428174D01*
X78237100Y-62724582D01*
X78259660Y-62998406D01*
X78263860Y-63264712D01*
X78253907Y-63538569D01*
X78247414Y-63645836D01*
X78198383Y-64175138D01*
X78115200Y-64827453D01*
X78004910Y-65561550D01*
X77874559Y-66336199D01*
X77731195Y-67110169D01*
X77581864Y-67842227D01*
X77433611Y-68491143D01*
X77388967Y-68669000D01*
X77217932Y-69292848D01*
X77014664Y-69970598D01*
X76794904Y-70654156D01*
X76574396Y-71295430D01*
X76368879Y-71846327D01*
X76268718Y-72091548D01*
X76108894Y-72466095D01*
X75884792Y-71922214D01*
X75774589Y-71652064D01*
X75618868Y-71266713D01*
X75434603Y-70808342D01*
X75238769Y-70319128D01*
X75137779Y-70066000D01*
X74828872Y-69315487D01*
X74507535Y-68588346D01*
X74158019Y-67852702D01*
X73764580Y-67076680D01*
X73311469Y-66228402D01*
X72782941Y-65275995D01*
X72690994Y-65113000D01*
X72299475Y-64418934D01*
X71984585Y-63855573D01*
X71738948Y-63406595D01*
X71555187Y-63055680D01*
X71425923Y-62786506D01*
X71343780Y-62582751D01*
X71301380Y-62428096D01*
X71291346Y-62306219D01*
X71306300Y-62200798D01*
X71333721Y-62110275D01*
X71401188Y-61962744D01*
X71542429Y-61689496D01*
X71746980Y-61308918D01*
X72004374Y-60839396D01*
X72304147Y-60299316D01*
X72635833Y-59707064D01*
X72988967Y-59081025D01*
X73353085Y-58439585D01*
X73717719Y-57801130D01*
X74072407Y-57184047D01*
X74406681Y-56606721D01*
X74710078Y-56087537D01*
X74972131Y-55644883D01*
X75182376Y-55297142D01*
X75330347Y-55062703D01*
X75401325Y-54964093D01*
X75455378Y-54958964D01*
X75532292Y-55044600D01*
G36*
X64962437Y-56142676D02*
X65090398Y-56261771D01*
X65284433Y-56479147D01*
X65550696Y-56802324D01*
X65895340Y-57238823D01*
X66324517Y-57796163D01*
X66844381Y-58481865D01*
X66992325Y-58678333D01*
X67585979Y-59470613D01*
X68081873Y-60139462D01*
X68486759Y-60694680D01*
X68807391Y-61146067D01*
X69050522Y-61503424D01*
X69222906Y-61776550D01*
X69331296Y-61975246D01*
X69382445Y-62109312D01*
X69388667Y-62155807D01*
X69379996Y-62225304D01*
X69347032Y-62311660D01*
X69279342Y-62428128D01*
X69166498Y-62587959D01*
X68998068Y-62804404D01*
X68763622Y-63090715D01*
X68452729Y-63460143D01*
X68054960Y-63925940D01*
X67559883Y-64501358D01*
X67360913Y-64732000D01*
X67006066Y-65141083D01*
X66601492Y-65603999D01*
X66161175Y-66105068D01*
X65699101Y-66628605D01*
X65229252Y-67158928D01*
X64765615Y-67680355D01*
X64322173Y-68177203D01*
X63912911Y-68633790D01*
X63551813Y-69034433D01*
X63252865Y-69363449D01*
X63030049Y-69605157D01*
X62897352Y-69743872D01*
X62867946Y-69770524D01*
X62780231Y-69734660D01*
X62592980Y-69603266D01*
X62331200Y-69395547D01*
X62019892Y-69130708D01*
X61919867Y-69042353D01*
X61635641Y-68785907D01*
X61279382Y-68459417D01*
X60866880Y-68077807D01*
X60413926Y-67656003D01*
X59936312Y-67208929D01*
X59449828Y-66751510D01*
X58970267Y-66298671D01*
X58513419Y-65865336D01*
X58095076Y-65466431D01*
X57731029Y-65116881D01*
X57437070Y-64831609D01*
X57228988Y-64625542D01*
X57122577Y-64513603D01*
X57112000Y-64498291D01*
X57168041Y-64424024D01*
X57328463Y-64238778D01*
X57581714Y-63954999D01*
X57916242Y-63585131D01*
X58320495Y-63141619D01*
X58782922Y-62636909D01*
X59291969Y-62083445D01*
X59836085Y-61493673D01*
X60403718Y-60880036D01*
X60983316Y-60254980D01*
X61563327Y-59630950D01*
X62132199Y-59020391D01*
X62678380Y-58435748D01*
X63190317Y-57889466D01*
X63656460Y-57393989D01*
X64065256Y-56961762D01*
X64405153Y-56605231D01*
X64664599Y-56336841D01*
X64832042Y-56169036D01*
X64894398Y-56114343D01*
X64962437Y-56142676D01*
X64962437Y-56142676D01*
G37*
X64962437Y-56142676D02*
X65090398Y-56261771D01*
X65284433Y-56479147D01*
X65550696Y-56802324D01*
X65895340Y-57238823D01*
X66324517Y-57796163D01*
X66844381Y-58481865D01*
X66992325Y-58678333D01*
X67585979Y-59470613D01*
X68081873Y-60139462D01*
X68486759Y-60694680D01*
X68807391Y-61146067D01*
X69050522Y-61503424D01*
X69222906Y-61776550D01*
X69331296Y-61975246D01*
X69382445Y-62109312D01*
X69388667Y-62155807D01*
X69379996Y-62225304D01*
X69347032Y-62311660D01*
X69279342Y-62428128D01*
X69166498Y-62587959D01*
X68998068Y-62804404D01*
X68763622Y-63090715D01*
X68452729Y-63460143D01*
X68054960Y-63925940D01*
X67559883Y-64501358D01*
X67360913Y-64732000D01*
X67006066Y-65141083D01*
X66601492Y-65603999D01*
X66161175Y-66105068D01*
X65699101Y-66628605D01*
X65229252Y-67158928D01*
X64765615Y-67680355D01*
X64322173Y-68177203D01*
X63912911Y-68633790D01*
X63551813Y-69034433D01*
X63252865Y-69363449D01*
X63030049Y-69605157D01*
X62897352Y-69743872D01*
X62867946Y-69770524D01*
X62780231Y-69734660D01*
X62592980Y-69603266D01*
X62331200Y-69395547D01*
X62019892Y-69130708D01*
X61919867Y-69042353D01*
X61635641Y-68785907D01*
X61279382Y-68459417D01*
X60866880Y-68077807D01*
X60413926Y-67656003D01*
X59936312Y-67208929D01*
X59449828Y-66751510D01*
X58970267Y-66298671D01*
X58513419Y-65865336D01*
X58095076Y-65466431D01*
X57731029Y-65116881D01*
X57437070Y-64831609D01*
X57228988Y-64625542D01*
X57122577Y-64513603D01*
X57112000Y-64498291D01*
X57168041Y-64424024D01*
X57328463Y-64238778D01*
X57581714Y-63954999D01*
X57916242Y-63585131D01*
X58320495Y-63141619D01*
X58782922Y-62636909D01*
X59291969Y-62083445D01*
X59836085Y-61493673D01*
X60403718Y-60880036D01*
X60983316Y-60254980D01*
X61563327Y-59630950D01*
X62132199Y-59020391D01*
X62678380Y-58435748D01*
X63190317Y-57889466D01*
X63656460Y-57393989D01*
X64065256Y-56961762D01*
X64405153Y-56605231D01*
X64664599Y-56336841D01*
X64832042Y-56169036D01*
X64894398Y-56114343D01*
X64962437Y-56142676D01*
G36*
X71670939Y-47546960D02*
X71806845Y-47781814D01*
X71996977Y-48122930D01*
X72229600Y-48548211D01*
X72492983Y-49035560D01*
X72775392Y-49562878D01*
X73065095Y-50108067D01*
X73350357Y-50649030D01*
X73619447Y-51163668D01*
X73860632Y-51629884D01*
X74062177Y-52025579D01*
X74212351Y-52328657D01*
X74299420Y-52517018D01*
X74308615Y-52540000D01*
X74382614Y-52748989D01*
X74434864Y-52944724D01*
X74460064Y-53141353D01*
X74452916Y-53353024D01*
X74408118Y-53593889D01*
X74320370Y-53878095D01*
X74184374Y-54219792D01*
X73994828Y-54633129D01*
X73746432Y-55132255D01*
X73433887Y-55731320D01*
X73051893Y-56444472D01*
X72595149Y-57285861D01*
X72389875Y-57662333D01*
X71889433Y-58575654D01*
X71464860Y-59342031D01*
X71114169Y-59964896D01*
X70835375Y-60447679D01*
X70626491Y-60793811D01*
X70485532Y-61006724D01*
X70410510Y-61089846D01*
X70404702Y-61091333D01*
X70302632Y-61044897D01*
X70218321Y-60985500D01*
X70159617Y-60926776D01*
X70045191Y-60797798D01*
X69869688Y-60592068D01*
X69627756Y-60303089D01*
X69314039Y-59924366D01*
X68923184Y-59449401D01*
X68449837Y-58871698D01*
X67888642Y-58184761D01*
X67234247Y-57382092D01*
X66481298Y-56457196D01*
X66097217Y-55985031D01*
X65559397Y-55323729D01*
X68550933Y-51351166D01*
X69093248Y-50633313D01*
X69605869Y-49959226D01*
X70079735Y-49340524D01*
X70505783Y-48788827D01*
X70874950Y-48315755D01*
X71178174Y-47932927D01*
X71406392Y-47651964D01*
X71550541Y-47484484D01*
X71600992Y-47440468D01*
X71670939Y-47546960D01*
X71670939Y-47546960D01*
G37*
X71670939Y-47546960D02*
X71806845Y-47781814D01*
X71996977Y-48122930D01*
X72229600Y-48548211D01*
X72492983Y-49035560D01*
X72775392Y-49562878D01*
X73065095Y-50108067D01*
X73350357Y-50649030D01*
X73619447Y-51163668D01*
X73860632Y-51629884D01*
X74062177Y-52025579D01*
X74212351Y-52328657D01*
X74299420Y-52517018D01*
X74308615Y-52540000D01*
X74382614Y-52748989D01*
X74434864Y-52944724D01*
X74460064Y-53141353D01*
X74452916Y-53353024D01*
X74408118Y-53593889D01*
X74320370Y-53878095D01*
X74184374Y-54219792D01*
X73994828Y-54633129D01*
X73746432Y-55132255D01*
X73433887Y-55731320D01*
X73051893Y-56444472D01*
X72595149Y-57285861D01*
X72389875Y-57662333D01*
X71889433Y-58575654D01*
X71464860Y-59342031D01*
X71114169Y-59964896D01*
X70835375Y-60447679D01*
X70626491Y-60793811D01*
X70485532Y-61006724D01*
X70410510Y-61089846D01*
X70404702Y-61091333D01*
X70302632Y-61044897D01*
X70218321Y-60985500D01*
X70159617Y-60926776D01*
X70045191Y-60797798D01*
X69869688Y-60592068D01*
X69627756Y-60303089D01*
X69314039Y-59924366D01*
X68923184Y-59449401D01*
X68449837Y-58871698D01*
X67888642Y-58184761D01*
X67234247Y-57382092D01*
X66481298Y-56457196D01*
X66097217Y-55985031D01*
X65559397Y-55323729D01*
X68550933Y-51351166D01*
X69093248Y-50633313D01*
X69605869Y-49959226D01*
X70079735Y-49340524D01*
X70505783Y-48788827D01*
X70874950Y-48315755D01*
X71178174Y-47932927D01*
X71406392Y-47651964D01*
X71550541Y-47484484D01*
X71600992Y-47440468D01*
X71670939Y-47546960D01*
G36*
X76927571Y-49551312D02*
X76987520Y-49684990D01*
X77066955Y-49967684D01*
X77162425Y-50380637D01*
X77270481Y-50905091D01*
X77387673Y-51522290D01*
X77510551Y-52213476D01*
X77635665Y-52959894D01*
X77759564Y-53742784D01*
X77878799Y-54543392D01*
X77982050Y-55284233D01*
X78056793Y-55869585D01*
X78124482Y-56455262D01*
X78183079Y-57017330D01*
X78230547Y-57531857D01*
X78264847Y-57974911D01*
X78283942Y-58322560D01*
X78285794Y-58550871D01*
X78268364Y-58635912D01*
X78267454Y-58636000D01*
X78204490Y-58570945D01*
X78098004Y-58411215D01*
X78079177Y-58379814D01*
X77991598Y-58210186D01*
X77854579Y-57918437D01*
X77677994Y-57527751D01*
X77471715Y-57061311D01*
X77245615Y-56542301D01*
X77009569Y-55993905D01*
X76773449Y-55439308D01*
X76547130Y-54901692D01*
X76340483Y-54404242D01*
X76163383Y-53970141D01*
X76025703Y-53622574D01*
X75937317Y-53384724D01*
X75908000Y-53281629D01*
X75928659Y-53105381D01*
X75985714Y-52815516D01*
X76071781Y-52439047D01*
X76179478Y-52002987D01*
X76301422Y-51534348D01*
X76430230Y-51060143D01*
X76558518Y-50607384D01*
X76678903Y-50203085D01*
X76784002Y-49874256D01*
X76866433Y-49647912D01*
X76918811Y-49551065D01*
X76927571Y-49551312D01*
X76927571Y-49551312D01*
G37*
X76927571Y-49551312D02*
X76987520Y-49684990D01*
X77066955Y-49967684D01*
X77162425Y-50380637D01*
X77270481Y-50905091D01*
X77387673Y-51522290D01*
X77510551Y-52213476D01*
X77635665Y-52959894D01*
X77759564Y-53742784D01*
X77878799Y-54543392D01*
X77982050Y-55284233D01*
X78056793Y-55869585D01*
X78124482Y-56455262D01*
X78183079Y-57017330D01*
X78230547Y-57531857D01*
X78264847Y-57974911D01*
X78283942Y-58322560D01*
X78285794Y-58550871D01*
X78268364Y-58635912D01*
X78267454Y-58636000D01*
X78204490Y-58570945D01*
X78098004Y-58411215D01*
X78079177Y-58379814D01*
X77991598Y-58210186D01*
X77854579Y-57918437D01*
X77677994Y-57527751D01*
X77471715Y-57061311D01*
X77245615Y-56542301D01*
X77009569Y-55993905D01*
X76773449Y-55439308D01*
X76547130Y-54901692D01*
X76340483Y-54404242D01*
X76163383Y-53970141D01*
X76025703Y-53622574D01*
X75937317Y-53384724D01*
X75908000Y-53281629D01*
X75928659Y-53105381D01*
X75985714Y-52815516D01*
X76071781Y-52439047D01*
X76179478Y-52002987D01*
X76301422Y-51534348D01*
X76430230Y-51060143D01*
X76558518Y-50607384D01*
X76678903Y-50203085D01*
X76784002Y-49874256D01*
X76866433Y-49647912D01*
X76918811Y-49551065D01*
X76927571Y-49551312D01*
G36*
X32176130Y-43847976D02*
X32533890Y-43923473D01*
X32646451Y-43953984D01*
X33251318Y-44208594D01*
X33778707Y-44603199D01*
X34221242Y-45123654D01*
X34571548Y-45755812D01*
X34822246Y-46485528D01*
X34965961Y-47298655D01*
X34995317Y-48181047D01*
X34982381Y-48433667D01*
X34938216Y-48882841D01*
X34866828Y-49232140D01*
X34751724Y-49550679D01*
X34678020Y-49709040D01*
X34493661Y-50016572D01*
X34211199Y-50402815D01*
X33854666Y-50842010D01*
X33448093Y-51308397D01*
X33015511Y-51776218D01*
X32580951Y-52219714D01*
X32168444Y-52613127D01*
X31802021Y-52930697D01*
X31505713Y-53146665D01*
X31431221Y-53189285D01*
X31225147Y-53252508D01*
X30899257Y-53305299D01*
X30502924Y-53344196D01*
X30085523Y-53365735D01*
X29696426Y-53366453D01*
X29385008Y-53342888D01*
X29341333Y-53335858D01*
X28495482Y-53122019D01*
X27705018Y-52788941D01*
X26947477Y-52323566D01*
X26200393Y-51712836D01*
X25694858Y-51216187D01*
X24976623Y-50367089D01*
X24395047Y-49469130D01*
X23993258Y-48608473D01*
X27700258Y-48608473D01*
X27776870Y-49202815D01*
X28005732Y-49770410D01*
X28393294Y-50331268D01*
X28609850Y-50574826D01*
X29154096Y-51104846D01*
X29658761Y-51492091D01*
X30150081Y-51749805D01*
X30654293Y-51891233D01*
X31197632Y-51929618D01*
X31288667Y-51927133D01*
X31795066Y-51877033D01*
X32196238Y-51763952D01*
X32313121Y-51711776D01*
X32618499Y-51528443D01*
X32924220Y-51293647D01*
X33019917Y-51205101D01*
X33411102Y-50702304D01*
X33663858Y-50128154D01*
X33779558Y-49506843D01*
X33759575Y-48862566D01*
X33605282Y-48219516D01*
X33318051Y-47601886D01*
X32899257Y-47033870D01*
X32775855Y-46904145D01*
X32238044Y-46466626D01*
X31637276Y-46150361D01*
X30999830Y-45957069D01*
X30351984Y-45888469D01*
X29720016Y-45946280D01*
X29130206Y-46132221D01*
X28608832Y-46448010D01*
X28417311Y-46619048D01*
X28167179Y-46909039D01*
X27986245Y-47227788D01*
X27849206Y-47627960D01*
X27769446Y-47967373D01*
X27700258Y-48608473D01*
X23993258Y-48608473D01*
X23963143Y-48543966D01*
X23806329Y-48074296D01*
X23749489Y-47880823D01*
X23724128Y-47741243D01*
X23751659Y-47637127D01*
X23853494Y-47550049D01*
X24051046Y-47461583D01*
X24365728Y-47353302D01*
X24811667Y-47209140D01*
X26147462Y-46727645D01*
X27403373Y-46169510D01*
X28633193Y-45508653D01*
X29737662Y-44820693D01*
X30317293Y-44447589D01*
X30790710Y-44169882D01*
X31185609Y-43979318D01*
X31529683Y-43867647D01*
X31850625Y-43826617D01*
X32176130Y-43847976D01*
X32176130Y-43847976D01*
G37*
X32176130Y-43847976D02*
X32533890Y-43923473D01*
X32646451Y-43953984D01*
X33251318Y-44208594D01*
X33778707Y-44603199D01*
X34221242Y-45123654D01*
X34571548Y-45755812D01*
X34822246Y-46485528D01*
X34965961Y-47298655D01*
X34995317Y-48181047D01*
X34982381Y-48433667D01*
X34938216Y-48882841D01*
X34866828Y-49232140D01*
X34751724Y-49550679D01*
X34678020Y-49709040D01*
X34493661Y-50016572D01*
X34211199Y-50402815D01*
X33854666Y-50842010D01*
X33448093Y-51308397D01*
X33015511Y-51776218D01*
X32580951Y-52219714D01*
X32168444Y-52613127D01*
X31802021Y-52930697D01*
X31505713Y-53146665D01*
X31431221Y-53189285D01*
X31225147Y-53252508D01*
X30899257Y-53305299D01*
X30502924Y-53344196D01*
X30085523Y-53365735D01*
X29696426Y-53366453D01*
X29385008Y-53342888D01*
X29341333Y-53335858D01*
X28495482Y-53122019D01*
X27705018Y-52788941D01*
X26947477Y-52323566D01*
X26200393Y-51712836D01*
X25694858Y-51216187D01*
X24976623Y-50367089D01*
X24395047Y-49469130D01*
X23993258Y-48608473D01*
X27700258Y-48608473D01*
X27776870Y-49202815D01*
X28005732Y-49770410D01*
X28393294Y-50331268D01*
X28609850Y-50574826D01*
X29154096Y-51104846D01*
X29658761Y-51492091D01*
X30150081Y-51749805D01*
X30654293Y-51891233D01*
X31197632Y-51929618D01*
X31288667Y-51927133D01*
X31795066Y-51877033D01*
X32196238Y-51763952D01*
X32313121Y-51711776D01*
X32618499Y-51528443D01*
X32924220Y-51293647D01*
X33019917Y-51205101D01*
X33411102Y-50702304D01*
X33663858Y-50128154D01*
X33779558Y-49506843D01*
X33759575Y-48862566D01*
X33605282Y-48219516D01*
X33318051Y-47601886D01*
X32899257Y-47033870D01*
X32775855Y-46904145D01*
X32238044Y-46466626D01*
X31637276Y-46150361D01*
X30999830Y-45957069D01*
X30351984Y-45888469D01*
X29720016Y-45946280D01*
X29130206Y-46132221D01*
X28608832Y-46448010D01*
X28417311Y-46619048D01*
X28167179Y-46909039D01*
X27986245Y-47227788D01*
X27849206Y-47627960D01*
X27769446Y-47967373D01*
X27700258Y-48608473D01*
X23993258Y-48608473D01*
X23963143Y-48543966D01*
X23806329Y-48074296D01*
X23749489Y-47880823D01*
X23724128Y-47741243D01*
X23751659Y-47637127D01*
X23853494Y-47550049D01*
X24051046Y-47461583D01*
X24365728Y-47353302D01*
X24811667Y-47209140D01*
X26147462Y-46727645D01*
X27403373Y-46169510D01*
X28633193Y-45508653D01*
X29737662Y-44820693D01*
X30317293Y-44447589D01*
X30790710Y-44169882D01*
X31185609Y-43979318D01*
X31529683Y-43867647D01*
X31850625Y-43826617D01*
X32176130Y-43847976D01*
G36*
X74682062Y-41102853D02*
X74759470Y-41318093D01*
X74869322Y-41647159D01*
X75004072Y-42065702D01*
X75156172Y-42549372D01*
X75318075Y-43073822D01*
X75482235Y-43614703D01*
X75641105Y-44147665D01*
X75787138Y-44648359D01*
X75912786Y-45092437D01*
X75969738Y-45301000D01*
X76052085Y-45625674D01*
X76106993Y-45905075D01*
X76138257Y-46184985D01*
X76149672Y-46511188D01*
X76145030Y-46929468D01*
X76134613Y-47290667D01*
X76104972Y-47921383D01*
X76056852Y-48441525D01*
X75983053Y-48909477D01*
X75876675Y-49382441D01*
X75745229Y-49879883D01*
X75607543Y-50361421D01*
X75472446Y-50800096D01*
X75348766Y-51168946D01*
X75245329Y-51441012D01*
X75170965Y-51589332D01*
X75147728Y-51608667D01*
X75088420Y-51539429D01*
X74955175Y-51345277D01*
X74761085Y-51046552D01*
X74519247Y-50663595D01*
X74242753Y-50216748D01*
X74079446Y-49949129D01*
X73624499Y-49198642D01*
X73250449Y-48578069D01*
X72949287Y-48073209D01*
X72713000Y-47669863D01*
X72533578Y-47353829D01*
X72403010Y-47110906D01*
X72313286Y-46926894D01*
X72256395Y-46787593D01*
X72224327Y-46678800D01*
X72218338Y-46649933D01*
X72213381Y-46462406D01*
X72266846Y-46211667D01*
X72387366Y-45865127D01*
X72500004Y-45586785D01*
X72646411Y-45246018D01*
X72833660Y-44823963D01*
X73051260Y-44342933D01*
X73288719Y-43825240D01*
X73535546Y-43293196D01*
X73781249Y-42769113D01*
X74015336Y-42275303D01*
X74227317Y-41834079D01*
X74406700Y-41467752D01*
X74542994Y-41198634D01*
X74625706Y-41049039D01*
X74644645Y-41025788D01*
X74682062Y-41102853D01*
X74682062Y-41102853D01*
G37*
X74682062Y-41102853D02*
X74759470Y-41318093D01*
X74869322Y-41647159D01*
X75004072Y-42065702D01*
X75156172Y-42549372D01*
X75318075Y-43073822D01*
X75482235Y-43614703D01*
X75641105Y-44147665D01*
X75787138Y-44648359D01*
X75912786Y-45092437D01*
X75969738Y-45301000D01*
X76052085Y-45625674D01*
X76106993Y-45905075D01*
X76138257Y-46184985D01*
X76149672Y-46511188D01*
X76145030Y-46929468D01*
X76134613Y-47290667D01*
X76104972Y-47921383D01*
X76056852Y-48441525D01*
X75983053Y-48909477D01*
X75876675Y-49382441D01*
X75745229Y-49879883D01*
X75607543Y-50361421D01*
X75472446Y-50800096D01*
X75348766Y-51168946D01*
X75245329Y-51441012D01*
X75170965Y-51589332D01*
X75147728Y-51608667D01*
X75088420Y-51539429D01*
X74955175Y-51345277D01*
X74761085Y-51046552D01*
X74519247Y-50663595D01*
X74242753Y-50216748D01*
X74079446Y-49949129D01*
X73624499Y-49198642D01*
X73250449Y-48578069D01*
X72949287Y-48073209D01*
X72713000Y-47669863D01*
X72533578Y-47353829D01*
X72403010Y-47110906D01*
X72313286Y-46926894D01*
X72256395Y-46787593D01*
X72224327Y-46678800D01*
X72218338Y-46649933D01*
X72213381Y-46462406D01*
X72266846Y-46211667D01*
X72387366Y-45865127D01*
X72500004Y-45586785D01*
X72646411Y-45246018D01*
X72833660Y-44823963D01*
X73051260Y-44342933D01*
X73288719Y-43825240D01*
X73535546Y-43293196D01*
X73781249Y-42769113D01*
X74015336Y-42275303D01*
X74227317Y-41834079D01*
X74406700Y-41467752D01*
X74542994Y-41198634D01*
X74625706Y-41049039D01*
X74644645Y-41025788D01*
X74682062Y-41102853D01*
G36*
X40124551Y-31950262D02*
X40464702Y-32072567D01*
X40918504Y-32276262D01*
X41152840Y-32389582D01*
X41560773Y-32599240D01*
X41895322Y-32799078D01*
X42205161Y-33023953D01*
X42538964Y-33308724D01*
X42882471Y-33628260D01*
X43602140Y-34355031D01*
X44176718Y-35036443D01*
X44616717Y-35693933D01*
X44932647Y-36348937D01*
X45135021Y-37022893D01*
X45234350Y-37737237D01*
X45243917Y-38444162D01*
X45219213Y-38856023D01*
X45166861Y-39197370D01*
X45070383Y-39497612D01*
X44913301Y-39786158D01*
X44679136Y-40092417D01*
X44351412Y-40445797D01*
X43913648Y-40875707D01*
X43844288Y-40942104D01*
X43270832Y-41487417D01*
X42796637Y-41926498D01*
X42399555Y-42271154D01*
X42057437Y-42533192D01*
X41748133Y-42724418D01*
X41449493Y-42856639D01*
X41139369Y-42941662D01*
X40795611Y-42991294D01*
X40396070Y-43017340D01*
X39924667Y-43031466D01*
X39402407Y-43041118D01*
X39014371Y-43039961D01*
X38725645Y-43025306D01*
X38501315Y-42994465D01*
X38306466Y-42944752D01*
X38165592Y-42896047D01*
X37695757Y-42694436D01*
X37280916Y-42449376D01*
X36863401Y-42123529D01*
X36589639Y-41875611D01*
X36155625Y-41392247D01*
X35857891Y-40894467D01*
X35708146Y-40404154D01*
X35692160Y-40198151D01*
X35714651Y-39941084D01*
X35789070Y-39648105D01*
X35924153Y-39300018D01*
X36128637Y-38877626D01*
X36411256Y-38361733D01*
X36428327Y-38332691D01*
X37792343Y-38332691D01*
X37894316Y-39011054D01*
X37971975Y-39273564D01*
X38280327Y-39995801D01*
X38687832Y-40630988D01*
X39175817Y-41158594D01*
X39725611Y-41558093D01*
X40263333Y-41792826D01*
X40614850Y-41854463D01*
X41062239Y-41869572D01*
X41539503Y-41841341D01*
X41980641Y-41772955D01*
X42248863Y-41696943D01*
X42729376Y-41439556D01*
X43173876Y-41058517D01*
X43533975Y-40599053D01*
X43652611Y-40384939D01*
X43741822Y-40179323D01*
X43793888Y-39982869D01*
X43814920Y-39745599D01*
X43811025Y-39417536D01*
X43800295Y-39176756D01*
X43743040Y-38582578D01*
X43622994Y-38100774D01*
X43417384Y-37679179D01*
X43103437Y-37265630D01*
X42846939Y-36992952D01*
X42261392Y-36493956D01*
X41639027Y-36128930D01*
X40999290Y-35901790D01*
X40361624Y-35816450D01*
X39745473Y-35876824D01*
X39170283Y-36086828D01*
X38960615Y-36210558D01*
X38434588Y-36644754D01*
X38063712Y-37145721D01*
X37849219Y-37709640D01*
X37792343Y-38332691D01*
X36428327Y-38332691D01*
X36780747Y-37733143D01*
X36914739Y-37511667D01*
X37401081Y-36692155D01*
X37810965Y-35951778D01*
X38171530Y-35235728D01*
X38509917Y-34489197D01*
X38853267Y-33657375D01*
X38969098Y-33363000D01*
X39141458Y-32933951D01*
X39304382Y-32552191D01*
X39443293Y-32250201D01*
X39543613Y-32060464D01*
X39571059Y-32021697D01*
X39699224Y-31929826D01*
X39876556Y-31904348D01*
X40124551Y-31950262D01*
X40124551Y-31950262D01*
G37*
X40124551Y-31950262D02*
X40464702Y-32072567D01*
X40918504Y-32276262D01*
X41152840Y-32389582D01*
X41560773Y-32599240D01*
X41895322Y-32799078D01*
X42205161Y-33023953D01*
X42538964Y-33308724D01*
X42882471Y-33628260D01*
X43602140Y-34355031D01*
X44176718Y-35036443D01*
X44616717Y-35693933D01*
X44932647Y-36348937D01*
X45135021Y-37022893D01*
X45234350Y-37737237D01*
X45243917Y-38444162D01*
X45219213Y-38856023D01*
X45166861Y-39197370D01*
X45070383Y-39497612D01*
X44913301Y-39786158D01*
X44679136Y-40092417D01*
X44351412Y-40445797D01*
X43913648Y-40875707D01*
X43844288Y-40942104D01*
X43270832Y-41487417D01*
X42796637Y-41926498D01*
X42399555Y-42271154D01*
X42057437Y-42533192D01*
X41748133Y-42724418D01*
X41449493Y-42856639D01*
X41139369Y-42941662D01*
X40795611Y-42991294D01*
X40396070Y-43017340D01*
X39924667Y-43031466D01*
X39402407Y-43041118D01*
X39014371Y-43039961D01*
X38725645Y-43025306D01*
X38501315Y-42994465D01*
X38306466Y-42944752D01*
X38165592Y-42896047D01*
X37695757Y-42694436D01*
X37280916Y-42449376D01*
X36863401Y-42123529D01*
X36589639Y-41875611D01*
X36155625Y-41392247D01*
X35857891Y-40894467D01*
X35708146Y-40404154D01*
X35692160Y-40198151D01*
X35714651Y-39941084D01*
X35789070Y-39648105D01*
X35924153Y-39300018D01*
X36128637Y-38877626D01*
X36411256Y-38361733D01*
X36428327Y-38332691D01*
X37792343Y-38332691D01*
X37894316Y-39011054D01*
X37971975Y-39273564D01*
X38280327Y-39995801D01*
X38687832Y-40630988D01*
X39175817Y-41158594D01*
X39725611Y-41558093D01*
X40263333Y-41792826D01*
X40614850Y-41854463D01*
X41062239Y-41869572D01*
X41539503Y-41841341D01*
X41980641Y-41772955D01*
X42248863Y-41696943D01*
X42729376Y-41439556D01*
X43173876Y-41058517D01*
X43533975Y-40599053D01*
X43652611Y-40384939D01*
X43741822Y-40179323D01*
X43793888Y-39982869D01*
X43814920Y-39745599D01*
X43811025Y-39417536D01*
X43800295Y-39176756D01*
X43743040Y-38582578D01*
X43622994Y-38100774D01*
X43417384Y-37679179D01*
X43103437Y-37265630D01*
X42846939Y-36992952D01*
X42261392Y-36493956D01*
X41639027Y-36128930D01*
X40999290Y-35901790D01*
X40361624Y-35816450D01*
X39745473Y-35876824D01*
X39170283Y-36086828D01*
X38960615Y-36210558D01*
X38434588Y-36644754D01*
X38063712Y-37145721D01*
X37849219Y-37709640D01*
X37792343Y-38332691D01*
X36428327Y-38332691D01*
X36780747Y-37733143D01*
X36914739Y-37511667D01*
X37401081Y-36692155D01*
X37810965Y-35951778D01*
X38171530Y-35235728D01*
X38509917Y-34489197D01*
X38853267Y-33657375D01*
X38969098Y-33363000D01*
X39141458Y-32933951D01*
X39304382Y-32552191D01*
X39443293Y-32250201D01*
X39543613Y-32060464D01*
X39571059Y-32021697D01*
X39699224Y-31929826D01*
X39876556Y-31904348D01*
X40124551Y-31950262D01*
D12*
X26600000Y-12550000D03*
X23400000Y-12550000D03*
X26600000Y-17450000D03*
X23400000Y-17450000D03*
D10*
G36*
X15687005Y-57282842D02*
X14979899Y-56575736D01*
X16040559Y-55515076D01*
X16747665Y-56222182D01*
X15687005Y-57282842D01*
X15687005Y-57282842D01*
G37*
G36*
X13424264Y-55020101D02*
X12717158Y-54312995D01*
X13777818Y-53252335D01*
X14484924Y-53959441D01*
X13424264Y-55020101D01*
X13424264Y-55020101D01*
G37*
G36*
X12222182Y-60747665D02*
X11515076Y-60040559D01*
X12575736Y-58979899D01*
X13282842Y-59687005D01*
X12222182Y-60747665D01*
X12222182Y-60747665D01*
G37*
G36*
X9959441Y-58484924D02*
X9252335Y-57777818D01*
X10312995Y-56717158D01*
X11020101Y-57424264D01*
X9959441Y-58484924D01*
X9959441Y-58484924D01*
G37*
D12*
X10600000Y-26550000D03*
X7400000Y-26550000D03*
X10600000Y-31450000D03*
X7400000Y-31450000D03*
D10*
G36*
X48687005Y-79282842D02*
X47979899Y-78575736D01*
X49040559Y-77515076D01*
X49747665Y-78222182D01*
X48687005Y-79282842D01*
X48687005Y-79282842D01*
G37*
G36*
X46424264Y-77020101D02*
X45717158Y-76312995D01*
X46777818Y-75252335D01*
X47484924Y-75959441D01*
X46424264Y-77020101D01*
X46424264Y-77020101D01*
G37*
G36*
X45222182Y-82747665D02*
X44515076Y-82040559D01*
X45575736Y-80979899D01*
X46282842Y-81687005D01*
X45222182Y-82747665D01*
X45222182Y-82747665D01*
G37*
G36*
X42959441Y-80484924D02*
X42252335Y-79777818D01*
X43312995Y-78717158D01*
X44020101Y-79424264D01*
X42959441Y-80484924D01*
X42959441Y-80484924D01*
G37*
G36*
X57687005Y-72282842D02*
X56979899Y-71575736D01*
X58040559Y-70515076D01*
X58747665Y-71222182D01*
X57687005Y-72282842D01*
X57687005Y-72282842D01*
G37*
G36*
X55424264Y-70020101D02*
X54717158Y-69312995D01*
X55777818Y-68252335D01*
X56484924Y-68959441D01*
X55424264Y-70020101D01*
X55424264Y-70020101D01*
G37*
G36*
X54222182Y-75747665D02*
X53515076Y-75040559D01*
X54575736Y-73979899D01*
X55282842Y-74687005D01*
X54222182Y-75747665D01*
X54222182Y-75747665D01*
G37*
G36*
X51959441Y-73484924D02*
X51252335Y-72777818D01*
X52312995Y-71717158D01*
X53020101Y-72424264D01*
X51959441Y-73484924D01*
X51959441Y-73484924D01*
G37*
G36*
X66687005Y-63282842D02*
X65979899Y-62575736D01*
X67040559Y-61515076D01*
X67747665Y-62222182D01*
X66687005Y-63282842D01*
X66687005Y-63282842D01*
G37*
G36*
X64424264Y-61020101D02*
X63717158Y-60312995D01*
X64777818Y-59252335D01*
X65484924Y-59959441D01*
X64424264Y-61020101D01*
X64424264Y-61020101D01*
G37*
G36*
X63222182Y-66747665D02*
X62515076Y-66040559D01*
X63575736Y-64979899D01*
X64282842Y-65687005D01*
X63222182Y-66747665D01*
X63222182Y-66747665D01*
G37*
G36*
X60959441Y-64484924D02*
X60252335Y-63777818D01*
X61312995Y-62717158D01*
X62020101Y-63424264D01*
X60959441Y-64484924D01*
X60959441Y-64484924D01*
G37*
G36*
X73687005Y-54282842D02*
X72979899Y-53575736D01*
X74040559Y-52515076D01*
X74747665Y-53222182D01*
X73687005Y-54282842D01*
X73687005Y-54282842D01*
G37*
G36*
X71424264Y-52020101D02*
X70717158Y-51312995D01*
X71777818Y-50252335D01*
X72484924Y-50959441D01*
X71424264Y-52020101D01*
X71424264Y-52020101D01*
G37*
G36*
X70222182Y-57747665D02*
X69515076Y-57040559D01*
X70575736Y-55979899D01*
X71282842Y-56687005D01*
X70222182Y-57747665D01*
X70222182Y-57747665D01*
G37*
G36*
X67959441Y-55484924D02*
X67252335Y-54777818D01*
X68312995Y-53717158D01*
X69020101Y-54424264D01*
X67959441Y-55484924D01*
X67959441Y-55484924D01*
G37*
M02*
