G04 #@! TF.FileFunction,Legend,Bot*
%FSLAX46Y46*%
G04 Gerber Fmt 4.6, Leading zero omitted, Abs format (unit mm)*
G04 Created by KiCad (PCBNEW 4.0.7) date 06/04/18 21:42:21*
%MOMM*%
%LPD*%
G01*
G04 APERTURE LIST*
%ADD10C,0.100000*%
%ADD11C,0.120000*%
%ADD12C,0.150000*%
G04 APERTURE END LIST*
D10*
D11*
X63270000Y-68730000D02*
X63270000Y-71270000D01*
X63270000Y-71270000D02*
X60600000Y-71270000D01*
X60600000Y-68730000D02*
X60600000Y-30500000D01*
X60600000Y-73940000D02*
X60600000Y-71270000D01*
X75970000Y-71270000D02*
X78640000Y-71270000D01*
X75970000Y-71270000D02*
X75970000Y-33170000D01*
X75970000Y-33170000D02*
X78640000Y-33170000D01*
X63270000Y-68730000D02*
X60600000Y-68730000D01*
X63270000Y-68730000D02*
X63270000Y-33170000D01*
X63270000Y-33170000D02*
X60600000Y-33170000D01*
X60600000Y-30500000D02*
X78640000Y-30500000D01*
X78640000Y-30500000D02*
X78640000Y-73940000D01*
X78640000Y-73940000D02*
X60600000Y-73940000D01*
X148500000Y-48350000D02*
X148500000Y-86050000D01*
X95300000Y-48350000D02*
X148500000Y-48350000D01*
X95300000Y-86050000D02*
X95300000Y-48350000D01*
X148500000Y-86050000D02*
X95300000Y-86050000D01*
X123400000Y-61966000D02*
X146260000Y-61966000D01*
X123400000Y-62474000D02*
X123400000Y-61966000D01*
X146260000Y-62474000D02*
X123400000Y-62474000D01*
X119590000Y-61966000D02*
X96730000Y-61966000D01*
X119590000Y-62474000D02*
X119590000Y-61966000D01*
X96730000Y-62474000D02*
X119590000Y-62474000D01*
X130766000Y-59045000D02*
X130766000Y-57775000D01*
X112986000Y-59045000D02*
X130766000Y-59045000D01*
X112986000Y-57775000D02*
X112986000Y-59045000D01*
X111716000Y-57775000D02*
X112986000Y-57775000D01*
X111716000Y-55235000D02*
X111716000Y-57775000D01*
X112986000Y-55235000D02*
X111716000Y-55235000D01*
X112986000Y-53965000D02*
X112986000Y-55235000D01*
X130766000Y-53965000D02*
X112986000Y-53965000D01*
X130766000Y-57775000D02*
X130766000Y-53965000D01*
X130766000Y-57775000D02*
X130766000Y-53965000D01*
X130766000Y-53965000D02*
X112986000Y-53965000D01*
X112986000Y-53965000D02*
X112986000Y-55235000D01*
X112986000Y-55235000D02*
X111716000Y-55235000D01*
X111716000Y-55235000D02*
X111716000Y-57775000D01*
X111716000Y-57775000D02*
X112986000Y-57775000D01*
X112986000Y-57775000D02*
X112986000Y-59045000D01*
X112986000Y-59045000D02*
X130766000Y-59045000D01*
X130766000Y-59045000D02*
X130766000Y-57775000D01*
X131020000Y-82540000D02*
X131020000Y-81270000D01*
X113240000Y-82540000D02*
X131020000Y-82540000D01*
X113240000Y-81270000D02*
X113240000Y-82540000D01*
X111970000Y-81270000D02*
X113240000Y-81270000D01*
X111970000Y-78730000D02*
X111970000Y-81270000D01*
X113240000Y-78730000D02*
X111970000Y-78730000D01*
X113240000Y-77460000D02*
X113240000Y-78730000D01*
X131020000Y-77460000D02*
X113240000Y-77460000D01*
X131020000Y-81270000D02*
X131020000Y-77460000D01*
X96730000Y-62220000D02*
X96730000Y-49329500D01*
X146260000Y-62220000D02*
X146260000Y-49320000D01*
X111970000Y-64760000D02*
X111970000Y-69840000D01*
X111970000Y-69840000D02*
X129750000Y-69840000D01*
X129750000Y-69840000D02*
X129750000Y-68570000D01*
X129750000Y-68570000D02*
X131020000Y-68570000D01*
X131020000Y-68570000D02*
X131020000Y-66030000D01*
X131020000Y-66030000D02*
X129750000Y-66030000D01*
X129750000Y-66030000D02*
X129750000Y-64760000D01*
X129750000Y-64760000D02*
X111970000Y-64760000D01*
X131020000Y-81270000D02*
X131020000Y-77460000D01*
X131020000Y-77460000D02*
X113240000Y-77460000D01*
X113240000Y-77460000D02*
X113240000Y-78730000D01*
X113240000Y-78730000D02*
X111970000Y-78730000D01*
X111970000Y-78730000D02*
X111970000Y-81270000D01*
X111970000Y-81270000D02*
X113240000Y-81270000D01*
X113240000Y-81270000D02*
X113240000Y-82540000D01*
X113240000Y-82540000D02*
X131020000Y-82540000D01*
X131020000Y-82540000D02*
X131020000Y-81270000D01*
X96730000Y-73904000D02*
X119590000Y-73904000D01*
X119590000Y-73904000D02*
X119590000Y-73396000D01*
X119590000Y-73396000D02*
X96730000Y-73396000D01*
X146260000Y-73904000D02*
X123400000Y-73904000D01*
X123400000Y-73904000D02*
X123400000Y-73396000D01*
X123400000Y-73396000D02*
X146260000Y-73396000D01*
X111970000Y-50590000D02*
X111970000Y-49320000D01*
X111970000Y-49320000D02*
X131020000Y-49320000D01*
X131020000Y-49320000D02*
X131020000Y-50590000D01*
X143720000Y-83810000D02*
X131020000Y-83810000D01*
X131020000Y-83810000D02*
X131020000Y-85080000D01*
X131020000Y-85080000D02*
X111970000Y-85080000D01*
X111970000Y-85080000D02*
X111970000Y-83810000D01*
X143720000Y-50590000D02*
X131020000Y-50590000D01*
X99270000Y-83810000D02*
X111970000Y-83810000D01*
X99270000Y-83810000D02*
X99270000Y-85080000D01*
X99270000Y-85080000D02*
X96730000Y-85080000D01*
X96730000Y-85080000D02*
X96730000Y-62220000D01*
X96730000Y-49329500D02*
X99270000Y-49329500D01*
X99270000Y-49329500D02*
X99270000Y-50590000D01*
X99270000Y-50590000D02*
X111970000Y-50590000D01*
X146260000Y-85080000D02*
X143720000Y-85080000D01*
X143720000Y-85080000D02*
X143720000Y-83810000D01*
X146260000Y-85080000D02*
X146260000Y-62220000D01*
X146260000Y-49320000D02*
X143720000Y-49320000D01*
X143720000Y-49320000D02*
X143720000Y-50590000D01*
X66670000Y-33110000D02*
X71870000Y-33110000D01*
X66670000Y-68730000D02*
X66670000Y-33110000D01*
X71870000Y-71330000D02*
X71870000Y-33110000D01*
X66670000Y-68730000D02*
X69270000Y-68730000D01*
X69270000Y-68730000D02*
X69270000Y-71330000D01*
X69270000Y-71330000D02*
X71870000Y-71330000D01*
X66670000Y-70000000D02*
X66670000Y-71330000D01*
X66670000Y-71330000D02*
X68000000Y-71330000D01*
D12*
X70334286Y-75246667D02*
X69858095Y-75246667D01*
X70429524Y-75532381D02*
X70096191Y-74532381D01*
X69762857Y-75532381D01*
X68905714Y-75532381D02*
X69477143Y-75532381D01*
X69191429Y-75532381D02*
X69191429Y-74532381D01*
X69286667Y-74675238D01*
X69381905Y-74770476D01*
X69477143Y-74818095D01*
X98785714Y-86928571D02*
X98642857Y-86976190D01*
X98595238Y-87023810D01*
X98547619Y-87119048D01*
X98547619Y-87261905D01*
X98595238Y-87357143D01*
X98642857Y-87404762D01*
X98738095Y-87452381D01*
X99119048Y-87452381D01*
X99119048Y-86452381D01*
X98785714Y-86452381D01*
X98690476Y-86500000D01*
X98642857Y-86547619D01*
X98595238Y-86642857D01*
X98595238Y-86738095D01*
X98642857Y-86833333D01*
X98690476Y-86880952D01*
X98785714Y-86928571D01*
X99119048Y-86928571D01*
X98261905Y-86452381D02*
X97690476Y-86452381D01*
X97976191Y-87452381D02*
X97976191Y-86452381D01*
X96833333Y-87452381D02*
X97404762Y-87452381D01*
X97119048Y-87452381D02*
X97119048Y-86452381D01*
X97214286Y-86595238D01*
X97309524Y-86690476D01*
X97404762Y-86738095D01*
X111271428Y-80107143D02*
X110128571Y-80107143D01*
X110700000Y-80678571D02*
X110700000Y-79535714D01*
X132861428Y-67407143D02*
X131718571Y-67407143D01*
X132290000Y-67978571D02*
X132290000Y-66835714D01*
X111271428Y-56612143D02*
X110128571Y-56612143D01*
X110700000Y-57183571D02*
X110700000Y-56040714D01*
X111271428Y-67407143D02*
X110128571Y-67407143D01*
X132861428Y-56612143D02*
X131718571Y-56612143D01*
X132861428Y-80107143D02*
X131718571Y-80107143D01*
X94761428Y-67407143D02*
X93618571Y-67407143D01*
X94761428Y-80107143D02*
X93618571Y-80107143D01*
X94190000Y-80678571D02*
X94190000Y-79535714D01*
X69603333Y-71782381D02*
X69603333Y-72496667D01*
X69650953Y-72639524D01*
X69746191Y-72734762D01*
X69889048Y-72782381D01*
X69984286Y-72782381D01*
X68603333Y-72782381D02*
X69174762Y-72782381D01*
X68889048Y-72782381D02*
X68889048Y-71782381D01*
X68984286Y-71925238D01*
X69079524Y-72020476D01*
X69174762Y-72068095D01*
M02*
