  0
SECTION
  2
HEADER
  9
$ACADVER
  1
AC1009
  9
$INSBASE
 10
0.0
 20
0.0
 30
0.0
  9
$EXTMIN
 10
0.0
 20
0.0
 30
0.0
  9
$EXTMAX
 10
0.0
 20
0.0
 30
0.0
  0
ENDSEC
  0
SECTION
  2
TABLES
  0
TABLE
  2
VPORT
 70
0
  0
ENDTAB
  0
TABLE
  2
LTYPE
 70
1
  0
LTYPE
  2
CONTINUOUS
 70
0
  3
Solid line
 72
65
 73
0
 40
0.0
  0
ENDTAB
  0
TABLE
  2
LAYER
 70
1
  0
LAYER
  2
0
 70
64
 62
7
  6
continuous
  0
ENDTAB
  0
TABLE
  2
STYLE
 70
1
  0
STYLE
  2
STANDARD
 70
0
 40
0
 41
1.0
 50
0.0
 71
0
 42
1
 3
ARIAL.TTF
 4

  0
ENDTAB
  0
TABLE
  2
VIEW
 70
0
  0
ENDTAB
  0
ENDSEC
  0
SECTION
  2
BLOCKS
  0
ENDSEC
  0
SECTION
  2
ENTITIES
  0
POLYLINE
  8
0
 62
0
 70
1
 66
1
 10
0.0
 20
0.0
 30
0.0
  0
VERTEX
  8
0
 10
28.8940448026
 20
-64.2098762744
 30
0.0
  0
VERTEX
  8
0
 10
27.4388364876
 20
-63.8803165702
 30
0.0
  0
VERTEX
  8
0
 10
25.8767002594
 20
-63.4042173887
 30
0.0
  0
VERTEX
  8
0
 10
23.2308669594
 20
-62.4334743801
 30
0.0
  0
VERTEX
  8
0
 10
20.7581081989
 20
-61.5119306417
 30
0.0
  0
VERTEX
  8
0
 10
18.9721707214
 20
-60.9623751903
 30
0.0
  0
VERTEX
  8
0
 10
16.2601915889
 20
-60.2395044286
 30
0.0
  0
VERTEX
  8
0
 10
11.9702339375
 20
-59.1015447554
 30
0.0
  0
VERTEX
  8
0
 10
9.86759904443
 20
-58.0548028311
 30
0.0
  0
VERTEX
  8
0
 10
7.25591868984
 20
-53.8731691338
 30
0.0
  0
VERTEX
  8
0
 10
5.83712533132
 20
-50.6870008174
 30
0.0
  0
VERTEX
  8
0
 10
4.72289155092
 20
-47.2743967956
 30
0.0
  0
VERTEX
  8
0
 10
3.93636891916
 20
-43.7062636369
 30
0.0
  0
VERTEX
  8
0
 10
3.63536913337
 20
-38.7453261994
 30
0.0
  0
VERTEX
  8
0
 10
3.80737105203
 20
-33.841858907
 30
0.0
  0
VERTEX
  8
0
 10
3.98840452267
 20
-32.1795374071
 30
0.0
  0
VERTEX
  8
0
 10
3.51899585983
 20
-30.799150612
 30
0.0
  0
VERTEX
  8
0
 10
2.84359730063
 20
-28.2622783827
 30
0.0
  0
VERTEX
  8
0
 10
2.50210316848
 20
-25.3177224665
 30
0.0
  0
VERTEX
  8
0
 10
2.48434229808
 20
-21.9953219758
 30
0.0
  0
VERTEX
  8
0
 10
2.77676924002
 20
-18.4385558865
 30
0.0
  0
VERTEX
  8
0
 10
3.54541478952
 20
-14.7482425752
 30
0.0
  0
VERTEX
  8
0
 10
4.83092822509
 20
-11.2352547169
 30
0.0
  0
VERTEX
  8
0
 10
6.57693119006
 20
-8.05366018395
 30
0.0
  0
VERTEX
  8
0
 10
8.589062147
 20
-5.66196565471
 30
0.0
  0
VERTEX
  8
0
 10
10.8901411191
 20
-3.70084001379
 30
0.0
  0
VERTEX
  8
0
 10
14.7740003675
 20
-2.50708427378
 30
0.0
  0
VERTEX
  8
0
 10
18.2819177926
 20
-4.08044327359
 30
0.0
  0
VERTEX
  8
0
 10
20.3830150265
 20
-6.83591828497
 30
0.0
  0
VERTEX
  8
0
 10
22.3376415748
 20
-10.7929154765
 30
0.0
  0
VERTEX
  8
0
 10
22.9535267442
 20
-12.0328720234
 30
0.0
  0
VERTEX
  8
0
 10
25.6528998039
 20
-12.0026775092
 30
0.0
  0
VERTEX
  8
0
 10
30.4153989501
 20
-11.6989903505
 30
0.0
  0
VERTEX
  8
0
 10
34.4209448346
 20
-11.8415861802
 30
0.0
  0
VERTEX
  8
0
 10
38.0600738955
 20
-12.4922794364
 30
0.0
  0
VERTEX
  8
0
 10
41.2024695825
 20
-13.3716899992
 30
0.0
  0
VERTEX
  8
0
 10
44.3373107539
 20
-14.599359164
 30
0.0
  0
VERTEX
  8
0
 10
47.3533447498
 20
-16.106789283
 30
0.0
  0
VERTEX
  8
0
 10
49.4169878983
 20
-17.3891535768
 30
0.0
  0
VERTEX
  8
0
 10
51.052964836
 20
-20.1496811045
 30
0.0
  0
VERTEX
  8
0
 10
52.0833297136
 20
-22.5503612474
 30
0.0
  0
VERTEX
  8
0
 10
53.1662844969
 20
-24.7885558065
 30
0.0
  0
VERTEX
  8
0
 10
53.4995483677
 20
-25.648451629
 30
0.0
  0
VERTEX
  8
0
 10
54.902882475
 20
-28.8411678241
 30
0.0
  0
VERTEX
  8
0
 10
56.2122736251
 20
-31.6504607054
 30
0.0
  0
VERTEX
  8
0
 10
56.9347528035
 20
-33.2271815606
 30
0.0
  0
VERTEX
  8
0
 10
57.8548254586
 20
-35.4449719493
 30
0.0
  0
VERTEX
  8
0
 10
58.2789419533
 20
-36.9593887219
 30
0.0
  0
VERTEX
  8
0
 10
58.5047505963
 20
-39.4729303569
 30
0.0
  0
VERTEX
  8
0
 10
58.1018774972
 20
-42.265289905
 30
0.0
  0
VERTEX
  8
0
 10
56.5861274206
 20
-45.0772969213
 30
0.0
  0
VERTEX
  8
0
 10
53.964952895
 20
-48.5150246982
 30
0.0
  0
VERTEX
  8
0
 10
50.391681136
 20
-52.3773816735
 30
0.0
  0
VERTEX
  8
0
 10
46.5750491961
 20
-56.0281255292
 30
0.0
  0
VERTEX
  8
0
 10
43.0221553252
 20
-59.0836754588
 30
0.0
  0
VERTEX
  8
0
 10
39.8778973436
 20
-61.4272187489
 30
0.0
  0
VERTEX
  8
0
 10
37.2871730719
 20
-62.9419426862
 30
0.0
  0
VERTEX
  8
0
 10
33.2768808933
 20
-64.2762840444
 30
0.0
  0
SEQEND
  8
0
  0
ENDSEC
  0
EOF
