<?xml version="1.0" encoding="UTF-8" standalone="no"?>
<!-- Created with Inkscape (http://www.inkscape.org/) -->

<svg
   xmlns:dc="http://purl.org/dc/elements/1.1/"
   xmlns:cc="http://creativecommons.org/ns#"
   xmlns:rdf="http://www.w3.org/1999/02/22-rdf-syntax-ns#"
   xmlns:svg="http://www.w3.org/2000/svg"
   xmlns="http://www.w3.org/2000/svg"
   xmlns:sodipodi="http://sodipodi.sourceforge.net/DTD/sodipodi-0.dtd"
   xmlns:inkscape="http://www.inkscape.org/namespaces/inkscape"
   width="100mm"
   height="100mm"
   viewBox="0 0 100 100"
   version="1.1"
   id="svg8"
   inkscape:version="0.92.3 (2405546, 2018-03-11)"
   sodipodi:docname="Back Copper.svg">
  <defs
     id="defs2" />
  <sodipodi:namedview
     id="base"
     pagecolor="#ffffff"
     bordercolor="#666666"
     borderopacity="1.0"
     inkscape:pageopacity="0.0"
     inkscape:pageshadow="2"
     inkscape:zoom="2"
     inkscape:cx="102.45584"
     inkscape:cy="165.31372"
     inkscape:document-units="mm"
     inkscape:current-layer="layer1"
     showgrid="false"
     inkscape:window-width="2560"
     inkscape:window-height="1377"
     inkscape:window-x="-8"
     inkscape:window-y="1072"
     inkscape:window-maximized="1" />
  <metadata
     id="metadata5">
    <rdf:RDF>
      <cc:Work
         rdf:about="">
        <dc:format>image/svg+xml</dc:format>
        <dc:type
           rdf:resource="http://purl.org/dc/dcmitype/StillImage" />
        <dc:title></dc:title>
      </cc:Work>
    </rdf:RDF>
  </metadata>
  <g
     inkscape:label="Layer 1"
     inkscape:groupmode="layer"
     id="layer1"
     transform="translate(0,-197)">
    <path
       style="fill:none;fill-opacity:1;stroke:#000000;stroke-width:0.37795275;stroke-miterlimit:4;stroke-dasharray:none;stroke-opacity:1"
       d="m 109.20584,242.683 c -2.2,-0.35276 -4.675,-0.91327 -5.5,-1.24558 -0.825,-0.3323 -3.48186,-1.14204 -5.904137,-1.79943 -2.422275,-0.65738 -6.922275,-2.30841 -10,-3.66895 -3.077725,-1.36053 -7.28336,-2.92788 -9.34586,-3.483 -2.0625,-0.55511 -5.1,-1.48979 -6.75,-2.07706 -1.65,-0.58727 -6.2625,-1.81672 -10.25,-2.73211 -14.740203,-3.38384 -20.443506,-5.33298 -24.16098,-8.25714 -1.622294,-1.2761 -6.088634,-8.42728 -9.870918,-15.8046 -5.908747,-11.52497 -10.22211,-24.73566 -12.54633,-38.4261 -0.921146,-5.42586 -1.109143,-8.52434 -1.137637,-18.75 -0.02012,-7.22112 0.246751,-14.82921 0.650086,-18.53279 l 0.684221,-6.28279 -1.774143,-5.21721 c -2.27064,-6.67725 -3.255402,-11.98549 -3.843374,-20.717209 -0.4758472,-7.06661 -0.049196,-17.752335 1.038108,-26 1.857331,-14.088643 6.964562,-28.045432 14.362817,-39.25 3.601083,-5.453795 11.244697,-13.167605 16.301896,-16.451604 10.01947,-6.5063559 19.812464,-6.0034385 27.937424,1.434721 4.91931,4.503485 11.14753,14.811574 15.32872,25.369974 0.893665,2.2567 1.941155,4.365602 2.327755,4.68645 1.347015,1.117925 4.87573,1.078453 10.202355,-0.114121 4.785527,-1.071428 6.378017,-1.172976 17.999997,-1.147794 13.54333,0.02934 17.19644,0.408427 28.89326,2.998258 7.73601,1.712855 16.02705,4.495907 23.72499,7.963766 7.60623,3.426545 16.392,8.25175 19.19878,10.544105 2.13317,1.74221 4.61092,5.92312 6.18322,10.43349 1.03965,2.982375 6.68268,15.369205 7.98735,17.532755 0.49749,0.825 1.0643,2.2875 1.25958,3.25 0.19528,0.9625 2.58206,6.392629 5.30394,12.066959 2.72189,5.67433 4.94888,10.45234 4.94888,10.6178 0,0.16546 1.22878,2.84713 2.73063,5.95926 1.50184,3.11213 3.06669,6.88412 3.47744,8.3822 0.41075,1.49808 1.13208,4.07378 1.60296,5.72378 0.61133,2.14218 0.85536,4.85862 0.85345,9.5 -0.002,6.01538 -0.11601,6.80224 -1.52267,10.5538 -3.44666,9.19225 -14.02955,23.07194 -29.1409,38.21893 -19.65456,19.70093 -38.11136,34.58038 -49.52885,39.92905 -5.14886,2.41205 -11.05613,4.37757 -15.15701,5.04318 -4.05785,0.65863 -11.60542,0.54427 -16.56505,-0.25099 z"
       id="path842"
       inkscape:connector-curvature="0"
       transform="matrix(0.26458333,0,0,0.26458333,0,197)" />
  </g>
</svg>
