<?xml version="1.0" encoding="UTF-8" standalone="no"?>
<!-- Created with Inkscape (http://www.inkscape.org/) -->

<svg
   xmlns:dc="http://purl.org/dc/elements/1.1/"
   xmlns:cc="http://creativecommons.org/ns#"
   xmlns:rdf="http://www.w3.org/1999/02/22-rdf-syntax-ns#"
   xmlns:svg="http://www.w3.org/2000/svg"
   xmlns="http://www.w3.org/2000/svg"
   xmlns:sodipodi="http://sodipodi.sourceforge.net/DTD/sodipodi-0.dtd"
   xmlns:inkscape="http://www.inkscape.org/namespaces/inkscape"
   width="100mm"
   height="100mm"
   viewBox="0 0 100 100"
   version="1.1"
   id="svg8"
   inkscape:version="0.92.3 (2405546, 2018-03-11)"
   sodipodi:docname="Back Soldermask.svg">
  <defs
     id="defs2" />
  <sodipodi:namedview
     id="base"
     pagecolor="#ffffff"
     bordercolor="#666666"
     borderopacity="1.0"
     inkscape:pageopacity="0.0"
     inkscape:pageshadow="2"
     inkscape:zoom="4"
     inkscape:cx="83.74357"
     inkscape:cy="250.99013"
     inkscape:document-units="mm"
     inkscape:current-layer="layer1"
     showgrid="false"
     inkscape:window-width="2560"
     inkscape:window-height="1377"
     inkscape:window-x="-8"
     inkscape:window-y="1072"
     inkscape:window-maximized="1" />
  <metadata
     id="metadata5">
    <rdf:RDF>
      <cc:Work
         rdf:about="">
        <dc:format>image/svg+xml</dc:format>
        <dc:type
           rdf:resource="http://purl.org/dc/dcmitype/StillImage" />
        <dc:title></dc:title>
      </cc:Work>
    </rdf:RDF>
  </metadata>
  <g
     inkscape:label="Layer 1"
     inkscape:groupmode="layer"
     id="layer1"
     transform="translate(0,-197)">
    <path
       style="fill:none;stroke-width:0.1;stroke-miterlimit:4;stroke-dasharray:none;stroke:#000000;stroke-opacity:1"
       d="m 30.133748,264.07663 c -1.431264,-0.11131 -3.420168,-0.52287 -4.842717,-1.00209 -0.273322,-0.0921 -0.917019,-0.26223 -1.430437,-0.37813 -0.513418,-0.1159 -1.117893,-0.30877 -1.343278,-0.42861 -0.225384,-0.11984 -0.452585,-0.21789 -0.504889,-0.21789 -0.0523,0 -0.227605,-0.1079 -0.389558,-0.23979 -0.316491,-0.25773 -3.859912,-1.72108 -5.54379,-2.28945 -1.990911,-0.672 -3.612127,-0.99379 -5.291667,-1.05031 -0.8602505,-0.029 -1.041281,-0.0627 -1.554079,-0.28995 -0.619699,-0.27459 -1.578589,-1.04686 -1.578589,-1.27136 0,-0.0745 -0.34251,-0.66028 -0.76114,-1.30162 -3.046527,-4.66729 -4.744637,-9.3196 -5.436217,-14.89352 -0.0697,-0.56184 -0.10996,-1.87049 -0.10938,-3.556 l 9.2e-4,-2.667 0.32303,-1.86267 c 0.17767,-1.02446 0.3219,-2.03411 0.32051,-2.24366 -0.003,-0.42165 -0.12184,-0.79486 -0.76722,-2.4051 -0.52327084,-1.30557 -0.70347084,-2.03226 -0.93625084,-3.77557 -0.48055,-3.59886 -0.36632,-7.76848 0.29918,-10.92044 0.76690084,-3.63224 1.94678084,-6.51438 3.93390784,-9.60955 0.872649,-1.35926 1.105419,-1.6521 2.24366,-2.82277 1.38585,-1.42533 2.315419,-2.12297 3.852334,-2.89117 1.407779,-0.70365 2.428438,-0.95846 3.810003,-0.95114 3.251351,0.0172 5.93058,1.92466 8.16959,5.81628 0.549376,0.95486 0.707616,1.2887 1.404838,2.96379 l 0.493372,1.18533 0.659934,-0.0142 c 0.362962,-0.008 1.34573,-0.11109 2.183932,-0.22959 1.918332,-0.27118 3.39921,-0.39135 4.817127,-0.39091 6.391733,0.002 12.610215,1.94591 18.670582,5.83652 1.065506,0.68403 1.613222,1.22036 1.950705,1.91013 0.136702,0.2794 0.494738,1.25095 0.795638,2.159 0.300898,0.90805 0.748416,2.12725 0.994483,2.70934 0.54107,1.27992 3.078193,6.40373 3.19209,6.44653 0.107784,0.0405 0.863707,1.48352 0.863707,1.64877 0,0.0712 0.288863,0.80296 0.641915,1.62621 1.920814,4.47897 2.401584,7.60541 1.634707,10.63048 -0.355928,1.40402 -1.145781,3.00705 -2.079017,4.21943 -0.2251,0.29243 -0.645927,0.88555 -0.935171,1.31804 -1.253546,1.87437 -2.896281,3.75456 -5.900647,6.75356 -4.925204,4.91641 -10.078884,9.08893 -12.96212,10.4944 -2.658874,1.29609 -4.402604,1.8158 -6.673663,1.98906 -0.613619,0.0468 -1.172821,0.0798 -1.24267,0.0733 -0.06985,-0.007 -0.507999,-0.0415 -0.973665,-0.0777 z"
       id="path840"
       inkscape:connector-curvature="0" />
  </g>
</svg>
