  0
SECTION
  2
HEADER
  9
$ACADVER
  1
AC1009
  9
$INSBASE
 10
0.0
 20
0.0
 30
0.0
  9
$EXTMIN
 10
0.0
 20
0.0
 30
0.0
  9
$EXTMAX
 10
0.0
 20
0.0
 30
0.0
  0
ENDSEC
  0
SECTION
  2
TABLES
  0
TABLE
  2
VPORT
 70
0
  0
ENDTAB
  0
TABLE
  2
LTYPE
 70
1
  0
LTYPE
  2
CONTINUOUS
 70
0
  3
Solid line
 72
65
 73
0
 40
0.0
  0
ENDTAB
  0
TABLE
  2
LAYER
 70
1
  0
LAYER
  2
0
 70
64
 62
7
  6
continuous
  0
ENDTAB
  0
TABLE
  2
STYLE
 70
1
  0
STYLE
  2
STANDARD
 70
0
 40
0
 41
1.0
 50
0.0
 71
0
 42
1
 3
ARIAL.TTF
 4

  0
ENDTAB
  0
TABLE
  2
VIEW
 70
0
  0
ENDTAB
  0
ENDSEC
  0
SECTION
  2
BLOCKS
  0
ENDSEC
  0
SECTION
  2
ENTITIES
  0
POLYLINE
  8
0
 62
0
 70
1
 66
1
 10
0.0
 20
0.0
 30
0.0
  0
VERTEX
  8
0
 10
30.133748
 20
-67.07663
 30
0.0
  0
VERTEX
  8
0
 10
25.291031
 20
-66.07454
 30
0.0
  0
VERTEX
  8
0
 10
23.860594
 20
-65.69641
 30
0.0
  0
VERTEX
  8
0
 10
22.517316
 20
-65.2678
 30
0.0
  0
VERTEX
  8
0
 10
22.012427
 20
-65.04991
 30
0.0
  0
VERTEX
  8
0
 10
21.622869
 20
-64.81012
 30
0.0
  0
VERTEX
  8
0
 10
19.363744125
 20
-63.781885
 30
0.0
  0
VERTEX
  8
0
 10
16.079079
 20
-62.52067
 30
0.0
  0
VERTEX
  8
0
 10
13.316481375
 20
-61.76471
 30
0.0
  0
VERTEX
  8
0
 10
10.787412
 20
-61.47036
 30
0.0
  0
VERTEX
  8
0
 10
9.233333
 20
-61.18041
 30
0.0
  0
VERTEX
  8
0
 10
7.654744
 20
-59.90905
 30
0.0
  0
VERTEX
  8
0
 10
6.893604
 20
-58.60743
 30
0.0
  0
VERTEX
  8
0
 10
4.85619495312
 20
-55.0951370312
 30
0.0
  0
VERTEX
  8
0
 10
3.292390375
 20
-51.50065625
 30
0.0
  0
VERTEX
  8
0
 10
2.17013835937
 20
-47.7361823437
 30
0.0
  0
VERTEX
  8
0
 10
1.457387
 20
-43.71391
 30
0.0
  0
VERTEX
  8
0
 10
1.348007
 20
-40.15791
 30
0.0
  0
VERTEX
  8
0
 10
1.348927
 20
-37.49091
 30
0.0
  0
VERTEX
  8
0
 10
1.671957
 20
-35.62824
 30
0.0
  0
VERTEX
  8
0
 10
1.992467
 20
-33.38458
 30
0.0
  0
VERTEX
  8
0
 10
1.225247
 20
-30.97948
 30
0.0
  0
VERTEX
  8
0
 10
0.28899616
 20
-27.20391
 30
0.0
  0
VERTEX
  8
0
 10
0.00509467851851
 20
-23.473627037
 30
0.0
  0
VERTEX
  8
0
 10
0.108044308148
 20
-19.7158196296
 30
0.0
  0
VERTEX
  8
0
 10
0.58817616
 20
-16.28347
 30
0.0
  0
VERTEX
  8
0
 10
1.50733923259
 20
-12.8655918519
 30
0.0
  0
VERTEX
  8
0
 10
2.78943682074
 20
-9.73375148148
 30
0.0
  0
VERTEX
  8
0
 10
4.522084
 20
-6.67392
 30
0.0
  0
VERTEX
  8
0
 10
6.765744
 20
-3.85115
 30
0.0
  0
VERTEX
  8
0
 10
10.618078
 20
-0.95998
 30
0.0
  0
VERTEX
  8
0
 10
14.428081
 20
-0.00883999999996
 30
0.0
  0
VERTEX
  8
0
 10
17.493609963
 20
-0.659604444444
 30
0.0
  0
VERTEX
  8
0
 10
20.207036037
 20
-2.59140888889
 30
0.0
  0
VERTEX
  8
0
 10
22.597671
 20
-5.82512
 30
0.0
  0
VERTEX
  8
0
 10
24.002509
 20
-8.78891
 30
0.0
  0
VERTEX
  8
0
 10
24.495881
 20
-9.97424
 30
0.0
  0
VERTEX
  8
0
 10
25.155815
 20
-9.96004
 30
0.0
  0
VERTEX
  8
0
 10
27.339747
 20
-9.73045
 30
0.0
  0
VERTEX
  8
0
 10
32.156874
 20
-9.33954
 30
0.0
  0
VERTEX
  8
0
 10
36.9184256875
 20
-9.70522296875
 30
0.0
  0
VERTEX
  8
0
 10
41.61642725
 20
-10.79957125
 30
0.0
  0
VERTEX
  8
0
 10
46.2522976875
 20
-12.6230339062
 30
0.0
  0
VERTEX
  8
0
 10
50.827456
 20
-15.17606
 30
0.0
  0
VERTEX
  8
0
 10
52.778161
 20
-17.08619
 30
0.0
  0
VERTEX
  8
0
 10
53.573799
 20
-19.24519
 30
0.0
  0
VERTEX
  8
0
 10
54.568282
 20
-21.95453
 30
0.0
  0
VERTEX
  8
0
 10
56.324516875
 20
-25.641715
 30
0.0
  0
VERTEX
  8
0
 10
57.760372
 20
-28.40106
 30
0.0
  0
VERTEX
  8
0
 10
58.624079
 20
-30.04983
 30
0.0
  0
VERTEX
  8
0
 10
59.265994
 20
-31.67604
 30
0.0
  0
VERTEX
  8
0
 10
60.7139191481
 20
-35.7505059259
 30
0.0
  0
VERTEX
  8
0
 10
61.2445698519
 20
-39.2013207407
 30
0.0
  0
VERTEX
  8
0
 10
60.900701
 20
-42.30652
 30
0.0
  0
VERTEX
  8
0
 10
58.821684
 20
-46.52595
 30
0.0
  0
VERTEX
  8
0
 10
57.886513
 20
-47.84399
 30
0.0
  0
VERTEX
  8
0
 10
55.592747
 20
-50.79903375
 30
0.0
  0
VERTEX
  8
0
 10
51.985866
 20
-54.59755
 30
0.0
  0
VERTEX
  8
0
 10
48.288169375
 20
-58.11376625
 30
0.0
  0
VERTEX
  8
0
 10
44.739068
 20
-61.1613525
 30
0.0
  0
VERTEX
  8
0
 10
41.572835625
 20
-63.5506375
 30
0.0
  0
VERTEX
  8
0
 10
39.023746
 20
-65.09195
 30
0.0
  0
VERTEX
  8
0
 10
35.541483875
 20
-66.50754125
 30
0.0
  0
VERTEX
  8
0
 10
32.350083
 20
-67.08101
 30
0.0
  0
VERTEX
  8
0
 10
31.107413
 20
-67.15431
 30
0.0
  0
VERTEX
  8
0
 10
30.133748
 20
-67.07661
 30
0.0
  0
SEQEND
  8
0
  0
ENDSEC
  0
EOF
