  0
SECTION
  2
HEADER
  9
$ACADVER
  1
AC1009
  9
$INSBASE
 10
0.0
 20
0.0
 30
0.0
  9
$EXTMIN
 10
0.0
 20
0.0
 30
0.0
  9
$EXTMAX
 10
0.0
 20
0.0
 30
0.0
  0
ENDSEC
  0
SECTION
  2
TABLES
  0
TABLE
  2
VPORT
 70
0
  0
ENDTAB
  0
TABLE
  2
LTYPE
 70
1
  0
LTYPE
  2
CONTINUOUS
 70
0
  3
Solid line
 72
65
 73
0
 40
0.0
  0
ENDTAB
  0
TABLE
  2
LAYER
 70
1
  0
LAYER
  2
0
 70
64
 62
7
  6
continuous
  0
ENDTAB
  0
TABLE
  2
STYLE
 70
1
  0
STYLE
  2
STANDARD
 70
0
 40
0
 41
1.0
 50
0.0
 71
0
 42
1
 3
ARIAL.TTF
 4

  0
ENDTAB
  0
TABLE
  2
VIEW
 70
0
  0
ENDTAB
  0
ENDSEC
  0
SECTION
  2
BLOCKS
  0
ENDSEC
  0
SECTION
  2
ENTITIES
  0
POLYLINE
  8
0
 62
0
 70
1
 66
1
 10
0.0
 20
0.0
 30
0.0
  0
VERTEX
  8
0
 10
43.7162384284
 20
-82.1196250696
 30
0.0
  0
VERTEX
  8
0
 10
41.0160650041
 20
-80.6509745985
 30
0.0
  0
VERTEX
  8
0
 10
39.2643751928
 20
-79.6473425591
 30
0.0
  0
VERTEX
  8
0
 10
43.1847857684
 20
-76.5613960563
 30
0.0
  0
VERTEX
  8
0
 10
45.1881115245
 20
-75.0619269189
 30
0.0
  0
VERTEX
  8
0
 10
47.1914372805
 20
-73.5624577816
 30
0.0
  0
VERTEX
  8
0
 10
50.1181204936
 20
-75.946255689
 30
0.0
  0
VERTEX
  8
0
 10
53.0448037067
 20
-78.3300562423
 30
0.0
  0
VERTEX
  8
0
 10
52.7461473355
 20
-78.5649453852
 30
0.0
  0
VERTEX
  8
0
 10
50.6741192105
 20
-79.9024223866
 30
0.0
  0
VERTEX
  8
0
 10
47.7899062521
 20
-81.5035295565
 30
0.0
  0
SEQEND
  8
0
  0
POLYLINE
  8
0
 62
0
 70
1
 66
1
 10
0.0
 20
0.0
 30
0.0
  0
VERTEX
  8
0
 10
21.6978322516
 20
-49.4335428772
 30
0.0
  0
VERTEX
  8
0
 10
19.7498001783
 20
-47.8800048135
 30
0.0
  0
VERTEX
  8
0
 10
20.4410614341
 20
-47.796970627
 30
0.0
  0
VERTEX
  8
0
 10
21.8612248933
 20
-47.7127855031
 30
0.0
  0
VERTEX
  8
0
 10
22.5901273612
 20
-47.7117271697
 30
0.0
  0
VERTEX
  8
0
 10
23.160244377
 20
-49.3120991287
 30
0.0
  0
VERTEX
  8
0
 10
23.6881127266
 20
-50.9498223164
 30
0.0
  0
VERTEX
  8
0
 10
21.6978322516
 20
-49.4336354814
 30
0.0
  0
SEQEND
  8
0
  0
POLYLINE
  8
0
 62
0
 70
1
 66
1
 10
0.0
 20
0.0
 30
0.0
  0
VERTEX
  8
0
 10
23.6305671752
 20
-61.9189471158
 30
0.0
  0
VERTEX
  8
0
 10
20.331068813
 20
-59.1666491095
 30
0.0
  0
VERTEX
  8
0
 10
15.9146105213
 20
-57.7823815629
 30
0.0
  0
VERTEX
  8
0
 10
11.2313300543
 20
-58.0326069355
 30
0.0
  0
VERTEX
  8
0
 10
8.9139790752
 20
-56.8514355129
 30
0.0
  0
VERTEX
  8
0
 10
6.90963560431
 20
-53.2204266736
 30
0.0
  0
VERTEX
  8
0
 10
5.33735083168
 20
-49.3306776802
 30
0.0
  0
VERTEX
  8
0
 10
4.27486175031
 20
-45.3745065117
 30
0.0
  0
VERTEX
  8
0
 10
3.71080802539
 20
-41.5431285574
 30
0.0
  0
VERTEX
  8
0
 10
3.64433057075
 20
-37.464618528
 30
0.0
  0
VERTEX
  8
0
 10
4.06122731394
 20
-32.367782824
 30
0.0
  0
VERTEX
  8
0
 10
4.97265847902
 20
-29.0585098006
 30
0.0
  0
VERTEX
  8
0
 10
5.43371160029
 20
-28.0993952293
 30
0.0
  0
VERTEX
  8
0
 10
5.28584417924
 20
-28.0001764806
 30
0.0
  0
VERTEX
  8
0
 10
4.24955938188
 20
-29.1219489456
 30
0.0
  0
VERTEX
  8
0
 10
3.32103725816
 20
-30.2464280981
 30
0.0
  0
VERTEX
  8
0
 10
2.52513602048
 20
-25.5527809427
 30
0.0
  0
VERTEX
  8
0
 10
2.51064422926
 20
-21.8544645908
 30
0.0
  0
VERTEX
  8
0
 10
2.88295446785
 20
-17.9388175073
 30
0.0
  0
VERTEX
  8
0
 10
4.08873955829
 20
-13.1789390492
 30
0.0
  0
VERTEX
  8
0
 10
6.03702702317
 20
-9.00610532481
 30
0.0
  0
VERTEX
  8
0
 10
8.62564542258
 20
-5.63914679771
 30
0.0
  0
VERTEX
  8
0
 10
12.7002514587
 20
-2.8532478453
 30
0.0
  0
VERTEX
  8
0
 10
16.7526917619
 20
-3.05055080948
 30
0.0
  0
VERTEX
  8
0
 10
19.3510666259
 20
-5.29374311199
 30
0.0
  0
VERTEX
  8
0
 10
21.5955046488
 20
-9.08367134676
 30
0.0
  0
VERTEX
  8
0
 10
23.2904652723
 20
-13.9887411749
 30
0.0
  0
VERTEX
  8
0
 10
24.2404079384
 20
-19.5773582575
 30
0.0
  0
VERTEX
  8
0
 10
23.865203641
 20
-20.9013795429
 30
0.0
  0
VERTEX
  8
0
 10
20.9486544655
 20
-18.2202602525
 30
0.0
  0
VERTEX
  8
0
 10
17.5032247107
 20
-16.8153014382
 30
0.0
  0
VERTEX
  8
0
 10
14.9411012107
 20
-16.762196918
 30
0.0
  0
VERTEX
  8
0
 10
12.2879949119
 20
-17.8614824458
 30
0.0
  0
VERTEX
  8
0
 10
11.34273948
 20
-18.4090310327
 30
0.0
  0
VERTEX
  8
0
 10
13.6578436175
 20
-18.4845563442
 30
0.0
  0
VERTEX
  8
0
 10
16.8251902401
 20
-18.7924215382
 30
0.0
  0
VERTEX
  8
0
 10
19.4967216921
 20
-19.9320877739
 30
0.0
  0
VERTEX
  8
0
 10
21.8013650316
 20
-21.8004363441
 30
0.0
  0
VERTEX
  8
0
 10
24.1847184391
 20
-25.2646153005
 30
0.0
  0
VERTEX
  8
0
 10
24.8689613575
 20
-26.5714635402
 30
0.0
  0
VERTEX
  8
0
 10
25.2125572074
 20
-26.1209855501
 30
0.0
  0
VERTEX
  8
0
 10
26.1599714407
 20
-24.0034413203
 30
0.0
  0
VERTEX
  8
0
 10
26.4901359163
 20
-21.0585327805
 30
0.0
  0
VERTEX
  8
0
 10
26.0859454568
 20
-16.5219658377
 30
0.0
  0
VERTEX
  8
0
 10
25.6056526295
 20
-12.7633122496
 30
0.0
  0
VERTEX
  8
0
 10
25.5295492034
 20
-12.1446770012
 30
0.0
  0
VERTEX
  8
0
 10
26.1090607794
 20
-11.9695622596
 30
0.0
  0
VERTEX
  8
0
 10
30.4208776772
 20
-11.7826072156
 30
0.0
  0
VERTEX
  8
0
 10
35.4591218658
 20
-12.0366989567
 30
0.0
  0
VERTEX
  8
0
 10
39.8565913989
 20
-13.0141032144
 30
0.0
  0
VERTEX
  8
0
 10
44.0836388404
 20
-14.5283592857
 30
0.0
  0
VERTEX
  8
0
 10
47.9253401749
 20
-16.4870430871
 30
0.0
  0
VERTEX
  8
0
 10
50.0912864523
 20
-18.02621335
 30
0.0
  0
VERTEX
  8
0
 10
49.8735423092
 20
-19.4473420092
 30
0.0
  0
VERTEX
  8
0
 10
49.584932167
 20
-22.5100726477
 30
0.0
  0
VERTEX
  8
0
 10
49.954713829
 20
-25.5423404845
 30
0.0
  0
VERTEX
  8
0
 10
51.3171807259
 20
-28.6166487272
 30
0.0
  0
VERTEX
  8
0
 10
53.5786825958
 20
-31.3400383135
 30
0.0
  0
VERTEX
  8
0
 10
54.7654526017
 20
-32.4970876739
 30
0.0
  0
VERTEX
  8
0
 10
54.5690259375
 20
-33.2028054984
 30
0.0
  0
VERTEX
  8
0
 10
54.3725992733
 20
-33.9085259686
 30
0.0
  0
VERTEX
  8
0
 10
52.370690361
 20
-31.9041405564
 30
0.0
  0
VERTEX
  8
0
 10
49.2288294631
 20
-29.1365010288
 30
0.0
  0
VERTEX
  8
0
 10
48.0888801233
 20
-28.3732495592
 30
0.0
  0
VERTEX
  8
0
 10
48.0051315619
 20
-27.571995986
 30
0.0
  0
VERTEX
  8
0
 10
47.9213856463
 20
-26.2159947781
 30
0.0
  0
VERTEX
  8
0
 10
47.3560216716
 20
-23.6777141056
 30
0.0
  0
VERTEX
  8
0
 10
46.0512339407
 20
-21.0225666456
 30
0.0
  0
VERTEX
  8
0
 10
43.1588857063
 20
-18.081255943
 30
0.0
  0
VERTEX
  8
0
 10
40.3945276734
 20
-16.6758093032
 30
0.0
  0
VERTEX
  8
0
 10
37.5484014853
 20
-16.228173831
 30
0.0
  0
VERTEX
  8
0
 10
34.2637949043
 20
-16.8207485475
 30
0.0
  0
VERTEX
  8
0
 10
31.5003943323
 20
-18.7363457473
 30
0.0
  0
VERTEX
  8
0
 10
29.7547105626
 20
-21.1210101652
 30
0.0
  0
VERTEX
  8
0
 10
28.9232333049
 20
-23.5235362729
 30
0.0
  0
VERTEX
  8
0
 10
28.7748632416
 20
-26.2629715483
 30
0.0
  0
VERTEX
  8
0
 10
29.2530367565
 20
-29.3228153181
 30
0.0
  0
VERTEX
  8
0
 10
28.8522856157
 20
-33.4212719539
 30
0.0
  0
VERTEX
  8
0
 10
25.5147642869
 20
-36.7661714535
 30
0.0
  0
VERTEX
  8
0
 10
21.5832888364
 20
-37.4486403407
 30
0.0
  0
VERTEX
  8
0
 10
16.724308056
 20
-36.8818042906
 30
0.0
  0
VERTEX
  8
0
 10
12.8145863823
 20
-37.8822553769
 30
0.0
  0
VERTEX
  8
0
 10
10.6418083318
 20
-39.581304681
 30
0.0
  0
VERTEX
  8
0
 10
8.98714324511
 20
-41.7755884945
 30
0.0
  0
VERTEX
  8
0
 10
8.1259706096
 20
-46.3469097807
 30
0.0
  0
VERTEX
  8
0
 10
9.63833705982
 20
-50.8450314428
 30
0.0
  0
VERTEX
  8
0
 10
11.3796615876
 20
-52.8211940819
 30
0.0
  0
VERTEX
  8
0
 10
13.4717976157
 20
-54.4860420219
 30
0.0
  0
VERTEX
  8
0
 10
15.8179045695
 20
-55.5385429331
 30
0.0
  0
VERTEX
  8
0
 10
18.2038109415
 20
-55.9962572112
 30
0.0
  0
VERTEX
  8
0
 10
20.8228049085
 20
-57.0109342818
 30
0.0
  0
VERTEX
  8
0
 10
22.4482128997
 20
-59.1045643127
 30
0.0
  0
VERTEX
  8
0
 10
24.4229651444
 20
-61.106575751
 30
0.0
  0
VERTEX
  8
0
 10
25.8009442312
 20
-62.4064366096
 30
0.0
  0
VERTEX
  8
0
 10
24.4626843939
 20
-62.7928843756
 30
0.0
  0
SEQEND
  8
0
  0
POLYLINE
  8
0
 62
0
 70
1
 66
1
 10
0.0
 20
0.0
 30
0.0
  0
VERTEX
  8
0
 10
28.4618823289
 20
-53.1491209762
 30
0.0
  0
VERTEX
  8
0
 10
25.6417508908
 20
-51.2811454685
 30
0.0
  0
VERTEX
  8
0
 10
23.7806446608
 20
-48.2653042878
 30
0.0
  0
VERTEX
  8
0
 10
23.5993127402
 20
-47.5251588804
 30
0.0
  0
VERTEX
  8
0
 10
24.931460438
 20
-47.0772113652
 30
0.0
  0
VERTEX
  8
0
 10
27.4085004544
 20
-46.0583432947
 30
0.0
  0
VERTEX
  8
0
 10
29.8920081442
 20
-44.6003171673
 30
0.0
  0
VERTEX
  8
0
 10
31.8329729323
 20
-43.7457897405
 30
0.0
  0
VERTEX
  8
0
 10
34.1094684088
 20
-44.8680543306
 30
0.0
  0
VERTEX
  8
0
 10
34.9927143716
 20
-47.7777803981
 30
0.0
  0
VERTEX
  8
0
 10
33.1930000402
 20
-51.5723128086
 30
0.0
  0
VERTEX
  8
0
 10
31.2526358563
 20
-53.2696915997
 30
0.0
  0
SEQEND
  8
0
  0
POLYLINE
  8
0
 62
0
 70
1
 66
1
 10
0.0
 20
0.0
 30
0.0
  0
VERTEX
  8
0
 10
47.0235300534
 20
-86.0988710403
 30
0.0
  0
VERTEX
  8
0
 10
43.1209259359
 20
-85.4260197571
 30
0.0
  0
VERTEX
  8
0
 10
40.9381134634
 20
-85.0014402416
 30
0.0
  0
VERTEX
  8
0
 10
41.5334259559
 20
-84.8235211814
 30
0.0
  0
VERTEX
  8
0
 10
43.6346144711
 20
-84.2518492094
 30
0.0
  0
VERTEX
  8
0
 10
45.140487848
 20
-83.8580936519
 30
0.0
  0
VERTEX
  8
0
 10
47.8603568554
 20
-84.9911188459
 30
0.0
  0
VERTEX
  8
0
 10
50.7862516102
 20
-86.2447278926
 30
0.0
  0
SEQEND
  8
0
  0
POLYLINE
  8
0
 62
0
 70
1
 66
1
 10
0.0
 20
0.0
 30
0.0
  0
VERTEX
  8
0
 10
41.2406565638
 20
-31.2925350224
 30
0.0
  0
VERTEX
  8
0
 10
39.671166771
 20
-30.6501425722
 30
0.0
  0
VERTEX
  8
0
 10
39.671166771
 20
-29.2156352569
 30
0.0
  0
VERTEX
  8
0
 10
39.7854482488
 20
-27.8947585444
 30
0.0
  0
VERTEX
  8
0
 10
41.1745107313
 20
-29.6214663976
 30
0.0
  0
VERTEX
  8
0
 10
42.8025845649
 20
-31.8289671407
 30
0.0
  0
SEQEND
  8
0
  0
POLYLINE
  8
0
 62
0
 70
1
 66
1
 10
0.0
 20
0.0
 30
0.0
  0
VERTEX
  8
0
 10
35.5990044265
 20
-83.6043450092
 30
0.0
  0
VERTEX
  8
0
 10
32.7212506086
 20
-82.764650124
 30
0.0
  0
VERTEX
  8
0
 10
35.4733518187
 20
-81.3731587665
 30
0.0
  0
VERTEX
  8
0
 10
38.3951131204
 20
-80.0233551585
 30
0.0
  0
VERTEX
  8
0
 10
40.9331703853
 20
-81.4743165803
 30
0.0
  0
VERTEX
  8
0
 10
43.6268780545
 20
-83.109227578
 30
0.0
  0
VERTEX
  8
0
 10
39.4167593159
 20
-84.33329325
 30
0.0
  0
SEQEND
  8
0
  0
POLYLINE
  8
0
 62
0
 70
1
 66
1
 10
0.0
 20
0.0
 30
0.0
  0
VERTEX
  8
0
 10
36.6742948921
 20
-48.1593201433
 30
0.0
  0
VERTEX
  8
0
 10
35.9200290032
 20
-44.6939112052
 30
0.0
  0
VERTEX
  8
0
 10
33.66909393
 20
-42.4504426735
 30
0.0
  0
VERTEX
  8
0
 10
32.9766978762
 20
-42.0726203241
 30
0.0
  0
VERTEX
  8
0
 10
33.4931354322
 20
-41.5683297888
 30
0.0
  0
VERTEX
  8
0
 10
34.009575634
 20
-41.0640418993
 30
0.0
  0
VERTEX
  8
0
 10
34.3506500047
 20
-41.7371207242
 30
0.0
  0
VERTEX
  8
0
 10
36.471438853
 20
-43.9631122039
 30
0.0
  0
VERTEX
  8
0
 10
39.7687715615
 20
-44.731010749
 30
0.0
  0
VERTEX
  8
0
 10
41.07501417
 20
-44.7350588739
 30
0.0
  0
VERTEX
  8
0
 10
41.0150728166
 20
-46.8180996185
 30
0.0
  0
VERTEX
  8
0
 10
40.8994551931
 20
-48.9555095916
 30
0.0
  0
VERTEX
  8
0
 10
38.760187845
 20
-49.1060919022
 30
0.0
  0
VERTEX
  8
0
 10
36.6765941213
 20
-49.2023049843
 30
0.0
  0
SEQEND
  8
0
  0
POLYLINE
  8
0
 62
0
 70
1
 66
1
 10
0.0
 20
0.0
 30
0.0
  0
VERTEX
  8
0
 10
59.7896757259
 20
-67.1544479665
 30
0.0
  0
VERTEX
  8
0
 10
56.9823672196
 20
-64.414550001
 30
0.0
  0
VERTEX
  8
0
 10
58.163431486
 20
-63.1300217463
 30
0.0
  0
VERTEX
  8
0
 10
60.9511171696
 20
-60.1368355132
 30
0.0
  0
VERTEX
  8
0
 10
62.917010999
 20
-58.0318555189
 30
0.0
  0
VERTEX
  8
0
 10
64.8829048284
 20
-55.9268755246
 30
0.0
  0
VERTEX
  8
0
 10
65.2618701778
 20
-56.3665230607
 30
0.0
  0
VERTEX
  8
0
 10
67.4958365299
 20
-59.2747859824
 30
0.0
  0
VERTEX
  8
0
 10
69.3430362931
 20
-61.8426650959
 30
0.0
  0
VERTEX
  8
0
 10
69.3624037928
 20
-62.3380312355
 30
0.0
  0
VERTEX
  8
0
 10
66.0300256994
 20
-66.2559004882
 30
0.0
  0
VERTEX
  8
0
 10
62.7834996049
 20
-69.8317428702
 30
0.0
  0
SEQEND
  8
0
  0
POLYLINE
  8
0
 62
0
 70
1
 66
1
 10
0.0
 20
0.0
 30
0.0
  0
VERTEX
  8
0
 10
74.3461562509
 20
-50.4892409472
 30
0.0
  0
VERTEX
  8
0
 10
72.8619813529
 20
-48.0628424778
 30
0.0
  0
VERTEX
  8
0
 10
72.0928005709
 20
-46.4613645605
 30
0.0
  0
VERTEX
  8
0
 10
73.2313978899
 20
-43.6953151787
 30
0.0
  0
VERTEX
  8
0
 10
74.5035515822
 20
-40.9973139835
 30
0.0
  0
VERTEX
  8
0
 10
75.0041088467
 20
-41.989501471
 30
0.0
  0
VERTEX
  8
0
 10
75.7824759619
 20
-44.5225561266
 30
0.0
  0
VERTEX
  8
0
 10
76.2059230608
 20
-46.8545062847
 30
0.0
  0
VERTEX
  8
0
 10
75.8536938569
 20
-49.450799002
 30
0.0
  0
VERTEX
  8
0
 10
75.0965542622
 20
-51.7129388485
 30
0.0
  0
SEQEND
  8
0
  0
POLYLINE
  8
0
 62
0
 70
1
 66
1
 10
0.0
 20
0.0
 30
0.0
  0
VERTEX
  8
0
 10
77.010208759
 20
-56.1765442923
 30
0.0
  0
VERTEX
  8
0
 10
75.7760545245
 20
-53.2979623285
 30
0.0
  0
VERTEX
  8
0
 10
76.2689891433
 20
-51.3148256035
 30
0.0
  0
VERTEX
  8
0
 10
76.8565758026
 20
-49.3316888785
 30
0.0
  0
VERTEX
  8
0
 10
77.4799113077
 20
-51.9267013432
 30
0.0
  0
VERTEX
  8
0
 10
78.1819054525
 20
-56.806167951
 30
0.0
  0
SEQEND
  8
0
  0
POLYLINE
  8
0
 62
0
 70
1
 66
1
 10
0.0
 20
0.0
 30
0.0
  0
VERTEX
  8
0
 10
69.9023839735
 20
-60.7355690682
 30
0.0
  0
VERTEX
  8
0
 10
67.4796102957
 20
-57.7678992514
 30
0.0
  0
VERTEX
  8
0
 10
65.4613183836
 20
-55.2900446159
 30
0.0
  0
VERTEX
  8
0
 10
66.3716543722
 20
-54.0637326314
 30
0.0
  0
VERTEX
  8
0
 10
67.6394288796
 20
-52.3729535407
 30
0.0
  0
VERTEX
  8
0
 10
69.4091371464
 20
-50.0299480989
 30
0.0
  0
VERTEX
  8
0
 10
71.5362839321
 20
-47.2224781967
 30
0.0
  0
VERTEX
  8
0
 10
72.6351276057
 20
-49.2361981089
 30
0.0
  0
VERTEX
  8
0
 10
74.3664865032
 20
-52.6167022564
 30
0.0
  0
VERTEX
  8
0
 10
74.3222643762
 20
-53.9752295075
 30
0.0
  0
VERTEX
  8
0
 10
72.4193238507
 20
-57.5987756025
 30
0.0
  0
VERTEX
  8
0
 10
70.4523654041
 20
-61.0662982307
 30
0.0
  0
SEQEND
  8
0
  0
POLYLINE
  8
0
 62
0
 70
1
 66
1
 10
0.0
 20
0.0
 30
0.0
  0
VERTEX
  8
0
 10
75.4095272375
 20
-70.9260489398
 30
0.0
  0
VERTEX
  8
0
 10
74.188613745
 20
-68.0175667446
 30
0.0
  0
VERTEX
  8
0
 10
72.5134907114
 20
-64.9299768487
 30
0.0
  0
VERTEX
  8
0
 10
71.1667589159
 20
-62.3290618606
 30
0.0
  0
VERTEX
  8
0
 10
71.713303409
 20
-61.0844195429
 30
0.0
  0
VERTEX
  8
0
 10
73.7635169691
 20
-57.5229324602
 30
0.0
  0
VERTEX
  8
0
 10
75.3379944884
 20
-54.8489789132
 30
0.0
  0
VERTEX
  8
0
 10
76.4924562238
 20
-57.2963747157
 30
0.0
  0
VERTEX
  8
0
 10
78.0708879409
 20
-61.797417047
 30
0.0
  0
VERTEX
  8
0
 10
78.2583938474
 20
-63.6418952399
 30
0.0
  0
VERTEX
  8
0
 10
77.8741639512
 20
-66.4069444967
 30
0.0
  0
VERTEX
  8
0
 10
77.3046450261
 20
-69.0398264427
 30
0.0
  0
VERTEX
  8
0
 10
76.0671120625
 20
-72.4804760035
 30
0.0
  0
SEQEND
  8
0
  0
POLYLINE
  8
0
 62
0
 70
1
 66
1
 10
0.0
 20
0.0
 30
0.0
  0
VERTEX
  8
0
 10
50.7955173184
 20
-75.3223179261
 30
0.0
  0
VERTEX
  8
0
 10
47.8834258759
 20
-73.0293117883
 30
0.0
  0
VERTEX
  8
0
 10
49.9373274704
 20
-71.0237452564
 30
0.0
  0
VERTEX
  8
0
 10
53.7808424868
 20
-67.4481488879
 30
0.0
  0
VERTEX
  8
0
 10
55.9366862745
 20
-65.537417841
 30
0.0
  0
VERTEX
  8
0
 10
58.8608860423
 20
-68.1509408862
 30
0.0
  0
VERTEX
  8
0
 10
61.7467218888
 20
-70.8985005235
 30
0.0
  0
VERTEX
  8
0
 10
59.9607844113
 20
-72.722958688
 30
0.0
  0
VERTEX
  8
0
 10
56.1671082585
 20
-76.0096525007
 30
0.0
  0
VERTEX
  8
0
 10
53.8784713837
 20
-77.5098135235
 30
0.0
  0
SEQEND
  8
0
  0
POLYLINE
  8
0
 62
0
 70
1
 66
1
 10
0.0
 20
0.0
 30
0.0
  0
VERTEX
  8
0
 10
67.9753336228
 20
-75.0200103049
 30
0.0
  0
VERTEX
  8
0
 10
65.9063885551
 20
-72.9813587055
 30
0.0
  0
VERTEX
  8
0
 10
63.8374434874
 20
-70.9427071062
 30
0.0
  0
VERTEX
  8
0
 10
67.0727737383
 20
-67.1868461952
 30
0.0
  0
VERTEX
  8
0
 10
69.3909143003
 20
-64.5327664943
 30
0.0
  0
VERTEX
  8
0
 10
70.4210863628
 20
-63.4258682426
 30
0.0
  0
VERTEX
  8
0
 10
71.5384717055
 20
-65.090783982
 30
0.0
  0
VERTEX
  8
0
 10
73.2234259942
 20
-68.183251141
 30
0.0
  0
VERTEX
  8
0
 10
74.5343910844
 20
-71.3150611797
 30
0.0
  0
VERTEX
  8
0
 10
75.1015310747
 20
-73.739501071
 30
0.0
  0
VERTEX
  8
0
 10
75.1610464489
 20
-74.665542726
 30
0.0
  0
VERTEX
  8
0
 10
73.7261422587
 20
-76.8813143439
 30
0.0
  0
VERTEX
  8
0
 10
72.2022322362
 20
-79.0971997327
 30
0.0
  0
VERTEX
  8
0
 10
70.923866458
 20
-77.8995732113
 30
0.0
  0
SEQEND
  8
0
  0
POLYLINE
  8
0
 62
0
 70
1
 66
1
 10
0.0
 20
0.0
 30
0.0
  0
VERTEX
  8
0
 10
64.9490506609
 20
-83.1249253069
 30
0.0
  0
VERTEX
  8
0
 10
62.1123310716
 20
-82.2200437527
 30
0.0
  0
VERTEX
  8
0
 10
58.8822889596
 20
-80.7303301457
 30
0.0
  0
VERTEX
  8
0
 10
55.812115151
 20
-78.9109198392
 30
0.0
  0
VERTEX
  8
0
 10
55.2079920336
 20
-78.502001011
 30
0.0
  0
VERTEX
  8
0
 10
57.1039141556
 20
-76.870854042
 30
0.0
  0
VERTEX
  8
0
 10
58.9998362775
 20
-75.2397070729
 30
0.0
  0
VERTEX
  8
0
 10
60.8957583995
 20
-73.6085614268
 30
0.0
  0
VERTEX
  8
0
 10
62.7916805214
 20
-71.9774157807
 30
0.0
  0
VERTEX
  8
0
 10
64.8358407457
 20
-74.0261559424
 30
0.0
  0
VERTEX
  8
0
 10
66.8800009699
 20
-76.0748961041
 30
0.0
  0
VERTEX
  8
0
 10
68.9241611942
 20
-78.1236375887
 30
0.0
  0
VERTEX
  8
0
 10
70.9683214184
 20
-80.1723790733
 30
0.0
  0
VERTEX
  8
0
 10
70.3730089259
 20
-80.7131477123
 30
0.0
  0
VERTEX
  8
0
 10
67.9892960158
 20
-82.4040759618
 30
0.0
  0
VERTEX
  8
0
 10
66.0448542721
 20
-83.3201295961
 30
0.0
  0
SEQEND
  8
0
  0
POLYLINE
  8
0
 62
0
 70
1
 66
1
 10
0.0
 20
0.0
 30
0.0
  0
VERTEX
  8
0
 10
53.8644325922
 20
-86.2214498512
 30
0.0
  0
VERTEX
  8
0
 10
52.210703436
 20
-85.7815016823
 30
0.0
  0
VERTEX
  8
0
 10
48.7946270519
 20
-84.4289136655
 30
0.0
  0
VERTEX
  8
0
 10
46.5969714546
 20
-83.5220807603
 30
0.0
  0
VERTEX
  8
0
 10
47.4717104019
 20
-83.002806871
 30
0.0
  0
VERTEX
  8
0
 10
52.4328555373
 20
-80.1516840267
 30
0.0
  0
VERTEX
  8
0
 10
54.356065461
 20
-79.2981084385
 30
0.0
  0
VERTEX
  8
0
 10
58.0282862898
 20
-81.2043651853
 30
0.0
  0
VERTEX
  8
0
 10
60.963649159
 20
-82.7334917988
 30
0.0
  0
VERTEX
  8
0
 10
62.8973312909
 20
-83.5429510933
 30
0.0
  0
VERTEX
  8
0
 10
64.4198840009
 20
-84.1443490024
 30
0.0
  0
VERTEX
  8
0
 10
61.6874052827
 20
-85.1447064924
 30
0.0
  0
VERTEX
  8
0
 10
57.203233446
 20
-86.1728829352
 30
0.0
  0
SEQEND
  8
0
  0
POLYLINE
  8
0
 62
0
 70
1
 66
1
 10
0.0
 20
0.0
 30
0.0
  0
VERTEX
  8
0
 10
42.4729005066
 20
-41.5064384563
 30
0.0
  0
VERTEX
  8
0
 10
43.365445912
 20
-40.6884526332
 30
0.0
  0
VERTEX
  8
0
 10
43.7493034072
 20
-39.2562789429
 30
0.0
  0
VERTEX
  8
0
 10
42.6243506505
 20
-36.8084598071
 30
0.0
  0
VERTEX
  8
0
 10
39.2851052967
 20
-35.9836001092
 30
0.0
  0
VERTEX
  8
0
 10
37.7938236905
 20
-37.7157213373
 30
0.0
  0
VERTEX
  8
0
 10
38.8678362187
 20
-40.8183604024
 30
0.0
  0
SEQEND
  8
0
  0
POLYLINE
  8
0
 62
0
 70
1
 66
1
 10
0.0
 20
0.0
 30
0.0
  0
VERTEX
  8
0
 10
32.4465416746
 20
-51.5303525383
 30
0.0
  0
VERTEX
  8
0
 10
33.6965222916
 20
-49.5370690426
 30
0.0
  0
VERTEX
  8
0
 10
32.8932482939
 20
-47.0708058028
 30
0.0
  0
VERTEX
  8
0
 10
30.0166540125
 20
-45.8915526093
 30
0.0
  0
VERTEX
  8
0
 10
27.8410640034
 20
-47.5380176303
 30
0.0
  0
VERTEX
  8
0
 10
28.7236795965
 20
-50.6599368826
 30
0.0
  0
SEQEND
  8
0
  0
POLYLINE
  8
0
 62
0
 70
1
 66
1
 10
0.0
 20
0.0
 30
0.0
  0
VERTEX
  8
0
 10
38.2640941013
 20
-42.9577177088
 30
0.0
  0
VERTEX
  8
0
 10
35.7446469663
 20
-40.8830854224
 30
0.0
  0
VERTEX
  8
0
 10
36.7128129333
 20
-37.6416565258
 30
0.0
  0
VERTEX
  8
0
 10
38.9308282179
 20
-33.1841682486
 30
0.0
  0
VERTEX
  8
0
 10
41.1614112106
 20
-32.3088895513
 30
0.0
  0
VERTEX
  8
0
 10
43.2236927471
 20
-33.857048636
 30
0.0
  0
VERTEX
  8
0
 10
45.2411035967
 20
-37.5707931725
 30
0.0
  0
VERTEX
  8
0
 10
44.5002623352
 20
-40.280708555
 30
0.0
  0
VERTEX
  8
0
 10
41.3561127915
 20
-42.9187313551
 30
0.0
  0
SEQEND
  8
0
  0
ENDSEC
  0
EOF
