  0
SECTION
  2
HEADER
  9
$ACADVER
  1
AC1009
  9
$INSBASE
 10
0.0
 20
0.0
 30
0.0
  9
$EXTMIN
 10
0.0
 20
0.0
 30
0.0
  9
$EXTMAX
 10
0.0
 20
0.0
 30
0.0
  0
ENDSEC
  0
SECTION
  2
TABLES
  0
TABLE
  2
VPORT
 70
0
  0
ENDTAB
  0
TABLE
  2
LTYPE
 70
1
  0
LTYPE
  2
CONTINUOUS
 70
0
  3
Solid line
 72
65
 73
0
 40
0.0
  0
ENDTAB
  0
TABLE
  2
LAYER
 70
1
  0
LAYER
  2
0
 70
64
 62
7
  6
continuous
  0
ENDTAB
  0
TABLE
  2
STYLE
 70
1
  0
STYLE
  2
STANDARD
 70
0
 40
0
 41
1.0
 50
0.0
 71
0
 42
1
 3
ARIAL.TTF
 4

  0
ENDTAB
  0
TABLE
  2
VIEW
 70
0
  0
ENDTAB
  0
ENDSEC
  0
SECTION
  2
BLOCKS
  0
ENDSEC
  0
SECTION
  2
ENTITIES
  0
POLYLINE
  8
0
 62
0
 70
1
 66
1
 10
0.0
 20
0.0
 30
0.0
  0
VERTEX
  8
0
 10
80.819753
 20
-91.21182
 30
0.0
  0
VERTEX
  8
0
 10
78.777843
 20
-92.94158
 30
0.0
  0
VERTEX
  8
0
 10
75.0546392031
 20
-95.4399320312
 30
0.0
  0
VERTEX
  8
0
 10
71.036043125
 20
-97.36381125
 30
0.0
  0
VERTEX
  8
0
 10
66.6886547344
 20
-98.7263398437
 30
0.0
  0
VERTEX
  8
0
 10
61.979074
 20
-99.54064
 30
0.0
  0
VERTEX
  8
0
 10
58.4469041111
 20
-99.7815966667
 30
0.0
  0
VERTEX
  8
0
 10
54.7255682222
 20
-99.74644
 30
0.0
  0
VERTEX
  8
0
 10
50.886703
 20
-99.43585
 30
0.0
  0
VERTEX
  8
0
 10
47.0176972593
 20
-98.87693
 30
0.0
  0
VERTEX
  8
0
 10
43.2384777407
 20
-98.1127366667
 30
0.0
  0
VERTEX
  8
0
 10
39.672374
 20
-97.16821
 30
0.0
  0
VERTEX
  8
0
 10
34.7985318519
 20
-95.4284607407
 30
0.0
  0
VERTEX
  8
0
 10
30.3357328148
 20
-93.2961892593
 30
0.0
  0
VERTEX
  8
0
 10
26.595076
 20
-90.92004
 30
0.0
  0
VERTEX
  8
0
 10
23.8131977407
 20
-88.5120692593
 30
0.0
  0
VERTEX
  8
0
 10
21.5084999259
 20
-85.8062740741
 30
0.0
  0
VERTEX
  8
0
 10
19.691049
 20
-82.81447
 30
0.0
  0
VERTEX
  8
0
 10
18.008786
 20
-78.16271
 30
0.0
  0
VERTEX
  8
0
 10
17.550323
 20
-76.48819
 30
0.0
  0
VERTEX
  8
0
 10
17.470523
 20
-76.20692
 30
0.0
  0
VERTEX
  8
0
 10
17.062848
 20
-76.17022
 30
0.0
  0
VERTEX
  8
0
 10
14.310848875
 20
-75.4717975
 30
0.0
  0
VERTEX
  8
0
 10
11.741504
 20
-73.87012
 30
0.0
  0
VERTEX
  8
0
 10
9.691284
 20
-71.74101
 30
0.0
  0
VERTEX
  8
0
 10
7.7342856037
 20
-68.3459337037
 30
0.0
  0
VERTEX
  8
0
 10
6.8679054963
 20
-64.932732963
 30
0.0
  0
VERTEX
  8
0
 10
7.1755225
 20
-61.82989
 30
0.0
  0
VERTEX
  8
0
 10
7.6080347
 20
-60.80331
 30
0.0
  0
VERTEX
  8
0
 10
7.864697
 20
-60.06822
 30
0.0
  0
VERTEX
  8
0
 10
7.820494
 20
-59.77982
 30
0.0
  0
VERTEX
  8
0
 10
7.2365611
 20
-58.89275
 30
0.0
  0
VERTEX
  8
0
 10
5.26302892031
 20
-55.573495
 30
0.0
  0
VERTEX
  8
0
 10
3.7009878875
 20
-52.1322
 30
0.0
  0
VERTEX
  8
0
 10
2.55032723594
 20
-48.56858
 30
0.0
  0
VERTEX
  8
0
 10
1.8109362
 20
-44.88235
 30
0.0
  0
VERTEX
  8
0
 10
1.4800641
 20
-40.19906
 30
0.0
  0
VERTEX
  8
0
 10
1.8133107
 20
-36.20687
 30
0.0
  0
VERTEX
  8
0
 10
2.2222821
 20
-33.73642
 30
0.0
  0
VERTEX
  8
0
 10
1.519288
 20
-31.34619
 30
0.0
  0
VERTEX
  8
0
 10
0.56427903
 20
-27.84453
 30
0.0
  0
VERTEX
  8
0
 10
0.281050375
 20
-25.26847
 30
0.0
  0
VERTEX
  8
0
 10
0.19924967
 20
-22.72808
 30
0.0
  0
VERTEX
  8
0
 10
0.34550105
 20
-19.40923
 30
0.0
  0
VERTEX
  8
0
 10
0.891425445185
 20
-16.0179803704
 30
0.0
  0
VERTEX
  8
0
 10
1.82984377815
 20
-12.713132963
 30
0.0
  0
VERTEX
  8
0
 10
3.1385233
 20
-9.57299
 30
0.0
  0
VERTEX
  8
0
 10
4.8182415
 20
-6.7856
 30
0.0
  0
VERTEX
  8
0
 10
5.6882578
 20
-5.42886
 30
0.0
  0
VERTEX
  8
0
 10
7.0394813
 20
-3.94611
 30
0.0
  0
VERTEX
  8
0
 10
8.2513268
 20
-2.73362
 30
0.0
  0
VERTEX
  8
0
 10
8.9730629
 20
-2.2553
 30
0.0
  0
VERTEX
  8
0
 10
11.6695369875
 20
-0.76636625
 30
0.0
  0
VERTEX
  8
0
 10
14.124277
 20
-0.21659
 30
0.0
  0
VERTEX
  8
0
 10
17.793343
 20
-0.91422
 30
0.0
  0
VERTEX
  8
0
 10
20.922698
 20
-3.3656225
 30
0.0
  0
VERTEX
  8
0
 10
23.535546
 20
-7.46044
 30
0.0
  0
VERTEX
  8
0
 10
24.458869
 20
-9.64163
 30
0.0
  0
VERTEX
  8
0
 10
24.672221
 20
-10.18659
 30
0.0
  0
VERTEX
  8
0
 10
26.384953
 20
-10.06896
 30
0.0
  0
VERTEX
  8
0
 10
29.6454745
 20
-9.64122125
 30
0.0
  0
VERTEX
  8
0
 10
32.128879
 20
-9.5338
 30
0.0
  0
VERTEX
  8
0
 10
36.64251075
 20
-9.82088375
 30
0.0
  0
VERTEX
  8
0
 10
41.076983
 20
-10.77723
 30
0.0
  0
VERTEX
  8
0
 10
43.877475
 20
-11.72774
 30
0.0
  0
VERTEX
  8
0
 10
47.408367
 20
-13.32468
 30
0.0
  0
VERTEX
  8
0
 10
51.20335
 20
-15.58607
 30
0.0
  0
VERTEX
  8
0
 10
52.405306
 20
-15.84909
 30
0.0
  0
VERTEX
  8
0
 10
54.919180875
 20
-14.94055125
 30
0.0
  0
VERTEX
  8
0
 10
57.658724
 20
-15.05526
 30
0.0
  0
VERTEX
  8
0
 10
60.49640925
 20
-15.8995725
 30
0.0
  0
VERTEX
  8
0
 10
62.968609
 20
-17.20191
 30
0.0
  0
VERTEX
  8
0
 10
64.729407
 20
-18.68963
 30
0.0
  0
VERTEX
  8
0
 10
66.623262
 20
-21.06801
 30
0.0
  0
VERTEX
  8
0
 10
67.972284
 20
-24.44061
 30
0.0
  0
VERTEX
  8
0
 10
68.266621
 20
-25.54987
 30
0.0
  0
VERTEX
  8
0
 10
68.329801
 20
-25.76271
 30
0.0
  0
VERTEX
  8
0
 10
68.684956
 20
-25.80371
 30
0.0
  0
VERTEX
  8
0
 10
70.705489
 20
-26.17795
 30
0.0
  0
VERTEX
  8
0
 10
73.543199
 20
-27.12869
 30
0.0
  0
VERTEX
  8
0
 10
76.251568375
 20
-28.56149375
 30
0.0
  0
VERTEX
  8
0
 10
78.88347
 20
-30.47033
 30
0.0
  0
VERTEX
  8
0
 10
82.132161
 20
-33.71838
 30
0.0
  0
VERTEX
  8
0
 10
84.6025792593
 20
-37.2384262963
 30
0.0
  0
VERTEX
  8
0
 10
86.7371077407
 20
-41.3953303704
 30
0.0
  0
VERTEX
  8
0
 10
88.653952
 20
-46.41929
 30
0.0
  0
VERTEX
  8
0
 10
89.984955875
 20
-50.9672384375
 30
0.0
  0
VERTEX
  8
0
 10
90.9326835
 20
-55.4989025
 30
0.0
  0
VERTEX
  8
0
 10
91.502410375
 20
-60.0458328125
 30
0.0
  0
VERTEX
  8
0
 10
91.699412
 20
-64.63958
 30
0.0
  0
VERTEX
  8
0
 10
91.608402
 20
-68.22668
 30
0.0
  0
VERTEX
  8
0
 10
91.148267375
 20
-72.53611375
 30
0.0
  0
VERTEX
  8
0
 10
89.905969
 20
-77.20947
 30
0.0
  0
VERTEX
  8
0
 10
88.549857
 20
-80.95434
 30
0.0
  0
VERTEX
  8
0
 10
86.5782247778
 20
-84.4467659259
 30
0.0
  0
VERTEX
  8
0
 10
83.9420865556
 20
-87.9447674074
 30
0.0
  0
VERTEX
  8
0
 10
80.819661
 20
-91.21186
 30
0.0
  0
SEQEND
  8
0
  0
ENDSEC
  0
EOF
