<?xml version="1.0" encoding="UTF-8" standalone="no"?>
<!-- Created with Inkscape (http://www.inkscape.org/) -->

<svg
   xmlns:dc="http://purl.org/dc/elements/1.1/"
   xmlns:cc="http://creativecommons.org/ns#"
   xmlns:rdf="http://www.w3.org/1999/02/22-rdf-syntax-ns#"
   xmlns:svg="http://www.w3.org/2000/svg"
   xmlns="http://www.w3.org/2000/svg"
   xmlns:sodipodi="http://sodipodi.sourceforge.net/DTD/sodipodi-0.dtd"
   xmlns:inkscape="http://www.inkscape.org/namespaces/inkscape"
   width="100mm"
   height="100mm"
   viewBox="0 0 100 100"
   version="1.1"
   id="svg8"
   inkscape:version="0.92.3 (2405546, 2018-03-11)"
   sodipodi:docname="Outline.svg">
  <defs
     id="defs2" />
  <sodipodi:namedview
     id="base"
     pagecolor="#ffffff"
     bordercolor="#666666"
     borderopacity="1.0"
     inkscape:pageopacity="0.0"
     inkscape:pageshadow="2"
     inkscape:zoom="1.4142136"
     inkscape:cx="77.08663"
     inkscape:cy="129.99343"
     inkscape:document-units="mm"
     inkscape:current-layer="layer1"
     showgrid="false"
     inkscape:window-width="2560"
     inkscape:window-height="1377"
     inkscape:window-x="-8"
     inkscape:window-y="1072"
     inkscape:window-maximized="1" />
  <metadata
     id="metadata5">
    <rdf:RDF>
      <cc:Work
         rdf:about="">
        <dc:format>image/svg+xml</dc:format>
        <dc:type
           rdf:resource="http://purl.org/dc/dcmitype/StillImage" />
        <dc:title></dc:title>
      </cc:Work>
    </rdf:RDF>
  </metadata>
  <g
     inkscape:label="Layer 1"
     inkscape:groupmode="layer"
     id="layer1"
     transform="translate(0,-197)">
    <path
       style="fill:none;stroke:#000000;stroke-width:0.4;stroke-miterlimit:4;stroke-dasharray:none;stroke-opacity:1"
       d="m 80.819753,288.21182 c -0.478481,0.44468 -1.47349,1.2876 -2.04191,1.72976 -4.782188,3.71995 -10.263022,5.87298 -16.798769,6.59906 -3.413708,0.37924 -7.21862,0.34329 -11.092371,-0.10479 -3.872789,-0.44797 -7.795893,-1.24126 -11.214329,-2.26764 -4.975664,-1.49394 -9.801412,-3.79963 -13.077298,-6.24817 -3.017113,-2.25512 -5.333555,-4.9747 -6.904027,-8.10557 -0.689631,-1.37483 -1.100258,-2.51028 -1.682263,-4.65176 -0.208262,-0.7663 -0.414571,-1.51983 -0.458463,-1.67452 l -0.0798,-0.28127 -0.407675,-0.0367 c -1.913163,-0.17214 -3.65172,-0.92362 -5.321344,-2.3001 -0.486511,-0.4011 -1.685636,-1.64636 -2.05022,-2.12911 -2.4745146,-3.27652 -3.43817,-7.07295 -2.5157615,-9.91112 0.1016321,-0.31272 0.2706394,-0.71386 0.4325122,-1.02658 0.2442669,-0.4719 0.264964,-0.53117 0.2566623,-0.73509 -0.00498,-0.12199 -0.02486,-0.25177 -0.044203,-0.2884 -0.019353,-0.0367 -0.2821164,-0.43582 -0.5839329,-0.88707 -2.9057529,-4.34444 -4.7139007,-9.01356 -5.4256249,-14.0104 -0.2176057,-1.52775 -0.3189997,-2.9629 -0.3308721,-4.68329 -0.010747,-1.55718 0.062071,-2.42957 0.3332466,-3.99219 0.203552,-1.17298 0.3813261,-2.24685 0.4089714,-2.47045 0.056962,-0.46073 -0.065149,-0.8759 -0.7029941,-2.39023 -0.59661006,-1.41644 -0.73324595,-1.91742 -0.95500897,-3.50166 -0.27040824,-1.93175 -0.36319172,-3.23226 -0.36502936,-5.11645 -0.001394,-1.47638 0.0277489,-2.13887 0.14625138,-3.31885 0.34226651,-3.40835 1.30662305,-6.80455 2.79302225,-9.83624 0.4058788,-0.82784 0.7844042,-1.45598 1.6797182,-2.78739 0.401836,-0.59757 0.7933443,-1.20811 0.8700163,-1.35674 0.1391807,-0.26982 0.1413639,-0.27221 1.3512235,-1.48275 l 1.2118455,-1.21249 0.7217361,-0.47832 c 2.1062361,-1.39591 3.3672901,-1.89501 5.1512141,-2.03871 1.12829,-0.0909 2.591056,0.18723 3.669066,0.69763 2.232606,1.05705 4.198273,3.29795 5.742203,6.54622 0.304922,0.64153 0.640242,1.43365 0.923323,2.18119 0.105451,0.27846 0.201459,0.5237 0.213352,0.54496 0.03029,0.0542 1.020708,-0.0139 1.712732,-0.11763 2.910989,-0.43649 3.869093,-0.52576 5.743926,-0.53516 3.150242,-0.0157 5.903408,0.36678 8.948104,1.24343 0.874838,0.25188 1.63356,0.5094 2.800492,0.95051 0.912244,0.34483 2.49471,1.06054 3.530892,1.59694 1.548096,0.8014 3.326555,1.86117 3.794983,2.26139 0.410342,0.35059 0.869092,0.45097 1.201956,0.26302 1.704503,-0.96246 3.248024,-1.1957 5.253418,-0.79383 1.980882,0.39697 3.816317,1.13898 5.309885,2.14665 0.699568,0.47198 0.98445,0.71267 1.760798,1.48772 0.917974,0.91671 1.285318,1.37773 1.893855,2.37838 0.654259,1.07581 0.942695,1.79691 1.349022,3.3726 0.127141,0.49304 0.259587,0.99221 0.294337,1.10926 l 0.06318,0.21284 0.355155,0.041 c 0.505248,0.0585 1.377305,0.21997 2.020533,0.37424 0.658076,0.15782 2.219523,0.68097 2.83771,0.95074 1.844368,0.80485 3.59786,1.90208 5.340271,3.34164 0.776962,0.64191 2.648311,2.51277 3.248691,3.24805 2.677765,3.27835 4.674387,7.16669 6.521791,12.70091 2.032534,6.08881 3.02893,12.05006 3.04546,18.22029 0.0045,1.65875 -0.0094,2.20284 -0.09101,3.5871 -0.214835,3.64231 -0.444713,4.85525 -1.702433,8.98279 -0.601797,1.97495 -0.836617,2.6234 -1.356112,3.74487 -1.579973,3.41081 -4.424033,7.18471 -7.730196,10.25752 z"
       id="path827"
       inkscape:connector-curvature="0" />
  </g>
</svg>
