<?xml version="1.0" encoding="UTF-8" standalone="no"?>
<!-- Created with Inkscape (http://www.inkscape.org/) -->

<svg
   xmlns:dc="http://purl.org/dc/elements/1.1/"
   xmlns:cc="http://creativecommons.org/ns#"
   xmlns:rdf="http://www.w3.org/1999/02/22-rdf-syntax-ns#"
   xmlns:svg="http://www.w3.org/2000/svg"
   xmlns="http://www.w3.org/2000/svg"
   xmlns:sodipodi="http://sodipodi.sourceforge.net/DTD/sodipodi-0.dtd"
   xmlns:inkscape="http://www.inkscape.org/namespaces/inkscape"
   width="100mm"
   height="100mm"
   viewBox="0 0 100 100"
   version="1.1"
   id="svg8"
   inkscape:version="0.92.3 (2405546, 2018-03-11)"
   sodipodi:docname="Silkscreen.svg">
  <defs
     id="defs2" />
  <sodipodi:namedview
     id="base"
     pagecolor="#ffffff"
     bordercolor="#666666"
     borderopacity="1.0"
     inkscape:pageopacity="0.0"
     inkscape:pageshadow="2"
     inkscape:zoom="2.8284271"
     inkscape:cx="44.336474"
     inkscape:cy="146.14649"
     inkscape:document-units="mm"
     inkscape:current-layer="layer1"
     showgrid="false"
     inkscape:window-width="2560"
     inkscape:window-height="1377"
     inkscape:window-x="-8"
     inkscape:window-y="1072"
     inkscape:window-maximized="1" />
  <metadata
     id="metadata5">
    <rdf:RDF>
      <cc:Work
         rdf:about="">
        <dc:format>image/svg+xml</dc:format>
        <dc:type
           rdf:resource="http://purl.org/dc/dcmitype/StillImage" />
        <dc:title></dc:title>
      </cc:Work>
    </rdf:RDF>
  </metadata>
  <g
     inkscape:label="Layer 1"
     inkscape:groupmode="layer"
     id="layer1"
     transform="translate(0,-197)">
    <path
       style="fill:#000000;fill-opacity:1;stroke:#000000;stroke-width:0.15000001;stroke-miterlimit:4;stroke-dasharray:none;stroke-opacity:1"
       d="m 201.6202,365.02324 c -25.37453,-2.10718 -45.50118,-6.83414 -66.19493,-15.54657 -17.1783,-7.23236 -27.33806,-13.6066 -36.838295,-23.11236 -9.054468,-9.05973 -14.183528,-17.08321 -17.711761,-27.70681 -2.248304,-6.76969 -2.959055,-12.08594 -2.611771,-19.53543 0.857957,-18.40384 8.68883,-29.71929 23.703577,-34.25118 l 3.09682,-0.93471 -0.30165,4.27448 c -0.36506,5.17289 0.18723,5.16992 2.1335,-0.0115 1.81243,-4.82511 5.21586,-11.70159 7.27361,-14.69603 0.91681,-1.33414 4.00623,-4.89666 6.86539,-7.91672 2.85916,-3.02006 5.3921,-6.00028 5.62875,-6.62271 0.23664,-0.62244 0.29015,-3.26477 0.1189,-5.87185 -0.30365,-4.62254 -0.27129,-4.82158 1.30424,-8.02192 3.06778,-6.23154 8.97179,-10.79647 16.15348,-12.48972 1.81452,-0.42782 5.59944,-0.74111 9.00514,-0.7454 7.90784,-0.01 7.64984,0.28196 8.00863,-9.06102 0.30509,-7.94472 1.07049,-11.30347 3.41896,-15.00333 2.16076,-3.40413 7.01981,-7.8026 10.25674,-9.28452 2.65002,-1.21322 3.17484,-1.28008 7.82401,-0.99684 6.0428,0.36814 6.34786,0.23686 11.15679,-4.80128 6.25062,-6.54853 12.29136,-10.5711 21.95429,-14.6195 3.01141,-1.26168 5.59461,-2.42543 5.74044,-2.58613 0.14582,-0.16069 -1.59684,-0.14301 -3.87259,0.0393 l -4.13773,0.33146 0.3071,-1.38776 c 0.6105,-2.75877 1.8795,-6.43345 2.9837,-8.63997 2.83708,-5.66935 9.58303,-11.54357 16.08282,-14.00458 8.02293,-3.0377 20.02514,-3.88334 28.95608,-2.04016 17.81747,3.67722 35.94781,17.62576 47.17884,36.29697 11.31873,18.817 20.41898,46.53507 24.04906,73.25 1.32069,9.71935 1.90285,34.41347 1.01622,43.10615 -1.97226,19.33645 -8.11908,39.61504 -15.25084,50.31315 -4.99356,7.49066 -23.14656,25.90381 -31.06125,31.5064 -15.0167,10.62988 -30.54328,16.82757 -49.73627,19.85304 -5.00894,0.78958 -30.36387,1.42662 -36.5,0.91706 z m 55.75,-29.54898 c 7.5115,-2.29682 18.43371,-9.61704 27.13512,-18.18634 10.9825,-10.81575 19.53141,-24.00604 21.36239,-32.96048 0.49824,-2.43661 -0.0996,-1.73179 -3.89135,4.58732 -8.84548,14.74154 -19.32063,26.43708 -32.39025,36.16382 -5.00691,3.72627 -12.66374,8.64407 -15.74967,10.11565 -0.94394,0.45013 -1.71624,1.00603 -1.71624,1.23534 0,0.4634 1.50714,0.18916 5.25,-0.95531 z m -49.62256,-3.6397 c 19.35753,-1.13415 36.40198,-6.15505 52.71091,-15.52739 13.09106,-7.52312 20.69442,-15.89255 28.69611,-31.58735 5.30744,-10.41019 8.75807,-21.14748 10.81161,-33.64238 1.29483,-7.87848 1.29534,-32.57438 10e-4,-42.25 -2.08013,-15.54698 -5.42747,-29.37552 -12.31831,-50.88886 -3.0917,-9.65234 -4.52876,-14.89442 -4.52876,-16.51995 0,-3.26322 -1.22343,-7.68231 -3.10332,-11.20934 -1.68097,-3.15382 -6.36508,-8.5064 -10.40147,-11.88586 -2.99639,-2.50871 -4.25704,-2.21044 -1.86202,0.44056 6.05224,6.69911 9.36159,15.07334 8.6203,21.81345 -0.71518,6.50266 -5.14709,17.90132 -10.53681,27.10021 -10.0112,17.08655 -21.87389,31.89161 -45.13511,56.33025 -24.01003,25.22536 -47.51768,46.41209 -71.48344,64.42584 -15.41736,11.58838 -30.43466,18.40163 -40.52907,18.38776 -7.06585,-0.01 -11.791873,-1.75333 -18.374922,-6.77928 -3.383418,-2.58313 -4.694142,-3.22455 -4.694142,-2.29714 0,0.22971 2.64375,3.00105 5.875,6.15854 3.959569,3.86919 6.774429,6.17884 8.633724,7.08414 3.14855,1.53306 8.63828,2.81824 12.09274,2.831 1.53008,0.006 4.41187,0.77433 8.25,2.2006 22.03996,8.19015 51.52564,14.70551 71.39854,15.77671 3.85,0.20752 7.225,0.40493 7.5,0.43867 0.275,0.0337 4.04485,-0.14634 8.37744,-0.40018 z M 143.25686,204.56121 c 0.75133,-0.18857 2.15294,-0.25099 3.11469,-0.13871 2.0101,0.23467 2.24357,-0.25188 0.62365,-1.29967 -1.96473,-1.27081 -3.51855,-1.38145 -5.375,-0.38274 -1.8256,0.98212 -3.97761,4.12323 -3.99178,5.82645 -0.006,0.77315 0.45799,0.48131 2.12708,-1.33668 1.17442,-1.27919 2.75003,-2.48008 3.50136,-2.66865 z m 30.63067,-27.6312 c -0.41287,-2.44375 0.33941,-4.37869 2.63744,-6.78371 1.6973,-1.77633 1.74502,-1.90204 0.59523,-1.56799 -1.87899,0.54589 -4.44927,2.22009 -5.00633,3.26095 -0.82478,1.54113 -0.56428,4.26356 0.54262,5.67075 1.39034,1.76754 1.61015,1.66397 1.23104,-0.58 z"
       id="path4599"
       inkscape:connector-curvature="0"
       transform="matrix(0.26458333,0,0,0.26458333,0,197)" />
    <path
       style="fill:#000000;fill-opacity:1;stroke:#000000;stroke-width:0.15000001;stroke-miterlimit:4;stroke-dasharray:none;stroke-opacity:1"
       d="m 209.00056,115.9299 c -1.57044,-1.82435 -4.82876,-7.0196 -6.55914,-10.4583 -5.30322,-10.538772 -6.25697,-24.229989 -2.26516,-32.51668 2.27984,-4.732785 5.42053,-6.627479 10.98586,-6.627479 5.77195,0 14.0229,2.435534 19.39278,5.724405 7.4536,4.565083 14.17498,13.063707 16.04552,20.28821 0.31862,1.230562 0.68706,2.610634 0.81877,3.066828 0.255,0.883205 0.4456,0.824871 -9.6799,2.962487 -5.86189,1.237515 -6.51593,0.951506 -10.68628,-4.673035 -4.96804,-6.700395 -7.93281,-13.50599 -7.93281,-18.209646 0,-3.345028 -0.8789,-2.546886 -1.27571,1.158496 -0.76605,7.153278 0.60611,13.140715 4.83919,21.115855 1.36729,2.575979 2.4186,4.733189 2.33625,4.793789 -0.0823,0.0606 -1.44348,0.95611 -3.02473,1.99001 -3.98378,2.60482 -7.67523,6.01514 -10.1587,9.38505 -1.93064,2.61977 -2.16199,2.78292 -2.83594,2.00001 z"
       id="path4601"
       inkscape:connector-curvature="0"
       transform="matrix(0.26458333,0,0,0.26458333,0,197)" />
    <path
       style="fill:#000000;fill-opacity:1;stroke:#000000;stroke-width:0.15000001;stroke-miterlimit:4;stroke-dasharray:none;stroke-opacity:1"
       d="m 102.1202,228.12761 c -5.585089,-3.97367 -11.730634,-10.66341 -16.502843,-17.96416 -2.976975,-4.55432 -4.502295,-6.44374 -5.379813,-6.66398 -0.673625,-0.16907 -3.18111,-0.15971 -5.57219,0.0208 -6.112922,0.46147 -11.052573,-0.55722 -17.043876,-3.5149 -3.945311,-1.94767 -5.470367,-3.07039 -9.014192,-6.63611 -7.047054,-7.09058 -9.734486,-13.4415 -9.407443,-22.2316 0.170554,-4.58409 0.358053,-5.41307 1.992695,-8.81022 3.04778,-6.33396 6.916039,-9.87665 13.677659,-12.52647 2.611631,-1.02348 3.841464,-1.17402 9.499999,-1.16291 5.668233,0.0112 7.529218,0.248 14.543019,1.85107 10.336886,2.3626 13.179056,2.40086 16.496261,0.22208 2.786705,-1.83035 15.293744,-14.17007 21.816504,-21.52464 5.60075,-6.31499 5.63339,-6.49268 3.21014,-17.47488 -2.44072,-11.06139 -2.97021,-14.921211 -2.69229,-19.625755 0.43208,-7.31391 4.18424,-13.951303 10.20628,-18.054412 8.39313,-5.718649 16.85363,-6.057355 26.81134,-1.073361 4.75253,2.378716 10.52094,7.797453 13.26914,12.46479 3.29498,5.595945 4.23284,9.300244 4.55193,17.978868 0.2477,6.73718 0.41977,7.97007 1.23831,8.87294 0.52284,0.57671 3.22284,2.44241 6,4.14601 6.00965,3.68653 14.6693,11.82852 18.06889,16.98876 1.22676,1.86211 2.23048,3.4966 2.23048,3.63219 0,0.43618 -14.7092,11.78572 -15.2745,11.78572 -0.29992,0 -1.53201,-2.19375 -2.73798,-4.875 -5.91549,-13.15204 -12.94887,-23.01991 -25.74832,-36.125 -6.87261,-7.03672 -7.12225,-7.36767 -8.48616,-11.249999 -1.56633,-4.458536 -3.20262,-7.967086 -3.55248,-7.617233 -0.12632,0.12632 0.11438,2.202597 0.53488,4.613948 2.56791,14.725474 -0.77156,28.857224 -10.103,42.753284 -13.85484,20.63214 -34.1701,35.62317 -53.155807,39.22469 -5.283484,1.00226 -13.070629,0.98952 -18.628152,-0.0305 -4.25323,-0.78062 -5.550539,-0.69625 -4.557881,0.29641 0.260666,0.26066 2.945519,1.28356 5.96634,2.27311 l 5.492402,1.79918 7.750327,7.62107 c 11.122097,10.9366 18.833172,16.46124 32.625331,23.37457 4.45624,2.23369 7.875,4.24695 7.875,4.63746 0,0.74987 -11.34228,15.31415 -11.90598,15.28811 -0.18921,-0.009 -2.03152,-1.21651 -4.09402,-2.68394 z"
       id="path4603"
       inkscape:connector-curvature="0"
       transform="matrix(0.26458333,0,0,0.26458333,0,197)" />
    <path
       style="fill:#000000;fill-opacity:1;stroke:#000000;stroke-width:0.15000001;stroke-miterlimit:4;stroke-dasharray:none;stroke-opacity:1"
       d="m 60.555272,276.88413 c -7.810834,-2.52866 -16.171301,-9.91962 -20.387137,-18.02299 -4.142445,-7.9623 -5.608728,-18.82958 -3.159358,-23.4154 2.617951,-4.90144 7.847699,-6.85447 18.36142,-6.857 7.709609,-0.002 11.564622,0.79608 18.14425,3.75564 3.202678,1.44058 12.605749,7.39835 12.605749,7.98698 0,0.15426 -0.677525,0.6807 -1.505616,1.16986 -2.787982,1.6469 -7.335618,6.27691 -10.008936,10.19022 -1.460063,2.1373 -2.698073,3.94874 -2.751134,4.02541 -0.05306,0.0767 -1.684844,-0.77635 -3.626186,-1.89562 -5.728342,-3.30263 -11.144352,-5.07259 -16.426978,-5.36836 -4.182893,-0.2342 -9.565843,0.15654 -9.064407,0.65798 0.114615,0.11461 1.991487,0.51982 4.170825,0.90046 6.501578,1.13555 13.305216,4.74732 19.264068,10.2265 l 2.663423,2.44903 -1.506226,7.4453 c -1.728032,8.54169 -1.60973,8.42377 -6.773757,6.75199 z"
       id="path4611"
       inkscape:connector-curvature="0"
       transform="matrix(0.26458333,0,0,0.26458333,0,197)" />
  </g>
</svg>
