<?xml version="1.0" encoding="UTF-8" standalone="no"?>
<!-- Created with Inkscape (http://www.inkscape.org/) -->

<svg
   xmlns:dc="http://purl.org/dc/elements/1.1/"
   xmlns:cc="http://creativecommons.org/ns#"
   xmlns:rdf="http://www.w3.org/1999/02/22-rdf-syntax-ns#"
   xmlns:svg="http://www.w3.org/2000/svg"
   xmlns="http://www.w3.org/2000/svg"
   xmlns:sodipodi="http://sodipodi.sourceforge.net/DTD/sodipodi-0.dtd"
   xmlns:inkscape="http://www.inkscape.org/namespaces/inkscape"
   width="100mm"
   height="100mm"
   viewBox="0 0 100 100"
   version="1.1"
   id="svg8"
   inkscape:version="0.92.3 (2405546, 2018-03-11)"
   sodipodi:docname="Soldermask.svg">
  <defs
     id="defs2" />
  <sodipodi:namedview
     id="base"
     pagecolor="#ffffff"
     bordercolor="#666666"
     borderopacity="1.0"
     inkscape:pageopacity="0.0"
     inkscape:pageshadow="2"
     inkscape:zoom="2.8284271"
     inkscape:cx="44.336474"
     inkscape:cy="160.28863"
     inkscape:document-units="mm"
     inkscape:current-layer="layer1"
     showgrid="false"
     inkscape:window-width="2560"
     inkscape:window-height="1377"
     inkscape:window-x="-8"
     inkscape:window-y="1072"
     inkscape:window-maximized="1" />
  <metadata
     id="metadata5">
    <rdf:RDF>
      <cc:Work
         rdf:about="">
        <dc:format>image/svg+xml</dc:format>
        <dc:type
           rdf:resource="http://purl.org/dc/dcmitype/StillImage" />
        <dc:title></dc:title>
      </cc:Work>
    </rdf:RDF>
  </metadata>
  <g
     inkscape:label="Layer 1"
     inkscape:groupmode="layer"
     id="layer1"
     transform="translate(0,-197)">
    <path
       style="fill:#000000;stroke:#000000;stroke-width:0.40000001;stroke-miterlimit:4;stroke-dasharray:none;stroke-opacity:1"
       d="m 80.943302,288.37672 c -0.480403,0.44644 -1.479394,1.29276 -2.050089,1.73668 -4.801333,3.73484 -10.304116,5.89649 -16.866024,6.62547 -3.427372,0.38077 -7.247521,0.34467 -11.13678,-0.10528 -3.888286,-0.44975 -7.827096,-1.24623 -11.259217,-2.27672 -4.995581,-1.49992 -9.840653,-3.81483 -13.129651,-6.27317 -2.73161,-2.04174 -4.887664,-4.45865 -6.441862,-7.22129 -0.981831,-1.74524 -1.486097,-3.03832 -2.178808,-5.58713 -0.20909,-0.76935 -0.416224,-1.52591 -0.460291,-1.68122 l -0.08012,-0.2824 -0.409299,-0.0368 c -1.920823,-0.17283 -3.66634,-0.92731 -5.342653,-2.30932 -0.488465,-0.40269 -1.6923774,-1.65295 -2.0584307,-2.13762 -2.4844254,-3.28964 -3.4519304,-7.10125 -2.5258322,-9.95079 0.1020444,-0.31397 0.2717201,-0.71673 0.4342439,-1.03069 0.245239,-0.47381 0.2660236,-0.53331 0.2576892,-0.73804 -0.00492,-0.12243 -0.024963,-0.25277 -0.044379,-0.28956 -0.019505,-0.0368 -0.2832472,-0.43756 -0.586271,-0.89062 -2.9173779,-4.36183 -4.7327649,-9.04963 -5.4473467,-14.06649 -0.218473,-1.53386 -0.3202713,-2.97475 -0.3321877,-4.70202 -0.010737,-1.56343 0.062318,-2.43931 0.3345767,-4.00819 0.2043615,-1.17767 0.3828489,-2.25584 0.4106065,-2.48032 0.057188,-0.46258 -0.065405,-0.87941 -0.7058089,-2.39981 C 0.72637114,226.84925 0.58918764,226.34626 0.36653922,224.7557 0.0950488,222.8162 0.00189364,221.5105 5.0488706e-5,219.61875 -0.00139898,218.13646 0.02790652,217.47131 0.14687623,216.28661 c 0.34364022,-3.42199 1.31186097,-6.83178 2.80419867,-9.87562 0.4075122,-0.83114 0.7875472,-1.4618 1.686444,-2.79854 0.4034293,-0.6 0.7965274,-1.21293 0.8735103,-1.36218 0.1397275,-0.27089 0.1419196,-0.27329 1.3566498,-1.48867 L 8.0843359,199.54423 8.808961,199.064 c 2.114677,-1.4015 3.380772,-1.9026 5.17184,-2.04687 1.132806,-0.0913 2.601427,0.18798 3.683758,0.70043 2.242528,1.06175 4.214395,3.30972 5.765183,6.57242 0.30614,0.64409 0.642812,1.43939 0.927022,2.18992 0.105862,0.27958 0.202265,0.52579 0.214213,0.54715 0.03042,0.0544 1.02479,-0.0134 1.719588,-0.11811 2.977833,-0.44651 3.881268,-0.52878 5.90154,-0.5374 3.022925,-0.0134 5.856814,0.38689 8.849306,1.24851 0.878342,0.25289 1.640091,0.51144 2.811695,0.9543 0.915892,0.34621 2.5047,1.0648 3.545029,1.60335 1.554298,0.80462 3.339875,1.86861 3.810177,2.27043 0.411986,0.35201 0.872575,0.45278 1.206772,0.26408 1.711325,-0.96631 3.261018,-1.20049 5.274445,-0.797 1.988812,0.39855 3.831591,1.14353 5.331146,2.15524 0.702363,0.47386 0.988385,0.71553 1.767847,1.49368 0.921648,0.92038 1.29045,1.38324 1.901437,2.38789 0.65687,1.08011 0.94646,1.8041 1.354419,3.38611 0.127648,0.49501 0.260632,0.99616 0.295514,1.1137 l 0.06342,0.21368 0.356575,0.0413 c 1.356243,0.1569 3.113429,0.61665 4.501175,1.17767 1.965091,0.79444 3.845288,1.94377 5.73817,3.50764 0.780073,0.64446 2.658909,2.52282 3.261689,3.26105 2.68849,3.29146 4.69311,7.19537 6.547898,12.75174 2.040677,6.11321 3.041071,12.0983 3.057663,18.29324 0.0045,1.6654 -0.0094,2.21166 -0.09137,3.60147 -0.215699,3.65688 -0.446497,4.87468 -1.709253,9.01873 -0.604203,1.98286 -0.839966,2.63392 -1.361542,3.75988 -1.586287,3.42447 -4.441727,7.21349 -7.761131,10.29859 z m 0.966829,-5.53868 c 2.259089,-2.45375 2.74041,-3.13294 3.67432,-5.18441 1.880086,-4.12987 2.900498,-8.71347 3.04268,-13.66732 0.221398,-7.71435 -0.971722,-14.76309 -3.710137,-21.91878 -1.581991,-4.13386 -3.241696,-7.14042 -5.311399,-9.62159 -0.460111,-0.55158 -2.034272,-2.12554 -2.547488,-2.54694 -2.613959,-2.14732 -5.252123,-3.46437 -7.964752,-3.97624 -1.884833,-0.35568 -3.690846,-0.33229 -5.66719,0.0734 -1.572756,0.32281 -2.834094,0.86919 -3.976029,1.72235 -0.52538,0.39252 -1.360836,1.27796 -1.717481,1.82019 -0.563546,0.8567 -0.971334,1.85733 -1.175378,2.8841 -0.05937,0.2987 -0.09753,0.55349 -0.08482,0.5662 0.01268,0.0119 0.486635,-0.0197 1.053162,-0.072 0.566526,-0.0523 1.030588,-0.0874 1.031237,-0.078 0.0024,0.0359 -0.488245,0.24984 -1.274609,0.5555 -1.458133,0.56678 -2.294797,0.98732 -3.354494,1.68606 -1.114557,0.73492 -1.839437,1.35242 -2.954765,2.51705 -0.774863,0.80903 -0.829625,0.86 -1.048522,0.97535 -0.31089,0.16369 -0.552454,0.17483 -1.077229,0.0495 -0.821814,-0.19622 -1.764538,-0.13809 -2.468726,0.15207 -0.719664,0.29659 -1.273757,0.70709 -2.034854,1.50749 -0.714937,0.75185 -1.038492,1.25118 -1.329324,2.05131 -0.328015,0.90246 -0.419143,1.59221 -0.434215,3.28643 -0.0092,1.0306 -0.03023,1.41649 -0.08637,1.58235 -0.1551,0.45832 -0.272882,0.49105 -1.731907,0.48128 -1.266735,-0.009 -1.828259,0.0294 -2.507855,0.1694 -1.785703,0.36774 -3.142108,1.28817 -4.121728,2.79693 -0.288735,0.44459 -0.425965,0.71993 -0.565027,1.13313 -0.224521,0.66717 -0.244261,1.11648 -0.08412,1.9151 0.106488,0.5311 0.109143,0.80756 0.01074,1.11216 -0.123652,0.38248 -0.16564,0.4332 -1.305965,1.57729 -1.153672,1.15789 -1.414524,1.46009 -2.035706,2.36082 -0.750708,1.08868 -1.205535,2.01036 -1.940823,3.9329 -0.159878,0.41805 -0.312169,0.81451 -0.338434,0.88101 -0.0425,0.10767 -0.0578,0.12049 -0.139519,0.11632 -0.08642,-0.004 -0.08446,-0.0674 0.03422,-1.09134 0.0694,-0.59783 0.122534,-1.09041 0.118194,-1.09476 -0.02911,-0.0291 -0.922926,0.21886 -1.45604,0.40385 -1.365947,0.47394 -2.268547,1.02262 -3.185153,1.93625 -0.384278,0.38299 -0.546615,0.57045 -0.775812,0.89539 -0.846875,1.2006 -1.328522,2.45198 -1.678315,4.36048 -0.208263,1.13631 -0.261727,2.86679 -0.125143,4.04976 0.361272,3.12885 1.79225,6.23381 4.200765,9.11491 0.433539,0.51862 1.751974,1.83717 2.291048,2.29127 2.43788,2.0536 5.295296,3.66256 9.484572,5.34059 3.842075,1.53894 7.498876,2.53117 11.933113,3.23787 4.034454,0.64299 9.605682,0.81354 13.337373,0.40828 3.756329,-0.40792 7.188984,-1.40116 10.374591,-3.00189 2.31706,-1.16428 4.235067,-2.47531 6.180178,-4.22438 0.717957,-0.64562 2.471119,-2.41059 3.44332,-3.46652 z m -7.268739,-1.32928 c -2.690542,2.47227 -5.372098,4.04359 -7.656382,4.48645 -0.167468,0.0325 -0.304536,0.0492 -0.304543,0.0373 -3.16e-4,-0.0119 0.149587,-0.0987 0.332352,-0.19296 2.105094,-1.08417 4.410881,-2.66671 6.404596,-4.39569 0.612608,-0.53121 2.326592,-2.24413 2.84469,-2.84278 1.723053,-1.99123 3.223199,-4.14493 4.387961,-6.29961 0.153504,-0.28384 0.285936,-0.50824 0.294409,-0.49856 0.04693,0.0537 -0.273955,1.16927 -0.521741,1.81376 -0.941253,2.44808 -3.174739,5.49705 -5.7813,7.89216 z m -2.549626,-3.08872 c -0.05822,0.0456 -0.269796,0.22213 -0.471031,0.39152 -0.819208,0.68972 -1.837655,1.35451 -3.277995,2.13992 -4.242383,2.31338 -8.539102,3.53764 -13.404687,3.81944 -0.32231,0.0186 -1.101337,0.0362 -1.731166,0.0391 -2.391351,0.0104 -4.258097,-0.14898 -7.18337,-0.61451 -0.39648,-0.0631 -0.844494,-0.13435 -0.995595,-0.15845 -1.538316,-0.24497 -4.421125,-0.85553 -6.187862,-1.31058 -2.779042,-0.71577 -5.725164,-1.65813 -7.835472,-2.50628 -0.478281,-0.19223 -0.75745,-0.24264 -1.459947,-0.2636 -1.581338,-0.0473 -2.925892,-0.50782 -4.083355,-1.39892 -0.368553,-0.28373 -0.436913,-0.34895 -1.800322,-1.71729 l -1.015638,-1.01943 0.08815,-0.0881 0.08815,-0.0881 0.813396,0.63651 c 0.447362,0.35008 0.974656,0.73859 1.171752,0.86333 1.628974,1.031 3.328791,1.36305 5.256391,1.02679 1.666851,-0.29077 4.257779,-1.40098 6.677973,-2.8615 1.397234,-0.8432 2.290261,-1.49148 4.811684,-3.49292 4.002011,-3.17671 6.132751,-4.99871 9.531728,-8.15062 1.850992,-1.71646 7.459668,-7.34475 8.704695,-8.73507 0.112274,-0.12497 0.409243,-0.44658 0.660247,-0.71445 5.198443,-5.5437 8.535765,-9.99314 10.859382,-14.47814 0.475348,-0.9175 0.869039,-1.85709 1.225737,-2.9253 0.519279,-1.55518 0.674576,-2.27732 0.680802,-3.16595 0.0084,-1.18831 -0.338015,-2.35596 -1.058304,-3.56805 -0.416589,-0.70105 -0.873327,-1.30944 -1.313424,-1.74953 -0.331319,-0.33132 -0.350383,-0.35693 -0.301668,-0.40564 0.130572,-0.13064 0.08937,-0.1615 1.626182,1.2198 0.31061,0.27914 1.052113,1.11229 1.33808,1.50341 0.900488,1.23152 1.307092,2.39907 1.359342,3.9033 0.0095,0.27565 0.04709,0.65053 0.08337,0.83307 0.0363,0.18256 0.434508,1.43105 0.884948,2.77448 1.103747,3.29193 1.674414,5.22254 2.259881,7.64542 1.116884,4.62206 1.599327,8.4818 1.571086,12.56944 -0.02519,3.64727 -0.475874,6.66175 -1.460802,9.77072 -0.964969,3.04598 -2.573889,6.08012 -4.586136,8.64868 -0.291709,0.37247 -1.300325,1.44794 -1.526242,1.62746 z m 1.043241,-3.51213 c 0.407635,-0.63011 0.987825,-1.51761 1.289313,-1.97221 0.740958,-1.11723 0.838375,-1.35273 0.821079,-1.98507 -0.01357,-0.49325 -0.198009,-1.30376 -0.548475,-2.40928 -0.72512,-2.28737 -1.848768,-4.54416 -3.816847,-7.6659 -0.240764,-0.3819 -0.440958,-0.6948 -0.444883,-0.69534 -0.0037,-5.4e-4 -1.033751,1.19213 -2.28855,2.65034 -1.254746,1.45825 -2.662978,3.09455 -3.129358,3.63628 -0.466413,0.5417 -0.934337,1.08661 -1.039952,1.21078 l -0.19203,0.22578 4.196978,4.19697 c 2.308346,2.30835 4.210283,4.197 4.226596,4.19698 0.01655,3.3e-4 0.06497,-0.0544 0.107174,-0.12198 0.04274,-0.067 0.411202,-0.63738 0.818836,-1.2675 z m -6.199781,-1.86232 c -2.275496,-2.2736 -4.145404,-4.13403 -4.155665,-4.13397 -0.01044,-1e-4 -0.623324,0.52082 -1.362527,1.15732 -3.228563,2.78022 -4.15355,3.57773 -5.077768,4.37786 -0.540326,0.46778 -1.040244,0.89578 -1.110843,0.95119 -0.113526,0.0889 -0.121937,0.10722 -0.07459,0.15452 0.06716,0.0673 1.149924,0.76623 1.669518,1.07788 3.431117,2.05797 5.751691,3.06627 8.259223,3.58866 0.695693,0.14495 1.088017,0.17592 1.308989,0.10334 0.168325,-0.0553 0.981961,-0.46766 1.521364,-0.77112 1.018398,-0.57293 2.435115,-1.61528 3.006483,-2.21198 l 0.15318,-0.1595 -4.137116,-4.13395 z m -3.372784,7.67198 c -0.657389,-0.21209 -1.36087,-0.45026 -1.563284,-0.52931 -0.653279,-0.25511 -2.07698,-0.9999 -4.849225,-2.53678 -2.272323,-1.25974 -2.285384,-1.26675 -2.522326,-1.35488 -0.248819,-0.0926 -0.48825,-0.13153 -0.628125,-0.1023 -0.05356,0.0104 -0.515568,0.25715 -1.02668,0.54659 -1.688648,0.95625 -6.456901,3.72779 -6.517248,3.78814 -0.01617,0.0161 0.659386,0.29826 1.501227,0.6269 1.351742,0.52766 2.27494,0.90931 3.490914,1.44311 1.900367,0.83427 4.009849,1.01621 6.398758,0.55193 2.136309,-0.41518 3.872124,-0.8713 5.379153,-1.41345 0.574731,-0.20678 1.529453,-0.59147 1.531019,-0.61691 8.44e-4,-0.009 -0.536795,-0.19092 -1.194183,-0.40298 z M 76.367916,269.0533 c 0.863178,-2.17736 1.415149,-4.29891 1.765078,-6.78411 0.249963,-1.77531 0.288838,-2.36904 0.189609,-2.89643 -0.04535,-0.24096 -0.714241,-2.2664 -1.066439,-3.22916 -0.198434,-0.54245 -1.474585,-3.9776 -1.675634,-4.51049 -0.04263,-0.11303 -0.08503,-0.19802 -0.09419,-0.18886 -0.01669,0.0167 -1.031553,1.75381 -2.27349,3.89146 -0.934929,1.60924 -2.027075,3.52565 -2.078555,3.64731 -0.0594,0.14032 -0.0602,0.37741 -0.0019,0.59859 0.05653,0.21488 0.272672,0.60555 1.244707,2.24981 1.682458,2.84598 1.980608,3.46448 3.089569,6.40919 0.257114,0.68275 0.49332,1.30427 0.524897,1.38119 l 0.05738,0.13973 0.05571,-0.0922 c 0.03012,-0.0512 0.149133,-0.32796 0.263364,-0.61607 z m 1.937154,-14.61259 c -0.205459,-2.389 -0.664846,-5.41836 -1.103592,-7.27739 -0.110559,-0.46847 -0.334659,-1.19025 -0.369546,-1.19025 -0.04214,-4e-5 -1.052411,3.94206 -1.065893,4.15901 -0.0082,0.13152 0.01849,0.32674 0.06081,0.44514 0.09589,0.26838 2.471542,5.80824 2.528347,5.89595 0.06348,0.0981 0.03551,-1.03679 -0.05012,-2.03246 z m -28.751141,28.18301 c -2.571077,-1.08706 -4.090706,-1.7155 -4.226817,-1.74799 -0.171106,-0.0409 -0.434063,-0.03 -0.645711,0.0268 -0.09347,0.0252 -0.390979,0.10364 -0.661041,0.17456 -1.489224,0.39109 -3.189547,0.86646 -3.189551,0.89171 2.1e-5,0.0419 0.827661,0.24225 1.937026,0.46884 1.635185,0.33399 3.044164,0.56566 4.998335,0.82188 1.273565,0.16699 2.694099,0.2543 3.216651,0.19771 l 0.218939,-0.0237 -0.06928,-0.0859 c -0.04629,-0.0574 -0.568934,-0.29712 -1.578476,-0.72395 z m 15.571969,-18.20475 c 1.05992,-1.22316 2.285213,-2.64213 2.722827,-3.15332 0.437606,-0.51121 0.952759,-1.11198 1.144809,-1.33504 0.192052,-0.22305 0.382028,-0.46259 0.422295,-0.53217 0.07889,-0.13674 0.07024,-0.4577 -0.0177,-0.6546 -0.142039,-0.31802 -3.586571,-4.89186 -4.198488,-5.57498 l -0.313974,-0.35052 -0.357807,0.38965 c -0.413229,0.45014 -1.56982,1.69066 -2.272346,2.43748 -0.575882,0.61215 -2.355596,2.51271 -3.9625,4.23176 -0.637467,0.68196 -1.236081,1.31685 -1.330164,1.41093 l -0.171033,0.17111 0.293286,0.25928 c 0.260165,0.22999 1.001499,0.92121 4.456657,4.15541 1.187082,1.11115 1.186798,1.11091 1.31126,1.05316 0.159287,-0.0738 0.252426,-0.17673 2.272823,-2.50821 z m -3.628439,3.10317 c -0.455229,-0.41787 -0.793001,-0.73378 -2.625219,-2.45576 -1.812174,-1.70309 -2.142976,-2.01236 -2.570156,-2.403 l -0.373108,-0.34119 -0.09858,0.098 c -0.05409,0.0541 -0.625902,0.58962 -1.270492,1.19035 -0.644588,0.60072 -1.717525,1.60196 -2.384458,2.22481 -1.589576,1.48477 -2.006001,1.87293 -2.42742,2.26272 -1.183958,1.09517 -2.07065,1.92893 -2.070671,1.94668 -4.22e-4,0.0104 0.88397,0.68834 1.964384,1.50455 2.849535,2.1527 3.913938,2.93498 4.049187,2.97594 0.124144,0.0376 0.44191,0.004 0.620711,-0.0647 0.295247,-0.11408 2.945821,-2.17448 4.288014,-3.33309 0.183037,-0.15795 1.000009,-0.95108 1.815585,-1.76244 l 1.483253,-1.47482 -0.400564,-0.36765 z m 9.323965,-9.90882 c 0.222463,-0.40342 0.550907,-0.99947 0.729746,-1.32467 0.414405,-0.75356 1.960455,-3.53655 2.37169,-4.26916 0.497041,-0.88549 0.661838,-1.45453 0.600769,-2.07441 -0.04855,-0.49276 -0.201843,-0.85823 -0.733642,-1.74906 -0.536967,-0.89947 -0.733246,-1.25501 -1.589259,-2.87871 -0.328549,-0.6232 -0.618202,-1.15392 -0.643678,-1.17941 -0.03121,-0.0312 -0.05734,-0.0265 -0.08018,0.0149 -0.01857,0.0333 -0.07555,0.11587 -0.126411,0.18356 -0.05087,0.0677 -0.910678,1.20932 -1.910599,2.53694 -3.276051,4.34969 -4.053249,5.38746 -4.05324,5.41223 -2.1e-5,0.0212 2.851573,3.52797 4.321689,5.3148 0.274368,0.33347 0.531623,0.65238 0.571692,0.70868 0.04808,0.0677 0.08372,0.0916 0.104848,0.0704 0.01761,-0.0176 0.214007,-0.36205 0.436567,-0.76535 z m -17.790427,17.62044 c -0.0718,-0.0543 -1.409624,-1.14724 -2.97315,-2.42877 -1.563515,-1.28152 -2.852253,-2.33005 -2.863853,-2.33005 -0.02115,6e-5 -0.474127,0.33894 -4.117238,3.0816 -1.091055,0.82138 -2.419464,1.82123 -2.951996,2.22189 -0.532502,0.40069 -0.985416,0.74561 -1.006383,0.76658 -0.03014,0.0301 -0.0051,0.0643 0.120088,0.16294 0.216575,0.17088 0.49242,0.32886 1.90236,1.08953 1.306985,0.70513 1.933082,1.04836 2.631467,1.44263 0.545649,0.30802 0.849429,0.41064 1.243262,0.41994 0.566274,0.0134 0.754599,-0.0558 2.455254,-0.90082 1.975777,-0.98183 3.648696,-1.96822 5.307457,-3.1294 0.409782,-0.28684 0.405603,-0.28034 0.252701,-0.3961 z m -9.584689,4.67 c -0.149869,-0.0898 -1.279267,-0.7679 -2.509779,-1.50679 -1.230522,-0.7389 -2.295346,-1.36414 -2.366277,-1.38942 -0.07091,-0.0252 -0.202592,-0.0304 -0.292574,-0.0119 -0.174519,0.0368 -0.252829,0.0729 -2.496297,1.15209 -3.010589,1.44804 -3.306616,1.5924 -3.306613,1.61263 5.2e-5,0.0362 0.372646,0.14509 2.142216,0.62643 0.949351,0.2582 2.110414,0.57929 2.580138,0.71355 0.96713,0.2764 1.409325,0.35412 1.988147,0.34942 0.757969,-0.006 1.479798,-0.16505 3.075635,-0.67704 0.482633,-0.15485 1.029892,-0.32324 1.216114,-0.37423 l 0.338599,-0.0926 -0.04845,-0.1196 c -0.04193,-0.10364 -0.08492,-0.14151 -0.320892,-0.28296 z m 32.069971,-31.9953 c 0.994205,-2.91241 1.042345,-4.80933 0.174724,-6.88486 -0.209481,-0.50111 -0.443017,-1.27249 -0.745303,-2.46175 -0.147154,-0.57895 -0.274398,-1.05264 -0.282748,-1.05266 -0.0085,0 -0.236989,0.47919 -0.508071,1.06487 -0.738531,1.59555 -1.356691,2.89297 -1.711775,3.5927 -0.660823,1.30222 -0.655698,1.38282 0.166264,2.61234 0.585802,0.87628 0.864527,1.3384 2.190445,3.63181 0.157505,0.27242 0.296197,0.50531 0.308208,0.51753 0.03795,0.0386 0.09843,-0.11319 0.408253,-1.01998 z m -29.533915,-3.63223 c -0.148958,-0.15339 -0.414358,-0.57981 -0.479541,-0.76985 -0.274269,-0.79972 0.211914,-1.46624 1.34853,-1.84864 0.182476,-0.0614 0.331806,-0.10363 0.331815,-0.0939 4.22e-4,0.0104 -0.103909,0.0811 -0.230937,0.1586 -0.350852,0.21398 -0.693622,0.56646 -0.848905,0.87295 -0.207835,0.40986 -0.246582,0.97668 -0.102253,1.49491 0.03461,0.12422 0.05795,0.23066 0.05195,0.23665 -0.006,0.006 -0.03774,-0.0169 -0.07065,-0.0505 z m -7.148203,6.77481 c -0.466541,-0.0623 -0.890039,-0.0482 -1.122604,0.0374 -0.167946,0.0619 -0.230006,0.11184 -0.60364,0.48806 -0.229157,0.23043 -0.475022,0.49402 -0.545595,0.58652 -0.120759,0.1564 -0.128394,0.16108 -0.11806,0.0707 0.02268,-0.19879 0.194799,-0.65363 0.329374,-0.87048 0.09234,-0.14883 0.225316,-0.30335 0.39494,-0.45926 0.218697,-0.20183 0.293699,-0.24794 0.521641,-0.32552 0.282307,-0.096 0.5185,-0.095 0.792355,0.004 0.187776,0.0677 0.542729,0.30677 0.641782,0.4323 0.06274,0.0796 0.04687,0.0816 -0.290137,0.0365 z m -21.365274,19.39894 c 0.192694,-1.01751 0.508426,-2.52944 0.61811,-2.95984 0.266348,-1.04517 0.218957,-1.14236 -1.049758,-2.15307 -1.89396,-1.50877 -3.537422,-2.24302 -5.279695,-2.3588 -0.147556,-0.0104 -0.322395,-0.0219 -0.388402,-0.0268 l -0.120014,-0.009 0.131481,-0.0303 c 2.290214,-0.52697 4.529434,-0.0236 7.197605,1.61796 l 0.454376,0.27955 0.252774,-0.42803 c 0.936146,-1.58553 2.039772,-2.7594 3.344544,-3.55742 0.191296,-0.11706 0.347893,-0.22135 0.347877,-0.23188 -4.2e-5,-0.0234 -1.333751,-0.95754 -1.765213,-1.23645 -1.662683,-1.07475 -3.562882,-1.77126 -5.380806,-1.97227 -1.525476,-0.16868 -3.511284,0.0496 -4.554137,0.50078 -0.811617,0.35108 -1.4225965,0.95511 -1.6966011,1.67762 -0.2850576,0.7511 -0.2841465,1.76592 0.00283,3.16596 0.3457309,1.68657 0.9168741,2.9783 1.9116861,4.3236 0.34081,0.46087 1.406199,1.49801 1.939488,1.88808 0.809265,0.59193 1.774596,1.13396 2.370811,1.33122 0.341235,0.11288 1.579984,0.39778 1.611981,0.37073 0.0097,-0.009 0.03285,-0.0944 0.05118,-0.19143 z m 47.989532,-48.44881 c -0.203417,-0.90149 -0.311161,-1.24138 -0.534202,-1.68511 -0.56493,-1.12392 -1.209895,-2.02396 -2.062979,-2.87885 -1.402623,-1.40578 -3.164716,-2.33358 -5.237937,-2.75842 -1.555397,-0.31872 -2.539599,-0.29532 -3.347605,0.0796 -0.547028,0.25384 -1.053782,0.76138 -1.360363,1.36226 -0.419618,0.82277 -0.675128,2.19528 -0.676745,3.63511 -0.0025,2.31178 0.648676,4.39271 2.082233,6.65334 0.296365,0.46735 0.979663,1.41832 1.1198,1.55845 l 0.08203,0.082 0.199225,-0.32639 c 0.771728,-1.26384 1.907382,-2.34195 3.472345,-3.29646 0.272682,-0.16639 0.494778,-0.31004 0.493478,-0.31929 -0.0013,-0.009 -0.16305,-0.28053 -0.359365,-0.6028 -1.410019,-2.31467 -1.915681,-4.29151 -1.622143,-6.34167 0.03858,-0.26941 0.08767,-0.55316 0.109098,-0.63056 0.03724,-0.13466 0.03931,-0.12959 0.04626,0.11542 0.04975,1.75127 0.719185,3.31376 2.323103,5.42221 0.521036,0.68492 0.834272,0.99116 1.165824,1.13972 0.250486,0.11228 0.388846,0.11035 1.095849,-0.0149 0.518352,-0.0919 3.080975,-0.66271 3.108942,-0.69254 0.0072,-0.007 -0.03643,-0.23321 -0.09691,-0.50122 z M 41.02113,245.76394 c 0.0061,-0.17454 0.01567,-0.54313 0.02139,-0.81909 0.01118,-0.53847 0.05517,-2.30615 0.07316,-2.93649 l 0.01089,-0.38409 -0.390256,0.0464 c -0.503809,0.0598 -1.323646,0.0593 -1.810642,-0.001 -1.373484,-0.17041 -2.52854,-0.6664 -3.413178,-1.46565 -0.565852,-0.51121 -1.003671,-1.14674 -1.282949,-1.86215 -0.07625,-0.19534 -0.147199,-0.37694 -0.157652,-0.40356 -0.01491,-0.0379 -0.151065,0.0835 -0.628423,0.56094 -0.335153,0.33515 -0.604096,0.61464 -0.598191,0.62054 0.0063,0.006 0.159044,0.0777 0.339798,0.15888 0.751209,0.33767 1.281789,0.70216 1.848244,1.26967 0.891936,0.89385 1.357464,1.94876 1.52108,3.44805 0.05592,0.5125 0.06351,1.48224 0.01514,1.93488 l -0.03002,0.28085 0.411619,-0.007 c 0.226384,-0.004 0.933137,-0.0192 1.570563,-0.0341 0.637418,-0.0149 1.446829,-0.0303 1.798672,-0.0343 0.351855,-0.004 0.650972,-0.0181 0.664702,-0.0312 0.01372,-0.0134 0.02996,-0.16684 0.03595,-0.34141 z m 11.792702,-12.90247 c -0.708304,-1.15829 -1.316318,-1.9057 -2.399672,-2.94989 -1.182147,-1.13941 -1.860739,-1.63839 -3.690667,-2.71399 -0.544599,-0.32009 -0.758701,-0.51404 -0.910247,-0.82456 -0.138758,-0.28432 -0.155719,-0.53204 -0.08241,-1.20336 0.276522,-2.53237 -0.507072,-5.00014 -2.211894,-6.96597 -1.835107,-2.11606 -4.813151,-3.27161 -7.206728,-2.79637 -1.930919,0.38338 -3.750122,1.76294 -4.6153,3.49994 -0.599866,1.2043 -0.783337,2.48202 -0.584897,4.07301 0.136074,1.09099 0.25398,1.69422 0.746686,3.82036 0.405283,1.74895 0.443401,2.05789 0.323003,2.61832 -0.109157,0.5081 -0.158975,0.57558 -1.514348,2.05093 -2.207981,2.40348 -4.06255,4.25446 -5.113208,5.10267 -0.372142,0.30064 -0.742792,0.52178 -1.072584,0.63975 -0.486392,0.17399 -1.301175,0.10289 -2.630837,-0.22955 -2.232774,-0.55825 -3.63955,-0.78483 -4.89516,-0.78838 -0.784662,-0.001 -1.288399,0.0534 -1.918292,0.212 -1.826354,0.45971 -3.304944,1.63195 -4.120465,3.26671 -0.492402,0.98706 -0.704013,1.96036 -0.680096,3.12795 0.02534,1.23573 0.384352,2.42963 1.084597,3.60667 1.486091,2.49797 4.235286,4.27575 6.983352,4.51582 0.56469,0.0494 1.049177,0.0322 1.753982,-0.0616 0.858731,-0.11452 1.138532,-0.0808 1.449732,0.17446 0.171328,0.14047 0.324129,0.36515 0.858128,1.26151 1.316306,2.20952 2.97935,4.03248 4.809326,5.27179 0.250622,0.16971 0.977096,0.62813 0.999005,0.63037 0.006,4.1e-4 0.138609,-0.16095 0.29456,-0.35909 0.155958,-0.19814 0.530765,-0.67101 0.832895,-1.05083 2.147429,-2.69998 2.066464,-2.59136 2.073707,-2.78201 0.0046,-0.12452 -0.01014,-0.15182 -0.136059,-0.25044 -0.07771,-0.0608 -0.56195,-0.3088 -1.075976,-0.55086 -2.605877,-1.22712 -3.688221,-1.84696 -5.724562,-3.27833 -1.642999,-1.15489 -3.320174,-2.64025 -4.465399,-3.95471 -0.66515,-0.76344 -1.099975,-1.19001 -1.382727,-1.35646 -0.262633,-0.15461 -0.644934,-0.29851 -0.964667,-0.36314 -0.386042,-0.078 -0.921206,-0.26887 -2.190349,-0.78113 -0.08506,-0.0343 0.0867,-0.1622 0.21069,-0.15671 0.06387,0.003 0.387879,0.0638 0.71995,0.1354 3.243859,0.70017 6.571084,0.16293 9.933971,-1.60405 3.07089,-1.61355 5.887399,-4.04893 8.2974,-7.17466 1.635616,-2.12133 2.583375,-3.7979 3.261081,-5.76877 0.867406,-2.52253 1.00693,-4.97128 0.438328,-7.69303 -0.06727,-0.32198 -0.110813,-0.61125 -0.09675,-0.6428 0.01432,-0.0312 0.02975,-0.0531 0.03513,-0.0477 0.02036,0.0204 0.342756,0.72266 0.436743,0.95134 0.05471,0.13317 0.267492,0.71714 0.472764,1.2976 l 0.373218,1.0554 0.458224,0.45822 c 0.252035,0.25203 0.899543,0.87814 1.438908,1.39136 1.067485,1.01564 1.417259,1.39547 2.491501,2.70537 2.06212,2.51444 3.450111,4.78207 4.430106,7.23765 0.212693,0.53295 0.290323,0.68832 0.384373,0.76931 0.206883,0.17815 0.240573,0.16078 1.258826,-0.64852 1.151569,-0.91528 2.873074,-2.26228 2.969222,-2.32327 0.04984,-0.0309 0.09466,-0.0271 0.135164,0.0119 0.121177,0.11796 0.02832,-0.0757 -0.271526,-0.56608 z m 1.778794,-2.51667 c 0.124099,-0.44895 0.232583,-0.84414 0.241071,-0.8782 0.01327,-0.0534 -0.03061,-0.0983 -0.314228,-0.32161 -0.478425,-0.37688 -1.632482,-1.49513 -2.00499,-1.94278 -1.399937,-1.68223 -2.313695,-3.52759 -2.711438,-5.47584 -0.177594,-0.86983 -0.232482,-1.41801 -0.232477,-2.32173 3e-6,-1.19738 0.123384,-2.07065 0.46082,-3.26154 0.199568,-0.70432 0.216657,-1.04812 0.06236,-1.25405 -0.366022,-0.48846 -2.896405,-1.99914 -5.015939,-2.99459 -4.542099,-2.13323 -9.197866,-3.19709 -14.35637,-3.2805 -1.367618,-0.0221 -3.639552,0.0908 -4.23175,0.2104 -0.34774,0.0702 -1.050188,0.25559 -1.049854,0.27708 2.11e-4,0.009 0.07158,0.53798 0.158786,1.17722 0.08721,0.63922 0.188089,1.37914 0.224195,1.64426 0.0361,0.26513 0.09854,0.72116 0.138743,1.01339 0.128454,0.93354 0.351468,2.81871 0.421282,3.56127 0.08515,0.90551 0.09217,2.28124 0.01506,2.95281 -0.15396,1.34116 -0.579127,2.74442 -1.00611,3.32073 -0.271149,0.36605 -0.522468,0.68569 -0.538926,0.68571 -0.0084,-1.1e-4 -0.116405,-0.22422 -0.240245,-0.49824 -0.572735,-1.26734 -1.268865,-2.43234 -2.085339,-3.48992 -0.134776,-0.17458 -0.516186,-0.58575 -0.895009,-0.96488 -0.552137,-0.55268 -0.738613,-0.71878 -1.140212,-1.01616 -1.400145,-1.03686 -2.912539,-1.67359 -4.666803,-1.96476 -1.072989,-0.1781 -2.383867,-0.22221 -3.639238,-0.12243 -0.404801,0.0322 -0.736002,0.0514 -0.736006,0.0429 -2.1e-5,-0.035 1.474743,-0.8953 1.827898,-1.06638 1.198584,-0.58062 2.211768,-0.77385 3.3818,-0.64492 1.873786,0.20649 3.487578,0.8626 4.975983,2.02305 0.839377,0.65445 1.788838,1.63541 2.473337,2.5554 0.164621,0.22123 0.30789,0.40225 0.318392,0.40225 0.0174,-5.3e-4 -0.0547,-1.42903 -0.108889,-2.14058 -0.08237,-1.08145 -0.309409,-2.56943 -0.628004,-4.11595 -0.242634,-1.17774 -0.23679,-1.15121 -0.364765,-1.65685 -0.789153,-3.11813 -1.845352,-5.5781 -3.335502,-7.76861 -0.6613,-0.97212 -1.213055,-1.62605 -1.772135,-2.10029 -1.148152,-0.97391 -2.303484,-1.43835 -3.62319,-1.45644 -1.58746,-0.0218 -2.935107,0.52866 -4.7987382,1.9601 -0.4082325,0.31355 -1.9673799,1.87164 -2.3053639,2.30391 -2.2675331,2.89934 -3.8157021,6.4486 -4.5435393,10.41638 -0.4845771,2.64164 -0.6768777,6.12806 -0.4777085,8.66119 0.1126469,1.43275 0.333485,2.79437 0.6787655,4.18505 0.1124531,0.45291 0.1249495,0.48184 0.1831668,0.42363 0.034358,-0.0343 0.4657475,-0.59988 0.9586173,-1.25672 0.9479372,-1.26324 0.9311072,-1.24569 1.0669069,-1.11182 0.050224,0.0495 0.03822,0.086 -0.090428,0.27264 -0.5318951,0.77178 -0.9134333,1.87005 -1.1571303,3.33084 -0.4421265,2.65024 -0.6104124,4.72246 -0.5868675,7.22655 0.0153,1.62804 0.091501,2.74295 0.291437,4.26393 0.6617686,5.03451 2.5059348,9.89409 5.4716074,14.4183 0.2811803,0.42895 0.5327421,0.69929 0.7003256,0.75265 0.1888632,0.0601 0.4457532,0.0218 0.9511432,-0.14212 2.98773,-0.96853 6.976285,-0.42752 9.961041,1.35114 0.684071,0.40765 1.058259,0.69462 1.685873,1.29293 0.636163,0.60647 0.926064,0.95604 1.303507,1.57178 0.229217,0.37394 0.397233,0.48924 0.68197,0.46799 0.185089,-0.0134 1.454124,-0.38051 1.454117,-0.4202 5.27e-4,-0.0104 -0.192185,-0.18016 -0.427127,-0.37444 -1.17716,-0.97368 -2.60686,-2.36914 -3.409554,-3.3279 -0.471709,-0.56343 -1.081218,-1.39048 -1.442962,-1.95796 -0.179911,-0.28225 -0.355045,-0.54109 -0.38921,-0.57526 -0.12061,-0.12064 -0.414526,-0.17791 -0.889058,-0.17335 -2.783486,0.0268 -5.138331,-0.78989 -7.280796,-2.52513 -0.592064,-0.47953 -1.559726,-1.44682 -1.992899,-1.99214 -2.572418,-3.23826 -2.7539042,-7.76441 -0.437283,-10.90593 0.508695,-0.68986 1.441274,-1.61061 2.108359,-2.0818 2.018265,-1.42529 4.506168,-1.9274 7.439356,-1.5014 0.763323,0.1108 1.411499,0.25616 2.825315,0.63333 0.570757,0.15226 1.119695,0.28258 1.219869,0.2896 0.25198,0.0176 0.619891,-0.0495 0.823024,-0.15017 0.204129,-0.10125 1.105578,-0.73887 1.769048,-1.25139 2.094984,-1.61834 3.5769,-3.53492 3.768626,-4.87423 0.09593,-0.66998 0.03448,-1.11914 -0.281692,-2.0585 -0.474073,-1.40855 -0.652802,-2.38096 -0.673073,-3.662 -0.0425,-2.68646 0.754205,-4.99131 2.350986,-6.80136 1.869597,-2.11929 4.600936,-3.18279 7.364507,-2.86745 1.800713,0.20546 3.456952,0.90453 5.098636,2.15205 0.443103,0.33671 1.64285,1.55472 2.006362,2.03687 1.03029,1.3666 1.735978,2.84359 2.089169,4.37257 0.201594,0.87271 0.266212,1.49597 0.264029,2.54646 -7.82e-4,0.37152 0.02368,0.7441 0.05436,0.82794 0.0809,0.22119 0.302575,0.42245 0.752679,0.68337 1.236198,0.7166 2.634229,1.91419 4.22478,3.61906 0.665909,0.71379 1.042538,1.1602 1.325959,1.57167 0.03331,0.0483 0.06527,0.0831 0.07128,0.077 0.006,-0.006 0.112289,-0.37804 0.236384,-0.82697 z m -22.015147,19.01942 c 0.272,-0.42891 0.600108,-0.78971 1.346628,-1.48119 l 0.721798,-0.66865 0.13005,-0.37007 c 0.420166,-1.19576 0.437447,-2.59622 0.0465,-3.7704 -0.294306,-0.88389 -0.906781,-1.688 -1.583538,-2.07895 -0.469168,-0.27105 -1.23428,-0.43247 -1.719707,-0.36286 -0.419846,0.0602 -0.552124,0.12541 -1.165539,0.57437 -1.643342,1.20279 -3.17955,2.03454 -4.912307,2.65966 -0.456254,0.16461 -1.291395,0.41335 -1.67469,0.49879 -0.126158,0.028 -0.24042,0.0622 -0.253987,0.0758 -0.06581,0.0658 0.251255,1.12038 0.49845,1.65792 0.344076,0.74823 0.798019,1.40879 1.460171,2.12483 1.400503,1.51447 2.892753,2.25124 4.576795,2.25965 0.784597,0.004 1.446086,-0.14509 1.855598,-0.41797 0.209661,-0.13958 0.527558,-0.47041 0.673746,-0.70095 z m 0.117955,-1.0411 c -0.929546,0.67281 -1.984038,0.69449 -3.074108,0.0632 -0.307985,-0.17838 -0.387543,-0.24386 -0.813099,-0.66943 -0.423964,-0.42395 -0.49106,-0.50539 -0.663293,-0.8043 -0.514443,-0.89311 -0.552704,-1.82639 -0.110902,-2.70478 0.410493,-0.81612 1.151651,-1.24402 2.21609,-1.27944 0.710709,-0.0237 1.235355,0.10946 1.800396,0.45675 0.248018,0.15244 0.346347,0.23817 0.668418,0.5828 0.457158,0.48915 0.641752,0.78736 0.824458,1.33191 0.108471,0.32325 0.128841,0.46446 0.129841,0.89906 9.54e-4,0.42345 -0.01957,0.57671 -0.114839,0.85779 -0.06379,0.18823 -0.164876,0.42678 -0.224599,0.53013 -0.115764,0.20034 -0.482892,0.62377 -0.638421,0.73628 z m 12.413794,-11.62154 c 0.141815,-0.32087 0.259107,-0.97595 0.270693,-1.51161 0.02882,-1.33267 -0.437192,-2.52652 -1.472933,-3.77336 -0.387046,-0.46591 -1.233467,-1.27052 -1.669736,-1.58728 -0.646676,-0.46949 -1.499314,-0.88651 -2.219086,-1.08536 -0.618695,-0.17092 -0.532789,-0.21812 -0.766062,0.42094 -1.110316,3.04204 -1.410483,3.65426 -2.899421,5.91374 -0.536696,0.81445 -0.678783,1.11241 -0.764649,1.60335 -0.14617,0.83568 0.115286,1.58542 0.786569,2.25555 0.970471,0.96856 2.216493,1.36317 3.905406,1.23629 0.893246,-0.0671 1.500585,-0.26124 1.990928,-0.63639 0.209936,-0.16059 0.320518,-0.27582 0.582173,-0.606 0.338638,-0.42743 0.503819,-0.57827 1.208004,-1.10298 0.438999,-0.32703 0.925995,-0.85072 1.048057,-1.12694 z m -2.542501,1.70801 c -0.499039,0.28079 -0.892553,0.38177 -1.483668,0.38079 -0.633533,-0.001 -1.199574,-0.19252 -1.711842,-0.57904 -0.801522,-0.60478 -1.554393,-2.00861 -1.574667,-2.93613 -0.01297,-0.59732 0.182723,-1.0916 0.625112,-1.57819 0.911433,-1.00255 2.164492,-1.15701 3.399311,-0.41908 0.449102,0.26839 0.959002,0.66634 1.165654,0.90972 0.769362,0.90617 0.97973,2.24207 0.505579,3.21068 -0.153528,0.3136 -0.650317,0.85636 -0.925448,1.01128 z m -1.186568,-11.64738 c -0.896756,-1.11937 -1.648942,-2.04702 -1.671537,-2.06144 -0.02256,-0.0149 -0.05094,0.20785 -0.0629,0.49399 -0.01193,0.28612 -0.04331,0.97561 -0.06958,1.53221 -0.03902,0.82683 -0.03494,1.01588 0.02229,1.03321 0.101671,0.0307 3.076309,1.09858 3.351116,1.20294 l 0.232137,0.0881 -0.08554,-0.1269 c -0.04705,-0.0698 -0.819257,-1.04278 -1.715994,-2.16214 z m -18.090537,19.70133 c -0.350439,-0.97249 -0.648832,-1.78395 -0.663106,-1.80326 -0.01417,-0.0192 -0.17871,-0.0261 -0.365484,-0.0151 -0.186722,0.0104 -0.59597,0.0304 -0.909401,0.0433 -0.313431,0.0134 -0.855304,0.0349 -1.204149,0.0492 -0.348865,0.0149 -0.619137,0.0413 -0.60061,0.0598 0.0309,0.0309 0.905753,0.72795 2.503778,1.99493 0.347304,0.27534 0.904489,0.71885 1.238189,0.98557 0.333692,0.26672 0.613733,0.47793 0.622317,0.46935 0.0085,-0.009 -0.27111,-0.81127 -0.621539,-1.78374 z"
       id="path870"
       inkscape:connector-curvature="0" />
    <path
       style="fill:#000000;fill-opacity:1;stroke:#000000;stroke-width:0.15000001;stroke-miterlimit:4;stroke-dasharray:none;stroke-opacity:1"
       d="m 155.8702,118.271 c -3.025,-1.09915 -5.69437,-2.19173 -5.93193,-2.42794 -0.24256,-0.24118 -0.24256,-2.61812 0,-5.42176 l 0.43193,-4.99229 5.25,6.52614 c 6.1339,7.62489 6.69231,8.38204 6.15335,8.34331 -0.22185,-0.016 -2.87835,-0.9283 -5.90335,-2.02746 z"
       id="path4605"
       inkscape:connector-curvature="0"
       transform="matrix(0.26458333,0,0,0.26458333,0,197)" />
    <path
       style="fill:#000000;fill-opacity:1;stroke:#000000;stroke-width:0.15000001;stroke-miterlimit:4;stroke-dasharray:none;stroke-opacity:1"
       d="m 138.61151,182.01948 c -0.0226,-10.28578 -3.79337,-17.44889 -11.35824,-21.57686 l -2.61693,-1.42799 1.95189,-1.90598 1.9519,-1.90597 1.2891,2.54392 c 3.73868,7.37792 10.81022,11.28544 20.47794,11.31549 l 4.93698,0.0153 -0.22655,7.87291 c -0.1246,4.33009 -0.32124,7.96538 -0.43698,8.0784 -0.11573,0.11302 -3.75417,0.36913 -8.08542,0.56913 l -7.875,0.36364 z"
       id="path4607"
       inkscape:connector-curvature="0"
       transform="matrix(0.26458333,0,0,0.26458333,0,197)" />
    <path
       style="fill:#000000;fill-opacity:1;stroke:#000000;stroke-width:0.15000001;stroke-miterlimit:4;stroke-dasharray:none;stroke-opacity:1"
       d="m 82.007556,186.83544 -7.362641,-5.87164 2.612641,-0.31383 c 1.436952,-0.17261 3.852348,-0.31579 5.367547,-0.31818 l 2.754907,-0.004 2.154773,6.04865 c 1.185125,3.32676 2.082917,6.11218 1.995093,6.18982 -0.08782,0.0777 -3.472868,-2.50107 -7.52232,-5.73047 z"
       id="path4609"
       inkscape:connector-curvature="0"
       transform="matrix(0.26458333,0,0,0.26458333,0,197)" />
    <path
       style="fill:#000000;fill-opacity:1;stroke:#000000;stroke-width:0.15000001;stroke-miterlimit:4;stroke-dasharray:none;stroke-opacity:1"
       d="m 89.312381,234.02437 c -9.288715,-12.65194 -29.72948,-19.05877 -46.863259,-14.68853 -5.199376,1.32618 -4.995702,1.42999 -8.758492,-4.46427 -8.294024,-12.99225 -14.579295,-28.54168 -17.533672,-43.37737 -2.173351,-10.9137 -2.71723,-17.73655 -2.38311,-29.89564 0.412124,-14.99771 2.116186,-25.7816 5.020452,-31.77112 0.866743,-1.7875 1.650897,-3.41875 1.742563,-3.625 0.09167,-0.20625 -0.159824,-0.375 -0.558869,-0.375 -0.399045,0 -2.161545,1.9079 -3.916667,4.23977 -1.755122,2.33187 -3.33434,4.24437 -3.509375,4.25 -0.568244,0.0183 -2.448355,-11.06925 -3.0081307,-17.739769 -0.6082549,-7.24821 0.011401,-20.433765 1.3523847,-28.777185 3.025424,-18.823776 10.83955,-35.560038 21.704659,-46.486945 4.970048,-4.998318 10.840424,-9.012024 15.400086,-10.529382 4.68153,-1.5579133 11.262795,-1.2374881 15.31631,0.745712 13.657515,6.682001 25.718595,33.303079 28.30003,62.463525 0.70569,7.9716 0.766685,7.75636 -1.418095,5.004175 -6.594005,-8.306515 -14.786045,-13.567975 -24.045275,-15.443445 -7.08831,-1.43575 -12.164299,-0.4175 -19.711105,3.95407 l -3.572619,2.069475 8.75,0.28545 c 6.003105,0.19584 9.761194,0.561125 11.971074,1.163585 7.216425,1.96735 13.44005,5.729425 18.80759,11.368875 3.75188,3.941935 5.69667,6.76867 9.00795,13.09296 l 2.586115,4.939269 1.29863,-1.702594 c 3.11055,-4.07814 4.828644,-10.886145 4.828644,-19.13368 0,-2.963095 -0.670069,-10.48381 -1.527649,-17.14608 -0.8402,-6.527281 -1.65708,-12.919953 -1.81528,-14.205935 l -0.287635,-2.338149 2.19028,-0.661851 c 3.549814,-1.072667 28.128264,-0.896186 35.338814,0.253745 11.41007,1.819662 22.04535,4.892242 32.5966,9.417299 9.13722,3.918629 22.0136,11.415691 22.70607,13.220236 0.1679,0.437535 -0.20244,2.854575 -0.82297,5.371195 -0.91394,3.706605 -1.12113,5.905205 -1.09081,11.575675 0.0327,6.126025 0.20724,7.556915 1.3976,11.46054 2.68418,8.802459 6.48214,14.878509 13.69689,21.912559 l 4.48543,4.3731 -0.7424,2.66728 -0.7424,2.66729 -7.56627,-7.57563 c -4.87866,-4.8847 -9.09668,-8.60032 -11.87475,-10.46037 l -4.30847,-2.88473 -0.31653,-3.02836 c -0.17409,-1.6656 -0.31652,-3.97187 -0.31652,-5.125044 0,-4.879425 -3.34206,-14.160345 -7.06829,-19.628705 -2.35861,-3.461325 -7.76263,-8.95682 -10.93171,-11.116765 -7.06404,-4.81461 -13.72888,-7.01593 -21.20498,-7.003775 -9.38845,0.01525 -16.09671,2.797255 -22.85861,9.479705 -3.6638,3.62076 -4.65768,4.978425 -6.59786,9.012905 -3.11884,6.485435 -4.02695,11.25094 -3.70336,19.434185 0.20243,5.119294 0.54481,7.310224 1.80727,11.564764 2.28963,7.71611 2.05168,10.14961 -1.51465,15.49023 -2.7048,4.05046 -7.21069,8.56632 -12.614254,12.64214 -6.30711,4.75736 -6.25027,4.74749 -14.85912,2.57941 -13.49959,-3.39979 -24.425631,-2.85949 -33.141553,1.63886 -5.140183,2.65288 -11.936707,9.56641 -14.465927,14.71496 -5.229474,10.64527 -4.270463,24.00182 2.461205,34.27821 2.815608,4.29823 9.905193,11.0319 14.48867,13.7613 5.539156,3.29849 12.145055,5.40676 17.884775,5.7079 7.697015,0.40384 7.552555,0.34787 9.89856,3.835 3.532955,5.25142 8.313475,10.68987 13.606905,15.47959 2.78461,2.51963 5.12826,4.73042 5.20811,4.91286 0.14757,0.33715 -3.742885,1.46059 -5.05799,1.46059 -0.39599,0 -1.811245,-1.48638 -3.14501,-3.30307 z"
       id="path4613"
       inkscape:connector-curvature="0"
       transform="matrix(0.26458333,0,0,0.26458333,0,197)" />
  </g>
</svg>
