<?xml version="1.0" encoding="UTF-8" standalone="no"?>
<!-- Created with Inkscape (http://www.inkscape.org/) -->

<svg
   xmlns:dc="http://purl.org/dc/elements/1.1/"
   xmlns:cc="http://creativecommons.org/ns#"
   xmlns:rdf="http://www.w3.org/1999/02/22-rdf-syntax-ns#"
   xmlns:svg="http://www.w3.org/2000/svg"
   xmlns="http://www.w3.org/2000/svg"
   xmlns:sodipodi="http://sodipodi.sourceforge.net/DTD/sodipodi-0.dtd"
   xmlns:inkscape="http://www.inkscape.org/namespaces/inkscape"
   width="100mm"
   height="100mm"
   viewBox="0 0 100 100"
   version="1.1"
   id="svg8"
   inkscape:version="0.92.3 (2405546, 2018-03-11)"
   sodipodi:docname="Tin.svg">
  <defs
     id="defs2" />
  <sodipodi:namedview
     id="base"
     pagecolor="#ffffff"
     bordercolor="#666666"
     borderopacity="1.0"
     inkscape:pageopacity="0.0"
     inkscape:pageshadow="2"
     inkscape:zoom="2.8284271"
     inkscape:cx="44.336474"
     inkscape:cy="146.14649"
     inkscape:document-units="mm"
     inkscape:current-layer="layer1"
     showgrid="false"
     inkscape:window-width="2560"
     inkscape:window-height="1377"
     inkscape:window-x="-8"
     inkscape:window-y="1072"
     inkscape:window-maximized="1" />
  <metadata
     id="metadata5">
    <rdf:RDF>
      <cc:Work
         rdf:about="">
        <dc:format>image/svg+xml</dc:format>
        <dc:type
           rdf:resource="http://purl.org/dc/dcmitype/StillImage" />
        <dc:title />
      </cc:Work>
    </rdf:RDF>
  </metadata>
  <g
     inkscape:label="Layer 1"
     inkscape:groupmode="layer"
     id="layer1"
     transform="translate(0,-197)">
    <path
       style="fill:#000000;fill-opacity:1;stroke:#000000;stroke-width:0.15000001;stroke-miterlimit:4;stroke-dasharray:none;stroke-opacity:1"
       d="m 165.22673,310.37339 c -5.12258,-2.68927 -16.48312,-8.99819 -16.82594,-9.34406 -0.17927,-0.18087 6.48852,-5.42941 14.8173,-11.66342 l 15.14325,-11.33457 11.06148,9.00963 11.06148,9.00964 -1.12878,0.88777 c -2.83653,2.23088 -11.80282,7.54705 -18.73225,11.10646 -9.0563,4.65191 -10.54273,4.87671 -15.39654,2.32855 z"
       id="path4575"
       inkscape:connector-curvature="0"
       transform="matrix(0.26458333,0,0,0.26458333,0,197)" />
    <path
       style="fill:#000000;fill-opacity:1;stroke:#000000;stroke-width:0.15000001;stroke-miterlimit:4;stroke-dasharray:none;stroke-opacity:1"
       d="m 191.98306,284.68278 c -6.05348,-4.54723 -11.00633,-8.44715 -11.00633,-8.66648 0,-0.53765 29.85958,-28.31582 30.43752,-28.31582 0.46267,0 21.68985,19.5869 21.95919,20.26236 0.0807,0.20235 -2.9568,3.30537 -6.75,6.89559 -9.51196,9.003 -21.06076,18.09205 -22.98827,18.09205 -0.35518,0 -5.59863,-3.72046 -11.65211,-8.2677 z"
       id="path4577"
       inkscape:connector-curvature="0"
       transform="matrix(0.26458333,0,0,0.26458333,0,197)" />
    <path
       style="fill:#000000;fill-opacity:1;stroke:#000000;stroke-width:0.15000001;stroke-miterlimit:4;stroke-dasharray:none;stroke-opacity:1"
       d="m 225.97673,253.81209 c -5.9125,-5.55468 -10.68713,-10.21466 -10.6103,-10.35552 0.0768,-0.14085 6.82684,-7.41633 15,-16.16774 l 14.8603,-15.91166 1.43231,1.66166 c 2.4766,2.87315 14.89734,19.5394 15.42488,20.69723 0.29258,0.64214 0.32325,1.42664 0.0732,1.87225 -0.95704,1.70552 -24.34075,28.34077 -24.86515,28.32269 -0.31088,-0.0107 -5.40274,-4.56423 -11.31524,-10.11891 z"
       id="path4579"
       inkscape:connector-curvature="0"
       transform="matrix(0.26458333,0,0,0.26458333,0,197)" />
    <path
       style="fill:#000000;fill-opacity:1;stroke:#000000;stroke-width:0.15000001;stroke-miterlimit:4;stroke-dasharray:none;stroke-opacity:1"
       d="m 264.19799,229.55176 c -0.84081,-1.0182 -4.96143,-6.06558 -9.15694,-11.21639 l -7.62819,-9.36512 3.44064,-4.63488 c 1.89235,-2.54919 7.05847,-9.4098 11.48025,-15.2458 l 8.03961,-10.61091 4.15311,7.61091 c 7.65317,14.02504 7.67122,14.07575 6.37658,17.9113 -0.60934,1.80523 -13.69444,25.78192 -14.62639,26.80089 -0.41827,0.45733 -0.91592,0.15807 -2.07867,-1.25 z"
       id="path4581"
       inkscape:connector-curvature="0"
       transform="matrix(0.26458333,0,0,0.26458333,0,197)" />
    <path
       style="fill:#000000;fill-opacity:1;stroke:#000000;stroke-width:0.15000001;stroke-miterlimit:4;stroke-dasharray:none;stroke-opacity:1"
       d="m 280.99335,190.82548 c -1.48629,-2.54375 -4.01056,-6.67054 -5.60948,-9.17064 -1.89458,-2.9624 -2.90714,-5.0706 -2.90714,-6.05283 0,-0.86648 1.82939,-5.3107 4.30336,-10.45436 2.36684,-4.92094 4.5305,-9.50967 4.80814,-10.19717 0.45009,-1.11455 0.65508,-0.70822 1.89187,3.75 0.7629,2.75 2.08673,7.05819 2.94186,9.57375 2.05129,6.03439 2.1268,11.25992 0.26917,18.62643 -1.14404,4.53676 -2.48722,8.54982 -2.86163,8.54982 -0.0736,0 -1.34986,-2.08125 -2.83615,-4.625 z"
       id="path4583"
       inkscape:connector-curvature="0"
       transform="matrix(0.26458333,0,0,0.26458333,0,197)" />
    <path
       style="fill:#000000;fill-opacity:1;stroke:#000000;stroke-width:0.15000001;stroke-miterlimit:4;stroke-dasharray:none;stroke-opacity:1"
       d="m 291.06221,212.3208 -4.66452,-10.87968 1.86306,-7.49532 c 1.02469,-4.12242 2.02404,-7.49532 2.2208,-7.49532 0.82244,0 3.79029,16.73779 5.00912,28.25 1.04413,9.86207 0.75295,9.7056 -4.42846,-2.37968 z"
       id="path4585"
       inkscape:connector-curvature="0"
       transform="matrix(0.26458333,0,0,0.26458333,0,197)" />
    <path
       style="fill:#000000;fill-opacity:1;stroke:#000000;stroke-width:0.15000001;stroke-miterlimit:4;stroke-dasharray:none;stroke-opacity:1"
       d="m 285.01239,268.06696 c -3.31378,-8.77924 -5.34294,-12.98049 -10.94565,-22.66232 -2.79951,-4.83771 -5.09001,-9.26131 -5.09001,-9.83023 0,-0.56892 0.92956,-2.68579 2.06568,-4.70416 3.09589,-5.49997 13.00114,-22.53966 13.69962,-23.56702 0.52373,-0.77033 1.14091,0.53803 4.36332,9.25 6.63082,17.92677 7.05298,19.44371 6.67441,23.98307 -0.46995,5.63514 -2.20103,15.43253 -3.60472,20.40163 -1.42546,5.04616 -4.2921,13.01614 -4.67729,13.00403 -0.14906,-0.005 -1.26747,-2.64844 -2.48536,-5.875 z"
       id="path4587"
       inkscape:connector-curvature="0"
       transform="matrix(0.26458333,0,0,0.26458333,0,197)" />
    <path
       style="fill:#000000;fill-opacity:1;stroke:#000000;stroke-width:0.15000001;stroke-miterlimit:4;stroke-dasharray:none;stroke-opacity:1"
       d="m 256.91465,283.5402 -15.63927,-15.41028 12.22802,-14.19538 c 6.72541,-7.80746 12.42018,-14.20408 12.65504,-14.21472 0.67081,-0.0304 7.06052,10.8171 10.59152,17.98066 4.04699,8.21038 6.79977,16.35432 7.09835,21 l 0.22494,3.5 -5.42326,8.37457 c -2.98279,4.60602 -5.57464,8.37477 -5.75966,8.375 -0.18502,2.4e-4 -7.37407,-6.93419 -15.97568,-15.40985 z"
       id="path4589"
       inkscape:connector-curvature="0"
       transform="matrix(0.26458333,0,0,0.26458333,0,197)" />
    <path
       style="fill:#000000;fill-opacity:1;stroke:#000000;stroke-width:0.15000001;stroke-miterlimit:4;stroke-dasharray:none;stroke-opacity:1"
       d="m 245.47673,314.17295 c -9.28124,-1.9934 -23.92854,-8.74882 -34.5333,-15.92695 l -2.2833,-1.54552 14.33138,-12.32993 14.33138,-12.32992 15.45192,15.48654 15.45192,15.48655 -2.25,2.04385 c -4.20119,3.81627 -14.37084,9.94177 -16.35838,9.85316 -0.49039,-0.0219 -2.35412,-0.35386 -4.14162,-0.73778 z"
       id="path4591"
       inkscape:connector-curvature="0"
       transform="matrix(0.26458333,0,0,0.26458333,0,197)" />
    <path
       style="fill:#000000;fill-opacity:1;stroke:#000000;stroke-width:0.15000001;stroke-miterlimit:4;stroke-dasharray:none;stroke-opacity:1"
       d="m 203.58211,325.87635 c -3.46978,-0.4973 -6.81057,-1.67851 -19.16147,-6.77494 l -8.3061,-3.4274 3.3061,-1.96261 c 16.46751,-9.77569 24.86138,-14.2927 26.01961,-14.00201 0.67711,0.16995 6.92277,3.41208 13.87926,7.20475 9.2616,5.04942 14.18893,7.416 18.40269,8.83875 3.16499,1.06863 5.75453,2.09148 5.75453,2.273 0,1.17056 -18.4481,6.35615 -27.27553,7.6669 -5.59013,0.83005 -7.87638,0.86331 -12.61909,0.18356 z"
       id="path4593"
       inkscape:connector-curvature="0"
       transform="matrix(0.26458333,0,0,0.26458333,0,197)" />
    <path
       style="fill:#000000;fill-opacity:1;stroke:#000000;stroke-width:0.15000001;stroke-miterlimit:4;stroke-dasharray:none;stroke-opacity:1"
       d="m 177.72673,325.41306 c -3.575,-0.51609 -10.2125,-1.66047 -14.75,-2.54306 l -8.25,-1.60471 2.25,-0.67245 c 1.2375,-0.36985 4.81118,-1.34214 7.9415,-2.16065 l 5.69149,-1.48821 10.27982,4.2823 c 5.6539,2.35527 10.63022,4.48739 11.0585,4.73805 1.34476,0.78704 -7.26175,0.45343 -14.22131,-0.55127 z"
       id="path4595"
       inkscape:connector-curvature="0"
       transform="matrix(0.26458333,0,0,0.26458333,0,197)" />
    <path
       style="fill:#000000;fill-opacity:1;stroke:#000000;stroke-width:0.15000001;stroke-miterlimit:4;stroke-dasharray:none;stroke-opacity:1"
       d="m 134.54742,315.98493 c -5.87363,-1.63703 -10.76807,-3.06517 -10.87655,-3.17365 -0.21008,-0.21008 20.79962,-10.3608 21.44452,-10.3608 0.39362,0 18.5956,10.73615 19.7736,11.66314 1.01631,0.79976 -11.18578,4.34744 -15.91226,4.62639 -3.41181,0.20137 -4.71311,-0.0471 -14.42931,-2.75508 z"
       id="path4597"
       inkscape:connector-curvature="0"
       transform="matrix(0.26458333,0,0,0.26458333,0,197)" />
    <path
       style="fill:#000000;fill-opacity:1;stroke:#000000;stroke-width:0.15000001;stroke-miterlimit:4;stroke-dasharray:none;stroke-opacity:1"
       d="m 107.57247,200.87857 c -7.48374,-2.39432 -15.04201,-10.27968 -17.692867,-18.45852 -0.47371,-1.46157 -0.782117,-2.7204 -0.685349,-2.7974 0.09677,-0.077 2.362468,-0.83887 5.034889,-1.69303 6.112487,-1.95368 12.603447,-5.19473 18.748527,-9.36149 4.35361,-2.95203 5.00706,-3.23971 7.33593,-3.22971 7.06383,0.0303 11.8996,6.20104 11.94233,15.23902 0.031,6.56437 -0.46866,7.61792 -6.80207,14.34154 -4.1002,4.35284 -6.0486,6.05724 -7.33366,6.41529 -2.67435,0.74514 -7.43758,0.53935 -10.54773,-0.4557 z m 15.06013,-6.11818 c 5.60869,-3.15226 6.42676,-11.3192 1.68834,-16.85498 -5.77692,-6.74903 -16.85057,-5.72497 -19.09487,1.76584 -1.37799,4.59931 -0.44974,7.88265 3.33587,11.79938 4.57232,4.73068 9.46963,5.87569 14.07066,3.28976 z"
       id="path4615"
       inkscape:connector-curvature="0"
       transform="matrix(0.26458333,0,0,0.26458333,0,197)" />
    <path
       style="fill:#000000;fill-opacity:1;stroke:#000000;stroke-width:0.15000001;stroke-miterlimit:4;stroke-dasharray:none;stroke-opacity:1"
       d="m 144.6202,162.35988 c -3.94634,-1.20478 -8.39054,-4.86434 -9.52232,-7.84113 -1.255,-3.30091 -0.50798,-5.80197 3.65921,-12.25107 3.56517,-5.51741 5.69377,-9.79521 8.38305,-16.8472 2.49237,-6.53565 1.98269,-6.33565 8.43055,-3.30814 2.85846,1.34215 4.63205,2.67359 7.79445,5.85131 4.98645,5.01061 7.23222,9.14472 7.62486,14.0362 0.44509,5.54491 -0.11057,7.57748 -2.80003,10.2422 -6.9363,6.8725 -9.93173,9.38574 -11.8834,9.97048 -2.23026,0.6682 -9.67289,0.76204 -11.68637,0.14735 z m 15.9073,-5.48515 c 1.04726,-0.53427 2.56529,-1.92549 3.3734,-3.0916 1.26981,-1.83234 1.46679,-2.56724 1.4508,-5.41294 -0.0222,-3.95775 -1.17956,-6.47602 -4.25179,-9.2516 -3.89647,-3.52022 -8.77839,-4.72615 -12.62077,-3.11758 -2.24899,0.94151 -5.23559,4.41045 -5.63634,6.5466 -0.62392,3.32578 1.04339,8.14236 4.05926,11.72651 3.24602,3.85768 9.00631,4.95711 13.62544,2.60061 z"
       id="path4617"
       inkscape:connector-curvature="0"
       transform="matrix(0.26458333,0,0,0.26458333,0,197)" />
  </g>
</svg>
